<?xml version="1.0" encoding="utf-8"?>
<!-- Generator: Adobe Illustrator 19.0.0, SVG Export Plug-In . SVG Version: 6.00 Build 0)  -->
<svg version="1.1" id="Layer_1" xmlns="http://www.w3.org/2000/svg" xmlns:xlink="http://www.w3.org/1999/xlink" x="0px" y="0px"
	 viewBox="0 0 720 3456" style="enable-background:new 0 0 720 3456;" xml:space="preserve">
<g id="XMLID_1_">
	<path id="XMLID_3_" d="M383.7,2056.9c18.6-51.7,62.1-84.4,97.1-72.9c35,11.4,48.4,62.6,29.9,114.3c-18.6,51.7-62,84.4-97.1,72.9
		C378.5,2159.8,365.1,2108.6,383.7,2056.9z M306.7,2165.6c37.4-11.1,55.5-61.5,40.4-112.4c-15.1-51-57.8-83.3-95.2-72.2
		c-37.4,11.1-55.5,61.4-40.4,112.4C226.6,2144.4,269.2,2176.8,306.7,2165.6z M215.3,2179.9c-14.5-48.8-53.7-80.2-87.5-70.1
		c-33.9,10-49.6,57.7-35.1,106.5c14.5,48.8,53.7,80.2,87.6,70.1C214,2276.4,229.7,2228.7,215.3,2179.9z M364.9,2181.1l-7.3-0.1
		c0,0-144.4,20.6-147.1,186.4c-2.5,97.3,79.4,56.2,79.4,56.2s34.9-33.7,63.4-33.1l7.2,0.9c28.5,0.6,62,35.9,62,35.9
		s80.1,43.6,81.6-53.8C508.3,2207.8,364.9,2181.1,364.9,2181.1z M596.4,2115.9c-33.4-10.8-74.9,20.2-92.6,69.4
		c-17.7,49.2-5,97.8,28.4,108.6c33.4,10.8,74.8-20.2,92.6-69.4C642.5,2175.4,629.8,2126.8,596.4,2115.9z"/>
	<path id="XMLID_193_" d="M594.9,71.2c0,6.1-2.6,9.7-8,10.8c-5.3,1.1-11.5,2-18.5,2.7c-37.3,119.2-70.3,224.4-99.3,315.6
		c-6.4,20.2-13.7,30.4-21.7,30.4c-6.7,0-13.2-8.2-19.3-24.6c-27.6-80.3-47.7-136.8-60.2-169.6c-5.5,9.6-27.6,66.3-66.5,170.1
		c-6.1,16.1-12.5,24.1-19.3,24.1c-5.8,0-10.3-2.9-13.5-8.7c-3.2-5.8-16.9-42.4-41-109.9c-40.5-118.5-67.5-194.6-80.9-228.4l-7.7-1.9
		c-7.1-1.6-10.6-5.9-10.6-13c0-7.1,4.7-10.6,14-10.6l79,1c13.2,0,19.8,3.1,19.8,9.2c0,5.1-1.4,8.7-4.3,10.6c-2.9,1.9-6.9,3.9-12,5.8
		c1.9,14.5,29.5,91.2,82.9,230.3c20.2-49.5,36.1-89,47.7-118.5c-11.6-34.4-24.3-72.3-38.1-113.7c-5.5-1-10.4-2.1-14.7-3.4
		c-4.3-1.3-6.5-4.8-6.5-10.6c0-6.7,5.1-10.1,15.4-10.1c28.9,0,60.7,0.3,95.4,1c3.9,0,7.1,1.3,9.6,3.9c2.6,2.6,3.9,5.3,3.9,8.2
		c0,4.2-1.5,7.2-4.6,9.2c-3.1,1.9-8.8,3.5-17.1,4.8c10.3,34.4,22.6,71,36.9,109.9c14.3,38.9,26.4,72,36.4,99.3
		c29.9-86.7,51.9-156.9,66-210.5c-9.3-1.3-15.7-2.8-19.3-4.6c-3.5-1.8-5.3-4.7-5.3-8.9c0-7.4,3.4-11.4,10.4-12
		c6.9-0.6,15.2-1,24.8-1c18.3,0,30.6,0.6,36.9,1.7C591.8,60.6,594.9,64.5,594.9,71.2z"/>
	<path id="XMLID_191_" d="M424.6,580.4c0-7.4,1.6-14.6,4.8-21.7c-50.1,0-83.2,0.5-99.3,1.4c0.3,92.5,1,149.2,1.9,170.1l54.4-1
		c1.3-7.4,2.8-13.6,4.6-18.8c1.8-5.1,5.2-7.7,10.4-7.7c4.8,0,8.2,2.7,10.1,8.2c1.3,3.5,2.1,22,2.4,55.4c0,11.2-3.2,16.9-9.6,16.9
		c-8.7,0-13.7-3.9-14.9-11.6l-2.4-14.9c-9-0.6-17.7-1-26-1c-10.3,0-19.9,0.5-28.9,1.4l-1.9,121.9h111.3c7.7,0,13.2-3.6,16.4-10.8
		c3.2-7.2,5.2-15.6,6-25.1c0.8-9.5,4.9-14.2,12.3-14.2c7.1,0,10.6,2.7,10.6,8.2c0,28.9-1.9,47.9-5.5,56.9
		c-3.7,9-11.5,13.5-23.4,13.5H312.4c-5.1,0-17.3-0.2-36.6-0.5c-19.3-0.3-32.2-0.8-38.8-1.4c-6.6-0.6-9.9-3.9-9.9-9.6
		c0-7.7,2.9-12.5,8.7-14.5c5.8-1.9,12.4-3.2,19.8-3.9c1-7.4,1.9-58.8,2.9-154.2c0-89.6-0.6-144.2-1.9-163.8h-8.2
		c-13.5,0-20.2-3.5-20.2-10.6c0-9,5.9-13.5,17.8-13.5c41.4,0,76.7-0.2,105.8-0.7c29.1-0.5,56.1-0.9,81.2-1.2
		c42.4,0,63.6,14.6,63.6,43.8c0,9-3.2,17.3-9.6,25.1c-6.4,7.7-15.7,11.6-27.9,11.6c-10.6,0-19-3-25.1-9.2
		C427.7,598.9,424.6,590.7,424.6,580.4z"/>
	<path id="XMLID_189_" d="M493.5,1334.4c0,32.4-25.9,48.7-77.6,48.7l-134.4-1c-23.1,0-37.1-0.2-41.9-0.7c-4.8-0.5-7.2-3.9-7.2-10.4
		c0-10.3,8.3-15.4,25.1-15.4c0.3-47.2,0.5-92,0.5-134.4c0-42.4,0.2-102.9,0.5-181.6c-7.4-0.6-13.2-2.1-17.3-4.3
		c-4.2-2.2-6.3-6.3-6.3-12c0-6.4,4.1-10,12.3-10.6c8.2-0.6,25.1-1,50.8-1c26,0.3,42.2,1.1,48.7,2.4c6.4,1.3,9.6,5,9.6,11.1
		c0,5.1-1.8,8.4-5.3,9.6c-3.5,1.3-9.2,2.6-16.9,3.9l-3.9,316.1c23.8,1.6,47.9,2.4,72.3,2.4h24.1c-4.2-7.1-6.3-14.6-6.3-22.6
		c0-12.8,3.8-22.4,11.3-28.7c7.5-6.3,16-9.4,25.3-9.4c11.9,0,21,3.5,27.2,10.6C490.4,1314,493.5,1323.1,493.5,1334.4z"/>
	<path id="XMLID_187_" d="M521.5,1777.5c0,6.4-4.7,16.5-14.2,30.1c-9.5,13.7-24.1,26.7-43.8,39.3c-19.8,12.5-50.5,18.8-92.3,18.8
		c-52.4,0-93.6-15.8-123.8-47.5c-30.2-31.6-45.3-77.5-45.3-137.6c0-59.7,17.7-107.1,53.2-142.1c35.5-35,80.2-52.5,134.2-52.5
		c39.8,0,69.8,8.9,89.9,26.7c20.1,17.8,30.1,36.9,30.1,57.1c0,12.2-3.6,21.2-10.8,27c-7.2,5.8-16,8.7-26.3,8.7
		c-10.9,0-19.5-3.2-25.8-9.6c-6.3-6.4-9.4-14.6-9.4-24.6c0-18.3,6.7-31,20.2-38.1c-15.7-15.7-36.8-23.6-63.1-23.6
		c-32.8,0-61,15.2-84.8,45.5c-23.8,30.4-35.7,73-35.7,127.9c0,43.4,12.7,80.2,38.1,110.6c25.4,30.4,52.5,45.5,81.4,45.5
		c18.9,0,36.6-4.3,53-12.8c16.4-8.5,33.7-25,52-49.4c4.8-6.4,10-9.6,15.4-9.6C518.9,1767.4,521.5,1770.8,521.5,1777.5z"/>
	<path id="XMLID_185_" d="M544.6,2572.5l-1.4,318.5c12.8,3.2,19.3,8.4,19.3,15.4c0,8.7-5,13.1-14.9,13.2c-10,0.2-19,0.2-27,0.2
		c-40.5-0.3-62.8-1.3-67-2.9c-4.2-1.6-6.3-5.8-6.3-12.5c0-4.5,6.6-8.5,19.8-12c1-68.4,2.9-162.5,5.8-282.3
		c-22.2,62.6-43.8,123.1-65,181.4c-21.2,58.3-34.9,93.5-41,105.5c-6.1,12-13.5,18.1-22.2,18.1c-6.7,0-12.9-3.4-18.3-10.4
		c-5.5-6.9-19.4-36.1-41.7-87.4c-22.3-51.4-47.8-110.2-76.4-176.3l2.9,252c9,1.6,15.6,3.1,19.8,4.6c4.2,1.4,6.3,5.2,6.3,11.3
		c0,5.8-3.8,9.2-11.3,10.1c-7.6,1-16.5,1.4-26.7,1.4c-2.6,0-7.8-0.1-15.7-0.2c-7.9-0.2-14.2-0.8-19-1.9c-4.8-1.1-7.2-4.6-7.2-10.4
		c0-8.7,8.3-13,25.1-13v-318c-15.1-1.6-22.6-6.6-22.6-14.9c0-7.7,5.8-11.6,17.3-11.6l47.2,0.5c10,0,18.9,5.7,26.7,17.1
		c7.9,11.4,22.6,41.4,44.3,90.1c21.7,48.7,46,102.5,73,161.6c19.6-48.5,51.1-132,94.4-250.5c4.5-12.8,14.5-19.4,29.9-19.8
		c34.4-1.3,55.2-1.9,62.6-1.9c7.4,0.3,11.1,3.9,11.1,10.6C566.3,2565.5,559,2570.3,544.6,2572.5z"/>
	<path id="XMLID_183_" d="M424.6,3071.1c0-7.4,1.6-14.6,4.8-21.7c-50.1,0-83.2,0.5-99.3,1.4c0.3,92.5,1,149.2,1.9,170.1l54.4-1
		c1.3-7.4,2.8-13.6,4.6-18.8c1.8-5.1,5.2-7.7,10.4-7.7c4.8,0,8.2,2.7,10.1,8.2c1.3,3.5,2.1,22,2.4,55.4c0,11.2-3.2,16.9-9.6,16.9
		c-8.7,0-13.7-3.9-14.9-11.6l-2.4-14.9c-9-0.6-17.7-1-26-1c-10.3,0-19.9,0.5-28.9,1.4l-1.9,121.9h111.3c7.7,0,13.2-3.6,16.4-10.8
		c3.2-7.2,5.2-15.6,6-25.1c0.8-9.5,4.9-14.2,12.3-14.2c7.1,0,10.6,2.7,10.6,8.2c0,28.9-1.9,47.9-5.5,56.9
		c-3.7,9-11.5,13.5-23.4,13.5H312.4c-5.1,0-17.3-0.2-36.6-0.5c-19.3-0.3-32.2-0.8-38.8-1.4c-6.6-0.6-9.9-3.9-9.9-9.6
		c0-7.7,2.9-12.5,8.7-14.5c5.8-1.9,12.4-3.2,19.8-3.9c1-7.4,1.9-58.8,2.9-154.2c0-89.6-0.6-144.2-1.9-163.8h-8.2
		c-13.5,0-20.2-3.5-20.2-10.6c0-9,5.9-13.5,17.8-13.5c41.4,0,76.7-0.2,105.8-0.7c29.1-0.5,56.1-0.9,81.2-1.2
		c42.4,0,63.6,14.6,63.6,43.8c0,9-3.2,17.3-9.6,25.1c-6.4,7.7-15.7,11.6-27.9,11.6c-10.6,0-19-3-25.1-9.2
		C427.7,3089.6,424.6,3081.4,424.6,3071.1z"/>
</g>
</svg>
