<?xml version="1.0" encoding="utf-8"?>
<!-- Generator: Adobe Illustrator 19.0.0, SVG Export Plug-In . SVG Version: 6.00 Build 0)  -->
<svg version="1.1" id="Layer_1" xmlns="http://www.w3.org/2000/svg" xmlns:xlink="http://www.w3.org/1999/xlink" x="0px" y="0px"
	 viewBox="0 0 720 3456" style="enable-background:new 0 0 720 3456;" xml:space="preserve">
<g id="XMLID_1_">
	<path id="XMLID_2_" d="M549.8,909.9c0,5-2.2,7.9-6.5,8.8c-4.3,0.9-9.4,1.6-15.1,2.2c-30.3,97-57.3,182.6-80.8,256.9
		c-5.2,16.5-11.1,24.7-17.6,24.7c-5.5,0-10.7-6.7-15.7-20c-22.5-65.4-38.8-111.4-49-138.1c-4.4,7.8-22.5,54-54.1,138.4
		c-5,13.1-10.2,19.6-15.7,19.6c-4.7,0-8.4-2.4-11-7.1c-2.6-4.7-13.7-34.5-33.3-89.4c-32.9-96.5-54.9-158.4-65.9-185.9l-6.3-1.6
		c-5.8-1.3-8.6-4.8-8.6-10.6c0-5.7,3.8-8.6,11.4-8.6l64.3,0.8c10.7,0,16.1,2.5,16.1,7.5c0,4.2-1.2,7.1-3.5,8.6
		c-2.4,1.6-5.6,3.1-9.8,4.7c1.6,11.8,24.1,74.3,67.5,187.5c16.5-40.3,29.4-72.4,38.8-96.5c-9.4-28-19.7-58.8-31-92.6
		c-4.4-0.8-8.4-1.7-12-2.7c-3.5-1-5.3-3.9-5.3-8.6c0-5.5,4.2-8.2,12.6-8.2c23.5,0,49.4,0.3,77.7,0.8c3.1,0,5.7,1,7.8,3.1
		c2.1,2.1,3.1,4.3,3.1,6.7c0,3.4-1.2,5.9-3.7,7.5c-2.5,1.6-7.1,2.9-13.9,3.9c8.4,28,18.4,57.8,30,89.4
		c11.6,31.6,21.5,58.6,29.6,80.8c24.3-70.6,42.2-127.7,53.7-171.4c-7.6-1-12.8-2.3-15.7-3.7c-2.9-1.4-4.3-3.9-4.3-7.3
		c0-6,2.8-9.3,8.4-9.8c5.6-0.5,12.4-0.8,20.2-0.8c14.9,0,24.9,0.5,30,1.4C547.3,901.2,549.8,904.4,549.8,909.9z"/>
	<path id="XMLID_4_" d="M411.2,1308.8c0-6,1.3-11.9,3.9-17.6c-40.8,0-67.7,0.4-80.8,1.2c0.3,75.3,0.8,121.5,1.6,138.4l44.3-0.8
		c1-6,2.3-11.1,3.7-15.3c1.4-4.2,4.2-6.3,8.4-6.3c3.9,0,6.7,2.2,8.2,6.7c1,2.9,1.7,17.9,2,45.1c0,9.2-2.6,13.7-7.8,13.7
		c-7.1,0-11.1-3.1-12.2-9.4l-2-12.2c-7.3-0.5-14.4-0.8-21.2-0.8c-8.4,0-16.2,0.4-23.5,1.2l-1.6,99.2h90.6c6.3,0,10.7-2.9,13.3-8.8
		c2.6-5.9,4.2-12.7,4.9-20.4c0.6-7.7,4-11.6,10-11.6c5.7,0,8.6,2.2,8.6,6.7c0,23.5-1.5,39-4.5,46.3c-3,7.3-9.3,11-19,11H319.8
		c-4.2,0-14.1-0.1-29.8-0.4c-15.7-0.3-26.2-0.7-31.6-1.2c-5.4-0.5-8-3.1-8-7.8c0-6.3,2.4-10.2,7.1-11.8c4.7-1.6,10.1-2.6,16.1-3.1
		c0.8-6,1.6-47.8,2.4-125.5c0-72.9-0.5-117.4-1.6-133.3h-6.7c-11,0-16.5-2.9-16.5-8.6c0-7.3,4.8-11,14.5-11
		c33.7,0,62.4-0.2,86.1-0.6c23.7-0.4,45.7-0.7,66.1-1c34.5,0,51.8,11.9,51.8,35.7c0,7.3-2.6,14.1-7.8,20.4
		c-5.2,6.3-12.8,9.4-22.7,9.4c-8.6,0-15.4-2.5-20.4-7.5C413.7,1323.8,411.2,1317.2,411.2,1308.8z"/>
	<path id="XMLID_10_" d="M466.3,1906.9c0,26.4-21,39.6-63.1,39.6l-109.4-0.8c-18.8,0-30.2-0.2-34.1-0.6c-3.9-0.4-5.9-3.2-5.9-8.4
		c0-8.4,6.8-12.6,20.4-12.6c0.3-38.4,0.4-74.9,0.4-109.4c0-34.5,0.1-83.8,0.4-147.9c-6-0.5-10.7-1.7-14.1-3.5
		c-3.4-1.8-5.1-5.1-5.1-9.8c0-5.2,3.3-8.1,10-8.6c6.7-0.5,20.5-0.8,41.4-0.8c21.2,0.3,34.4,0.9,39.6,2c5.2,1,7.8,4.1,7.8,9
		c0,4.2-1.4,6.8-4.3,7.8c-2.9,1-7.5,2.1-13.7,3.1l-3.1,257.3c19.3,1.3,39,2,58.8,2h19.6c-3.4-5.7-5.1-11.9-5.1-18.4
		c0-10.5,3.1-18.2,9.2-23.3c6.1-5.1,13-7.6,20.6-7.6c9.7,0,17.1,2.9,22.2,8.6C463.7,1890.3,466.3,1897.7,466.3,1906.9z"/>
	<path id="XMLID_13_" d="M490,2252c0,5.2-3.9,13.4-11.6,24.5c-7.7,11.1-19.6,21.8-35.7,32c-16.1,10.2-41.1,15.3-75.1,15.3
		c-42.6,0-76.2-12.9-100.8-38.6c-24.6-25.7-36.9-63.1-36.9-112c0-48.6,14.4-87.2,43.3-115.7c28.9-28.5,65.3-42.7,109.2-42.7
		c32.4,0,56.8,7.3,73.1,21.8c16.3,14.5,24.5,30,24.5,46.5c0,9.9-2.9,17.3-8.8,22c-5.9,4.7-13,7.1-21.4,7.1c-8.9,0-15.9-2.6-21-7.8
		c-5.1-5.2-7.6-11.9-7.6-20c0-14.9,5.5-25.2,16.5-31c-12.8-12.8-29.9-19.2-51.4-19.2c-26.7,0-49.7,12.4-69,37.1
		c-19.4,24.7-29,59.4-29,104.1c0,35.3,10.3,65.3,31,90c20.7,24.7,42.7,37.1,66.3,37.1c15.4,0,29.8-3.5,43.1-10.4
		c13.3-6.9,27.5-20.3,42.4-40.2c3.9-5.2,8.1-7.8,12.5-7.8C487.9,2243.8,490,2246.5,490,2252z"/>
	<path id="XMLID_23_" d="M470.6,2432.8c-28.5-32.7-66.9-49-115.3-49c-43.4,0-77.8,15.4-103.1,46.1c-25.4,30.7-38,68.7-38,113.9
		c0,43.4,13.1,79.7,39.2,109c26.1,29.3,61,43.9,104.7,43.9c43.1,0,77.3-13.3,102.4-40c30.3-32.4,45.5-72.7,45.5-120.8
		C505.9,2494.4,494.1,2460,470.6,2432.8z M423.9,2640.7c-15.7,23.3-38,34.9-67.1,34.9c-25.4,0-45.9-13.2-61.6-39.6
		c-15.7-26.4-23.5-55.8-23.5-88.2c0-36.3,9-69.9,27.1-100.8c16.2-27.2,36.3-40.8,60.4-40.8c29.8,0,52.7,15.3,68.6,45.9
		c15.2,29,22.7,58.7,22.7,89C450.6,2581.1,441.7,2614.3,423.9,2640.7z"/>
	<path id="XMLID_15_" d="M508.8,2781.5l-1.2,259.2c10.5,2.6,15.7,6.8,15.7,12.5c0,7.1-4.1,10.7-12.2,10.8c-8.1,0.1-15.4,0.2-22,0.2
		c-32.9-0.3-51.1-1-54.5-2.4c-3.4-1.3-5.1-4.7-5.1-10.2c0-3.7,5.4-6.9,16.1-9.8c0.8-55.7,2.4-132.3,4.7-229.8
		c-18,51-35.7,100.2-52.9,147.7c-17.3,47.5-28.4,76.1-33.3,85.9c-5,9.8-11,14.7-18,14.7c-5.5,0-10.5-2.8-14.9-8.4
		c-4.4-5.6-15.8-29.3-33.9-71.2c-18.2-41.8-38.9-89.7-62.2-143.5l2.4,205.1c7.3,1.3,12.7,2.5,16.1,3.7c3.4,1.2,5.1,4.3,5.1,9.2
		c0,4.7-3.1,7.5-9.2,8.2c-6.1,0.8-13.4,1.2-21.8,1.2c-2.1,0-6.3-0.1-12.7-0.2c-6.4-0.1-11.6-0.6-15.5-1.6c-3.9-0.9-5.9-3.7-5.9-8.4
		c0-7.1,6.8-10.6,20.4-10.6V2785c-12.3-1.3-18.4-5.4-18.4-12.2c0-6.3,4.7-9.4,14.1-9.4l38.4,0.4c8.1,0,15.4,4.6,21.8,13.9
		c6.4,9.3,18.4,33.7,36.1,73.3c17.6,39.6,37.5,83.5,59.4,131.6c15.9-39.5,41.6-107.5,76.9-203.9c3.7-10.5,11.8-15.8,24.3-16.1
		c28-1,45-1.6,51-1.6c6,0.3,9,3.1,9,8.6C526.5,2775.7,520.6,2779.6,508.8,2781.5z"/>
	<path id="XMLID_46_" d="M411.2,3171.7c0-6,1.3-11.9,3.9-17.6c-40.8,0-67.7,0.4-80.8,1.2c0.3,75.3,0.8,121.5,1.6,138.4l44.3-0.8
		c1-6,2.3-11.1,3.7-15.3c1.4-4.2,4.2-6.3,8.4-6.3c3.9,0,6.7,2.2,8.2,6.7c1,2.9,1.7,17.9,2,45.1c0,9.2-2.6,13.7-7.8,13.7
		c-7.1,0-11.1-3.1-12.2-9.4l-2-12.2c-7.3-0.5-14.4-0.8-21.2-0.8c-8.4,0-16.2,0.4-23.5,1.2l-1.6,99.2h90.6c6.3,0,10.7-2.9,13.3-8.8
		c2.6-5.9,4.2-12.7,4.9-20.4c0.6-7.7,4-11.6,10-11.6c5.7,0,8.6,2.2,8.6,6.7c0,23.5-1.5,39-4.5,46.3c-3,7.3-9.3,11-19,11H319.8
		c-4.2,0-14.1-0.1-29.8-0.4c-15.7-0.3-26.2-0.7-31.6-1.2c-5.4-0.5-8-3.1-8-7.8c0-6.3,2.4-10.2,7.1-11.8c4.7-1.6,10.1-2.6,16.1-3.1
		c0.8-6,1.6-47.8,2.4-125.5c0-72.9-0.5-117.4-1.6-133.3h-6.7c-11,0-16.5-2.9-16.5-8.6c0-7.3,4.8-11,14.5-11
		c33.7,0,62.4-0.2,86.1-0.6c23.7-0.4,45.7-0.7,66.1-1c34.5,0,51.8,11.9,51.8,35.7c0,7.3-2.6,14.1-7.8,20.4
		c-5.2,6.3-12.8,9.4-22.7,9.4c-8.6,0-15.4-2.5-20.4-7.5C413.7,3186.7,411.2,3180.1,411.2,3171.7z"/>
	<path id="XMLID_18_" d="M458,270.4c-13.1,13.8-24.7,22.9-27.9,23.2c-6.1,0.5-9.2-4.5-8.8-15.5c9.6-3.5,21.6-10.7,20.5-20.1
		c-0.4-4.6-4.7-6.5-9.4-6.5c-12.2,0-22.6,11.6-24.3,24c-3.6,6.7-7.3,13.6-10.8,19.9c-6.2,11.1-10.4,18.4-10.4,11.7
		c0.7-6.6,1.1-13.2,1.9-19.8c0.9-10,1.2-21.9-1.2-29.4c-3.6-13.6-17.7-11.9-32.9,21.5c-1.3-4.5-2.3-9.6-2.7-15.2
		c14.4-17,28.9-30.2,32.7-51c3-16.5-4.2-24.8-19.3-17.9c-11.8,5.2-20.3,17.4-24.6,32.2c-6,0.5-12,0.5-17.6-0.2
		c0.7-4.2,2.7-12.8,2.2-17.9c-0.8-6.9-8.2-6.5-11.5-0.1c-2.7,4.7-4.2,7.4-6.3,15.7c-14.2-2.4-31.8-2-42.6,6.6
		c-2.6,2-5.3,5.3-2.2,6.1c1.4,0.3,2.8-0.7,4.6-2.7c9.9-9.9,27.9-8.4,39.4-5.8c-0.1,1.4-0.4,3.2-0.7,4.5c-3.2,24.8-4,61,3.9,77.3
		c5.4,10.8,10.3,9,15.4-0.8c5.7-11.6,10.4-21,15.7-31.9c1.7,5.7,4,11.3,7,16.4c4,7.3,12,3.4,10.7-1.6c-2-9.3-0.9-12.8,3.4-20.8
		c10.5-19.7,20.6-21.1,16.1,0.5c-5,21.3-4.9,36.8-2.6,44.1c3.4,10.1,9.3,10.4,14.8,0.4c3.5-7.7,8-15.4,11.5-23.2
		c2-4.4,4.1-8.7,6.2-12.9c1,10,9.6,19.9,19.5,18c6.3-1.2,20.2-13.9,30.8-25.6C459.5,272.3,458.6,269.6,458,270.4z M322.1,308.1
		c-5.4,10.7-6.7,3.2-6.7-7.2c-0.3-21.9,1.8-43.6,5.9-65c0.4-2,0.5-2.8,1.1-4.9c5.5,0.5,11.4,0.4,17.3-0.1c-3.3,13.5-3.4,28.8,0.1,43
		C335.4,282.4,323.5,305.4,322.1,308.1z M354.1,228.9c6.8-1.4,13-3.2,17.7-5.3c2.4-0.9,2-4.5,0.8-4c-5.4,2.3-11.4,4.2-17.6,5.6
		c2.4-9.5,6-17.9,10.9-23.4c11.2-12.4,19.2-3.5,15.7,11.7c-4.6,19.8-17.7,31.8-29.8,46.8C351.1,250.2,351.9,239.1,354.1,228.9z
		 M432.7,254c3,0,5.5,1.9,5.7,5c0,7.3-10.8,13.4-17.3,14.7C421.3,264,425.9,254,432.7,254z"/>
	<path id="XMLID_6_" d="M386.3,527.1c0-3.1,2.7-5.8,5.9-5.8c3.2,0,5.9,2.7,5.9,5.8c0,3.2-2.7,5.9-5.9,5.9
		C388.9,533,386.3,530.3,386.3,527.1z M531.7,559.3c-4.7,1.9-11.3,6.2-16.7,10.3c0.7,17.4-7.8,40.9-19.7,54.5
		c-18.1,20.8-30.9,14.7-25.6-5.3c3.8-15.1,16.7-31.2,30.2-44.3c0.4-0.3,4.9-4.6,5.3-4.9c-0.7-13.8-4.5-16.6-10.4-9
		c-5.5,6.5-13.4,15.8-21.3,22.5c-9.3,7.3-13.6,5.9-15.1-4.7c-0.3-1.8-0.7-3.4-0.7-5.1c0-0.7,0-1.4,0-2.2c-7,9.6-14.6,20.2-22.9,31.7
		c-6.9,9.4-15.5,6.9-17.5-3.5c-1.7-9.4-2-21.3-1-33.9c-2.1,3.9-3.6,6.8-6.9,12.4c-2.3,4-4.6,8-7,11.9c-1.1,1.5-2.2,3.1-3.5,4.3
		c-2.6,2.7-8,2.6-10.1-0.5c-1.4-1.9-2.4-4-3.1-6.3c-1.2-4.1-2-8.4-2.4-12.8c-6.3,12.8-10.3,20.7-16.2,32.8c-4,7-8.2,9.9-12.4,4.3
		c-5.9-8.2-3.8-22.9-0.8-35.8l4-16.5c1.8-7-0.5-10.1-5.3-3.6c-1.6,2.6-3.2,5.1-4.6,8c-2.7,5.7-5.4,11.3-6.3,17.7
		c-0.3,3.5-4.5,3.5-5.5,0.7c-0.7-1.5-0.9-3-1.3-4.5c-2.3-8.5-2.4-17.1-1.6-25.8c0-9.7-7.7,6.3-10.1,22.9c-0.1,0-1.1,15.9-0.9,15.9
		c-0.1,1.3-0.7,2.3-2,2.6c-1.5,0.3-2.7-0.1-3.6-1.3c-0.4-0.7-0.9-1.3-1.2-2.2c-1.9-5.9-3.7-11.5-5-16.7
		c-4.4,11.6-6.3,16.8-10.6,27.8c-3,5.8-5.9,6.3-8.9,6.3c-7.2,0-9.4-10.9-9.4-21.2c0-10.3,2.3-25.6,2.3-29.7c0-1.1-0.3-1.6-0.8-1.6
		c-1.1,0-3,1.6-5.9,4.3c-11.5,10.5-20.2,20.8-29.2,20.8c-7.1,0-8.9-6.4-7-13.7c-15.5,11.1-27.1,16.6-39.8,22.3
		c18.1,0,20.6,24.8,5.4,24.8c-6.9,0.1-15.4-9.2-18.9-21.6c-8.5-33.9,10.8-83.4,42.5-96.4c18.5-7.6,35.5,1.9,26,20.5
		c-8.8,17.3-28.9,32.8-55.2,47.8c-0.7,7-0.7,16.1-0.7,21.5c14.2-5.5,25.1-10.9,42.6-24.3c3.7-7.5,10.8-14.3,19.6-14.3
		c5,0,9.9,1.8,13.4,5c0.5,0.3,1.1,0.9,1.1,1.5c0,1.1-1.1,1.9-1.9,1.1c-1.6-2.2-4.9-3.5-8.5-3.5c-11.2,0-21.7,21.1-12.6,21.1
		c2,0,8.2-4.7,11.6-7.6c5.5-4.5,10.8-9.3,16.5-13.8c2.4-1.9,4.6-2.7,6.5-2.7c4,0,6.6,3.9,6.6,10.3c0.7,18.5-1.5,29.7-1.5,39.7
		c0,3.4,1.5,3.8,2.7,1.5c5.5-12.1,8.2-18.8,12.9-31.2c-1.8-8.1-2.4-15.2-1.3-21.2c0.3-0.9,0.5-1.9,0.9-2.8c1.8-3.6,5.4-3.6,6.7,0
		c0.5,1.1,0.8,2.2,0.9,3.4c0.8,4.9,1.5,9.7,2.2,14.7c0.5,3,1.3,7.7,2.6,3.6c1.2-4.2,3-10.8,4.9-15c3.1-7.6,9.6-11.5,13.6-5.5
		c2.3,3.1,3.4,8.8,3.6,13.1c0.1,3.2,0.1,7.3,2.7,3c1.8-2.6,3.5-5.4,5.4-8c3.6-5.1,12.4-4.9,14.7,2.2c0.8,2.3,1.2,5,1.3,7.4
		c0.4,6.1-0.5,11.9-1.5,17.8l-3.9,22.1c-0.9,6.6,0.9,5.3,4.2-0.8c3.8-7.5,11.9-23.6,16.8-33.3c-0.2-4.3-0.2-8.7,0.1-13
		c0.7-7.8,1.9-13.6,7.7-13.6c9.6,0,8.8,22.3,5.7,40.2c-0.9,4.6-1.2,13,6.7-0.8c9.7-15.3,11.8-19.3,13.9-22.8
		c2.6-22.8,9.2-46.5,18.6-60.1c14.7-21.3,39.9-20,33.5,6.1c-3.1,12.6-23.5,37.8-36.6,50.5c-2.8,19.7-3.4,24.7-4.6,37.8
		c-0.5,9.2-1.6,13,4.3,5.8c3.3-4,17.8-22.4,25.9-33.1c0.5-3.5,1.2-7,2.4-10.4c3.5-9.9,9.4-12.3,9.7-5.3c0.4,2.8,0.4,5.8,0.1,8.6
		c-0.3,5.5-0.8,11.2-1.1,16.7c-1.3,9.2,8.8,0.5,23.9-18.8c6.7-8.6,14.4-9.2,19.2,0.8c0.9,2.2,1.8,4.6,2.2,7.2
		c5.1-2.8,12-5.8,17.3-7.7C535.9,555,535.8,557.7,531.7,559.3z M433.2,549.5c13.5-14.6,23.5-27.8,29.4-39.5
		c10.3-20-6.6-32.4-15.9-11.9C440.4,513,435.5,532.6,433.2,549.5z M201.1,558.5c23.1-11.6,44.5-29.7,50.6-42.9
		c8.4-18.2-9.9-20.8-18.4-16.5c-16.6,8.4-26.3,29.4-31.2,51.8C201.6,553.4,201.5,555.9,201.1,558.5z M200.3,592
		c0.3,7.4,0.9,15.4,5.5,15.4C215.1,607.4,213,592,200.3,592z M505.1,576.2c-2,1.4-3.4,2.4-4.2,3.2c-11.5,10.5-25.8,28.3-28.3,41.2
		c-3.5,18.6,9.3,16.1,19.4,0.3C499.7,609.1,505.1,589.8,505.1,576.2z"/>
	<path id="XMLID_5_" d="M691.1,638.8c-38.4,24.1-80,45.4-123.9,62.6c14.6,27.1-1,59.6-24.8,79.8c-0.8,0.7-2.1,0.7-2.9,0.2
		c-12.6-7.5-12.7-26.1-11.7-38c1.1-12.4,6.3-23.9,14.7-32.8c-42.5,14.8-87.1,25.6-132.6,31.3c11.9,28.9-8.6,59.7-35.6,76.9
		c-0.9,0.6-2.2,0.4-2.9-0.2c-11.7-9-9.2-27.5-6.6-39.2c3.4-14.9,12.8-27.6,26.2-35.5c-41.9,4-84.3,3.6-126-1.8
		c-0.6,30.1-31.5,51.7-62.9,58.9c-1,0.2-2.1-0.4-2.6-1.2c-7.1-12.1,2.3-28.4,9.1-38.6c7.9-11.6,19.5-19.8,33-23.7
		c-48.3-11.3-118.7-45.3-147.7-68.4c-32.1,1.8-57.3-24.9-66.9-51.5c-0.3-0.8,0-1.9,0.8-2.4c11.7-6.9,29.1-0.2,40.1,5.1
		c17.7,8.6,30.3,24.3,31.9,43.6c15.1,11.4,39.8,25.8,67.2,38.2c-7.8-7.3-13-16.8-15.7-27.7c-3.1-12.3-3.4-32.6,7.4-41.6
		c0.7-0.6,1.9-0.6,2.6,0c22.9,19,43.6,49.6,30.8,80c28.9,11.5,57.9,19.7,77.2,22.2c15.2,2,30.6,3.2,46,3.8
		c-8.6-4.6-15.8-11.5-21.4-19.9c-7-10.4-14.2-28.7-7-40.3c0.5-0.8,1.6-1.2,2.5-0.9c27.8,9.8,57.2,30.8,58.8,61.5
		c43.7-0.9,87.2-6.9,129.4-17.2c-14.7-1.6-27.3-9.2-37-20.6c-8.1-9.5-17.4-26.8-11.7-39.2c0.4-0.8,1.4-1.4,2.3-1.2
		c29,6.6,61.1,24.6,65.4,56c42.7-11.8,83.8-27.8,122.5-46.9c-13.1-0.8-25.1-6.6-35-16c-9.1-8.4-20.2-24.6-16.2-37.5
		c0.3-0.8,1.2-1.5,2.1-1.4c27.8,3,59.7,16.3,69.3,44.6c16.3-8.7,32.2-17.8,47.5-27.4C691.2,629.7,695.5,636,691.1,638.8z"/>
	<path id="XMLID_7_" d="M692.1,221.9c-11.7,6.9-29.1,0.2-40.1-5.1c-17.7-8.6-30.3-24.3-31.9-43.6c-15.1-11.4-39.8-25.8-67.2-38.2
		c7.8,7.3,13,16.8,15.7,27.7c3.1,12.3,3.4,32.6-7.4,41.6c-0.7,0.6-1.9,0.6-2.6,0c-22.9-19-43.6-49.6-30.8-80
		c-28.9-11.5-57.9-19.7-77.2-22.2c-15.2-2-30.6-3.2-46-3.8c8.6,4.6,15.8,11.5,21.4,19.9c7,10.4,14.2,28.7,7,40.3
		c-0.5,0.8-1.6,1.2-2.5,0.9c-27.8-9.8-57.2-30.8-58.8-61.5c-43.7,0.9-87.2,6.9-129.4,17.2c14.7,1.6,27.3,9.2,37,20.6
		c8.1,9.5,17.4,26.8,11.7,39.2c-0.4,0.8-1.4,1.4-2.3,1.2c-29-6.6-61.1-24.6-65.4-56c-42.7,11.8-83.8,27.8-122.5,46.9
		c13.1,0.8,25.1,6.6,35,16c9.1,8.4,20.2,24.6,16.2,37.5c-0.3,0.8-1.2,1.5-2.1,1.4c-27.8-3-59.7-16.3-69.3-44.6
		c-16.3,8.7-32.2,17.8-47.5,27.4c-4.3,2.7-8.6-3.6-4.3-6.4c38.4-24.1,80-45.4,123.9-62.6c-14.6-27.1,1-59.6,24.8-79.8
		c0.8-0.7,2.1-0.7,2.9-0.2c12.6,7.5,12.7,26.1,11.7,38c-1.1,12.4-6.3,23.9-14.7,32.8C220,111.7,264.5,101,310,95.2
		c-11.9-28.9,8.6-59.7,35.6-76.9c0.9-0.6,2.2-0.4,2.9,0.2c11.7,9,9.2,27.5,6.6,39.2c-3.4,14.9-12.8,27.6-26.2,35.5
		c41.9-4,84.3-3.6,126,1.8c0.6-30.1,31.5-51.7,62.9-58.9c1-0.2,2.1,0.4,2.6,1.2c7.1,12.1-2.3,28.4-9.1,38.6
		c-7.9,11.6-19.5,19.8-33,23.7c48.3,11.3,118.7,45.3,147.7,68.4c32.1-1.8,57.3,24.9,66.9,51.5C693.1,220.3,692.9,221.4,692.1,221.9z
		"/>
</g>
</svg>
