<?xml version="1.0" encoding="utf-8"?>
<!-- Generator: Adobe Illustrator 19.0.0, SVG Export Plug-In . SVG Version: 6.00 Build 0)  -->
<svg version="1.1" id="Layer_1" xmlns="http://www.w3.org/2000/svg" xmlns:xlink="http://www.w3.org/1999/xlink" x="0px" y="0px"
	 viewBox="0 0 720 3456" style="enable-background:new 0 0 720 3456;" xml:space="preserve">
<g id="XMLID_1_">
	<path id="XMLID_180_" d="M546.2,643.8c0,4.9-2.1,7.8-6.3,8.7c-4.2,0.9-9.2,1.6-14.8,2.1c-29.7,95.1-56.2,179.1-79.2,251.9
		c-5.1,16.2-10.9,24.2-17.3,24.2c-5.4,0-10.5-6.5-15.4-19.6C391,847,375,801.8,365,775.7c-4.4,7.7-22.1,53-53.1,135.8
		c-4.9,12.8-10,19.2-15.4,19.2c-4.6,0-8.2-2.3-10.8-6.9c-2.6-4.6-13.5-33.8-32.7-87.7c-32.3-94.6-53.8-155.4-64.6-182.3l-6.2-1.5
		c-5.6-1.3-8.5-4.7-8.5-10.4c0-5.6,3.7-8.5,11.2-8.5l63.1,0.8c10.5,0,15.8,2.4,15.8,7.3c0,4.1-1.2,6.9-3.5,8.5
		c-2.3,1.5-5.5,3.1-9.6,4.6c1.5,11.5,23.6,72.8,66.2,183.9c16.2-39.5,28.8-71,38.1-94.6c-9.2-27.4-19.4-57.7-30.4-90.8
		c-4.4-0.8-8.3-1.7-11.7-2.7c-3.5-1-5.2-3.8-5.2-8.5c0-5.4,4.1-8.1,12.3-8.1c23.1,0,48.5,0.3,76.2,0.8c3.1,0,5.6,1,7.7,3.1
		c2,2.1,3.1,4.2,3.1,6.5c0,3.3-1.2,5.8-3.7,7.3c-2.4,1.5-7,2.8-13.7,3.8c8.2,27.4,18,56.7,29.4,87.7c11.4,31,21.1,57.4,29,79.2
		c23.8-69.2,41.4-125.3,52.7-168.1c-7.4-1-12.6-2.2-15.4-3.7c-2.8-1.4-4.2-3.8-4.2-7.1c0-5.9,2.8-9.1,8.3-9.6
		c5.5-0.5,12.1-0.8,19.8-0.8c14.6,0,24.4,0.5,29.4,1.3C543.7,635.2,546.2,638.4,546.2,643.8z"/>
	<path id="XMLID_178_" d="M410.2,1075.3c0-5.9,1.3-11.7,3.8-17.3c-40,0-66.4,0.4-79.2,1.2c0.3,73.8,0.8,119.1,1.5,135.8l43.5-0.8
		c1-5.9,2.2-10.9,3.7-15c1.4-4.1,4.2-6.2,8.3-6.2c3.8,0,6.5,2.2,8.1,6.5c1,2.8,1.7,17.6,1.9,44.2c0,9-2.6,13.5-7.7,13.5
		c-6.9,0-10.9-3.1-11.9-9.2l-1.9-11.9c-7.2-0.5-14.1-0.8-20.8-0.8c-8.2,0-15.9,0.4-23.1,1.2l-1.5,97.3h88.8c6.2,0,10.5-2.9,13.1-8.7
		c2.6-5.8,4.2-12.4,4.8-20c0.6-7.6,3.9-11.3,9.8-11.3c5.6,0,8.5,2.2,8.5,6.5c0,23.1-1.5,38.2-4.4,45.4c-3,7.2-9.2,10.8-18.7,10.8
		H320.6c-4.1,0-13.8-0.1-29.2-0.4c-15.4-0.3-25.7-0.6-31-1.2c-5.3-0.5-7.9-3.1-7.9-7.7c0-6.2,2.3-10,6.9-11.5
		c4.6-1.5,9.9-2.6,15.8-3.1c0.8-5.9,1.5-46.9,2.3-123.1c0-71.5-0.5-115.1-1.5-130.8h-6.5c-10.8,0-16.2-2.8-16.2-8.5
		c0-7.2,4.7-10.8,14.2-10.8c33.1,0,61.2-0.2,84.4-0.6c23.2-0.4,44.8-0.7,64.8-1c33.8,0,50.8,11.7,50.8,35c0,7.2-2.6,13.8-7.7,20
		c-5.1,6.2-12.6,9.2-22.3,9.2c-8.5,0-15.1-2.4-20-7.3C412.6,1090,410.2,1083.5,410.2,1075.3z"/>
	<path id="XMLID_176_" d="M464.2,1702c0,25.9-20.6,38.8-61.9,38.8l-107.3-0.8c-18.5,0-29.6-0.2-33.5-0.6c-3.8-0.4-5.8-3.1-5.8-8.3
		c0-8.2,6.7-12.3,20-12.3c0.3-37.7,0.4-73.5,0.4-107.3c0-33.8,0.1-82.2,0.4-145c-5.9-0.5-10.5-1.7-13.8-3.5c-3.3-1.8-5-5-5-9.6
		c0-5.1,3.3-7.9,9.8-8.5c6.5-0.5,20.1-0.8,40.6-0.8c20.8,0.3,33.7,0.9,38.8,1.9c5.1,1,7.7,4,7.7,8.8c0,4.1-1.4,6.7-4.2,7.7
		c-2.8,1-7.3,2.1-13.5,3.1l-3.1,252.3c19,1.3,38.2,1.9,57.7,1.9h19.2c-3.3-5.6-5-11.7-5-18.1c0-10.3,3-17.9,9-22.9
		c6-5,12.8-7.5,20.2-7.5c9.5,0,16.7,2.8,21.7,8.5C461.7,1685.7,464.2,1693,464.2,1702z"/>
	<path id="XMLID_174_" d="M487.5,2079.1c0,5.1-3.8,13.1-11.3,24c-7.6,10.9-19.2,21.3-35,31.3c-15.8,10-40.3,15-73.7,15
		c-41.8,0-74.7-12.6-98.8-37.9c-24.1-25.3-36.2-61.9-36.2-109.8c0-47.7,14.2-85.5,42.5-113.5c28.3-27.9,64-41.9,107.1-41.9
		c31.8,0,55.7,7.1,71.7,21.3c16,14.2,24,29.4,24,45.6c0,9.7-2.9,16.9-8.7,21.5c-5.8,4.6-12.8,6.9-21,6.9c-8.7,0-15.6-2.6-20.6-7.7
		c-5-5.1-7.5-11.7-7.5-19.6c0-14.6,5.4-24.7,16.2-30.4c-12.6-12.6-29.4-18.8-50.4-18.8c-26.2,0-48.7,12.1-67.7,36.3
		c-19,24.2-28.5,58.3-28.5,102.1c0,34.6,10.1,64,30.4,88.3c20.3,24.2,41.9,36.3,65,36.3c15.1,0,29.2-3.4,42.3-10.2
		c13.1-6.8,26.9-19.9,41.5-39.4c3.8-5.1,7.9-7.7,12.3-7.7C485.4,2071,487.5,2073.7,487.5,2079.1z"/>
	<path id="XMLID_171_" d="M468.5,2297.9c-28-32-65.6-48.1-113.1-48.1c-42.6,0-76.3,15.1-101.2,45.2c-24.9,30.1-37.3,67.4-37.3,111.7
		c0,42.6,12.8,78.2,38.5,106.9c25.6,28.7,59.9,43.1,102.7,43.1c42.3,0,75.8-13.1,100.4-39.2c29.7-31.8,44.6-71.3,44.6-118.5
		C503.1,2358.3,491.5,2324.6,468.5,2297.9z M422.7,2501.7c-15.4,22.8-37.3,34.2-65.8,34.2c-24.9,0-45-12.9-60.4-38.8
		c-15.4-25.9-23.1-54.7-23.1-86.5c0-35.6,8.8-68.6,26.5-98.8c15.9-26.7,35.6-40,59.2-40c29.2,0,51.7,15,67.3,45
		c14.9,28.5,22.3,57.6,22.3,87.3C448.8,2443.3,440.1,2475.8,422.7,2501.7z"/>
	<path id="XMLID_169_" d="M506,2679.8l-1.2,254.2c10.3,2.6,15.4,6.7,15.4,12.3c0,6.9-4,10.5-11.9,10.6c-8,0.1-15.1,0.2-21.5,0.2
		c-32.3-0.3-50.1-1-53.5-2.3c-3.3-1.3-5-4.6-5-10c0-3.6,5.3-6.8,15.8-9.6c0.8-54.6,2.3-129.7,4.6-225.4c-17.7,50-35,98.3-51.9,144.8
		c-16.9,46.5-27.8,74.6-32.7,84.2c-4.9,9.6-10.8,14.4-17.7,14.4c-5.4,0-10.3-2.8-14.6-8.3c-4.4-5.5-15.5-28.8-33.3-69.8
		c-17.8-41-38.1-87.9-61-140.8l2.3,201.2c7.2,1.3,12.4,2.5,15.8,3.7c3.3,1.2,5,4.2,5,9c0,4.6-3,7.3-9,8.1c-6,0.8-13.1,1.2-21.3,1.2
		c-2.1,0-6.2-0.1-12.5-0.2c-6.3-0.1-11.3-0.6-15.2-1.5c-3.8-0.9-5.8-3.7-5.8-8.3c0-6.9,6.7-10.4,20-10.4v-253.9
		c-12.1-1.3-18.1-5.3-18.1-11.9c0-6.2,4.6-9.2,13.8-9.2l37.7,0.4c7.9,0,15.1,4.6,21.3,13.7c6.3,9.1,18.1,33.1,35.4,71.9
		c17.3,38.8,36.7,81.9,58.3,129c15.6-38.7,40.8-105.4,75.4-200c3.6-10.3,11.5-15.5,23.8-15.8c27.4-1,44.1-1.5,50-1.5
		c5.9,0.3,8.8,3.1,8.8,8.5C523.3,2674.1,517.5,2678,506,2679.8z"/>
	<path id="XMLID_167_" d="M410.2,3102.1c0-5.9,1.3-11.7,3.8-17.3c-40,0-66.4,0.4-79.2,1.2c0.3,73.8,0.8,119.1,1.5,135.8l43.5-0.8
		c1-5.9,2.2-10.9,3.7-15c1.4-4.1,4.2-6.2,8.3-6.2c3.8,0,6.5,2.2,8.1,6.5c1,2.8,1.7,17.6,1.9,44.2c0,9-2.6,13.5-7.7,13.5
		c-6.9,0-10.9-3.1-11.9-9.2l-1.9-11.9c-7.2-0.5-14.1-0.8-20.8-0.8c-8.2,0-15.9,0.4-23.1,1.2l-1.5,97.3h88.8c6.2,0,10.5-2.9,13.1-8.7
		c2.6-5.8,4.2-12.4,4.8-20c0.6-7.6,3.9-11.3,9.8-11.3c5.6,0,8.5,2.2,8.5,6.5c0,23.1-1.5,38.2-4.4,45.4c-3,7.2-9.2,10.8-18.7,10.8
		H320.6c-4.1,0-13.8-0.1-29.2-0.4c-15.4-0.3-25.7-0.6-31-1.2c-5.3-0.5-7.9-3.1-7.9-7.7c0-6.2,2.3-10,6.9-11.5s9.9-2.6,15.8-3.1
		c0.8-5.9,1.5-46.9,2.3-123.1c0-71.5-0.5-115.1-1.5-130.8h-6.5c-10.8,0-16.2-2.8-16.2-8.5c0-7.2,4.7-10.8,14.2-10.8
		c33.1,0,61.2-0.2,84.4-0.6c23.2-0.4,44.8-0.7,64.8-1c33.8,0,50.8,11.7,50.8,35c0,7.2-2.6,13.8-7.7,20c-5.1,6.2-12.6,9.2-22.3,9.2
		c-8.5,0-15.1-2.4-20-7.3C412.6,3116.8,410.2,3110.3,410.2,3102.1z"/>
	<path id="XMLID_165_" d="M161.7,121.2c-5.1,9.5-15.2,16.1-22,22c-5.4,8-11.3,16.1-15.8,25c-0.3,0-0.3,0-0.3,0.3c0,0,0,0,0,0.3
		c-0.6,0,0,0.3,0,0c9.2-3,21.1-12.8,33.4-7.4c1.5,2.7,0.9,6.3,0,8.6c-5.7,12.8-24.7,18.2-42,18.5c-6.6,13.7-10.7,29.8-15.8,45
		c6-3.3,23.5-18.8,30.4-7.1c0.3,2.7-0.3,5.1-0.9,6.8c-5.4,14-22,25.6-36.9,29.5c-4.8,16.7-7.4,35.4-9.2,55.4
		c6.6-7.1,13.4-19.4,23.8-23.5c6-2.7,10.1,0.6,10.7,6.6c0.6,10.1-6.3,20-11.9,26.5c-6.6,7.7-14.6,12.5-22,16.4
		c1.2,17.9,4.5,33.9,8.3,49.4c3.9-12.2,8.3-29.8,21.7-32.8c6.6-1.5,9.2,2.1,9.8,7.4c0.9,8.9-1.8,19.4-5.1,27.1
		c-5.1,11.3-10.1,19.4-20,23.5c6,19.7,12.5,39,20.8,56.9c5.1-13.4,11.6-25,21.4-33.9c2.7-2.4,7.7-7.1,12.2-6.6
		c3.9,0.6,5.7,7.7,5.7,13.1c0,24.1-18.8,37.2-32.2,48.8c7.4,17.6,19.1,31,31.9,43.8c3.3,3.3,12.2,7.4,12.5,12.8c0,3-2.7,7.7-5.7,8
		c-3,0.3-6.3-3.3-8.6-5.1c-18.2-14.6-32.2-34.2-42.6-54.2c-12.8-1.2-25.3-4.2-35.4-8.6c-9.5-4.5-20.5-10.1-20.8-23.5
		c4.5-11.3,28-11,39.3-5.7c-3.6-11.9-8-25.6-10.7-39.3c-15.5,2.4-27.4-5.4-36.3-12.2c-7.7-6-14.6-14.3-14-25.6
		c12.5-7.7,33.1,0.6,42.9,6c-2.4-14.9-4.8-29.5-5.7-45.9C56.3,343.4,33,335.9,28,321c-3-8.6,1.5-13.7,8.9-14.3
		c15.8-1.8,25.9,6.6,34.8,11.9c0-20,2.1-38.1,4.8-55.7c-8.6-2.4-14.3-8-19.4-16.1c-5.1-8-13.1-23.5-6.8-32.2
		c5.7-0.9,11,2.4,15.5,4.8c6.8,3.6,12.8,8,15.8,15.2c5.7-17.3,11-34.8,18.8-50c-6-6.6-14.6-14.9-18.2-25c-2.1-5.4-2.7-15.5,2.4-18.2
		c4.2-2.4,11,1.2,14,3.3c6.8,4.2,10.4,9.2,13.7,15.8c4.8-6.8,9.2-14,13.4-21.1c-1.5-17.6,6-31.6,16.1-39.6c3-2.7,8-6.6,11.9-6.8
		C167.9,90.8,165.9,112.9,161.7,121.2z"/>
	<path id="XMLID_163_" d="M555.3,561.6c-3-0.3-5.7-5.1-5.7-8c0.3-5.4,9.2-9.5,12.5-12.8C575,528,586.6,514.6,594,497
		c-13.4-11.6-32.2-24.7-32.2-48.8c0-5.4,1.8-12.5,5.7-13.1c4.5-0.6,9.5,4.2,12.2,6.6c9.8,8.9,16.4,20.5,21.4,33.9
		c8.3-17.9,14.9-37.2,20.8-56.9c-9.8-4.2-14.9-12.2-20-23.5c-3.3-7.7-6-18.2-5.1-27.1c0.6-5.4,3.3-8.9,9.8-7.4
		c13.4,3,17.9,20.5,21.7,32.8c3.9-15.5,7.1-31.6,8.3-49.4c-7.4-3.9-15.5-8.6-22-16.4c-5.7-6.6-12.5-16.4-11.9-26.5
		c0.6-6,4.8-9.2,10.7-6.6c10.4,4.2,17.3,16.4,23.8,23.5c-1.8-20-4.5-38.7-9.2-55.4c-14.9-3.9-31.6-15.5-36.9-29.5
		c-0.6-1.8-1.2-4.2-0.9-6.8c6.8-11.6,24.4,3.9,30.4,7.1c-5.1-15.2-9.2-31.3-15.8-45c-17.3-0.3-36.3-5.7-42-18.5
		c-0.9-2.4-1.5-6,0-8.6c12.2-5.4,24.1,4.5,33.4,7.4c0,0.3,0.6,0,0,0c0-0.3,0-0.3,0-0.3c0-0.3,0-0.3-0.3-0.3
		c-4.5-8.9-10.4-17-15.8-25c-6.8-6-17-12.5-22-22c-4.2-8.3-6.3-30.4,8-28.3c3.9,0.3,8.9,4.2,11.9,6.8c10.1,8,17.6,22,16.1,39.6
		c4.2,7.1,8.6,14.3,13.4,21.1c3.3-6.6,6.8-11.6,13.7-15.8c3-2.1,9.8-5.7,14-3.3c5.1,2.7,4.5,12.8,2.4,18.2
		c-3.6,10.1-12.2,18.5-18.2,25c7.7,15.2,13.1,32.8,18.8,50c3-7.1,8.9-11.6,15.8-15.2c4.5-2.4,9.8-5.7,15.5-4.8
		c6.3,8.6-1.8,24.1-6.8,32.2c-5.1,8-10.7,13.7-19.4,16.1c2.7,17.6,4.8,35.7,4.8,55.7c8.9-5.4,19.1-13.7,34.8-11.9
		c7.4,0.6,11.9,5.7,8.9,14.3c-5.1,14.9-28.3,22.3-44.7,26.5c-0.9,16.4-3.3,31-5.7,45.9c9.8-5.4,30.4-13.7,42.9-6
		c0.6,11.3-6.3,19.7-14,25.6c-8.9,6.8-20.8,14.6-36.3,12.2c-2.7,13.7-7.1,27.4-10.7,39.3c11.3-5.4,34.8-5.7,39.3,5.7
		c-0.3,13.4-11.3,19.1-20.8,23.5c-10.1,4.5-22.6,7.4-35.4,8.6c-10.4,20-24.4,39.6-42.6,54.2C561.6,558.4,558.3,561.9,555.3,561.6z"
		/>
</g>
</svg>
