<?xml version="1.0" encoding="utf-8"?>
<!-- Generator: Adobe Illustrator 19.0.0, SVG Export Plug-In . SVG Version: 6.00 Build 0)  -->
<svg version="1.1" id="Layer_1" xmlns="http://www.w3.org/2000/svg" xmlns:xlink="http://www.w3.org/1999/xlink" x="0px" y="0px"
	 viewBox="0 0 720 3456" style="enable-background:new 0 0 720 3456;" xml:space="preserve">
<g id="XMLID_1_">
	<path id="XMLID_127_" d="M652.6,2200.6c-19.7-7.2-36.1-18.6-53.3-30.1c-9.3-6.2-19-10.7-29.2-13.5c2.7-4.5,5.4-9,8.3-13.4
		c6.3-9.2,14-17.2,22.8-23.9c3.4-1.9,3.5-7.4,0.3-9.6c-1.2-1.1-2.8-1.5-4.5-0.9c-17,0.1-32.9-3.2-49.3-7.1c-2.9-0.7-5.7-1.3-8.6-1.7
		c6.5-11.6,9.9-24.2,11.6-37.9c2.5-20.2,6-38.9,15.5-57c1.4-1.3,1.7-3,1.2-4.6c-0.6-3.8-5.6-6.1-8.7-3.8
		c-16.3,7.6-33.4,11.7-51.1,14.9c-13.3,2.4-26.2,5.4-38,12.2c-3.7-15.9-6.6-31.2-4.5-48c1.1-3.8-2.7-7.7-6.5-7
		c-1.7,0.1-3.2,0.9-3.9,2.6c-11.9,12.1-25.4,20.9-39.8,29.8c-2.5,1.6-4.9,3.2-7.3,4.8c-3.2-11.4-8.5-22-16.2-32.1
		c-5.6-7.4-11.7-14.6-16.8-22.4c-6.5-9.9-11.3-20.5-14.8-31.8c0.1-1.7-0.8-3.1-2.1-3.9c-3-2.5-8.3-0.8-9.1,3.1
		c-7.1,19.5-18.4,35.8-29.8,52.9c-6.3,9.4-11,19.2-13.9,29.7c-4.5-2.7-9-5.3-13.3-8.3c-9.1-6.2-17.2-13.9-23.9-22.7
		c-1.9-3.4-7.4-3.5-9.6-0.3c-1.1,1.2-1.5,2.8-0.9,4.5c0.1,16.9-3.2,32.8-7.1,49.2c-0.7,2.8-1.3,5.7-1.7,8.5
		c-11.6-6.5-24.2-9.8-37.9-11.5c-20.2-2.5-39-5.9-57.2-15.4c-1.3-1.4-3-1.7-4.7-1.2c-3.7,0.7-6.1,5.6-3.7,8.8
		c7.6,16.2,11.7,33.2,15,50.8c2.4,13.4,5.6,26.4,12.3,38.2c-16,3.7-31.4,6.6-48.2,4.4c-3.8-1.1-7.7,2.8-7,6.5
		c0.1,1.6,0.9,3.1,2.6,3.8c12.1,11.9,21,25.4,29.9,39.8c1.6,2.5,3.2,5,4.9,7.3c-11.7,3.3-22.4,8.9-32.6,16.7
		c-7.3,5.6-14.3,11.4-21.9,16.5c-9.9,6.5-20.5,11.3-31.8,14.8c-1.7-0.1-3.1,0.8-3.9,2.1c-2.5,3-0.8,8.3,3.1,9.1
		c19.7,7.1,36.1,18.5,53.3,30c9.3,6.2,19,10.7,29.2,13.5c-2.7,4.5-5.3,9-8.3,13.4c-6.3,9.2-14,17.3-22.8,24.1
		c-3.4,2-3.4,7.5-0.2,9.6c1.2,1,2.8,1.5,4.5,0.8c17-0.2,32.8,3.1,49.2,7c2.9,0.7,5.7,1.3,8.6,1.7c-6.6,11.8-10,24.6-11.7,38.5
		c-2.5,20-5.9,38.5-15.4,56.5c-1.4,1.3-1.7,3-1.2,4.7c0.7,3.7,5.6,6.1,8.7,3.7c16.3-7.6,33.4-11.7,51.1-14.9
		c13.3-2.4,26.3-5.5,38-12.3c3.7,16,6.6,31.3,4.5,48.1c-1.1,3.8,2.8,7.7,6.5,7c1.6-0.1,3.1-0.9,3.8-2.6c11.9-12.1,25.4-21,39.8-29.9
		c2.5-1.5,4.9-3.1,7.3-4.8c3.2,11.7,8.8,22.4,16.6,32.7c5.5,7.3,11.4,14.3,16.5,21.9c6.5,9.8,11.3,20.4,14.8,31.6
		c-0.1,1.7,0.8,3.1,2.1,3.9c3,2.5,8.3,0.8,9.1-3.1c7.2-19.7,18.7-36.1,30.2-53.3c6.2-9.3,10.7-18.9,13.5-29.2
		c4.4,2.6,8.7,5.2,12.9,8c9.3,6.3,17.4,14.1,24.3,23c1.9,3.4,7.4,3.5,9.6,0.3c1.1-1.2,1.5-2.8,0.9-4.5c-0.1-16.7,3.1-32.4,7-48.7
		c0.7-3.1,1.4-6.1,1.9-9.2c11.8,6.6,24.6,10,38.5,11.7c20,2.5,38.6,5.9,56.5,15.4c1.3,1.4,3,1.7,4.7,1.2c3.7-0.7,6.1-5.6,3.7-8.7
		c-7.6-16.3-11.8-33.4-15-51.1c-2.4-13.3-5.5-26.3-12.3-38c15.9-3.7,31.2-6.6,47.9-4.5c3.8,1.1,7.7-2.7,7-6.5
		c-0.1-1.7-0.9-3.2-2.6-3.9c-12.1-11.9-20.9-25.4-29.8-39.7c-1.6-2.5-3.2-5-4.9-7.3c11.7-3.2,22.4-8.8,32.6-16.6
		c7.3-5.5,14.3-11.4,21.9-16.5c9.9-6.5,20.5-11.3,31.8-14.8c1.7,0.1,3.1-0.8,3.9-2.1C658.2,2206.7,656.5,2201.4,652.6,2200.6z
		 M601,2226.8c-11.8,9.2-23.3,18.5-38,22.4c-1.6,0.4-3.3,0.8-5,1.2c-5.2-5.7-11.2-10.8-18.2-14.9c-15.2-9-33.3-15.2-50.8-17.8
		c-4.1-0.6-8.2-1-12.4-1.2c-0.1,3.6-0.4,7.1-0.9,10.5c18.5,0.4,38.1,7.6,52.7,15c5.8,2.9,10.8,6.3,15.3,10.3
		c-12.2,0.7-24.8-0.4-36.4-2.5c-11.6-2.1-23.5-5.6-33.5-11.9c-0.9,3.8-1.9,7.6-3.2,11.3c21.1,12.3,49,14.6,72,13.9
		c3.6-0.1,7.1-0.4,10.5-0.9c2.8,3.5,5.4,7.2,7.9,11.2c7,11.3,14,22.1,22.5,32c-10.7-0.1-21.2,1.2-31.9,3.7
		c-3.6,0.8-7.1,1.8-10.7,2.6c-10.3-13.7-24-25.3-37.9-34.8c-11.1-7.6-23.5-14-36.7-17c-1.6,3.5-3.3,6.9-5.2,10.2
		c10.9,2,21.4,7,30.7,12.8c13.4,8.2,26.6,19,36.9,31.3c-4.7,0.7-9.5,1-14.3,0.6c-16.2-1.3-32.2-9.4-45.8-17.9c-6-3.7-11.8-8-16.8-13
		c-2.3,3-4.8,5.9-7.4,8.6c13.1,12.6,30.7,21.6,46.4,27.8c15,5.9,29.9,6.7,45.3,3.9c7.7,12.2,10.7,25.8,13.3,39.9
		c2.4,13.4,5.6,26.3,10.3,38.8c-11.3-4.6-23.1-7.7-35.4-9.3c-13.5-1.8-27.5-2.5-40.1-8c-4-1.7-7.8-3.9-11.4-6.3
		c0.4-7.3-0.2-14.6-1.9-22c-4-16.9-12.2-33.8-22.2-48c-2.8-4-6-7.9-9.4-11.6c-2.6,2.4-5.3,4.7-8.1,6.9
		c13.3,13.6,22.2,33.2,27.3,49.6c1.7,5.5,2.7,11,3.1,16.4c-7.4-6.6-14.1-14.3-19.9-21.9c-8.6-11.2-16.3-23.9-19.4-37.8
		c-3.2,2-6.6,3.9-10,5.7c2,7.3,5.1,14.3,8.7,20.8c9.7,17.8,24.2,34.5,40.2,47c0.1,0,0.1,0.1,0.2,0.1c-0.5,4.6-1.4,9.2-2.5,13.9
		c-3.1,12.7-5.6,25.3-6.7,38.1c-8.2-8.4-17.5-15.4-27.8-21.6c-2.3-1.4-4.6-2.8-6.9-4.2c0.5-3.6,0.9-7.4,1-11.2
		c0.8-25.2-2.4-55.9-16.9-78.3c-3.5,1.3-7.1,2.5-10.8,3.5c13.1,18.4,16.1,45.3,16.5,66.2c0.1,4.3,0,8.5-0.3,12.7
		c-5.7-4.3-10.8-9.2-14.9-15.4c-8.9-13.6-14.3-30.8-16.8-46.8c-0.7-4.4-1.1-8.9-1.2-13.4c-3.7,0.5-7.5,0.7-11.3,0.8
		c0.4,15,4.6,30.3,9.3,43.1c6.9,18.4,16.7,33.2,33.1,44.2c-0.5,2.2-1,4.5-1.7,6.7c-2.7,8.5-7.2,16.3-12.2,23.7
		c-9.3,13.8-18.2,27.2-25.2,41.9c-5.3-12.6-12.5-24.1-21.1-35.1c-9.2-11.8-18.5-23.3-22.4-38.1c-0.4-1.6-0.8-3.3-1.1-4.9
		c5.8-5.2,10.8-11.1,15-18.1c9-15.2,15.2-33.3,17.8-50.7c0.6-4.1,1-8.3,1.2-12.6c-3.6-0.1-7.1-0.4-10.5-0.9
		c-0.3,18.5-7.6,38.2-14.9,52.9c-2.9,5.8-6.3,10.8-10.3,15.3c-0.8-12.3,0.4-25,2.5-36.6c2.1-11.6,5.6-23.5,11.9-33.5
		c-3.8-0.9-7.6-1.9-11.3-3.2c-12.3,21.1-14.6,49-13.9,72c0.1,3.6,0.4,7.2,0.9,10.7c-3.4,2.8-7.2,5.3-11.1,7.8
		c-11.3,7-22.1,14.1-32.1,22.6c0.1-10.7-1.2-21.3-3.7-31.9c-0.9-3.6-1.8-7.1-2.6-10.7c13.7-10.4,25.3-24.1,34.8-38
		c7.6-11.1,14-23.5,17-36.6c-3.5-1.6-6.9-3.3-10.2-5.2c-2,10.9-7,21.4-12.8,30.7c-8.3,13.4-19,26.6-31.4,37c-0.7-4.7-1-9.4-0.6-14.3
		c1.3-16.2,9.4-32.3,17.9-45.9c3.7-5.9,8-11.7,13-16.8c-3-2.3-5.9-4.8-8.6-7.4c-12.6,13.1-21.6,30.7-27.8,46.4
		c-5.9,15.1-6.7,29.9-3.9,45.3c-12.2,7.7-25.8,10.8-39.9,13.3c-13.4,2.4-26.3,5.6-38.8,10.2c4.6-11.3,7.7-23.1,9.3-35.3
		c1.8-13.5,2.5-27.5,8-40.1c1.7-4,3.9-7.8,6.3-11.5c7.3,0.4,14.6-0.2,22-1.9c17.1-4.1,34.3-12.4,48.5-22.6c3.8-2.7,7.5-5.7,11-8.9
		c-2.4-2.6-4.7-5.3-6.9-8.1c-13.4,13-32.7,21.9-48.8,27.1c-5.8,1.9-11.5,2.9-17.1,3.3c6.6-7.4,14.3-14.1,21.8-19.9
		c11.1-8.6,23.9-16.2,37.7-19.4c-2-3.2-3.9-6.6-5.7-10c-7.3,2-14.3,5.1-20.7,8.6c-17.8,9.7-34.6,24.2-47,40.2c0,0-0.1,0.1-0.1,0.1
		c-4.6-0.5-9.2-1.4-13.9-2.5c-12.7-3-25.3-5.6-38.1-6.6c8.2-8.1,15.2-17.2,21.3-27.4c1.5-2.5,3-4.9,4.5-7.4c3.6,0.5,7.3,0.9,11.1,1
		c25.2,0.8,55.9-2.4,78.3-16.8c-1.3-3.5-2.5-7.1-3.5-10.8c-18.4,13.1-45.3,16.1-66.2,16.5c-4.3,0.1-8.5,0-12.7-0.3
		c4-5.3,8.6-10.2,14.4-14.1c13.5-9.1,30.6-14.6,46.6-17.4c4.8-0.8,9.7-1.3,14.6-1.4c-0.5-3.7-0.7-7.5-0.8-11.3
		c-15.5,0.4-31.4,4.9-44.5,9.9c-17.8,6.9-32,16.7-42.7,32.5c-2.3-0.5-4.5-1-6.7-1.7c-8.5-2.7-16.3-7.2-23.7-12.1
		c-13.8-9.2-27.1-18.1-41.8-25c12.6-5.3,24.2-12.5,35.2-21.1c11.8-9.2,23.3-18.5,38-22.5c1.6-0.4,3.3-0.8,5-1.2
		c5.2,5.7,11.2,10.8,18.2,14.9c15.2,8.9,33.3,15.2,50.8,17.9c4.1,0.6,8.2,1,12.4,1.2c0.1-3.6,0.4-7.1,0.9-10.5
		c-18.4-0.4-38-7.7-52.7-15c-5.8-2.9-10.9-6.3-15.4-10.3c12.2-0.8,24.9,0.4,36.4,2.4c11.6,2.1,23.5,5.6,33.6,12
		c0.9-3.8,1.9-7.6,3.2-11.3c-21.1-12.3-49.1-14.7-72.1-13.9c-3.6,0.1-7.1,0.4-10.6,0.9c-2.8-3.5-5.4-7.2-7.8-11.1
		c-7-11.3-14.1-22.1-22.6-32c10.7,0.1,21.3-1.2,31.9-3.7c3.6-0.9,7.2-1.8,10.8-2.7c10.5,13.9,24.5,25.6,38.6,35.2
		c10.9,7.4,23.1,13.6,36,16.5c1.6-3.5,3.3-6.9,5.2-10.2c-10.9-2-21.4-7.1-30.7-12.8c-13.3-8.2-26.6-18.9-36.8-31.3
		c4.7-0.7,9.4-1,14.2-0.6c16.2,1.3,32.3,9.5,45.8,18c5.9,3.7,11.7,8,16.8,12.9c2.3-3,4.8-5.9,7.4-8.6
		c-13.1-12.6-30.6-21.5-46.3-27.7c-15-5.9-29.8-6.8-45.2-4c-7.6-12-10.7-25.4-13.3-39.4c-2.5-13.5-5.7-26.5-10.3-39.2
		c11.5,4.7,23.4,7.7,35.9,9.4c13.4,1.8,27.4,2.5,40,8c3.8,1.7,7.5,3.8,11.1,6.1c-0.4,7.3,0.2,14.6,1.9,22
		c4.1,17.1,12.4,34.3,22.6,48.6c2.7,3.8,5.7,7.5,8.9,11c2.6-2.4,5.3-4.7,8.1-6.9c-13-13.5-21.8-32.7-27-48.8
		c-1.9-5.8-2.9-11.5-3.3-17.1c7.4,6.6,14.1,14.3,19.9,21.8c8.6,11.1,16.3,23.9,19.4,37.8c3.2-2,6.6-3.9,10-5.7
		c-2-7-4.9-13.8-8.3-20.1c-9.6-17.9-24-34.6-39.9-47.2c-0.2-0.2-0.5-0.4-0.7-0.6c0.5-4.5,1.4-9.1,2.5-13.8
		c3.1-12.7,5.7-25.2,6.7-38.1c8.1,8.2,17.2,15.1,27.3,21.2c2.5,1.5,4.9,3,7.3,4.5c-0.5,3.1-0.8,6.3-0.9,9.6
		c-1.2,25.6,2.1,57,16.7,79.8c3.5-1.3,7.1-2.5,10.8-3.5c-13.2-18.6-16.2-45.6-16.5-66.8c-0.1-4,0-8.1,0.3-12.1
		c5.3,4,10.2,8.6,14.1,14.4c9.1,13.5,14.6,30.7,17.4,46.7c0.8,4.8,1.3,9.6,1.4,14.5c3.7-0.5,7.5-0.7,11.3-0.8
		c-0.4-15.5-4.9-31.4-10-44.5c-6.9-17.8-16.6-32-32.5-42.7c0.5-2.6,1.2-5.1,2-7.6c2.7-8.2,7.1-15.6,11.8-22.7
		c9.3-13.9,18.2-27.2,25.2-42c5.3,12.7,12.5,24.2,21.1,35.2c9.2,11.8,18.5,23.3,22.4,38c0.4,1.6,0.8,3.3,1.1,4.9
		c-5.8,5.2-10.8,11.2-15,18.2c-8.9,15.2-15.2,33.3-17.8,50.8c-0.6,4.1-1,8.2-1.2,12.4c3.6,0.1,7.1,0.4,10.5,0.9
		c0.4-18.4,7.7-38,14.9-52.7c2.9-5.8,6.3-10.9,10.3-15.4c0.8,12.5-0.4,25.4-2.6,37.2c-2.1,11.4-5.5,23-11.8,32.9
		c3.8,0.9,7.6,1.9,11.3,3.2c12.2-20.9,14.5-48.5,13.9-71.3c-0.1-3.9-0.4-7.7-0.9-11.4c3.4-2.8,7.2-5.4,11.1-7.8
		c11.3-7,22.1-14,32.1-22.5c-0.1,10.7,1.2,21.2,3.7,31.9c0.8,3.6,1.8,7.1,2.6,10.6c-13.7,10.3-25.3,24.1-34.8,38
		c-7.6,11.1-14,23.5-17,36.7c3.5,1.6,6.9,3.3,10.2,5.2c2-11.2,7.3-21.9,13.3-31.5c8.2-13.1,18.7-26.1,30.9-36.2
		c0.7,4.7,1,9.5,0.6,14.3c-1.3,16.2-9.4,32.2-17.9,45.8c-3.7,6-8,11.8-13,16.9c3,2.3,5.9,4.8,8.6,7.4c12.6-13.1,21.6-30.7,27.8-46.5
		c5.9-15,6.7-29.8,3.9-45.3c12.2-7.7,25.8-10.7,39.9-13.2c13.4-2.4,26.3-5.6,38.8-10.2c-4.7,11.4-7.7,23.3-9.4,35.7
		c-1.8,13.7-2.6,27.8-8.4,40.6c-1.7,3.6-3.7,7.1-5.9,10.5c-7.3-0.3-14.5,0.2-21.9,2c-17.1,4.1-34.3,12.5-48.5,22.7
		c-3.8,2.7-7.5,5.7-11,8.9c2.4,2.6,4.7,5.3,6.9,8.1c13.4-13,32.7-21.8,48.7-27c5.8-1.9,11.4-3,17-3.4c-6.8,7.6-14.6,14.4-22.4,20.3
		c-11,8.4-23.5,15.8-37.1,18.9c2,3.2,3.9,6.6,5.7,10c7-1.9,13.8-4.9,20.1-8.3c17.7-9.5,34.1-23.7,46.7-39.3c0.4-0.5,0.7-0.9,1.1-1.4
		c4.6,0.5,9.2,1.3,13.9,2.5c12.8,3,25.3,5.6,38.2,6.7c-8.2,8.1-15.2,17.2-21.3,27.3c-1.5,2.5-3,4.9-4.5,7.4c-3.6-0.5-7.3-0.9-11.1-1
		c-25.2-0.9-55.9,2.4-78.3,16.8c1.3,3.5,2.5,7.1,3.5,10.8c18.4-13.1,45.3-16.1,66.2-16.5c4.3-0.1,8.5,0,12.7,0.3
		c-4,5.3-8.6,10.2-14.4,14.1c-13.5,9.1-30.6,14.6-46.6,17.4c-4.8,0.8-9.7,1.3-14.6,1.4c0.5,3.7,0.7,7.5,0.8,11.3
		c15.5-0.4,31.4-4.9,44.5-10c17.8-6.9,32-16.6,42.7-32.4c2.3,0.5,4.5,1.1,6.8,1.8c8.5,2.7,16.3,7.2,23.7,12.2
		c13.8,9.2,27.1,18.1,41.9,25.1C623.6,2211,612.1,2218.2,601,2226.8z"/>
	<path id="XMLID_68_" d="M357.7,2102.6c-60.4,1.3-108.4,51.3-107.2,111.7c1.3,60.4,51.3,108.4,111.7,107.2s108.4-51.3,107.2-111.7
		C468.2,2149.3,418.2,2101.4,357.7,2102.6z M432.5,2168.3c0.1,3.8-3,7-6.8,7.1c-3.8,0.1-7-3-7.1-6.8s3-7,6.8-7.1
		C429.2,2161.4,432.4,2164.5,432.5,2168.3z M421.9,2141c3.8-0.1,7,3,7.1,6.8c0.1,3.8-3,7-6.8,7.1c-3.8,0.1-7-3-7.1-6.8
		C415,2144.3,418.1,2141.1,421.9,2141z M413,2182.7c6.1-0.1,11.1,4.7,11.3,10.8c0.1,6.1-4.7,11.1-10.8,11.3
		c-6.1,0.1-11.1-4.7-11.3-10.8C402,2187.9,406.9,2182.9,413,2182.7z M388.5,2163.1c-0.1-3.8,3-7,6.8-7.1c3.8-0.1,7,3,7.1,6.8
		c0.1,3.8-3,7-6.8,7.1C391.8,2170,388.6,2166.9,388.5,2163.1z M392.7,2206.8c0.1,3.8-3,7-6.8,7.1c-3.8,0.1-7-3-7.1-6.8
		c-0.1-3.8,3-7,6.8-7.1C389.4,2199.9,392.6,2202.9,392.7,2206.8z M392.6,2123.7c5.6-0.1,10.3,4.3,10.4,10c0.1,5.6-4.3,10.3-10,10.4
		c-5.6,0.1-10.3-4.3-10.4-10C382.5,2128.5,387,2123.8,392.6,2123.7z M378,2173.9c3.8-0.1,7,3,7.1,6.8c0.1,3.8-3,7-6.8,7.1
		c-3.8,0.1-7-3-7.1-6.8C371.1,2177.1,374.2,2173.9,378,2173.9z M370.5,2151.7c0.1,3.8-3,7-6.8,7.1c-3.8,0.1-7-3-7.1-6.8
		c-0.1-3.8,3-7,6.8-7.1C367.3,2144.8,370.4,2147.8,370.5,2151.7z M355.5,2118.8c3.8-0.1,7,3,7.1,6.8c0.1,3.8-3,7-6.8,7.1
		c-3.8,0.1-7-3-7.1-6.8C348.6,2122.1,351.6,2118.9,355.5,2118.8z M336.3,2208.8c-6.1,0.1-11.1-4.7-11.3-10.8
		c-0.1-6.1,4.7-11.1,10.8-11.3c6.1-0.1,11.1,4.7,11.3,10.8C347.3,2203.6,342.4,2208.7,336.3,2208.8z M350.5,2229.8
		c0.1,3.8-3,7-6.8,7.1c-3.8,0.1-7-3-7.1-6.8c-0.1-3.8,3-7,6.8-7.1C347.3,2222.9,350.5,2226,350.5,2229.8z M334.5,2161.6
		c0.1,3.8-3,7-6.8,7.1c-3.8,0.1-7-3-7.1-6.8c-0.1-3.8,3-7,6.8-7.1C331.2,2154.7,334.4,2157.8,334.5,2161.6z M316.6,2129.2
		c5.1-0.1,9.4,4,9.5,9.1s-4,9.4-9.1,9.5c-5.1,0.1-9.4-4-9.5-9.1C307.4,2133.5,311.5,2129.3,316.6,2129.2z M308.6,2176.7
		c3.8-0.1,7,3,7.1,6.8c0.1,3.8-3,7-6.8,7.1c-3.8,0.1-7-3-7.1-6.8C301.7,2180,304.7,2176.8,308.6,2176.7z M309.6,2209.3
		c0.1,3.8-3,7-6.8,7.1c-3.8,0.1-7-3-7.1-6.8c-0.1-3.8,3-7,6.8-7.1C306.3,2202.4,309.5,2205.4,309.6,2209.3z M279.3,2181.3
		c3.8-0.1,7,3,7.1,6.8c0.1,3.8-3,7-6.8,7.1c-3.8,0.1-7-3-7.1-6.8S275.4,2181.3,279.3,2181.3z M264.8,2218.1
		c-0.1-5.3,4.1-9.7,9.4-9.8c5.3-0.1,9.7,4.1,9.8,9.4c0.1,5.3-4.1,9.7-9.4,9.8C269.3,2227.6,264.9,2223.4,264.8,2218.1z
		 M286.6,2255.6c-3.8,0.1-7-3-7.1-6.8c-0.1-3.8,3-7,6.8-7.1c3.8-0.1,7,3,7.1,6.8C293.4,2252.4,290.4,2255.6,286.6,2255.6z
		 M284.7,2160c-0.1-3.8,3-7,6.8-7.1c3.8-0.1,7,3,7.1,6.8c0.1,3.8-3,7-6.8,7.1C287.9,2166.9,284.7,2163.9,284.7,2160z M302.1,2285.3
		c-3.8,0.1-7-3-7.1-6.8c-0.1-3.8,3-7,6.8-7.1c3.8-0.1,7,3,7.1,6.8C309,2282.1,305.9,2285.3,302.1,2285.3z M305.7,2240.8
		c-0.1-5.5,4.2-10,9.7-10.1s10,4.2,10.1,9.7c0.1,5.5-4.2,10-9.7,10.1C310.3,2250.6,305.8,2246.3,305.7,2240.8z M323.4,2300.3
		c-5,0.1-9.1-3.8-9.2-8.8c-0.1-5,3.8-9.1,8.8-9.2c5-0.1,9.1,3.8,9.2,8.8C332.3,2296.1,328.4,2300.2,323.4,2300.3z M331.7,2259
		c-0.1-3.8,3-7,6.8-7.1c3.8-0.1,7,3,7.1,6.8c0.1,3.8-3,7-6.8,7.1C335,2265.9,331.8,2262.8,331.7,2259z M348.4,2304.7
		c-3.8,0.1-7-3-7.1-6.8c-0.1-3.8,3-7,6.8-7.1c3.8-0.1,7,3,7.1,6.8C355.3,2301.5,352.2,2304.7,348.4,2304.7z M348.5,2179.8
		c-3.8,0.1-7-3-7.1-6.8c-0.1-3.8,3-7,6.8-7.1c3.8-0.1,7,3,7.1,6.8C355.4,2176.5,352.3,2179.7,348.5,2179.8z M357.2,2206.3
		c-0.1-3.8,3-7,6.8-7.1c3.8-0.1,7,3,7.1,6.8c0.1,3.8-3,7-6.8,7.1C360.5,2213.2,357.3,2210.1,357.2,2206.3z M368,2238.4
		c3.8-0.1,7,3,7.1,6.8c0.1,3.8-3,7-6.8,7.1c-3.8,0.1-7-3-7.1-6.8C361.1,2241.6,364.2,2238.5,368,2238.4z M372,2305.1
		c-3.8,0.1-7-3-7.1-6.8c-0.1-3.8,3-7,6.8-7.1c3.8-0.1,7,3,7.1,6.8C378.9,2301.9,375.9,2305,372,2305.1z M373.9,2279.7
		c-5.8,0.1-10.6-4.5-10.7-10.2s4.5-10.6,10.2-10.7c5.8-0.1,10.5,4.5,10.7,10.2S379.6,2279.6,373.9,2279.7z M383.6,2231.9
		c-0.1-3.8,3-7,6.8-7.1c3.8-0.1,7,3,7.1,6.8c0.1,3.8-3,7-6.8,7.1C386.9,2238.8,383.7,2235.7,383.6,2231.9z M402.2,2296.3
		c-3.8,0.1-7-3-7.1-6.8c-0.1-3.8,3-7,6.8-7.1c3.8-0.1,7,3,7.1,6.8C409.1,2293.1,406,2296.3,402.2,2296.3z M404.4,2259.3
		c-3.8,0.1-7-3-7.1-6.8c-0.1-3.8,3-7,6.8-7.1c3.8-0.1,7,3,7.1,6.8C411.3,2256.1,408.3,2259.3,404.4,2259.3z M413.4,2235.7
		c-0.1-3.8,3-7,6.8-7.1c3.8-0.1,7,3,7.1,6.8c0.1,3.8-3,7-6.8,7.1C416.7,2242.6,413.5,2239.5,413.4,2235.7z M424,2276.4
		c-3.8,0.1-7-3-7.1-6.8c-0.1-3.8,3-7,6.8-7.1c3.8-0.1,7,3,7.1,6.8C430.9,2273.2,427.8,2276.3,424,2276.4z M427.9,2221.3
		c-3.8,0.1-7-3-7.1-6.8c-0.1-3.8,3-7,6.8-7.1c3.8-0.1,7,3,7.1,6.8C434.8,2218,431.7,2221.2,427.9,2221.3z M442.3,2252
		c-3.8,0.1-7-3-7.1-6.8c-0.1-3.8,3-7,6.8-7.1c3.8-0.1,7,3,7.1,6.8C449.2,2248.7,446.1,2251.9,442.3,2252z M455.3,2212.1
		c0.1,3.8-3,7-6.8,7.1c-3.8,0.1-7-3-7.1-6.8c-0.1-3.8,3-7,6.8-7.1C452,2205.2,455.2,2208.2,455.3,2212.1z M442.4,2180
		c3.8-0.1,7,3,7.1,6.8s-3,7-6.8,7.1c-3.8,0.1-7-3-7.1-6.8C435.5,2183.2,438.6,2180,442.4,2180z"/>
	<path id="XMLID_2_" d="M591.9,92.8c0,6-2.6,9.6-7.8,10.7c-5.2,1.1-11.3,2-18.3,2.6c-36.8,117.6-69.4,221.4-98,311.5
		c-6.3,20-13.5,30-21.4,30c-6.7,0-13-8.1-19-24.3c-27.3-79.3-47.1-135.1-59.4-167.4c-5.4,9.5-27.3,65.5-65.6,167.9
		c-6,15.9-12.4,23.8-19,23.8c-5.7,0-10.1-2.9-13.3-8.6c-3.2-5.7-16.6-41.8-40.4-108.4c-39.9-117-66.6-192.1-79.9-225.4l-7.6-1.9
		c-7-1.6-10.5-5.9-10.5-12.8c0-7,4.6-10.5,13.8-10.5l78,1c13,0,19.5,3,19.5,9c0,5.1-1.4,8.6-4.3,10.5c-2.9,1.9-6.8,3.8-11.9,5.7
		c1.9,14.3,29.2,90,81.8,227.3c20-48.8,35.7-87.8,47.1-117c-11.4-33.9-23.9-71.3-37.6-112.2c-5.4-1-10.2-2.1-14.5-3.3
		c-4.3-1.3-6.4-4.8-6.4-10.5c0-6.7,5.1-10,15.2-10c28.5,0,59.9,0.3,94.2,1c3.8,0,7,1.3,9.5,3.8c2.5,2.5,3.8,5.2,3.8,8.1
		c0,4.1-1.5,7.1-4.5,9c-3,1.9-8.6,3.5-16.9,4.8c10.1,33.9,22.3,70.1,36.4,108.4c14.1,38.4,26.1,71,35.9,98
		c29.5-85.6,51.2-154.9,65.1-207.8c-9.2-1.3-15.5-2.8-19-4.5c-3.5-1.7-5.2-4.7-5.2-8.8c0-7.3,3.4-11.2,10.2-11.9
		c6.8-0.6,15-1,24.5-1c18.1,0,30.2,0.6,36.4,1.7C588.8,82.3,591.9,86.1,591.9,92.8z"/>
	<path id="XMLID_4_" d="M423.8,595.4c0-7.3,1.6-14.4,4.8-21.4c-49.5,0-82.1,0.5-98,1.4c0.3,91.3,1,147.3,1.9,167.9l53.7-1
		c1.3-7.3,2.8-13.5,4.5-18.5c1.7-5.1,5.1-7.6,10.2-7.6c4.8,0,8.1,2.7,10,8.1c1.3,3.5,2.1,21.7,2.4,54.7c0,11.1-3.2,16.6-9.5,16.6
		c-8.6,0-13.5-3.8-14.7-11.4l-2.4-14.7c-8.9-0.6-17.4-1-25.7-1c-10.2,0-19.7,0.5-28.5,1.4l-1.9,120.3h109.8c7.6,0,13-3.6,16.2-10.7
		c3.2-7.1,5.1-15.4,5.9-24.7c0.8-9.3,4.8-14,12.1-14c7,0,10.5,2.7,10.5,8.1c0,28.5-1.8,47.2-5.5,56.1c-3.6,8.9-11.3,13.3-23.1,13.3
		H313c-5.1,0-17.1-0.2-36.1-0.5c-19-0.3-31.8-0.8-38.3-1.4c-6.5-0.6-9.7-3.8-9.7-9.5c0-7.6,2.9-12.4,8.6-14.3
		c5.7-1.9,12.2-3.2,19.5-3.8c1-7.3,1.9-58,2.9-152.2c0-88.4-0.6-142.3-1.9-161.7h-8.1c-13.3,0-20-3.5-20-10.5
		c0-8.9,5.9-13.3,17.6-13.3c40.9,0,75.7-0.2,104.4-0.7c28.7-0.5,55.4-0.9,80.1-1.2c41.8,0,62.8,14.4,62.8,43.3
		c0,8.9-3.2,17.1-9.5,24.7c-6.3,7.6-15.5,11.4-27.6,11.4c-10.5,0-18.7-3-24.7-9C426.8,613.6,423.8,605.5,423.8,595.4z"/>
	<path id="XMLID_6_" d="M491.8,1339.5c0,32-25.5,48-76.6,48l-132.7-1c-22.8,0-36.6-0.2-41.4-0.7c-4.8-0.5-7.1-3.9-7.1-10.2
		c0-10.1,8.2-15.2,24.7-15.2c0.3-46.6,0.5-90.8,0.5-132.7c0-41.8,0.2-101.6,0.5-179.3c-7.3-0.6-13-2.1-17.1-4.3
		c-4.1-2.2-6.2-6.2-6.2-11.9c0-6.3,4-9.8,12.1-10.5c8.1-0.6,24.8-1,50.2-1c25.7,0.3,41.7,1.1,48,2.4c6.3,1.3,9.5,4.9,9.5,10.9
		c0,5.1-1.7,8.2-5.2,9.5c-3.5,1.3-9,2.5-16.6,3.8l-3.8,312c23.5,1.6,47.2,2.4,71.3,2.4h23.8c-4.1-7-6.2-14.4-6.2-22.4
		c0-12.7,3.7-22.1,11.2-28.3c7.4-6.2,15.8-9.3,25-9.3c11.7,0,20.7,3.5,26.9,10.5C488.7,1319.4,491.8,1328.4,491.8,1339.5z"/>
	<path id="XMLID_8_" d="M519.4,1776.9c0,6.3-4.7,16.3-14,29.7c-9.4,13.5-23.8,26.4-43.3,38.8c-19.5,12.4-49.9,18.5-91.1,18.5
		c-51.7,0-92.4-15.6-122.2-46.8c-29.8-31.2-44.7-76.5-44.7-135.8c0-59,17.5-105.7,52.5-140.3c35-34.6,79.2-51.8,132.4-51.8
		c39.3,0,68.9,8.8,88.7,26.4c19.8,17.6,29.7,36.4,29.7,56.4c0,12.1-3.6,20.9-10.7,26.6c-7.1,5.7-15.8,8.6-25.9,8.6
		c-10.8,0-19.3-3.2-25.4-9.5c-6.2-6.3-9.3-14.4-9.3-24.3c0-18.1,6.7-30.6,20-37.6c-15.5-15.5-36.3-23.3-62.3-23.3
		c-32.3,0-60.2,15-83.7,44.9c-23.5,30-35.2,72-35.2,126.3c0,42.8,12.5,79.2,37.6,109.1c25,30,51.8,44.9,80.4,44.9
		c18.7,0,36.1-4.2,52.3-12.6c16.2-8.4,33.3-24.6,51.4-48.7c4.8-6.3,9.8-9.5,15.2-9.5C516.8,1766.9,519.4,1770.2,519.4,1776.9z"/>
	<path id="XMLID_10_" d="M542.2,2561.5l-1.4,314.3c12.7,3.2,19,8.2,19,15.2c0,8.6-4.9,12.9-14.7,13.1c-9.8,0.2-18.7,0.2-26.6,0.2
		c-39.9-0.3-62-1.3-66.1-2.9c-4.1-1.6-6.2-5.7-6.2-12.4c0-4.4,6.5-8.4,19.5-11.9c1-67.5,2.9-160.4,5.7-278.7
		c-21.9,61.8-43.3,121.5-64.2,179c-20.9,57.5-34.4,92.3-40.4,104.1c-6,11.9-13.3,17.8-21.9,17.8c-6.7,0-12.7-3.4-18.1-10.2
		c-5.4-6.8-19.1-35.6-41.1-86.3c-22-50.7-47.2-108.7-75.4-174l2.9,248.7c8.9,1.6,15.4,3.1,19.5,4.5c4.1,1.4,6.2,5.2,6.2,11.2
		c0,5.7-3.7,9-11.2,10c-7.5,1-16.2,1.4-26.4,1.4c-2.5,0-7.7-0.1-15.5-0.2c-7.8-0.2-14-0.8-18.8-1.9c-4.8-1.1-7.1-4.5-7.1-10.2
		c0-8.6,8.2-12.8,24.7-12.8v-313.9c-14.9-1.6-22.4-6.5-22.4-14.7c0-7.6,5.7-11.4,17.1-11.4l46.6,0.5c9.8,0,18.6,5.6,26.4,16.9
		c7.8,11.3,22.4,40.9,43.7,88.9c21.4,48,45.4,101.2,72,159.5c19.3-47.9,50.4-130.3,93.2-247.3c4.4-12.7,14.3-19.2,29.5-19.5
		c33.9-1.3,54.5-1.9,61.8-1.9c7.3,0.3,10.9,3.8,10.9,10.5C563.6,2554.6,556.5,2559.3,542.2,2561.5z"/>
	<path id="XMLID_12_" d="M423.8,3053.6c0-7.3,1.6-14.4,4.8-21.4c-49.5,0-82.1,0.5-98,1.4c0.3,91.3,1,147.3,1.9,167.9l53.7-1
		c1.3-7.3,2.8-13.5,4.5-18.5c1.7-5.1,5.1-7.6,10.2-7.6c4.8,0,8.1,2.7,10,8.1c1.3,3.5,2.1,21.7,2.4,54.7c0,11.1-3.2,16.6-9.5,16.6
		c-8.6,0-13.5-3.8-14.7-11.4l-2.4-14.7c-8.9-0.6-17.4-1-25.7-1c-10.2,0-19.7,0.5-28.5,1.4l-1.9,120.3h109.8c7.6,0,13-3.6,16.2-10.7
		c3.2-7.1,5.1-15.4,5.9-24.7c0.8-9.3,4.8-14,12.1-14c7,0,10.5,2.7,10.5,8.1c0,28.5-1.8,47.2-5.5,56.1c-3.6,8.9-11.3,13.3-23.1,13.3
		H313c-5.1,0-17.1-0.2-36.1-0.5c-19-0.3-31.8-0.8-38.3-1.4c-6.5-0.6-9.7-3.8-9.7-9.5c0-7.6,2.9-12.4,8.6-14.3
		c5.7-1.9,12.2-3.2,19.5-3.8c1-7.3,1.9-58,2.9-152.2c0-88.5-0.6-142.3-1.9-161.7h-8.1c-13.3,0-20-3.5-20-10.5
		c0-8.9,5.9-13.3,17.6-13.3c40.9,0,75.7-0.2,104.4-0.7c28.7-0.5,55.4-0.9,80.1-1.2c41.8,0,62.8,14.4,62.8,43.3
		c0,8.9-3.2,17.1-9.5,24.7c-6.3,7.6-15.5,11.4-27.6,11.4c-10.5,0-18.7-3-24.7-9C426.8,3071.9,423.8,3063.8,423.8,3053.6z"/>
</g>
</svg>
