<?xml version="1.0" encoding="utf-8"?>
<!-- Generator: Adobe Illustrator 19.0.0, SVG Export Plug-In . SVG Version: 6.00 Build 0)  -->
<svg version="1.1" id="Layer_1" xmlns="http://www.w3.org/2000/svg" xmlns:xlink="http://www.w3.org/1999/xlink" x="0px" y="0px"
	 viewBox="0 0 720 3456" style="enable-background:new 0 0 720 3456;" xml:space="preserve">
<g id="XMLID_1_">
	<path id="XMLID_145_" d="M201.7,559.1c-2,17.7-6,35-11.1,51.8c-4.7,14.8-10,29.2-16.2,43.4c-2.9,6.4-6,12.8-10,18.8
		c-4.9,7.1-11.7,9.3-19.9,8c-6.9-1.1-11.1-4.9-13.5-11.1c-2.2-5.8-3.1-12-3.1-18.2c-0.2-7.3,0.2-14.6,0-21.9c0-1.6,1.1-3.5-0.9-4.9
		c-1.8,1.3-2.2,3.3-2.9,4.9l-10,27c-2.9,7.8-6.4,15.3-10.2,22.8c-0.4,0.7-1.1,1.6-1.6,2.4c-4.7,8.2-7.8,10-18.2,8.6
		c-6.9-0.9-12.6-7.1-14-14.6c-1.1-6.4-0.2-13.1,0.7-19.7c2-12.8,5.5-25.3,8.6-37.9c3.3-13.3,6.2-26.4,7.8-39.7
		c1.1-9.5,1.3-19.3,0.4-28.8c-0.2-4.4-1.3-8.6-3.1-12.6c-1.1-2-2.2-4-3.5-5.8c-3.5-4.7-8.4-5.8-13.7-4c-4.9,1.3-9.3,3.5-12.8,6.9
		c-2.7,2.2-5.1,4.7-7.1,7.3c-8.4,10.9-13.1,23-14,36.8c-0.9,10.2,2.2,19.7,7.5,28.6c0.9,1.6,2,2.7,3.3,4c1.3,1.3,2.9,1.3,4.7,0.2
		l1.8-1.3c5.1-5.8,8.2-12.6,9.5-20.4c0.4-2-0.4-3.1-2.4-3.8c-0.9-0.2-1.8-1.1-2.4-1.8c-0.4-0.4-0.4-1.3,0.2-1.8
		c0.9-0.7,1.6-1.3,2.7-1.3c12.4-2.4,24.1,8.9,22.4,21.5c-1.3,8.4-5.8,15.1-13.5,19.1c-10.6,5.3-21.3,4.9-31.9-0.2
		c-6.4-3.3-10.9-8.4-12.6-15.5c-2.9-10.4-3.5-20.8-1.3-31.2c2.9-12.4,7.8-23.7,14.8-34.3c5.5-7.8,12.6-13.7,21.3-17.5
		c7.3-3.1,14.2-3.1,21.5,0c14.8,6.6,24.1,17.9,28.8,33.5c3.3,10.4,3.8,21,2.4,31.9c-2,16.6-6,32.8-10.2,49
		c-2.7,10-4.9,19.9-5.8,30.3c0,1.1,0.2,2.4,0.2,3.5c0,0.2,0.2,0.4,0.4,0.4c0.4,0.4,1.1,0.4,1.3,0c0.9-1.3,2-2.9,2.7-4.4
		c3.8-7.3,6.9-15.1,9.7-23c3.3-8.9,6.6-17.7,10.2-26.8c2.4-6.4,6-12.2,9.5-18.2c2.9-4.9,6.9-5.5,12-5.1c4.7,0.7,8.2,3.1,9.7,7.8
		c1.6,3.5,2.2,7.5,2.2,11.5c0,8.6-0.2,17.1-0.2,25.7c-0.2,6.9-0.4,13.7,0.9,20.6c0.4,1.8-0.4,5.1,2.4,5.3c2,0.2,2.7-2.4,3.8-4
		c4.4-8.2,8.2-16.8,11.3-25.5c8.2-21.5,14.6-43.4,18.4-65.8c1.8-9.3,2.9-18.4,2.4-27.9c-0.2-3.8-0.7-7.3-2.2-10.6
		c-0.9-1.8-2.4-2.4-4.4-2.2c-2.9,0.2-5.5,1.8-7.8,3.5c-6.2,4.9-9.5,11.3-11.1,18.6c-0.9,3.8,0,7.3,2.2,10.4c2,2.9,2.9,3.1,6.4,1.1
		c2-1.1,3.8-1.1,5.8-0.7c3.1,1.1,4,4.7,1.8,7.1c-1.6,1.8-3.5,2.7-6,2.2c-8.2-1.3-15.3-4.7-19.9-12.2c-2.7-4.2-2.9-8.9-1.6-13.5
		c2-6.6,5.3-12.6,10.4-17.5c5.8-6,13.1-7.8,20.8-5.5c8.2,2.2,13.5,7.5,15.5,16.2C202.6,545.6,202.3,552.4,201.7,559.1z M699.6,614.7
		c-9.5,20.2-23,40.1-40.5,50.5c-12,6.9-30.6,1.3-35.9-12.4c-0.9-2.2-1.6-4.4-2.1-6.6c-7.8,14.7-17.7,26.1-28.9,26.1
		c-12.8-2.9-14.8-8.4-15.5-23c-0.4-15.7,1.1-31.2,5.1-46.5c0.4-2,0.9-3.8,1.1-5.8c0.2-0.4-0.2-0.9-0.4-1.3c-1.1-0.2-1.6,0.9-2,1.8
		c-2.4,4.2-4.9,8.4-6.9,12.8c-5.8,11.7-11.3,23.5-16.8,35.2c-2.9,6-4.2,6.9-10.9,6.4c-6-0.2-9.3-3.1-10.4-9.1
		c-1.3-6.9-0.7-13.7,0.9-20.6c0.9-3.5,2-7.1,2.9-10.6c0.4-1.3,0.9-2.7,0.2-4.2c-2,0.9-2.4,2.7-3.1,4.2c-2.9,6.9-6,14-8.6,21
		c-3.5,9.7-7.1,19.9-10.4,29.7c-0.7,2.2-1.1,4.4-3.5,5.5c-3.1,1.1-6.2,1.1-9.3-0.2c-2.4-1.1-3.5-3.5-4-6c-0.7-3.5-1.3-7.3-1.3-10.9
		c-0.1-6.1-0.2-12.1-0.2-18c-7.9,7.2-17,9.5-18.6,9.6c-2.9,0.7-4.4,2.4-5.8,4.9c-1.6,3.1-3.3,6.2-5.5,8.9
		c-8.2,10.2-19.1,12.4-30.8,6.6c-7.3-3.5-12-9.1-13.7-17.3c-0.4-1.6-0.7-3.3-0.9-4.9c-11.1,15.5-28.4,26.8-46,26.8
		c-21.1,0-30.9-11.6-33.8-25.9c-2.5,7.5-3.8,10.7-6.1,16.8c-2,5.1-4.4,10-7.3,14.8c-3.3,5.3-6.9,10.6-11.3,15.3
		c-4,4.7-9.3,6.9-15.5,7.1c-5.5,0.2-10.2-1.3-14.2-5.1c-5.5-4.9-9.3-11.1-12.4-17.9c-3.5-7.8-5.5-16.2-6.6-24.8
		c-0.7-4.7-1.4-9.5-1.8-14.2c-8.2,13.1-18.3,24.6-30.3,31.7c-12,6.9-30.6,1.3-35.9-12.4c-2.2-5.8-3.5-11.3-3.3-17.3
		c0.2-8,1.6-15.5,4.4-23c3.3-8.4,9.5-14,17.9-17.3c6.9-2.4,13.5-1.6,19.9,1.6c4.4,2,6.9,5.3,7.5,10c0.9,4.4,0.2,8.4-0.9,12.4
		c-3.3,10.2-9.5,18.2-17.7,24.8c-1.6,1.3-3.3,2-5.3,2.4c-2.7,0.7-3.1,1.1-2.9,4c0,3.5,0.7,6.9,2,10c1.1,2.4,3.1,3.1,5.5,2.2
		c15.7-6.5,27.3-22.3,38.6-43.3c0.7-21.9,2.9-43.6,9.1-64.6c2.7-9.5,6.4-18.6,12.6-26.4c4.9-6.2,10.9-11.3,18.8-13.5
		c9.1-2.9,17.3-0.7,24.6,5.3c4.4,3.8,6.2,8.6,6.6,14.2c0.7,5.8-0.7,11.3-2.4,16.6c-2.9,9.1-7.3,17.1-12.8,24.6
		c-6.9,9.3-14.2,17.7-22.8,25c-2,1.6-3.5,3.3-5.5,4.9c-4.2,2.9-5.8,6.6-5.8,11.7c0,16.8,0.9,33.5,5.1,49.6
		c1.6,5.5,3.5,10.6,6.4,15.5c1.1,1.8,2.2,3.3,3.3,4.9c1.3,1.6,2.9,1.8,4.7,0.2c3.1-2.4,5.8-5.8,8.2-9.1c4.9-6.9,9.1-14.2,12.2-21.9
		c2.9-7.1,6.6-17.1,13.1-36.3c0.3-1,0.7-2,1-3c1.1-4.9,2.6-9.5,4.5-13.6c5.1-11.1,14.4-17.7,26.4-20.4c4.9-1.1,9.3-0.2,13.7,1.1
		c6.4,2,10.6,7.8,10.6,14.6c0.2,9.7-3.5,17.9-10.6,24.8c-2.4,2.4-5.5,3.3-8.9,3.1c-0.9-0.2-2-0.2-2.4-1.3c-0.7-1.1,0.7-1.6,1.3-2
		c8-5.3,11.3-13.3,11.7-22.6c0.2-2.4-0.4-4.9-1.6-7.1c-2-3.5-4.2-4-6.9-0.9c-4.4,5.3-8.2,11.1-10.9,17.3c-10,22.8-6,50.3,8.2,50.3
		c17.6,0,34.6-15.6,43.1-32.3c0.1-1.2,0.2-2.4,0.3-3.6c0.7-4.7,2-9.1,5.1-12.8c4.4-5.5,12.2-7.3,18.6-4.4c2.4,1.3,3.3,2.7,2.4,5.3
		c-2.2,6.9-3.1,14-4.2,21c-0.7,5.5-0.7,11.1-0.2,16.8c0.2,3.1,0.9,6.2,3.1,8.6c2,2.4,4,2.7,6.6,1.3c6-3.5,9.7-8.9,12.2-15.3
		c0.2-0.9,0-2-1.1-2.4c-1.3-0.9-3.1-1.6-4.4-2.4c-11.1-6.9-12.8-17.7-8.6-27.5c4-9.7,16.4-11.5,23.3-3.1c2.4,2.9,3.8,6.2,4,10
		c0.2,2.7,0,12-0.2,14c0,0.9,0.2,1.6,0.9,1.8c0.6,0,10.6-0.8,18.4-13.1c0-0.3,0-0.6,0-0.9c0-2.4,0.7-4.9,1.1-7.3
		c0.2-2.4,1.3-4.2,3.8-4.7c3.1-0.9,6-0.7,8.2,1.8c2.9,3.5,4.4,7.8,5.3,12c0.4,2.7,1.1,5.3,1.6,8c2.7-0.4,2.7-2.4,3.3-3.8
		c3.1-9.1,6.9-17.9,11.3-26.4c2.2-4.4,4.9-8.4,8.4-12c2.2-2.4,4.9-3.1,8-2.9c4.9,0.2,7.8,2.7,8.6,7.5c0.7,4.4,1.3,9.1,0.9,14
		c-0.2,2.9-0.2,5.8,0,8.6c0,0.7,0.4,1.6,0.9,1.8c1.3,0.7,1.8-0.4,2.2-1.3l5.3-10.4c2.7-5.8,5.8-11.5,9.1-16.8
		c2.2-3.3,4.7-6.4,7.5-9.1c4-3.5,9.1-4,13.5-1.1c1.8,1.1,2.7,2.7,3.3,4.7c1.6,4,1.3,8.2,0.7,12.4c-1.3,12.8-4,25.5-6,38.3
		c-1.3,7.5-3.5,25.9-0.9,26.6c8.1,0,18.2-14.6,25.1-30.4c0.5-6.3,1.8-12.3,4.1-18.3c3.3-8.4,9.5-14,17.9-17.3
		c6.9-2.4,13.5-1.6,19.9,1.6c4.4,2,6.9,5.3,7.5,10c0.9,4.4,0.2,8.4-0.9,12.4c-3.3,10.2-9.5,18.2-17.7,24.8c-1.6,1.3-3.3,2-5.3,2.4
		c-2.7,0.7-3.1,1.1-2.9,4c0,3.5,0.7,6.9,2,10c1.1,2.4,3.1,3.1,5.5,2.2c17.1-7.1,29.2-25,41.4-48.7c1.3-2,3.1-3.1,5.5-2.7
		C699.6,611.3,700.5,612.7,699.6,614.7z M643.8,636.8c0,0.9,0.2,1.6,1.1,1.8c0.4,0,1.1-0.2,1.3-0.4c6.6-6.2,11.7-13.1,14.2-21.9
		c0.4-1.6,0.7-3.3,0.7-4.2c0-2.7,0-4.7-0.7-6.6c-0.7-2.2-2.4-2.9-4.4-1.3c-2.2,2-4,4.2-5.3,6.9C646.5,619.1,644.3,627.7,643.8,636.8
		z M292.5,597.8c1.3,0.9,2.2-0.2,3.3-1.1c0.2,0,0.2-0.2,0.4-0.4c12.4-11.3,22.6-24.4,29.5-39.9c3.1-6.4,4.9-13.3,5.1-20.6
		c0-3.5-0.4-7.3-2.2-10.6c-2.4-4.7-4.9-5.3-9.7-3.3c-4,2-7.1,5.1-9.7,8.6c-4.9,6.9-8.2,14.6-10.2,22.6c-1.8,6.6-3.1,13.5-4.2,20.2
		c-1.3,7.3-2,14.6-2.7,21.9C291.8,596.1,292,597.4,292.5,597.8z M222.9,636.8c0,0.9,0.2,1.6,1.1,1.8c0.4,0,1.1-0.2,1.3-0.4
		c6.6-6.2,11.7-13.1,14.2-21.9c0.4-1.6,0.7-3.3,0.7-4.2c0-2.7,0-4.7-0.7-6.6c-0.7-2.2-2.4-2.9-4.4-1.3c-2.2,2-4,4.2-5.3,6.9
		C225.6,619.1,223.4,627.7,222.9,636.8z M471.5,626.6c0-4.9-0.9-9.3-3.1-13.5c-0.4-1.1-1.1-2.4-2.7-2.2c-1.3,0-2,1.3-2.4,2.4
		c-2.4,4.7-3.3,9.7-2.2,14.8c0.9,3.5,2.4,6.4,5.3,8.6c1.3,1.1,3.1,0.7,3.5-0.9C470.8,632.8,471.5,629.7,471.5,626.6z"/>
	<path id="XMLID_160_" d="M500.7,1389.4c0,3.7-1.8,6.6-5.5,8.7c-3.7,2.1-19.7,3.2-48.1,3.2c-22.1,0-34.6-0.6-37.4-1.9
		c-2.8-1.3-4.3-4.2-4.3-8.7c0-6.2,5.7-10.8,17-13.6c-0.9-40.3-1.4-74-1.7-101.2c-37.7,0.6-77.3,0.9-118.7,0.9
		c-0.9,20.4-1.3,41.4-1.3,63l0.4,39.6c3.4,0,8.2,1.7,14.5,5.1c3.1,2,4.7,4.5,4.7,7.7c0,3.1-2,5.5-6,7.2c-4,1.7-33,2.6-87.2,2.6
		c-5.1,0-7.7-3.4-7.7-10.2c0-7.1,6.1-11.9,18.3-14.5l2.6-276.1c-6-1.7-10.5-3.3-13.6-4.9c-3.1-1.6-4.7-5.5-4.7-11.7
		c0-3.7,1.9-6.2,5.7-7.4c3.8-1.3,14.4-1.9,31.7-1.9l50.6,0.4c5.4,0.3,8.1,3.5,8.1,9.8c0,5.4-5.3,9.5-15.7,12.3
		c-1.1,36-1.7,88.5-1.7,157.4c42,0,81.8-0.4,119.5-1.3c0.6-30.3,0.9-63,0.9-97.8l-0.4-56.2c-4.5-0.9-9-1.9-13.4-3.2
		c-4.4-1.3-6.6-4.2-6.6-8.7c0-5.1,2.6-8.5,7.9-10.2c5.2-1.7,25.3-2.6,60.2-2.6c11.6,0,19.8,0.1,24.5,0.4c4.7,0.3,7,3.7,7,10.2
		c0,4.3-1.9,7-5.7,8.3c-3.8,1.3-8.3,2.2-13.4,2.8c0,106.9-0.1,200.1-0.4,279.5c6.8,0.9,11.8,2,15.1,3.4
		C499.1,1381,500.7,1384.3,500.7,1389.4z"/>
	<path id="XMLID_155_" d="M540.7,2149.2c0-6-3.3-9.1-9.8-9.4c-6.5,0-25,0.6-55.3,1.7c-13.6,0.3-22.4,6.1-26.4,17.4
		c-38.3,104.6-66.1,178.4-83.4,221.2c-23.8-52.2-45.3-99.8-64.4-142.7c-19.1-43-32.2-69.5-39.1-79.5c-7-10.1-14.8-15.1-23.6-15.1
		l-41.7-0.4c-10.2,0-15.3,3.4-15.3,10.2c0,7.4,6.7,11.8,20,13.2v280.8c-14.7,0-22.1,3.8-22.1,11.5c0,5.1,2.1,8.2,6.4,9.1
		c4.3,1,9.9,1.6,16.8,1.7c6.9,0.1,11.6,0.2,13.8,0.2c9.1,0,16.9-0.4,23.6-1.3c6.7-0.9,10-3.8,10-8.9c0-5.4-1.8-8.7-5.5-10
		c-3.7-1.3-9.5-2.6-17.4-4l-2.6-222.5c25.2,58.4,47.7,110.3,67.4,155.7c19.7,45.4,32,71.1,36.8,77.2c4.8,6.1,10.2,9.1,16.2,9.1
		c7.7,0,14.2-5.3,19.6-16c5.4-10.6,17.4-41.7,36.2-93.2c18.7-51.5,37.9-104.9,57.4-160.2c-2.6,105.8-4.3,188.9-5.1,249.3
		c-11.6,3.1-17.4,6.7-17.4,10.6c0,6,1.8,9.6,5.5,11.1c3.7,1.4,23.4,2.3,59.1,2.6c7.1,0,15-0.1,23.8-0.2c8.8-0.1,13.2-4,13.2-11.7
		c0-6.2-5.7-10.8-17-13.6l1.3-281.2C534.3,2159.9,540.7,2155.7,540.7,2149.2z"/>
	<path id="XMLID_153_" d="M422.9,2612.4c-22.1,0.3-46,0.6-71.7,1.1c-25.7,0.4-56.8,0.6-93.4,0.6c-10.5,0-15.7,4-15.7,11.9
		c0,6.2,6,9.4,17.9,9.4h7.2c1.1,17.3,1.7,65.5,1.7,144.6c-0.9,84.2-1.7,129.6-2.6,136.1c-6.5,0.6-12.3,1.7-17.4,3.4
		c-5.1,1.7-7.7,6-7.7,12.8c0,5.1,2.9,7.9,8.7,8.5c5.8,0.6,17.2,1,34.2,1.3c17,0.3,27.8,0.4,32.3,0.4H445c10.5,0,17.4-4,20.6-11.9
		c3.3-7.9,4.9-24.7,4.9-50.2c0-4.8-3.1-7.2-9.4-7.2c-6.5,0-10.1,4.2-10.8,12.5c-0.7,8.4-2.5,15.7-5.3,22.1
		c-2.8,6.4-7.7,9.6-14.5,9.6h-98.3l1.7-107.6c7.9-0.9,16.4-1.3,25.5-1.3c7.4,0,15,0.3,23,0.9l2.1,13.2c1.1,6.8,5.5,10.2,13.2,10.2
		c5.7,0,8.5-5,8.5-14.9c-0.3-29.5-1-45.8-2.1-48.9c-1.7-4.8-4.7-7.2-8.9-7.2c-4.5,0-7.6,2.3-9.1,6.8c-1.6,4.5-2.9,10.1-4,16.6
		L334,2786c-0.9-18.4-1.4-68.5-1.7-150.2c14.2-0.9,43.4-1.3,87.6-1.3c-2.8,6.2-4.3,12.6-4.3,19.1c0,9.1,2.7,16.3,8.1,21.7
		c5.4,5.4,12.8,8.1,22.1,8.1c10.8,0,19-3.4,24.7-10.2c5.7-6.8,8.5-14.2,8.5-22.1C479,2625.3,460.3,2612.4,422.9,2612.4z"/>
	<path id="XMLID_101_" d="M86.3,1767.7c1,3,1.9,5.4,2.8,7.1c1.2,2.2,2.6,3.8,4.3,5c0.4,0.3,0.9,0.6,1.4,1.1c1.6,1.3,3.2,2.4,4.9,3.4
		c0.6,0.3,1.2,0.6,1.7,1c0.5,0.3,1.1,0.6,1.7,0.9c0.6,0.2,1.1,0.5,1.6,0.9c1.3,1.4,4,3.8,8,7.2c2.3,2.3,3.7,4.2,4.2,5.6
		c0.5,1.5,1.5,3.6,3,6.4c0,0.5,0.1,1.1,0.1,1.6c0.1,1.6,0.3,3.1,0.5,4.7c-0.7-0.4-1.5-0.8-2.5-1.3c-1.4-0.8-3.8-1.9-7.1-3.3
		c-0.9-0.3-1.7-1.1-2.4-2.3c-0.4-0.6-0.8-1.1-1.2-1.3c-0.5-0.2-1.4-0.2-2.7,0c-3.3,1.1-4.5,2.9-3.7,5.5c0.2,0.7,0.7,1.4,1.3,2.1
		c1.4,1.3,2.7,1.8,4.1,1.4c0.9-0.3,1.7-0.8,2.3-1.4c0.6-0.6,1.3-1,1.9-1.2c1.2-0.2,3.2,0.6,5.9,2.3c1.6,0.9,3.1,1.9,4.4,2.8
		c0.7,5.4,1.5,10.7,2.6,16c-4-2.2-9-3.6-15.1-4.1l-2.6-0.7c-2.2-0.6-4.5-0.6-6.7,0.1c-0.8,0.3-1.3,0.6-1.2,0.9
		c0.1,0.3,0.4,0.7,1,1.1c2.7,1.7,6.6,4.4,11.6,8.1c6.1,4.9,11.4,7.3,15.9,7.1c1.3,5.3,2.9,10.6,4.6,15.9c-0.1,0-0.3,0-0.4,0.1
		c-1.6,0.5-2.4,1.7-2.3,3.5c0,0.4,0,0.8,0.1,1.2c0.3,0.8,0.8,1.5,1.6,2.1c0.8,0.5,1.5,0.7,2,0.6c0.4-0.1,0.9-0.4,1.3-0.7
		c9,24.9,22.2,48.3,39.1,68.9c0.1,0.2,0.2,0.5,0.3,0.7c0.9,1.7,1.8,3.2,2.9,4.6c5.6,6.7,9.2,11.9,11.1,15.4c0.4,0.9,0.5,1.4,0,1.6
		c-0.4,0.2-1.3,0.1-2.5-0.3c-1.3-0.4-2.6-0.9-4-1.3c-6.9-2-12-3.9-15.2-5.7c-0.4-0.3-1.7-1.1-4.2-2.5c-2.4-1.4-4.1-1.9-5.1-1.4
		c-1,0.5-1.2,1.5-0.4,3c1.2,2.2,4.5,5,10,8.2c5.9,3.3,10.6,5.2,14.1,6c1.2,0.2,5.5,0.6,12.8,1.1c4.2,1.1,8,3.5,11.3,7.1
		c2.4,2.3,5.5,4.7,9.4,7.4c2.3,1.4,3.6,2.5,3.9,3.2c0.1,0.2,0.1,0.3-0.1,0.5c-0.9,0.4-4.2,0.3-10-0.4c-3.3-0.3-6.6-0.4-9.8-0.5
		c-3.9-0.1-7.6-0.3-11.3-0.7c-4.5-0.6-9.2-2-14.2-4.1c-5.7-2.5-9.2-3.4-10.6-2.7c-0.9,0.5-1.2,1.2-0.7,2.2c0.8,1.6,6,4.7,15.4,9.2
		c2.4,1.1,4.3,2,5.8,2.7c11.2,5.2,22.9,6.8,35,4.6c1.8-0.4,3.5-0.9,5.2-1.5c1.7-0.6,3.1-1.1,4.3-1.3c2.3-0.2,6,1,11,3.5
		c1.9,1.1,4.3,2.2,7.2,3.1c4.3,1.6,6.8,2.7,7.4,3.2c-1.4,0.4-4.8,0.8-10,1.2c-2.3,0.2-5.1,0.6-8.3,1c-15.5,1.8-27.3,2.2-35.3,1.1
		c-2.8-0.8-4.6-1.1-5.3-0.7c-0.3,0.1-0.3,0.3-0.2,0.6c0.1,0.3,0.4,0.6,0.8,0.9c1.9,1.5,4,2.6,6.4,3.2c13.6,3.9,28.9,5,46.1,3.3
		c4.5-0.7,8.3-1.7,11.1-2.8c4.5-1.6,8.3-2.3,11.2-2.3c0.8,0,1.7,0.1,2.9,0.2c5.8,2.2,11.6,4.1,17.5,5.8l-8.1,2.5
		c-12,4.5-24.3,7.9-37,10.3c-0.7,0.1-1.7,0.2-3.1,0.3c-4.8,0.5-7.9,1.1-9.3,1.9c-0.5,0.6-0.6,1.1-0.3,1.6c0.4,0.7,1.3,1.3,2.9,1.8
		c8.5,2.7,16.5,3.7,24.1,2.9c8.9-0.8,18.4-3.8,28.7-9.1c3.4-1.8,6.6-3.7,9.6-5.8c1.8-1.3,3.6-2.3,5.2-3.2c42,9.6,86.5,7.3,127.3-6.5
		c-0.6,0.5-2.1,1.7-4.7,3.6c-6.9,5.9-12.7,12.8-17.4,20.6c-1.3,2-1.7,3.5-1.2,4.4c1.3,2.6,7.5,1.2,18.4-4.4
		c6.6-3.3,11.9-8.3,16.1-14.7c1.5-2.3,2.5-4.9,3-8.1c0.4-1.3,1-2.2,1.9-2.7c0.6-0.3,5.6-1.3,15-2.8c4-0.9,10-3.3,17.8-7.3
		c0.9-0.6,1.9-1.1,3.1-1.7c3.4-1.6,5.3-2.1,5.6-1.5c0.3,0.5-0.5,2.1-2.3,4.6c-1.3,2-2.4,4-3.5,6c-1.1,2-2.3,4.1-3.8,6.3
		c-0.5,0.8-1,1.7-1.5,2.7c-0.5,1-0.9,1.8-1.3,2.4c-0.9,1.2-2.3,3.5-4.1,6.9c-1.4,2.7-1.9,4.4-1.5,5.2c0.3,0.6,1,0.9,2.2,0.9
		c1.1-0.1,2.3-0.4,3.6-1c1.3-0.6,2.3-1.1,2.9-1.4c8.4-4.5,14.7-9.5,18.9-15.1c0.5-0.8,1.1-1.7,1.7-2.5c0.6-0.8,1.3-2.1,2.1-3.7
		c1.9-3.9,3.2-7.2,3.9-10.2c0.6-2.9,0.7-6.2,0.2-9.9c-0.3-2.5-0.2-4.3,0.5-5.4c0.7-1.1,1.8-2.2,3.3-3.3c0.8-0.5,1.6-1.2,2.6-2
		c4.8-4.2,8.8-8.2,11.9-12c3.2-3.8,6.6-8.4,10.2-13.6c1.4-2,2.4-3.1,2.9-3.4c0.2-0.1,0.3-0.1,0.3,0c0.4,0.7-0.1,3.2-1.4,7.4
		c-0.7,4.9-1.4,9.9-2.2,15c-0.8,5-0.3,11,1.5,17.8c0.2,0.7,0.4,1.4,0.5,2.3c0.1,0.8,0.4,1.8,1,3c0.6,1.3,1.7,1.7,3.1,1.4
		c0.1-0.6,0.2-1.1,0.1-1.4c-0.1-0.3,0.3-1,1.2-2c4.9-6,8.5-12.6,10.8-19.8c2.9-8,2.6-15.6-1-22.7c-1-1.9-2.1-3.8-3.4-5.5
		c-1.3-1.8-2.3-3.3-2.9-4.5c-1.2-2.3-1.1-5.3,0.2-9.1c0.7-2.1,1.2-3.9,1.6-5.4c0.7-1,1.4-2,2.1-3c0.1-0.1,0.2-0.3,0.3-0.4
		c0.8,0.5,1.7,1,2.7,1.4c1.2,0.7,2.4,1.2,3.5,1.4c0.5,0.1,1.2,0.2,2.1,0.2c1,0,2-0.8,3.2-2.4c1-1.3,1.6-2.4,1.8-3.3s0.1-2.1-0.3-3.6
		c-0.2-1.1-0.2-2,0-2.7c0.3-1.6,2.7-4,7-7.2c2.1-1.7,3.2-2.5,3.2-2.6c2.3-2.1,3.6-3.1,4.1-3c0.3,0.3,0.5,1.6,0.6,4
		c0.1,2.4,0,3.9-0.1,4.6c-0.1,0.5-0.4,1.2-0.9,1.9c-0.5,0.7-0.9,1.8-1.2,3.4c-0.2,3.3,1,5.1,3.4,5.6c3.8,0.7,6.2-1.3,7.1-6
		c-0.3-1.5-0.9-2.7-2-3.6c-1.5-1.2-2.3-2.8-2.3-4.7c0-1.2,0.3-4,1.2-8.2c0.5-2.4,1.4-4.8,2.9-7.2c5-7.2,8.5-13.6,10.6-19.2
		c1.4-4,2.6-5.8,3.5-5.7c0.6,0.1,1.1,1.6,1.3,4.5c0.5,5,1.7,9.9,3.3,14.9c0.5,2,0.6,3.7,0.5,5.1c-0.1,1.4-0.1,2.7,0.2,3.9
		c0.3,1.2,1.3,2.2,3,3.1c1.3,0.6,2.5,1,3.6,1.2c1.6,0.3,3,0.1,4-0.7c1-0.8,1.7-1.9,2-3.4c0.6-3-0.2-5.8-2.3-8.5
		c-0.9-0.8-1.7-1.3-2.4-1.4c-1-0.2-1.8-0.2-2.5-0.1c-0.7,0.1-1.3,0.2-1.7,0.1c-1.5-0.3-2.9-4.7-4.2-13.3c-1.6-7.1-2-13-1.1-17.7
		c0-0.2,0.1-0.3,0.2-0.4c1-3.5,2.3-8.9,3.7-16.2c1.1-5.7,1.8-8.7,2.1-8.9c0.4,0.1,1.4,1.8,3.1,5.1c2.3,5,4.5,8.9,6.4,11.5l2.8,3.8
		c0.5,1.1,0.7,2.2,0.5,3.2c-0.3,1.4-0.1,2.8,0.5,4.2c1,2,2.5,3.2,4.5,3.5c3.4,0.6,6.1,0.6,8.3-0.1c1.2-0.4,2-1.7,2.4-3.8
		c1.1-5.7-1-9.6-6.3-11.8c-1.1-0.1-2.7,0.2-4.8,0.9c-0.7,0.3-1.3,0.5-1.7,0.5c-1-0.2-2-1-2.9-2.5c-2.4-3.7-4-6.8-4.7-9.2
		c-4.4-8.2-6.9-15.7-7.6-22.6c-0.1-2.2-0.5-4.8-1.2-7.8l-0.3-2.2c0.2,0,0.7,0.6,1.5,1.6c1.6,2.4,3.6,4.4,5.8,6
		c2.3,1.6,3.8,3.3,4.5,5c0.7,1.7,2,2.8,3.8,3.1c1,0.2,2.1,0.1,3.3-0.4c1.8-0.6,2.9-2.1,3.4-4.4c0.2-1.3-0.1-2.6-0.9-3.9
		c-0.9-1.3-2.1-2.2-3.8-2.5c-1.4-0.3-2.6,0.1-3.6,1.1c-0.8,0.7-1.5,1-2.3,0.8c-0.9-0.4-2.2-1.5-3.9-3.3c-5.1-5-8.7-10.6-10.8-16.6
		c-2.8-8.2-6.4-15.9-11-23.1c-1.2-16.1-4.2-32-8.6-47.5c0.4,0.2,0.7,0.3,1,0.3c1.2,0,1.7-0.9,1.7-2.5c0-2.5-1.8-6.5-5.3-11.8
		c-1.4-2-2.7-3.8-4-5.4c-4.2-10.7-9.1-21.2-14.8-31.2c0.4,0.2,0.8,0.4,1.2,0.6c3.4,1.8,6.7,3.7,9.8,5.7c3.7,2.6,7.4,5.9,10.9,10
		c4,4.8,6.7,7.2,8.3,7.1c1.1,0,1.6-0.6,1.6-1.6c0-1.8-3.3-6.9-9.7-15.1c-1.7-2-3-3.7-4-5c-7.7-9.7-17.5-16.2-29.3-19.7
		c-0.1,0-0.2,0-0.2-0.1c-0.9-1.3-1.9-2.7-2.9-4c-3.1-4.2-6.4-8.4-9.8-12.4c0.6,0.2,1.3,0.4,2,0.7c14.7,5.3,25.4,10.2,32.1,14.7
		c2.2,2,3.6,3,4.4,3c0.3,0,0.4-0.2,0.4-0.4c0-0.3-0.1-0.7-0.3-1.2c-1-2.2-2.4-4.1-4.3-5.7c-10.4-9.5-23.7-17.3-39.8-23.5
		c-2.8-0.9-5.4-1.5-7.7-2c-5.6-5.7-11.6-11.1-17.8-16.1c11.3,1.4,22.6,3.6,33.7,6.8c0.7,0.2,1.7,0.6,2.9,1.1
		c4.5,1.7,7.6,2.5,9.2,2.5c0.7-0.3,1-0.7,1-1.3c0-0.8-0.6-1.7-1.8-2.9c-6.4-6.2-13.2-10.6-20.3-13.3c-8.3-3.3-18.2-4.8-29.7-4.6
		c-3.3,0.1-6.6,0.3-9.7,0.7c-17.3-12.1-36.3-21.9-56.3-28.9c-1.2-0.4-2.3-0.8-3.5-1.2c-0.7-2.9-3.2-4.4-7.5-4.6
		c-1,0.3-1.8,0.9-2.6,1.5c-17.3-4.9-35-7.7-52.9-8.5c-0.1-0.2-0.2-0.3-0.2-0.5c0-0.7,1.6-1.4,4.7-2.1c5.4-1.4,10.7-3.4,15.8-6
		c2.1-0.8,3.9-1.3,5.5-1.4c1.6-0.1,3-0.4,4.3-0.9c1.3-0.5,2.2-1.8,2.9-3.8c0.5-1.5,0.8-2.9,0.8-4.1c0.1-1.8-0.4-3.3-1.4-4.3
		c-1-1-2.4-1.6-4-1.6c-3.4-0.2-6.4,1.1-8.9,3.9c-0.8,1.1-1.2,2-1.2,2.9c-0.1,1.1,0.1,2.1,0.3,2.8c0.3,0.7,0.4,1.3,0.4,1.9
		c-0.1,1.7-4.7,4-14,6.7c-7.5,2.9-13.9,4.3-19.3,4c-0.2,0-0.4-0.1-0.5-0.2c-4-0.6-10.1-1.1-18.4-1.5c-6.4-0.3-9.8-0.6-10.1-0.9
		c0-0.4,1.7-1.8,5.1-4.2c5.2-3.3,9.1-6.3,11.6-8.8l3.7-3.7c1.2-0.8,2.3-1.1,3.4-1.1c1.6,0.1,3.1-0.3,4.5-1.2c2-1.4,3.1-3.3,3.2-5.5
		c0.2-3.8-0.3-6.8-1.4-9.1c-0.7-1.3-2.2-1.9-4.5-2.1c-6.4-0.3-10.4,2.6-11.9,8.8c0,1.2,0.6,3,1.8,5.2c0.5,0.7,0.8,1.3,0.8,1.7
		c-0.1,1.1-0.8,2.3-2.3,3.6c-3.7,3.2-6.9,5.4-9.4,6.6c-8.3,6.1-16.2,10.1-23.6,12c-2.4,0.5-5.2,1.3-8.4,2.5l-2.3,0.7
		c0-0.2,0.5-0.8,1.5-1.9c2.4-2.1,4.2-4.6,5.6-7.3c1.4-2.8,3-4.7,4.8-5.8c1.8-1.1,2.7-2.7,2.8-4.7c0.1-1.1-0.3-2.3-0.9-3.6
		c-0.9-1.9-2.7-2.9-5.4-3c-1.4-0.1-2.8,0.5-4.2,1.7c-1.3,1.2-2,2.7-2.1,4.5c-0.1,1.6,0.5,2.9,1.8,3.8c0.9,0.8,1.3,1.5,1.3,2.4
		c-0.3,1-1.3,2.6-3,4.8c-4.7,6.4-10.2,11.3-16.5,14.5c-9.4,4.8-18,10.7-25.8,17.6c-23.1,11.2-44.3,26.2-62.6,44.3
		c-1.1,0.4-2.3,0.8-3.6,1.3c-0.5,0.1-0.8,0.2-0.9,0.1c-0.1-0.1,0.8-1.9,2.7-5.6c3.6-8.3,5.8-17.1,6.6-26.2c0.2-2.4,0-3.9-0.9-4.5
		c-2.4-1.8-7.3,2.2-14.6,12.1c-4.4,5.9-7.1,12.7-8,20.3c-0.4,2.7-0.1,5.5,0.9,8.5c0.3,1.4,0.1,2.4-0.5,3.3
		c-0.4,0.6-4.5,3.6-12.2,9.1c-3.2,2.6-7.5,7.4-12.8,14.4c-0.5,0.9-1.2,1.9-2,2.9c-2.4,3-3.8,4.2-4.4,3.8c-0.5-0.4-0.5-2.1,0-5.2
		c0.2-2.4,0.4-4.7,0.5-6.9c0.1-2.2,0.3-4.7,0.7-7.4c0.1-1,0.1-2,0.1-3.1c0-1.1,0-2,0-2.7c0.3-1.4,0.5-4.1,0.6-8c0.1-3-0.2-4.8-1-5.3
		c-0.6-0.4-1.4-0.4-2.3,0.2c-1,0.5-1.9,1.4-2.8,2.5c-0.9,1.1-1.6,2-2,2.5c-5.6,7.7-9,15-10.3,21.9c-0.1,1-0.2,1.9-0.4,3
		c-0.2,1-0.3,2.4-0.2,4.3c0,4.3,0.3,7.9,1,10.8c0.7,2.9,2.1,5.9,4.1,9c1.4,2.1,2,3.8,1.9,5.1c-0.1,1.3-0.6,2.8-1.5,4.4
		c-0.5,0.8-1,1.8-1.4,2.9c-2.5,5.8-4.3,11.2-5.4,16c-1.1,4.8-2.2,10.4-3.2,16.7c-0.4,2.4-0.8,3.8-1.1,4.3c-0.1,0.2-0.2,0.2-0.3,0.2
		c-0.7-0.5-1.3-2.9-2-7.3c-1.6-4.8-3.1-9.6-4.6-14.4c-1.5-4.9-4.6-10-9.1-15.3c-0.5-0.5-1-1.1-1.4-1.8c-0.4-0.7-1.2-1.5-2.2-2.3
		c-1.1-0.9-2.3-0.8-3.4,0.2c0.2,0.6,0.4,1.1,0.6,1.3c0.2,0.2,0.2,1-0.2,2.3c-1.7,7.6-2,15.1-1,22.5c0.9,8.5,4.6,15.1,10.9,19.9
		c1.7,1.3,3.5,2.4,5.5,3.4c1.9,1,3.5,1.9,4.6,2.8c2,1.5,3.3,4.3,3.8,8.2c0,0,0,0.1,0,0.1c-0.4,0.4-0.9,0.9-1.5,1.5
		c-3.9,3.8-6.2,6.9-7.1,9.2c-2.2,6.8-3.2,13.9-3.1,21.4c0.1,1.2,0,2.5,0,3.8c0,5.2,0.9,10.9,2.9,17.1c0.7,2.1,0.9,3.1,0.6,3.2
		c-1-0.5-2.5-1.9-4.6-4c-2.8-2-4.5-4.3-5.4-6.9l-0.8-2.8c-1-3.2-3.5-6.7-7.4-10.3c-0.8-0.8-1.6-1.8-2.4-2.9
		c-3.5-4.6-5.8-6.8-6.8-6.5c-0.8,0.2-1.2,1.3-1.3,3.1C85.1,1763.3,85.5,1765.1,86.3,1767.7z M260.6,1570.6
		c9.1-4.3,18.5-7.9,28.1-10.9c2.1,0.3,4.1,0.6,6,0.9c-2.8,0.7-5.6,1.5-8.3,2.3c-12,3.5-23.6,8.1-34.9,13.5c0.9-1,1.9-1.9,3-2.8
		C256.5,1572.6,258.5,1571.6,260.6,1570.6z M343.3,1549.5c0.9,0.5,1.8,1,2.9,1.6c1.2,0.7,2.4,1.4,3.6,2.1c-15.5,0.2-30.9,1.9-46,5.2
		c-1.7-0.6-3.4-1.2-5.1-1.7C313.2,1553,328.2,1550.5,343.3,1549.5z M357.5,1549.1c4.8,1.1,10.5,2.8,17.2,5.2
		c-6.1-0.6-12.3-0.9-18.5-1c-0.1-0.1-0.2-0.2-0.3-0.2c-2.2-1.9-3.5-3.2-4-3.9C353.8,1549.1,355.6,1549.1,357.5,1549.1z
		 M584.1,1740.9c0.6,4,1.2,7.9,1.6,11.9c-0.6-0.8-1.1-1.5-1.6-2.1c-3-18.6-8.1-36.7-15.4-54.1c2.2,2.1,4,4,5.5,5.7
		C578.6,1714.8,582,1727.7,584.1,1740.9z M587,1786.3c0-0.4,0-0.9,0-1.3c-0.1-9.3-0.8-18.7-2-27.9c0.5,0.8,0.9,1.6,1.3,2.5
		C587.1,1768.4,587.3,1777.4,587,1786.3z M562.4,1682.8c-5-10.1-10.8-19.9-17.3-29.2c1,0.1,3.6,1.5,7.8,4.2
		c5.6,9.1,10.6,18.5,14.9,28.2C566.5,1685.2,564.7,1684.1,562.4,1682.8z M528,1624.6c5.4,6,10.5,12.2,15.2,18.7
		c-1.2-0.2-2.2-0.4-3.1-0.6c-2.1-0.8-4.9-3.5-8.3-8c-1.2-1.8-2.9-3.8-5-6c-3.2-3.3-4.9-5.4-5.2-6.2
		C522.8,1622.8,524.9,1623.4,528,1624.6z M472.5,1591.5c0,0.8-0.2,1.7-0.5,2.8c-2.2,7-3.3,13.2-3.2,18.5c0,2.9,0.4,5.9,1.1,8.9
		c0.7,3,1.3,6.1,1.8,9.1c0.6,3.6,1.5,7.4,2.5,11.6c1.9,7.5,2.8,12.8,2.9,15.9l0.1,4.8c0.1,3.3,0.6,4.9,1.5,4.9
		c0.5-0.1,0.9-0.7,1.3-1.9c2-9.2,2.9-17.3,2.8-24c0-2,0-3.7,0.1-4.9l-0.2-3.6l0-8.7c-0.1-3.2-0.3-6.3-0.7-9.3
		c-0.2-1.1-0.3-2.1-0.4-3.1c-0.1-1-0.3-2.3-0.6-4c-0.7-4.1-1.1-7.4-1.2-10.2c0-0.8,0-1.4,0.1-1.7c0.1-0.1,0.1-0.1,0.2-0.2
		c6.8,4.5,13.4,9.4,19.7,14.6c0,0,0,0,0,0c0,0.9-0.2,1.9-0.7,3.2c-1.5,4-2.2,8.1-2.1,12.4l0.2,5.2c1,14.1,1.6,25.6,1.7,34.3
		c0.1,8.2-0.2,14.7-1.1,19.4c-0.5,1.1-0.7,2.4-0.7,3.9c0,0.3,0.1,0.5,0.3,0.6c1.8,0,4.3-5.1,7.3-15.2c1.6-4.4,2.7-8.8,3.4-13.3
		c0.5-4.9,0.7-9.9,0.6-15c-0.1-7-1-15.3-2.7-25.1l-0.2-2.9c0-1,0.2-1.6,0.6-1.7c3.3,3,6.5,6,9.6,9.2c1,1,2.1,2.1,3.1,3.2
		c0.3,0.4,0.5,0.7,0.8,1.1c1.5,1.7,2.5,2.8,3.1,3.3c0.3,0.3,0.6,0.6,0.9,0.8c0.2,0.2,0.4,0.5,0.6,0.7c1.1,1.3,1.6,2.5,1.6,3.8
		c0,0.7-0.1,1.5-0.3,2.3c-2.2,4.8-3.4,8.6-3.6,11.5c-0.1,1.2-0.1,3.6,0,7.3c0.4,7.8,0.7,15.7,1,23.5c-0.7,8.1-1.2,13.4-1.3,16
		c-0.1,2.6-0.4,4.6-0.8,5.8c-0.4,1.3-0.5,2.4-0.5,3.4c0,1,0.6,1.5,1.8,1.6c1.8-0.5,4.6-9.3,8.4-26.3c1.8-5.5,2.6-13.1,2.5-22.9
		c0-1.2-0.1-2.5-0.3-4.1c-0.2-1.6-0.3-3.7-0.3-6.3c0-1.4,0.2-2,0.5-2c1.5,0,4.9,5.1,10.3,15.4c1.1,2.2,2.3,4.4,3.5,6.6
		c1.2,2.2,1.9,3.9,1.9,5.1c0,1-0.3,2-0.8,3.1c-3.4,5.8-5.9,12.1-7.4,19c-0.2,0.2-0.6,2-1.4,5.4c-0.6,2.7-0.9,5-0.9,6.8
		c0,1.6,0.5,2.5,1.3,2.4c1.6,0,3.6-3.1,6.2-9.1c2.3-5.6,3.8-9.9,4.5-13.2c0.7-3.2,1.3-4.8,1.7-4.8c0.5,0,1,0.8,1.6,2.4
		c1.9,4.4,2.9,8.8,3,13.2c0.1,4.8-1,9.7-3.1,14.4c-2.7,6.1-4.4,10.9-5.1,14.5c-0.7,3.6-1,8.1-0.9,13.5l-0.3,7.9
		c-0.3,2.6-0.5,5.3-0.4,8.1c0,2.9,0.7,4.3,1.8,4.3c2.2,0,5.7-6.7,10.3-20.1c1.8-5.9,3.1-12.8,3.9-20.6c0.3-2.9,0.5-5.6,0.4-8
		c0-1.9-0.2-3.7-0.5-5.4c-2-8.5-3-14.7-3.1-18.7c0-0.8,0.2-1.3,0.5-1.4c9,19,15.3,39.3,18.8,60.1c3.2,19.2,3.8,38.7,2.1,57.9
		c-4.3,0.5-6.8,2.9-7.6,7c-0.4,1.9-0.1,3.6,0.8,5c0.9,1.4,2.2,2.3,3.9,2.7c0.4,0.1,0.8,0.1,1.1,0.1c-1.6,10.4-3.9,20.6-6.9,30.6
		c-3.1,0.4-5.5,2.2-7.1,5.4c-0.6,1-1,2-1.1,3c-0.1,0.6-0.1,1.5-0.1,2.5c0.1,1,1.1,2,3.1,3c0.2,0.1,0.3,0.1,0.5,0.2
		c-1.9,5-3.9,10-6.1,14.8c-3.6,0.7-5.9,0.9-7.1,0.7c-0.5-0.1-1.1-0.3-1.6-0.7c-0.4-0.6-1.3-1.1-2.7-1.4c-1.5-0.3-2.9,0.1-3.9,1.1
		c-1.1,1-1.8,2.2-2,3.7c-0.1,0.4-0.1,1.1-0.2,2.3c-0.1,1.2,0.6,2.3,2.1,3.4c0.8,0.5,1.6,0.9,2.3,1c2.3,0.4,4.2-1,5.7-4.3
		c0.6-1.1,1.4-1.8,2.3-2c0.8-0.2,2-0.3,3.5-0.4c-0.4,0.9-0.9,1.8-1.3,2.7c-0.7,1.4-1.4,2.9-2.2,4.3c-2.6,4.6-5.4,9.1-8.4,13.5
		c-0.8,0.1-1.5,0.4-2.3,0.7c-1.7,0.8-2.9,2.1-3.5,3.8c-0.3,1.3-0.3,2.5,0,3.7c-11.1,15.1-24.1,28.9-38.5,40.9
		c-7.8,1.4-16.6,4.6-26.6,9.7c-7.3,3.7-10.3,6.8-9.1,9.1c0.8,1.5,2.8,2.2,6.2,2.1c-1.2,0.7-2.4,1.4-3.6,2.1
		c-2.9,1.7-5.9,3.2-8.9,4.8c-1.7-0.8-3.4-1.5-5.4-2.3c-10.7-4.9-20.1-6.5-28-4.9c-1.1,0.2-1.9,0.4-2.5,0.8c-1.1,0.6-1.3,1.5-0.7,2.8
		c0.3,0.6,1,1.5,2.1,2.7c3.5,4.4,8,7.9,13.3,10.5c-9.2,3.5-18.5,6.5-28.1,8.8c-0.1-0.1-0.2-0.3-0.4-0.4c-2.2-2.7-3.8-4.5-4.8-5.3
		c-6.9-6.7-17.2-9.6-31-8.5c-2.7,0-4.6,0.3-5.8,0.9c-0.7,0.4-0.9,0.9-0.6,1.5c0.9,1.7,4,4.8,9.3,9.2c4.3,3.9,7.2,6.3,8.8,7.1
		c0.1,0.1,0.2,0.1,0.3,0.1c-18.9,2.6-38.1,2.8-57.1,0.7c-8-0.9-15.8-2.3-23.6-4c-1.1-6.7-2.9-12.2-5.2-16.6c-1.3-2.6-3-5.1-4.9-7.5
		c-2-2.4-3.9-4.9-5.7-7.3c-2.2-2.9-4.6-6-7.4-9.3c-5-5.9-8.2-10.2-9.7-13l-2.2-4.3c-1.5-2.9-2.7-4.2-3.6-3.7
		c-0.4,0.3-0.5,1.1-0.3,2.3c2.3,9.2,5.1,16.7,8.2,22.8c0.9,1.8,1.6,3.3,2.1,4.5l1.8,3.2l3.9,7.8c1.5,2.8,3.1,5.5,4.8,8
		c0.7,0.9,1.2,1.7,1.8,2.6c0.5,0.9,1.3,2,2.3,3.3c1.2,1.6,2.3,3.2,3.2,4.6c-7.9-2.2-15.6-4.8-23.2-7.8c-0.6-2.1-1.4-4.1-2.4-6
		l-2.5-4.6c-7.2-12.2-12.8-22.2-16.8-29.9c-3.8-7.3-6.3-13.3-7.6-17.8c-0.1-1.2-0.4-2.4-1.2-3.8c-0.1-0.3-0.3-0.4-0.5-0.4
		c-1.6,0.8-1.6,6.5,0.2,16.9c0.5,4.6,1.5,9.1,2.9,13.4c1.8,4.7,3.8,9.2,6.1,13.7c1.9,3.7,4.4,7.8,7.3,12.2
		c-7.7-3.7-15.2-7.8-22.5-12.3c-0.5-1.2-1.5-3.2-3-5.9c-3.9-6.8-7.7-13.7-11.3-20.6c-2.9-7.5-4.9-12.5-5.9-14.9
		c-1-2.4-1.7-4.3-1.9-5.6c-0.2-1.3-0.6-2.4-1-3.2c-0.4-0.9-1.2-1.1-2.3-0.6c-1.4,1.3,0,10.4,4.2,27.3c0.5,3.2,1.6,7,3.2,11.2
		c-4.1-3.1-8.2-6.4-12.1-9.8c-1.8-1.6-3.5-3.1-5.2-4.7c-0.3-1.5-0.6-3-1-4.5c0.1-0.3-0.3-2.1-1.2-5.4c-0.6-2.7-1.4-4.9-2.2-6.5
		c-0.8-1.5-1.5-2-2.3-1.6c-1.3,0.7-1.8,4-1.6,10c-4.5-4.6-8.8-9.5-12.9-14.4c-0.3-2.9-0.8-5.3-1.3-7.3c-1-3.6-2.8-7.7-5.2-12.4
		l-3.2-7.2c-0.9-2.5-1.9-5-3.2-7.5c-1.3-2.6-2.5-3.6-3.6-3.1c-1.4,0.7-1.9,4.9-1.3,12.3c-3.8-6.1-7.2-12.4-10.4-18.8
		c0.1-0.3,0.2-0.7,0.2-1c1.1-6.9,2.7-12.8,4.8-17.6l0-0.1l2.5-5.4c0.6-0.8,1.5-1.4,2.7-2c4.4-1.9,7.4-6.5,8.9-13.8l1.2-5
		c0.9-3,1.3-4.8,1.1-5.3c-0.2-0.7-0.5-1-0.9-1c-0.6,0.2-1.4,1-2.3,2.4c-0.5,1-2.1,2.8-4.7,5.3c-1.5,1.4-2.8,2.9-4,4.5
		c-1.1,1.6-2,3.8-2.7,6.7c-0.6,2.9-1.4,4.9-2.3,6.1c-0.5,0.7-1.1,1.8-1.8,3.4c-0.8,3-1.6,4.8-2.4,5.6c-0.1-0.1-0.6-1.4-1.4-3.9
		c-0.7-2.8-1.4-5.6-2.2-8.2c-1.3-3.9-1.9-7.2-1.9-9.7c0-2.6,1-6.4,3.2-11.4c0.9-1.8,2.1-2.9,3.4-3.4c0.5-0.1,1-0.2,1.6-0.3
		c0.6,0,1.3-0.2,2-0.4c0.7-0.2,1.5-0.7,2.3-1.5c0.5-0.9,0.6-1.9,0.3-3c-0.5-1.6-1.6-2.9-3.4-3.8c-1-0.5-2.1-0.6-3.1-0.3
		c-2.3,1-3.4,2.5-3.4,4.5c0,1.4-0.3,2.7-0.9,4c-0.3,0.3-0.5,0.5-0.6,0.8c-1.9,2.7-3.1,5.9-3.5,9.6c-0.3,1.6-0.6,2.5-0.8,2.6
		s-0.6-0.1-1.1-0.7c-3.9-6.9-6.2-11.5-6.9-13.8c-0.7-2.1-0.9-6.2-0.8-12.3c-0.1-2.1,0-3.7,0.1-4.7c0.2-1.1,0.8-2,1.9-2.9
		c3.7-3,5.6-8.1,5.8-15.1c0.3-3.1,0.1-5.8-0.5-8.2c-0.4-1.4-1-2.2-1.8-2.4c-0.9,0.3-2.2,2-3.8,5.2l-3.1,6.8
		c-1.8,6.8-2.5,13.8-2.2,21c0,0.2,0.1,0.4,0.1,0.8c0,0.4,0,0.9,0.1,1.6c0.1,1,0,1.6-0.2,2c-0.9-5.7-1.7-11.5-2.2-17.3
		c-0.7-7.8-0.9-15.6-0.8-23.3c0.2-0.6,0.2-1.1,0-1.7c0,0,0,0,0,0c0.6-26.8,5.9-53.3,15.5-78.3c6.4-4.7,13.1-11.5,19.9-20.6
		c4.9-6.5,6.3-10.6,4.2-12.2c-1.4-1-3.6-0.7-6.7,0.9c-0.9,0.6-1.7,1.1-2.6,1.6c2.9-4.6,5.9-9,9.1-13.3c2.3,0,4.9-0.1,7.7-0.3
		c11.8-0.4,20.9-3,27.3-7.9c0.9-0.6,1.5-1.2,1.9-1.8c0.7-1,0.5-1.9-0.6-2.8c-0.6-0.4-1.6-0.9-3.1-1.5c-5.4-2.5-11.2-3.7-17.5-3.5
		c-0.4,0-0.8,0.1-1.2,0.1c6.7-7.5,14-14.5,21.6-21c0.7,0.2,1.5,0.5,2.5,0.8c3.1,1.5,5.3,2.4,6.6,2.7c9.1,3,19.7,1,31.6-6
		c2.4-1.1,4-2.2,4.8-3.3c0.5-0.7,0.5-1.2-0.1-1.6c-1.6-1.2-5.7-2.6-12.4-4.2c-5.6-1.6-9.2-2.5-11-2.5c-1.4,0-2.8,0.1-4.1,0.3
		c10.7-7.5,22-14.1,33.9-19.6c15.5-7.2,31.8-12.7,48.4-16.3c1.4,0.5,2.7,1.1,3.8,1.7l2,1c0.6,0.6,0.9,1.6,1.1,2.8
		c1.2,4.9,4.2,7.4,9,7.6c2.1,0.1,3.9-0.5,5.4-1.7c1.4-1.2,2.2-2.8,2.3-4.7c0.2-3.7-2.4-5.6-7.7-5.9c-3.9-0.2-6.7-0.8-8.4-1.9
		c-0.2-0.1-0.5-0.2-0.7-0.4c14.7-2.7,29.6-4,44.5-3.9c0.9,0.8,1.7,1.7,2.5,2.6c0.4,0.5,0.8,1,1.2,1.3c1,1,1.7,1.8,2.1,2.6
		s0.6,2,0.7,3.6c0.1,5.2,2.6,8.7,7.5,10.3c1.2,0.5,2.4,0.7,3.5,0.8c0.7,0,1.6-0.1,2.8-0.3c1.1-0.3,2.1-1.5,2.8-3.9
		c0.3-1,0.4-1.9,0.4-2.7c0.2-4.9-3.2-7.5-10.2-7.9c-1.5-0.1-2.9-0.8-4-2.2c-1.2-1.5-2.4-2.9-3.6-4.1c8.8,0.3,17.6,1.1,26.4,2.4
		c1.9,2.9,4.4,8.1,7.5,15.6c2,5.3,3,8.8,2.9,10.4c0,0.6-0.2,1.2-0.5,1.8c-0.6,0.6-1,1.6-1.1,3.2c-0.1,1.7,0.5,3.1,1.8,4.2
		c1.3,1,2.7,1.6,4.4,1.7c0.4,0,1.3,0,2.5-0.1c1.3-0.1,2.4-1,3.4-2.8c0.5-1,0.7-1.9,0.7-2.7c0.1-2.6-1.7-4.4-5.6-5.6
		c-1.3-0.5-2.2-1.2-2.6-2.2c-0.4-1-0.8-2.5-1.1-4.6c-0.8-4.4-2.3-9.1-4.4-14c-0.8-1.3-1.1-2.2-1.1-2.8c0-0.4,0.3-0.6,0.8-0.6
		c0,0,0.1,0,0.2,0c0.1,0,0.2,0,0.3,0c0.3,0.1,0.6,0.2,1.1,0.3c3.8,1.6,8,4.1,12.4,7.5c8.9,7,13.7,11.1,14.3,12.5
		c0.4,0.9,0.5,2.4,0.5,4.4c0,2,0.5,3.9,1.7,5.6c1.1,1.7,2.7,2.8,4.8,3.2c5.2,0.2,8.6-2.6,10.1-8.4c0.6-1.4,0.9-2.8,1-4.1
		c0-0.5,0-1.3-0.1-2.4c-0.1-1.1-1.2-2.1-3.2-3.1c-1.6-0.9-2.9-1.4-3.9-1.4c-1,0-2.3,0.3-3.9,0.9c-1.1,0.4-2.1,0.5-2.9,0.5
		c-1.8-0.1-4.9-2.3-9.1-6.6c-2.2-2-3.3-3.1-3.4-3.1c-0.9-0.7-1.6-1.3-2.2-1.9C433.7,1571.4,453.9,1580.2,472.5,1591.5z
		 M427.7,2004.2c-2.2,0-4.5-0.1-6.8-0.3c6.8-1.9,13.6-4.1,20.2-6.6c2.1-0.8,4.2-1.6,6.2-2.5c0.7,0.2,1.5,0.4,2.3,0.7
		C442.5,1998.7,435.2,2001.7,427.7,2004.2z M467.3,1985.4c5.9-3.1,11.7-6.5,17.3-10.2c-5.4,3.8-10.9,7.3-16.5,10.6
		C467.8,1985.7,467.6,1985.5,467.3,1985.4z M239.3,1986.5c-0.1-0.2-0.1-0.4-0.2-0.6c-0.1-2.3-0.2-4.3-0.4-6.1c8.4,5,17,9.4,26,13.3
		c0.4,0.5,0.7,1,1.1,1.5l1.5,2.5c0.5,1,0.5,1.7,0,1.9c-0.4,0.2-1.1,0.2-2,0.1C256.3,1995.5,247.6,1991.3,239.3,1986.5z
		 M138.1,1867.7c3.5,2.9,5.8,6.2,7,9.8c0.7,2.1,0.6,4.1-0.3,6.1C142.4,1878.5,140.1,1873.1,138.1,1867.7z M130.8,1844.8
		c0.9,0.7,2.1,1.8,3.5,3.2c1.9,6.2,4.1,12.3,6.5,18.2c-0.9-0.7-2-1.3-3.2-2c-0.4-0.3-0.8-0.6-1.2-0.8
		C134.4,1857.3,132.5,1851.1,130.8,1844.8z M142.8,1858.5c1.7,2.5,2.7,4.4,3.2,5.8c0.4,1.2,0.7,2.6,0.9,4.2
		C145.4,1865.3,144,1861.9,142.8,1858.5z M142.9,1851.9c-0.5-0.3-1.5-1.2-3.1-2.8c-0.1-0.2-0.3-0.3-0.5-0.5
		c-1.4-4.2-2.6-8.5-3.7-12.8c1.8,3.6,3.9,7.8,6.1,12.5c0.5,1.2,0.9,2,1.1,2.6C143,1851.5,143,1851.8,142.9,1851.9z M123.8,1779.5
		c0,6.5,0.3,13.1,0.9,19.6c0.3,3.2,0.7,6.4,1.1,9.6c-0.5-1-1-1.9-1.4-2.9C123.6,1797,123.5,1788.2,123.8,1779.5z M126.1,1820.2
		c0.5,0.5,1.1,1.3,1.8,2.2c1.2,6.4,2.7,12.7,4.5,19c-0.2-0.3-0.4-0.7-0.6-1c-0.8-1.6-1.8-3-3.1-4.3c-1.2-5.3-2.1-10.7-2.9-16.1
		C126,1820,126.1,1820.1,126.1,1820.2z M149.7,1885.6c4.1,8.1,8.8,15.9,13.8,23.5c0.6,3.6,1.5,7.5,2.7,11.5
		c-7.1-9.9-13.3-20.3-18.8-31.2C148.2,1888.4,149,1887.2,149.7,1885.6z M181,1931.9C181,1931.9,181,1931.8,181,1931.9
		c4.1,4.6,8.4,9.2,12.9,13.6c0.3,3.1,0.8,5.6,1.3,7.6c0.1,0.3,0.2,0.6,0.2,0.9c-4.5-4.3-8.8-8.7-13-13.3
		C181.6,1937.9,181.1,1935,181,1931.9z M202.5,1960.4c0.1-2.3,0.1-4.7-0.1-7c6.4,5.7,13.2,11.1,20.2,16c0.3,0.7,0.6,1.3,1,2
		c0.5,1,1.2,2.2,2.1,3.6c0.8,1.2,1.7,2.9,2.8,5C219.4,1974.1,210.7,1967.6,202.5,1960.4z M300.2,2005.4c-0.1,0.4-0.4,0.7-0.8,0.9
		c-1.6,0.8-6.9,0.1-15.8-2.3c-1.2-0.5-2.5-0.7-3.7-0.9c-2.1-0.2-3.4-0.9-3.9-1.9c-0.4-0.8-0.7-1.8-0.8-3.2c0-0.2-0.1-0.4-0.1-0.6
		c7.2,2.7,14.5,5.1,21.9,7.1C298,2004.8,299.1,2005.1,300.2,2005.4z M309.7,2007.6c3.8,0.8,7.6,1.5,11.4,2.1c-1.4,0-2.8,0-4.3-0.2
		C313.2,2009.6,310.9,2008.9,309.7,2007.6z M246.4,1578.9c-7.1,3.6-14,7.6-20.6,11.9c6.6-4.7,13.5-9,20.6-13c0,0.1-0.1,0.2-0.1,0.3
		C246.3,1578.5,246.3,1578.7,246.4,1578.9z M326.8,2015.3c-5.1-0.6-10.2-1.4-15.3-2.3c1.3,0,2.7,0,4.1,0.1c4.3,0.6,8.8,0.1,13.6-1.5
		c0.4-0.2,0.8-0.4,1.1-0.6c23.1,2.7,46.7,1.9,69.6-2.2c3.8,0.3,7.7,0.1,11.9-0.7c1.5-0.2,3.1-0.3,4.8-0.3
		C387.6,2016.1,356.9,2018.7,326.8,2015.3z M461.2,2000c-2.3,1.2-7.1,2-14.5,2.6l-2.4,0.3c4.3-1.8,8.6-3.8,12.8-5.9
		c0.6,0.1,1.1,0.2,1.7,0.3c2.1,0.4,3.2,0.9,3.5,1.5C462.5,1999.1,462.1,1999.5,461.2,2000z M506,1972.9
		c-7.6,6.5-15.8,12.4-24.5,17.6c-1.7,0.9-3,1.2-3.9,1.1c-0.9-0.2-1.9-0.7-3.1-1.6c-0.6-0.5-1.2-0.9-1.9-1.4
		c7.9-4.7,15.6-9.9,22.9-15.6c3-0.6,5.7-1.3,7.9-2c3.4-0.8,5.1-1.1,5.3-0.8C508.9,1970.5,508,1971.4,506,1972.9z M533.9,1938.7
		c-4.7,9.1-8.2,14.2-10.5,15.3c-1.1,0.6-3.3,0.7-6.7,0.5c7-6.8,13.6-14.1,19.7-21.8C535.5,1935.3,534.7,1937.3,533.9,1938.7z
		 M577.2,1883.5c-0.1,0.3-0.2,0.7-0.5,1.3c-1.9,3.2-4.7,6.6-8.3,10.1c-7.4,7-11.7,10.8-13,11.2c-0.2,0.1-0.5,0.1-0.9,0.1
		c2.1-3.6,4.1-7.2,6-10.8c2-3.4,3.8-6.9,5.6-10.4c2.6-0.4,5.2-0.9,8-1.6c1.2-0.5,2.1-0.7,2.7-0.6
		C577.2,1882.8,577.3,1883,577.2,1883.5z M594.3,1849c-1.6,4.8-4.3,10.7-8.1,17.8l-1,2.5c-0.8,2.6-2.1,4.7-3.9,6.4
		c-1.8,1.3-6,2.9-12.8,4.8c2.1-4.4,4.1-8.9,6-13.4c1.9-1.2,3.2-3.7,3.9-7.4c0.3-1.4,1.1-2.5,2.5-3.3c3.6-2.2,6.7-4.4,9.2-6.6
		c2.5-2.2,4-3.2,4.5-3.2C594.6,1846.7,594.6,1847.5,594.3,1849z M597.1,1790.8c0.2,0.1,0.4,0.9,0.8,2.4c2.2,11.5,2.5,23.1,0.9,34.8
		c-0.6,3.1-1.1,5.2-1.4,6.4c-0.4,1.2-1.9,3.4-4.5,6.7c-2.7,3.6-5.9,6.8-9.8,9.4c-0.5,0.3-1,0.6-1.3,0.9c-0.8,0.6-1.5,1-2.1,1.3
		c5.2-15.5,8.8-31.5,10.6-47.8c1.9-3.1,3.5-6.3,4.8-9.7C595.8,1792.1,596.4,1790.6,597.1,1790.8z M592.4,1773.4
		c1.7,4.4,2.4,7.4,2.1,9.1l-1.2,4.3c-0.6,2.3-1.2,4.5-1.9,6.5c0.4-5.7,0.5-11.4,0.5-17.1c0-1.4,0-2.8-0.1-4.2
		C592,1772.5,592.2,1772.9,592.4,1773.4z M516.1,1612.4c-2.7-0.6-5-1.3-6.8-2.2c-2.6-1.4-6.9-4.5-12.8-9.3c-3.3-2.5-5.2-4-5.5-4.7
		c-0.1-0.1-0.1-0.2-0.2-0.4c0-0.2,0.1-0.3,0.4-0.4l5.8,0.9C503.7,1601.3,510,1606.7,516.1,1612.4z M484.3,1587.1c-0.2,0-0.5,0-0.7,0
		c-4.3,0.1-9-1.4-14.2-4.4c-3.1-2.2-6.8-3.7-11.1-4.4c-9-4.6-18.4-8.6-28-11.9c-4.5-1.6-9.1-3-13.6-4.3c1.8-0.3,2.9-0.4,3.5-0.4
		c0.6,0,1.3,0.3,2.2,0.7c0.8,0.4,2.1,0.7,3.9,0.8c2.3-0.2,3.9-1,4.8-2.2C449.8,1567.4,467.7,1576.2,484.3,1587.1z M418,1557
		c-0.7,0.4-1.4,0.6-2.2,0.8c-1.3,0.2-4.4,0.3-9.2,0c-2.8-0.1-5.5-0.8-8.4-2.1c-3.8-1.9-7.4-3.5-10.8-4.8c4.5,0.6,9,1.3,13.4,2.1
		C406.6,1554.2,412.3,1555.5,418,1557z M292.7,1553.3c9.6-3.3,19.5-5.4,29.6-6.1c-10.5,1.6-20.9,3.9-31.1,6.9
		c-0.2,0.1-0.4,0.1-0.6,0.2C291,1554,291.7,1553.7,292.7,1553.3z M163.1,1635.8c1.5-2,5.5-4.9,11.9-8.7l5.5-3.7c1.4-1,3-2,4.6-2.9
		c-3.4,3.7-6.7,7.5-9.8,11.4c-1,1.2-1.9,2.4-2.8,3.6c-1.9,0.5-3.9,1-6,1.7c-2,0.5-3.3,0.6-3.8,0.2
		C162.4,1637.2,162.5,1636.6,163.1,1635.8z M134.8,1679.9c4-9.2,8.7-18.1,14.2-26.6c1.2-1.6,2.2-2.5,3.1-2.7c0.9-0.2,2-0.2,3.5,0.1
		c1.5,0.4,3.4,0.6,5.6,0.8c-4,6.2-7.7,12.5-11.1,19c-0.1,0.2-0.2,0.4-0.3,0.5c-5,3.5-8.9,6.7-11.9,9.5c-2.7,2.2-4.1,3.2-4.4,3
		C133.3,1683.3,133.7,1682.1,134.8,1679.9z M124.8,1722.9c0.2-10.2,1.1-16.3,2.7-18.4c0.8-1.1,3-2.3,6.6-3.7
		c0.6-0.2,1.1-0.5,1.7-0.7c-4.1,10.3-7.6,20.8-10.2,31.6C125,1727.8,124.7,1724.9,124.8,1722.9z M113.5,1766.2
		c0.2-0.6,0.9-1.2,2.1-1.9c2.1-1.2,3.7-2.4,4.7-3.7c-0.4,3.7-0.8,7.3-1,11c-0.1,2.2-0.2,4.5-0.3,6.7c-0.1,0.3-0.3,0.6-0.4,1
		c-0.1,0.4-0.3,1.3-0.8,2.8c-0.5,1.5-0.9,2.3-1.4,2.5c-0.5,0.1-0.9-0.4-1.3-1.7c-0.6-1.9-1.1-5.8-1.5-11.7
		C113.4,1768.5,113.4,1766.9,113.5,1766.2z"/>
	<path id="XMLID_3_" d="M139.2,811.8c0,7.4-1.3,11.1-3.9,11.1c-3,0-4.4-2.2-4.4-6.7c0-3.2-0.6-5.4-1.8-6.6
		c-1.2-1.2-4.9-1.8-11.2-1.8c-8.8,0-14.8,0.2-18.1,0.7v111.8c6.1,1,9.2,2.6,9.2,4.8c0,2.7-1.3,4.3-3.9,4.6
		c-4.6,0.6-14.3,0.9-29.4,0.9c-3,0-5.5-0.1-7.7-0.2c-2.2-0.1-3.2-1.3-3.2-3.4c0-2.3,0.9-3.6,2.6-4c1.8-0.4,4-0.8,6.6-1.3
		c0.6-26.8,0.9-64.6,0.9-113.1l-18.9-0.7c-3.6,0-6.3,0.5-8,1.5c-1.7,1-2.6,3.6-2.6,7.7c0,4.6-1.4,6.8-4.1,6.8
		c-2.6,0-3.9-2.4-3.9-7.2c0-3.4,0.2-6.7,0.6-10c0.4-3.2,1.3-5.2,2.8-6c1.5-0.7,3.4-1.1,5.6-1.1c8.8,0,17.2-0.1,25.3-0.2
		c8.1-0.1,16-0.2,23.7-0.2c10.6,0,22.8,0.2,36.5,0.7C136.7,800.1,139.2,804,139.2,811.8z M252.7,817.9
		c10.2,11.8,15.4,26.8,15.4,44.9c0,20.9-6.6,38.5-19.8,52.6c-10.9,11.6-25.8,17.4-44.5,17.4c-19,0-34.2-6.4-45.6-19.1
		c-11.4-12.7-17.1-28.6-17.1-47.4c0-19.7,5.5-36.2,16.6-49.6c11-13.4,26-20.1,44.9-20.1C223.5,796.6,240.3,803.7,252.7,817.9z
		 M244,865c0-13.2-3.3-26.1-9.9-38.7c-6.9-13.3-16.9-20-29.9-20c-10.5,0-19.2,5.9-26.3,17.7c-7.9,13.4-11.8,28-11.8,43.9
		c0,14.1,3.4,26.9,10.2,38.4c6.8,11.5,15.8,17.2,26.8,17.2c12.6,0,22.4-5.1,29.2-15.2C240.1,896.9,244,882.4,244,865z M435.9,817.9
		c10.2,11.8,15.4,26.8,15.4,44.9c0,20.9-6.6,38.5-19.8,52.6c-10.9,11.6-25.8,17.4-44.5,17.4c-19,0-34.2-6.4-45.6-19.1
		c-11.4-12.7-17.1-28.6-17.1-47.4c0-19.7,5.5-36.2,16.6-49.6c11-13.4,26-20.1,44.9-20.1C406.8,796.6,423.5,803.7,435.9,817.9z
		 M427.2,865c0-13.2-3.3-26.1-9.9-38.7c-6.9-13.3-16.9-20-29.9-20c-10.5,0-19.2,5.9-26.3,17.7c-7.9,13.4-11.8,28-11.8,43.9
		c0,14.1,3.4,26.9,10.2,38.4c6.8,11.5,15.8,17.2,26.8,17.2c12.6,0,22.4-5.1,29.2-15.2C423.4,896.9,427.2,882.4,427.2,865z
		 M569.6,800.7c-1.6-0.7-5.2-1-10.8-1c-7.3,0.1-11.9,0.7-14,1.7c-1.3,0.7-1.9,1.8-1.9,3.2c0,1.6,0.5,2.7,1.6,3.3
		c1.1,0.6,3.6,1.2,7.6,1.6c0.2,20.7,0.3,37.7,0.3,51c0,21.8-3.1,37.6-9.3,47.3c-6.2,9.7-13.4,14.5-21.6,14.5
		c-6.6,0-12.8-4-18.6-11.9c-5.8-8-8.9-19.9-9.2-35.7c-0.3-15.8-0.5-29.4-0.5-40.6l0.2-25.3c4.4-0.6,6.9-1.4,7.5-2.4
		c0.6-1,0.9-1.9,0.9-2.6c0-2.8-2.6-4.3-7.7-4.3l-21.5-0.2c-4.4,0-7.7,0-9.9,0.1c-2.2,0.1-3.5,0.6-4.1,1.5c-0.6,1-0.9,1.7-0.9,2.3
		c0,0.8,0.3,1.6,1,2.4c1.1,1.4,3.7,2,7.7,2l-0.2,11.9c0.1,18.5,0.2,34.8,0.3,48.8c0,21.2,4,37,12.1,47.5
		c8.1,10.5,21.3,15.8,39.6,15.8c13.8,0,24.5-5.3,32.1-16c7.6-10.7,11.4-28.3,11.4-52.7c0-9.2,0.2-27.1,0.7-53.8
		c3.5-0.8,6-1.4,7.3-1.8c1.4-0.4,2-1.6,2-3.7C571.9,802.4,571.1,801.4,569.6,800.7z M682.7,917.9c0,4.6-1.4,7.9-4.1,10.1
		c-2.7,2.2-6.2,3.2-10.4,3.2c-7.4,0-14-3.2-19.8-9.7c-5.8-6.5-11.4-16.4-16.9-29.9c-6,1.1-12.5,2.2-19.5,3.1
		c-0.1,3.5-0.2,7.7-0.2,12.5c0,4.9,0.2,9.5,0.7,13.8c5.5,0.3,8.2,2,8.2,4.9c0,2.6-1.1,4-3.4,4.2c-2.3,0.2-4.7,0.3-7.3,0.3
		c-2.6,0-7.4,0.1-14.6,0.2h-3.9c-4.9,0-8.2-0.2-9.9-0.6c-1.7-0.4-2.6-1.6-2.6-3.5c0-2.7,2.7-4.5,8.2-5.3l1.9-112.8
		c-2.4-0.1-4.5-0.3-6.3-0.4c-1.8-0.2-2.7-1.6-2.7-4.4c0-2.7,1.8-4.2,5.3-4.3l19.3-0.2c10.8,0,21.4,0.6,31.8,1.8
		c10.4,1.2,19.8,5.5,28.2,12.8c8.4,7.3,12.5,17.2,12.5,29.6c0,21.8-11.8,36.9-35.5,45.2c2.7,12.2,8.3,22,16.7,29.5
		c0-4.5,1.2-8,3.5-10.3c2.3-2.3,5.4-3.5,9.1-3.5c3.2,0,5.9,1.3,8.2,3.8C681.6,910.7,682.7,913.9,682.7,917.9z M651.3,847.1
		c0-8-2-15.2-5.9-21.7c-3.9-6.5-8.4-11.1-13.4-14c-5-2.8-9.8-4.3-14.5-4.3c-1.6,0-2.9,0.3-3.9,0.9c-1,0.6-1.6,1.9-1.7,3.9l-0.2,73.2
		c9.6-0.3,17.3-2.5,23.4-6.5C645.9,871.6,651.3,861.1,651.3,847.1z"/>
	<path id="XMLID_2_" d="M309.5,3430.6c0,5.3-4.3,8-13,8c-0.8,0.3-3,1.6-6.6,3.9c-6.9,5.1-12.1,9.7-15.8,13.6h-9
		c2.9-7.3,4.4-12.1,4.4-14.4c0-5.6-2.1-13.1-6.2-22.7c-5.3-12.7-9.7-19.3-13.2-19.8c-0.9,0.1-1.9,0.5-3.1,1.2
		c-1.2,0.6-2.3,1.1-3.4,1.3c-1.1,0.2-1.9,0.3-2.4,0.3c-1.4,0-3.1-0.4-5-1.2c-4.7-2.2-7.1-4.5-7.3-6.8c-0.2-2.3-0.3-3.6-0.3-3.9
		c0-3.9,1.5-7,4.5-9.3c1.4-1.2,3.1-1.7,5-1.7c5,0,9.7,2.3,14,7c1.8,1.9,2.7,4.7,2.7,8.3l-0.2,1.4c0.1,0.4,0.7,1.4,1.7,2.9
		c2.6,2.6,5.6,6.7,8.9,12.4c1.7,3.8,3.8,9.1,6.2,16.1c0.5,1.4,0.8,2.1,1,2.1c0.8-2.3,1.2-5.4,1.2-9.1l-0.2-2.3l0.4-6.6
		c0-4.5-0.9-10.3-2.7-17.3c-1.4-6.9-3.7-14.2-6.8-22.1l-2.3-6.6c-3.8-13.3-10.7-23.9-21-31.8c-5.8-4.4-9.8-6.6-11.8-6.6
		c-0.8,0.4-1.3,0.7-1.6,1c-1.2,0.8-2.5,1.2-4.1,1.4c-3.9,0-6.6-1.4-8.2-4.1c-1.2-1.9-1.7-4.1-1.7-6.4c0-4.9,1.9-8.4,5.8-10.5
		c1.2-0.4,2.3-0.6,3.5-0.6c2.1,0,4.1,0.6,6.2,1.9c3.2,2.1,4.9,5,4.9,8.7l-0.6,4.5c0.1,0.5,1.4,1.4,3.7,2.5c6.3,3.9,11.6,9,15.7,15.3
		c1,1.6,1.8,2.3,2.3,2.3c0.1,0,0.2-0.5,0.2-1.4c0-0.6-0.1-1.7-0.4-3.3c-0.4-0.4-1.6-8.4-3.7-24.1c-0.6-4.7-1-9.2-1-13.6
		c0-4.1,0.1-8.3,0.4-12.6c-0.8-9.1-3.9-17.3-9.3-24.6c-1.2-1.6-2.3-2.3-3.3-2.3c-0.9,0-1.9,0.4-3.1,1.1c-1.2,0.7-2.3,1.1-3.3,1.1
		c-1.2,0-2.5-0.4-3.9-1.2c-3.6-2.2-5.4-5.3-5.4-9.3c0-1.8,0.5-3.5,1.6-5c1.3-2.3,3.6-3.6,7-3.7c6.1,0.3,9.9,4.4,11.5,12.4
		c0.3,0.9,1,2.2,2.1,3.9c1.8,1.8,3.5,4.5,5.1,8.2c1.6,3.6,2.7,5.4,3.4,5.4c0.6,0,1.6-2.1,2.7-6.4c3.6-11.5,7.2-18.8,10.7-21.9
		c2.5-2.5,3.9-5.4,4.5-8.9c1.2-4.8,2.7-7.3,4.8-7.7c2-0.3,3.6-0.5,4.8-0.5c7.6,0,11.5,2.1,11.5,6.2c0,1.3-0.5,2.8-1.4,4.7
		c-1.3,2.3-3,3.9-5,4.7c-2.1,0.8-4.1,1.4-6.2,1.7c-4.8,0.5-8.7,3.4-11.6,8.7c-2.2,4.7-3.3,7.6-3.3,8.9c-5.2,13.3-7.8,23.9-7.8,31.8
		c0,1.7,0.3,2.5,1,2.5c0.6,0,1.6-0.8,2.7-2.5c1.7-1.9,2.8-3.4,3.3-4.5c2.3-2.3,4.5-4.1,6.4-5.4c3.2-1.7,4.9-4,4.9-7.1
		c0-3,1.4-5.4,4.3-7.1c1.9-1.2,3.8-1.7,5.4-1.7c1.6,0,3,0.5,4.3,1.4c2.7,1.8,4.2,3.6,4.4,5.3c0.2,1.7,0.3,2.7,0.3,2.8
		c0,3-1.6,5.6-4.9,8c-1.8,1-3.6,1.6-5.4,1.6c-1.4-0.1-2.6-0.4-3.4-0.8c-0.8-0.4-1.5-0.6-2-0.8c-0.9,0-2.1,1-3.7,3.1l-7.8,10.3
		c-5.3,7.9-8,15.5-8,22.9c0.1,1.8,0.4,3.9,0.8,6.2c0.3,0.8,0.5,1.6,0.6,2.5c1.4,8.2,4.3,19.6,8.7,34.4c2.2,7.1,3.6,10.8,4.3,11.1
		c0.3-0.3,0.7-2.1,1.4-5.4c1.7-8.2,3.8-14.4,6.2-18.8c1.2-1.8,1.7-2.8,1.7-3.1c1.3-2.1,1.9-3.8,1.9-5.2c0-1-0.3-2.4-1-4
		c-0.6-1.6-1-3.1-1-4.6c0-3.2,1.8-5.8,5.4-7.6c2.2-0.9,4.1-1.4,5.8-1.4c2.6,0,4.7,0.8,6.2,2.4c1.6,1.6,2.3,3.3,2.3,5.1
		c0,4.9-3,8.5-9.1,10.9c-4.5,1.2-8.5,7.9-11.8,20.2c-0.6,2.6-1.1,4.7-1.4,6.2c-0.5,6.1-1.2,10.8-2.1,14.2c-0.5,2.1-0.8,4.4-0.8,7
		c0,2.1,0.5,4.8,1.4,8.2c1.6,6.2,2.3,11.6,2.3,16.1c0,7-1,13.7-2.9,20c-0.8,3.8-1.2,6.1-1.2,7c0,1.2,0.3,1.7,0.8,1.7
		c1.2,0,3.9-2.2,8.3-6.6c1.9-1.2,3.5-2.3,4.7-3.4c1.2-1.1,1.7-2.7,1.7-4.7c0-2,0.2-3.8,0.7-5.5c0.5-1.7,1.7-3.1,3.8-4.3
		c1.3-0.8,3-1.2,5-1.2c2.5,0.3,4.5,1.5,6,3.6C308.7,3426.2,309.5,3428.4,309.5,3430.6z"/>
	<path id="XMLID_32_" d="M29.6,3299.3c1,0.5,1.8,1.1,2.5,1.6c5,2.9,10.1,5.1,15.4,6.8c9.3,2.7,16.4,4.1,21.2,4
		c1.4,0,6.6-0.3,15.8-0.9c1.8,0,3.3,0.3,4.4,0.8c1.1,0.5,2.5,1.9,4.2,4.1c4.7,4.7,7.6,10.3,8.6,17c0.4,3.7,0.7,7.5,0.7,11.2
		l-0.3,15.4c0.1,12.5-0.8,25.1-2.7,37.8c-3.2-6.1-6.6-10.9-10.1-14.5c-3.5-3.6-8.1-7.2-14-10.7l-19.6-12.8
		c-12.8-7.5-23-14.3-30.7-20.4c-4.7-4.3-8.4-6.4-11-6.4c-1.4,0-2.1,1.3-2.3,3.8c0,3.2,1.5,9.9,4.5,20.1c1.6,5.4,2.9,9.5,4,12.2
		c2.3,6.6,5.7,12.7,10.3,18.2c3.9,4.4,7.9,8.6,12.1,12.6c5.3,4.7,11.8,8.7,19.6,12.1c7.8,3.4,15.2,5.2,22.3,5.5l6.6-0.5
		c1,0,2.1,0.1,3.5,0.2c1.4,0.1,2.5,1,3.3,2.5c0.3,1,0.4,3.6,0.5,7.9c0.1,14.8,0,24.4-0.2,28.9h9.1c0.1-0.8,0.3-1.7,0.4-2.6
		c0-4.2,0.3-6.6,1.1-7.5c0.8-0.8,2-1.3,3.8-1.3c2.6,0.3,5.2,0.4,7.7,0.4c7.9,0,16.8-2.8,26.8-8.3c8.8-5,15.8-10.9,20.9-17.6
		c6.7-8.9,12.5-20.8,17.4-35.6c2.3-7.4,3.5-13.3,3.4-17.9c0-5.4-1.8-8.1-5.5-8.1c-2.2,0-5.3,0.9-9.3,2.8
		c-6.8,2.9-13.9,7.1-21.5,12.4c-6.3,5-12.7,11.4-19.2,19c-8.7,10.3-15,19.3-19.2,26.9c-1.8,3.9-3.7,7.1-5.8,9.6
		c-0.7-1.8-1.1-5.1-1.1-10c-0.1-9,0.6-21.3,2.1-37c0.1-2.9,0.3-4.8,0.4-5.7c0.1-0.9,0.7-1.4,1.7-1.4c0.4,0,0.9,0.1,1.5,0.2
		c0.6,0.1,1.5,0.2,2.7,0.2c10.5-0.1,19.3-3.8,26.3-11.2c3.6-3.8,5.9-7.1,7.1-10c1.2-2.9,2.1-6.8,2.9-11.7c0-0.6,0.1-1.1,0.4-1.7
		c0.4-1.5,0.6-3.1,0.6-4.6c0-1.4-0.9-2.1-2.7-2.3c-4.6,0.2-9.7,1.7-15.2,4.7c-5.6,2.9-10.1,5.9-13.6,9c-2.1,1.8-4.1,4.1-6,6.8
		c-1.9,2.7-3.6,4.6-5,5.7c-0.7-1.2-1.1-5-1.1-11.2c-0.1-9,0.1-13.9,0.5-14.8c-0.1-13,3.3-19.5,10.3-19.6c1.4,0,3.3,0.3,5.6,0.8
		c5.7,1.3,11,2,15.8,2c1.9,0,5-0.2,9.1-0.6c4.2-0.4,10.6-3.6,19.5-9.6c10.2-5.6,17.9-11.5,23.2-17.8c3.6-5.1,5.3-10.8,5.3-16.9
		c0-4.7-1.8-8.4-5.5-11.2c-1.1-0.7-2.3-1-3.5-1c-2.5,0-6.1,1.5-10.8,4.4c-5.4,3.4-11,8.2-16.9,14.6c-5.1,5.7-10.3,10.2-15.7,13.6
		c-2.1,1-3.5,1.5-4.1,1.5c-0.4,0-0.6-0.1-0.6-0.4c0-0.7,0.6-1.9,1.8-3.8c8-10.4,14-21.5,18.1-33.1c1.6-4.6,2.6-11.5,2.8-20.8
		c0-3.6-1.1-7.3-3.2-11c-2.5-4.3-5.6-6.4-9.4-6.4c-2.6,0-5.1,1.4-7.5,4.2c-5.8,6.7-10.1,14.2-13,22.5c-7.6,20-12.1,30-13.5,30
		c-0.8,0-1.3-1.2-1.3-3.7c0-5.3,0.6-10.5,1.8-15.6c1.3-6.7,2.1-11.8,2.4-15.4c0.1-2.4,0.4-4.8,0.8-7.3c0.5-4,0.8-7.8,0.8-11.2
		c-0.2-5.4-2.1-10.2-5.7-14.5c-2.9-3.2-6.3-4.7-10.2-4.7c-7.8,0-12.4,4.9-14,14.6c-1.1,6.2-1.6,12.3-1.6,18.3l0.5,13.1
		c0.9,12,1.4,19.7,1.4,22.8c0,5.4-0.4,8.1-1.4,8.1c-1.8,0-6.1-7.2-13-21.5c-3.9-7.7-6.7-14.1-8.4-19.1
		c-4.7-14.8-10.5-22.2-17.6-22.1c-3.7,0-6.8,2.3-9.3,6.7c-1,2.4-1.4,4.8-1.4,7.3c0.1,17.2,5.9,33.1,17.3,47.7
		c2.1,2.8,4.9,5.4,8.4,7.8c1.7,1.1,3.5,2.5,5.6,4.3c-3.9-0.3-9.1-2.8-15.7-7.6c-6.6-4.8-11.6-9.4-14.9-13.8
		c-7.8-9.9-14.6-14.9-20.4-14.8c-1,0-2.7,0.4-5.3,1.3c-2.6,0.8-4.4,4.9-5.4,12.3c0,7.1,1.8,13.3,5.2,18.6
		C19.6,3291.9,24.1,3296.2,29.6,3299.3z M88.9,3410.7c-3.6,0-7.6-0.6-11.9-2c-15.8-4.3-29.3-13.6-40.5-27.8c-2.6-3.2-5-7.2-7.1-12.2
		c-5.2-12.4-7.8-19.9-7.8-22.4c0-1.1,0.4-1.7,1.2-1.7c1.2,0,3.5,1.3,6.7,3.9c7,5.2,13.8,10,20.7,14.2c31,18.8,46.5,33.3,46.6,43.6
		C96.8,3409.2,94.1,3410.7,88.9,3410.7z M122.5,3422.2c5.1-8.8,12.4-18.8,21.7-30c6.6-8.1,12.7-14.1,18.4-18.2
		c8.6-6.1,14.3-9.2,17.2-9.2l0.4,0l0.2,2.3c0,3-0.9,7-2.6,11.9c-4.1,10.8-8.6,20-13.5,27.5c-6.6,9.9-15.3,17.6-26.2,23.2
		c-9.8,5.2-17,7.8-21.6,7.8c-1.1,0-1.7-0.3-1.7-1C114.8,3435.7,117.4,3430.9,122.5,3422.2z M121.2,3357.4c2.6-3.5,5.7-6.5,9.3-9.2
		c6.6-5.2,11.2-7.8,13.7-7.8c0.8,0,1.2,0.4,1.3,1.2c0,1.7-1,4.4-3.1,8.3c-2.5,4.6-6.9,9-13.2,13.4c-4.6,3.1-8.7,4.6-12.4,4.6
		l-2.1-0.2C115,3365.8,117.2,3362.4,121.2,3357.4z M168.5,3281.2c7.2-7.4,12.5-11.1,15.9-11.1c1.7,0,3.1,1,4.2,3.1
		c0.6,1.5,0.8,3,0.9,4.4c0,3-1.5,6.2-4.5,9.6c-3,3.3-6.3,6.1-9.9,8.4c-13.1,9.2-24.4,13.9-34,13.9c-5,0-10.5-0.6-16.6-2
		c-3.1-1-4.6-1.8-4.6-2.5c0-1.7,2.8-2.5,8.5-2.5l2.5,0.2C143.3,3302.6,155.8,3295.5,168.5,3281.2z M119.3,3289.9
		c3.8-5.4,7-10.4,9.5-15c2.9-5.4,6.1-13.2,9.6-23.3c2.3-8.7,6.4-16.7,12.3-23.8c1.2-1.3,2.3-1.9,3.3-1.9c0.4,0,1,0.4,1.9,1.3
		c0.8,0.9,1.6,4.5,2.1,10.7c0.1,10.2-5.1,23.9-15.3,40.8c-4.4,7.6-10.7,12.9-18.8,15.7c-2.3,0.7-4.1,1.1-5.2,1.1
		c-1.1,0-1.7-0.3-1.7-1C117.1,3293.5,117.8,3291.9,119.3,3289.9z M102.9,3214.3c1.1-2.8,2.6-4.4,4.5-4.8c2.2,0,4.1,0.9,5.6,2.7
		c2,3.4,3,7.8,3,13.1c0.1,10.4-1.5,20.2-4.8,29.5c-1.5,5-2.2,9.8-2.2,14.6c-0.2,6.5-1,11.8-2.4,16c-1,2.8-1.8,4.2-2.7,4.2
		c-1.4,0-2.2-4.4-2.4-13.3c-0.9-11.4-1.5-22.6-1.9-33.9C99.6,3230.9,100.7,3221.5,102.9,3214.3z M96.3,3299.8
		c1.5-1.3,3.3-1.9,5.4-1.9c0.8,0,2.1,0.1,3.9,0.4c1.8,0.3,3.3,1.7,4.6,4.3c0.3,1.2,0.4,2.4,0.4,3.5c0,1.9-0.6,3.6-1.9,4.9
		c-1.3,1.3-2.9,2-4.9,2c-0.4,0-1.4-0.1-3-0.2c-1.6-0.1-3.2-1.6-4.9-4.5c-0.8-1.8-1.3-3.4-1.3-4.8
		C94.7,3301.8,95.2,3300.6,96.3,3299.8z M52.6,3250.4c-1.8-6.8-2.8-12.5-2.8-17.2c0-3.9,0.6-6.9,1.8-8.9c1-1.1,1.9-1.7,2.7-1.7
		c1.8,0,3.8,2.5,5.9,7.4c1.4,3.7,2.1,5.8,2.1,6.2c5.4,14.8,12.7,29.3,22.1,43.5c4.1,5.7,6.5,10,7.4,13c-0.3,0.8-0.8,1.3-1.7,1.3
		c-1.7-0.1-3.5-0.9-5.6-2.3C67.7,3281.3,57.1,3267.5,52.6,3250.4z M21.7,3260.1c2.4,0,6.5,3.8,12.5,11.6c7.9,9,14.7,14.9,20.3,17.7
		c5.6,2.9,12.2,5.4,19.8,7.6c8.6,2.6,12.9,4.6,12.9,6.2c0,0.4-0.3,1-1,1.7c-3.9,1.8-8.9,2.8-15.1,2.8l-1.9,0
		c-9.7-1.2-19.8-5-30.2-11.6c-10.4-6.5-17.2-14.5-20.3-24.1c-0.3-1.7-0.4-3.5-0.4-5.4C18.2,3262.3,19.3,3260.1,21.7,3260.1z"/>
	<path id="XMLID_69_" d="M706,3339.8c-2.8-2.4-6.6-3.6-11.5-3.6c-7.2,0.6-12.4,4.4-15.7,11.3l-2.5,5.7c-1.6,5-3,7.6-4,7.6
		c-1,0-2.1-1.9-3.4-5.7c-1.6-3.6-3.2-6.9-4.7-9.6c-8.2-16.4-12.3-29.3-12.3-38.7c0-6.7,0.8-10.1,2.3-10.4c0.6,0,1.5,0.6,2.7,1.8
		c1.2,1.2,3,2.4,5.3,3.7c2.3,1.3,5.4,2,9.2,2.1c9.4-1.1,14.2-6.9,14.2-17.2c-0.4-5.3-1.1-8.6-2.3-10c-0.3-0.5-0.4-0.9-0.4-1.1
		c0-0.6,0.8-1.3,2.5-2.1c11.1-5.5,16.6-12.1,16.6-19.8c0-1.5-0.2-3.1-0.6-4.7c-1.9-5.2-4.2-7.9-7-8.1c-2.8-0.3-4.5-0.4-5.3-0.4
		c-3.8,0-7.4,0.7-10.9,2.1c-1.4,0.4-2.4,0.6-3,0.6c-0.8,0-1.1-0.5-1.1-1.5c0-0.4,0.1-1,0.2-1.9c0.1-0.9,0.2-2.1,0.2-3.6
		c0-7.4-1.9-12.5-5.8-15.2c-3.8-2.7-7.3-4.1-10.5-4.1c-8.9,0-14.8,6.3-17.7,18.9c-0.3,1.5-0.5,2.3-0.8,2.5c-1,0-2.1-0.3-3.2-0.9
		c-3.8-1.9-7.4-2.8-10.9-2.8c-2.6,0-5.3,0.9-7.9,2.6c-3.9,3.1-5.9,7.6-5.9,13.2c0,4.7,1.5,9.2,4.5,13.6c1.1,1.6,1.7,2.8,1.7,3.6
		c-0.3,1.8-0.7,3.5-1.4,5.1c-0.7,1.6-1.1,3-1.2,4.1c-0.1,1.1-0.2,1.8-0.2,2.2c0,1.6,0.5,3.6,1.5,5.9c3.6,7.7,10.1,11.5,19.3,11.5
		l8.7-0.8c0.5,0.1,0.8,0.9,0.8,2.3c-0.3,2.9-0.4,5.9-0.4,8.9c0,8.8,1.9,18.1,5.9,27.9c1.3,3.4,1.9,5.7,1.9,6.8
		c0,0.5-0.2,0.8-0.6,0.8c-0.6,0-1.9-0.8-3.8-2.5c-10.2-8.2-19.2-12.3-27-12.3c-4,0-7.5,1.8-10.4,5.5c-1.9,2.6-2.8,5.3-2.8,8.1
		c0,5.3,2.9,9.5,8.7,12.6c4.9,2.3,9.9,3.4,14.9,3.4c3.4,0,6.8-0.5,10.2-1.5c6.5-1.6,10.8-2.5,12.6-2.5c1.8,0,3.3,0.4,4.5,1.1
		c1.1,1.4,3.1,6.5,6,15.5c1.6,6,2.8,9.8,3.4,11.3c3.8,12.2,5.7,22.1,5.7,29.6c0,7-1.1,10.6-3.2,10.6c-2.1,0-5.3-3.6-9.4-10.8
		l-1.5-2.3c-6.3-7.7-12.1-11.5-17.6-11.5c-7.5,0.4-11.3,4.8-11.3,13.2c0,12.1,9.1,21.1,27.2,27.2c5.4,1.4,8.1,3.4,8.1,6
		c0,1.6-0.8,4-2.5,7c-1.5,2.3-2.7,4.3-3.5,6h10.5c0.1-0.1,0.1-0.2,0.2-0.3c3-6,6.2-14.9,9.4-26.6c2.4-8.4,3.6-15.9,3.6-22.5
		c-0.6-4.7-1.5-8.9-2.6-12.8c-1.4-5.5-2.1-9.1-2.1-10.6c0-3.3,2.3-6.2,7-8.9c3.8-2.5,7.9-6,12.5-10.6c6.7-6.4,10-12.1,10-17
		C709.1,3344.3,708,3341.9,706,3339.8z M680.7,3246.8c2.3-0.8,4.3-1.1,6.2-1.1c3.4,0,5.6,1.4,6.6,4.2v0.8c0,2.5-1.1,5.3-3.2,8.5
		c-3.7,5.3-7.4,7.9-11.1,7.9c-2.3,0-4-0.6-5.3-1.7c-2.3-2.4-3.4-5.1-3.4-8.1C670.6,3252.5,673.9,3249,680.7,3246.8z M671.7,3275.8
		c3,4.8,4.5,9.2,4.5,13.2c0,5.3-1.7,7.9-5.1,7.9c-0.6,0-1.4-0.2-2.3-0.6c-4.3-2.1-6.4-5.9-6.4-11.3c0-2.3,0.6-4.7,1.8-7.5
		c1.2-2.7,2.5-4.1,4.1-4.1C669.4,3273.6,670.6,3274.3,671.7,3275.8z M650.4,3229.2c1.8-4.3,4-6.4,6.8-6.4c0.8,0,1.6,0.2,2.6,0.6
		c4.4,2.3,6.6,6.9,6.6,14c0,6.5-1.8,10.1-5.5,10.8h-0.8c-1.9,0-3.8-0.4-5.7-1.3c-3.9-2-5.9-5.5-5.9-10.6
		C648.7,3234.2,649.2,3231.8,650.4,3229.2z M620,3257.5c-1.4-2.5-2.1-5-2.1-7.4c0-6.3,2.5-9.4,7.4-9.4c2,0,4.7,0.8,7.9,2.5
		c6.7,3.5,10,6.7,10,9.4c-0.8,6.8-5.2,10.2-13.2,10.2C625.4,3262.8,622.1,3261,620,3257.5z M646.2,3283.7c-3.8,4.3-7.6,6.4-11.5,6.4
		c-3.5,0-6-2.5-7.4-7.4v-0.9c0-1,0.4-3.2,1.3-6.6c0.4-2.9,1.2-4.6,2.5-5.1c0.8-0.3,3.1-0.6,7-0.9c2,0,3.7,0.4,5,1.1
		c1.3,0.8,2.9,2.2,4.6,4.3c1.3,1.4,1.9,2.6,1.9,3.6C649.6,3279.7,648.5,3281.5,646.2,3283.7z M648.3,3266c-0.9-2.1-1.3-4-1.3-5.7
		c0-1.5,0.3-3.1,0.8-4.9c1.5-2,3.2-3,5.1-3c0.8,0,1.6,0.2,2.5,0.6c2.8,1.1,4.6,2.8,5.6,5c0.9,2.2,1.4,3.9,1.4,5
		c0,1.8-0.6,3.5-1.9,5.1c-1.6,1.6-3.3,2.5-5.1,2.5C652.1,3270.5,649.8,3269,648.3,3266z"/>
	<path id="XMLID_4_" d="M593.2,3347.8c0,0.5-0.3,1.2-0.9,2.1c-3.3,3.8-7.7,9.6-13.4,17.6c-8.2,12.5-16.4,18.7-24.7,18.7
		c-1.6,0.6-4,4.3-7.2,10.9c-1.9,3.8-3.5,7.9-4.9,12.5c-2.4,7-3.6,12.1-3.6,15.3c0,2.6,0.4,5.8,1.3,9.4c0.6,2.3,1.2,3.4,1.7,3.4
		c0.1-0.1,0.3-0.7,0.6-1.7c0.8-1.8,1.3-3.3,1.7-4.5c1-3.4,3.3-6.9,7-10.6c1.8-2.3,2.6-3.8,2.6-4.7c0.3-1.3,0.8-2.1,1.5-2.6
		c1.8-1.5,3.5-2.3,5.1-2.3c2.6,0,4.3,1.4,5.1,4.2c0.3,0.6,0.4,1.3,0.4,1.9c0,1.4-0.5,2.7-1.4,3.9c-0.9,1.2-1.9,1.8-2.7,1.8
		c-0.8,0-1.6-0.2-2.5-0.6c-0.9-0.4-1.8-0.6-2.6-0.6c-1,0.1-2.1,0.9-3.2,2.5c-4.7,6.7-7,13.3-7,19.8c0,3.5,1.2,6.6,3.6,9.2
		c0.5,0.6,1,1.3,1.5,2c0.2,0.3,0.4,0.5,0.6,0.7h-10.9c-2.1-2.2-3.7-4.4-4.8-6.5c-4.9-9.8-10.1-17.8-15.5-24v-0.2l-6.2-6.8
		c-1.3-0.9-2.9-1.4-4.9-1.7c-7.4-0.8-14-6.2-19.8-16.2l-4.2-6.8c-2.8-4-4.2-6.5-4.2-7.4c0-1.1,0.3-1.8,0.9-1.9c1,0,2.5,0.8,4.5,2.5
		c1.3,1.3,4.4,3.1,9.4,5.7c2.9,1.4,5.6,3,8,4.8c2.5,1.8,4.8,4.7,7.2,8.7c2.3,4,4.4,6.6,6.3,8c1,0.8,2.5,2.1,4.3,4.2
		c2.6,4,4.7,6.4,6.2,7.2c0.1-0.3,0.2-2.4,0.2-6.4c-0.4-4.5-0.6-8.9-0.6-13.2c0-6.4-0.6-11.5-1.8-15.4c-1.2-3.8-4.6-9-10.1-15.4
		c-2.3-2.3-4.5-3.4-6.6-3.4c-0.8,0-1.6,0.1-2.5,0.4c-0.9,0.3-2,0.4-3.1,0.4s-2.5-0.4-4.2-1.1c-1.3-1.1-1.9-2.6-1.9-4.3
		c0-2.6,1.1-5,3.2-7.2c1.3-1.3,2.8-1.9,4.5-1.9c3.9,0.4,6.3,2.1,7.2,5.1c0.6,2.1,1.7,4,3.2,5.5c0.5,0.3,0.9,0.6,1.3,0.9
		c4.2,3.1,7.4,7.4,9.8,12.6c1.3,2.3,2.1,3.4,2.5,3.4c0.4,0,0.8-0.5,1.3-1.5c2.5-12.1,3.8-20,3.8-23.8c0-3.4-1.6-9.6-4.7-18.7
		c-0.9-3.1-1.7-5.5-2.5-7c-0.8-1.5-2.1-2.6-4.2-3.4c-6.9-2.8-12.2-9.3-15.9-19.6c-1.9-4.4-3-8.6-3.2-12.5c0-2.3,0.5-3.7,1.5-4.3
		c1.5,0,4.2,2,8.1,5.9l7.9,8.7c5.9,9.3,10.3,19.4,13.2,30.2c0,0.3,0.1,0.7,0.3,1.2c0.2,0.6,0.4,1.4,0.7,2.4c0.5,2.1,1.1,3.2,1.9,3.2
		c1.3,0,2.5-3.4,3.8-10.2c2-12.3,3-22,3-29.1c-0.1-3.4-2-7.9-5.7-13.4c-1.1-1.4-1.7-2.2-1.7-2.5c-1.5-2.4-3-3.6-4.3-3.6l-2.1,0.2
		c-3.8,0-6.5-1.1-8.3-3.4c-0.8-0.9-1.1-1.8-1.1-2.8c0-1.6,0.9-3.2,2.7-4.7c1.8-1.5,3.4-2.3,4.8-2.3c2,0,3.7,1.4,5.1,4.3
		c1.1,2.1,2,3.5,2.5,4.1c0.6,0.6,1.3,1.4,2.2,2.5c0.3,0.5,1.1,1.8,2.5,3.8c1.4,2,2.5,3,3.2,3s1.1-1.1,1.1-3.2
		c0-3.1-1.1-9.2-3.4-18.1c-0.8-4.2-1.4-6.6-2-7.5c-0.6-0.8-1.9-1.4-4.1-1.8c-5.2-1-8.8-2.7-10.9-5.1c-2.1-2.4-4.1-5.9-5.9-10.6
		c-1.8-3.5-3.8-6.7-6-9.4c-3.5-4.4-5.5-8-5.9-10.8c0-1.9,0.6-3.3,1.7-4.2l0.8-0.2c0.6,0,2.8,0.9,6.4,2.8c7.5,3.8,12.5,7.2,14.9,10.4
		c6.4,9.1,11.3,19.2,14.7,30.4c0.5,1.9,1.1,3.8,1.9,5.7c2.5,7.7,3.8,16.6,3.8,26.8c0,3.4,0.2,5.1,0.6,5.1c1.3-1.3,2.9-4,4.9-8.1
		c3.1-4.3,4.7-8.6,4.7-12.8l-0.2-4.5c0-5.3,2-11.6,6-18.9c0.8-1.6,1.5-3.5,2.3-5.5c3-8.6,5.3-12.8,7-12.8c1.3,0,2.4,1.3,3.4,4
		c0.8,1.6,1.1,4.5,1.1,8.7c0,4.9-0.3,8.9-0.8,11.9c-0.8,3.8-2.1,6.9-4,9.4c-0.5,0.6-1,1.4-1.5,2.3c-1.8,2.6-3.6,5.1-5.7,7.4
		c-0.8,0.8-1.4,1.5-2.1,2.3c-0.6,0.8-1.3,1.4-2.1,2.1c-0.8,0.6-1.4,1.3-1.9,2.1c-1.3,2.8-4.1,7.6-8.5,14.5c-2.4,4.5-3.6,8-3.6,10.4
		c0,3.7-1.1,10.2-3.2,19.6c-0.6,1.4-0.9,2.8-0.9,4.3c0.1,0.4,0.3,0.6,0.6,0.6c0.3,0,2.7-2.3,7.4-7c1.8-1.9,4.8-4.7,9.1-8.3
		c1.3-0.9,2.1-2.4,2.5-4.5c0.3-1.1,0.7-2,1.2-2.5c0.6-0.6,1.9-1,4.1-1.2c5.4,0,8.1,2.1,8.1,6.4c0,1.1-0.3,2.4-0.9,3.8
		c-1.4,2.6-3.2,4-5.5,4c-1.5,0-2.9-0.3-4.2-0.9c-1.3-0.6-2.4-0.9-3.4-0.9c-1.9,0.3-4.5,2.3-7.7,6.2c-4.9,5.4-8.7,10.5-11.3,15.3
		c-3,5.8-6.3,22.2-9.8,49.3c-0.3,2-0.4,3.5-0.4,4.3c0,1,0.1,1.5,0.4,1.5c0.6-0.6,1.7-2.5,3.2-5.7c1.1-2.4,2.5-4.8,4-7.2
		c2-3.5,3.3-6.7,3.8-9.4c2.1-12.7,11.9-22.8,29.3-30.2l3.6-2.3c3-2,6.4-3,10-3C592.4,3347,593.1,3347.3,593.2,3347.8z"/>
	<path id="XMLID_7_" d="M486.1,3301.8l-2.1,0.3c-7.6,2.5-17.5,4.4-29.6,5.6c-10.8,1-20.9,2.9-30.4,5.8c-1.4,0.5-2.8,1.2-4.1,2
		c-2.5,1.5-4.4,2.2-5.8,2.1c-1.8-0.1-2.7-2.2-2.5-6.5c0.1-3,2.3-5.6,6.5-8c4.2-2.4,7.4-5.3,9.7-8.7c0.9-1.4,2.1-2.9,3.6-4.5
		c2.5-2.6,6.8-5,12.8-7.3c5-2.1,9.8-4.5,14.3-7.3c8.1-5.1,14.4-15.3,18.9-30.9c0.8-2.8,1.3-5.5,1.4-8c0.2-4.1-0.5-8.1-2.1-12
		c-4.2-8.1-9.4-12.3-15.6-12.5c-3.1-0.1-6,0.4-8.6,1.6c-1.4,0.5-2.5,0.7-3.2,0.7c-1,0-1.9-1-2.9-2.9c-3.2-8.5-9.3-13.1-18.4-13.7
		c-3.8,0.1-6.8,0.7-8.8,1.8c-2,1-4,2.5-5.9,4.4c-2.8,2.6-4.8,3.8-5.9,3.8c-1.7-0.1-3.6-1.2-5.6-3.4c-3.4-3.7-8.2-5.6-14.4-5.9
		l-4-0.2c-2.4,0-5.4,1.6-8.9,4.5c-2.5,2-4.1,4.5-5,7.4c-0.3,1.3-0.9,2.5-1.6,3.8c-0.6,0.4-1.3,0.6-2.1,0.5c-0.7,0-2.2-0.5-4.6-1.5
		c-4.3-1.7-7.6-2.6-9.9-2.7c-1.6-0.1-3.1,0.1-4.7,0.4c-7.6,2-11.6,7.2-11.9,15.9c-0.5,12.9,5.2,25.8,17.1,38.7
		c3.9,4.5,7.5,7.9,10.9,9.9c3.3,2,8,4.2,14,6.4c1.9,0.9,3.5,1.6,4.6,1.9c2.8,0.8,4.9,1.9,6.2,3.1c1.4,1.3,2.7,3.9,3.9,7.9
		c2.4,4.5,5.2,7.6,8.5,9.3c2.5,1.2,4,3,4.5,5.4c0.5,2.4,0.6,5.9,0.4,10.5c-0.3,8.1-2.2,12-5.6,11.9c-2.3-0.1-5.5-1.4-9.6-3.8
		c-9.7-5.4-22.6-10.1-38.7-14.1c-9.8-3.4-16.4-5.1-19.8-5.3c-3.8-0.2-5.8,0.9-5.9,3.2c-0.1,1.4,0.7,3.5,2.2,6.3
		c1.5,2.8,3.6,5.7,6.3,8.9c2.7,3.2,4.7,5.3,6.1,6.3c8.3,5.4,15.6,9,21.9,10.7c6.3,1.7,12.2,2.8,17.7,3.3c6.1,0.4,12.3,1.6,18.8,3.5
		c2.6,1.2,3.8,6.6,3.4,16.1c-0.2,5.9-0.9,11.9-2,17.8c-0.4,3.2-0.7,6.5-0.8,9.7c-0.9,20.9-2,31.4-3.4,31.3c-0.7-0.3-1.6-2.1-2.8-5.2
		c-3.5-10.2-11.9-22-25.1-35.5c-0.9-1.5-3.1-3.7-6.5-6.9c-2.6-2.4-4.7-3.6-6.2-3.7c-4.1-0.2-6.3,4.1-6.7,12.9
		c0.1,1.4,1.4,6.4,4.1,15c2.2,8.4,5.3,15.8,9.2,21.9c3.9,6.2,11.4,12.2,22.3,18c5.8,3.1,9.1,6.5,9.8,10.2c0.2,1.2,0.4,2.5,0.4,3.9
		h8.5c0-0.1,0-0.2,0.1-0.4c0.4-2.5,1.1-4.9,2.2-7.2c1.1-2.3,3.4-4.4,6.8-6.4c5.6-2.5,10.3-5.2,14.1-8.1c2.6-1.9,5.9-5.1,10-9.8
		c4.8-7.6,8.5-15.8,11-24.6c2.2-7.6,4.7-18.4,7.5-32.6c1.7-5.7,2.5-10,2.6-12.6c0.1-1.8-0.8-2.8-2.6-2.9
		c-6.6-0.3-18.4,14.3-35.1,43.6c-8.2,16.9-13,26-14.3,27.3c-0.4-0.6-0.5-2.8-0.4-6.6c0.9-10.7,1.6-18.4,2.2-22.9
		c1.4-12.4,2.5-24.5,3.4-36.4c0.1-1.8,0.1-4.1,0-6.7c-0.1-2.6,0-7,0.2-13.1c0.2-2.4,1.2-4.4,2.8-6c2-1.3,5.4-1.9,10.1-1.7
		c5.4,0.2,10.3,0.6,14.8,1c3,0.4,5.9,0.7,8.7,0.8c5.5,0.2,11.4-0.2,17.6-1.4c6.2-1.2,12.8-6.3,19.9-15.6c0.3-0.4,0.8-1.3,1.4-2.7
		c1.5-2.8,2.3-5.1,2.4-6.9C487.8,3302.6,487.2,3301.8,486.1,3301.8z M385.9,3339.6c-3.1-0.1-6.8-0.8-11.2-1.9
		c-11.4-3-19.4-6.1-24.3-9.3c-7.2-4.5-10.7-7.9-10.6-10c0-0.6,0.5-0.8,1.5-0.8c0.8,0,5.8,1.4,14.9,4c18.6,5,29.9,9.9,33.8,14.6
		c0.4,0.7,0.6,1.3,0.6,1.7C390.6,3339.1,389.1,3339.7,385.9,3339.6z M389.1,3433.6c-1.2,1.7-2.6,2.4-4.1,2.4
		c-1.7-0.1-4.2-1.6-7.6-4.7c-3.3-3-7.1-8-11.4-15c-4.2-7-7.4-13.6-9.4-19.7c-1-3-1.5-5.4-1.4-7.3c0.1-2,0.8-3.3,2.1-4
		c1.3,0.3,3.8,2.6,7.6,6.7c3.8,4.1,7.8,9,11.9,14.7c8.7,12,13,20.3,12.8,25C389.6,3432.4,389.4,3433.1,389.1,3433.6z M415.8,3420.3
		c17.5-36,28-53.9,31.5-53.8c0.6,0,0.8,1,0.7,2.8c-0.2,5.4-2.6,14.1-7,26.3c-4,10.3-7.9,18.3-11.8,24c-1.9,2.3-4.1,4.6-6.4,7
		c-4.9,4.8-8.1,7.1-9.6,7c-1,0-1.5-0.6-1.4-1.8C411.8,3430.5,413.1,3426.7,415.8,3420.3z M391.5,3277.1c-9.2-1.1-18.6-5.9-28.3-14.3
		c-1.2-1.3-2.5-2.4-3.7-3.3c-3.8-3.6-7.2-8.4-10-14.6c-3.8-7.8-5.6-14.3-5.4-19.6c0.2-5.5,3.1-8.2,8.6-7.9c2.1,0.1,4.3,0.7,6.4,2
		c2.1,1.2,4.3,2.8,6.6,4.6c2.3,1.9,4.1,3,5.5,3.3c2.6-0.7,4.5-4.1,5.7-10c0.8-3.4,2-6.3,3.4-8.8c1.4-2.5,3.9-3.7,7.5-3.5
		c4.9,0.8,8.6,2.8,11,6c2.4,3.2,4.3,6.4,5.6,9.7c1.3,3.2,2.6,5.5,4,6.9l1.3,0.3c3.3,0.1,5.7-3.4,7.2-10.5c1.7-4.6,2.8-7.3,3.3-8.2
		c1.8-3.5,4-5.1,6.6-5c1.6,0.1,3.3,0.8,5.2,2.1c2.8,2,4.8,4.6,6.1,7.9c1.2,2.7,1.7,5.5,1.6,8.4c-0.1,1.4-0.2,2.6-0.5,3.7
		c-0.3,1.1-0.4,2-0.4,2.9c0,0.6,0.1,1.3,0.2,2.1c0.2,0.9,1.2,1.5,3,1.8c2.7-0.6,5.5-2.1,8.5-4.5c4.7-3.5,8.1-5.2,10.4-5.1
		c1.1,0,2.3,0.4,3.4,1c3.3,2.4,4.9,5.9,4.7,10.4c-0.1,3.4-0.8,6.5-1.9,9.3c-4.2,13.4-12.6,23.2-25.2,29.4
		c-9.7,4.3-20.5,6.2-32.5,5.7C406.6,3278.8,400.6,3278.2,391.5,3277.1z M408,3298.8c-0.4,0-1.4-0.2-2.9-0.4c-1.5-0.3-3.4-1.9-5.9-5
		c-1.3-1.9-2-3.2-2-3.9c0-0.7,1-1,2.8-0.9l6.1,0.5c2,0.1,3.8,0.1,5.4,0.1c1.6,0,3.1,0,4.4,0.1l4.7,0.4l0.4,0.4c0,0.8-0.7,2-2,3.5
		c-1.3,1.5-2.9,2.8-4.9,3.8C412.2,3298.4,410.1,3298.9,408,3298.8z M477.1,3313.3c-3.1,5.4-8.4,9-16,10.8
		c-5.3,0.9-13.1,1.2-23.6,0.7l-8.3-0.3c-3.8-0.3-6.8-0.8-9.1-1.6c-0.3-0.3-0.4-0.6-0.4-0.9c0.1-2.5,12-5.6,35.7-9.2
		c11.4-1.9,18.7-3,21.8-3.1c0.4,0.3,0.6,0.7,0.6,1.1C477.8,3311.5,477.6,3312.4,477.1,3313.3z"/>
	<path id="XMLID_98_" d="M410.5,25.4c0-5.3,4.3-8,13-8c0.8-0.3,3-1.6,6.6-3.9C437,8.5,442.2,3.9,445.9,0l9,0
		c-2.9,7.3-4.4,12.1-4.4,14.4c0,5.6,2.1,13.1,6.2,22.7c5.3,12.7,9.7,19.3,13.2,19.8c0.9-0.1,1.9-0.5,3.1-1.2
		c1.2-0.6,2.3-1.1,3.4-1.3c1.1-0.2,1.9-0.3,2.4-0.3c1.4,0,3.1,0.4,5,1.2c4.7,2.2,7.1,4.5,7.3,6.8c0.2,2.3,0.3,3.6,0.3,3.9
		c0,3.9-1.5,7-4.5,9.3c-1.4,1.2-3.1,1.7-5,1.7c-5,0-9.7-2.3-14-7c-1.8-1.9-2.7-4.7-2.7-8.3l0.2-1.4c-0.1-0.4-0.7-1.4-1.7-2.9
		c-2.6-2.6-5.6-6.7-8.9-12.4c-1.7-3.8-3.8-9.1-6.2-16.1c-0.5-1.4-0.8-2.1-1-2.1c-0.8,2.3-1.2,5.4-1.2,9.1l0.2,2.3l-0.4,6.6
		c0,4.5,0.9,10.3,2.7,17.3c1.4,6.9,3.7,14.2,6.8,22.1l2.3,6.6c3.8,13.3,10.7,23.9,21,31.8c5.8,4.4,9.8,6.6,11.8,6.6
		c0.8-0.4,1.3-0.7,1.6-1c1.2-0.8,2.5-1.2,4.1-1.4c3.9,0,6.6,1.4,8.2,4.1c1.2,1.9,1.7,4.1,1.7,6.4c0,4.9-1.9,8.4-5.8,10.5
		c-1.2,0.4-2.3,0.6-3.5,0.6c-2.1,0-4.1-0.6-6.2-1.9c-3.2-2.1-4.9-5-4.9-8.7l0.6-4.5c-0.1-0.5-1.4-1.4-3.7-2.5
		c-6.3-3.9-11.6-9-15.7-15.3c-1-1.6-1.8-2.3-2.3-2.3c-0.1,0-0.2,0.5-0.2,1.4c0,0.6,0.1,1.7,0.4,3.3c0.4,0.4,1.6,8.4,3.7,24.1
		c0.6,4.7,1,9.2,1,13.6c0,4.1-0.1,8.3-0.4,12.6c0.8,9.1,3.9,17.3,9.3,24.6c1.2,1.6,2.3,2.3,3.3,2.3c0.9,0,1.9-0.4,3.1-1.1
		c1.2-0.7,2.3-1.1,3.3-1.1c1.2,0,2.5,0.4,3.9,1.2c3.6,2.2,5.4,5.3,5.4,9.3c0,1.8-0.5,3.5-1.6,5c-1.3,2.3-3.6,3.6-7,3.7
		c-6.1-0.3-9.9-4.4-11.5-12.4c-0.3-0.9-1-2.2-2.1-3.9c-1.8-1.8-3.5-4.5-5.1-8.2c-1.6-3.6-2.7-5.4-3.4-5.4c-0.6,0-1.6,2.1-2.7,6.4
		c-3.6,11.5-7.2,18.8-10.7,21.9c-2.5,2.5-3.9,5.4-4.5,8.9c-1.2,4.8-2.7,7.3-4.8,7.7c-2,0.3-3.6,0.5-4.8,0.5
		c-7.6,0-11.5-2.1-11.5-6.2c0-1.3,0.5-2.8,1.4-4.7c1.3-2.3,3-3.9,5-4.7c2.1-0.8,4.1-1.4,6.2-1.7c4.8-0.5,8.7-3.4,11.6-8.7
		c2.2-4.7,3.3-7.6,3.3-8.9c5.2-13.3,7.8-23.9,7.8-31.8c0-1.7-0.3-2.5-1-2.5c-0.6,0-1.6,0.8-2.7,2.5c-1.7,1.9-2.8,3.4-3.3,4.5
		c-2.3,2.3-4.5,4.1-6.4,5.4c-3.2,1.7-4.9,4-4.9,7.1c0,3-1.4,5.4-4.3,7.1c-1.9,1.2-3.8,1.7-5.4,1.7c-1.6,0-3-0.5-4.3-1.4
		c-2.7-1.8-4.2-3.6-4.4-5.3c-0.2-1.7-0.3-2.7-0.3-2.8c0-3,1.6-5.6,4.9-8c1.8-1,3.6-1.6,5.4-1.6c1.4,0.1,2.6,0.4,3.4,0.8
		c0.8,0.4,1.5,0.6,2,0.8c0.9,0,2.1-1,3.7-3.1l7.8-10.3c5.3-7.9,8-15.5,8-22.9c-0.1-1.8-0.4-3.9-0.8-6.2c-0.3-0.8-0.5-1.6-0.6-2.5
		c-1.4-8.2-4.3-19.6-8.7-34.4c-2.2-7.1-3.6-10.8-4.3-11.1c-0.3,0.3-0.7,2.1-1.4,5.4c-1.7,8.2-3.8,14.4-6.2,18.8
		c-1.2,1.8-1.7,2.8-1.7,3.1c-1.3,2.1-1.9,3.8-1.9,5.2c0,1,0.3,2.4,1,4c0.6,1.6,1,3.1,1,4.6c0,3.2-1.8,5.8-5.4,7.6
		c-2.2,0.9-4.1,1.4-5.8,1.4c-2.6,0-4.7-0.8-6.2-2.4c-1.6-1.6-2.3-3.3-2.3-5.1c0-4.9,3-8.5,9.1-10.9c4.5-1.2,8.5-7.9,11.8-20.2
		c0.6-2.6,1.1-4.7,1.4-6.2c0.5-6.1,1.2-10.8,2.1-14.2c0.5-2.1,0.8-4.4,0.8-7c0-2.1-0.5-4.8-1.4-8.2c-1.6-6.2-2.3-11.6-2.3-16.1
		c0-7,1-13.7,2.9-20c0.8-3.8,1.2-6.1,1.2-7c0-1.2-0.3-1.7-0.8-1.7c-1.2,0-3.9,2.2-8.3,6.6c-1.9,1.2-3.5,2.3-4.7,3.4
		c-1.2,1.1-1.7,2.7-1.7,4.7c0,2-0.2,3.8-0.7,5.5c-0.5,1.7-1.7,3.1-3.8,4.3c-1.3,0.8-3,1.2-5,1.2c-2.5-0.3-4.5-1.5-6-3.6
		C411.3,29.8,410.5,27.6,410.5,25.4z"/>
	<path id="XMLID_87_" d="M690.4,156.7c-1-0.5-1.8-1.1-2.5-1.6c-5-2.9-10.1-5.1-15.4-6.8c-9.3-2.7-16.4-4.1-21.2-4
		c-1.4,0-6.6,0.3-15.8,0.9c-1.8,0-3.3-0.3-4.4-0.8c-1.1-0.5-2.5-1.9-4.2-4.1c-4.7-4.7-7.6-10.3-8.6-17c-0.4-3.7-0.7-7.5-0.7-11.2
		l0.3-15.4c-0.1-12.5,0.8-25.1,2.7-37.8c3.2,6.1,6.6,10.9,10.1,14.5c3.5,3.6,8.1,7.2,14,10.7l19.6,12.8c12.8,7.5,23,14.3,30.7,20.4
		c4.7,4.3,8.4,6.4,11,6.4c1.4,0,2.1-1.3,2.3-3.8c0-3.2-1.5-9.9-4.5-20.1c-1.6-5.4-2.9-9.5-4-12.2c-2.3-6.6-5.7-12.7-10.3-18.2
		c-3.9-4.4-7.9-8.6-12.1-12.6c-5.3-4.7-11.8-8.7-19.6-12.1c-7.8-3.4-15.2-5.2-22.3-5.5l-6.6,0.5c-1,0-2.1-0.1-3.5-0.2
		c-1.4-0.1-2.5-1-3.3-2.5c-0.3-1-0.4-3.6-0.5-7.9c-0.1-14.8,0-24.4,0.2-28.9l-9.1,0c-0.1,0.8-0.3,1.7-0.4,2.6c0,4.2-0.3,6.6-1.1,7.5
		c-0.8,0.8-2,1.3-3.8,1.3c-2.6-0.3-5.2-0.4-7.7-0.4c-7.9,0-16.8,2.8-26.8,8.3c-8.8,5-15.8,10.9-20.9,17.6
		c-6.7,8.9-12.5,20.8-17.4,35.6c-2.3,7.4-3.5,13.3-3.4,17.9c0,5.4,1.8,8.1,5.5,8.1c2.2,0,5.3-0.9,9.3-2.8
		c6.8-2.9,13.9-7.1,21.5-12.4c6.3-5,12.7-11.4,19.2-19c8.7-10.3,15-19.3,19.2-26.9c1.8-3.9,3.7-7.1,5.8-9.6c0.7,1.8,1.1,5.1,1.1,10
		c0.1,9-0.6,21.3-2.1,37c-0.1,2.9-0.3,4.8-0.4,5.7c-0.1,0.9-0.7,1.4-1.7,1.4c-0.4,0-0.9-0.1-1.5-0.2c-0.6-0.1-1.5-0.2-2.7-0.2
		c-10.5,0.1-19.3,3.8-26.3,11.2c-3.6,3.8-5.9,7.1-7.1,10c-1.2,2.9-2.1,6.8-2.9,11.7c0,0.6-0.1,1.1-0.4,1.7c-0.4,1.5-0.6,3.1-0.6,4.6
		c0,1.4,0.9,2.1,2.7,2.3c4.6-0.2,9.7-1.7,15.2-4.7c5.6-2.9,10.1-5.9,13.6-9c2.1-1.8,4.1-4.1,6-6.8c1.9-2.7,3.6-4.6,5-5.7
		c0.7,1.2,1.1,5,1.1,11.2c0.1,9-0.1,13.9-0.5,14.8c0.1,13-3.3,19.5-10.3,19.6c-1.4,0-3.3-0.3-5.6-0.8c-5.7-1.3-11-2-15.8-2
		c-1.9,0-5,0.2-9.1,0.6c-4.2,0.4-10.6,3.6-19.5,9.6c-10.2,5.6-17.9,11.5-23.2,17.8c-3.6,5.1-5.3,10.8-5.3,16.9
		c0,4.7,1.8,8.4,5.5,11.2c1.1,0.7,2.3,1,3.5,1c2.5,0,6.1-1.5,10.8-4.4c5.4-3.4,11-8.2,16.9-14.6c5.1-5.7,10.3-10.2,15.7-13.6
		c2.1-1,3.5-1.5,4.1-1.5c0.4,0,0.6,0.1,0.6,0.4c0,0.7-0.6,1.9-1.8,3.8c-8,10.4-14,21.5-18.1,33.1c-1.6,4.6-2.6,11.5-2.8,20.8
		c0,3.6,1.1,7.3,3.2,11c2.5,4.3,5.6,6.4,9.4,6.4c2.6,0,5.1-1.4,7.5-4.2c5.8-6.7,10.1-14.2,13-22.5c7.6-20,12.1-30,13.5-30
		c0.8,0,1.3,1.2,1.3,3.7c0,5.3-0.6,10.5-1.8,15.6c-1.3,6.7-2.1,11.8-2.4,15.4c-0.1,2.4-0.4,4.8-0.8,7.3c-0.5,4-0.8,7.8-0.8,11.2
		c0.2,5.4,2.1,10.2,5.7,14.5c2.9,3.2,6.3,4.7,10.2,4.7c7.8,0,12.4-4.9,14-14.6c1.1-6.2,1.6-12.3,1.6-18.3l-0.5-13.1
		c-0.9-12-1.4-19.7-1.4-22.8c0-5.4,0.4-8.1,1.4-8.1c1.8,0,6.1,7.2,13,21.5c3.9,7.7,6.7,14.1,8.4,19.1c4.7,14.8,10.5,22.2,17.6,22.1
		c3.7,0,6.8-2.3,9.3-6.7c1-2.4,1.4-4.8,1.4-7.3c-0.1-17.2-5.9-33.1-17.3-47.7c-2.1-2.8-4.9-5.4-8.4-7.8c-1.7-1.1-3.5-2.5-5.6-4.3
		c3.9,0.3,9.1,2.8,15.7,7.6c6.6,4.8,11.6,9.4,14.9,13.8c7.8,9.9,14.6,14.9,20.4,14.8c1,0,2.7-0.4,5.3-1.3c2.6-0.8,4.4-4.9,5.4-12.3
		c0-7.1-1.8-13.3-5.2-18.6C700.4,164.1,695.9,159.8,690.4,156.7z M631.1,45.3c3.6,0,7.6,0.6,11.9,2c15.8,4.3,29.3,13.6,40.5,27.8
		c2.6,3.2,5,7.2,7.1,12.2c5.2,12.4,7.8,19.9,7.8,22.4c0,1.1-0.4,1.7-1.2,1.7c-1.2,0-3.5-1.3-6.7-3.9c-7-5.2-13.8-10-20.7-14.2
		c-31-18.8-46.5-33.3-46.6-43.6C623.2,46.8,625.9,45.3,631.1,45.3z M597.5,33.8c-5.1,8.8-12.4,18.8-21.7,30
		c-6.6,8.1-12.7,14.1-18.4,18.2c-8.6,6.1-14.3,9.2-17.2,9.2l-0.4,0l-0.2-2.3c0-3,0.9-7,2.6-11.9c4.1-10.8,8.6-20,13.5-27.5
		c6.6-9.9,15.3-17.6,26.2-23.2c9.8-5.2,17-7.8,21.6-7.8c1.1,0,1.7,0.3,1.7,1C605.2,20.3,602.6,25.1,597.5,33.8z M598.8,98.6
		c-2.6,3.5-5.7,6.5-9.3,9.2c-6.6,5.2-11.2,7.8-13.7,7.8c-0.8,0-1.2-0.4-1.3-1.2c0-1.7,1-4.4,3.1-8.3c2.5-4.6,6.9-9,13.2-13.4
		c4.6-3.1,8.7-4.6,12.4-4.6l2.1,0.2C605,90.2,602.8,93.6,598.8,98.6z M551.5,174.8c-7.2,7.4-12.5,11.1-15.9,11.1
		c-1.7,0-3.1-1-4.2-3.1c-0.6-1.5-0.8-3-0.9-4.4c0-3,1.5-6.2,4.5-9.6c3-3.3,6.3-6.1,9.9-8.4c13.1-9.2,24.4-13.9,34-13.9
		c5,0,10.5,0.6,16.6,2c3.1,1,4.6,1.8,4.6,2.5c0,1.7-2.8,2.5-8.5,2.5l-2.5-0.2C576.7,153.4,564.2,160.5,551.5,174.8z M600.7,166.1
		c-3.8,5.4-7,10.4-9.5,15c-2.9,5.4-6.1,13.2-9.6,23.3c-2.3,8.7-6.4,16.7-12.3,23.8c-1.2,1.3-2.3,1.9-3.3,1.9c-0.4,0-1-0.4-1.9-1.3
		c-0.8-0.9-1.6-4.5-2.1-10.7c-0.1-10.2,5.1-23.9,15.3-40.8c4.4-7.6,10.7-12.9,18.8-15.7c2.3-0.7,4.1-1.1,5.2-1.1
		c1.1,0,1.7,0.3,1.7,1C602.9,162.5,602.2,164.1,600.7,166.1z M617.1,241.7c-1.1,2.8-2.6,4.4-4.5,4.8c-2.2,0-4.1-0.9-5.6-2.7
		c-2-3.4-3-7.8-3-13.1c-0.1-10.4,1.5-20.2,4.8-29.5c1.5-5,2.2-9.8,2.2-14.6c0.2-6.5,1-11.8,2.4-16c1-2.8,1.8-4.2,2.7-4.2
		c1.4,0,2.2,4.4,2.4,13.3c0.9,11.4,1.5,22.6,1.9,33.9C620.4,225.1,619.3,234.5,617.1,241.7z M623.7,156.2c-1.5,1.3-3.3,1.9-5.4,1.9
		c-0.8,0-2.1-0.1-3.9-0.4c-1.8-0.3-3.3-1.7-4.6-4.3c-0.3-1.2-0.4-2.4-0.4-3.5c0-1.9,0.6-3.6,1.9-4.9c1.3-1.3,2.9-2,4.9-2
		c0.4,0,1.4,0.1,3,0.2c1.6,0.1,3.2,1.6,4.9,4.5c0.8,1.8,1.3,3.4,1.3,4.8C625.3,154.2,624.8,155.4,623.7,156.2z M667.4,205.6
		c1.8,6.8,2.8,12.5,2.8,17.2c0,3.9-0.6,6.9-1.8,8.9c-1,1.1-1.9,1.7-2.7,1.7c-1.8,0-3.8-2.5-5.9-7.4c-1.4-3.7-2.1-5.8-2.1-6.2
		c-5.4-14.8-12.7-29.3-22.1-43.5c-4.1-5.7-6.5-10-7.4-13c0.3-0.8,0.8-1.3,1.7-1.3c1.7,0.1,3.5,0.9,5.6,2.3
		C652.3,174.7,662.9,188.5,667.4,205.6z M698.3,195.9c-2.4,0-6.5-3.8-12.5-11.6c-7.9-9-14.7-14.9-20.3-17.7
		c-5.6-2.9-12.2-5.4-19.8-7.6c-8.6-2.6-12.9-4.6-12.9-6.2c0-0.4,0.3-1,1-1.7c3.9-1.8,8.9-2.8,15.1-2.8l1.9,0
		c9.7,1.2,19.8,5,30.2,11.6c10.4,6.5,17.2,14.5,20.3,24.1c0.3,1.7,0.4,3.5,0.4,5.4C701.8,193.7,700.7,195.9,698.3,195.9z"/>
	<path id="XMLID_79_" d="M14,116.2c2.8,2.4,6.6,3.6,11.5,3.6c7.2-0.6,12.4-4.4,15.7-11.3l2.5-5.7c1.6-5,3-7.6,4-7.6
		c1,0,2.1,1.9,3.4,5.7c1.6,3.6,3.2,6.9,4.7,9.6c8.2,16.4,12.3,29.3,12.3,38.7c0,6.7-0.8,10.1-2.3,10.4c-0.6,0-1.5-0.6-2.7-1.8
		c-1.2-1.2-3-2.4-5.3-3.7c-2.3-1.3-5.4-2-9.2-2.1c-9.4,1.1-14.2,6.9-14.2,17.2c0.4,5.3,1.1,8.6,2.3,10c0.3,0.5,0.4,0.9,0.4,1.1
		c0,0.6-0.8,1.3-2.5,2.1c-11.1,5.5-16.6,12.1-16.6,19.8c0,1.5,0.2,3.1,0.6,4.7c1.9,5.2,4.2,7.9,7,8.1c2.8,0.3,4.5,0.4,5.3,0.4
		c3.8,0,7.4-0.7,10.9-2.1c1.4-0.4,2.4-0.6,3-0.6c0.8,0,1.1,0.5,1.1,1.5c0,0.4-0.1,1-0.2,1.9c-0.1,0.9-0.2,2.1-0.2,3.6
		c0,7.4,1.9,12.5,5.8,15.2c3.8,2.7,7.3,4.1,10.5,4.1c8.9,0,14.8-6.3,17.7-18.9c0.3-1.5,0.5-2.3,0.8-2.5c1,0,2.1,0.3,3.2,0.9
		c3.8,1.9,7.4,2.8,10.9,2.8c2.6,0,5.3-0.9,7.9-2.6c3.9-3.1,5.9-7.6,5.9-13.2c0-4.7-1.5-9.2-4.5-13.6c-1.1-1.6-1.7-2.8-1.7-3.6
		c0.3-1.8,0.7-3.5,1.4-5.1c0.7-1.6,1.1-3,1.2-4.1c0.1-1.1,0.2-1.8,0.2-2.2c0-1.6-0.5-3.6-1.5-5.9c-3.6-7.7-10.1-11.5-19.3-11.5
		l-8.7,0.8c-0.5-0.1-0.8-0.9-0.8-2.3c0.3-2.9,0.4-5.9,0.4-8.9c0-8.8-1.9-18.1-5.9-27.9c-1.3-3.4-1.9-5.7-1.9-6.8
		c0-0.5,0.2-0.8,0.6-0.8c0.6,0,1.9,0.8,3.8,2.5c10.2,8.2,19.2,12.3,27,12.3c4,0,7.5-1.8,10.4-5.5c1.9-2.6,2.8-5.3,2.8-8.1
		c0-5.3-2.9-9.5-8.7-12.6c-4.9-2.3-9.9-3.4-14.9-3.4c-3.4,0-6.8,0.5-10.2,1.5c-6.5,1.6-10.8,2.5-12.6,2.5c-1.8,0-3.3-0.4-4.5-1.1
		c-1.1-1.4-3.1-6.5-6-15.5c-1.6-6-2.8-9.8-3.4-11.3c-3.8-12.2-5.7-22.1-5.7-29.6c0-7,1.1-10.6,3.2-10.6c2.1,0,5.3,3.6,9.4,10.8
		l1.5,2.3c6.3,7.7,12.1,11.5,17.6,11.5c7.5-0.4,11.3-4.8,11.3-13.2c0-12.1-9.1-21.1-27.2-27.2c-5.4-1.4-8.1-3.4-8.1-6
		c0-1.6,0.8-4,2.5-7c1.5-2.3,2.7-4.3,3.5-6L48.9,0c-0.1,0.1-0.1,0.2-0.2,0.3c-3,6-6.2,14.9-9.4,26.6c-2.4,8.4-3.6,15.9-3.6,22.5
		c0.6,4.7,1.5,8.9,2.6,12.8c1.4,5.5,2.1,9.1,2.1,10.6c0,3.3-2.3,6.2-7,8.9c-3.8,2.5-7.9,6-12.5,10.6c-6.7,6.4-10,12.1-10,17
		C10.9,111.7,12,114.1,14,116.2z M39.3,209.2c-2.3,0.8-4.3,1.1-6.2,1.1c-3.4,0-5.6-1.4-6.6-4.2v-0.8c0-2.5,1.1-5.3,3.2-8.5
		c3.7-5.3,7.4-7.9,11.1-7.9c2.3,0,4,0.6,5.3,1.7c2.3,2.4,3.4,5.1,3.4,8.1C49.4,203.5,46.1,207,39.3,209.2z M48.3,180.2
		c-3-4.8-4.5-9.2-4.5-13.2c0-5.3,1.7-7.9,5.1-7.9c0.6,0,1.4,0.2,2.3,0.6c4.3,2.1,6.4,5.9,6.4,11.3c0,2.3-0.6,4.7-1.8,7.5
		c-1.2,2.7-2.5,4.1-4.1,4.1C50.6,182.4,49.4,181.7,48.3,180.2z M69.6,226.8c-1.8,4.3-4,6.4-6.8,6.4c-0.8,0-1.6-0.2-2.6-0.6
		c-4.4-2.3-6.6-6.9-6.6-14c0-6.5,1.8-10.1,5.5-10.8h0.8c1.9,0,3.8,0.4,5.7,1.3c3.9,2,5.9,5.5,5.9,10.6
		C71.3,221.8,70.8,224.2,69.6,226.8z M100,198.5c1.4,2.5,2.1,5,2.1,7.4c0,6.3-2.5,9.4-7.4,9.4c-2,0-4.7-0.8-7.9-2.5
		c-6.7-3.5-10-6.7-10-9.4c0.8-6.8,5.2-10.2,13.2-10.2C94.6,193.2,97.9,195,100,198.5z M73.8,172.3c3.8-4.3,7.6-6.4,11.5-6.4
		c3.5,0,6,2.5,7.4,7.4v0.9c0,1-0.4,3.2-1.3,6.6c-0.4,2.9-1.2,4.6-2.5,5.1c-0.8,0.3-3.1,0.6-7,0.9c-2,0-3.7-0.4-5-1.1
		c-1.3-0.8-2.9-2.2-4.6-4.3c-1.3-1.4-1.9-2.6-1.9-3.6C70.4,176.3,71.5,174.5,73.8,172.3z M71.7,190c0.9,2.1,1.3,4,1.3,5.7
		c0,1.5-0.3,3.1-0.8,4.9c-1.5,2-3.2,3-5.1,3c-0.8,0-1.6-0.2-2.5-0.6c-2.8-1.1-4.6-2.8-5.6-5c-0.9-2.2-1.4-3.9-1.4-5
		c0-1.8,0.6-3.5,1.9-5.1c1.6-1.6,3.3-2.5,5.1-2.5C67.9,185.5,70.2,187,71.7,190z"/>
	<path id="XMLID_77_" d="M126.8,108.2c0-0.5,0.3-1.2,0.9-2.1c3.3-3.8,7.7-9.6,13.4-17.6c8.2-12.5,16.4-18.7,24.7-18.7
		c1.6-0.6,4-4.3,7.2-10.9c1.9-3.8,3.5-7.9,4.9-12.5c2.4-7,3.6-12.1,3.6-15.3c0-2.6-0.4-5.8-1.3-9.4c-0.6-2.3-1.2-3.4-1.7-3.4
		c-0.1,0.1-0.3,0.7-0.6,1.7c-0.8,1.8-1.3,3.3-1.7,4.5c-1,3.4-3.3,6.9-7,10.6c-1.8,2.3-2.6,3.8-2.6,4.7c-0.3,1.3-0.8,2.1-1.5,2.6
		c-1.8,1.5-3.5,2.3-5.1,2.3c-2.6,0-4.3-1.4-5.1-4.2c-0.3-0.6-0.4-1.3-0.4-1.9c0-1.4,0.5-2.7,1.4-3.9c0.9-1.2,1.9-1.8,2.7-1.8
		c0.8,0,1.6,0.2,2.5,0.6c0.9,0.4,1.8,0.6,2.6,0.6c1-0.1,2.1-0.9,3.2-2.5c4.7-6.7,7-13.3,7-19.8c0-3.5-1.2-6.6-3.6-9.2
		c-0.5-0.6-1-1.3-1.5-2c-0.2-0.3-0.4-0.5-0.6-0.7l10.9,0c2.1,2.2,3.7,4.4,4.8,6.5c4.9,9.8,10.1,17.8,15.5,24v0.2l6.2,6.8
		c1.3,0.9,2.9,1.4,4.9,1.7c7.4,0.8,14,6.2,19.8,16.2l4.2,6.8c2.8,4,4.2,6.5,4.2,7.4c0,1.1-0.3,1.8-0.9,1.9c-1,0-2.5-0.8-4.5-2.5
		c-1.3-1.3-4.4-3.1-9.4-5.7c-2.9-1.4-5.6-3-8-4.8c-2.5-1.8-4.8-4.7-7.2-8.7c-2.3-4-4.4-6.6-6.3-8c-1-0.8-2.5-2.1-4.3-4.2
		c-2.6-4-4.7-6.4-6.2-7.2c-0.1,0.3-0.2,2.4-0.2,6.4c0.4,4.5,0.6,8.9,0.6,13.2c0,6.4,0.6,11.5,1.8,15.4c1.2,3.8,4.6,9,10.1,15.4
		c2.3,2.3,4.5,3.4,6.6,3.4c0.8,0,1.6-0.1,2.5-0.4c0.9-0.3,2-0.4,3.1-0.4s2.5,0.4,4.2,1.1c1.3,1.1,1.9,2.6,1.9,4.3
		c0,2.6-1.1,5-3.2,7.2c-1.3,1.3-2.8,1.9-4.5,1.9c-3.9-0.4-6.3-2.1-7.2-5.1c-0.6-2.1-1.7-4-3.2-5.5c-0.5-0.3-0.9-0.6-1.3-0.9
		c-4.2-3.1-7.4-7.4-9.8-12.6c-1.3-2.3-2.1-3.4-2.5-3.4c-0.4,0-0.8,0.5-1.3,1.5c-2.5,12.1-3.8,20-3.8,23.8c0,3.4,1.6,9.6,4.7,18.7
		c0.9,3.1,1.7,5.5,2.5,7c0.8,1.5,2.1,2.6,4.2,3.4c6.9,2.8,12.2,9.3,15.9,19.6c1.9,4.4,3,8.6,3.2,12.5c0,2.3-0.5,3.7-1.5,4.3
		c-1.5,0-4.2-2-8.1-5.9l-7.9-8.7c-5.9-9.3-10.3-19.4-13.2-30.2c0-0.3-0.1-0.7-0.3-1.2c-0.2-0.6-0.4-1.4-0.7-2.4
		c-0.5-2.1-1.1-3.2-1.9-3.2c-1.3,0-2.5,3.4-3.8,10.2c-2,12.3-3,22-3,29.1c0.1,3.4,2,7.9,5.7,13.4c1.1,1.4,1.7,2.2,1.7,2.5
		c1.5,2.4,3,3.6,4.3,3.6l2.1-0.2c3.8,0,6.5,1.1,8.3,3.4c0.8,0.9,1.1,1.8,1.1,2.8c0,1.6-0.9,3.2-2.7,4.7c-1.8,1.5-3.4,2.3-4.8,2.3
		c-2,0-3.7-1.4-5.1-4.3c-1.1-2.1-2-3.5-2.5-4.1c-0.6-0.6-1.3-1.4-2.2-2.5c-0.3-0.5-1.1-1.8-2.5-3.8c-1.4-2-2.5-3-3.2-3
		s-1.1,1.1-1.1,3.2c0,3.1,1.1,9.2,3.4,18.1c0.8,4.2,1.4,6.6,2,7.5c0.6,0.8,1.9,1.4,4.1,1.8c5.2,1,8.8,2.7,10.9,5.1
		c2.1,2.4,4.1,5.9,5.9,10.6c1.8,3.5,3.8,6.7,6,9.4c3.5,4.4,5.5,8,5.9,10.8c0,1.9-0.6,3.3-1.7,4.2l-0.8,0.2c-0.6,0-2.8-0.9-6.4-2.8
		c-7.5-3.8-12.5-7.2-14.9-10.4c-6.4-9.1-11.3-19.2-14.7-30.4c-0.5-1.9-1.1-3.8-1.9-5.7c-2.5-7.7-3.8-16.6-3.8-26.8
		c0-3.4-0.2-5.1-0.6-5.1c-1.3,1.3-2.9,4-4.9,8.1c-3.1,4.3-4.7,8.6-4.7,12.8l0.2,4.5c0,5.3-2,11.6-6,18.9c-0.8,1.6-1.5,3.5-2.3,5.5
		c-3,8.6-5.3,12.8-7,12.8c-1.3,0-2.4-1.3-3.4-4c-0.8-1.6-1.1-4.5-1.1-8.7c0-4.9,0.3-8.9,0.8-11.9c0.8-3.8,2.1-6.9,4-9.4
		c0.5-0.6,1-1.4,1.5-2.3c1.8-2.6,3.6-5.1,5.7-7.4c0.8-0.8,1.4-1.5,2.1-2.3c0.6-0.8,1.3-1.4,2.1-2.1c0.8-0.6,1.4-1.3,1.9-2.1
		c1.3-2.8,4.1-7.6,8.5-14.5c2.4-4.5,3.6-8,3.6-10.4c0-3.7,1.1-10.2,3.2-19.6c0.6-1.4,0.9-2.8,0.9-4.3c-0.1-0.4-0.3-0.6-0.6-0.6
		c-0.3,0-2.7,2.3-7.4,7c-1.8,1.9-4.8,4.7-9.1,8.3c-1.3,0.9-2.1,2.4-2.5,4.5c-0.3,1.1-0.7,2-1.2,2.5c-0.6,0.6-1.9,1-4.1,1.2
		c-5.4,0-8.1-2.1-8.1-6.4c0-1.1,0.3-2.4,0.9-3.8c1.4-2.6,3.2-4,5.5-4c1.5,0,2.9,0.3,4.2,0.9c1.3,0.6,2.4,0.9,3.4,0.9
		c1.9-0.3,4.5-2.3,7.7-6.2c4.9-5.4,8.7-10.5,11.3-15.3c3-5.8,6.3-22.2,9.8-49.3c0.3-2,0.4-3.5,0.4-4.3c0-1-0.1-1.5-0.4-1.5
		c-0.6,0.6-1.7,2.5-3.2,5.7c-1.1,2.4-2.5,4.8-4,7.2c-2,3.5-3.3,6.7-3.8,9.4c-2.1,12.7-11.9,22.8-29.3,30.2l-3.6,2.3c-3,2-6.4,3-10,3
		C127.6,109,126.9,108.7,126.8,108.2z"/>
	<path id="XMLID_51_" d="M233.9,154.2l2.1-0.3c7.6-2.5,17.5-4.4,29.6-5.6c10.8-1,20.9-2.9,30.4-5.8c1.4-0.5,2.8-1.2,4.1-2
		c2.5-1.5,4.4-2.2,5.8-2.1c1.8,0.1,2.7,2.2,2.5,6.5c-0.1,3-2.3,5.6-6.5,8c-4.2,2.4-7.4,5.3-9.7,8.7c-0.9,1.4-2.1,2.9-3.6,4.5
		c-2.5,2.6-6.8,5-12.8,7.3c-5,2.1-9.8,4.5-14.3,7.3c-8.1,5.1-14.4,15.3-18.9,30.9c-0.8,2.8-1.3,5.5-1.4,8c-0.2,4.1,0.5,8.1,2.1,12
		c4.2,8.1,9.4,12.3,15.6,12.5c3.1,0.1,6-0.4,8.6-1.6c1.4-0.5,2.5-0.7,3.2-0.7c1,0,1.9,1,2.9,2.9c3.2,8.5,9.3,13.1,18.4,13.7
		c3.8-0.1,6.8-0.7,8.8-1.8c2-1,4-2.5,5.9-4.4c2.8-2.6,4.8-3.8,5.9-3.8c1.7,0.1,3.6,1.2,5.6,3.4c3.4,3.7,8.2,5.6,14.4,5.9l4,0.2
		c2.4,0,5.4-1.6,8.9-4.5c2.5-2,4.1-4.5,5-7.4c0.3-1.3,0.9-2.5,1.6-3.8c0.6-0.4,1.3-0.6,2.1-0.5c0.7,0,2.2,0.5,4.6,1.5
		c4.3,1.7,7.6,2.6,9.9,2.7c1.6,0.1,3.1-0.1,4.7-0.4c7.6-2,11.6-7.2,11.9-15.9c0.5-12.9-5.2-25.8-17.1-38.7
		c-3.9-4.5-7.5-7.9-10.9-9.9c-3.3-2-8-4.2-14-6.4c-1.9-0.9-3.5-1.6-4.6-1.9c-2.8-0.8-4.9-1.9-6.2-3.1c-1.4-1.3-2.7-3.9-3.9-7.9
		c-2.4-4.5-5.2-7.6-8.5-9.3c-2.5-1.2-4-3-4.5-5.4c-0.5-2.4-0.6-5.9-0.4-10.5c0.3-8.1,2.2-12,5.6-11.9c2.3,0.1,5.5,1.4,9.6,3.8
		c9.7,5.4,22.6,10.1,38.7,14.1c9.8,3.4,16.4,5.1,19.8,5.3c3.8,0.2,5.8-0.9,5.9-3.2c0.1-1.4-0.7-3.5-2.2-6.3
		c-1.5-2.8-3.6-5.7-6.3-8.9c-2.7-3.2-4.7-5.3-6.1-6.3c-8.3-5.4-15.6-9-21.9-10.7c-6.3-1.7-12.2-2.8-17.7-3.3
		c-6.1-0.4-12.3-1.6-18.8-3.5c-2.6-1.2-3.8-6.6-3.4-16.1c0.2-5.9,0.9-11.9,2-17.8c0.4-3.2,0.7-6.5,0.8-9.7c0.9-20.9,2-31.4,3.4-31.3
		c0.7,0.3,1.6,2.1,2.8,5.2c3.5,10.2,11.9,22,25.1,35.5c0.9,1.5,3.1,3.7,6.5,6.9c2.6,2.4,4.7,3.6,6.2,3.7c4.1,0.2,6.3-4.1,6.7-12.9
		c-0.1-1.4-1.4-6.4-4.1-15c-2.2-8.4-5.3-15.8-9.2-21.9c-3.9-6.2-11.4-12.2-22.3-18c-5.8-3.1-9.1-6.5-9.8-10.2
		c-0.2-1.2-0.4-2.5-0.4-3.9l-8.5,0c0,0.1,0,0.2-0.1,0.4c-0.4,2.5-1.1,4.9-2.2,7.2c-1.1,2.3-3.4,4.4-6.8,6.4
		c-5.6,2.5-10.3,5.2-14.1,8.1c-2.6,1.9-5.9,5.1-10,9.8c-4.8,7.6-8.5,15.8-11,24.6c-2.2,7.6-4.7,18.4-7.5,32.6
		c-1.7,5.7-2.5,10-2.6,12.6c-0.1,1.8,0.8,2.8,2.6,2.9c6.6,0.3,18.4-14.3,35.1-43.6c8.2-16.9,13-26,14.3-27.3
		c0.4,0.6,0.5,2.8,0.4,6.6c-0.9,10.7-1.6,18.4-2.2,22.9c-1.4,12.4-2.5,24.5-3.4,36.4c-0.1,1.8-0.1,4.1,0,6.7c0.1,2.6,0,7-0.2,13.1
		c-0.2,2.4-1.2,4.4-2.8,6c-2,1.3-5.4,1.9-10.1,1.7c-5.4-0.2-10.3-0.6-14.8-1c-3-0.4-5.9-0.7-8.7-0.8c-5.5-0.2-11.4,0.2-17.6,1.4
		c-6.2,1.2-12.8,6.3-19.9,15.6c-0.3,0.4-0.8,1.3-1.4,2.7c-1.5,2.8-2.3,5.1-2.4,6.9C232.2,153.4,232.8,154.2,233.9,154.2z
		 M334.1,116.4c3.1,0.1,6.8,0.8,11.2,1.9c11.4,3,19.4,6.1,24.3,9.3c7.2,4.5,10.7,7.9,10.6,10c0,0.6-0.5,0.8-1.5,0.8
		c-0.8,0-5.8-1.4-14.9-4c-18.6-5-29.9-9.9-33.8-14.6c-0.4-0.7-0.6-1.3-0.6-1.7C329.4,116.9,330.9,116.3,334.1,116.4z M330.9,22.4
		c1.2-1.7,2.6-2.4,4.1-2.4c1.7,0.1,4.2,1.6,7.6,4.7c3.3,3,7.1,8,11.4,15c4.2,7,7.4,13.6,9.4,19.7c1,3,1.5,5.4,1.4,7.3
		c-0.1,2-0.8,3.3-2.1,4c-1.3-0.3-3.8-2.6-7.6-6.7c-3.8-4.1-7.8-9-11.9-14.7c-8.7-12-13-20.3-12.8-25
		C330.4,23.6,330.6,22.9,330.9,22.4z M304.2,35.7c-17.5,36-28,53.9-31.5,53.8c-0.6,0-0.8-1-0.7-2.8c0.2-5.4,2.6-14.1,7-26.3
		c4-10.3,7.9-18.3,11.8-24c1.9-2.3,4.1-4.6,6.4-7c4.9-4.8,8.1-7.1,9.6-7c1,0,1.5,0.6,1.4,1.8C308.2,25.5,306.9,29.3,304.2,35.7z
		 M328.5,178.9c9.2,1.1,18.6,5.9,28.3,14.3c1.2,1.3,2.5,2.4,3.7,3.3c3.8,3.6,7.2,8.4,10,14.6c3.8,7.8,5.6,14.3,5.4,19.6
		c-0.2,5.5-3.1,8.2-8.6,7.9c-2.1-0.1-4.3-0.7-6.4-2c-2.1-1.2-4.3-2.8-6.6-4.6c-2.3-1.9-4.1-3-5.5-3.3c-2.6,0.7-4.5,4.1-5.7,10
		c-0.8,3.4-2,6.3-3.4,8.8c-1.4,2.5-3.9,3.7-7.5,3.5c-4.9-0.8-8.6-2.8-11-6c-2.4-3.2-4.3-6.4-5.6-9.7c-1.3-3.2-2.6-5.5-4-6.9
		l-1.3-0.3c-3.3-0.1-5.7,3.4-7.2,10.5c-1.7,4.6-2.8,7.3-3.3,8.2c-1.8,3.5-4,5.1-6.6,5c-1.6-0.1-3.3-0.8-5.2-2.1
		c-2.8-2-4.8-4.6-6.1-7.9c-1.2-2.7-1.7-5.5-1.6-8.4c0.1-1.4,0.2-2.6,0.5-3.7c0.3-1.1,0.4-2,0.4-2.9c0-0.6-0.1-1.3-0.2-2.1
		c-0.2-0.9-1.2-1.5-3-1.8c-2.7,0.6-5.5,2.1-8.5,4.5c-4.7,3.5-8.1,5.2-10.4,5.1c-1.1,0-2.3-0.4-3.4-1c-3.3-2.4-4.9-5.9-4.7-10.4
		c0.1-3.4,0.8-6.5,1.9-9.3c4.2-13.4,12.6-23.2,25.2-29.4c9.7-4.3,20.5-6.2,32.5-5.7C313.4,177.2,319.4,177.8,328.5,178.9z
		 M312,157.2c0.4,0,1.4,0.2,2.9,0.4c1.5,0.3,3.4,1.9,5.9,5c1.3,1.9,2,3.2,2,3.9c0,0.7-1,1-2.8,0.9l-6.1-0.5c-2-0.1-3.8-0.1-5.4-0.1
		c-1.6,0-3.1,0-4.4-0.1l-4.7-0.4l-0.4-0.4c0-0.8,0.7-2,2-3.5c1.3-1.5,2.9-2.8,4.9-3.8C307.8,157.6,309.9,157.1,312,157.2z
		 M242.9,142.7c3.1-5.4,8.4-9,16-10.8c5.3-0.9,13.1-1.2,23.6-0.7l8.3,0.3c3.8,0.3,6.8,0.8,9.1,1.6c0.3,0.3,0.4,0.6,0.4,0.9
		c-0.1,2.5-12,5.6-35.7,9.2c-11.4,1.9-18.7,3-21.8,3.1c-0.4-0.3-0.6-0.7-0.6-1.1C242.2,144.5,242.4,143.6,242.9,142.7z"/>
</g>
</svg>
