<?xml version="1.0" encoding="utf-8"?>
<!-- Generator: Adobe Illustrator 19.0.0, SVG Export Plug-In . SVG Version: 6.00 Build 0)  -->
<svg version="1.1" id="Layer_1" xmlns="http://www.w3.org/2000/svg" xmlns:xlink="http://www.w3.org/1999/xlink" x="0px" y="0px"
	 viewBox="0 0 720 3456" style="enable-background:new 0 0 720 3456;" xml:space="preserve">
<g id="XMLID_1_">
	<path id="XMLID_2_" d="M562,323.8c0,5.3-2.3,8.4-6.9,9.4c-4.6,1-9.9,1.7-16.1,2.3c-32.3,103.2-60.9,194.3-86,273.3
		c-5.6,17.5-11.8,26.3-18.8,26.3c-5.8,0-11.4-7.1-16.7-21.3c-23.9-69.5-41.3-118.5-52.2-146.9c-4.7,8.3-23.9,57.4-57.6,147.3
		c-5.3,13.9-10.8,20.9-16.7,20.9c-5,0-8.9-2.5-11.7-7.5c-2.8-5-14.6-36.7-35.5-95.1c-35.1-102.6-58.4-168.6-70.1-197.8l-6.7-1.7
		c-6.1-1.4-9.2-5.1-9.2-11.3c0-6.1,4-9.2,12.1-9.2l68.4,0.8c11.4,0,17.1,2.6,17.1,7.9c0,4.5-1.3,7.5-3.8,9.2c-2.5,1.7-6,3.3-10.4,5
		c1.7,12.5,25.6,79,71.8,199.5c17.5-42.8,31.3-77.1,41.3-102.6c-10-29.8-21-62.6-33-98.5c-4.7-0.8-9-1.8-12.7-2.9
		c-3.8-1.1-5.6-4.2-5.6-9.2c0-5.8,4.4-8.8,13.4-8.8c25,0,52.6,0.3,82.6,0.8c3.3,0,6.1,1.1,8.3,3.3c2.2,2.2,3.3,4.6,3.3,7.1
		c0,3.6-1.3,6.3-4,7.9c-2.6,1.7-7.6,3.1-14.8,4.2c8.9,29.8,19.5,61.5,31.9,95.1c12.4,33.7,22.9,62.3,31.5,86
		c25.9-75.1,44.9-135.9,57.2-182.3c-8.1-1.1-13.6-2.4-16.7-4c-3.1-1.5-4.6-4.1-4.6-7.7c0-6.4,3-9.9,9-10.4c6-0.6,13.1-0.8,21.5-0.8
		c15.9,0,26.5,0.5,31.9,1.5C559.2,314.5,562,317.9,562,323.8z"/>
	<path id="XMLID_3_" d="M414.5,770.2c0-6.4,1.4-12.7,4.2-18.8c-43.4,0-72.1,0.4-86,1.3c0.3,80.1,0.8,129.2,1.7,147.3l47.2-0.8
		c1.1-6.4,2.4-11.8,4-16.3c1.5-4.4,4.5-6.7,9-6.7c4.2,0,7.1,2.4,8.8,7.1c1.1,3.1,1.8,19.1,2.1,48c0,9.7-2.8,14.6-8.3,14.6
		c-7.5,0-11.8-3.3-12.9-10l-2.1-12.9c-7.8-0.6-15.3-0.8-22.5-0.8c-8.9,0-17.3,0.4-25,1.3l-1.7,105.6h96.4c6.7,0,11.4-3.1,14.2-9.4
		c2.8-6.3,4.5-13.5,5.2-21.7c0.7-8.2,4.2-12.3,10.6-12.3c6.1,0,9.2,2.4,9.2,7.1c0,25-1.6,41.5-4.8,49.2c-3.2,7.8-9.9,11.7-20.2,11.7
		h-126c-4.5,0-15-0.1-31.7-0.4c-16.7-0.3-27.9-0.7-33.6-1.3c-5.7-0.6-8.6-3.3-8.6-8.3c0-6.7,2.5-10.8,7.5-12.5
		c5-1.7,10.7-2.8,17.1-3.3c0.8-6.4,1.7-50.9,2.5-133.5c0-77.6-0.6-124.9-1.7-141.9h-7.1c-11.7,0-17.5-3.1-17.5-9.2
		c0-7.8,5.1-11.7,15.4-11.7c35.9,0,66.4-0.2,91.6-0.6c25.2-0.4,48.6-0.8,70.3-1c36.7,0,55.1,12.7,55.1,38c0,7.8-2.8,15-8.3,21.7
		c-5.6,6.7-13.6,10-24.2,10c-9.2,0-16.4-2.6-21.7-7.9C417.1,786.2,414.5,779.1,414.5,770.2z"/>
	<path id="XMLID_7_" d="M474.1,1428.4c0,28.1-22.4,42.1-67.2,42.1l-116.4-0.8c-20,0-32.1-0.2-36.3-0.6s-6.3-3.4-6.3-9
		c0-8.9,7.2-13.4,21.7-13.4c0.3-40.9,0.4-79.7,0.4-116.4s0.1-89.2,0.4-157.3c-6.4-0.6-11.4-1.8-15-3.8c-3.6-1.9-5.4-5.4-5.4-10.4
		c0-5.6,3.5-8.6,10.6-9.2c7.1-0.6,21.8-0.8,44-0.8c22.5,0.3,36.6,1,42.1,2.1c5.6,1.1,8.3,4.3,8.3,9.6c0,4.5-1.5,7.2-4.6,8.3
		c-3.1,1.1-7.9,2.2-14.6,3.3l-3.3,273.7c20.6,1.4,41.4,2.1,62.6,2.1h20.9c-3.6-6.1-5.4-12.7-5.4-19.6c0-11.1,3.3-19.4,9.8-24.8
		c6.5-5.4,13.8-8.1,21.9-8.1c10.3,0,18.2,3.1,23.6,9.2C471.4,1410.8,474.1,1418.7,474.1,1428.4z"/>
	<path id="XMLID_11_" d="M498.3,1815.8c0,5.6-4.1,14.3-12.3,26.1c-8.2,11.8-20.9,23.2-38,34c-17.1,10.8-43.7,16.3-79.9,16.3
		c-45.3,0-81.1-13.7-107.2-41.1c-26.2-27.4-39.2-67.1-39.2-119.1c0-51.7,15.4-92.8,46.1-123.1c30.7-30.3,69.5-45.5,116.2-45.5
		c34.5,0,60.4,7.7,77.8,23.2c17.4,15.4,26.1,31.9,26.1,49.4c0,10.6-3.1,18.4-9.4,23.4c-6.3,5-13.8,7.5-22.7,7.5
		c-9.5,0-16.9-2.8-22.3-8.3c-5.4-5.6-8.1-12.7-8.1-21.3c0-15.9,5.8-26.8,17.5-33c-13.6-13.6-31.9-20.4-54.7-20.4
		c-28.4,0-52.9,13.1-73.4,39.4c-20.6,26.3-30.9,63.2-30.9,110.8c0,37.6,11,69.5,33,95.8c22,26.3,45.5,39.4,70.5,39.4
		c16.4,0,31.7-3.7,45.9-11.1c14.2-7.4,29.2-21.6,45.1-42.8c4.2-5.6,8.6-8.3,13.4-8.3C496.1,1807.1,498.3,1810,498.3,1815.8z"/>
	<path id="XMLID_16_" d="M477.7,2031.5c-30.3-34.8-71.2-52.2-122.7-52.2c-46.2,0-82.8,16.3-109.7,49c-27,32.7-40.5,73.1-40.5,121.2
		c0,46.2,13.9,84.9,41.7,116c27.8,31.2,65,46.7,111.4,46.7c45.9,0,82.2-14.2,108.9-42.6c32.3-34.5,48.4-77.3,48.4-128.5
		C515.2,2097,502.7,2060.5,477.7,2031.5z M428,2252.7c-16.7,24.8-40.5,37.1-71.4,37.1c-27,0-48.8-14-65.5-42.1
		c-16.7-28.1-25-59.4-25-93.9c0-38.7,9.6-74.4,28.8-107.2c17.2-28.9,38.7-43.4,64.3-43.4c31.7,0,56.1,16.3,73,48.8
		c16.1,30.9,24.2,62.5,24.2,94.7C456.4,2189.3,446.9,2224.6,428,2252.7z"/>
	<path id="XMLID_13_" d="M518.4,2424.1l-1.3,275.8c11.1,2.8,16.7,7.2,16.7,13.4c0,7.5-4.3,11.3-12.9,11.5
		c-8.6,0.1-16.4,0.2-23.4,0.2c-35.1-0.3-54.4-1.1-58-2.5c-3.6-1.4-5.4-5-5.4-10.8c0-3.9,5.7-7.4,17.1-10.4
		c0.8-59.3,2.5-140.8,5-244.5c-19.2,54.2-38,106.6-56.3,157.1c-18.4,50.5-30.2,81-35.5,91.4c-5.3,10.4-11.7,15.6-19.2,15.6
		c-5.8,0-11.1-3-15.9-9c-4.7-6-16.8-31.2-36.1-75.7c-19.3-44.5-41.4-95.4-66.1-152.7l2.5,218.2c7.8,1.4,13.5,2.7,17.1,4
		c3.6,1.3,5.4,4.5,5.4,9.8c0,5-3.3,7.9-9.8,8.8c-6.5,0.8-14.3,1.3-23.2,1.3c-2.2,0-6.7-0.1-13.6-0.2c-6.8-0.1-12.3-0.7-16.5-1.7
		c-4.2-1-6.3-4-6.3-9c0-7.5,7.2-11.3,21.7-11.3v-275.4c-13.1-1.4-19.6-5.7-19.6-12.9c0-6.7,5-10,15-10l40.9,0.4
		c8.6,0,16.3,4.9,23.2,14.8c6.8,9.9,19.6,35.9,38.4,78c18.8,42.1,39.8,88.8,63.2,140c17-42,44.2-114.3,81.8-217
		c3.9-11.1,12.5-16.8,25.9-17.1c29.8-1.1,47.8-1.7,54.2-1.7c6.4,0.3,9.6,3.3,9.6,9.2C537.1,2418,530.9,2422.2,518.4,2424.1z"/>
	<path id="XMLID_18_" d="M414.5,2860.6c0-6.4,1.4-12.7,4.2-18.8c-43.4,0-72.1,0.4-86,1.3c0.3,80.1,0.8,129.2,1.7,147.3l47.2-0.8
		c1.1-6.4,2.4-11.8,4-16.3c1.5-4.4,4.5-6.7,9-6.7c4.2,0,7.1,2.4,8.8,7.1c1.1,3.1,1.8,19.1,2.1,48c0,9.7-2.8,14.6-8.3,14.6
		c-7.5,0-11.8-3.3-12.9-10l-2.1-12.9c-7.8-0.6-15.3-0.8-22.5-0.8c-8.9,0-17.3,0.4-25,1.3l-1.7,105.6h96.4c6.7,0,11.4-3.1,14.2-9.4
		c2.8-6.3,4.5-13.5,5.2-21.7c0.7-8.2,4.2-12.3,10.6-12.3c6.1,0,9.2,2.4,9.2,7.1c0,25-1.6,41.5-4.8,49.2c-3.2,7.8-9.9,11.7-20.2,11.7
		h-126c-4.5,0-15-0.1-31.7-0.4c-16.7-0.3-27.9-0.7-33.6-1.3c-5.7-0.6-8.6-3.3-8.6-8.3c0-6.7,2.5-10.8,7.5-12.5s10.7-2.8,17.1-3.3
		c0.8-6.4,1.7-50.9,2.5-133.5c0-77.6-0.6-124.9-1.7-141.9h-7.1c-11.7,0-17.5-3.1-17.5-9.2c0-7.8,5.1-11.7,15.4-11.7
		c35.9,0,66.4-0.2,91.6-0.6c25.2-0.4,48.6-0.8,70.3-1c36.7,0,55.1,12.7,55.1,38c0,7.8-2.8,15-8.3,21.7c-5.6,6.7-13.6,10-24.2,10
		c-9.2,0-16.4-2.6-21.7-7.9C417.1,2876.6,414.5,2869.5,414.5,2860.6z"/>
	<path id="XMLID_4_" d="M635.2,229.9c-12.7-6.8-21.5-20.3-29.4-29.4c-10.7-7.2-21.5-15.1-33.4-21.1c0-0.4,0-0.4-0.4-0.4
		c0,0,0,0-0.4,0c0-0.8-0.4,0,0,0c4,12.3,17.1,28.2,9.9,44.6c-3.6,2-8.4,1.2-11.5,0c-17.1-7.6-24.3-33-24.7-56.1
		c-18.3-8.8-39.8-14.3-60.1-21.1c4.4,8,25.1,31.4,9.5,40.6c-3.6,0.4-6.8-0.4-9.2-1.2c-18.7-7.2-34.2-29.4-39.4-49.3
		c-22.3-6.4-47.3-9.9-74-12.3c9.5,8.8,25.9,17.9,31.4,31.8c3.6,8-0.8,13.5-8.8,14.3c-13.5,0.8-26.7-8.4-35.4-15.9
		c-10.3-8.8-16.7-19.5-21.9-29.4c-23.9,1.6-45.4,6-66,11.1c16.3,5.2,39.8,11.1,43.8,29c2,8.8-2.8,12.3-9.9,13.1
		c-11.9,1.2-25.9-2.4-36.2-6.8c-15.1-6.8-25.9-13.5-31.4-26.7c-26.3,8-52.1,16.7-76,27.9c17.9,6.8,33.4,15.5,45.4,28.6
		c3.2,3.6,9.5,10.3,8.8,16.3c-0.8,5.2-10.3,7.6-17.5,7.6c-32.2,0-49.7-25.1-65.2-43c-23.5,9.9-41.4,25.5-58.5,42.6
		c-4.4,4.4-9.9,16.3-17.1,16.7c-4,0-10.3-3.6-10.7-7.6c-0.4-4,4.4-8.4,6.8-11.5c19.5-24.3,45.8-43,72.4-56.9
		c1.6-17.1,5.6-33.8,11.5-47.3c6-12.7,13.5-27.5,31.4-27.9c15.1,6,14.7,37.4,7.6,52.5c15.9-4.8,34.2-10.7,52.5-14.3
		c-3.2-20.7,7.2-36.6,16.3-48.5c8-10.3,19.1-19.5,34.2-18.7c10.3,16.7-0.8,44.2-8,57.3c19.9-3.2,39.4-6.4,61.3-7.6
		c5.6-21.9,15.5-52.9,35.4-59.7c11.5-4,18.3,2,19.1,11.9c2.4,21.1-8.8,34.6-15.9,46.5c26.7,0,50.9,2.8,74.4,6.4
		c3.2-11.5,10.7-19.1,21.5-25.9c10.7-6.8,31.4-17.5,43-9.2c1.2,7.6-3.2,14.7-6.4,20.7c-4.8,9.2-10.7,17.1-20.3,21.1
		c23.1,7.6,46.6,14.7,66.8,25.1c8.8-8,19.9-19.5,33.4-24.3c7.2-2.8,20.7-3.6,24.3,3.2c3.2,5.6-1.6,14.7-4.4,18.7
		c-5.6,9.2-12.3,13.9-21.1,18.3c9.2,6.4,18.7,12.3,28.2,17.9c23.5-2,42.2,8,52.9,21.5c3.6,4,8.8,10.7,9.2,15.9
		C675.8,238.2,646.4,235.5,635.2,229.9z"/>
	<path id="XMLID_9_" d="M666.4,3233.7c-19.5,24.3-45.8,43-72.4,56.9c-1.6,17.1-5.6,33.8-11.5,47.3c-6,12.7-13.5,27.5-31.4,27.9
		c-15.1-6-14.7-37.4-7.6-52.5c-15.9,4.8-34.2,10.7-52.5,14.3c3.2,20.7-7.2,36.6-16.3,48.5c-8,10.3-19.1,19.5-34.2,18.7
		c-10.3-16.7,0.8-44.2,8-57.3c-19.9,3.2-39.4,6.4-61.3,7.6c-5.6,21.9-15.5,52.9-35.4,59.7c-11.5,4-18.3-2-19.1-11.9
		c-2.4-21.1,8.8-34.6,15.9-46.5c-26.7,0-50.9-2.8-74.4-6.4c-3.2,11.5-10.7,19.1-21.5,25.9c-10.7,6.8-31.4,17.5-43,9.2
		c-1.2-7.6,3.2-14.7,6.4-20.7c4.8-9.2,10.7-17.1,20.3-21.1c-23.1-7.6-46.6-14.7-66.8-25.1c-8.8,8-19.9,19.5-33.4,24.3
		c-7.2,2.8-20.7,3.6-24.3-3.2c-3.2-5.6,1.6-14.7,4.4-18.7c5.6-9.2,12.3-13.9,21.1-18.3c-9.2-6.4-18.7-12.3-28.2-17.9
		c-23.5,2-42.2-8-52.9-21.5c-3.6-4-8.8-10.7-9.2-15.9c-2.8-19.1,26.7-16.3,37.8-10.7c12.7,6.8,21.5,20.3,29.4,29.4
		c10.7,7.2,21.5,15.1,33.4,21.1c0,0.4,0,0.4,0.4,0.4c0,0,0,0,0.4,0c0,0.8,0.4,0,0,0c-4-12.3-17.1-28.2-9.9-44.6
		c3.6-2,8.4-1.2,11.5,0c17.1,7.6,24.3,33,24.7,56.1c18.3,8.8,39.8,14.3,60.1,21.1c-4.4-8-25.1-31.4-9.5-40.6
		c3.6-0.4,6.8,0.4,9.2,1.2c18.7,7.2,34.2,29.4,39.4,49.3c22.3,6.4,47.3,9.9,74,12.3c-9.5-8.8-25.9-17.9-31.4-31.8
		c-3.6-8,0.8-13.5,8.8-14.3c13.5-0.8,26.7,8.4,35.4,15.9c10.3,8.8,16.7,19.5,21.9,29.4c23.9-1.6,45.4-6,66-11.1
		c-16.3-5.2-39.8-11.1-43.8-29c-2-8.8,2.8-12.3,9.9-13.1c11.9-1.2,25.9,2.4,36.2,6.8c15.1,6.8,25.9,13.5,31.4,26.7
		c26.3-8,52.1-16.7,76-27.9c-17.9-6.8-33.4-15.5-45.4-28.6c-3.2-3.6-9.5-10.3-8.8-16.3c0.8-5.2,10.3-7.6,17.5-7.6
		c32.2,0,49.7,25.1,65.2,43c23.5-9.9,41.4-25.5,58.5-42.6c4.4-4.4,9.9-16.3,17.1-16.7c4,0,10.3,3.6,10.7,7.6
		C673.6,3226.1,668.8,3230.5,666.4,3233.7z"/>
</g>
</svg>
