<?xml version="1.0" encoding="utf-8"?>
<!-- Generator: Adobe Illustrator 19.0.0, SVG Export Plug-In . SVG Version: 6.00 Build 0)  -->
<svg version="1.1" id="Layer_1" xmlns="http://www.w3.org/2000/svg" xmlns:xlink="http://www.w3.org/1999/xlink" x="0px" y="0px"
	 viewBox="0 0 720 3456" style="enable-background:new 0 0 720 3456;" xml:space="preserve">
<g id="XMLID_1_">
	<path id="XMLID_2_" d="M535,1281.2c0,4.6-2.3,8.2-6.9,10.9c-4.6,2.6-24.5,4-59.8,4c-27.5,0-43.1-0.8-46.6-2.4
		c-3.5-1.6-5.3-5.2-5.3-10.9c0-7.8,7.1-13.4,21.2-16.9c-1.1-50.1-1.8-92.1-2.1-126c-47,0.7-96.2,1.1-147.7,1.1
		c-1.1,25.4-1.6,51.5-1.6,78.4l0.5,49.2c4.2,0,10.2,2.1,18,6.4c3.9,2.5,5.8,5.7,5.8,9.5c0,3.9-2.5,6.9-7.4,9
		c-4.9,2.1-41.1,3.2-108.6,3.2c-6.4,0-9.5-4.2-9.5-12.7c0-8.8,7.6-14.8,22.8-18l3.2-343.7c-7.4-2.1-13.1-4.1-16.9-6.1
		c-3.9-1.9-5.8-6.8-5.8-14.6c0-4.6,2.4-7.7,7.1-9.3c4.8-1.6,17.9-2.4,39.4-2.4l63,0.5c6.7,0.4,10.1,4.4,10.1,12.2
		c0,6.7-6.5,11.8-19.6,15.4c-1.4,44.8-2.1,110.1-2.1,195.9c52.2,0,101.8-0.5,148.8-1.6c0.7-37.8,1.1-78.4,1.1-121.8l-0.5-69.9
		c-5.6-1.1-11.2-2.4-16.7-4c-5.5-1.6-8.2-5.2-8.2-10.9c0-6.4,3.3-10.6,9.8-12.7c6.5-2.1,31.5-3.2,74.9-3.2c14.5,0,24.6,0.2,30.4,0.5
		c5.8,0.4,8.7,4.6,8.7,12.7c0,5.3-2.4,8.7-7.1,10.3c-4.8,1.6-10.3,2.7-16.7,3.4c0,133.1-0.2,249.1-0.5,347.9
		c8.5,1.1,14.7,2.5,18.8,4.2C533,1270.8,535,1274.8,535,1281.2z"/>
	<path id="XMLID_20_" d="M216,1826.6c-35.3-39.5-53-88.6-53-147.2c0-61.1,17.1-112.3,51.4-153.8c34.2-41.5,80.7-62.2,139.3-62.2
		c65.3,0,117.2,22.1,155.7,66.2c31.8,36.7,47.7,83.1,47.7,139.3c0,65-20.5,119.3-61.4,163.1c-33.9,36-80,54-138.2,54
		C298.4,1885.9,251.3,1866.1,216,1826.6z M240.9,1684.7c0,43.8,10.6,83.5,31.8,119.1c21.2,35.7,48.9,53.5,83.1,53.5
		c39.2,0,69.4-15.7,90.5-47.1c24-35.7,36-80.5,36-134.5c0-40.9-10.2-81-30.7-120.2c-21.5-41.3-52.4-62-92.7-62
		c-32.5,0-59.7,18.4-81.5,55.1C253,1590.2,240.9,1635.6,240.9,1684.7z"/>
	<path id="XMLID_8_" d="M584.8,2063.8c0-7.4-4.1-11.3-12.2-11.6c-8.1,0-31.1,0.7-68.8,2.1c-16.9,0.4-27.9,7.6-32.8,21.7
		c-47.7,130.3-82.3,222.1-103.8,275.3c-29.7-64.9-56.4-124.2-80.2-177.7c-23.8-53.5-40.1-86.5-48.7-99
		c-8.7-12.5-18.5-18.8-29.4-18.8l-51.9-0.5c-12.7,0-19.1,4.2-19.1,12.7c0,9.2,8.3,14.7,24.9,16.4v349.5c-18.4,0-27.5,4.8-27.5,14.3
		c0,6.4,2.6,10.2,7.9,11.4c5.3,1.2,12.3,1.9,20.9,2.1c8.6,0.2,14.4,0.3,17.2,0.3c11.3,0,21.1-0.5,29.4-1.6
		c8.3-1.1,12.4-4.8,12.4-11.1c0-6.7-2.3-10.9-6.9-12.4c-4.6-1.6-11.8-3.3-21.7-5l-3.2-276.9c31.4,72.7,59.4,137.3,83.9,193.8
		c24.5,56.5,39.8,88.5,45.8,96.1c6,7.6,12.7,11.4,20.1,11.4c9.5,0,17.6-6.6,24.4-19.9c6.7-13.2,21.7-51.9,45-116
		c23.3-64.1,47.1-130.5,71.5-199.4c-3.2,131.7-5.3,235.1-6.4,310.3c-14.5,3.9-21.7,8.3-21.7,13.2c0,7.4,2.3,12,6.9,13.8
		c4.6,1.8,29.1,2.8,73.6,3.2c8.8,0,18.7-0.1,29.7-0.3c10.9-0.2,16.4-5,16.4-14.6c0-7.8-7.1-13.4-21.2-16.9l1.6-350
		C576.8,2077.2,584.8,2071.9,584.8,2063.8z"/>
	<path id="XMLID_10_" d="M438.1,2634.6c-27.5,0.4-57.3,0.8-89.2,1.3c-32,0.5-70.7,0.8-116.2,0.8c-13.1,0-19.6,4.9-19.6,14.8
		c0,7.8,7.4,11.6,22.2,11.6h9c1.4,21.5,2.1,81.5,2.1,180c-1.1,104.8-2.1,161.3-3.2,169.4c-8.1,0.7-15.4,2.1-21.7,4.2
		c-6.4,2.1-9.5,7.4-9.5,15.9c0,6.4,3.6,9.9,10.9,10.6c7.2,0.7,21.4,1.2,42.6,1.6c21.2,0.3,34.6,0.5,40.2,0.5h159.9
		c13.1,0,21.6-4.9,25.7-14.8c4.1-9.9,6.1-30.7,6.1-62.5c0-6-3.9-9-11.6-9c-8.1,0-12.6,5.2-13.5,15.6c-0.9,10.4-3.1,19.6-6.6,27.5
		c-3.5,7.9-9.5,11.9-18,11.9H325.3l2.1-134c9.9-1.1,20.5-1.6,31.8-1.6c9.2,0,18.7,0.4,28.6,1.1l2.6,16.4c1.4,8.5,6.9,12.7,16.4,12.7
		c7.1,0,10.6-6.2,10.6-18.5c-0.4-36.7-1.2-57-2.6-60.9c-2.1-6-5.8-9-11.1-9c-5.7,0-9.4,2.8-11.4,8.5c-1.9,5.7-3.6,12.5-5,20.7
		l-59.8,1.1c-1.1-22.9-1.8-85.3-2.1-186.9c17.6-1.1,54-1.6,109.1-1.6c-3.5,7.8-5.3,15.7-5.3,23.8c0,11.3,3.4,20.3,10.1,27
		c6.7,6.7,15.9,10.1,27.5,10.1c13.4,0,23.6-4.2,30.7-12.7c7.1-8.5,10.6-17.6,10.6-27.5C508,2650.7,484.7,2634.6,438.1,2634.6z"/>
	<path id="XMLID_3_" d="M202.9,470.2c-2,17.6-5.9,34.7-11,51.4c-4.6,14.7-9.9,29-16,43.1c-2.9,6.4-5.9,12.7-9.9,18.7
		c-4.8,7-11.6,9.2-19.8,7.9c-6.8-1.1-11-4.8-13.4-11c-2.2-5.7-3.1-11.9-3.1-18c-0.2-7.3,0.2-14.5,0-21.8c0-1.5,1.1-3.5-0.9-4.8
		c-1.8,1.3-2.2,3.3-2.9,4.8l-9.9,26.8c-2.9,7.7-6.4,15.2-10.1,22.6c-0.4,0.7-1.1,1.5-1.5,2.4c-4.6,8.1-7.7,9.9-18,8.6
		c-6.8-0.9-12.5-7-13.8-14.5c-1.1-6.4-0.2-13,0.7-19.6c2-12.7,5.5-25.1,8.6-37.6c3.3-13.2,6.2-26.2,7.7-39.3
		c1.1-9.5,1.3-19.1,0.4-28.6c-0.2-4.4-1.3-8.6-3.1-12.5c-1.1-2-2.2-4-3.5-5.7c-3.5-4.6-8.4-5.7-13.6-4c-4.8,1.3-9.2,3.5-12.7,6.8
		c-2.6,2.2-5.1,4.6-7,7.3c-8.4,10.8-13,22.9-13.8,36.5c-0.9,10.1,2.2,19.6,7.5,28.4c0.9,1.5,2,2.6,3.3,4c1.3,1.3,2.9,1.3,4.6,0.2
		l1.8-1.3c5.1-5.7,8.1-12.5,9.5-20.2c0.4-2-0.4-3.1-2.4-3.7c-0.9-0.2-1.8-1.1-2.4-1.8c-0.4-0.4-0.4-1.3,0.2-1.8
		c0.9-0.7,1.5-1.3,2.6-1.3c12.3-2.4,24,8.8,22.2,21.3c-1.3,8.4-5.7,14.9-13.4,18.9c-10.6,5.3-21.1,4.8-31.7-0.2
		c-6.4-3.3-10.8-8.4-12.5-15.4c-2.9-10.3-3.5-20.7-1.3-31c2.9-12.3,7.7-23.5,14.7-34.1c5.5-7.7,12.5-13.6,21.1-17.4
		c7.3-3.1,14.1-3.1,21.3,0c14.7,6.6,24,17.8,28.6,33.2c3.3,10.3,3.7,20.9,2.4,31.7c-2,16.5-5.9,32.5-10.1,48.6
		c-2.6,9.9-4.8,19.8-5.7,30.1c0,1.1,0.2,2.4,0.2,3.5c0,0.2,0.2,0.4,0.4,0.4c0.4,0.4,1.1,0.4,1.3,0c0.9-1.3,2-2.9,2.6-4.4
		c3.7-7.3,6.8-14.9,9.7-22.9c3.3-8.8,6.6-17.6,10.1-26.6c2.4-6.4,5.9-12.1,9.5-18c2.9-4.8,6.8-5.5,11.9-5.1c4.6,0.7,8.1,3.1,9.7,7.7
		c1.5,3.5,2.2,7.5,2.2,11.4c0,8.6-0.2,16.9-0.2,25.5c-0.2,6.8-0.4,13.6,0.9,20.4c0.4,1.8-0.4,5.1,2.4,5.3c2,0.2,2.6-2.4,3.7-4
		c4.4-8.1,8.1-16.7,11.2-25.3c8.1-21.3,14.5-43.1,18.2-65.3c1.8-9.2,2.9-18.2,2.4-27.7c-0.2-3.7-0.7-7.3-2.2-10.6
		c-0.9-1.8-2.4-2.4-4.4-2.2c-2.9,0.2-5.5,1.8-7.7,3.5c-6.2,4.8-9.5,11.2-11,18.5c-0.9,3.7,0,7.3,2.2,10.3c2,2.9,2.9,3.1,6.4,1.1
		c2-1.1,3.7-1.1,5.7-0.7c3.1,1.1,4,4.6,1.8,7c-1.5,1.8-3.5,2.6-5.9,2.2c-8.1-1.3-15.2-4.6-19.8-12.1c-2.6-4.2-2.9-8.8-1.5-13.4
		c2-6.6,5.3-12.5,10.3-17.4c5.7-5.9,13-7.7,20.7-5.5c8.1,2.2,13.4,7.5,15.4,16C203.8,456.8,203.6,463.6,202.9,470.2z M697,525.4
		c-9.5,20-22.9,39.8-40.2,50.1c-11.9,6.8-30.3,1.3-35.6-12.3c-0.9-2.2-1.6-4.4-2.1-6.6c-7.7,14.6-17.6,25.9-28.6,25.9
		c-12.7-2.9-14.7-8.4-15.4-22.9c-0.4-15.6,1.1-31,5.1-46.2c0.4-2,0.9-3.7,1.1-5.7c0.2-0.4-0.2-0.9-0.4-1.3c-1.1-0.2-1.5,0.9-2,1.8
		c-2.4,4.2-4.8,8.4-6.8,12.7c-5.7,11.6-11.2,23.3-16.7,34.9c-2.9,5.9-4.2,6.8-10.8,6.4c-5.9-0.2-9.2-3.1-10.3-9
		c-1.3-6.8-0.7-13.6,0.9-20.4c0.9-3.5,2-7,2.9-10.6c0.4-1.3,0.9-2.6,0.2-4.2c-2,0.9-2.4,2.6-3.1,4.2c-2.9,6.8-5.9,13.8-8.6,20.9
		c-3.5,9.7-7,19.8-10.3,29.5c-0.7,2.2-1.1,4.4-3.5,5.5c-3.1,1.1-6.2,1.1-9.2-0.2c-2.4-1.1-3.5-3.5-4-5.9c-0.7-3.5-1.3-7.3-1.3-10.8
		c-0.1-6-0.2-12-0.2-17.9c-7.9,7.2-16.9,9.4-18.5,9.5c-2.9,0.7-4.4,2.4-5.7,4.8c-1.5,3.1-3.3,6.2-5.5,8.8
		c-8.1,10.1-18.9,12.3-30.6,6.6c-7.3-3.5-11.9-9-13.6-17.1c-0.4-1.6-0.7-3.2-0.9-4.9c-11.1,15.4-28.2,26.6-45.7,26.6
		c-21,0-30.6-11.5-33.5-25.7c-2.5,7.4-3.7,10.6-6.1,16.7c-2,5.1-4.4,9.9-7.3,14.7c-3.3,5.3-6.8,10.6-11.2,15.2
		c-4,4.6-9.2,6.8-15.4,7c-5.5,0.2-10.1-1.3-14.1-5.1c-5.5-4.8-9.2-11-12.3-17.8c-3.5-7.7-5.5-16-6.6-24.6c-0.7-4.7-1.4-9.4-1.8-14.1
		c-8.2,13-18.2,24.4-30.1,31.5c-11.9,6.8-30.3,1.3-35.6-12.3c-2.2-5.7-3.5-11.2-3.3-17.1c0.2-7.9,1.5-15.4,4.4-22.9
		c3.3-8.4,9.5-13.8,17.8-17.1c6.8-2.4,13.4-1.5,19.8,1.5c4.4,2,6.8,5.3,7.5,9.9c0.9,4.4,0.2,8.4-0.9,12.3
		c-3.3,10.1-9.5,18-17.6,24.6c-1.5,1.3-3.3,2-5.3,2.4c-2.6,0.7-3.1,1.1-2.9,4c0,3.5,0.7,6.8,2,9.9c1.1,2.4,3.1,3.1,5.5,2.2
		c15.6-6.5,27.1-22.1,38.3-43c0.7-21.7,2.9-43.2,9-64.1c2.6-9.5,6.4-18.5,12.5-26.2c4.8-6.2,10.8-11.2,18.7-13.4
		c9-2.9,17.1-0.7,24.4,5.3c4.4,3.7,6.2,8.6,6.6,14.1c0.7,5.7-0.7,11.2-2.4,16.5c-2.9,9-7.3,16.9-12.7,24.4
		c-6.8,9.2-14.1,17.6-22.6,24.8c-2,1.5-3.5,3.3-5.5,4.8c-4.2,2.9-5.7,6.6-5.7,11.6c0,16.7,0.9,33.2,5.1,49.2
		c1.5,5.5,3.5,10.6,6.4,15.4c1.1,1.8,2.2,3.3,3.3,4.8c1.3,1.5,2.9,1.8,4.6,0.2c3.1-2.4,5.7-5.7,8.1-9c4.8-6.8,9-14.1,12.1-21.8
		c2.9-7,6.6-16.9,13-36c0.3-1,0.7-2,1-3c1.1-4.8,2.6-9.4,4.5-13.5c5.1-11,14.3-17.6,26.2-20.2c4.8-1.1,9.2-0.2,13.6,1.1
		c6.4,2,10.6,7.7,10.6,14.5c0.2,9.7-3.5,17.8-10.6,24.6c-2.4,2.4-5.5,3.3-8.8,3.1c-0.9-0.2-2-0.2-2.4-1.3c-0.7-1.1,0.7-1.5,1.3-2
		c7.9-5.3,11.2-13.2,11.6-22.4c0.2-2.4-0.4-4.8-1.5-7c-2-3.5-4.2-4-6.8-0.9c-4.4,5.3-8.1,11-10.8,17.1c-9.9,22.6-5.9,49.9,8.1,49.9
		c17.4,0,34.3-15.5,42.8-32c0.1-1.2,0.2-2.4,0.3-3.6c0.7-4.6,2-9,5.1-12.7c4.4-5.5,12.1-7.3,18.5-4.4c2.4,1.3,3.3,2.6,2.4,5.3
		c-2.2,6.8-3.1,13.8-4.2,20.9c-0.7,5.5-0.7,11-0.2,16.7c0.2,3.1,0.9,6.2,3.1,8.6c2,2.4,4,2.6,6.6,1.3c5.9-3.5,9.7-8.8,12.1-15.2
		c0.2-0.9,0-2-1.1-2.4c-1.3-0.9-3.1-1.5-4.4-2.4c-11-6.8-12.7-17.6-8.6-27.3c4-9.7,16.3-11.4,23.1-3.1c2.4,2.9,3.7,6.2,4,9.9
		c0.2,2.6,0,11.9-0.2,13.8c0,0.9,0.2,1.5,0.9,1.8c0.6,0,10.5-0.8,18.2-13c0-0.3,0-0.6,0-0.9c0-2.4,0.7-4.8,1.1-7.3
		c0.2-2.4,1.3-4.2,3.7-4.6c3.1-0.9,5.9-0.7,8.1,1.8c2.9,3.5,4.4,7.7,5.3,11.9c0.4,2.6,1.1,5.3,1.5,7.9c2.6-0.4,2.6-2.4,3.3-3.7
		c3.1-9,6.8-17.8,11.2-26.2c2.2-4.4,4.8-8.4,8.4-11.9c2.2-2.4,4.8-3.1,7.9-2.9c4.8,0.2,7.7,2.6,8.6,7.5c0.7,4.4,1.3,9,0.9,13.8
		c-0.2,2.9-0.2,5.7,0,8.6c0,0.7,0.4,1.5,0.9,1.8c1.3,0.7,1.8-0.4,2.2-1.3l5.3-10.3c2.6-5.7,5.7-11.4,9-16.7c2.2-3.3,4.6-6.4,7.5-9
		c4-3.5,9-4,13.4-1.1c1.8,1.1,2.6,2.6,3.3,4.6c1.5,4,1.3,8.1,0.7,12.3c-1.3,12.7-4,25.3-5.9,38c-1.3,7.5-3.5,25.7-0.9,26.4
		c8.1,0,18-14.5,24.9-30.2c0.5-6.2,1.8-12.2,4.1-18.2c3.3-8.4,9.5-13.8,17.8-17.1c6.8-2.4,13.4-1.5,19.8,1.5c4.4,2,6.8,5.3,7.5,9.9
		c0.9,4.4,0.2,8.4-0.9,12.3c-3.3,10.1-9.5,18-17.6,24.6c-1.5,1.3-3.3,2-5.3,2.4c-2.6,0.7-3.1,1.1-2.9,4c0,3.5,0.7,6.8,2,9.9
		c1.1,2.4,3.1,3.1,5.5,2.2c16.9-7,29-24.8,41.1-48.4c1.3-2,3.1-3.1,5.5-2.6C697,522.1,697.9,523.4,697,525.4z M641.6,547.4
		c0,0.9,0.2,1.5,1.1,1.8c0.4,0,1.1-0.2,1.3-0.4c6.6-6.2,11.6-13,14.1-21.8c0.4-1.5,0.7-3.3,0.7-4.2c0-2.6,0-4.6-0.7-6.6
		c-0.7-2.2-2.4-2.9-4.4-1.3c-2.2,2-4,4.2-5.3,6.8C644.2,529.8,642,538.4,641.6,547.4z M293,508.7c1.3,0.9,2.2-0.2,3.3-1.1
		c0.2,0,0.2-0.2,0.4-0.4c12.3-11.2,22.4-24.2,29.2-39.6c3.1-6.4,4.8-13.2,5.1-20.4c0-3.5-0.4-7.3-2.2-10.6c-2.4-4.6-4.8-5.3-9.7-3.3
		c-4,2-7,5.1-9.7,8.6c-4.8,6.8-8.1,14.5-10.1,22.4c-1.8,6.6-3.1,13.4-4.2,20c-1.3,7.3-2,14.5-2.6,21.8
		C292.3,506.9,292.6,508.3,293,508.7z M224,547.4c0,0.9,0.2,1.5,1.1,1.8c0.4,0,1.1-0.2,1.3-0.4c6.6-6.2,11.6-13,14.1-21.8
		c0.4-1.5,0.7-3.3,0.7-4.2c0-2.6,0-4.6-0.7-6.6c-0.7-2.2-2.4-2.9-4.4-1.3c-2.2,2-4,4.2-5.3,6.8C226.6,529.8,224.4,538.4,224,547.4z
		 M470.6,537.3c0-4.8-0.9-9.2-3.1-13.4c-0.4-1.1-1.1-2.4-2.6-2.2c-1.3,0-2,1.3-2.4,2.4c-2.4,4.6-3.3,9.7-2.2,14.7
		c0.9,3.5,2.4,6.4,5.3,8.6c1.3,1.1,3.1,0.7,3.5-0.9C469.9,543.4,470.6,540.3,470.6,537.3z"/>
	<path id="XMLID_4_" d="M148.9,688.9c0,7.1-1.3,10.6-3.8,10.6c-2.8,0-4.2-2.1-4.2-6.4c0-3-0.6-5.1-1.7-6.3
		c-1.1-1.1-4.7-1.7-10.7-1.7c-8.4,0-14.1,0.2-17.3,0.7v106.9c5.9,1,8.8,2.5,8.8,4.6c0,2.6-1.3,4.1-3.8,4.4
		c-4.4,0.5-13.7,0.8-28.1,0.8c-2.8,0-5.3-0.1-7.3-0.2c-2.1-0.1-3.1-1.2-3.1-3.3c0-2.2,0.8-3.5,2.5-3.8c1.7-0.4,3.8-0.8,6.3-1.2
		c0.5-25.7,0.8-61.7,0.8-108.2l-18.1-0.7c-3.5,0-6,0.5-7.7,1.5c-1.6,1-2.4,3.4-2.4,7.3c0,4.4-1.3,6.5-3.9,6.5
		c-2.5,0-3.8-2.3-3.8-6.9c0-3.3,0.2-6.4,0.6-9.5c0.4-3.1,1.3-5,2.7-5.7c1.4-0.7,3.2-1.1,5.4-1.1c8.4,0,16.4-0.1,24.1-0.2
		c7.7-0.1,15.3-0.2,22.7-0.2c10.1,0,21.8,0.2,34.9,0.7C146.6,677.8,148.9,681.5,148.9,688.9z M257.4,694.8
		c9.8,11.3,14.7,25.6,14.7,42.9c0,20-6.3,36.8-18.9,50.2c-10.4,11.1-24.6,16.6-42.6,16.6c-18.2,0-32.7-6.1-43.6-18.3
		c-10.9-12.2-16.3-27.3-16.3-45.4c0-18.8,5.3-34.6,15.8-47.4c10.5-12.8,24.9-19.2,42.9-19.2C229.5,674.4,245.5,681.2,257.4,694.8z
		 M249.1,739.8c0-12.6-3.2-25-9.5-37c-6.6-12.7-16.2-19.1-28.5-19.1c-10,0-18.4,5.7-25.1,17c-7.5,12.8-11.3,26.8-11.3,41.9
		c0,13.5,3.3,25.7,9.8,36.7c6.5,11,15.1,16.5,25.6,16.5c12.1,0,21.4-4.8,27.9-14.5C245.4,770.3,249.1,756.5,249.1,739.8z
		 M432.6,694.8c9.8,11.3,14.7,25.6,14.7,42.9c0,20-6.3,36.8-18.9,50.2c-10.4,11.1-24.6,16.6-42.6,16.6c-18.2,0-32.7-6.1-43.6-18.3
		c-10.9-12.2-16.3-27.3-16.3-45.4c0-18.8,5.3-34.6,15.8-47.4c10.5-12.8,24.9-19.2,42.9-19.2C404.8,674.4,420.7,681.2,432.6,694.8z
		 M424.3,739.8c0-12.6-3.2-25-9.5-37c-6.6-12.7-16.1-19.1-28.5-19.1c-10,0-18.4,5.7-25.1,17c-7.5,12.8-11.3,26.8-11.3,41.9
		c0,13.5,3.3,25.7,9.8,36.7c6.5,11,15.1,16.5,25.6,16.5c12.1,0,21.4-4.8,27.9-14.5C420.6,770.3,424.3,756.5,424.3,739.8z
		 M560.3,678.3c-1.5-0.7-5-1-10.3-1c-7,0.1-11.4,0.7-13.4,1.6c-1.2,0.7-1.8,1.7-1.8,3.1c0,1.5,0.5,2.6,1.5,3.2
		c1,0.6,3.5,1.1,7.3,1.5c0.2,19.8,0.3,36.1,0.3,48.8c0,20.9-3,35.9-8.9,45.2c-5.9,9.2-12.8,13.9-20.6,13.9
		c-6.3,0-12.2-3.8-17.8-11.4c-5.5-7.6-8.5-19-8.8-34.1c-0.3-15.1-0.5-28.1-0.5-38.8l0.2-24.1c4.2-0.5,6.6-1.3,7.2-2.3
		c0.5-1,0.8-1.8,0.8-2.4c0-2.7-2.4-4.1-7.3-4.1l-20.6-0.2c-4.2,0-7.4,0-9.5,0.1c-2.1,0.1-3.4,0.5-3.9,1.5c-0.5,0.9-0.8,1.7-0.8,2.2
		c0,0.8,0.3,1.5,1,2.3c1.1,1.3,3.5,2,7.3,2l-0.2,11.4c0.1,17.7,0.2,33.3,0.3,46.7c0,20.2,3.9,35.4,11.6,45.4
		c7.7,10.1,20.3,15.1,37.8,15.1c13.2,0,23.4-5.1,30.7-15.3c7.3-10.2,10.9-27,10.9-50.4c0-8.8,0.2-25.9,0.7-51.4
		c3.4-0.8,5.7-1.3,7-1.7c1.3-0.4,2-1.6,2-3.5C562.6,680,561.9,679,560.3,678.3z M668.5,790.4c0,4.4-1.3,7.6-3.9,9.6
		c-2.6,2.1-5.9,3.1-10,3.1c-7.1,0-13.4-3.1-18.9-9.3c-5.5-6.2-10.9-15.7-16.1-28.5c-5.8,1.1-12,2.1-18.6,2.9
		c-0.1,3.4-0.2,7.3-0.2,11.9c0,4.7,0.2,9.1,0.7,13.2c5.2,0.3,7.8,1.9,7.8,4.7c0,2.5-1.1,3.8-3.3,4c-2.2,0.2-4.5,0.2-6.9,0.2
		c-2.4,0-7.1,0.1-13.9,0.2h-3.8c-4.7,0-7.8-0.2-9.5-0.6c-1.6-0.4-2.4-1.5-2.4-3.3c0-2.6,2.6-4.3,7.8-5.1l1.8-107.8
		c-2.3-0.1-4.3-0.2-6-0.4c-1.7-0.2-2.6-1.6-2.6-4.2c0-2.6,1.7-4,5.1-4.1l18.4-0.2c10.3,0,20.5,0.6,30.4,1.7
		c10,1.1,18.9,5.2,26.9,12.2c8,7,12,16.5,12,28.3c0,20.9-11.3,35.3-33.9,43.2c2.6,11.6,7.9,21,16,28.2c0-4.3,1.1-7.6,3.3-9.9
		c2.2-2.2,5.1-3.3,8.7-3.3c3,0,5.7,1.2,7.8,3.7C667.4,783.5,668.5,786.6,668.5,790.4z M638.5,722.7c0-7.6-1.9-14.5-5.6-20.7
		c-3.8-6.2-8-10.7-12.8-13.4c-4.8-2.7-9.4-4.1-13.9-4.1c-1.5,0-2.8,0.3-3.8,0.8c-1,0.5-1.5,1.8-1.6,3.8l-0.2,70
		c9.1-0.3,16.6-2.4,22.3-6.2C633.3,746.1,638.5,736.1,638.5,722.7z"/>
	<path id="XMLID_6_" d="M712.8,3219.3c0,1-0.2,2.2-0.6,3.6c-4.1,10.3-15.3,17.7-33.7,22.2c-10.1,2.6-18.1,4.1-24,4.3
		c-4.1,0.2-7.5,0.8-10.3,1.7c-2.8,0.9-5.5,3.4-7.9,7.4c-5.5,8.5-10.6,15.6-15.5,21.3c-1.2,1.4-9.8,9.9-25.8,25.5l-0.3,0.9
		c0,0.6,0.6,0.9,1.8,0.9c2.6,0,7.4-1.4,14.3-4.3c8.1-3.4,16.2-5.2,24.3-5.2c7.3,0,14.6,1.5,22,4.4c7.4,2.9,11.8,7.6,13.2,14.1
		c-0.2,2.4-0.8,4.9-1.7,7.3c-0.9,2.4-3.4,4.1-7.4,4.9c-5.7,3.6-13.7,5.5-24,5.5c-4.1,0-8.3-0.3-12.8-0.9c-15.8-2-28-4.7-36.5-7.9
		c-4.7-1.6-7.7-2.4-9.1-2.4c-1.6,0-3.4,0.8-5.5,2.4c-17.4,14-28.5,22.4-33.1,25.2c-12.2,6.9-18.2,11.2-18.2,13.1
		c0.2,0,0.4,0.1,0.6,0.2c0.2,0.1,1.7,0.2,4.6,0.2c7.7-0.4,13.4-0.6,17-0.6c16.6,0,30.9,4.9,42.8,14.6c4.5,4.1,6.7,7.9,6.7,11.5
		c0,2.4-1,4.9-3,7.3c-6.9,6.7-14.6,10-23.1,10c-4.7,0-12-1.7-21.9-5.2c-7.3-2.8-14.1-6.2-20.4-10c-10.9-7.3-18.4-11.7-22.5-13.4
		c-2.2-0.8-4.8-1.2-7.6-1.2c-12.2,1.2-18.7,4.4-19.8,9.4c1,2.6,3.5,6.3,7.6,10.9c7.9,8.3,11.9,14.9,11.9,19.8
		c0,5.5-3.4,8.2-10.3,8.2c-5.5,0-10.1-2.1-14-6.4c-4.5-6.3-7.1-12.3-7.9-17.9c-1.2-7.1-4.4-10.6-9.4-10.6c-2.8,0-6.8,0.9-11.9,2.7
		c-10.3,3.9-19.2,6.7-26.7,8.5c-12.8,3.6-31,5.5-54.7,5.5s-41.9-1.8-54.7-5.5c-7.5-1.8-16.4-4.7-26.7-8.5c-5.1-1.8-9.1-2.7-12.2-2.7
		c-5.1,0-8.1,3.5-9.1,10.6c-0.8,5.7-3.4,11.7-7.9,17.9c-3.9,4.3-8.6,6.4-14.3,6.4c-6.7,0-10-2.7-10-8.2c0-4.9,4-11.4,11.9-19.8
		c4.1-4.7,6.6-8.3,7.6-10.9c-1-5.1-7.6-8.2-19.8-9.4c-3,0-5.6,0.4-7.6,1.2c-4.1,1.6-11.5,6.1-22.5,13.4c-6.3,3.8-13.1,7.2-20.4,10
		c-9.9,3.4-17.2,5.2-21.9,5.2c-8.7,0-16.4-3.3-23.1-10c-2-2.4-3-4.9-3-7.3c0-3.6,2.2-7.5,6.7-11.5c12-9.7,26.1-14.6,42.5-14.6
		c3.6,0,9.4,0.2,17.3,0.6c2.8,0,4.4,0,4.6-0.2c0.2-0.1,0.4-0.2,0.6-0.2c0-1.8-6.1-6.2-18.2-13.1c-4.7-2.8-15.7-11.2-33.1-25.2
		c-2-1.6-4-2.4-5.8-2.4c-1.4,0-4.4,0.8-8.8,2.4c-8.5,3.2-20.7,5.9-36.5,7.9c-4.5,0.6-8.8,0.9-13.1,0.9c-10.1,0-18-1.8-23.7-5.5
		c-4.1-0.8-6.5-2.4-7.4-4.9c-0.9-2.4-1.5-4.9-1.7-7.3c1.4-6.5,5.8-11.2,13.2-14.1c7.4-2.9,14.7-4.4,22-4.4c8.1,0,16.2,1.7,24.3,5.2
		c6.9,2.8,11.6,4.3,14.3,4.3c1.2,0,1.8-0.3,1.8-0.9l-0.3-0.9c-16-15.6-24.6-24.1-25.8-25.5c-4.9-5.7-10-12.8-15.5-21.3
		c-2.4-4-5.1-6.5-7.9-7.4c-2.8-0.9-6.3-1.5-10.3-1.7c-5.9-0.2-13.9-1.6-24-4.3c-18.4-4.5-29.7-11.9-33.7-22.2
		c-0.4-1.4-0.6-2.6-0.6-3.6c0-3.2,1.7-6.1,5.2-8.5c3.8-1.4,7.6-2.1,11.2-2.1c3.8,0,8.6,1.1,14.1,3.2c5.6,2.1,11.1,5,16.6,8.5
		c5.5,3.5,9.1,5.3,10.9,5.3c0.4,0,0.6-0.3,0.6-0.9c0-3.2-1.8-8.6-5.5-16.1c-12.8-33.2-19.1-58.3-19.1-75.4c0-3.6,0.3-7,0.9-10
		c3-9.9,8.6-14.9,16.7-14.9c5.3,0,9.9,3.5,14,10.6c5.1,8.9,7.6,21.9,7.6,38.9v12.2c-0.2,7.3-2.3,17-6.4,29.2c-0.8,2.6-1.2,5-1.2,7
		c0,1,0.1,1.9,0.3,2.7c5.9,15.2,12.2,28.9,18.8,41c4.5,7.7,7.6,11.5,9.4,11.5c1.6,0,2.4-2.5,2.4-7.6c0-2.8-0.2-6.4-0.6-10.6
		c-0.8-7.7-1.2-14.5-1.2-20.4c0-8.9,0.9-15.5,2.7-19.8c2.8-5.9,7.8-8.8,14.9-8.8c10.1,1.6,15.2,9.5,15.2,23.7
		c0,12-4.2,24.8-12.5,38.6c-5.9,7.1-8.8,13.5-8.8,19.1c0,1.6,0.3,3.2,0.9,4.9c4.1,6.1,17.3,18,39.8,35.9
		c9.5,7.1,15.6,10.8,18.2,11.2c0-2.8-4.2-15.5-12.5-38c-2-7.1-3-14.7-3-22.8c0-4.1,0.7-7.6,2.1-10.6c1.8-4.3,4.6-6.4,8.2-6.4
		c2,0,4.3,0.4,6.7,1.2c12,6.3,17.9,22.5,17.9,48.6c0,8.1-0.7,16.1-2.1,24c-0.8,6.3-1.2,10.7-1.2,13.4c0,1.4,0.1,2.3,0.3,2.7
		c1.2,3.4,14.3,11.1,39.2,23.1c17.6,9.3,32.1,15,43.5,17c2,0,3-0.5,3-1.5c0-1.4-2.4-5.3-7.3-11.5c-8.1-10.5-14.5-21.9-19.1-34
		c-3.4-9.1-5.2-16.1-5.2-21c0-3.6,0.9-6.2,2.7-7.6c4.7-3,8.6-4.6,11.9-4.6c9.7,0,18.2,9.3,25.5,28c1.4,3.6,2.7,7.2,4,10.6
		c1.2,3.4,2.4,12.1,3.6,25.8c0.2,7.7,1,13.4,2.4,17c3.6,9.7,25.9,14.6,66.9,14.6c40.9,0,63.2-4.9,66.9-14.6c1.4-3.6,2.2-9.3,2.4-17
		c1.2-13.8,2.4-22.4,3.6-25.8c1.2-3.4,2.5-7,4-10.6c7.1-18.6,15.5-28,25.2-28c3.2,0,7.3,1.5,12.2,4.6c1.6,1.4,2.4,3.9,2.4,7.6
		c0,4.9-1.6,11.9-4.9,21c-4.7,12.2-11,23.5-19.1,34c-4.9,6.3-7.3,10.1-7.3,11.5c0,1,1,1.5,3,1.5c11.3-2,25.8-7.7,43.5-17
		c24.9-12,38-19.6,39.2-23.1c0.2-0.4,0.3-1.3,0.3-2.7c0-2.6-0.4-7.1-1.2-13.4c-1.6-7.9-2.4-15.9-2.4-24c0-26.1,6.1-42.3,18.2-48.6
		c2.4-0.8,4.6-1.2,6.4-1.2c6.9,0,10.3,5.7,10.3,17c0,8.1-0.9,15.7-2.7,22.8c-8.3,22.5-12.5,35.1-12.5,38c2.6-0.4,8.7-4.1,18.2-11.2
		c22.5-17.8,35.8-29.8,39.8-35.9c0.4-1.6,0.6-3.2,0.6-4.9c0-5.7-2.8-12.1-8.5-19.1c-8.5-13.8-12.8-26.6-12.8-38.6
		c0-14.2,5.2-22.1,15.5-23.7c7.1,0,12.1,2.9,14.9,8.8c1.6,4.3,2.4,10.8,2.4,19.8c0,5.9-0.3,12.7-0.9,20.4c-0.6,4.3-0.9,7.8-0.9,10.6
		c0,5.1,0.8,7.6,2.4,7.6c2,0,5.3-3.8,9.7-11.5c6.7-12.2,13-25.8,18.8-41c0.2-0.8,0.3-1.7,0.3-2.7c0-2-0.4-4.4-1.2-7
		c-4.1-12.2-6.1-21.9-6.2-29.2c-0.1-7.3-0.2-11.3-0.2-12.2c0-17,2.5-30,7.6-38.9c4.1-7.1,8.7-10.6,14-10.6c8.1,0,13.7,5,16.7,14.9
		c0.6,3,0.9,6.4,0.9,10c0,17-6.4,42.1-19.1,75.4c-3.9,7.5-5.8,12.9-5.8,16.1c0,0.6,0.3,0.9,0.9,0.9c1.8,0,5.5-1.8,10.9-5.3
		c5.5-3.5,11-6.4,16.6-8.5c5.6-2.1,10.3-3.2,14.1-3.2c3.6,0,7.4,0.7,11.2,2.1C711.1,3213.2,712.8,3216.1,712.8,3219.3z"/>
	<path id="XMLID_7_" d="M712.8,236.7c0,3.2-1.7,6.1-5.2,8.5c-3.9,1.4-7.6,2.1-11.2,2.1c-3.9,0-8.6-1.1-14.1-3.2
		c-5.6-2.1-11.1-5-16.6-8.5c-5.5-3.5-9.1-5.3-10.9-5.3c-0.6,0-0.9,0.3-0.9,0.9c0,3.2,1.9,8.6,5.8,16.1
		c12.8,33.2,19.1,58.3,19.1,75.4c0,3.6-0.3,7-0.9,10c-3,9.9-8.6,14.9-16.7,14.9c-5.3,0-9.9-3.5-14-10.6c-5.1-8.9-7.6-21.9-7.6-38.9
		c0-0.8,0-4.9,0.2-12.2c0.1-7.3,2.2-17,6.2-29.2c0.8-2.6,1.2-5,1.2-7c0-1-0.1-1.9-0.3-2.7c-5.9-15.2-12.2-28.9-18.8-41
		c-4.5-7.7-7.7-11.5-9.7-11.5c-1.6,0-2.4,2.5-2.4,7.6c0,2.8,0.3,6.4,0.9,10.6c0.6,7.7,0.9,14.5,0.9,20.4c0,8.9-0.8,15.5-2.4,19.8
		c-2.8,5.9-7.8,8.8-14.9,8.8c-10.3-1.6-15.5-9.5-15.5-23.7c0-12,4.3-24.8,12.8-38.6c5.7-7.1,8.5-13.5,8.5-19.1
		c0-1.6-0.2-3.2-0.6-4.9c-4.1-6.1-17.3-18-39.8-35.9c-9.5-7.1-15.6-10.8-18.2-11.2c0,2.8,4.1,15.5,12.5,38
		c1.8,7.1,2.7,14.7,2.7,22.8c0,11.3-3.4,17-10.3,17c-1.8,0-4-0.4-6.4-1.2c-12.2-6.3-18.2-22.5-18.2-48.6c0-8.1,0.8-16.1,2.4-24
		c0.8-6.3,1.2-10.7,1.2-13.4c0-1.4-0.1-2.3-0.3-2.7c-1.2-3.4-14.3-11.1-39.2-23.1c-17.6-9.3-32.1-15-43.5-17c-2,0-3,0.5-3,1.5
		c0,1.4,2.4,5.3,7.3,11.5c8.1,10.5,14.5,21.9,19.1,34c3.2,9.1,4.9,16.1,4.9,21c0,3.6-0.8,6.2-2.4,7.6c-4.9,3-8.9,4.6-12.2,4.6
		c-9.7,0-18.1-9.3-25.2-28c-1.4-3.6-2.7-7.2-4-10.6c-1.2-3.4-2.4-12.1-3.6-25.8c-0.2-7.7-1-13.4-2.4-17
		c-3.6-9.7-25.9-14.6-66.9-14.6c-40.9,0-63.2,4.9-66.9,14.6c-1.4,3.6-2.2,9.3-2.4,17c-1.2,13.8-2.4,22.4-3.6,25.8
		c-1.2,3.4-2.5,7-4,10.6c-7.3,18.6-15.8,28-25.5,28c-3.2,0-7.2-1.5-11.9-4.6c-1.8-1.4-2.7-3.9-2.7-7.6c0-4.9,1.7-11.9,5.2-21
		c4.7-12.2,11-23.5,19.1-34c4.9-6.3,7.3-10.1,7.3-11.5c0-1-1-1.5-3-1.5c-11.3,2-25.8,7.7-43.5,17c-24.9,12-38,19.6-39.2,23.1
		c-0.2,0.4-0.3,1.3-0.3,2.7c0,2.6,0.4,7.1,1.2,13.4c1.4,7.9,2.1,15.9,2.1,24c0,26.1-6,42.3-17.9,48.6c-2.4,0.8-4.7,1.2-6.7,1.2
		c-3.6,0-6.4-2.1-8.2-6.4c-1.4-3-2.1-6.6-2.1-10.6c0-8.1,1-15.7,3-22.8c8.3-22.5,12.5-35.1,12.5-38c-2.6,0.4-8.7,4.1-18.2,11.2
		c-22.5,17.8-35.8,29.8-39.8,35.9c-0.6,1.6-0.9,3.2-0.9,4.9c0,5.7,2.9,12.1,8.8,19.1c8.3,13.8,12.5,26.6,12.5,38.6
		c0,14.2-5.1,22.1-15.2,23.7c-7.1,0-12.1-2.9-14.9-8.8c-1.8-4.3-2.7-10.8-2.7-19.8c0-5.9,0.4-12.7,1.2-20.4
		c0.4-4.3,0.6-7.8,0.6-10.6c0-5.1-0.8-7.6-2.4-7.6c-1.8,0-5,3.8-9.4,11.5c-6.7,12.2-13,25.8-18.8,41c-0.2,0.8-0.3,1.7-0.3,2.7
		c0,2,0.4,4.4,1.2,7c4.1,12.2,6.2,21.9,6.4,29.2v12.2c0,17-2.5,30-7.6,38.9c-4.1,7.1-8.7,10.6-14,10.6c-8.1,0-13.7-5-16.7-14.9
		c-0.6-3-0.9-6.4-0.9-10c0-17,6.4-42.1,19.1-75.4c3.6-7.5,5.5-12.9,5.5-16.1c0-0.6-0.2-0.9-0.6-0.9c-1.8,0-5.5,1.8-10.9,5.3
		c-5.5,3.5-11,6.4-16.6,8.5c-5.6,2.1-10.3,3.2-14.1,3.2c-3.6,0-7.4-0.7-11.2-2.1c-3.4-2.4-5.2-5.3-5.2-8.5c0-1,0.2-2.2,0.6-3.6
		c4.1-10.3,15.3-17.7,33.7-22.2c10.1-2.6,18.1-4.1,24-4.3c4.1-0.2,7.5-0.8,10.3-1.7c2.8-0.9,5.5-3.4,7.9-7.4
		c5.5-8.5,10.6-15.6,15.5-21.3c1.2-1.4,9.8-9.9,25.8-25.5l0.3-0.9c0-0.6-0.6-0.9-1.8-0.9c-2.6,0-7.4,1.4-14.3,4.3
		c-8.1,3.4-16.2,5.2-24.3,5.2c-7.3,0-14.6-1.5-22-4.4c-7.4-2.9-11.8-7.6-13.2-14.1c0.2-2.4,0.8-4.9,1.7-7.3c0.9-2.4,3.4-4.1,7.4-4.9
		c5.7-3.6,13.6-5.5,23.7-5.5c4.3,0,8.6,0.3,13.1,0.9c15.8,2,28,4.7,36.5,7.9c4.5,1.6,7.4,2.4,8.8,2.4c1.8,0,3.7-0.8,5.8-2.4
		c17.4-14,28.5-22.4,33.1-25.2C192,98.8,198,94.5,198,92.6c-0.2,0-0.4-0.1-0.6-0.2c-0.2-0.1-1.7-0.2-4.6-0.2
		c-7.9,0.4-13.7,0.6-17.3,0.6c-16.4,0-30.6-4.9-42.5-14.6c-4.5-4.1-6.7-7.9-6.7-11.5c0-2.4,1-4.9,3-7.3c6.7-6.7,14.4-10,23.1-10
		c4.7,0,12,1.7,21.9,5.2c7.3,2.8,14.1,6.2,20.4,10c10.9,7.3,18.4,11.7,22.5,13.4c2,0.8,4.6,1.2,7.6,1.2c12.2-1.2,18.7-4.4,19.8-9.4
		c-1-2.6-3.5-6.3-7.6-10.9c-7.9-8.3-11.9-14.9-11.9-19.8c0-5.5,3.3-8.2,10-8.2c5.7,0,10.4,2.1,14.3,6.4c4.5,6.3,7.1,12.3,7.9,17.9
		c1,7.1,4.1,10.6,9.1,10.6c3,0,7.1-0.9,12.2-2.7c10.3-3.9,19.2-6.7,26.7-8.5c12.8-3.6,31-5.5,54.7-5.5s41.9,1.8,54.7,5.5
		c7.5,1.8,16.4,4.7,26.7,8.5c5.1,1.8,9,2.7,11.9,2.7c5.1,0,8.2-3.5,9.4-10.6c0.8-5.7,3.4-11.7,7.9-17.9c3.8-4.3,8.5-6.4,14-6.4
		c6.9,0,10.3,2.7,10.3,8.2c0,4.9-4,11.4-11.9,19.8c-4.1,4.7-6.6,8.3-7.6,10.9c1,5.1,7.6,8.2,19.8,9.4c2.8,0,5.4-0.4,7.6-1.2
		c4.1-1.6,11.5-6.1,22.5-13.4c6.3-3.9,13.1-7.2,20.4-10c9.9-3.4,17.2-5.2,21.9-5.2c8.5,0,16.2,3.3,23.1,10c2,2.4,3,4.9,3,7.3
		c0,3.6-2.2,7.5-6.7,11.5C575,88.1,560.8,93,544.1,93c-3.6,0-9.3-0.2-17-0.6c-2.8,0-4.4,0-4.6,0.2c-0.2,0.1-0.4,0.2-0.6,0.2
		c0,1.8,6.1,6.2,18.2,13.1c4.7,2.8,15.7,11.2,33.1,25.2c2,1.6,3.8,2.4,5.5,2.4c1.4,0,4.5-0.8,9.1-2.4c8.5-3.2,20.7-5.9,36.5-7.9
		c4.5-0.6,8.7-0.9,12.8-0.9c10.3,0,18.3,1.8,24,5.5c4.1,0.8,6.5,2.4,7.4,4.9c0.9,2.4,1.5,4.9,1.7,7.3c-1.4,6.5-5.8,11.2-13.2,14.1
		c-7.4,2.9-14.7,4.4-22,4.4c-8.1,0-16.2-1.7-24.3-5.2c-6.9-2.8-11.7-4.3-14.3-4.3c-1.2,0-1.8,0.3-1.8,0.9l0.3,0.9
		c16,15.6,24.6,24.1,25.8,25.5c4.9,5.7,10,12.8,15.5,21.3c2.4,4,5.1,6.5,7.9,7.4c2.8,0.9,6.3,1.5,10.3,1.7c5.9,0.2,13.9,1.6,24,4.3
		c18.4,4.5,29.7,11.9,33.7,22.2C712.6,234.5,712.8,235.7,712.8,236.7z"/>
</g>
</svg>
