<?xml version="1.0" encoding="utf-8"?>
<!-- Generator: Adobe Illustrator 19.0.0, SVG Export Plug-In . SVG Version: 6.00 Build 0)  -->
<svg version="1.1" id="Layer_1" xmlns="http://www.w3.org/2000/svg" xmlns:xlink="http://www.w3.org/1999/xlink" x="0px" y="0px"
	 viewBox="0 0 720 3456" style="enable-background:new 0 0 720 3456;" xml:space="preserve">
<g id="XMLID_1_">
	<path id="XMLID_2_" d="M571.5,696.7v21h-9.4c-5,0-8.3,1.1-10.5,2.8c-2.8,1.7-5,4.4-7.2,7.7c-2.2,3.3-7.2,17.6-14.9,43
		c-3.9,11.6-7.7,24.3-11.6,38.1c-16.5,52.9-29.8,91.5-39.2,115.3c-4.4,11.6-9.4,20.4-14.9,25.9c-5.5,6.1-13.2,8.8-23.7,8.8
		c-6.6-1.1-11-2.8-13.2-4.4c10.5-5,17.6-9.9,22.1-15.4c3.9-5.5,8.3-14.9,13.2-28.1c9.4-22.6,24.3-66.7,44.7-133.5l11-35.8
		c2.8-9.4,4.4-16,6.1-18.7c1.7-4.4,5-7.2,8.8-7.7c3.9-0.6,11-1.1,21.5-1.1v-17.6H571.5z M334.4,839.5c-6.1,13.8-13.2,31.4-21.5,51.8
		L298,926.1c-3.3,6.1-7.2,11.6-11,15.4c-3.9,4.4-9.9,8.3-18.2,12.1c2.8,2.8,7.7,5,13.8,5.5c17.1,0,29.8-11.6,38.1-34.2l40.8-97.1
		l-9.9-30.3L334.4,839.5z M439.1,933.8c5-5.5,12.1-20.4,20.4-45.2c8.3-24.3,19.3-58.5,33.1-102c2.8-7.7,6.1-19.3,10.5-34.2
		c4.4-14.9,8.3-25.9,11-33.6c2.8-6.1,6.6-9.9,11-12.1c3.9-1.7,10.5-2.8,18.7-3.3v-21l-105.3,0.6v20.4l23.2,0.6
		c9.9,1.7,14.3,7.7,13.2,17.1c-1.7,8.8-7.7,32.5-19.3,71.7c-11.6,39.2-21.5,68.9-28.7,88.2l-14.9-48.5l-22.1-71.1
		c-11.6-36.9-18.2-57.9-21-62.9c-2.8-5.5-5.5-9.4-8.8-11c-5-3.3-11-5-18.2-5c-7.7,0-14.3,1.7-19.3,5.5c-5.5,3.9-7.7,9.4-6.6,16h5
		c1.7,0.6,3.9,1.7,6.1,3.3c1.7,2.8,2.8,6.1,2.8,10.5v3.9c-0.6,10.5-7.2,30.3-18.7,60.7l-41.4,98.2c-1.7-5.5-7.7-27-17.6-64.5
		c-10.5-37.5-17.6-65.1-22.1-83.3c-1.7-5.5-2.8-10.5-3.3-14.9c-1.1-7.2,2.2-12.1,9.4-13.8l15.4-0.6c0-5,0-9.4,0.6-13.2
		c0-3.9,0-6.1-0.6-7.2l0,0H148.5v20.4h11c7.2,0.6,12.1,1.7,16,3.3c3.9,1.7,7.2,5.5,10.5,11c2.2,3.9,5.5,14.9,10.5,33.1l24.3,86
		l15.4,54c3.3,13.2,5,22.1,5,27l-0.6,5c-1.1,3.3-3.3,5.5-6.1,7.2c1.7,5,4.4,8.3,8.8,11c3.9,2.8,8.8,4.4,14.3,4.4
		c9.4,0,17.6-3.9,24.3-12.1c1.7-2.2,5-7.7,8.8-16.5c3.9-8.3,8.3-19.9,13.8-34.2c3.9-9.4,9.4-23.2,17.1-41.4
		c7.2-18.2,17.6-43.6,30.9-75.5l39.2,121.3c6.6,17.1,9.4,29.2,8.3,35.8c-0.6,2.2-1.1,3.9-1.7,4.4l-3.9,2.8c1.7,5,4.4,8.3,8.3,11
		c3.9,2.8,8.3,3.9,13.2,3.9C425.3,944.8,433.1,941,439.1,933.8z M406,776.1c10.5,34.7,17.6,57.9,21,69.5c0.6-1.1,1.1-3.3,2.8-7.2
		l3.9-12.1l-7.7-24.8c-16-53.5-25.9-83.3-29.8-90.4c-2.8-5.5-6.1-9.4-9.9-11l-5.5-2.2l1.7,3.9C387.3,716.5,395.6,741.3,406,776.1z
		 M237.3,716c1.7,7.2,6.6,28.1,16,61.8c8.8,33.6,14.9,57.4,18.7,70l7.7-18.7c-3.9-12.7-7.7-27.6-11.6-44.1
		c-4.4-16-7.7-28.7-9.9-37.5c-2.8-8.3-3.9-14.3-3.9-18.7c0-2.8,1.1-5.5,3.3-7.7c1.7-1.7,3.3-2.2,5-2.8c1.7-0.6,5-0.6,9.4-0.6h7.7
		v-21h-17.1v17.6h-25.4V716z"/>
	<path id="XMLID_6_" d="M359.7,1275.2H241.2v-24.3h12.7c3.3,0,6.1,0,8.3-0.6c1.7,0,3.3-0.6,5-1.7c1.7-1.7,2.8-3.3,3.3-5.5
		c0.6-2.2,0.6-5,0.6-8.8v-8.3v-174.3c0-5-1.1-8.8-3.9-11c-1.7-1.1-3.3-1.7-6.1-2.2h-9.9c-3.9,0-7.2,0-9.9,0v-21.5h23.2
		c17.6,0,36.9-1.1,57.9-2.8l34.7-1.7c13.8-0.6,27-0.6,39.7-0.6c8.3,0.6,14.3,1.1,19.3,2.2c5,1.1,8.8,2.8,12.7,5.5
		c8.3,6.1,12.1,16.5,12.1,31.4c0,4.4,0,7.2-0.6,8.8c-2.2,9.4-6.1,16.5-12.1,21c-6.1,4.4-12.1,6.1-19.3,5.5c-0.6-16-2.8-27-5.5-33.1
		c-3.3-6.1-9.9-9.9-19.9-12.7c-4.4-1.7-13.2-2.2-25.9-2.2c-12.1,0-23.2,1.1-32.5,2.8c-9.9,2.2-15.4,5-16.5,8.8v73.9h60.7
		c7.2,0.6,12.7,2.2,17.1,5c4.4,3.3,6.6,8.3,6.6,14.9c0,7.2-3.3,13.2-10.5,18.7c-7.2,5.5-14.9,7.7-23.7,7.2
		c0.6-7.2-0.6-11.6-3.9-13.8c-3.9-1.7-11-2.8-21.5-2.8h-25.4v86.6c2.8,5,19.3,7.7,50.2,8.3c18.2,0,33.1-4.4,45.8-12.7
		s18.2-18.2,16.5-30.3c8.3-1.1,14.9,1.1,21,6.1c5.5,5,8.8,11,9.4,17.6c0.6,8.8-1.1,16-5,22.1s-9.4,11-17.6,14.9
		c-8.8,3.9-17.6,6.6-25.9,7.7C393.9,1274.6,379.6,1275.2,359.7,1275.2z M318.9,1234.3c4.4,1.1,9.9,1.7,17.1,2.2v-68.4h12.1v-3.3
		c-1.1-0.6-11-1.1-29.2-1.1V1234.3z M411,1175.9c6.1-4.4,9.4-11,9.4-20.4c-0.6-8.3-6.1-13.8-16.5-15.4c0,6.1-1.1,12.1-3.3,17.6
		c-2.8,6.1-7.7,11-15.4,16c0.6,1.1,0.6,2.2,1.1,3.3v6.6C396.1,1183.1,404.4,1180.3,411,1175.9z M333.8,1050.7
		c-7.2,1.1-12.1,2.2-14.9,3.9v58.5H336v-47.4c0-1.1,1.1-2.8,3.3-4.4c3.3-2.8,8.8-4.4,17.1-5.5c8.3-1.1,18.7-1.7,31.4-2.2
		c-3.9-2.8-14.3-3.9-30.3-3.9C349.2,1049.6,341,1050.2,333.8,1050.7z M475,1233.2c-2.8-6.1-7.7-9.9-14.9-12.1
		c1.1,4.4,1.7,8.8,1.7,13.2c0,14.9-6.6,27-19.3,35.8c-13.2,9.4-30.9,14.3-52.4,15.4c-3.3,0.6-24.8,0.6-64.5,0.6h-56.8v3.9h141.2
		c19.3-0.6,35.3-3.9,46.9-9.9c11.6-5.5,18.7-14.9,21.5-27.6C478.8,1245.4,477.7,1239.3,475,1233.2z M436.4,1088.2v12.1
		c10.5,0.6,18.2-3.3,24.3-10.5c6.1-7.2,8.8-16,8.8-25.9c0-7.2-1.7-14.3-5-20.4c-3.9-6.1-8.8-9.9-16-12.7c2.2,6.1,3.3,12.7,3.3,19.9
		C451.8,1065.6,446.9,1077.7,436.4,1088.2z"/>
	<path id="XMLID_10_" d="M472.5,1574c0,8.3-2.2,16-6.1,22.1c-5,8.3-12.1,13.8-21.5,17.1c-9.4,3.9-19.3,6.1-29.2,6.6
		c-9.9,0.6-23.7,1.1-41.4,1.1h-98.7v-3.3l106.4-0.6c21.5-1.1,39.2-6.6,52.9-16c13.8-9.4,20.4-22.6,20.4-38.6c0-5-0.6-9.4-1.7-14.3
		c6.6,1.7,11.6,5,14.3,9.9C470.8,1563,472.5,1568,472.5,1574z M406.9,1602.2c12.1-2.8,21.5-8.3,28.7-16c6.1-7.2,8.8-15.4,8.8-25.4
		c0-3.9-0.6-7.2-1.7-10.5c-1.7-5-4.4-9.4-8.8-12.1c-4.4-2.8-9.4-4.4-14.3-4.4c-6.1,0-11.6,1.7-16.5,5c2.2,2.8,3.3,6.1,3.3,9.9
		l-0.6,5.5c-1.7,11.6-12.7,19.3-32,23.7c-5,1.7-13.2,2.2-23.7,2.2c-16.5,0-27.6-1.7-32.5-5c-0.6-0.6-1.1-1.1-1.1-2.8
		c-0.6-1.1-0.6-2.8-0.6-4.4v-182.5v-6.6c0-2.8,0-5,0.6-7.2c0.6-1.7,1.7-3.3,3.3-5c1.7-1.1,3.3-1.7,5.5-2.2h7.7h12.7V1343h-98.2v21.5
		c2.8,0,6.1,0,9.9,0h9.9c2.8,0.6,4.4,1.1,6.1,2.2c2.8,2.2,3.9,6.1,3.9,11v180.3v8.3c0,3.9,0,6.6-0.6,8.8c-0.6,2.2-1.7,3.9-3.3,5.5
		c-1.7,1.1-3.3,1.7-5,1.7c-2.2,0.6-5,0.6-8.3,0.6h-12.7v24.3h124.1C383.2,1607.1,394.7,1605.5,406.9,1602.2z M326.9,1567.4
		c3.3,1.1,8.8,1.7,17.1,1.7v-171c0-7.2,0-11.6,0.6-13.2c0.6-1.7,1.7-2.8,3.3-4.4c1.7-1.1,4.4-1.7,7.2-2.2h9.4c3.9,0,7.2,0,9.9,0
		v-21.5h-17.6v18.7h-29.8V1567.4z"/>
	<path id="XMLID_45_" d="M361.9,1938c-20.4,0-39.2-4.4-56.2-12.7c-17.6-8.3-32.5-20.4-44.1-35.8c-17.1-22.6-25.9-50.7-25.9-83.3
		c0-5,0.6-12.1,1.1-21.5c4.4-32.5,17.1-57.9,38.6-77.2c27-22.6,59-34.2,97.1-34.2c8.3,0,16.5,0.6,24.8,1.7
		c18.7,2.2,33.1,6.6,43.6,13.8s15.4,18.7,15.4,34.7c0,6.6-1.1,12.1-2.8,16.5c-1.7,5-3.9,8.3-5.5,9.9c-2.8,3.9-6.1,6.1-9.4,7.2
		c-3.9,1.7-8.8,2.2-16,2.8c0-19.9-2.2-34.2-7.2-43c-5-8.3-14.9-13.8-30.9-15.4l-9.4-0.6c-12.7,0-24.3,1.7-34.7,5.5
		s-18.7,8.3-24.8,13.2c-13.8,9.9-23.7,22.6-30.3,38.1c-6.6,15.4-9.9,32-9.9,50.2c0,7.7,0.6,16,1.7,24.3c5,22.1,14.9,39.7,29.8,53.5
		c14.9,13.8,33.1,21.5,53.5,23.2c33.6,1.1,56.8-12.1,69.5-39.7h6.1c7.2,0.6,12.7,4.4,16,11c1.7,3.3,2.8,7.2,2.8,12.1
		c0,3.9-1.1,7.7-2.8,11.6c-1.7,3.9-3.9,7.2-6.6,9.9c-11.6,12.1-33.6,19.9-66.2,23.2C370.7,1937.5,365.2,1938,361.9,1938z
		 M467.3,1722.4c0,18.2-5.5,32-17.1,40.8v10.5c7.7,0,13.8-1.1,18.2-2.8c3.9-1.7,7.7-6.1,11.6-12.7c2.8-6.6,4.4-13.2,4.4-20.4
		c0-8.3-1.7-16-5.5-23.2s-9.4-12.1-16.5-15.4c1.7,2.2,2.8,5.5,3.9,9.9C466.7,1713.6,467.3,1718,467.3,1722.4z M396.7,1715.2
		c-5.5-2.2-13.2-3.3-23.7-3.3c-3.9,0-8.3,0.6-12.7,1.1c-21,3.9-38.6,13.2-52.4,28.7c-7.2,8.3-12.7,18.2-16.5,29.8
		s-5.5,23.7-5.5,35.8c0,14.9,2.8,28.7,8.8,41.9c5.5,13.2,13.8,23.7,24.3,32c-7.2-11.6-12.1-24.8-14.9-40.8c-1.1-7.2-1.7-14.3-1.7-21
		c0-27.6,8.3-51.3,25.4-70.6C344.3,1729.6,367.4,1718.5,396.7,1715.2z M464.5,1883.4c0.6,4.4,1.1,7.7,1.1,9.4
		c0,18.2-9.9,32-30.3,41.4c-20.4,9.4-45.2,14.3-75.5,14.3c10.5,2.2,21.5,3.3,33.1,3.3c23.7,0,44.7-3.9,62.9-12.1
		c18.2-8.3,27-19.3,27-33.6c0-6.1-1.7-11-5-15.4C474.4,1886.2,470,1884,464.5,1883.4z"/>
	<path id="XMLID_27_" d="M347.6,2268.9c18.2,0.6,36.9-3.9,56.2-12.1c19.3-8.3,34.7-23.2,46.3-44.1c6.1-9.9,11-21.5,14.3-35.3
		c3.3-13.2,5-27,5-40.8c0-25.4-4.4-46.9-13.2-64.5c-9.4-21.5-23.7-38-43.6-50.7c-19.9-12.1-41.4-17.6-64-16.5
		c-24.8-0.6-46.9,3.9-65.6,14.3s-33.6,27-45.2,48.5c-5,9.4-8.3,20.4-11,32c-2.8,11.6-3.9,23.7-3.9,35.8c0,9.4,0.6,18.2,2.2,25.4
		c2.8,21,9.4,39.7,19.9,56.2c10.5,16.5,24.3,29.2,41.9,38.6C304.6,2265,325,2269.4,347.6,2268.9z M273.7,2188.9
		c-7.2-16-10.5-33.1-10.5-51.3c0-19.9,3.3-37.5,10.5-53.5s16.5-28.1,29.2-37.5c12.7-9.4,26.5-13.8,42.5-13.8
		c25.9,0,46.3,9.4,61.2,28.7c14.9,19.3,22.1,44.1,22.1,73.9c0,29.8-6.6,54-20.4,73.3c-13.8,19.3-34.2,29.8-60.7,31.4
		c-16.5,0.6-31.4-4.4-44.1-13.8C290.8,2217,280.9,2204.9,273.7,2188.9z M345.9,2052.2c-6.6,2.2-13.2,6.1-19.3,11.6
		c-11.6,9.9-19.9,22.6-25.9,37.5c-6.1,15.4-9.4,32-9.4,49.1c0,25.4,6.1,48,18.2,67.8c-11.6-8.3-19.9-19.9-25.9-34.2
		s-9.4-29.8-9.4-46.3c0-16.5,2.8-32,8.3-46.9c5.5-14.9,14.3-26.5,25.9-34.7c11.6-8.3,23.7-12.1,37.5-12.1c7.2,0,14.3,1.1,21,3.3
		C359.2,2048.3,352,2050,345.9,2052.2z M497,2151.4c0,35.3-9.4,65.1-28.1,88.8s-44.1,37.5-75.5,41.4c-11,0.6-18.2,1.1-21.5,1.1
		c-11,0-21-1.1-29.2-3.3c27.6,1.1,51.8-5,72.8-17.6c21-12.7,36.9-29.8,48.5-51.8c11.6-22.1,17.1-46.3,17.1-72.2
		c0-22.6-5-45.2-14.3-68.4c-1.7-3.9-3.3-8.3-6.1-13.2c-2.8-5-5.5-8.8-8.3-11.6c1.7,0.6,3.9,2.8,7.7,6.6s6.6,7.7,9.4,10.5
		C487.7,2086.4,497,2116.1,497,2151.4z"/>
	<path id="XMLID_12_" d="M270.9,2589.8h9.9v23.7h-87.1v-2.8h70V2581l1.1,3.9C266.5,2587.6,268.2,2589.3,270.9,2589.8z M537.3,2589.8
		v21h-73.9v2.8h91v-23.7H537.3z M346.5,2508.2l5-12.7l-46.9-110.8c-3.9-9.4-7.7-16-10.5-20.4c-2.8-4.4-7.2-7.7-13.2-10.5
		c1.1,1.7,10.5,23.7,28.7,66.2C327.7,2462.4,339.9,2492.2,346.5,2508.2z M492.6,2454.7l8.8,91c0,0.6,0,2.2,0.6,4.4
		c0,2.2,0.6,4.4,1.1,6.6c0.6,2.2,2.2,4.4,3.9,6.1s4.4,2.2,8.8,2.2h3.3l-17.1-171c-0.6-3.9-1.1-6.6-1.1-9.4c0-3.3,0.6-5.5,2.2-7.2
		s4.4-3.3,8.3-4.4c3.3-0.6,7.2-1.1,12.1-1.1H534v-20.4h-16.5v17.1l-33.1,0.6C486,2387.5,488.8,2415.6,492.6,2454.7z M268.2,2504.9
		l2.2-25.4l-15.4-33.1l-8.3,118.6h17.1L268.2,2504.9z M449.6,2573.8c-1.7,1.7-5,2.2-9.9,2.2h-4.4v23.7h91V2576h-7.2
		c-3.9,0-7.2-0.6-11-1.1c-3.9-0.6-7.2-2.8-10.5-6.1c-2.8-3.3-5-7.2-6.1-12.1c-1.1-5-1.7-10.5-2.2-17.1c0-3.3-0.6-7.2-1.1-11.6
		l-14.3-150l-0.6-8.3c0-3.9,0.6-6.1,1.7-7.7c1.7-1.7,3.9-3.3,7.7-3.9c3.3-0.6,7.7-0.6,12.7-0.6h10.5v-21.5h-37.5
		c-7.2,0-12.7,0-17.1,0.6c-4.4,0.6-8.8,2.2-12.7,4.4c-8.3,5-14.3,11-18.8,18.8c-5,7.7-9.9,18.7-15.4,32.5l-6.1,14.3l-23.2,57.9
		c-16,40.8-25.4,64.5-28.7,71.7l-59-139c-1.7-3.9-3.3-7.2-4.4-10.5c-1.7-3.3-2.8-6.1-3.9-8.8c-3.3-9.4-6.6-16.5-9.4-22.1
		c-3.3-5-7.7-9.9-12.7-13.8c-4.4-2.8-8.8-4.4-13.8-5c-5-0.6-11.6-1.1-19.3-1.1h-40.3v21.5l17.6-0.6c6.1,0,10.5,1.7,12.1,4.4
		c1.7,2.8,2.2,5.5,2.2,8.3l-2.8,35.8c-7.2,99.8-12.1,152.2-14.3,157.2c-3.3,6.1-7.2,9.9-11.6,11c-5,1.7-12.1,2.2-21.5,2.2v23.7h87.1
		V2576h-6.1c-3.3,0-5.5-0.6-7.2-1.7c-2.8-2.2-3.9-6.1-3.9-11c0-5,1.7-28.1,5-70s5.5-72.2,7.2-91c6.1,13.8,16,35.8,28.7,65.1
		c12.7,29.8,24.8,56.8,35.3,81.1c0.6,2.8,2.2,7.2,5,13.8c2.2,6.6,3.3,12.1,3.3,16c0,5-1.7,7.7-5.5,8.3c1.7,4.4,3.9,7.7,7.7,9.9
		c3.9,2.2,7.7,3.3,11.6,3.3c7.7,0,14.3-2.2,19.3-6.1s8.8-9.4,12.1-17.1c2.8-7.2,5-12.1,6.1-14.3c7.7-18.2,18.7-45.2,33.1-80
		c14.3-34.7,25.4-61.2,32.5-80l15.4,158.3v5.5C452.4,2569.4,451.3,2572.2,449.6,2573.8z M379,2571.6c-4.4,10.5-8.8,18.7-12.7,24.3
		c-3.9,6.1-10.5,9.9-18.7,12.7c3.9,3.3,8.3,5,14.3,5c13.8,0,24.3-7.2,30.9-22.1c2.2-5,7.7-17.1,16-37.5
		c8.3-19.9,14.3-34.2,18.2-42.5l7.7-18.8l-4.4-46.3C409.9,2498.8,392.8,2540.8,379,2571.6z"/>
	<path id="XMLID_39_" d="M357.5,2704c16,0,26.5,1.1,30.3,3.9c-12.7,0.6-23.2,1.1-31.4,2.2c-8.3,1.1-13.8,2.8-17.1,5.5
		c-2.2,1.7-3.3,3.3-3.3,4.4v47.4h-17.1V2709c2.8-1.7,7.7-2.8,14.9-3.9C341,2704.5,349.2,2704,357.5,2704z M475,2887.6
		c-2.8-6.1-7.7-9.9-14.9-12.1c1.1,4.4,1.7,8.8,1.7,13.2c0,14.9-6.6,27-19.3,35.8c-13.2,9.4-30.9,14.3-52.4,15.4
		c-3.3,0.6-24.8,0.6-64.5,0.6h-56.8v3.9h141.2c19.3-0.6,35.3-3.9,46.9-9.9c11.6-5.5,18.7-14.9,21.5-27.6
		C478.8,2899.8,477.7,2893.7,475,2887.6z M318.9,2888.7c4.4,1.1,9.9,1.7,17.1,2.2v-68.4h12.1v-3.3c-1.1-0.6-11-1.1-29.2-1.1V2888.7z
		 M436.4,2742.6v12.1c10.5,0.6,18.2-3.3,24.3-10.5c6.1-7.2,8.8-16,8.8-25.9c0-7.2-1.7-14.3-5-20.4c-3.9-6.1-8.8-9.9-16-12.7
		c2.2,6.1,3.3,12.7,3.3,19.9C451.8,2720,446.9,2732.1,436.4,2742.6z M411,2830.3c6.1-4.4,9.4-11,9.4-20.4
		c-0.6-8.3-6.1-13.8-16.5-15.4c0,6.1-1.1,12.1-3.3,17.6c-2.8,6.1-7.7,11-15.4,16c0.6,1.1,0.6,2.2,1.1,3.3v6.6
		C396.1,2837.4,404.4,2834.7,411,2830.3z M402.2,2927.9c8.3-1.1,17.1-3.9,25.9-7.7c8.3-3.9,13.8-8.8,17.6-14.9
		c3.9-6.1,5.5-13.2,5-22.1c-0.6-6.6-3.9-12.7-9.4-17.6c-6.1-5-12.7-7.2-21-6.1c1.7,12.1-3.9,22.1-16.5,30.3s-27.6,12.7-45.8,12.7
		c-30.9-0.6-47.4-3.3-50.2-8.3v-86.6h25.4c10.5,0,17.6,1.1,21.5,2.8c3.3,2.2,4.4,6.6,3.9,13.8c8.8,0.6,16.5-1.7,23.7-7.2
		s10.5-11.6,10.5-18.7c0-6.6-2.2-11.6-6.6-14.9c-4.4-2.8-9.9-4.4-17.1-5h-60.7v-73.9c1.1-3.9,6.6-6.6,16.5-8.8
		c9.4-1.7,20.4-2.8,32.5-2.8c12.7,0,21.5,0.6,25.9,2.2c9.9,2.8,16.5,6.6,19.9,12.7c2.8,6.1,5,17.1,5.5,33.1
		c7.2,0.6,13.2-1.1,19.3-5.5c6.1-4.4,9.9-11.6,12.1-21c0.6-1.7,0.6-4.4,0.6-8.8c0-14.9-3.9-25.4-12.1-31.4
		c-3.9-2.8-7.7-4.4-12.7-5.5c-5-1.1-11-1.7-19.3-2.2c-12.7,0-25.9,0-39.7,0.6l-34.7,1.7c-21,1.7-40.3,2.8-57.9,2.8h-23.2v21.5
		c2.8,0,6.1,0,9.9,0h9.9c2.8,0.6,4.4,1.1,6.1,2.2c2.8,2.2,3.9,6.1,3.9,11v174.3v8.3c0,3.9,0,6.6-0.6,8.8c-0.6,2.2-1.7,3.9-3.3,5.5
		c-1.7,1.1-3.3,1.7-5,1.7c-2.2,0.6-5,0.6-8.3,0.6h-12.7v24.3h118.6C379.6,2929.5,393.9,2929,402.2,2927.9z"/>
	<path id="XMLID_218_" d="M691.1,261.9h-75c-0.2-0.5-0.3-1.1-0.4-1.6c0.4,0.2,0.8,0.3,1.1,0.3c1.3,0,2-1,1.9-2.8c0-2.8-2-7.3-6-13.4
		c-1.6-2.3-3.1-4.3-4.5-6.1c-4.7-12.1-10.3-23.9-16.7-35.2c0.4,0.2,0.9,0.5,1.3,0.7c3.9,2,7.6,4.1,11.1,6.4
		c4.2,2.9,8.3,6.6,12.3,11.3c4.5,5.4,7.6,8.1,9.3,8.1c1.2,0,1.8-0.6,1.8-1.8c0-2.1-3.7-7.8-11-17.1c-1.9-2.3-3.4-4.2-4.5-5.7
		c-8.7-10.9-19.7-18.3-33-22.3c-0.1,0-0.2,0-0.3-0.1c-1.1-1.5-2.1-3-3.2-4.5c-3.5-4.8-7.2-9.5-11-14c0.7,0.2,1.5,0.5,2.3,0.7
		c16.6,6,28.7,11.5,36.2,16.6c2.4,2.3,4.1,3.4,5,3.4c0.3,0,0.5-0.2,0.5-0.5c0-0.3-0.1-0.8-0.3-1.3c-1.1-2.5-2.8-4.7-4.9-6.5
		c-11.8-10.8-26.8-19.6-44.9-26.5c-3.2-1-6.1-1.7-8.7-2.2c-6.4-6.4-13.1-12.5-20.1-18.2c12.8,1.6,25.5,4.1,38.1,7.6
		c0.8,0.2,1.9,0.6,3.3,1.3c5.1,1.9,8.5,2.8,10.4,2.8c0.8-0.3,1.1-0.8,1.1-1.5c0-0.9-0.7-2-2-3.3c-7.2-7-14.9-12-22.9-15.1
		c-9.4-3.7-20.6-5.4-33.6-5.2c-3.8,0.1-7.4,0.3-10.9,0.8c-19.6-13.7-41-24.7-63.6-32.6c-1.3-0.5-2.6-0.9-3.9-1.3
		c-0.8-3.2-3.6-5-8.5-5.2c-1.1,0.4-2.1,1-2.9,1.7c-19.5-5.5-39.6-8.7-59.7-9.6c-0.1-0.2-0.2-0.4-0.2-0.6c0-0.8,1.8-1.6,5.3-2.4
		c6.1-1.6,12-3.8,17.9-6.8c2.4-0.9,4.4-1.4,6.2-1.5c1.8-0.1,3.4-0.4,4.8-1c1.4-0.6,2.5-2,3.3-4.3c0.5-1.7,0.8-3.3,0.9-4.6
		c0.1-2.1-0.4-3.7-1.6-4.9c-1.2-1.2-2.7-1.8-4.5-1.9c-3.8-0.2-7.2,1.3-10.1,4.4c-0.9,1.2-1.3,2.3-1.4,3.2c-0.1,1.3,0.1,2.3,0.4,3.1
		c0.3,0.8,0.4,1.5,0.4,2.1c-0.1,2-5.4,4.5-15.8,7.6c-8.5,3.3-15.7,4.8-21.7,4.5c-0.2,0-0.4-0.1-0.5-0.2c-4.5-0.7-11.4-1.2-20.8-1.7
		c-7.3-0.3-11.1-0.7-11.4-1.1c0-0.5,1.9-2.1,5.8-4.8c5.8-3.8,10.2-7.1,13.1-10l4.2-4.1c1.3-0.9,2.6-1.3,3.9-1.2
		c1.8,0.1,3.5-0.4,5.1-1.3c2.3-1.6,3.5-3.7,3.6-6.3c0.2-4.3-0.3-7.7-1.6-10.3c-0.7-1.4-2.4-2.2-5.1-2.3c-7.3-0.3-11.8,3-13.5,10
		c0,1.4,0.7,3.3,2,5.8c0.5,0.8,0.9,1.5,1,2c-0.1,1.3-0.9,2.6-2.6,4c-4.2,3.6-7.8,6.1-10.6,7.5c-9.4,6.9-18.2,11.4-26.7,13.5
		c-2.7,0.6-5.9,1.5-9.5,2.9l-2.6,0.7c0-0.2,0.6-1,1.7-2.2c2.7-2.4,4.8-5.2,6.4-8.3c1.6-3.1,3.4-5.3,5.4-6.5c2-1.2,3.1-3,3.2-5.3
		c0.1-1.3-0.3-2.6-1-4c-1.1-2.1-3.1-3.3-6.1-3.4c-1.6-0.1-3.2,0.5-4.7,1.9c-1.5,1.3-2.3,3-2.4,5.1c-0.1,1.8,0.6,3.3,2.1,4.3
		c1,0.9,1.5,1.7,1.4,2.7c-0.3,1.1-1.4,2.9-3.4,5.4c-5.3,7.3-11.5,12.7-18.6,16.3c-10.6,5.4-20.3,12.1-29.1,19.9
		c-26.1,12.7-50,29.6-70.7,50c-1.3,0.5-2.6,1-4.1,1.4c-0.6,0.2-0.9,0.2-1,0.1c-0.1-0.1,0.9-2.2,3.1-6.4c4-9.4,6.5-19.3,7.5-29.6
		c0.3-2.7,0-4.4-1-5.1c-2.7-2-8.2,2.5-16.5,13.6c-5,6.7-8,14.3-9,23c-0.4,3-0.1,6.2,1,9.6c0.3,1.5,0.1,2.8-0.6,3.7
		c-0.5,0.6-5.1,4.1-13.8,10.3c-3.6,2.9-8.4,8.3-14.4,16.3c-0.6,1-1.4,2.1-2.3,3.3c-2.7,3.4-4.3,4.8-5,4.3c-0.6-0.4-0.5-2.4,0-5.8
		c0.3-2.7,0.5-5.3,0.6-7.8c0.1-2.5,0.3-5.3,0.7-8.3c0.1-1.1,0.1-2.2,0.1-3.5c0-1.2,0-2.3,0.1-3.1c0.3-1.6,0.6-4.6,0.7-9
		c0.1-3.4-0.3-5.4-1.1-6c-0.6-0.5-1.5-0.4-2.6,0.2c-1.1,0.6-2.2,1.5-3.2,2.8c-1,1.3-1.8,2.2-2.3,2.9c-6.3,8.7-10.1,17-11.6,24.7
		c-0.1,1.1-0.2,2.2-0.5,3.3c-0.2,1.1-0.3,2.7-0.2,4.8c-0.1,4.9,0.3,9,1.1,12.2c0.8,3.3,2.3,6.6,4.7,10.1c1.6,2.3,2.3,4.2,2.1,5.7
		c-0.2,1.5-0.7,3.1-1.7,5c-0.5,0.9-1.1,2-1.6,3.3c-2.8,6.6-4.8,12.6-6.1,18.1c-1.3,5.5-2.5,11.8-3.6,18.9c-0.2,1.1-0.4,2-0.5,2.8
		h-2.2c-0.4-1.4-0.8-3.4-1.2-5.9c-1.8-5.4-3.5-10.8-5.2-16.3c-1.7-5.5-5.2-11.3-10.3-17.3c-0.6-0.6-1.1-1.3-1.6-2.1
		c-0.5-0.8-1.3-1.6-2.5-2.6c-1.3-1-2.6-0.9-3.8,0.2c0.2,0.7,0.4,1.2,0.6,1.5c0.2,0.3,0.2,1.1-0.2,2.6c-1.9,8.5-2.3,17-1.1,25.4
		c0.6,5.5,2.2,10.4,4.9,14.5H28.9c-3.5,0-6.3,2.8-6.3,6.3c0,3.5,2.8,6.3,6.3,6.3h662.1c3.5,0,6.3-2.8,6.3-6.3
		C697.4,264.7,694.5,261.9,691.1,261.9z M582.1,197.7c6.3,10.2,11.9,20.9,16.8,31.9c-1.5-0.9-3.5-2.1-6-3.6
		c-5.7-11.4-12.2-22.5-19.5-33C574.4,193.1,577.4,194.7,582.1,197.7z M554,160.3c6.1,6.8,11.9,13.8,17.2,21.2
		c-1.3-0.2-2.5-0.4-3.4-0.7c-2.4-0.9-5.5-4-9.3-9c-1.3-2.1-3.2-4.3-5.7-6.8c-3.6-3.8-5.5-6.1-5.9-7C548.1,158.2,550.5,159,554,160.3
		z M512.5,127.2l6.5,1c7.5,5.7,14.7,11.8,21.5,18.3c-3.1-0.6-5.7-1.5-7.7-2.5c-3-1.5-7.8-5-14.5-10.5c-3.8-2.8-5.8-4.6-6.2-5.3
		c-0.1-0.1-0.2-0.3-0.2-0.5C512,127.4,512.2,127.3,512.5,127.2z M432.2,89.2c0.7,0,1.5,0.3,2.5,0.8c1,0.5,2.4,0.8,4.4,0.9
		c2.6-0.3,4.4-1.1,5.4-2.5c21.2,7.2,41.4,17.1,60.1,29.4c-0.3,0-0.5,0-0.8,0c-4.8,0.1-10.2-1.6-16-5c-3.5-2.5-7.7-4.1-12.5-5
		c-10.2-5.2-20.8-9.7-31.6-13.5c-5.1-1.8-10.2-3.4-15.4-4.9C430.2,89.3,431.6,89.2,432.2,89.2z M410.3,79.4c6.5,1.2,13,2.7,19.4,4.5
		c-0.8,0.4-1.6,0.7-2.5,0.9c-1.5,0.3-5,0.3-10.4,0c-3.1-0.1-6.3-0.9-9.4-2.4c-4.3-2.1-8.4-3.9-12.2-5.4
		C400.2,77.7,405.2,78.5,410.3,79.4z M361.3,75c5.4,1.2,11.9,3.2,19.4,5.9c-6.9-0.6-13.9-1-20.9-1.1c-0.1-0.1-0.2-0.2-0.3-0.3
		c-2.5-2.1-4-3.6-4.5-4.4C357.2,75,359.3,75,361.3,75z M345.3,75.5c1,0.5,2.1,1.1,3.2,1.8c1.4,0.7,2.7,1.6,4,2.4
		c-17.5,0.2-34.9,2.2-52,5.9c-1.9-0.7-3.8-1.3-5.8-1.9C311.3,79.3,328.2,76.6,345.3,75.5z M288.1,79.7c10.8-3.7,22-6,33.4-6.9
		c-11.9,1.8-23.6,4.4-35.1,7.8c-0.2,0.1-0.4,0.1-0.6,0.2C286.2,80.5,287,80.2,288.1,79.7z M245,102.6c2.3-1.1,4.6-2.3,6.9-3.4
		c10.3-4.8,20.9-8.9,31.8-12.3c2.4,0.3,4.6,0.6,6.7,1c-3.1,0.8-6.3,1.7-9.4,2.6c-13.5,4-26.7,9.1-39.4,15.2
		C242.7,104.7,243.8,103.6,245,102.6z M235.8,107.5c0,0.1-0.1,0.2-0.1,0.3c0,0.3,0,0.6,0.1,0.8c-8,4.1-15.8,8.6-23.3,13.5
		C220.1,116.8,227.8,111.9,235.8,107.5z M141.8,172.9c1.7-2.3,6.2-5.6,13.5-9.8l6.2-4.2c1.6-1.1,3.3-2.2,5.2-3.3
		c-3.8,4.2-7.5,8.5-11.1,12.9c-1.1,1.4-2.2,2.7-3.2,4.1c-2.2,0.5-4.4,1.2-6.7,1.9c-2.3,0.6-3.7,0.7-4.3,0.2
		C140.9,174.5,141.1,173.9,141.8,172.9z M109.8,222.7c4.5-10.4,9.8-20.4,16.1-30c1.3-1.8,2.5-2.8,3.5-3c1-0.3,2.3-0.2,3.9,0.1
		c1.7,0.4,3.9,0.7,6.3,0.9c-4.5,7-8.7,14.1-12.5,21.5c-0.1,0.2-0.2,0.4-0.3,0.6c-5.6,4-10.1,7.5-13.4,10.7c-3,2.5-4.7,3.6-5,3.4
		C108.1,226.6,108.5,225.2,109.8,222.7z M105,261.9h-6c0.5-6,1.3-9.7,2.5-11.3c0.9-1.2,3.4-2.6,7.5-4.2c0.6-0.2,1.3-0.5,1.9-0.8
		C108.8,250.9,106.8,256.4,105,261.9z M583.6,261.9H112.9c2.1-7.4,4.6-14.6,7.3-21.8c7.3-5.3,14.8-13,22.5-23.3
		c5.6-7.4,7.1-12,4.7-13.8c-1.6-1.2-4.1-0.8-7.5,1.1c-1,0.6-2,1.2-2.9,1.9c3.2-5.1,6.7-10.2,10.3-15.1c2.6,0,5.5-0.1,8.7-0.3
		c13.3-0.4,23.6-3.4,30.8-9c1-0.7,1.7-1.4,2.2-2c0.8-1.1,0.6-2.2-0.7-3.1c-0.6-0.5-1.8-1.1-3.5-1.7c-6.1-2.9-12.7-4.2-19.8-4
		c-0.5,0-0.9,0.1-1.4,0.1c7.6-8.4,15.8-16.4,24.4-23.8c0.8,0.2,1.7,0.5,2.8,0.9c3.5,1.6,6,2.7,7.5,3c10.3,3.4,22.2,1.1,35.7-6.8
		c2.7-1.3,4.5-2.5,5.4-3.7c0.6-0.7,0.5-1.4-0.1-1.8c-1.8-1.3-6.4-2.9-14-4.7c-6.3-1.8-10.4-2.8-12.4-2.8c-1.6,0-3.1,0.2-4.7,0.4
		c12.1-8.5,24.9-15.9,38.3-22.1c17.5-8.2,35.9-14.3,54.7-18.4c1.6,0.6,3,1.3,4.3,2l2.2,1.1c0.7,0.7,1.1,1.8,1.2,3.2
		c1.4,5.5,4.8,8.4,10.2,8.6c2.4,0.1,4.5-0.5,6.1-1.9c1.6-1.4,2.5-3.2,2.6-5.3c0.2-4.2-2.7-6.4-8.7-6.7c-4.4-0.2-7.5-0.9-9.5-2.2
		c-0.3-0.1-0.5-0.3-0.8-0.4c16.6-3.1,33.4-4.5,50.3-4.4c1,0.9,1.9,1.9,2.9,2.9c0.4,0.6,0.9,1.1,1.3,1.5c1.1,1.1,1.9,2.1,2.4,3
		c0.5,0.9,0.7,2.3,0.8,4.1c0.1,5.9,2.9,9.8,8.5,11.7c1.4,0.5,2.7,0.8,4,0.9c0.8,0,1.9-0.1,3.1-0.4c1.3-0.3,2.3-1.7,3.2-4.4
		c0.3-1.1,0.4-2.2,0.5-3.1c0.3-5.5-3.6-8.5-11.6-8.9c-1.7-0.1-3.3-0.9-4.6-2.5c-1.4-1.7-2.8-3.2-4.1-4.7c10,0.3,19.9,1.2,29.8,2.7
		c2.2,3.3,5,9.1,8.5,17.6c2.3,6,3.4,9.9,3.3,11.8c0,0.7-0.2,1.4-0.6,2.1c-0.7,0.7-1.1,1.9-1.2,3.6c-0.1,2,0.6,3.5,2,4.7
		c1.4,1.2,3.1,1.8,4.9,1.9c0.5,0,1.4,0,2.9-0.1c1.5-0.1,2.7-1.2,3.9-3.2c0.5-1.1,0.8-2.2,0.8-3.1c0.1-2.9-2-5-6.3-6.4
		c-1.5-0.5-2.5-1.4-2.9-2.5c-0.5-1.1-0.9-2.9-1.2-5.2c-0.9-5-2.6-10.3-5-15.9c-0.9-1.4-1.3-2.5-1.2-3.2c0-0.5,0.3-0.7,0.9-0.7
		c0.1,0,0.1,0,0.2,0c0.1,0,0.2,0,0.3,0.1c0.3,0.1,0.7,0.2,1.2,0.4c4.3,1.8,9,4.6,14,8.5c10.1,7.9,15.4,12.6,16.2,14.1
		c0.4,1.1,0.6,2.7,0.5,5c0,2.3,0.6,4.4,1.9,6.3c1.3,2,3.1,3.2,5.4,3.6c5.9,0.3,9.7-2.9,11.4-9.5c0.7-1.6,1-3.1,1.1-4.6
		c0-0.6,0-1.5-0.1-2.7c-0.1-1.2-1.3-2.4-3.6-3.6c-1.8-1-3.3-1.5-4.4-1.6c-1.2-0.1-2.6,0.3-4.4,1c-1.3,0.4-2.4,0.6-3.3,0.5
		c-2.1-0.1-5.5-2.6-10.2-7.4c-2.4-2.3-3.7-3.5-3.8-3.5c-1-0.8-1.8-1.5-2.4-2.1c23.8,6.4,46.6,16.3,67.5,29.1c0,0.9-0.2,1.9-0.6,3.2
		c-2.5,7.9-3.7,14.9-3.6,20.9c0.1,3.3,0.5,6.6,1.2,10.1c0.8,3.4,1.5,6.8,2.1,10.2c0.7,4,1.7,8.4,2.8,13.1c2.1,8.5,3.2,14.5,3.3,18
		l0.1,5.4c0.1,3.7,0.6,5.6,1.7,5.6c0.5-0.1,1-0.8,1.4-2.2c2.2-10.4,3.3-19.5,3.2-27.1c0-2.3,0-4.2,0.1-5.6l-0.2-4.1l0-9.9
		c-0.1-3.6-0.3-7.1-0.8-10.5c-0.2-1.2-0.4-2.4-0.5-3.5c-0.1-1.1-0.3-2.7-0.6-4.5c-0.8-4.6-1.3-8.4-1.3-11.5c0-0.9,0-1.5,0.1-2
		c0.1-0.1,0.1-0.1,0.2-0.2c7.7,5.1,15.1,10.6,22.2,16.5c0,0,0,0,0,0c0,1-0.2,2.2-0.8,3.6c-1.7,4.5-2.5,9.2-2.4,14l0.3,5.9
		c1.1,16,1.8,28.9,2,38.7c0.2,9.3-0.3,16.6-1.3,21.9c-0.5,1.2-0.8,2.7-0.7,4.4c0,0.3,0.1,0.5,0.3,0.7c2.1,0,4.8-5.8,8.3-17.2
		c1.8-5,3.1-10,3.9-15c0.6-5.6,0.8-11.2,0.7-16.9c-0.1-7.9-1.2-17.3-3.1-28.4l-0.2-3.3c0-1.1,0.2-1.8,0.7-1.9
		c3.7,3.3,7.4,6.8,10.9,10.4c1.2,1.2,2.3,2.4,3.5,3.6c0.3,0.4,0.6,0.8,0.9,1.2c1.7,1.9,2.8,3.2,3.5,3.7c0.4,0.3,0.7,0.6,1,1
		c0.2,0.3,0.5,0.5,0.7,0.8c1.2,1.4,1.8,2.9,1.8,4.3c0,0.8-0.1,1.6-0.3,2.6c-2.5,5.4-3.9,9.8-4.1,13c-0.1,1.3-0.1,4.1,0,8.2
		c0.5,8.9,0.8,17.7,1.1,26.6c-0.8,9.1-1.3,15.1-1.5,18.1c-0.2,3-0.5,5.2-0.9,6.6c-0.4,1.4-0.6,2.7-0.6,3.8c0,1.1,0.7,1.7,2,1.8
		c2.1-0.6,5.2-10.5,9.5-29.7c2-6.2,2.9-14.8,2.9-25.8c0-1.3-0.1-2.9-0.3-4.7c-0.2-1.8-0.3-4.2-0.4-7.1c0-1.5,0.2-2.3,0.6-2.3
		c1.6,0,5.5,5.8,11.6,17.4c1.2,2.5,2.6,5,4,7.4c1.4,2.4,2.1,4.4,2.1,5.8c0,1.1-0.3,2.2-0.9,3.5c-3.8,6.5-6.6,13.7-8.3,21.5
		c-0.2,0.2-0.7,2.3-1.5,6.1c-0.7,3.1-1.1,5.7-1,7.7c0,1.9,0.5,2.8,1.5,2.8c1.8,0,4.1-3.5,7.1-10.3c2.6-6.3,4.3-11.2,5.1-14.9
		c0.8-3.6,1.4-5.4,2-5.5c0.5,0,1.2,0.9,1.9,2.8c2.2,5,3.3,10,3.4,14.9C586.8,251.6,585.8,256.8,583.6,261.9z M594.2,261.9
		c-0.1-2-0.2-3.8-0.6-5.5c-2.2-9.6-3.4-16.6-3.5-21.1c0-0.9,0.2-1.4,0.6-1.6c4.3,9.2,8.1,18.6,11.3,28.2H594.2z M607.5,261.9
		c-2.2-6.8-4.7-13.6-7.5-20.3c2.4,2.3,4.5,4.5,6.2,6.4c1.6,4.6,3.1,9.2,4.4,13.9H607.5z"/>
	<path id="XMLID_194_" d="M691.1,390.1H28.9c-3.5,0-6.3,2.8-6.3,6.3c0,3.5,2.8,6.3,6.3,6.3h56c5.6,4,10.6,5.9,15,5.7
		c1.5,6,3.2,12,5.2,17.9c-0.2,0-0.3,0-0.5,0.1c-1.8,0.6-2.7,1.9-2.6,4c0,0.5,0,1,0.2,1.4c0.3,1,0.9,1.7,1.8,2.4
		c0.9,0.6,1.7,0.8,2.3,0.6c0.5-0.2,1-0.4,1.4-0.8c10.2,28.2,25,54.6,44.2,77.9c0.1,0.2,0.2,0.5,0.4,0.8c1,1.9,2.1,3.7,3.2,5.2
		c6.3,7.6,10.4,13.4,12.5,17.4c0.5,1,0.5,1.6,0,1.8c-0.5,0.3-1.4,0.1-2.9-0.4c-1.4-0.5-3-1-4.6-1.5c-7.8-2.2-13.5-4.4-17.2-6.4
		c-0.4-0.3-2-1.2-4.7-2.8c-2.7-1.6-4.6-2.1-5.7-1.6c-1.2,0.6-1.3,1.7-0.5,3.4c1.3,2.5,5.1,5.6,11.3,9.3c6.7,3.7,12,5.9,15.9,6.7
		c1.4,0.3,6.2,0.7,14.5,1.2c4.7,1.3,9,3.9,12.8,8c2.7,2.6,6.2,5.3,10.6,8.4c2.6,1.6,4.1,2.8,4.5,3.6c0.1,0.2,0.1,0.4-0.1,0.6
		c-1,0.5-4.7,0.4-11.3-0.4c-3.7-0.3-7.4-0.5-11-0.6c-4.4-0.1-8.6-0.3-12.8-0.8c-5.1-0.7-10.4-2.2-16.1-4.6
		c-6.4-2.8-10.4-3.9-11.9-3.1c-1.1,0.6-1.3,1.4-0.8,2.4c1,1.8,6.8,5.3,17.4,10.4c2.7,1.2,4.9,2.2,6.6,3.1
		c12.7,5.9,25.8,7.6,39.5,5.2c2-0.4,4-1,5.9-1.7c1.9-0.7,3.5-1.2,4.9-1.4c2.6-0.2,6.7,1.1,12.4,3.9c2.1,1.2,4.8,2.4,8.1,3.6
		c4.9,1.8,7.7,3,8.3,3.6c-1.6,0.5-5.4,0.9-11.3,1.4c-2.6,0.2-5.7,0.6-9.4,1.2c-17.5,2.1-30.8,2.5-39.9,1.2c-3.2-0.9-5.2-1.2-6-0.8
		c-0.3,0.2-0.4,0.4-0.2,0.7c0.2,0.3,0.4,0.6,0.9,1c2.1,1.7,4.5,2.9,7.2,3.6c15.3,4.4,32.7,5.6,52,3.7c5.1-0.8,9.3-1.9,12.6-3.2
		c5.1-1.8,9.4-2.7,12.7-2.6c0.9,0,2,0.1,3.2,0.2c6.5,2.5,13.1,4.7,19.8,6.6l-9.1,2.9c-13.5,5-27.5,8.9-41.8,11.7
		c-0.8,0.2-2,0.3-3.5,0.3c-5.4,0.6-8.9,1.3-10.5,2.1c-0.5,0.6-0.6,1.3-0.3,1.8c0.4,0.8,1.5,1.4,3.3,2c9.6,3,18.7,4.1,27.2,3.3
		c10-0.9,20.8-4.3,32.4-10.3c3.9-2,7.5-4.2,10.8-6.5c2.1-1.4,4.1-2.6,5.9-3.6c47.4,10.8,97.7,8.2,143.8-7.3
		c-0.6,0.6-2.4,1.9-5.3,4.1c-7.8,6.7-14.3,14.4-19.7,23.3c-1.4,2.3-1.9,3.9-1.4,5c1.5,3,8.5,1.3,20.8-4.9
		c7.4-3.8,13.5-9.3,18.2-16.6c1.7-2.5,2.8-5.6,3.4-9.1c0.4-1.5,1.1-2.5,2.2-3c0.7-0.4,6.4-1.4,16.9-3.1c4.5-1,11.3-3.8,20.1-8.3
		c1-0.6,2.1-1.3,3.5-2c3.9-1.8,6-2.4,6.3-1.7c0.3,0.6-0.6,2.4-2.6,5.2c-1.4,2.3-2.7,4.5-4,6.8c-1.2,2.2-2.6,4.6-4.3,7.2
		c-0.6,0.9-1.1,2-1.6,3.1c-0.5,1.1-1,2-1.4,2.8c-1,1.3-2.6,3.9-4.6,7.8c-1.6,3-2.1,5-1.7,5.9c0.4,0.7,1.2,1.1,2.4,1
		c1.3-0.1,2.6-0.4,4.1-1.1c1.5-0.7,2.6-1.2,3.3-1.6c9.5-5.1,16.6-10.8,21.3-17.1c0.6-0.9,1.2-1.9,1.9-2.8c0.7-0.9,1.5-2.3,2.3-4.2
		c2.2-4.4,3.7-8.2,4.4-11.5c0.7-3.3,0.8-7,0.3-11.1c-0.4-2.8-0.2-4.8,0.6-6.1c0.8-1.2,2-2.5,3.7-3.7c0.9-0.6,1.9-1.3,2.9-2.3
		c5.4-4.7,9.9-9.2,13.5-13.6c3.6-4.3,7.4-9.5,11.6-15.3c1.6-2.2,2.7-3.5,3.3-3.8c0.2-0.1,0.3-0.1,0.4,0c0.4,0.8-0.1,3.6-1.6,8.4
		c-0.8,5.6-1.6,11.2-2.5,16.9c-0.9,5.7-0.3,12.4,1.6,20.1c0.3,0.8,0.4,1.6,0.5,2.6c0.1,0.9,0.5,2.1,1.1,3.4c0.7,1.4,1.9,2,3.5,1.5
		c0.2-0.7,0.2-1.3,0.1-1.6c-0.1-0.3,0.3-1.1,1.3-2.2c5.5-6.8,9.6-14.3,12.2-22.3c3.3-9.1,2.9-17.6-1.2-25.7
		c-1.1-2.2-2.4-4.2-3.8-6.2c-1.5-2-2.6-3.7-3.3-5.1c-1.3-2.6-1.2-6,0.2-10.2c0.8-2.3,1.4-4.4,1.8-6.1c0.8-1.1,1.6-2.2,2.3-3.4
		c0.1-0.2,0.2-0.3,0.3-0.5c0.9,0.6,1.9,1.1,3,1.6c1.3,0.8,2.7,1.3,4,1.6c0.5,0.1,1.3,0.2,2.4,0.2c1.1,0.1,2.3-0.9,3.6-2.7
		c1.1-1.5,1.8-2.7,2-3.8c0.2-1,0.1-2.4-0.3-4c-0.2-1.2-0.2-2.2-0.1-3c0.4-1.8,3-4.6,7.9-8.2c2.4-1.9,3.6-2.9,3.6-3
		c2.6-2.4,4.1-3.5,4.6-3.4c0.4,0.3,0.6,1.8,0.6,4.5c0.1,2.7,0,4.4-0.1,5.2c-0.1,0.6-0.5,1.3-1,2.1c-0.6,0.8-1,2.1-1.4,3.8
		c-0.2,3.7,1.1,5.8,3.9,6.3c4.3,0.8,7-1.4,8-6.7c-0.3-1.7-1.1-3-2.2-4.1c-1.7-1.4-2.6-3.2-2.6-5.3c-0.1-1.4,0.4-4.5,1.3-9.3
		c0.5-2.8,1.6-5.5,3.3-8.1c5.6-8.2,9.6-15.4,12-21.7c1.6-4.5,2.9-6.6,3.9-6.4c0.7,0.1,1.2,1.8,1.4,5c0.6,5.6,1.9,11.2,3.8,16.8
		c0.5,2.2,0.7,4.1,0.6,5.8c-0.2,1.6-0.1,3.1,0.3,4.4c0.3,1.3,1.5,2.5,3.4,3.5c1.5,0.7,2.8,1.2,4,1.4c1.8,0.4,3.4,0.1,4.5-0.8
		c1.2-0.9,1.9-2.2,2.2-3.8c0.6-3.4-0.2-6.6-2.6-9.6c-1-0.9-1.9-1.5-2.7-1.6c-1.1-0.2-2.1-0.2-2.9-0.1c-0.8,0.2-1.4,0.2-1.9,0.1
		c-1.7-0.3-3.3-5.4-4.7-15.1c-1.9-8-2.3-14.7-1.3-20c0-0.2,0.1-0.3,0.2-0.4c0.8-2.8,1.8-6.6,2.8-11.5h13.1c0.5,0.7,0.9,1.4,1.3,2
		l3.2,4.3c0.6,1.3,0.8,2.5,0.6,3.6c-0.3,1.6-0.1,3.2,0.5,4.7c1.2,2.2,2.9,3.6,5.1,4c3.8,0.7,6.9,0.7,9.4-0.1
		c1.4-0.5,2.3-1.9,2.7-4.3c1.2-6.5-1.1-10.9-7.2-13.3c-1.2-0.1-3.1,0.2-5.5,1c-0.8,0.4-1.4,0.6-1.9,0.6c-1-0.2-2.1-1.1-3.1-2.5h34.3
		c3.5,0,6.3-2.8,6.3-6.3C697.4,392.9,694.5,390.1,691.1,390.1z M112.7,402.7c1.5,3.1,3.2,6.5,4.9,10.3c0.6,1.3,1,2.3,1.2,2.9
		c0.2,0.7,0.2,1.1,0.1,1.1c-0.6-0.3-1.7-1.4-3.5-3.2c-0.2-0.2-0.4-0.4-0.5-0.5c-1.1-3.5-2.2-7-3.1-10.6H112.7z M106.5,402.7
		c0.2,0.8,0.4,1.7,0.7,2.5c-0.2-0.4-0.5-0.7-0.7-1.1c-0.2-0.5-0.5-0.9-0.8-1.4H106.5z M111.8,430.1c-2.4-6.9-4.6-14-6.4-21.1
		c1.1,0.8,2.4,2,4,3.7c2.2,7,4.6,13.8,7.4,20.6c-1-0.8-2.2-1.5-3.6-2.2C112.6,430.7,112.1,430.4,111.8,430.1z M121.1,453
		c-2.7-5.9-5.3-11.9-7.6-18c4,3.3,6.6,7,7.9,11.1C122.2,448.4,122.1,450.7,121.1,453z M118.8,424.5c1.9,2.8,3.1,5,3.6,6.6
		c0.4,1.4,0.8,3,1,4.8C121.8,432.1,120.3,428.3,118.8,424.5z M123.5,402.7h18.1c-0.6,0.7-1.1,1.4-1.6,2.1c-1.3,1.8-2.3,4.3-3,7.6
		c-0.7,3.2-1.6,5.6-2.6,6.9c-0.5,0.7-1.2,2-2.1,3.8c-0.9,3.4-1.8,5.5-2.7,6.3c-0.1-0.1-0.7-1.6-1.5-4.4c-0.7-3.2-1.6-6.3-2.5-9.2
		c-1.4-4.4-2.1-8.1-2.1-11C123.4,404.1,123.4,403.4,123.5,402.7z M124.2,459.4c0.8-1.1,1.6-2.5,2.5-4.2c4.7,9.1,9.9,18,15.6,26.5
		c0.7,4.1,1.7,8.4,3.1,13C137.4,483.5,130.3,471.7,124.2,459.4z M163.6,517.3c-0.9-3.1-1.5-6.4-1.6-9.9c0,0,0-0.1,0-0.1
		c4.6,5.3,9.5,10.5,14.5,15.4c0.4,3.5,0.9,6.3,1.5,8.6c0.1,0.4,0.2,0.7,0.3,1.1C173.1,527.5,168.2,522.5,163.6,517.3z M186.3,539.7
		c0.1-2.6,0.1-5.3-0.1-7.9c7.3,6.4,14.9,12.5,22.8,18.1c0.4,0.7,0.7,1.5,1.1,2.2c0.6,1.2,1.4,2.5,2.4,4c0.9,1.4,2,3.3,3.2,5.6
		C205.3,555,195.5,547.7,186.3,539.7z M259.4,583.4c-0.4,0.2-1.2,0.2-2.3,0.1c-10.1-4.2-19.9-9-29.3-14.4c-0.1-0.2-0.1-0.4-0.2-0.7
		c-0.1-2.6-0.2-4.8-0.5-6.9c9.5,5.6,19.3,10.6,29.3,15c0.4,0.6,0.8,1.2,1.3,1.7l1.7,2.8C260,582.4,260,583.1,259.4,583.4z
		 M295.7,591.4c-1.8,1-7.8,0.1-17.8-2.6c-1.4-0.5-2.8-0.8-4.2-1c-2.4-0.3-3.8-1-4.4-2.1c-0.5-0.9-0.8-2.1-0.9-3.6
		c0-0.2-0.1-0.4-0.1-0.7c8.1,3.1,16.4,5.8,24.8,8c1.2,0.3,2.4,0.6,3.6,0.9C296.5,590.8,296.2,591.2,295.7,591.4z M326.7,601.6
		c-5.8-0.7-11.6-1.5-17.3-2.6c1.5,0,3,0,4.7,0.1c4.8,0.7,9.9,0.2,15.4-1.7c0.5-0.2,0.9-0.5,1.2-0.7c26.1,3,52.7,2.2,78.6-2.5
		c4.2,0.4,8.7,0.1,13.4-0.8c1.7-0.2,3.5-0.3,5.4-0.3C395.4,602.5,360.7,605.5,326.7,601.6z M307.3,592.9c4.3,0.9,8.6,1.7,12.9,2.4
		c-1.6,0-3.2,0-4.9-0.2C311.4,595.2,308.7,594.4,307.3,592.9z M440.7,589.1c-2.5,0-5-0.2-7.7-0.4c7.7-2.2,15.4-4.6,22.9-7.5
		c2.4-0.9,4.7-1.8,7-2.8c0.8,0.3,1.7,0.5,2.6,0.7C457.4,582.9,449.1,586.2,440.7,589.1z M478.5,584.3c-2.6,1.3-8.1,2.3-16.4,2.9
		l-2.7,0.4c4.9-2.1,9.7-4.3,14.5-6.7c0.6,0.1,1.3,0.2,1.9,0.3c2.3,0.5,3.7,1.1,4,1.7C479.9,583.3,479.5,583.8,478.5,584.3z
		 M485.4,567.8c6.7-3.6,13.2-7.4,19.6-11.5c-6,4.3-12.3,8.3-18.7,12C486,568.1,485.7,568,485.4,567.8z M529.1,553.7
		c-8.6,7.4-17.8,14-27.6,19.9c-2,1-3.4,1.4-4.5,1.2c-1-0.2-2.2-0.8-3.5-1.8c-0.6-0.5-1.4-1.1-2.2-1.6c9-5.3,17.6-11.2,25.9-17.6
		c3.4-0.7,6.4-1.5,9-2.3c3.8-0.9,5.8-1.2,6-0.9C532.4,551,531.4,552.1,529.1,553.7z M560.7,515.1c-5.3,10.2-9.3,16-11.8,17.3
		c-1.2,0.6-3.8,0.8-7.6,0.5c7.9-7.7,15.3-16,22.2-24.6C562.5,511.3,561.5,513.6,560.7,515.1z M577.1,478.2c-0.9,0.2-1.7,0.4-2.6,0.8
		c-1.9,0.9-3.2,2.4-3.9,4.3c-0.3,1.5-0.3,2.9,0,4.1c-12.6,17.1-27.2,32.6-43.5,46.2c-8.8,1.6-18.8,5.2-30.1,11
		c-8.2,4.2-11.7,7.6-10.3,10.3c0.9,1.7,3.2,2.5,7,2.4c-1.3,0.8-2.7,1.6-4,2.4c-3.3,1.9-6.6,3.7-10,5.4c-1.9-0.9-3.9-1.7-6.1-2.6
		c-12.1-5.5-22.7-7.4-31.6-5.5c-1.2,0.2-2.1,0.5-2.9,0.9c-1.2,0.6-1.5,1.7-0.8,3.1c0.4,0.7,1.2,1.7,2.3,3.1c4,5,9,8.9,15,11.8
		c-10.4,4-21,7.3-31.7,10c-0.1-0.1-0.3-0.3-0.4-0.4c-2.4-3-4.2-5-5.4-6c-7.8-7.6-19.4-10.8-35.1-9.6c-3,0-5.2,0.3-6.5,1
		c-0.8,0.4-1.1,1-0.7,1.7c1,2,4.5,5.4,10.5,10.4c4.8,4.4,8.1,7.1,9.9,8c0.1,0.1,0.3,0.1,0.4,0.2c-21.4,2.9-43.1,3.2-64.5,0.7
		c-9-1-17.9-2.5-26.7-4.5c-1.3-7.5-3.2-13.8-5.8-18.8c-1.5-2.9-3.4-5.7-5.6-8.5c-2.2-2.7-4.4-5.5-6.4-8.2c-2.4-3.3-5.2-6.8-8.4-10.5
		c-5.7-6.7-9.3-11.6-10.9-14.7l-2.5-4.8c-1.7-3.3-3.1-4.7-4-4.2c-0.4,0.4-0.5,1.2-0.3,2.6c2.6,10.3,5.7,18.9,9.3,25.7
		c1.1,2,1.9,3.7,2.4,5l2,3.6l4.4,8.8c1.7,3.2,3.5,6.2,5.4,9c0.7,1,1.4,2,2,2.9c0.6,1,1.4,2.2,2.6,3.7c1.4,1.9,2.6,3.6,3.7,5.2
		c-8.9-2.5-17.7-5.4-26.3-8.8c-0.7-2.3-1.6-4.6-2.7-6.8l-2.9-5.2c-8.1-13.8-14.5-25.1-19-33.8c-4.3-8.3-7.1-15-8.6-20.1
		c-0.1-1.3-0.5-2.8-1.3-4.3c-0.2-0.3-0.3-0.4-0.6-0.4c-1.8,1-1.8,7.3,0.3,19.1c0.6,5.2,1.7,10.3,3.2,15.2c2,5.3,4.3,10.4,6.9,15.5
		c2.2,4.2,4.9,8.8,8.2,13.8c-8.7-4.1-17.2-8.8-25.4-13.9c-0.6-1.4-1.7-3.6-3.3-6.7c-4.4-7.7-8.6-15.5-12.8-23.3
		c-3.3-8.5-5.5-14.1-6.7-16.9c-1.2-2.7-1.9-4.8-2.1-6.3c-0.3-1.5-0.6-2.7-1.2-3.7c-0.5-1-1.4-1.2-2.6-0.7c-1.6,1.4,0,11.7,4.7,30.9
		c0.6,3.6,1.8,7.9,3.6,12.6c-4.7-3.5-9.2-7.2-13.6-11.1c-2-1.8-4-3.5-5.9-5.4c-0.3-1.7-0.7-3.4-1.1-5.1c0.1-0.3-0.4-2.3-1.3-6.2
		c-0.7-3.1-1.6-5.5-2.5-7.4c-0.9-1.7-1.7-2.3-2.6-1.8c-1.5,0.8-2.1,4.5-1.8,11.3c-5.1-5.2-9.9-10.7-14.6-16.3
		c-0.4-3.2-0.9-6-1.5-8.2c-1.2-4-3.1-8.7-5.9-14.1l-3.6-8.1c-1-2.8-2.2-5.6-3.6-8.5c-1.5-2.9-2.8-4.1-4-3.5
		c-1.6,0.8-2.1,5.5-1.5,13.9c-4.3-6.9-8.2-14-11.8-21.3c0.1-0.4,0.2-0.8,0.3-1.1c1.2-7.8,3-14.5,5.4-19.9l0-0.1l2.8-6.1
		c0.7-0.9,1.7-1.6,3-2.3c4.9-2.2,8.3-7.3,10.1-15.5l0.2-1h457.7c-1.2,5.3-2.6,10.5-4.1,15.7c-3.5,0.5-6.2,2.5-8,6.1
		c-0.6,1.2-1.1,2.3-1.3,3.4c-0.1,0.7-0.2,1.7-0.1,2.9c0.1,1.2,1.3,2.3,3.5,3.4c0.2,0.1,0.4,0.1,0.6,0.2c-2.1,5.7-4.4,11.3-6.9,16.8
		c-4,0.8-6.7,1.1-8,0.8c-0.6-0.1-1.2-0.4-1.8-0.8c-0.5-0.7-1.5-1.2-3-1.5c-1.7-0.3-3.2,0.1-4.5,1.2c-1.2,1.1-2,2.5-2.3,4.2
		c-0.1,0.4-0.2,1.3-0.3,2.6c-0.1,1.3,0.7,2.6,2.4,3.9c0.9,0.6,1.8,1,2.6,1.1c2.6,0.5,4.7-1.1,6.5-4.8c0.7-1.3,1.5-2,2.6-2.3
		c0.9-0.2,2.3-0.4,4-0.4c-0.5,1-1,2-1.5,3.1c-0.8,1.6-1.6,3.2-2.4,4.8C583.6,468.1,580.5,473.2,577.1,478.2z M609.6,452.7
		c-0.1,0.3-0.3,0.8-0.6,1.5c-2.2,3.6-5.3,7.4-9.4,11.4c-8.3,8-13.2,12.2-14.7,12.6c-0.3,0.1-0.6,0.1-1,0.1c2.4-4,4.6-8.1,6.8-12.2
		c2.2-3.9,4.3-7.8,6.4-11.7c2.9-0.4,5.9-1,9-1.9c1.4-0.6,2.4-0.8,3-0.7C609.5,451.9,609.7,452.2,609.6,452.7z M628.9,413.8
		c-1.8,5.4-4.8,12.1-9.1,20.1l-1.2,2.8c-0.9,2.9-2.3,5.3-4.4,7.3c-2,1.5-6.8,3.3-14.5,5.4c2.4-5,4.7-10,6.8-15.2
		c2.1-1.4,3.6-4.1,4.4-8.4c0.3-1.5,1.2-2.8,2.8-3.8c4.1-2.5,7.6-5,10.4-7.5c2.9-2.5,4.6-3.7,5.1-3.6
		C629.3,411.2,629.2,412.1,628.9,413.8z M627.4,404.9c-3,4.1-6.7,7.6-11.1,10.6c-0.6,0.3-1.1,0.6-1.5,1c-0.9,0.7-1.7,1.2-2.4,1.5
		c1.7-5,3.2-10.2,4.6-15.3h12.1C628.6,403.4,628,404.1,627.4,404.9z"/>
	<path id="XMLID_173_" d="M473.2,211.4c-2-2.1-4.4-3.5-7.3-4.4c-2.9-0.9-5.9-1.3-9.1-1.3c-3.4,0-6.7,0.3-10,1
		c-3.3,0.7-6.3,1.4-8.9,2.2c-11.8,3.7-21.9,8.8-30.5,15c-3.2,2.4-5.9,4.7-8.2,6.9c-3,2.9-6.1,5.1-9.2,6.6c-0.9,0.4-1.7,0.6-2.5,0.6
		c-1.6,0-2.7-0.8-3.2-2.4c-0.6-1.6-1-3.3-1-5.1c0-1.7,0.2-3.2,0.5-4.6l1.2,0.2l0.8-0.1c2.1-0.3,4-1.2,5.5-2.5l0.3-0.3
		c0.2-0.2,0.4-0.3,0.6-0.6c1.6-2,2.4-3.8,2.4-5.5c0-0.6-0.1-1.2-0.2-1.7c-0.4-1.5-1-2.6-2.1-3.4c-1-0.8-2.1-1.2-3.4-1.2
		c-1.3,0-2.6,0.5-4,1.4c-1.7,1.3-3.2,3.2-4.4,5.5c-0.9,1.8-1.6,3.5-2.1,5.2c-1.4,3-3.5,7.2-6.2,11.2c-2.2,3.2-4.8,6.3-7.4,8.5
		c-1.2,1-2.6,1.7-3.7,1.7c-0.9,0-1.6-0.5-1.6-1.7c0-0.6,0.2-1.3,0.5-2.2c0.7-2.1,1.7-4.6,2.7-6.7c1-2.1,1.7-4,2.1-5.2
		c0.7-2.2,1-4.2,1-5.9c0-2-0.5-3.6-1.3-4.7c-0.7-1.1-1.7-1.8-3-2.1c-0.4-0.1-0.9-0.2-1.3-0.2c-0.8,0-1.7,0.2-2.5,0.5
		c-3.1,1-6.5,4.2-8.9,9.2c0-3.2,0.2-6.3,0.6-9.5c0.3-3.2,0.8-6.4,1.5-9.7c6.6-0.8,12.4-8.5,12.4-15.2c0-1.1-0.2-2.3-0.6-3.3
		c-0.8-2.2-2.4-3.2-4.4-3.2c-1.1,0-2.3,0.3-3.6,1c-1.6,0.9-2.9,2.5-4.2,4.7c-3.5,5.9-5.5,13.4-6.5,21c-0.5,3.7-0.7,7.3-0.8,10.9
		c-3.6,6.6-7.1,11.6-10.4,15.1c-2.4,2.3-4.3,3.4-5.8,3.4c-1.8-0.2-3.1-1.8-3.7-4.8c-0.4-2.2-0.6-4.6-0.6-7.1
		c0-9.7,1.7-19.6,4.9-29.7h9.5c0.4,0,0.7-0.2,1-0.4c0.2-0.2,0.4-0.6,0.4-1c0-0.4-0.2-0.7-0.4-1c-0.2-0.2-0.6-0.4-1-0.4l-8.6,0.1
		c1.1-3.1,2.4-6,3.7-8.7c0.6-1.4,0.8-2.6,0.8-3.5c0-0.4-0.1-0.7-0.2-1c-0.5-1.2-1.2-1.7-2.2-1.7c-1.1,0-2.3,0.8-3.6,2.4
		c-1.6,2.3-3.3,6.5-5.1,12.6l-5.9,0.1c-0.4,0-0.7,0.2-1,0.4c-0.2,0.2-0.4,0.6-0.4,0.9c0,0.4,0.2,0.7,0.4,1c0.2,0.2,0.6,0.4,1,0.4h5
		c-13.6,14.3-27,24.7-40.1,31.3c-7.5,4-14.7,5.9-21.5,5.9c-3.9,0-7.2-1.1-10-3.3c-0.6-0.4-1-0.6-1.5-0.6c-1.3,0-2,0.8-2,2.3
		c0,0.7,0.4,1.3,1.1,2c3.1,2.1,6.6,3.2,10.5,3.2c0.2,0,1.5-0.1,3.8-0.2c2.3-0.1,5.5-0.8,9.7-2.3c15.1-5.2,31.4-16.4,48.9-33.6
		c-2.3,9.3-3.5,17.5-3.5,24.5c0,7.7,1.5,12.7,4.5,15.1c1.1,0.9,2.5,1.3,4,1.3c2.9,0,6.2-1.9,9.9-5.8c2.7-2.8,5.5-6.6,8.4-11.4
		c0,1.9,0,3.6,0.1,5.3c0.1,1.3,0.6,2.4,1.4,2.9c0.5,0.3,1,0.4,1.4,0.4c0.6,0,1-0.2,1.4-0.6c1.1-0.9,1.4-2.5,1.7-3.9
		c0.2-0.8,0.6-2.2,1.3-4c0.6-1.3,5.1-9.2,8-9.2c0.8,0,1.4,0.5,1.8,1.7c0.2,0.6,0.4,1.3,0.4,2c0,2.6-1.4,6-2.8,9.3
		c-0.6,1.7-1.3,3.4-1.9,5.1c-0.5,1.7-0.7,3.2-0.7,4.5c0,3.9,1.9,6.3,5,6.3c1.7,0,3.8-0.8,6.1-2.7c2.9-2.4,5.5-5.6,7.8-9.1
		c1.1-1.6,2.1-3.3,3-4.9c0,0,0,0.1,0,0.1c0,3.1,0.6,5.5,1.6,7.1c1.3,2.1,3.1,3.2,5.3,3.4l1,0.1c1.7,0,3.6-0.5,5.8-1.5
		c3.4-1.5,6.7-3.9,10.1-7.1c2.9-2.7,5.5-4.9,7.7-6.5c8.4-6.1,18.4-11,29.9-14.7c2.1-0.7,4.7-1.3,7.4-1.8c2.8-0.5,5.6-0.7,8.5-0.7
		c3.1,0,6,0.4,8.8,1.3c2.8,0.9,5,2.3,6.8,4.4c0.6,0.6,1.2,0.9,1.7,0.9s1.1-0.2,1.5-0.7c0.4-0.4,0.6-1,0.6-1.5
		C474,212.7,473.8,212.1,473.2,211.4z M384.9,222.7c0.2-0.6,0.6-1.5,1.1-2.5c0.4-1,1-2.1,1.5-3.1c1.3-2,2.3-2.9,3.1-2.9
		c0.4,0,0.8,0.2,1,0.7c0.2,0.5,0.4,1,0.4,1.7c0,1.3-0.6,2.8-1.7,4.3l-0.6,0.7c-1.2,1-2.5,1.6-4,1.8l-0.6,0.1l-0.6-0.1
		C384.6,223.2,384.7,223,384.9,222.7z M352.2,201.5c0.8-2.7,1.6-4.9,2.4-6.7c0.8-2,1.7-3.5,2.5-4.6c1-1.3,2-2.1,2.7-2.1
		c0.6,0,1,0.7,1,2.4c0,0.4,0,0.8-0.1,1.2c-0.4,5.1-3.9,10.4-8.9,11.7C351.8,202.7,352,202.1,352.2,201.5z"/>
	<path id="XMLID_166_" d="M384.1,439c0-1.4,1.2-2.5,2.6-2.5c1.3,0,2.5,1.1,2.5,2.5s-1.2,2.5-2.5,2.5
		C385.3,441.5,384.1,440.4,384.1,439z M527.8,461.8v0.2c0,1.3-0.6,2.1-1.9,2.3c-0.4,0-0.7-0.1-1-0.2c-0.3-0.1-0.6-0.3-1-0.7
		c-1.9-2.5-4.5-4.3-7.8-5.3c-3.2-0.9-6.7-1.4-10.2-1.4c-1.9,0-3.7,0.1-5.5,0.3c-2.9,0.3-5.5,0.7-7.8,1.3c-11.3,2.8-21.6,7.1-30.9,13
		c-2.8,1.8-5.2,3.7-7.5,5.7c-0.4,1.7-0.8,3.6-1.3,5.5c-1.4,5.6-3.1,10.1-5.1,13.1c-2,3.2-4,5.2-5.9,6.3c-1.2,0.7-2.3,1-3.3,1
		c-0.7,0-1.4-0.2-2-0.4c-1.6-0.7-2.5-2.1-2.9-4.1c-0.1-0.4-0.1-0.9-0.1-1.3c0-1.5,0.5-3.3,1.3-5.5c0.9-2.1,2.4-4.3,4.4-6.6
		c3.1-3.5,6.1-6.3,9-8.5c1.2-5.5,2-11.9,2.2-19.1c-2.6,4.8-5.4,8.3-8.2,10.4c-1.7,1.2-3.2,1.8-4.7,1.9h-0.3c-1.5,0-2.9-0.6-3.9-1.8
		c-1.4-1.6-2.2-4.4-2.5-8.5c0-0.2,0-0.4,0-0.6c-4.6,7.7-9.2,12.9-13.1,15.4c-1.8,1.2-3.6,1.8-5.1,1.8h-0.1c-0.3,0-0.6,0-0.9-0.1
		c-1.9-0.2-3.5-1.4-4.8-3.5c-1.4-2.6-2.3-6.7-2.3-12.4c0-0.3,0-0.6,0-0.9c-3.6,5.9-8.3,9.8-12.8,11.8c-1.7,0.8-3.8,1.3-5.8,1.3
		c-2.4,0-4.8-0.7-6.6-2.6c-1.6-1.8-2.6-4.4-2.7-7.8c-6.2,11.5-12.2,15.7-15.8,15.7c-2.1,0-3.6-0.9-4.7-2.5c-1.2-1.7-1.8-4.3-1.9-7.3
		c0-1.6,0.2-3.3,0.5-5.1c0.3-2.1,0.7-4.1,1.2-6.3c0.6-3.7,1.5-8.4,1.5-10.5c0-0.7-0.2-1-0.4-1c-1.3,0-4,6.5-5.4,9.8
		c-1.3,2.9-2.6,5.9-4.1,8.6c-0.8,1.2-1.9,2.3-2.9,2.4c-2.3,0-2.5-4.4-2.5-6v-0.6c0-3.2,0-7.6-0.2-11.2c-0.1-0.9-0.3-1.3-0.6-1.3
		c-2.1,0-8.9,20.1-9,20.7c-0.6,2-2,3.1-3.5,3.1c-1.3,0-2.6-0.9-3.3-2.7c-0.6-1.3-0.7-3.1-0.7-4.8c0-1,0.1-2,0.1-3
		c-3.6,6.3-7.3,11.3-10.7,14.6c-2.4,2.2-5.9,4.8-9.1,4.8c-2.1,0-3.9-1.1-5-4.3c-0.6-1.6-0.9-3.7-0.9-6.3c0-2.7,0.3-5.9,1-9.8
		c-1.9,2.6-3.9,4.4-5.7,5.6c-1.7,1-3.2,1.6-4.6,1.6h-0.2c-1.7,0-3-0.6-4.1-1.8c-1.1-1.2-1.9-2.9-2.2-5.1c-0.1-0.6-0.2-1.3-0.2-2
		c0-0.1,0-0.1,0-0.2c-5.7,4.8-12.9,7.3-21.9,7.3c3.1,2.9,5.2,7.4,6.5,13.2c0.6,3,1,5.6,1,7.8c0,4.3-1.3,7-3.8,8.2
		c-0.7,0.4-1.5,0.6-2.4,0.6h-0.2c-6.7-1-10.1-8.9-10.1-23.8c0-7.9,0.6-14.9,1.7-20.8c0.6-3.2,1.3-6.1,2-8.8
		c-7.4,8.5-16.9,15.8-28.3,22.2c-3.1,1.7-6.7,3.3-11,4.8c-4.2,1.5-7.4,2.4-9.7,2.5c-2.3,0.2-3.6,0.2-4,0.2c-3.8,0-7.2-1-10.3-3
		c-0.7-0.6-1.1-1.3-1.1-2c0-1,0.2-1.6,0.7-1.9c0.6-0.2,1-0.4,1.2-0.4c0.5,0,1,0.2,1.6,0.6c2.8,2.1,6,3.2,9.7,3.2
		c3.9,0,7.8-0.6,11.6-2c4-1.3,7.3-2.7,10.1-4.3c13.3-7.4,23.8-16.1,31.4-26.1c1.1-1.5,2-2.5,2.5-2.7c0.5-0.2,0.9-0.3,1.3-0.3
		c0.6,0,1.2,0.3,1.7,1c0.3,0.4,0.5,1,0.5,1.6c0,0.6-0.1,1.3-0.4,2.1c-2.8,9.1-4.5,17.6-5.2,25.6l1.8,0.1c3,0,6.7-0.5,10.7-1.3
		c4.9-1,9.2-3.7,13.1-7.8c0.4-1.4,1-2.7,1.7-3.9c1.2-2.1,2.7-3.9,4.5-5.1c1.7-1.2,3.5-1.9,5.4-1.9c0.3,0,0.6,0.1,0.9,0.1
		c1.9,0.2,3.8,1.1,5.6,2.9c0.2,0.3,0.4,0.6,0.4,1c0,0.4-0.2,0.7-0.4,1c-0.2,0.3-0.6,0.4-1,0.4s-0.6-0.1-0.9-0.3
		c-1.3-1.3-2.5-1.8-3.6-1.8c-4.1,0-6.7,7.6-6.7,12.9c0,2.9,0.8,5.1,2.5,5.1c1.9,0,5.1-3,9.7-11.6c0.3-0.6,1.3-1.5,2.1-1.7
		c0.2-0.1,0.6-0.2,0.9-0.2c0.2,0,0.6,0.1,0.8,0.2c0.6,0.1,1.1,0.4,1.5,0.9c0.3,0.4,0.6,0.9,0.6,1.4v0.2c-1.3,7.4-2.2,13.1-2.4,17.3
		v1c0,3.7,0.7,5.3,2.1,5.3c1.3,0,3.2-1.4,5.6-4c3.9-4.1,8.2-10.4,12.3-18.6l0.6-5.4l0.1-0.2c0.6-2.5,1.8-3.9,3.3-3.9
		c1.4,0.1,2.3,1,2.3,3.3c0,2.4-1.1,9.7-1.3,16.5c3.8-12.3,9.3-22.3,13.5-22.3c2.4,0,4.1,2.7,4.1,10.9l-0.1,4
		c1.1-2.3,1.9-4.4,2.9-6.5c2.8-6,5.7-11.1,8.7-11.1c2.1,0,3.5,2,3.5,7.2c0,2.9-0.4,6.5-1.2,10.5c-1,4.7-1.9,9.7-1.9,13.6
		c0,2.6,0.4,4.5,1.9,4.5c2.6,0,10.2-7.8,15.8-21.5c0,0,0,0,0,0c0.1-0.2,0.1-0.4,0.2-0.5c0.9-2.7,2.1-4.3,3.3-4.9
		c0.5-0.2,0.9-0.4,1.3-0.4c0.2,0,0.3,0,0.4,0.1c1.6,0.2,2.3,1.7,2.3,3.2c0,0.7-0.2,1.5-0.6,2.2c-1.2,2.2-1.8,4.8-2,7.4
		c0,0.5,0,1,0,1.4c0,1.6,0.2,3.1,0.6,4.4c0.9,2.6,2.3,3.6,4,3.6c1,0,2.1-0.3,3.2-0.8c5.1-2.2,10.6-7.5,14-15.6c0,0,0,0,0-0.1
		c0.2-3,0.5-5.7,0.9-8.3c0.6-3.8,1.3-7.1,2.1-10.1c0.9-3,1.7-5.5,2.8-7.7c0-0.1,0-0.2,0.1-0.2c0.6-1.4,1.2-2.6,1.8-3.6
		c2-3.4,4-5.3,5.9-6.1c1-0.5,1.9-0.6,2.6-0.6c0.7,0,1.3,0.2,1.8,0.6c0.9,0.6,1.4,1.7,1.4,2.9l-0.1,0.6c-0.2,1.2-0.8,2.6-1.7,3.9
		c-1.3,1.9-3.5,3.6-6.2,4.4c-2.4,6.3-4.1,13.4-5,20.2c-0.5,3.4-0.6,6.7-0.6,9.8c0,1.7,0,3.5,0.2,5.1c0.2,3.3,1.1,7.9,4,7.9
		c0.7,0,1.5-0.2,2.5-0.9c4.3-2.8,8.3-7.8,13.6-17.7c0.1-0.1,0.1-0.2,0.2-0.3c0.1-0.4,0.1-0.7,0.2-1.1c0.7-2.8,1.8-4.4,3.2-5.1
		c0.5-0.2,1-0.3,1.4-0.3h0.4c0.7,0.2,1.3,0.6,1.7,1.2l0.1,0.1c0.3,0.6,0.5,1.2,0.5,2.1c0,0.7-0.2,1.7-0.6,2.7
		c-0.1,0.5-0.2,0.9-0.3,1.3c-0.4,2.1-0.6,4.2-0.6,6.3l0.1,2.3c0.4,2.4,1.1,3.6,2.1,3.6c1,0,2.1-0.7,3.3-2.1
		c2.8-2.9,5.2-7.2,7.4-12.8c0.2-1.3,0.7-2.2,1.5-2.8c0.5-0.4,1-0.6,1.4-0.6h0.4c0.4,0,0.8,0.1,1.2,0.3c1,0.5,1.6,1.7,1.7,3.5v3.6
		c0,3-0.2,6-0.5,9c-0.2,2-0.5,3.7-0.7,5.3c-0.2,1-0.5,2.3-0.8,3.7c10.1-7.7,22.4-13.3,37-17c2.9-0.7,6.3-1.3,10-1.7
		c2-0.2,4-0.3,6.1-0.3c3.7,0,7.2,0.5,10.6,1.4c3.4,1,6.2,2.8,8.4,5.3C527.6,460.7,527.8,461.3,527.8,461.8z M418.3,424.9
		c1-0.6,2-1.5,2.6-2.5c0.6-0.9,1-1.8,1.1-2.6c0.1-0.2,0.1-0.4,0.1-0.5c0-0.2-0.1-0.3-0.2-0.4c-0.1-0.1-0.2-0.1-0.2-0.1
		c-0.3,0-0.7,0.6-0.9,0.8C420,421.3,419.1,423,418.3,424.9z M258.8,465.2c-0.1,1.5-0.2,2.9-0.2,4.4c0.1,7.4,1.2,13.5,3.2,18.4
		c0.8,1.7,1.8,2.6,2.9,2.8c1.3,0,2-1.8,2-5.5c0-5-1.2-9.9-3.6-14.7C262,468.1,260.5,466.4,258.8,465.2z M447.5,480.8
		c-2,1.7-4,3.6-5.9,5.9c-1.7,1.8-2.9,3.6-3.8,5.2c-0.9,1.8-1.3,3.4-1.3,4.8c0,1.3,0.4,2.1,1.1,2.1c0.7,0,1.9-1.1,3.5-3.2
		c2.5-3.8,4.6-8.5,6.3-13.9L447.5,480.8z"/>
	<path id="XMLID_4_" d="M147.3,3006c-9.3,0-18.4,0.6-26.9,1.7c-0.8,0.2-1.7,0.2-2.5,0.4c-1.7,7.9-11.4,69.6-16.6,126.3
		c-1.9,20.5-3.1,40.6-3.1,56.7c0,9.1,0.4,17,1.2,23.2c0,0.6,0,1.2,0,1.9c0,2.7-0.6,4.6-1.9,6c-0.8,1-1.9,1.7-3.1,1.9
		c-0.6,0.2-1,0.2-1.4,0.2c-0.8,0-1.4,0-2.1-0.2c0,0-0.2,0-0.2-0.2c-2.1-0.6-3.9-2.3-4.8-4.8c-0.2-0.2-0.2-0.4-0.2-0.6
		c-1.7-11.4-2.5-24.8-2.5-40.6c0-12.8,0.6-27.3,1.7-43.1c2.3-34.2,7-75.4,14.1-123.4c-30,6.6-50.9,18-56.3,24.8
		c-0.6,1-1.7,1.4-2.7,1.4c-0.6,0-1.4-0.2-2.1-0.8c-1-0.6-1.4-1.7-1.4-2.7c0-0.6,0.2-1.5,0.8-2.1c7.2-9.3,38.9-25.9,82.2-31.3
		c8.9-1,18.2-1.7,28.2-1.7c21.1,0,43.9,2.9,67.5,10.4c1.4,0.4,2.5,1.9,2.5,3.3c0,0.2-0.2,0.6-0.2,1c-0.6,1.4-1.9,2.5-3.3,2.5
		c-0.4,0-0.6,0-1-0.2C190,3008.9,167.8,3006,147.3,3006z M231.4,3134.4c0,0.4-0.2,1-0.4,1.7c-6,15.1-22.4,32.1-40.6,32.1
		c-5,0-9.9-1.2-14.7-3.9c-7.5,8.7-15.3,12.4-22.4,12.4h-0.4c-4.6,0-8.7-1.5-12.2-4.1c-3.5-2.7-6.2-6.2-8.1-10.8
		c-1.9-4.1-2.9-9.1-2.9-14.5c0-9.3,3.1-20.1,10.6-30.4c3.7-5.4,9.3-8.9,14.9-10.4c1.9-0.6,3.7-0.8,5.4-0.8c1.9,0,3.7,0.2,5.6,0.8
		c3.7,1,6.8,3.3,9.3,6.6c2.5,3.5,4.1,8.3,4.1,14.5c0.4,0.2,0.6,0.2,1,0.4c1.9,1,3.5,2.5,4.3,4.6c1.4,2.7,1.9,5.6,1.9,8.5
		c0,1,0,1.9,0,2.7c-0.8,5.6-3.7,10.4-6.8,14.9c3.5,1.7,7,2.5,10.6,2.5c15.9,0,30-16.2,34.4-28.6c0.6-1,1.9-1.7,2.9-1.7
		c0.6,0,1.2,0,1.9,0.4C230.8,3131.9,231.4,3133.1,231.4,3134.4z M170.1,3160.1c-4.6-4.3-6.8-9.9-6.8-15.7c0-3.9,1-7.9,3.1-11.8
		c1.2-2.1,2.9-3.7,4.8-4.8c0.4-0.2,1-0.4,1.4-0.4c0-4.6-1-7.9-2.7-10.4c-1.9-2.5-3.7-3.3-5.4-3.3c-5,0-9.3,7.2-11.6,11.6
		c-2.5,4.8-5.6,16.4-5.6,26.3c0,8.7,2.5,16.2,9.7,16.2h0.4C162.2,3167.5,167.4,3163.2,170.1,3160.1z M179.8,3142.7
		c0-0.8,0.2-1.4,0.2-2.3c0-1.7-0.4-3.1-1-4.8c-0.8-1.4-1.9-1.9-2.9-1.9c-1.7,0-3.1,1-3.9,2.9c-1.2,2.5-1.9,5-1.9,7.7
		c0,3.5,1.2,7.2,4.1,10.1C177,3151,179.2,3147,179.8,3142.7z M683.4,3134c0,0.6-0.2,1.2-0.4,1.9c-8.9,19.1-22.4,47-44.3,63.8
		c-4.6,3.5-11.4,7.5-18,7.5c-3.1,0-6-0.8-8.7-2.7c-1.9-1.4-3.5-3.3-4.6-6c-2.1-5.4-3.1-12-3.1-19.3c0-2.7,0.2-5.2,0.4-7.9
		c1-12.8,4.1-25.7,6.6-31.7c-0.8,0-1.9-0.2-2.9-0.2c-2.7-0.4-6.2-0.6-9.7-1.4c-0.2-0.2-0.6-0.2-0.8-0.2c-0.9-0.2-1.9-0.5-2.8-0.8
		c-21.5,44.5-37.9,59-50.2,59c-15.5,0-23.4-21.5-23.4-44.9l0.2-1.4c-9.1,13-20.7,22.8-32.1,22.8c-8.7,0-16.4-6.6-16.4-24
		c0-1.2,0-2.6,0.1-4c-14.2,12.7-34,19.8-53.5,19.8c-2.7,0-5.2-0.2-7.9-0.4c-7.2,10.4-15.9,19.3-25.7,25.9
		c-11.6,8.1-24.6,12.6-38.9,12.6c-7.7,0-15.7-1.2-24-4.3c-13.3-4.8-23.4-14.7-29.8-27.3c-4.8-9.3-7.5-20.3-8.1-32.1v-3.1
		c0-10.6,1.9-21.5,5.8-32.5c3.9-10.8,9.9-21.3,18.2-31.1c-0.2-2.9-0.2-6-0.2-8.7c0-20.9,5.8-36.4,14.9-47.2c1.7-2.1,3.5-3.9,5.4-5.6
		c2.7-2.5,5.4-4.6,8.5-6.2c2.5-1.5,5.2-2.7,8.1-3.5h0.2c4.6-1.7,9.3-2.5,14.3-2.9c1.4-0.2,2.9-0.2,4.3-0.2c15.3,0,31.3,6,44.3,17
		c19.5,16.6,28,42,28,68.8c0,4.1-0.2,8.5-0.6,12.8c-2.1,19.7-9.5,41-19.1,58.2c1.9,0.4,3.9,0.6,6.2,0.6c15.1,0,39.9-8.3,51.3-23
		c0.6-2.6,1.3-5.2,2.1-7.9c2.7-8.1,7.7-12.4,11.8-12.4c3.1,0,6.2,2.1,6.2,7.7c0,5.8-4.3,17.2-5.8,27.3c-0.4,2.7-0.6,5-0.6,6.8
		c0,7.5,2.3,10.4,5.6,10.4c9.3,0,26.9-22.6,31.1-41.8c3.1-9.3,7.9-13.3,11.8-13.3c3.1,0,6.2,2.5,6.2,7.7c0,2.3-0.6,5.2-1.9,8.7
		c-2.9,10.6-4.1,20.7-4.1,29.8c0,19.1,4.6,31.5,11.8,31.5c8.6,0,23.1-17.9,39.7-52.3c-1.4-0.9-2.7-2.1-3.9-3.4
		c-1.7-2.1-2.5-5.2-2.5-8.9c0-1,0-2.3,0.2-3.3c0.6-5,2.3-11,4.8-16.2v-0.4c2.1-3.7,5-5.8,7.7-6.4c0.8-0.2,1.7-0.4,2.3-0.4
		c0.8,0,1.4,0.2,2.3,0.4c1.5,0.4,2.7,1.2,3.7,2.3v0.2c1,1.2,1.7,2.9,1.7,5c0,1-0.2,2.3-0.6,3.7v0.2c-2.7,6.6-3.9,12.6-4.3,17.2
		c0,5.8,0,8.5,9.3,9.3c1.7,0.2,3.1,0.4,4.6,0.6h0.2c1.4,0.2,1.7,0.2,1.9,0.4c6,0.8,10.8,1.7,12.6,5c0.6,1,0.8,2.3,0.8,3.3
		c0,2.1-0.6,4.3-1,6.2c-2.9,13-4.3,24.2-4.6,32.7v4.1c0,7.2,1,10.8,3.9,10.8c1.9,0,4.3-1.2,7.7-3.9c19.3-14.5,29.8-37.9,41-59.4
		c0.8-1.2,2.3-1.9,3.5-1.9C681.8,3131.1,683.4,3132.1,683.4,3134z M403.7,3162.1c-8.3-1.9-16.2-4.3-23.8-7.5
		c-16.6-7.2-31.7-17.6-43.5-29.8c-11.6-11.8-20.1-28-24.4-41.6c-10.4,15.1-13,29.6-13,43.1c0,4.1,0.2,8.3,0.6,12.2
		c3.1,30.4,25.5,53,53.2,53c9.3,0,19.3-2.7,29.2-8.3C390,3177.9,397.3,3170.6,403.7,3162.1z M429,3095.2c0.4-4.1,0.6-8.5,0.6-12.6
		c0-24.6-7.5-47.6-25.3-62.5c-11.6-9.9-25.9-15.3-39.6-15.3c-1.2,0-2.5,0.2-3.7,0.2c-4.1,0.4-8.3,1.2-12.2,2.5
		c-0.2,0.2-0.2,0.2-0.4,0.2l-4.3,1.9c-3.3,1.7-6.4,3.5-9.1,6c-5.6,5.2-9.1,12.2-11,20.1c-0.8,3.9-1.2,8.3-1.2,12.6
		c0,3.3,0.2,6.4,0.6,9.7c6.8-5.8,14.7-11,23.6-15.5c0.6-0.2,1.2-0.4,1.9-0.4c1.2,0,2.7,0.8,3.3,2.1c0.2,0.6,0.4,1,0.4,1.7
		c0,1.4-0.6,2.7-2.1,3.5c-9.9,5-18.4,11-25.7,17.4c9.5,41.2,41.4,76.6,85.5,85.1C420.1,3135,427.1,3114.3,429,3095.2z"/>
	<path id="XMLID_7_" d="M282,3214.9c0,1.5-0.2,3.3-0.6,5.2c-6,25.1-10.4,54.5-13.5,82.8c0.6,0,1,0.2,1.2,0.4
		c4.3,1.2,7.5,2.5,9.1,3.3c1.2,0.6,2.1,1.9,2.1,3.1c0,0.6-0.2,1-0.4,1.4c-0.6,1.2-1.9,2.1-3.1,2.1c-0.6,0-1-0.2-1.4-0.4
		c-1.4-0.6-4.1-1.9-8.1-2.9c-0.2,1.9-0.4,3.9-0.6,6c-2.9,33.5-4.3,64.8-4.3,86.4c0,8.3,0.2,15.1,0.6,20.1v0.8c0,3.1-1,5.4-2.1,6.6
		c-1,1.2-2.1,1.9-3.3,2.1c-0.4,0-0.8,0.2-1.4,0.2s-1.4-0.2-2.1-0.6c-1.9-0.6-3.7-2.3-4.6-4.6c0-0.2-0.2-0.6-0.2-0.8
		c-1.7-11.2-2.3-24.6-2.3-40.4c0-12.6,0.4-26.9,1.4-42.7c0.8-11.6,1.9-23.8,3.1-37.1c-9.9-1.7-20.5-2.5-31.3-2.5
		c-11,0-22.2,0.8-32.7,2.5l-0.6,7.5c-3.1,34-4.3,65.6-4.3,87.2c0,7.9,0.2,14.5,0.4,19.3v1c0,2.9-0.8,5.2-2.1,6.4
		c-0.8,1-2.1,1.7-3.3,1.9c-0.4,0.2-0.8,0.2-1.2,0.2c-0.8,0-1.4-0.2-2.3-0.4c-1.9-0.6-3.5-2.3-4.3-4.8c-0.2-0.2-0.2-0.4-0.2-0.6
		c-1.7-11.2-2.3-24.8-2.3-40.4c0-12.8,0.4-26.9,1.4-42.7c0.6-9.9,1.4-20.3,2.5-31.3c-20.9,5.2-37.9,13.9-44.9,25.5
		c-0.6,1-1.7,1.7-2.9,1.7c-0.6,0-1.2-0.2-1.9-0.6c-1-0.6-1.7-1.7-1.7-2.9c0-0.6,0.2-1.2,0.4-1.9c8.5-13.5,28-23.4,51.6-29.2
		c2.7-25.9,6.4-55.1,11.4-87.4v-0.2c1.2-6.6,4.3-10.4,7.7-11.8c1.2-0.4,2.3-0.6,3.3-0.6c0.6,0,1.2,0,1.9,0.2
		c1.7,0.6,3.1,1.7,4.3,3.1c1.2,1.7,2.1,3.9,2.1,6.6c0,1.7-0.4,3.5-1,5.6c-5.8,24.8-10.1,53.4-13,81.4c10.1-1.4,20.9-2.3,31.5-2.3
		c11.2,0,22.2,0.8,32.5,2.7c2.5-24.6,6.2-52.2,10.6-82.2c0,0,0.2,0,0.2-0.2c1.7-9.1,6.4-13,10.6-13
		C278.1,3203.7,282,3207.8,282,3214.9z M600.1,3342c0,0.6-0.2,1.2-0.4,1.9c-11.4,19.9-30.4,37.7-47,44.9c-5.4,2.5-10.6,3.9-15.3,3.9
		c-0.8,0-1.7-0.2-2.3-0.2c-5.8-0.6-10.6-3.5-13.9-8.9c-2.7-4.3-4.1-10.5-4.1-18.6c-16.1,29.2-31.4,39.9-40.8,39.9
		c-5.4,0-9.3-2.3-12.2-6.4c-3.1-4.6-4.8-11.2-5-19.1c0-4.1,0.4-8.7,1.2-13.3c0.8-5.4,1.9-10.8,3.1-16.4c1.7-9.7,3.9-22,3.9-27.3
		c0-1.9-0.4-2.7-1-2.7c-3.3,0-10.4,17-14.1,25.7c-3.3,7.7-6.8,15.5-10.8,22.4c-2.1,3.1-5,6-7.7,6.2c-6,0-6.4-11.4-6.4-15.7v-1.4
		c0-8.5,0-19.9-0.6-29.4c-0.2-2.3-0.8-3.3-1.5-3.3c-5.4,0-23.4,52.6-23.6,54c-1.4,5.2-5.2,8.1-9.1,8.1c-3.3,0-6.8-2.3-8.7-7
		c-1.4-3.5-1.9-8.1-1.9-12.4c0-3.2,0.2-6.3,0.5-9c-8,9.9-19.6,17.9-32.1,17.9c-5,0-9.9-1.2-14.7-3.9c-7.5,8.7-15.3,12.4-22.4,12.4
		h-0.4c-4.6,0-8.7-1.5-12.2-4.1c-3.5-2.7-6.2-6.2-8.1-10.8c-1.9-4.1-2.9-9.1-2.9-14.5c0-9.3,3.1-20.1,10.6-30.4
		c3.7-5.4,9.3-8.9,14.9-10.4c1.9-0.6,3.7-0.8,5.4-0.8c1.9,0,3.7,0.2,5.6,0.8c3.7,1,6.8,3.3,9.3,6.6c2.5,3.5,4.1,8.3,4.1,14.5
		c0.4,0.2,0.6,0.2,1,0.4c1.9,1,3.5,2.5,4.3,4.6c1.4,2.7,1.9,5.6,1.9,8.5c0,1,0,1.9,0,2.7c-0.8,5.6-3.7,10.4-6.8,14.9
		c3.5,1.7,7,2.5,10.6,2.5c15.1,0,28.5-14.4,33.6-26.5c0.1-0.4,0.1-0.8,0.2-1.3l1.4-14.1l0.2-0.4c1.7-6.6,4.8-10.1,8.7-10.1
		c3.7,0.2,6,2.5,6,8.7c0,6.2-2.9,25.5-3.5,43.3c9.9-32.1,24.2-58.4,35.4-58.4c6.2,0,10.8,7,10.8,28.6l-0.2,10.4c2.9-6,5-11.4,7.7-17
		c7.2-15.7,14.9-29,22.8-29c5.4,0,9.1,5.2,9.1,18.8c0,7.5-1,17-3.1,27.5c-2.7,12.2-5,25.5-5,35.6c0,6.8,1,11.8,5,11.8
		c6.8,0,26.5-20.1,41.2-55.5c1.2-3.4,2.7-6.9,4.6-10.3c3.1-5.8,7-11,11.4-14.3c3.3-2.5,6.8-3.7,10.4-3.7c6.4,0,12.2,4.3,14.3,12
		c0.4,1.5,0.6,2.9,0.6,4.6c0,4.6-1.9,9.7-6.2,14.5c-0.6,0.8-1.5,1.4-2.3,2.3c-3.9,3.5-9.1,6-14.5,6.6c-0.8,0-1.4,0.2-2.3,0.2
		c-1,0-2.1-0.2-2.9-0.4c-0.8,3.5-1.2,7.7-1.2,12c0,9.7,2.5,19.7,10.8,19.7c1.9,0,4.1-0.6,6.6-1.7c15.3-6.8,32.9-23.6,43.7-42.2
		c0.4-1,1.7-1.7,2.9-1.7c0.6,0,1.2,0,1.9,0.4C599.5,3339.8,600.1,3340.8,600.1,3342z M535.5,3345.8c0.4,0,0.8,0.2,1.4,0.2
		c0.4,0,0.8-0.2,1.5-0.2c3.7-0.4,7.5-2.3,10.6-4.8c0.6-0.6,1.2-1.2,1.7-1.9c2.9-3.1,4.1-7.5,4.1-11.2c0-3.5-1.2-6.4-3.7-6.4
		c-2.1,0-4.8,2.1-7.9,7.7C539.4,3335.6,536.3,3343.9,535.5,3345.8z M330.1,3367.7c-4.6-4.3-6.8-9.9-6.8-15.7c0-3.9,1-7.9,3.1-11.8
		c1.2-2.1,2.9-3.7,4.8-4.8c0.4-0.2,1-0.4,1.4-0.4c0-4.6-1-7.9-2.7-10.4c-1.9-2.5-3.7-3.3-5.4-3.3c-5,0-9.3,7.2-11.6,11.6
		c-2.5,4.8-5.6,16.4-5.6,26.3c0,8.7,2.5,16.2,9.7,16.2h0.4C322.2,3375.2,327.4,3370.8,330.1,3367.7z M339.8,3350.3
		c0-0.8,0.2-1.4,0.2-2.3c0-1.7-0.4-3.1-1-4.8c-0.8-1.4-1.9-1.9-2.9-1.9c-1.7,0-3.1,1-3.9,2.9c-1.2,2.5-1.9,5-1.9,7.7
		c0,3.5,1.2,7.2,4.1,10.1C336.9,3358.6,339.2,3354.7,339.8,3350.3z"/>
</g>
</svg>
