<?xml version="1.0" encoding="utf-8"?>
<!-- Generator: Adobe Illustrator 19.0.0, SVG Export Plug-In . SVG Version: 6.00 Build 0)  -->
<svg version="1.1" id="Layer_1" xmlns="http://www.w3.org/2000/svg" xmlns:xlink="http://www.w3.org/1999/xlink" x="0px" y="0px"
	 viewBox="0 0 720 3456" style="enable-background:new 0 0 720 3456;" xml:space="preserve">
<g id="XMLID_1_">
	<path id="XMLID_100_" d="M652.7,3064.5c3.1-12.3,5.6-24.8,7.3-37.6c0-0.2,0-0.5,0-0.7c0-2.7-2-5-4.7-5.4c-3-0.4-5.7,1.7-6.1,4.7
		c-4.5,34.6-14.7,67.4-29.7,97.4c-44.7-20.7-93.3-10.1-144.6,31.9c-1.5,1.2-2.2,3.1-1.9,5c0.3,1.9,1.5,3.5,3.3,4.2
		c50.7,20.6,92.6,16.2,127.5-13.4c-13,20.3-28.3,38.9-45.7,55.6c-22.7,6.4-46.6,7.4-69.8,2.8c0.3-1.4,0.4-2.8,0.4-4.3
		c0-12.9-10.5-23.4-23.4-23.4c-12.9,0-23.4,10.5-23.4,23.4c0,12.9,10.5,23.4,23.4,23.4c7.4,0,14-3.6,18.3-9
		c19.1,4.1,38.8,4.7,58.1,1.7c-9.8,8.1-20.1,15.7-30.9,22.6c-0.2,0.1-0.4,0.1-0.5,0.3c-0.1,0.1-0.2,0.1-0.2,0.2
		c-8.9,5.7-18.2,10.9-27.8,15.6c-29.6-38.2-77.1-51.3-141.3-38.9c-1.9,0.4-3.4,1.7-4.1,3.5c-0.7,1.8-0.3,3.8,0.9,5.3
		c27,32.6,56.4,49.5,89,51.1c-3,0.8-5.9,1.6-8.9,2.3c-1.3,0.3-2.5,0.6-3.8,0.9c-34.4,7.8-69.2,9.4-103.1,5.4c0-1.1,0.1-2.1,0.1-3.2
		c0-47-28.6-86.2-85-116.5c-1.7-0.9-3.7-0.9-5.4,0.1c-1.6,1-2.6,2.4-2.6,4.7c0.3,50.1,17.3,85.4,51.4,107
		c-33.7-8.8-65.8-23.4-94.7-43c3.8-9.7,5.8-19.5,5.8-29.5c0-24.6-11.4-50.1-34.2-76c-1.3-1.4-3.2-2.1-5.1-1.8
		c-1.9,0.3-3.4,1.7-4.1,3.5c-10.1,27.5-10.7,51.3-2,71.9c-17.4-16.6-33-35.5-46.2-56.3c1-5.3,1.6-10.5,1.6-15.7
		c0-30.6-17-59.5-50.7-86.1c-1.5-1.2-3.5-1.5-5.3-0.8c-1.8,0.7-3.1,2.3-3.4,4.1c-8.6,50,7.6,84.7,49.3,106.2
		c0.2,0.1,0.4,0.1,0.6,0.2c8.8,13.7,18.6,26.5,29.2,38.3c-20.4-6.2-44.8-5.7-73,1.6c-1.9,0.5-3.3,1.9-3.9,3.7
		c-0.5,1.8-0.1,3.8,1.3,5.2c34.4,36.7,71.5,45,113.5,25.3c13.7,11,28.2,20.7,43.3,29.2c-29.3-1.5-56.6,4-76.8,15.8
		c-3.9-4.1-9-6.8-14.8-7.3c-6.2-0.6-12.3,1.3-17.1,5.3c-9.9,8.2-11.3,23-3.1,32.9c4,4.8,9.6,7.8,15.8,8.4c6.2,0.6,12.3-1.3,17.1-5.3
		c4.8-4,7.8-9.6,8.4-15.8c0.1-0.7,0.1-1.5,0.1-2.2c0-2.2-0.4-4.4-1-6.5c25-14.6,62.4-18.5,100.6-10.4c0.2,0,0.3,0,0.5,0
		c6.5,2.8,13.1,5.4,19.8,7.8c-29.2,5.2-57.9,23.3-85.6,54.4c-1.3,1.4-1.7,3.4-1.1,5.2c0.6,1.8,2.1,3.2,3.9,3.6
		c59.5,13.9,102.8-2.5,132.1-50.1c14.7,2.7,29.7,4.3,44.7,4.9c-25,11.7-47,29.3-60.4,49.1c-5.3-2.1-11.1-2.2-16.4-0.2
		c-5.9,2.1-10.5,6.4-13.2,12.1c-5.4,11.7-0.3,25.6,11.4,31c5.7,2.6,12,2.9,17.9,0.7c5.9-2.1,10.5-6.5,13.2-12.1
		c1.5-3.1,2.2-6.5,2.2-9.8c0-2.7-0.5-5.4-1.4-8.1c-1-2.8-2.6-5.4-4.6-7.5c17.4-25.6,50.5-47.4,84.9-55.6c0.1,0,0.1-0.1,0.2-0.1
		c3.1-0.2,6.1-0.5,9.2-0.8c-22.8,16.4-41.4,42.5-55.6,78.5c-0.7,1.8-0.4,3.8,0.8,5.3c1.2,1.5,3.1,2.3,5,2.1
		c63.9-7.9,100.4-40.1,111.6-98.3c15.5-4.8,30.5-10.7,44.8-17.6c-13.7,18.5-23.1,40.2-26.7,63c-12.2,0.8-21.9,10.8-21.9,23.2
		c0,12.9,10.5,23.4,23.4,23.4c12.9,0,23.4-10.5,23.4-23.4c0-9.6-5.8-17.9-14.2-21.5c5.1-32.2,22.5-62.1,47.9-82.5
		c6.8-4.3,13.3-8.9,19.7-13.7c-15.6,31.3-17.5,71.1-5.6,119c0.5,1.9,1.9,3.3,3.7,3.9c1.8,0.6,3.8,0.1,5.2-1.2
		c33.7-31,50.4-63.7,50.4-99c0-18.6-4.7-38-14-58.1c11.6-12.3,22.3-25.5,31.8-39.5c-2.8,27.5-0.9,55.3,5.5,82.2
		c-7,4-11.8,11.5-11.8,20.2c0,12.9,10.5,23.4,23.4,23.4c12.9,0,23.4-10.5,23.4-23.4c0-12.9-10.5-23.4-23.4-23.4
		c-0.4,0-0.8,0.1-1.2,0.1c-8-33.7-8.4-69.1-1.2-102.9c2.9-5.3,5.7-10.6,8.4-16.1c-1.4,38.7,11.5,74.5,38.7,107.1
		c1.3,1.5,3.3,2.2,5.2,1.9c1.9-0.4,3.5-1.8,4.1-3.7c8-25.4,12-48.6,12-69.8C690.9,3121.7,678.2,3090.3,652.7,3064.5z M650.3,3077.7
		c30.4,34.7,37.4,80.1,21.2,138.4C640.5,3174.6,633.5,3129.2,650.3,3077.7z M278.9,3295.2c-25,37.7-60.7,52-108.8,43.3
		C205.9,3301.1,241.6,3286.9,278.9,3295.2z M166.4,3230.3c-25-22-32-48.7-21.9-83.1C167.8,3176.6,175,3203.9,166.4,3230.3z
		 M300.4,3284.2c-44.9-16.2-68.2-49.2-71-100.6C276.5,3210.9,299.8,3244,300.4,3284.2z M137.8,3224.8c-32.1,12.9-61.2,6.8-88.3-18.7
		C88.2,3198,117.2,3204.1,137.8,3224.8z M79.2,3143.7c-0.1,0.1-0.2,0.1-0.3,0.1c-0.1,0.1-0.1,0.2-0.2,0.2
		c-29.3-17.8-41.8-44.5-37.9-81.3C70.3,3088.4,82.9,3115.1,79.2,3143.7z M568.7,3213.6c20.3,48.7,10.6,92.2-29.6,132.5
		C526.5,3288,536.5,3243.5,568.7,3213.6z M415.8,3294.4c1.9-0.4,3.7-0.9,5.6-1.3c2.1-0.4,4.3-0.8,6.5-1.1
		c-10.9,46.5-41,73.4-91.7,82.2C355.7,3329.5,381.9,3303.2,415.8,3294.4z M471.1,3262.7c-45,15.8-84,5-118.6-33.1
		C406.3,3221,445.2,3231.9,471.1,3262.7z M609.3,3130.2c-32.2,35.2-71.6,44.1-120.1,27C532.5,3124.2,571.9,3115.3,609.3,3130.2z"/>
	<path id="XMLID_75_" d="M70.8,430.6c4.5-34.6,14.7-67.4,29.7-97.4c44.7,20.7,93.3,10.1,144.6-31.9c1.5-1.2,2.2-3.1,1.9-5
		c-0.3-1.9-1.5-3.5-3.3-4.2c-50.7-20.6-92.6-16.2-127.5,13.4c13-20.3,28.3-38.9,45.7-55.6c22.7-6.4,46.6-7.4,69.8-2.8
		c-0.3,1.4-0.4,2.8-0.4,4.3c0,12.9,10.5,23.4,23.4,23.4c12.9,0,23.4-10.5,23.4-23.4c0-12.9-10.5-23.4-23.4-23.4
		c-7.4,0-14,3.6-18.3,9c-19.1-4.1-38.8-4.7-58.1-1.7c9.8-8.1,20.1-15.7,30.9-22.6c0.2-0.1,0.4-0.1,0.5-0.3c0.1-0.1,0.2-0.1,0.2-0.2
		c8.9-5.7,18.2-10.9,27.8-15.6c29.6,38.2,77.1,51.3,141.3,38.9c1.9-0.4,3.4-1.7,4.1-3.5c0.7-1.8,0.3-3.8-0.9-5.3
		c-27-32.6-56.4-49.5-89-51.1c3-0.8,5.9-1.6,8.9-2.3c1.3-0.3,2.5-0.6,3.8-0.9c34.4-7.8,69.2-9.4,103.1-5.4c0,1.1-0.1,2.1-0.1,3.2
		c0,47,28.6,86.2,85,116.5c1.7,0.9,3.7,0.9,5.4-0.1c1.6-1,2.6-2.7,2.6-4.6c0,0,0,0,0,0c-0.3-50.1-17.3-85.4-51.4-107
		c33.7,8.8,65.8,23.4,94.7,43c-3.8,9.7-5.8,19.5-5.8,29.5c0,24.6,11.4,50.1,34.2,76c1.3,1.4,3.2,2.1,5.1,1.8
		c1.9-0.3,3.4-1.7,4.1-3.5c10.1-27.5,10.7-51.3,2-71.9c17.4,16.6,33,35.5,46.2,56.3c-1,5.3-1.6,10.5-1.6,15.7
		c0,30.6,17,59.5,50.7,86.1c1.5,1.2,3.5,1.5,5.3,0.8c1.8-0.7,3.1-2.3,3.4-4.2c8.5-49.9-7.6-84.7-49.3-106.2
		c-0.2-0.1-0.4-0.1-0.6-0.2c-8.8-13.7-18.6-26.5-29.2-38.3c20.4,6.2,44.8,5.7,73-1.6c1.9-0.5,3.3-1.9,3.9-3.7
		c0.5-1.8,0.1-3.8-1.3-5.2c-34.4-36.7-71.5-45-113.5-25.3c-13.7-11-28.2-20.7-43.3-29.2c29.3,1.5,56.6-4,76.8-15.8
		c3.9,4.2,9.1,6.8,14.8,7.3c6.2,0.6,12.3-1.3,17.1-5.3c4.8-4,7.8-9.6,8.4-15.8c0.5-6.2-1.3-12.3-5.3-17.1c-4-4.8-9.6-7.8-15.8-8.4
		c-6.2-0.6-12.3,1.3-17.1,5.3c-4.8,4-7.8,9.6-8.4,15.8c-0.1,0.7-0.1,1.5-0.1,2.2c0,2.2,0.4,4.4,1,6.5c-25,14.6-62.4,18.5-100.6,10.4
		c-0.2,0-0.3,0-0.5,0c-6.5-2.8-13.1-5.4-19.8-7.8c29.2-5.2,57.9-23.3,85.6-54.4c1.3-1.4,1.7-3.4,1.1-5.2c-0.6-1.8-2.1-3.2-3.9-3.6
		c-59.5-13.9-102.8,2.5-132.1,50.1c-14.7-2.7-29.7-4.3-44.7-4.9c25-11.7,47-29.3,60.4-49.1c5.3,2.1,11.1,2.2,16.4,0.2
		c5.9-2.1,10.5-6.4,13.2-12.1c5.4-11.7,0.3-25.6-11.4-31c-5.7-2.6-12-2.9-17.9-0.7c-5.9,2.1-10.5,6.5-13.2,12.1
		c-1.5,3.1-2.2,6.5-2.2,9.8c0,2.7,0.5,5.4,1.4,8.1c1,2.8,2.6,5.4,4.6,7.5c-17.4,25.6-50.5,47.4-84.9,55.6c-0.1,0-0.1,0.1-0.2,0.1
		c-3.1,0.2-6.1,0.5-9.2,0.8c22.8-16.4,41.4-42.5,55.6-78.5c0.7-1.8,0.4-3.8-0.8-5.3c-1.2-1.5-3.1-2.3-5-2.1
		c-63.9,7.9-100.4,40.1-111.6,98.3c-15.5,4.8-30.5,10.7-44.8,17.6c13.7-18.5,23.1-40.2,26.7-63c12.2-0.8,21.9-10.8,21.9-23.2
		c0-12.9-10.5-23.4-23.4-23.4c-12.9,0-23.4,10.5-23.4,23.4c0,9.6,5.8,17.9,14.2,21.5c-5.1,32.2-22.5,62.1-47.9,82.5
		c-6.8,4.3-13.3,8.9-19.7,13.7c15.6-31.3,17.5-71.1,5.5-118.9c-0.5-1.9-1.9-3.3-3.7-3.9c-1.8-0.6-3.8-0.1-5.2,1.2
		c-33.7,31-50.4,63.7-50.4,99c0,18.6,4.7,38,14,58.1c-11.6,12.3-22.3,25.5-31.8,39.5c2.8-27.5,1-55.3-5.5-82.2
		c7-4,11.8-11.5,11.8-20.2c0-12.9-10.5-23.4-23.4-23.4c-12.9,0-23.4,10.5-23.4,23.4c0,12.9,10.5,23.4,23.4,23.4
		c0.4,0,0.8-0.1,1.2-0.1c8,33.7,8.4,69,1.2,102.9c-2.9,5.3-5.7,10.6-8.4,16.1c1.4-38.7-11.5-74.5-38.7-107.1
		c-1.3-1.5-3.3-2.2-5.2-1.9c-1.9,0.4-3.5,1.8-4.1,3.7c-8,25.4-12,48.6-12,69.8c0,37.8,12.7,69.2,38.2,95
		c-3.1,12.3-5.6,24.8-7.3,37.6c0,0.2,0,0.5,0,0.7c0,2.7,2,5,4.7,5.4C67.7,435.6,70.4,433.5,70.8,430.6z M490.6,272.4
		c-47.1-27.4-70.4-60.4-71-100.6C464.5,188,487.8,221.1,490.6,272.4z M575.5,308.8c-23.4-29.4-30.6-56.7-21.9-83.1
		C578.6,247.7,585.6,274.5,575.5,308.8z M549.9,117.6c-35.8,37.3-71.5,51.5-108.8,43.3C466.1,123.1,501.8,108.9,549.9,117.6z
		 M679.3,393.3c-29.6-25.7-42.2-52.3-38.5-81c0.1-0.1,0.2-0.1,0.3-0.1c0.1-0.1,0.1-0.2,0.2-0.2C670.7,329.7,683.2,356.5,679.3,393.3
		z M670.5,249.9c-38.7,8.2-67.7,2-88.3-18.7C614.3,218.2,643.3,224.4,670.5,249.9z M48.5,239.9c31,41.5,38,86.9,21.2,138.4
		C39.3,343.6,32.3,298.1,48.5,239.9z M230.8,298.8c-43.3,33-82.8,41.9-120.1,27C142.9,290.6,182.3,281.7,230.8,298.8z M367.5,226.4
		c-53.8,8.6-92.7-2.3-118.6-33.1C293.9,177.5,332.9,188.4,367.5,226.4z M383.8,81.7c-19.5,44.8-45.7,71-79.6,79.8
		c-1.9,0.4-3.7,0.9-5.6,1.3c-2.1,0.4-4.3,0.8-6.5,1.1C303,117.5,333.1,90.5,383.8,81.7z M180.9,109.9
		c12.5,58.1,2.6,102.6-29.6,132.5C131.1,193.7,140.8,150.2,180.9,109.9z"/>
	<path id="XMLID_545_" d="M566.9,436.6v20.5h-9.2c-4.9,0-8.1,1.1-10.3,2.7c-2.7,1.6-4.9,4.3-7,7.6c-2.2,3.2-7,17.3-14.6,42.1
		c-3.8,11.3-7.6,23.7-11.3,37.2c-16.2,51.8-29.1,89.6-38.3,112.8c-4.3,11.3-9.2,20-14.6,25.4c-5.4,5.9-12.9,8.6-23.2,8.6
		c-6.5-1.1-10.8-2.7-12.9-4.3c10.3-4.9,17.3-9.7,21.6-15.1c3.8-5.4,8.1-14.6,12.9-27.5c9.2-22.1,23.7-65.3,43.7-130.6l10.8-35.1
		c2.7-9.2,4.3-15.6,5.9-18.3c1.6-4.3,4.9-7,8.6-7.6c3.8-0.5,10.8-1.1,21-1.1v-17.3H566.9z M334.9,576.3c-5.9,13.5-12.9,30.8-21,50.7
		l-14.6,34c-3.2,5.9-7,11.3-10.8,15.1c-3.8,4.3-9.7,8.1-17.8,11.9c2.7,2.7,7.6,4.9,13.5,5.4c16.7,0,29.1-11.3,37.2-33.4l39.9-94.9
		l-9.7-29.7L334.9,576.3z M437.4,668.6c4.9-5.4,11.9-20,20-44.2c8.1-23.7,18.9-57.2,32.4-99.8c2.7-7.6,5.9-18.9,10.3-33.4
		c4.3-14.6,8.1-25.4,10.8-32.9c2.7-5.9,6.5-9.7,10.8-11.9c3.8-1.6,10.3-2.7,18.3-3.2v-20.5l-103,0.5v20l22.7,0.5
		c9.7,1.6,14,7.6,12.9,16.7c-1.6,8.6-7.6,31.8-18.9,70.1c-11.3,38.3-21,67.4-28.1,86.3L411,569.3l-21.6-69.6
		c-11.3-36.1-17.8-56.6-20.5-61.5c-2.7-5.4-5.4-9.2-8.6-10.8c-4.9-3.2-10.8-4.9-17.8-4.9c-7.6,0-14,1.6-18.9,5.4
		c-5.4,3.8-7.6,9.2-6.5,15.6h4.9c1.6,0.5,3.8,1.6,5.9,3.2c1.6,2.7,2.7,5.9,2.7,10.3v3.8c-0.5,10.3-7,29.7-18.3,59.3l-40.5,96
		c-1.6-5.4-7.6-26.4-17.3-63.1c-10.3-36.7-17.3-63.7-21.6-81.5c-1.6-5.4-2.7-10.3-3.2-14.6c-1.1-7,2.2-11.9,9.2-13.5l15.1-0.5
		c0-4.9,0-9.2,0.5-12.9c0-3.8,0-5.9-0.5-7l0,0H153.1v20h10.8c7,0.5,11.9,1.6,15.6,3.2c3.8,1.6,7,5.4,10.3,10.8
		c2.2,3.8,5.4,14.6,10.3,32.4l23.7,84.2l15.1,52.9c3.2,12.9,4.9,21.6,4.9,26.4l-0.5,4.9c-1.1,3.2-3.2,5.4-5.9,7
		c1.6,4.9,4.3,8.1,8.6,10.8c3.8,2.7,8.6,4.3,14,4.3c9.2,0,17.3-3.8,23.7-11.9c1.6-2.2,4.9-7.6,8.6-16.2c3.8-8.1,8.1-19.4,13.5-33.4
		c3.8-9.2,9.2-22.7,16.7-40.5c7-17.8,17.3-42.6,30.2-73.9L391,622.7c6.5,16.7,9.2,28.6,8.1,35.1c-0.5,2.2-1.1,3.8-1.6,4.3l-3.8,2.7
		c1.6,4.9,4.3,8.1,8.1,10.8c3.8,2.7,8.1,3.8,12.9,3.8C423.9,679.4,431.5,675.6,437.4,668.6z M405,514.3c10.3,34,17.3,56.6,20.5,68
		c0.5-1.1,1.1-3.2,2.7-7l3.8-11.9l-7.6-24.3c-15.6-52.3-25.4-81.5-29.1-88.5c-2.7-5.4-5.9-9.2-9.7-10.8l-5.4-2.2l1.6,3.8
		C386.7,456,394.8,480.3,405,514.3z M240,455.5c1.6,7,6.5,27.5,15.6,60.4c8.6,32.9,14.6,56.1,18.3,68.5l7.6-18.3
		c-3.8-12.4-7.6-27-11.3-43.2c-4.3-15.6-7.6-28.1-9.7-36.7c-2.7-8.1-3.8-14-3.8-18.3c0-2.7,1.1-5.4,3.2-7.6c1.6-1.6,3.2-2.2,4.9-2.7
		c1.6-0.5,4.9-0.5,9.2-0.5h7.6v-20.5h-16.7v17.3H240V455.5z"/>
	<path id="XMLID_538_" d="M359.7,1009.6h-116v-23.7h12.4c3.2,0,5.9,0,8.1-0.5c1.6,0,3.2-0.5,4.9-1.6c1.6-1.6,2.7-3.2,3.2-5.4
		c0.5-2.2,0.5-4.9,0.5-8.6v-8.1V791.2c0-4.9-1.1-8.6-3.8-10.8c-1.6-1.1-3.2-1.6-5.9-2.2h-9.7c-3.8,0-7,0-9.7,0v-21h22.7
		c17.3,0,36.1-1.1,56.6-2.7l34-1.6c13.5-0.5,26.4-0.5,38.8-0.5c8.1,0.5,14,1.1,18.9,2.2c4.9,1.1,8.6,2.7,12.4,5.4
		c8.1,5.9,11.9,16.2,11.9,30.8c0,4.3,0,7-0.5,8.6c-2.2,9.2-5.9,16.2-11.9,20.5c-5.9,4.3-11.9,5.9-18.9,5.4
		c-0.5-15.6-2.7-26.4-5.4-32.4c-3.2-5.9-9.7-9.7-19.4-12.4c-4.3-1.6-12.9-2.2-25.4-2.2c-11.9,0-22.7,1.1-31.8,2.7
		c-9.7,2.2-15.1,4.9-16.2,8.6v72.3h59.3c7,0.5,12.4,2.2,16.7,4.9c4.3,3.2,6.5,8.1,6.5,14.6c0,7-3.2,12.9-10.3,18.3
		c-7,5.4-14.6,7.6-23.2,7c0.5-7-0.5-11.3-3.8-13.5c-3.8-1.6-10.8-2.7-21-2.7H309v84.7c2.7,4.9,18.9,7.6,49.1,8.1
		c17.8,0,32.4-4.3,44.8-12.4c12.4-8.1,17.8-17.8,16.2-29.7c8.1-1.1,14.6,1.1,20.5,5.9c5.4,4.9,8.6,10.8,9.2,17.3
		c0.5,8.6-1.1,15.6-4.9,21.6c-3.8,5.9-9.2,10.8-17.3,14.6c-8.6,3.8-17.3,6.5-25.4,7.6C393.2,1009.1,379.2,1009.6,359.7,1009.6z
		 M319.8,969.7c4.3,1.1,9.7,1.6,16.7,2.2V905h11.9v-3.2c-1.1-0.5-10.8-1.1-28.6-1.1V969.7z M409.9,912.5c5.9-4.3,9.2-10.8,9.2-20
		c-0.5-8.1-5.9-13.5-16.2-15.1c0,5.9-1.1,11.9-3.2,17.3c-2.7,5.9-7.6,10.8-15.1,15.6c0.5,1.1,0.5,2.2,1.1,3.2v6.5
		C395.3,919.6,403.4,916.9,409.9,912.5z M334.4,790.1c-7,1.1-11.9,2.2-14.6,3.8V851h16.7v-46.4c0-1.1,1.1-2.7,3.2-4.3
		c3.2-2.7,8.6-4.3,16.7-5.4c8.1-1.1,18.3-1.6,30.8-2.2c-3.8-2.7-14-3.8-29.7-3.8C349.5,789,341.4,789.5,334.4,790.1z M472.5,968.6
		c-2.7-5.9-7.6-9.7-14.6-11.9c1.1,4.3,1.6,8.6,1.6,12.9c0,14.6-6.5,26.4-18.9,35.1c-12.9,9.2-30.2,14-51.3,15.1
		c-3.2,0.5-24.3,0.5-63.1,0.5h-55.6v3.8h138.1c18.9-0.5,34.5-3.8,45.9-9.7c11.3-5.4,18.3-14.6,21-27
		C476.3,980.5,475.2,974.6,472.5,968.6z M434.7,826.8v11.9c10.3,0.5,17.8-3.2,23.7-10.3c5.9-7,8.6-15.6,8.6-25.4c0-7-1.6-14-4.9-20
		c-3.8-5.9-8.6-9.7-15.6-12.4c2.2,5.9,3.2,12.4,3.2,19.4C449.8,804.6,445,816.5,434.7,826.8z"/>
	<path id="XMLID_534_" d="M470,1308.6c0,8.1-2.2,15.6-5.9,21.6c-4.9,8.1-11.9,13.5-21,16.7c-9.2,3.8-18.9,5.9-28.6,6.5
		c-9.7,0.5-23.2,1.1-40.5,1.1h-96.6v-3.2l104.1-0.5c21-1.1,38.3-6.5,51.8-15.6c13.5-9.2,20-22.1,20-37.8c0-4.9-0.5-9.2-1.6-14
		c6.5,1.6,11.3,4.9,14,9.7C468.4,1297.8,470,1302.7,470,1308.6z M405.9,1336.1c11.9-2.7,21-8.1,28.1-15.6c5.9-7,8.6-15.1,8.6-24.8
		c0-3.8-0.5-7-1.6-10.3c-1.6-4.9-4.3-9.2-8.6-11.9c-4.3-2.7-9.2-4.3-14-4.3c-5.9,0-11.3,1.6-16.2,4.9c2.2,2.7,3.2,5.9,3.2,9.7
		l-0.5,5.4c-1.6,11.3-12.4,18.9-31.3,23.2c-4.9,1.6-12.9,2.2-23.2,2.2c-16.2,0-27-1.6-31.8-4.9c-0.5-0.5-1.1-1.1-1.1-2.7
		c-0.5-1.1-0.5-2.7-0.5-4.3v-178.6v-6.5c0-2.7,0-4.9,0.5-7c0.5-1.6,1.6-3.2,3.2-4.9c1.6-1.1,3.2-1.6,5.4-2.2h7.6H346v-21h-96v21
		c2.7,0,5.9,0,9.7,0h9.7c2.7,0.5,4.3,1.1,5.9,2.2c2.7,2.2,3.8,5.9,3.8,10.8V1293v8.1c0,3.8,0,6.5-0.5,8.6c-0.5,2.2-1.6,3.8-3.2,5.4
		c-1.6,1.1-3.2,1.6-4.9,1.6c-2.2,0.5-4.9,0.5-8.1,0.5h-12.4v23.7h121.4C382.7,1341,394,1339.4,405.9,1336.1z M327.6,1302.1
		c3.2,1.1,8.6,1.6,16.7,1.6v-167.2c0-7,0-11.3,0.5-12.9c0.5-1.6,1.6-2.7,3.2-4.3c1.6-1.1,4.3-1.6,7-2.2h9.2c3.8,0,7,0,9.7,0v-21
		h-17.3v18.3h-29.1V1302.1z"/>
	<path id="XMLID_529_" d="M361.9,1671.5c-20,0-38.3-4.3-55-12.4c-17.3-8.1-31.8-20-43.2-35.1c-16.7-22.1-25.4-49.6-25.4-81.5
		c0-4.9,0.5-11.9,1.1-21c4.3-31.8,16.7-56.6,37.8-75.5c26.4-22.1,57.7-33.4,94.9-33.4c8.1,0,16.2,0.5,24.3,1.6
		c18.3,2.2,32.4,6.5,42.6,13.5c10.3,7,15.1,18.3,15.1,34c0,6.5-1.1,11.9-2.7,16.2c-1.6,4.9-3.8,8.1-5.4,9.7c-2.7,3.8-5.9,5.9-9.2,7
		c-3.8,1.6-8.6,2.2-15.6,2.7c0-19.4-2.2-33.4-7-42.1c-4.9-8.1-14.6-13.5-30.2-15.1l-9.2-0.5c-12.4,0-23.7,1.6-34,5.4
		c-10.3,3.8-18.3,8.1-24.3,12.9c-13.5,9.7-23.2,22.1-29.7,37.2c-6.5,15.1-9.7,31.3-9.7,49.1c0,7.6,0.5,15.6,1.6,23.7
		c4.9,21.6,14.6,38.8,29.1,52.3c14.6,13.5,32.4,21,52.3,22.7c32.9,1.1,55.6-11.9,68-38.8h5.9c7,0.5,12.4,4.3,15.6,10.8
		c1.6,3.2,2.7,7,2.7,11.9c0,3.8-1.1,7.6-2.7,11.3c-1.6,3.8-3.8,7-6.5,9.7c-11.3,11.9-32.9,19.4-64.7,22.7
		C370.5,1671,365.1,1671.5,361.9,1671.5z M464.9,1460.6c0,17.8-5.4,31.3-16.7,39.9v10.3c7.6,0,13.5-1.1,17.8-2.7
		c3.8-1.6,7.6-5.9,11.3-12.4c2.7-6.5,4.3-12.9,4.3-20c0-8.1-1.6-15.6-5.4-22.7s-9.2-11.9-16.2-15.1c1.6,2.2,2.7,5.4,3.8,9.7
		C464.4,1452,464.9,1456.3,464.9,1460.6z M395.9,1453.6c-5.4-2.2-12.9-3.2-23.2-3.2c-3.8,0-8.1,0.5-12.4,1.1
		c-20.5,3.8-37.8,12.9-51.3,28.1c-7,8.1-12.4,17.8-16.2,29.1s-5.4,23.2-5.4,35.1c0,14.6,2.7,28.1,8.6,41
		c5.4,12.9,13.5,23.2,23.7,31.3c-7-11.3-11.9-24.3-14.6-39.9c-1.1-7-1.6-14-1.6-20.5c0-27,8.1-50.2,24.8-69.1
		C344.6,1467.6,367.3,1456.8,395.9,1453.6z M462.2,1618.1c0.5,4.3,1.1,7.6,1.1,9.2c0,17.8-9.7,31.3-29.7,40.5
		c-20,9.2-44.2,14-73.9,14c10.3,2.2,21,3.2,32.4,3.2c23.2,0,43.7-3.8,61.5-11.9c17.8-8.1,26.4-18.9,26.4-32.9
		c0-5.9-1.6-10.8-4.9-15.1C471.9,1620.8,467.6,1618.7,462.2,1618.1z"/>
	<path id="XMLID_523_" d="M347.9,2001.6c17.8,0.5,36.1-3.8,55-11.9c18.9-8.1,34-22.7,45.3-43.2c5.9-9.7,10.8-21,14-34.5
		c3.2-12.9,4.9-26.4,4.9-39.9c0-24.8-4.3-45.9-12.9-63.1c-9.2-21-23.2-37.2-42.6-49.6c-19.4-11.9-40.5-17.3-62.6-16.2
		c-24.3-0.5-45.9,3.8-64.2,14c-18.3,10.3-32.9,26.4-44.2,47.5c-4.9,9.2-8.1,20-10.8,31.3c-2.7,11.3-3.8,23.2-3.8,35.1
		c0,9.2,0.5,17.8,2.2,24.8c2.7,20.5,9.2,38.8,19.4,55c10.3,16.2,23.7,28.6,41,37.8C305.8,1997.8,325.7,2002.1,347.9,2001.6z
		 M275.6,1923.4c-7-15.6-10.3-32.4-10.3-50.2c0-19.4,3.2-36.7,10.3-52.3s16.2-27.5,28.6-36.7c12.4-9.2,25.9-13.5,41.5-13.5
		c25.4,0,45.3,9.2,59.9,28.1c14.6,18.9,21.6,43.2,21.6,72.3c0,29.1-6.5,52.9-20,71.8c-13.5,18.9-33.4,29.1-59.3,30.8
		c-16.2,0.5-30.8-4.3-43.2-13.5C292.3,1950.9,282.6,1939,275.6,1923.4z M346.2,1789.6c-6.5,2.2-12.9,5.9-18.9,11.3
		c-11.3,9.7-19.4,22.1-25.4,36.7c-5.9,15.1-9.2,31.3-9.2,48c0,24.8,5.9,46.9,17.8,66.4c-11.3-8.1-19.4-19.4-25.4-33.4
		s-9.2-29.1-9.2-45.3c0-16.2,2.7-31.3,8.1-45.9c5.4-14.6,14-25.9,25.4-34c11.3-8.1,23.2-11.9,36.7-11.9c7,0,14,1.1,20.5,3.2
		C359.2,1785.8,352.2,1787.4,346.2,1789.6z M494.1,1886.7c0,34.5-9.2,63.7-27.5,86.9c-18.3,23.2-43.2,36.7-73.9,40.5
		c-10.8,0.5-17.8,1.1-21,1.1c-10.8,0-20.5-1.1-28.6-3.2c27,1.1,50.7-4.9,71.2-17.3c20.5-12.4,36.1-29.1,47.5-50.7
		c11.3-21.6,16.7-45.3,16.7-70.7c0-22.1-4.9-44.2-14-66.9c-1.6-3.8-3.2-8.1-5.9-12.9c-2.7-4.9-5.4-8.6-8.1-11.3
		c1.6,0.5,3.8,2.7,7.6,6.5c3.8,3.8,6.5,7.6,9.2,10.3C484.9,1823,494.1,1852.2,494.1,1886.7z"/>
	<path id="XMLID_515_" d="M272.9,2321.8h9.7v23.2h-85.2v-2.7h68.5v-29.1l1.1,3.8C268.6,2319.7,270.2,2321.3,272.9,2321.8z
		 M533.4,2321.8v20.5h-72.3v2.7h89v-23.2H533.4z M346.8,2242l4.9-12.4l-45.9-108.4c-3.8-9.2-7.6-15.6-10.3-20
		c-2.7-4.3-7-7.6-12.9-10.3c1.1,1.6,10.3,23.2,28.1,64.7C328.4,2197.2,340.3,2226.3,346.8,2242z M489.7,2189.6l8.6,89
		c0,0.5,0,2.2,0.5,4.3c0,2.2,0.5,4.3,1.1,6.5c0.5,2.2,2.2,4.3,3.8,5.9s4.3,2.2,8.6,2.2h3.2l-16.7-167.2c-0.5-3.8-1.1-6.5-1.1-9.2
		c0-3.2,0.5-5.4,2.2-7c1.6-1.6,4.3-3.2,8.1-4.3c3.2-0.5,7-1.1,11.9-1.1h10.3v-20H514v16.7l-32.4,0.5
		C483.3,2123.8,486,2151.3,489.7,2189.6z M270.2,2238.7l2.2-24.8l-15.1-32.4l-8.1,116h16.7L270.2,2238.7z M447.7,2306.2
		c-1.6,1.6-4.9,2.2-9.7,2.2h-4.3v23.2h89v-23.2h-7c-3.8,0-7-0.5-10.8-1.1c-3.8-0.5-7-2.7-10.3-5.9c-2.7-3.2-4.9-7-5.9-11.9
		c-1.1-4.9-1.6-10.3-2.2-16.7c0-3.2-0.5-7-1.1-11.3l-14-146.7l-0.5-8.1c0-3.8,0.5-5.9,1.6-7.6c1.6-1.6,3.8-3.2,7.6-3.8
		c3.2-0.5,7.6-0.5,12.4-0.5h10.3v-21H466c-7,0-12.4,0-16.7,0.5c-4.3,0.5-8.6,2.2-12.4,4.3c-8.1,4.9-14,10.8-18.3,18.3
		c-4.9,7.6-9.7,18.3-15.1,31.8l-5.9,14l-22.7,56.6c-15.6,39.9-24.8,63.1-28.1,70.1l-57.7-135.9c-1.6-3.8-3.2-7-4.3-10.3
		c-1.6-3.2-2.7-5.9-3.8-8.6c-3.2-9.2-6.5-16.2-9.2-21.6c-3.2-4.9-7.6-9.7-12.4-13.5c-4.3-2.7-8.6-4.3-13.5-4.9
		c-4.9-0.5-11.3-1.1-18.9-1.1h-39.4v21l17.3-0.5c5.9,0,10.3,1.6,11.9,4.3c1.6,2.7,2.2,5.4,2.2,8.1l-2.7,35.1
		c-7,97.6-11.9,148.9-14,153.8c-3.2,5.9-7,9.7-11.3,10.8c-4.9,1.6-11.9,2.2-21,2.2v23.2h85.2v-23.2h-5.9c-3.2,0-5.4-0.5-7-1.6
		c-2.7-2.2-3.8-5.9-3.8-10.8c0-4.9,1.6-27.5,4.9-68.5c3.2-41,5.4-70.7,7-89c5.9,13.5,15.6,35.1,28.1,63.7
		c12.4,29.1,24.3,55.6,34.5,79.3c0.5,2.7,2.2,7,4.9,13.5c2.2,6.5,3.2,11.9,3.2,15.6c0,4.9-1.6,7.6-5.4,8.1c1.6,4.3,3.8,7.6,7.6,9.7
		c3.8,2.2,7.6,3.2,11.3,3.2c7.6,0,14-2.2,18.9-5.9c4.9-3.8,8.6-9.2,11.9-16.7c2.7-7,4.9-11.9,5.9-14c7.6-17.8,18.3-44.2,32.4-78.2
		c14-34,24.8-59.9,31.8-78.2l15.1,154.8v5.4C450.4,2301.9,449.3,2304.6,447.7,2306.2z M378.6,2304c-4.3,10.3-8.6,18.3-12.4,23.7
		c-3.8,5.9-10.3,9.7-18.3,12.4c3.8,3.2,8.1,4.9,14,4.9c13.5,0,23.7-7,30.2-21.6c2.2-4.9,7.6-16.7,15.6-36.7
		c8.1-19.4,14-33.4,17.8-41.5l7.6-18.3l-4.3-45.3C408.8,2232.8,392.1,2273.8,378.6,2304z"/>
	<path id="XMLID_508_" d="M357.6,2440.3c15.6,0,25.9,1.1,29.7,3.8c-12.4,0.5-22.7,1.1-30.8,2.2c-8.1,1.1-13.5,2.7-16.7,5.4
		c-2.2,1.6-3.2,3.2-3.2,4.3v46.4h-16.7v-57.2c2.7-1.6,7.6-2.7,14.6-3.8C341.4,2440.9,349.5,2440.3,357.6,2440.3z M472.5,2620
		c-2.7-5.9-7.6-9.7-14.6-11.9c1.1,4.3,1.6,8.6,1.6,12.9c0,14.6-6.5,26.4-18.9,35.1c-12.9,9.2-30.2,14-51.3,15.1
		c-3.2,0.5-24.3,0.5-63.1,0.5h-55.6v3.8h138.1c18.9-0.5,34.5-3.8,45.9-9.7c11.3-5.4,18.3-14.6,21-27
		C476.3,2631.9,475.2,2625.9,472.5,2620z M319.8,2621.1c4.3,1.1,9.7,1.6,16.7,2.2v-66.9h11.9v-3.2c-1.1-0.5-10.8-1.1-28.6-1.1
		V2621.1z M434.7,2478.1v11.9c10.3,0.5,17.8-3.2,23.7-10.3c5.9-7,8.6-15.6,8.6-25.4c0-7-1.6-14-4.9-20c-3.8-5.9-8.6-9.7-15.6-12.4
		c2.2,5.9,3.2,12.4,3.2,19.4C449.8,2456,445,2467.9,434.7,2478.1z M409.9,2563.9c5.9-4.3,9.2-10.8,9.2-20
		c-0.5-8.1-5.9-13.5-16.2-15.1c0,5.9-1.1,11.9-3.2,17.3c-2.7,5.9-7.6,10.8-15.1,15.6c0.5,1.1,0.5,2.2,1.1,3.2v6.5
		C395.3,2570.9,403.4,2568.2,409.9,2563.9z M401.3,2659.4c8.1-1.1,16.7-3.8,25.4-7.6c8.1-3.8,13.5-8.6,17.3-14.6
		c3.8-5.9,5.4-12.9,4.9-21.6c-0.5-6.5-3.8-12.4-9.2-17.3c-5.9-4.9-12.4-7-20.5-5.9c1.6,11.9-3.8,21.6-16.2,29.7
		c-12.4,8.1-27,12.4-44.8,12.4c-30.2-0.5-46.4-3.2-49.1-8.1v-84.7h24.8c10.3,0,17.3,1.1,21,2.7c3.2,2.2,4.3,6.5,3.8,13.5
		c8.6,0.5,16.2-1.6,23.2-7c7-5.4,10.3-11.3,10.3-18.3c0-6.5-2.2-11.3-6.5-14.6c-4.3-2.7-9.7-4.3-16.7-4.9h-59.3v-72.3
		c1.1-3.8,6.5-6.5,16.2-8.6c9.2-1.6,20-2.7,31.8-2.7c12.4,0,21,0.5,25.4,2.2c9.7,2.7,16.2,6.5,19.4,12.4c2.7,5.9,4.9,16.7,5.4,32.4
		c7,0.5,12.9-1.1,18.9-5.4c5.9-4.3,9.7-11.3,11.9-20.5c0.5-1.6,0.5-4.3,0.5-8.6c0-14.6-3.8-24.8-11.9-30.8
		c-3.8-2.7-7.6-4.3-12.4-5.4c-4.9-1.1-10.8-1.6-18.9-2.2c-12.4,0-25.4,0-38.8,0.5l-34,1.6c-20.5,1.6-39.4,2.7-56.6,2.7h-22.7v21
		c2.7,0,5.9,0,9.7,0h9.7c2.7,0.5,4.3,1.1,5.9,2.2c2.7,2.2,3.8,5.9,3.8,10.8V2613v8.1c0,3.8,0,6.5-0.5,8.6c-0.5,2.2-1.6,3.8-3.2,5.4
		c-1.6,1.1-3.2,1.6-4.9,1.6c-2.2,0.5-4.9,0.5-8.1,0.5h-12.4v23.7h116C379.2,2661,393.2,2660.4,401.3,2659.4z"/>
	<path id="XMLID_2_" d="M254.2,2857.8c0.6,20,0,40.3-3.6,60.1c-3.3,16.1-7.3,31.5-13,46.7c-4.5,12.4-12.1,23.1-20.9,33.1
		c-5.2,5.8-11.5,10-18.5,13c-3.9,1.8-7.9,2.7-11.8,2.7c-14.6-0.3-20-6.7-22.4-17c-2.1-9.1-2.1-18.2,0.9-27c2.7-7,7-12.1,14-15.2
		c4.2-1.8,8.5-3.6,13-4.9c1.8-0.6,3.9-0.6,6.1-0.9c1.2,0,2.7,0,3.3,1.5c0.6,2.1-1.5,2.7-3,3.3c-1.2,0.6-2.4,0.6-3.9,0.9
		c-1.8,0.6-3.6,1.2-5.5,2.1c-4.2,1.5-6.7,4.2-8.2,8.2c-3.6,9.7-3,19.1,1.2,28.5c0.6,0.9,0.9,1.8,1.5,2.4c5.5,6.7,12.7,6.7,17.6,0
		c3.6-4.9,6.1-10.3,8.2-16.1c5.2-13.6,7.6-27.9,10-42.2c3.6-22.1,4.2-44.6,3.9-67.3v-35.2c0-3.3,0-6.7-1.5-10c0-0.3-0.9-0.9-1.2-0.9
		c-0.6,0-1.5,0.3-1.8,0.9c-0.6,1.8-1.5,3.6-2.1,5.5l-8.2,24.9c-6.4,21.2-13,42.5-21.8,62.8c-3.3,7-7,14-11.8,20
		c-6.7,8.5-15.8,10.6-26.1,8.8c-7.6-1.2-12.4-6.1-15.5-12.7c-1.5-4.2-2.4-8.5-2.7-12.7c-1.5-19.7-0.6-39.1,0.9-58.5
		c1.2-16.1,3-32.1,3.9-48.2c0.9-11.5-0.3-23.4-0.9-35.2v-0.9c-1.5-10.3-4.2-11.5-12.7-5.8c-5.8,3.6-10.6,8.2-14.9,13.6
		c-13.6,18.5-22.4,38.8-24.3,61.9c-0.6,7.9,0.6,15.5,3.3,22.7c1.5,3.3,3.3,6.7,6.4,9.1c1.5,0.9,3.3,0.9,4.5-0.6
		c1.2-1.5,2.4-3.3,3-5.2c2.1-8.8,2.1-17.9-2.1-26.4c-1.2-2.4-0.3-4.5,2.4-4.9c5.5-0.9,10.6,1.2,13.6,6.4c4.5,8.2,5.2,17.3,3.3,26.4
		c-1.2,4.5-4.2,8.2-8.5,10.9c-7.9,5.2-20.6,4.9-28.2-1.2c-4.9-3.9-8.2-9.1-10.3-14.9c-4.2-10.6-4.9-21.5-3.3-32.5
		c2.7-18.2,9.1-35.2,18.8-50.7c5.8-8.8,12.4-16.7,20.9-23.1c10-7.3,20.6-8.8,32.5-5.2c11.2,3.6,18.2,11.2,22.4,21.5
		c3.9,9.1,6.1,18.5,6.4,28.2c0.6,9.7,0.3,19.4-0.6,29.4c-1.8,18.8-3.3,37.9-4.2,57c-0.6,11.2,0,22.1,2.7,33.1
		c0.6,1.8,2.4,2.4,3.6,0.6c1.8-2.1,3.3-4.2,4.9-6.4c3.6-6.4,6.4-12.7,8.8-19.4c5.5-15.2,10-30.3,14.3-46.1
		c3.9-14,7.6-27.6,11.8-41.6c1.5-5.5,3.9-10.6,6.1-16.1c1.5-4.2,4.9-6.1,9.4-6.1c8.2-0.6,14.3,2.4,18.5,9.7c2.4,4.2,4.2,8.8,5.5,14
		C251.5,2830.5,253.6,2843.9,254.2,2857.8z M303.3,2806.6c0.3-1.5,0.6-2.7,0.6-3.9c2.1-11.8,3.9-23.4,5.8-34.9
		c0.9-5.5,1.5-11.2,2.1-15.5c0.3-8.5-2.1-11.2-8.8-12.1c-5.8-0.9-8.2,0.6-9.4,6.1c-0.9,4.2-1.5,8.5-2.1,13
		c-2.1,15.8-4.5,31.5-6.7,47.6c-0.6,4.6,0.9,6.7,5.8,7.6C297.6,2815.7,301.5,2813.2,303.3,2806.6z M654.3,2894.2l-0.9,3.9
		c-0.9,2.7-2.1,5.5-3,8.2c-10.9,33.1-12.1,36.4-17.3,49.7c-2.7,7-6.1,13.6-10,20.3c-4.5,7.3-9.4,14.6-15.5,20.9
		c-5.5,6.4-12.7,9.4-21.2,9.7c-7.6,0.3-14-1.8-19.4-7c-7.6-6.7-12.7-15.2-17-24.6c-4.9-10.6-7.6-22.1-9.1-34
		c-0.4-2.5-0.7-4.9-1.1-7.4c-3.2,9.5-4.9,13.9-8,22c-2.7,7-6.1,13.6-10,20.3c-4.5,7.3-9.4,14.6-15.5,20.9
		c-5.5,6.4-12.7,9.4-21.2,9.7c-7.6,0.3-14-1.8-19.4-7c-7.6-6.7-12.7-15.2-17-24.6c-4.9-10.6-7.6-22.1-9.1-34
		c-0.5-3.2-0.9-6.5-1.4-9.8c-9.1,20.5-20.4,34.7-37.1,35c-18.5,0-33.4-10.9-34.6-39.4c0-2.7,0-7.9-1.5-8.8c-3.3,0.9-4.2,3.9-6.1,6.4
		c-5.2,7.9-10.9,15.2-17.6,22.1c-8.5,8.8-18.8,10-29.4,6.7c-14-3.9-19.7-14.9-18.8-27.6c1.2-19.4,8.2-36.7,22.7-50
		c11.8-11.2,26.1-13.6,41.2-10.9c6.7,1.2,12.4,4.9,16.4,10.6c1.8,2.4,3.3,2.1,4.9,0.3l6.1-8.2c3.3-4.9,8.2-3.6,12.7-2.7
		c3.9,0.6,7,3,7.6,7c0.6,3,0.9,6.1,0.9,9.1v5.2c-2.7,39.4-9.7,72.2-2.7,72.2c12.1,0,24.8-24.6,33.6-49.3c0-1.9,0-3.7,0.1-5.6
		c0.9-30.3,3.9-60.4,12.4-89.5c3.6-13,8.8-25.5,17.3-36.1c6.7-8.5,14.9-15.5,25.8-18.5c12.4-3.9,23.7-0.9,33.7,7.3
		c6.1,5.2,8.5,11.8,9.1,19.4c0.9,7.9-0.9,15.5-3.3,22.7c-3.9,12.4-10,23.4-17.6,33.7c-9.4,12.7-19.4,24.3-31.2,34.3
		c-2.7,2.1-4.9,4.5-7.6,6.7c-5.8,3.9-7.9,9.1-7.9,16.1c0,23.1,1.2,45.8,7,67.9c2.1,7.6,4.9,14.6,8.8,21.2c1.5,2.4,3,4.6,4.5,6.7
		c1.8,2.1,3.9,2.4,6.4,0.3c4.2-3.3,7.9-7.9,11.2-12.4c6.7-9.4,12.4-19.4,16.7-30c3.6-9,8.3-21.3,16-44c0-1.9,0-3.8,0.1-5.8
		c0.9-30.3,3.9-60.4,12.4-89.5c3.6-13,8.8-25.5,17.3-36.1c6.7-8.5,14.9-15.5,25.8-18.5c12.4-3.9,23.7-0.9,33.7,7.3
		c6.1,5.2,8.5,11.8,9.1,19.4c0.9,7.9-0.9,15.5-3.3,22.7c-3.9,12.4-10,23.4-17.6,33.7c-9.4,12.7-19.4,24.3-31.2,34.3
		c-2.7,2.1-4.9,4.5-7.6,6.7c-5.8,3.9-7.9,9.1-7.9,16.1c0,23.1,1.2,45.8,7,67.9c2.1,7.6,4.9,14.6,8.8,21.2c1.5,2.4,3,4.6,4.5,6.7
		c1.8,2.1,3.9,2.4,6.4,0.3c4.2-3.3,7.9-7.9,11.2-12.4c6.7-9.4,12.4-19.4,16.7-30c3.9-9.7,9.1-23.4,17.9-49.7
		c1.2-3.6,2.4-7.3,3.9-10.3c0.9-2.1,3-3,5.2-3C652.7,2890,654.6,2891.8,654.3,2894.2z M571.2,2873.3c1.8,1.2,3-0.3,4.5-1.5
		c0.3,0,0.3-0.3,0.6-0.6c17-15.5,30.9-33.4,40.3-54.6c4.2-8.8,6.7-18.2,7-28.2c0-4.9-0.6-10-3-14.6c-3.3-6.4-6.7-7.3-13.3-4.6
		c-5.5,2.7-9.7,7-13.3,11.8c-6.7,9.4-11.2,20-14,30.9c-2.4,9.1-4.2,18.5-5.8,27.6c-1.8,10-2.7,20-3.6,30
		C570.2,2870.9,570.5,2872.7,571.2,2873.3z M469.9,2873.3c1.8,1.2,3-0.3,4.5-1.5c0.3,0,0.3-0.3,0.6-0.6c17-15.5,30.9-33.4,40.3-54.6
		c4.2-8.8,6.7-18.2,7-28.2c0-4.9-0.6-10-3-14.6c-3.3-6.4-6.7-7.3-13.3-4.6c-5.5,2.7-9.7,7-13.3,11.8c-6.7,9.4-11.2,20-14,30.9
		c-2.4,9.1-4.2,18.5-5.8,27.6c-1.8,10-2.7,20-3.6,30C468.9,2870.9,469.2,2872.7,469.9,2873.3z M365.5,2895.7c-0.6-7-0.3-14-5.8-19.7
		c-3.9-3.9-7-3.9-10.9,0c-1.8,1.8-3.3,3.6-4.5,5.5c-5.5,8.2-10,16.7-13.3,25.8c-3,8.2-5.2,16.7-5.5,27.3c0.3,0.9,0.3,3.6,0.9,6.4
		c0.3,1.5,1.8,1.8,3,1.2c4.9-2.4,8.5-6.7,11.8-10.6c8.5-10.3,15.5-21.2,22.7-32.2C364.6,2898.2,365.8,2897,365.5,2895.7z"/>
</g>
</svg>
