<?xml version="1.0" encoding="utf-8"?>
<!-- Generator: Adobe Illustrator 19.0.0, SVG Export Plug-In . SVG Version: 6.00 Build 0)  -->
<svg version="1.1" id="Layer_1" xmlns="http://www.w3.org/2000/svg" xmlns:xlink="http://www.w3.org/1999/xlink" x="0px" y="0px"
	 viewBox="0 0 720 3456" style="enable-background:new 0 0 720 3456;" xml:space="preserve">
<g id="XMLID_1_">
	<path id="XMLID_2_" d="M550.6,599.8c0,5-2.2,7.9-6.5,8.9c-4.3,0.9-9.4,1.6-15.2,2.2c-30.5,97.4-57.5,183.4-81.1,257.9
		c-5.3,16.5-11.2,24.8-17.7,24.8c-5.5,0-10.8-6.7-15.8-20.1c-22.6-65.6-39-111.8-49.2-138.6c-4.5,7.9-22.6,54.2-54.3,139
		c-5,13.1-10.2,19.7-15.8,19.7c-4.7,0-8.4-2.4-11-7.1c-2.6-4.7-13.8-34.7-33.5-89.8c-33.1-96.9-55.1-159.1-66.2-186.7l-6.3-1.6
		c-5.8-1.3-8.7-4.9-8.7-10.6c0-5.8,3.8-8.7,11.4-8.7l64.6,0.8c10.8,0,16.1,2.5,16.1,7.5c0,4.2-1.2,7.1-3.5,8.7
		c-2.4,1.6-5.6,3.2-9.8,4.7c1.6,11.8,24.2,74.6,67.7,188.2c16.5-40.4,29.5-72.7,39-96.9c-9.5-28.1-19.8-59.1-31.1-92.9
		c-4.5-0.8-8.5-1.7-12-2.8c-3.5-1-5.3-3.9-5.3-8.7c0-5.5,4.2-8.3,12.6-8.3c23.6,0,49.6,0.3,78,0.8c3.1,0,5.8,1.1,7.9,3.2
		c2.1,2.1,3.1,4.3,3.1,6.7c0,3.4-1.2,5.9-3.7,7.5c-2.5,1.6-7.2,2.9-14,3.9c8.4,28.1,18.4,58,30.1,89.8
		c11.7,31.8,21.6,58.8,29.7,81.1c24.4-70.9,42.4-128.2,54-172.1c-7.6-1-12.9-2.3-15.8-3.7c-2.9-1.4-4.3-3.9-4.3-7.3
		c0-6,2.8-9.3,8.5-9.8c5.6-0.5,12.4-0.8,20.3-0.8c15,0,25,0.5,30.1,1.4C548,591,550.6,594.2,550.6,599.8z"/>
	<path id="XMLID_4_" d="M411.4,1000.2c0-6,1.3-11.9,3.9-17.7c-41,0-68,0.4-81.1,1.2c0.3,75.6,0.8,122,1.6,139l44.5-0.8
		c1-6,2.3-11.2,3.7-15.4c1.4-4.2,4.3-6.3,8.5-6.3c3.9,0,6.7,2.2,8.3,6.7c1,2.9,1.7,18,2,45.3c0,9.2-2.6,13.8-7.9,13.8
		c-7.1,0-11.2-3.2-12.2-9.5l-2-12.2c-7.4-0.5-14.4-0.8-21.3-0.8c-8.4,0-16.3,0.4-23.6,1.2l-1.6,99.6h91c6.3,0,10.8-3,13.4-8.9
		c2.6-5.9,4.3-12.7,4.9-20.5c0.7-7.7,4-11.6,10-11.6c5.8,0,8.7,2.2,8.7,6.7c0,23.6-1.5,39.1-4.5,46.5c-3,7.4-9.4,11-19.1,11H319.6
		c-4.2,0-14.2-0.1-29.9-0.4c-15.8-0.3-26.3-0.7-31.7-1.2c-5.4-0.5-8.1-3.2-8.1-7.9c0-6.3,2.4-10.2,7.1-11.8
		c4.7-1.6,10.1-2.6,16.1-3.2c0.8-6,1.6-48,2.4-126c0-73.2-0.5-117.9-1.6-133.9h-6.7c-11,0-16.5-2.9-16.5-8.7c0-7.3,4.9-11,14.6-11
		c33.9,0,62.7-0.2,86.4-0.6c23.8-0.4,45.9-0.7,66.4-1c34.7,0,52,11.9,52,35.8c0,7.4-2.6,14.2-7.9,20.5c-5.3,6.3-12.9,9.5-22.8,9.5
		c-8.7,0-15.5-2.5-20.5-7.5C413.9,1015.3,411.4,1008.7,411.4,1000.2z"/>
	<path id="XMLID_6_" d="M467.7,1600.8c0,26.5-21.1,39.8-63.4,39.8l-109.9-0.8c-18.9,0-30.3-0.2-34.3-0.6c-3.9-0.4-5.9-3.2-5.9-8.5
		c0-8.4,6.8-12.6,20.5-12.6c0.3-38.6,0.4-75.2,0.4-109.9c0-34.7,0.1-84.1,0.4-148.5c-6-0.5-10.8-1.7-14.2-3.5
		c-3.4-1.8-5.1-5.1-5.1-9.8c0-5.2,3.3-8.1,10-8.7c6.7-0.5,20.5-0.8,41.5-0.8c21.3,0.3,34.5,0.9,39.8,2c5.2,1.1,7.9,4.1,7.9,9.1
		c0,4.2-1.4,6.8-4.3,7.9c-2.9,1.1-7.5,2.1-13.8,3.2l-3.2,258.3c19.4,1.3,39.1,2,59.1,2H413c-3.4-5.8-5.1-11.9-5.1-18.5
		c0-10.5,3.1-18.3,9.3-23.4c6.2-5.1,13.1-7.7,20.7-7.7c9.7,0,17.1,2.9,22.3,8.7C465.1,1584.1,467.7,1591.6,467.7,1600.8z"/>
	<path id="XMLID_8_" d="M490.5,1947.3c0,5.3-3.9,13.5-11.6,24.6c-7.7,11.2-19.7,21.9-35.8,32.1c-16.1,10.2-41.3,15.4-75.4,15.4
		c-42.8,0-76.5-12.9-101.2-38.8c-24.7-25.9-37-63.3-37-112.4c0-48.8,14.5-87.6,43.5-116.2c29-28.6,65.6-42.9,109.7-42.9
		c32.5,0,57,7.3,73.4,21.9c16.4,14.6,24.6,30.1,24.6,46.7c0,10-3,17.3-8.9,22.1c-5.9,4.7-13.1,7.1-21.5,7.1
		c-8.9,0-15.9-2.6-21.1-7.9c-5.1-5.2-7.7-11.9-7.7-20.1c0-15,5.5-25.3,16.5-31.1c-12.9-12.9-30.1-19.3-51.6-19.3
		c-26.8,0-49.9,12.4-69.3,37.2c-19.4,24.8-29.1,59.7-29.1,104.6c0,35.4,10.4,65.6,31.1,90.4c20.7,24.8,42.9,37.2,66.6,37.2
		c15.5,0,29.9-3.5,43.3-10.4c13.4-7,27.6-20.4,42.5-40.4c3.9-5.2,8.1-7.9,12.6-7.9C488.4,1939.1,490.5,1941.8,490.5,1947.3z"/>
	<path id="XMLID_18_" d="M471.1,2128.9c-28.6-32.8-67.2-49.2-115.8-49.2c-43.6,0-78.1,15.4-103.6,46.3
		c-25.5,30.9-38.2,69-38.2,114.4c0,43.6,13.1,80.1,39.4,109.5c26.2,29.4,61.3,44.1,105.1,44.1c43.3,0,77.6-13.4,102.8-40.2
		c30.5-32.6,45.7-73,45.7-121.3C506.5,2190.7,494.7,2156.2,471.1,2128.9z M424.2,2337.6c-15.8,23.4-38.2,35-67.3,35
		c-25.5,0-46.1-13.3-61.8-39.8c-15.8-26.5-23.6-56-23.6-88.6c0-36.5,9.1-70.2,27.2-101.2c16.3-27.3,36.5-41,60.6-41
		c29.9,0,52.9,15.4,68.9,46.1c15.2,29.1,22.8,58.9,22.8,89.4C451,2277.7,442,2311.1,424.2,2337.6z"/>
	<path id="XMLID_11_" d="M509.4,2479l-1.2,260.3c10.5,2.6,15.8,6.8,15.8,12.6c0,7.1-4.1,10.7-12.2,10.8c-8.1,0.1-15.5,0.2-22.1,0.2
		c-33.1-0.3-51.3-1-54.7-2.4c-3.4-1.3-5.1-4.7-5.1-10.2c0-3.7,5.4-7,16.1-9.8c0.8-55.9,2.4-132.8,4.7-230.8
		c-18.1,51.2-35.8,100.6-53.2,148.3c-17.3,47.7-28.5,76.4-33.5,86.2c-5,9.8-11,14.8-18.1,14.8c-5.5,0-10.5-2.8-15-8.5
		c-4.5-5.6-15.8-29.5-34.1-71.5c-18.3-42-39.1-90-62.4-144.1l2.4,206c7.3,1.3,12.7,2.6,16.1,3.7c3.4,1.2,5.1,4.3,5.1,9.3
		c0,4.7-3.1,7.5-9.3,8.3c-6.2,0.8-13.5,1.2-21.9,1.2c-2.1,0-6.4-0.1-12.8-0.2c-6.4-0.1-11.6-0.7-15.6-1.6c-3.9-0.9-5.9-3.7-5.9-8.5
		c0-7.1,6.8-10.6,20.5-10.6v-259.9c-12.3-1.3-18.5-5.4-18.5-12.2c0-6.3,4.7-9.5,14.2-9.5l38.6,0.4c8.1,0,15.4,4.7,21.9,14
		c6.4,9.3,18.5,33.9,36.2,73.6c17.7,39.8,37.6,83.8,59.7,132.1c16-39.6,41.7-107.9,77.2-204.8c3.7-10.5,11.8-15.9,24.4-16.1
		c28.1-1,45.2-1.6,51.2-1.6c6,0.3,9.1,3.2,9.1,8.7C527.2,2473.2,521.3,2477.1,509.4,2479z"/>
	<path id="XMLID_20_" d="M411.4,2870.8c0-6,1.3-11.9,3.9-17.7c-41,0-68,0.4-81.1,1.2c0.3,75.6,0.8,122,1.6,139l44.5-0.8
		c1-6,2.3-11.2,3.7-15.4c1.4-4.2,4.3-6.3,8.5-6.3c3.9,0,6.7,2.2,8.3,6.7c1,2.9,1.7,18,2,45.3c0,9.2-2.6,13.8-7.9,13.8
		c-7.1,0-11.2-3.2-12.2-9.5l-2-12.2c-7.4-0.5-14.4-0.8-21.3-0.8c-8.4,0-16.3,0.4-23.6,1.2l-1.6,99.6h91c6.3,0,10.8-3,13.4-8.9
		c2.6-5.9,4.3-12.7,4.9-20.5c0.7-7.7,4-11.6,10-11.6c5.8,0,8.7,2.2,8.7,6.7c0,23.6-1.5,39.1-4.5,46.5c-3,7.4-9.4,11-19.1,11H319.6
		c-4.2,0-14.2-0.1-29.9-0.4c-15.8-0.3-26.3-0.7-31.7-1.2c-5.4-0.5-8.1-3.2-8.1-7.9c0-6.3,2.4-10.2,7.1-11.8
		c4.7-1.6,10.1-2.6,16.1-3.2c0.8-6,1.6-48,2.4-126c0-73.2-0.5-117.9-1.6-133.9h-6.7c-11,0-16.5-2.9-16.5-8.7c0-7.3,4.9-11,14.6-11
		c33.9,0,62.7-0.2,86.4-0.6c23.8-0.4,45.9-0.7,66.4-1c34.7,0,52,11.9,52,35.8c0,7.4-2.6,14.2-7.9,20.5c-5.3,6.3-12.9,9.5-22.8,9.5
		c-8.7,0-15.5-2.5-20.5-7.5C413.9,2885.9,411.4,2879.2,411.4,2870.8z"/>
	<path id="XMLID_74_" d="M278.3,502.7c9.6,2.5,19.5,4.4,29.6,5.7c0.2,0,0.4,0,0.6,0c2.1,0,3.9-1.6,4.2-3.7c0.3-2.3-1.3-4.5-3.7-4.8
		c-27.1-3.5-52.9-11.6-76.5-23.3c16.3-35.1,7.9-73.3-25-113.5c-1-1.2-2.4-1.7-3.9-1.5c-1.5,0.2-2.7,1.2-3.3,2.6
		c-16.2,39.8-12.7,72.7,10.5,100.1c-15.9-10.2-30.6-22.2-43.7-35.8c-5-17.8-5.8-36.6-2.2-54.8c1.1,0.2,2.2,0.3,3.3,0.3
		c10.1,0,18.4-8.2,18.4-18.4c0-10.1-8.2-18.4-18.4-18.4c-10.1,0-18.4,8.2-18.4,18.4c0,5.8,2.8,11,7,14.3c-3.2,15-3.7,30.5-1.4,45.6
		c-6.4-7.7-12.3-15.7-17.7-24.2c-0.1-0.1-0.1-0.3-0.2-0.4c-0.1-0.1-0.1-0.1-0.2-0.2c-4.4-7-8.5-14.3-12.3-21.8
		c30-23.3,40.3-60.5,30.5-110.9c-0.3-1.5-1.3-2.7-2.7-3.2c-1.4-0.5-3-0.2-4.2,0.7c-25.6,21.2-38.9,44.3-40.1,69.9
		c-0.6-2.3-1.2-4.7-1.8-7c-0.2-1-0.4-2-0.7-3c-6.1-27-7.4-54.3-4.2-80.9c0.8,0,1.7,0.1,2.5,0.1c36.9,0,67.7-22.4,91.4-66.7
		c0.7-1.3,0.7-2.9-0.1-4.2c-0.8-1.3-1.9-2-3.7-2.1c-39.3,0.3-67,13.5-84,40.3c6.9-26.5,18.4-51.6,33.7-74.3c7.6,3,15.3,4.5,23.2,4.5
		c19.3,0,39.3-9,59.7-26.9c1.1-1,1.7-2.5,1.4-4s-1.3-2.7-2.7-3.2c-21.6-7.9-40.3-8.4-56.5-1.6c13-13.7,27.8-25.9,44.2-36.3
		c4.2,0.8,8.3,1.3,12.4,1.3c24,0,46.7-13.3,67.6-39.8c0.9-1.2,1.2-2.8,0.6-4.2c-0.5-1.4-1.8-2.4-3.3-2.7
		c-39.2-6.7-66.5,5.9-83.4,38.7c-0.1,0.2-0.1,0.3-0.1,0.5c-10.7,6.9-20.8,14.6-30.1,22.9c4.9-16,4.5-35.2-1.3-57.3
		c-0.4-1.5-1.5-2.6-2.9-3c-1.4-0.4-3,0-4.1,1c-28.8,27-35.3,56.1-19.9,89.1c-8.6,10.7-16.3,22.1-22.9,34c1.1-23-3.1-44.4-12.4-60.3
		c3.3-3.1,5.3-7.1,5.7-11.6c0.5-4.9-1-9.6-4.1-13.4c-6.5-7.8-18.1-8.9-25.8-2.4c-3.8,3.1-6.1,7.5-6.6,12.4c-0.5,4.9,1,9.6,4.1,13.4
		c3.1,3.8,7.5,6.1,12.4,6.6c0.6,0.1,1.2,0.1,1.7,0.1c1.8,0,3.5-0.3,5.1-0.8c11.5,19.6,14.6,49,8.2,79c0,0.1,0,0.2,0,0.4
		c-2.2,5.1-4.2,10.3-6.1,15.5c-4.1-23-18.3-45.4-42.7-67.2c-1.1-1-2.7-1.3-4.1-0.9c-1.4,0.5-2.5,1.6-2.9,3.1
		c-10.9,46.7,2,80.7,39.3,103.8c-2.1,11.6-3.4,23.3-3.8,35.1c-9.2-19.6-23-36.9-38.6-47.5c1.6-4.2,1.7-8.7,0.2-12.9
		c-1.7-4.6-5.1-8.3-9.5-10.3c-9.2-4.3-20.1-0.2-24.4,8.9c-2.1,4.4-2.3,9.4-0.6,14c1.7,4.6,5.1,8.3,9.5,10.3c2.5,1.1,5.1,1.7,7.7,1.7
		c2.1,0,4.3-0.4,6.3-1.1c2.2-0.8,4.2-2,5.9-3.6c20.1,13.6,37.2,39.6,43.7,66.6c0,0.1,0,0.1,0.1,0.1c0.2,2.4,0.4,4.8,0.6,7.2
		c-12.8-17.9-33.4-32.5-61.6-43.6c-1.4-0.6-3-0.3-4.2,0.6c-1.2,0.9-1.8,2.4-1.6,3.9c6.2,50.2,31.5,78.8,77.2,87.6
		c3.8,12.2,8.4,23.9,13.8,35.2c-14.5-10.8-31.6-18.1-49.4-21c-0.6-9.6-8.5-17.2-18.2-17.2c-10.1,0-18.4,8.2-18.4,18.4
		c0,10.1,8.2,18.4,18.4,18.4c7.6,0,14-4.6,16.9-11.1c25.3,4,48.8,17.7,64.8,37.6c3.4,5.3,7,10.5,10.7,15.5
		c-24.6-12.2-55.8-13.7-93.4-4.4c-1.5,0.4-2.6,1.5-3,2.9c-0.4,1.4-0.1,3,0.9,4.1c24.3,26.4,50,39.6,77.7,39.6
		c14.6,0,29.8-3.7,45.6-11c9.6,9.1,20,17.5,31,25c-21.6-2.2-43.4-0.7-64.5,4.3c-3.2-5.5-9-9.2-15.8-9.2c-10.1,0-18.4,8.2-18.4,18.4
		c0,10.1,8.2,18.4,18.4,18.4c10.1,0,18.4-8.2,18.4-18.4c0-0.3-0.1-0.6-0.1-0.9c26.5-6.3,54.2-6.6,80.8-1c4.1,2.3,8.3,4.5,12.6,6.6
		c-30.4-1.1-58.5,9-84.1,30.4c-1.2,1-1.8,2.6-1.5,4.1c0.3,1.5,1.4,2.8,2.9,3.2c19.9,6.3,38.2,9.4,54.8,9.4
		C233.4,532.7,258,522.7,278.3,502.7z M267.9,500.8c-27.3,23.9-62.9,29.4-108.7,16.7C191.8,493.1,227.5,487.7,267.9,500.8z
		 M97.2,209.2c-29.6-19.6-40.8-47.7-34-85.4C92.5,151.9,103.7,179.9,97.2,209.2z M148.1,120.9c17.3-19.6,38.3-25.2,65.2-17.2
		C190.3,122,168.9,127.7,148.1,120.9z M105.8,226.1c12.7-35.2,38.7-53.5,79-55.7C163.3,207.3,137.4,225.6,105.8,226.1z M152.4,98.4
		c-10.1-25.2-5.3-48,14.7-69.4C173.5,59.4,168.7,82.2,152.4,98.4z M216.1,52.4c0-0.1,0-0.2-0.1-0.3c0-0.1-0.1-0.1-0.2-0.2
		c14-23,35-32.8,63.9-29.8C259.5,45.4,238.6,55.3,216.1,52.4z M161.2,436.7C123,452.6,88.8,445,57.2,413.5
		C102.8,403.6,137.8,411.4,161.2,436.7z M97.7,316.7c0.3,1.5,0.7,2.9,1,4.4c0.3,1.7,0.6,3.4,0.9,5.1c-36.5-8.5-57.7-32.2-64.5-72
		C70.2,269.5,90.9,290.1,97.7,316.7z M122.7,360.1c-12.4-35.3-3.9-65.9,26-93.1C155.4,309.2,146.8,339.8,122.7,360.1z M226.7,468.6
		c-27.7-25.3-34.6-56.2-21.2-94.3C231.4,408.3,238.4,439.3,226.7,468.6z"/>
	<path id="XMLID_58_" d="M407.4,504.7c0.3,2.1,2.1,3.7,4.2,3.7c0.2,0,0.4,0,0.6,0c10.1-1.3,19.9-3.2,29.6-5.7c20.3,20,45,30,74.6,30
		c16.7,0,34.9-3.1,54.8-9.4c1.5-0.5,2.6-1.7,2.9-3.2c0.3-1.5-0.3-3.1-1.5-4.1c-25.6-21.3-53.7-31.4-84.1-30.4
		c4.3-2.1,8.5-4.3,12.6-6.6c26.6-5.6,54.4-5.3,80.8,1c0,0.3-0.1,0.6-0.1,0.9c0,10.1,8.2,18.4,18.4,18.4c10.1,0,18.4-8.2,18.4-18.4
		c0-10.1-8.2-18.4-18.4-18.4c-6.8,0-12.7,3.7-15.8,9.2c-21.1-5.1-43-6.5-64.5-4.3c11-7.5,21.4-15.8,31-25c15.8,7.3,31,11,45.6,11
		c27.7,0,53.4-13.1,77.7-39.6c1-1.1,1.4-2.7,0.9-4.1c-0.4-1.4-1.6-2.5-3-2.9c-37.5-9.4-68.8-7.9-93.4,4.4c3.8-5,7.3-10.2,10.7-15.5
		c16-19.9,39.5-33.6,64.8-37.6c2.8,6.5,9.3,11.1,16.9,11.1c10.1,0,18.4-8.2,18.4-18.4c0-10.1-8.2-18.4-18.4-18.4
		c-9.7,0-17.6,7.6-18.2,17.2c-17.9,2.9-34.9,10.2-49.4,21c5.5-11.2,10.1-23,13.8-35.2c45.7-8.8,71-37.4,77.2-87.6
		c0.2-1.5-0.4-3-1.6-3.9c-1.2-0.9-2.8-1.2-4.2-0.6c-28.2,11.1-48.8,25.8-61.6,43.6c0.2-2.4,0.5-4.8,0.6-7.2c0-0.1,0-0.1,0.1-0.1
		c6.5-27,23.6-53,43.7-66.6c1.7,1.5,3.7,2.8,5.9,3.6c2.1,0.8,4.2,1.1,6.3,1.1c2.6,0,5.3-0.6,7.7-1.7c4.4-2.1,7.8-5.7,9.5-10.3
		c1.7-4.6,1.5-9.6-0.6-14c-4.3-9.2-15.2-13.2-24.4-8.9c-4.4,2.1-7.8,5.7-9.5,10.3c-1.5,4.2-1.4,8.7,0.2,12.9
		c-15.5,10.6-29.4,27.9-38.6,47.5c-0.4-11.8-1.7-23.5-3.8-35.1c37.4-23.1,50.3-57,39.3-103.8c-0.3-1.5-1.4-2.6-2.9-3.1
		c-1.4-0.5-3-0.1-4.1,0.9c-24.4,21.8-38.6,44.2-42.7,67.2c-1.9-5.2-3.9-10.4-6.1-15.5c0-0.1,0-0.2,0-0.4c-6.4-30-3.3-59.4,8.2-79
		c1.7,0.5,3.4,0.8,5.1,0.8c0.6,0,1.2,0,1.7-0.1c4.9-0.5,9.3-2.8,12.4-6.6c3.1-3.8,4.6-8.5,4.1-13.4c-0.5-4.9-2.8-9.3-6.6-12.4
		c-3.8-3.1-8.5-4.6-13.4-4.1c-4.9,0.5-9.3,2.8-12.4,6.6c-3.1,3.8-4.6,8.5-4.1,13.4c0.4,4.5,2.5,8.5,5.7,11.6
		c-9.2,15.8-13.5,37.2-12.4,60.3c-6.7-11.9-14.3-23.3-22.9-34c15.5-33,9-62.1-19.9-89.1c-1.1-1-2.7-1.4-4.1-1
		c-1.4,0.4-2.6,1.6-2.9,3c-5.7,22.2-6.2,41.3-1.3,57.3c-9.3-8.3-19.4-16-30.1-22.9c-0.1-0.2,0-0.3-0.1-0.5
		C498,20.7,470.7,8.1,431.5,14.8c-1.5,0.3-2.7,1.3-3.3,2.7c-0.5,1.4-0.3,3,0.6,4.2c20.9,26.5,43.6,39.8,67.6,39.8
		c4.1,0,8.2-0.5,12.4-1.3c16.4,10.4,31.2,22.6,44.2,36.3c-16.2-6.9-34.9-6.4-56.5,1.6c-1.4,0.5-2.4,1.7-2.7,3.2
		c-0.3,1.5,0.2,3,1.4,4c20.4,17.9,40.4,26.9,59.7,26.9c7.8,0,15.6-1.6,23.2-4.5c15.4,22.7,26.8,47.9,33.7,74.3
		c-17-26.8-44.7-40.1-84-40.3c0,0,0,0,0,0c-1.5,0-2.9,0.8-3.6,2.1c-0.8,1.3-0.8,2.9-0.1,4.2c23.8,44.3,54.5,66.7,91.4,66.7
		c0.8,0,1.7,0,2.5-0.1c3.2,26.6,1.9,54-4.2,80.9c-0.2,1-0.5,2-0.7,3c-0.6,2.3-1.2,4.7-1.8,7c-1.3-25.6-14.5-48.8-40.1-69.9
		c-1.2-1-2.7-1.2-4.2-0.7c-1.4,0.5-2.5,1.7-2.7,3.2c-9.8,50.4,0.5,87.6,30.5,110.9c-3.7,7.5-7.8,14.8-12.3,21.8
		c-0.1,0.1-0.1,0.1-0.2,0.2c-0.1,0.1-0.1,0.3-0.2,0.4c-5.4,8.5-11.4,16.6-17.7,24.2c2.3-15.1,1.9-30.6-1.4-45.6
		c4.3-3.4,7-8.5,7-14.3c0-10.1-8.2-18.4-18.4-18.4c-10.1,0-18.4,8.2-18.4,18.4c0,10.1,8.2,18.4,18.4,18.4c1.1,0,2.3-0.1,3.3-0.3
		c3.6,18.1,2.9,37-2.2,54.8c-13.1,13.6-27.7,25.7-43.7,35.8c23.2-27.4,26.7-60.3,10.5-100.1c-0.6-1.4-1.8-2.4-3.3-2.6
		c-1.5-0.2-3,0.4-3.9,1.5c-32.9,40.3-41.3,78.5-25,113.5c-23.6,11.8-49.3,19.8-76.5,23.3C408.7,500.3,407.1,502.4,407.4,504.7z
		 M614.2,226.1c-31.6-0.5-57.5-18.8-79-55.7C575.5,172.6,601.5,190.9,614.2,226.1z M571.9,120.9c-20.7,6.8-42.2,1.2-65.2-17.2
		C533.6,95.7,554.6,101.3,571.9,120.9z M622.8,209.2c-6.5-29.3,4.7-57.3,34-85.4C663.6,161.5,652.5,189.6,622.8,209.2z M504.2,51.9
		c-0.1,0.1-0.1,0.1-0.2,0.2c-0.1,0.1-0.1,0.2-0.1,0.3c-22.5,2.9-43.4-7-63.6-30.2C469.2,19.1,490.2,28.9,504.2,51.9z M567.6,98.4
		c-16.3-16.2-21.1-39-14.7-69.4C572.9,50.4,577.8,73.2,567.6,98.4z M452.1,500.8c40.4-13.1,76.1-7.7,108.7,16.7
		C515,530.2,479.4,524.7,452.1,500.8z M493.3,468.6c-11.7-29.3-4.7-60.3,21.2-94.3C527.9,412.4,521,443.4,493.3,468.6z M597.3,360.1
		c-24.2-20.3-32.7-50.9-26-93.1C601.2,294.2,609.7,324.7,597.3,360.1z M620.4,326.2c0.2-1.7,0.5-3.4,0.9-5.1c0.4-1.5,0.7-2.9,1-4.4
		c6.9-26.6,27.5-47.2,62.7-62.5C678,294,656.9,317.6,620.4,326.2z M558.8,436.7c23.5-25.3,58.4-33.1,104.1-23.2
		C631.2,445,597,452.6,558.8,436.7z"/>
	<path id="XMLID_94_" d="M413.1,3234.1c-7.1,7.5-13.4,12.4-15.1,12.6c-3.3,0.3-5-2.4-4.8-8.4c5.2-1.9,11.7-5.8,11.1-10.9
		c-0.2-2.5-2.6-3.5-5.1-3.5c-6.6,0-12.3,6.3-13.2,13c-2,3.6-4,7.4-5.9,10.8c-3.4,6-5.6,10-5.6,6.4c0.4-3.6,0.6-7.2,1-10.8
		c0.5-5.4,0.7-11.9-0.7-16c-2-7.4-9.6-6.4-17.9,11.6c-0.7-2.4-1.2-5.2-1.5-8.3c7.8-9.2,15.7-16.4,17.7-27.7
		c1.6-8.9-2.3-13.5-10.5-9.7c-6.4,2.8-11,9.4-13.4,17.5c-3.3,0.3-6.5,0.2-9.5-0.1c0.4-2.3,1.5-7,1.2-9.7c-0.4-3.7-4.5-3.5-6.2-0.1
		c-1.5,2.6-2.3,4-3.4,8.5c-7.7-1.3-17.3-1.1-23.1,3.6c-1.4,1.1-2.9,2.9-1.2,3.3c0.7,0.1,1.5-0.4,2.5-1.5c5.3-5.3,15.1-4.5,21.4-3.1
		c-0.1,0.7-0.2,1.8-0.4,2.4c-1.8,13.5-2.2,33.1,2.1,41.9c2.9,5.9,5.6,4.9,8.3-0.4c3.1-6.3,5.6-11.4,8.5-17.3
		c0.9,3.1,2.2,6.1,3.8,8.9c2.2,4,6.5,1.8,5.8-0.9c-1.1-5-0.5-7,1.8-11.3c5.7-10.7,11.2-11.4,8.7,0.3c-2.7,11.6-2.6,20-1.4,23.9
		c1.8,5.5,5.1,5.6,8.1,0.2c1.9-4.2,4.3-8.3,6.2-12.6c1.1-2.4,2.2-4.7,3.3-7c0.5,5.4,5.2,10.8,10.6,9.8c3.4-0.7,11-7.5,16.7-13.9
		C413.9,3235.1,413.5,3233.7,413.1,3234.1z M339.4,3254.5c-2.9,5.8-3.7,1.8-3.7-3.9c-0.1-11.9,1-23.6,3.2-35.3
		c0.2-1.1,0.3-1.5,0.6-2.6c3,0.3,6.2,0.2,9.4,0c-1.8,7.3-1.8,15.6,0.1,23.3C346.7,3240.6,340.2,3253.1,339.4,3254.5z M356.8,3211.6
		c3.7-0.7,7.1-1.7,9.6-2.9c1.3-0.5,1.1-2.4,0.4-2.2c-2.9,1.3-6.2,2.3-9.5,3c1.3-5.2,3.2-9.7,5.9-12.7c6.1-6.7,10.4-1.9,8.5,6.4
		c-2.5,10.8-9.6,17.3-16.2,25.4C355.2,3223.1,355.6,3217.1,356.8,3211.6z M399.4,3225.2c1.6,0,3,1,3.1,2.7c0,4-5.9,7.2-9.4,8
		C393.2,3230.6,395.7,3225.2,399.4,3225.2z"/>
	<path id="XMLID_86_" d="M374.2,3383.3c0-1.7,1.5-3.1,3.2-3.1c1.8,0,3.2,1.5,3.2,3.1c0,1.8-1.5,3.2-3.2,3.2
		C375.7,3386.5,374.2,3385.1,374.2,3383.3z M453.1,3400.8c-2.6,1-6.1,3.4-9.1,5.6c0.4,9.4-4.2,22.2-10.7,29.6
		c-9.8,11.3-16.8,8-13.9-2.9c2-8.2,9.1-16.9,16.4-24c0.2-0.1,2.6-2.5,2.9-2.6c-0.4-7.5-2.4-9-5.6-4.9c-3,3.5-7.2,8.6-11.6,12.2
		c-5.1,4-7.4,3.2-8.2-2.6c-0.1-1-0.4-1.8-0.4-2.8c0-0.4,0-0.8,0-1.2c-3.8,5.2-7.9,10.9-12.4,17.2c-3.7,5.1-8.4,3.7-9.5-1.9
		c-0.9-5.1-1.1-11.6-0.5-18.4c-1.1,2.1-1.9,3.7-3.7,6.7c-1.2,2.2-2.5,4.3-3.8,6.4c-0.6,0.8-1.2,1.7-1.9,2.3
		c-1.4,1.5-4.3,1.4-5.5-0.3c-0.7-1-1.3-2.2-1.7-3.4c-0.7-2.2-1.1-4.6-1.3-6.9c-3.4,6.9-5.6,11.2-8.8,17.8c-2.2,3.8-4.5,5.3-6.7,2.3
		c-3.2-4.5-2-12.4-0.4-19.4l2.2-8.9c1-3.8-0.3-5.5-2.9-2c-0.9,1.4-1.8,2.8-2.5,4.3c-1.5,3.1-2.9,6.1-3.4,9.6c-0.1,1.9-2.4,1.9-3,0.4
		c-0.4-0.8-0.5-1.6-0.7-2.4c-1.2-4.6-1.3-9.3-0.9-14c0-5.3-4.2,3.4-5.5,12.4c-0.1,0-0.6,8.6-0.5,8.6c-0.1,0.7-0.4,1.2-1.1,1.4
		c-0.8,0.1-1.5-0.1-2-0.7c-0.2-0.4-0.5-0.7-0.7-1.2c-1-3.2-2-6.2-2.7-9.1c-2.4,6.3-3.4,9.1-5.8,15.1c-1.6,3.1-3.2,3.4-4.8,3.4
		c-3.9,0-5.1-5.9-5.1-11.5c0-5.6,1.2-13.9,1.2-16.1c0-0.6-0.1-0.9-0.4-0.9c-0.6,0-1.6,0.9-3.2,2.3c-6.2,5.7-11,11.3-15.8,11.3
		c-3.9,0-4.8-3.5-3.8-7.4c-8.4,6-14.7,9-21.6,12.1c9.8,0,11.2,13.5,2.9,13.5c-3.7,0.1-8.3-5-10.2-11.7c-4.6-18.4,5.9-45.2,23.1-52.3
		c10-4.1,19.2,1,14.1,11.1c-4.8,9.4-15.7,17.8-29.9,25.9c-0.4,3.8-0.4,8.7-0.4,11.6c7.7-3,13.6-5.9,23.1-13.2
		c2-4.1,5.9-7.8,10.6-7.8c2.7,0,5.3,1,7.2,2.7c0.3,0.1,0.6,0.5,0.6,0.8c0,0.6-0.6,1-1,0.6c-0.9-1.2-2.6-1.9-4.6-1.9
		c-6.1,0-11.8,11.4-6.8,11.4c1.1,0,4.5-2.6,6.3-4.1c3-2.4,5.9-5.1,8.9-7.5c1.3-1,2.5-1.5,3.5-1.5c2.2,0,3.6,2.1,3.6,5.6
		c0.4,10-0.8,16.1-0.8,21.5c0,1.8,0.8,2,1.5,0.8c3-6.6,4.4-10.2,7-16.9c-1-4.4-1.3-8.3-0.7-11.5c0.1-0.5,0.3-1,0.5-1.5
		c1-2,2.9-2,3.7,0c0.3,0.6,0.4,1.2,0.5,1.8c0.4,2.6,0.8,5.3,1.2,8c0.3,1.6,0.7,4.2,1.4,2c0.7-2.3,1.6-5.9,2.6-8.1
		c1.7-4.1,5.2-6.2,7.4-3c1.2,1.7,1.8,4.8,2,7.1c0.1,1.8,0.1,4,1.5,1.6c1-1.4,1.9-2.9,2.9-4.3c2-2.8,6.7-2.6,8,1.2
		c0.4,1.2,0.7,2.7,0.7,4c0.2,3.3-0.3,6.4-0.8,9.7l-2.1,12c-0.5,3.6,0.5,2.9,2.3-0.4c2.1-4.1,6.5-12.8,9.1-18.1c-0.1-2.3-0.1-4.7,0-7
		c0.4-4.2,1-7.4,4.2-7.4c5.2,0,4.8,12.1,3.1,21.8c-0.5,2.5-0.7,7,3.7-0.4c5.3-8.3,6.4-10.5,7.5-12.4c1.4-12.4,5-25.2,10.1-32.6
		c8-11.6,21.7-10.8,18.2,3.3c-1.7,6.8-12.7,20.5-19.8,27.4c-1.5,10.7-1.8,13.4-2.5,20.5c-0.3,5-0.9,7,2.3,3.1
		c1.8-2.2,9.6-12.2,14.1-17.9c0.2-1.9,0.7-3.8,1.3-5.6c1.9-5.3,5.1-6.7,5.3-2.9c0.2,1.5,0.2,3.1,0.1,4.7c-0.1,3-0.4,6.1-0.6,9.1
		c-0.7,5,4.8,0.3,13-10.2c3.7-4.7,7.8-5,10.4,0.4c0.5,1.2,1,2.5,1.2,3.9c2.8-1.5,6.5-3.1,9.4-4.2
		C455.4,3398.4,455.3,3399.9,453.1,3400.8z M399.7,3395.4c7.3-7.9,12.7-15.1,16-21.4c5.6-10.8-3.6-17.6-8.6-6.4
		C403.6,3375.7,400.9,3386.3,399.7,3395.4z M273.8,3400.3c12.5-6.3,24.2-16.1,27.4-23.3c4.5-9.9-5.3-11.3-10-8.9
		c-9,4.5-14.3,16-16.9,28.1C274.1,3397.6,274,3399,273.8,3400.3z M273.4,3418.5c0.1,4,0.5,8.3,3,8.3
		C281.4,3426.8,280.3,3418.5,273.4,3418.5z M438.7,3409.9c-1.1,0.7-1.8,1.3-2.3,1.8c-6.2,5.7-14,15.4-15.4,22.3
		c-1.9,10.1,5,8.7,10.5,0.1C435.8,3427.8,438.7,3417.3,438.7,3409.9z"/>
	<path id="XMLID_13_" d="M299.3,3233.9c0,2.2-1.8,4-4,4H22c-2.2,0-4-1.8-4-4s1.8-4,4-4h273.2
		C297.5,3229.9,299.3,3231.7,299.3,3233.9z"/>
	<path id="XMLID_12_" d="M702,3233.9c0,2.2-1.8,4-4,4H424.7c-2.2,0-4-1.8-4-4s1.8-4,4-4H698C700.2,3229.9,702,3231.7,702,3233.9z"/>
	<path id="XMLID_10_" d="M702,3394.1c0,2.2-1.8,4-4,4H471.8c-2.2,0-4-1.8-4-4s1.8-4,4-4H698C700.2,3390.1,702,3391.9,702,3394.1z"/>
	<path id="XMLID_60_" d="M252.3,3394.1c0,2.2-1.8,4-4,4H22c-2.2,0-4-1.8-4-4s1.8-4,4-4h226.2
		C250.4,3390.1,252.3,3391.9,252.3,3394.1z"/>
</g>
</svg>
