999
dxfrw 0.5.10
0
SECTION
2
HEADER
9
$ACADVER
1
AC1021
9
$HANDSEED
5
20000
9
$DWGCODEPAGE
3
ANSI_1252
9
$INSBASE
10
0
20
0
30
0
9
$EXTMIN
10
7.41985242912
20
7.57168222205
30
0
9
$EXTMAX
10
315.735848254
20
302.824283354
30
0
9
$LIMMIN
10
0
20
0
9
$LIMMAX
10
420
20
297
9
$ORTHOMODE
70
0
9
$LTSCALE
40
1
9
$TEXTSTYLE
7
STANDARD
9
$CLAYER
8
0
9
$DIMASZ
40
3
9
$DIMLFAC
40
1
9
$DIMSCALE
40
1
9
$DIMEXO
40
0.625
9
$DIMEXE
40
1.25
9
$DIMTXT
40
2.08579861111
9
$DIMTSZ
40
0
9
$DIMAUNIT
70
0
9
$DIMADEC
70
0
9
$DIMLUNIT
70
2
9
$DIMSTYLE
2
ISO-25
9
$DIMGAP
40
0.625
9
$DIMTIH
70
0
9
$LUNITS
70
2
9
$LUPREC
70
4
9
$AUNITS
70
0
9
$AUPREC
70
0
9
$SPLINESEGS
70
8
9
$GRIDMODE
70
0
9
$SNAPSTYLE
70
0
9
$PINSBASE
10
0
20
0
30
0
9
$PLIMMIN
10
0
20
0
9
$PLIMMAX
10
420
20
297
9
$INSUNITS
70
4
9
$PSVPSCALE
40
1
0
ENDSEC
0
SECTION
2
CLASSES
0
ENDSEC
0
SECTION
2
TABLES
0
TABLE
2
VPORT
5
8
330
0
100
AcDbSymbolTable
70
1
0
VPORT
5
31
330
2
100
AcDbSymbolTableRecord
100
AcDbViewportTableRecord
2
*ACTIVE
70
0
10
0
20
0
11
1
21
1
12
234.426488536
22
127.563817151
13
0
23
0
14
10
24
10
15
10
25
10
16
0
26
0
36
1
17
0
27
0
37
0
40
299.140881155
41
1.95885286783
42
50
43
0
44
0
50
0
51
0
71
0
72
100
73
1
74
3
75
0
76
0
77
0
78
0
281
0
65
1
110
0
120
0
130
0
111
1
121
0
131
0
112
0
122
1
132
0
79
0
146
0
348
10020
60
7
61
5
292
1
282
1
141
0
142
0
63
250
421
3358443
0
ENDTAB
0
TABLE
2
LTYPE
5
5
330
0
100
AcDbSymbolTable
70
4
0
LTYPE
5
14
330
5
100
AcDbSymbolTableRecord
100
AcDbLinetypeTableRecord
2
ByBlock
70
0
3

72
65
73
0
40
0
0
LTYPE
5
15
330
5
100
AcDbSymbolTableRecord
100
AcDbLinetypeTableRecord
2
ByLayer
70
0
3

72
65
73
0
40
0
0
LTYPE
5
16
330
5
100
AcDbSymbolTableRecord
100
AcDbLinetypeTableRecord
2
Continuous
70
0
3
Solid line
72
65
73
0
40
0
0
LTYPE
5
32
330
5
100
AcDbSymbolTableRecord
100
AcDbLinetypeTableRecord
2
DOT
70
0
3
Dot . . . . . . . . . . . . . . . . . . . . . .
72
65
73
2
40
6.35
49
0
74
0
49
-6.35
74
0
0
LTYPE
5
33
330
5
100
AcDbSymbolTableRecord
100
AcDbLinetypeTableRecord
2
DOT2
70
0
3
Dot (.5x) .....................................
72
65
73
2
40
3.175
49
0
74
0
49
-3.175
74
0
0
LTYPE
5
34
330
5
100
AcDbSymbolTableRecord
100
AcDbLinetypeTableRecord
2
DOTX2
70
0
3
Dot (2x) .  .  .  .  .  .  .  .  .  .  .  .  .
72
65
73
2
40
12.7
49
0
74
0
49
-12.7
74
0
0
LTYPE
5
35
330
5
100
AcDbSymbolTableRecord
100
AcDbLinetypeTableRecord
2
DASHED
70
0
3
Dot . . . . . . . . . . . . . . . . . . . . . .
72
65
73
2
40
19.05
49
12.7
74
0
49
-6.35
74
0
0
LTYPE
5
36
330
5
100
AcDbSymbolTableRecord
100
AcDbLinetypeTableRecord
2
DASHED2
70
0
3
Dashed (.5x) _ _ _ _ _ _ _ _ _ _ _ _ _ _ _ _ _
72
65
73
2
40
9.525
49
6.35
74
0
49
-3.175
74
0
0
LTYPE
5
37
330
5
100
AcDbSymbolTableRecord
100
AcDbLinetypeTableRecord
2
DASHEDX2
70
0
3
Dashed (2x) ____  ____  ____  ____  ____  ___
72
65
73
2
40
38.1
49
25.4
74
0
49
-12.7
74
0
0
LTYPE
5
38
330
5
100
AcDbSymbolTableRecord
100
AcDbLinetypeTableRecord
2
DASHDOT
70
0
3
Dash dot __ . __ . __ . __ . __ . __ . __ . __
72
65
73
4
40
25.4
49
12.7
74
0
49
-6.35
74
0
49
0
74
0
49
-6.35
74
0
0
LTYPE
5
39
330
5
100
AcDbSymbolTableRecord
100
AcDbLinetypeTableRecord
2
DASHDOT2
70
0
3
Dash dot (.5x) _._._._._._._._._._._._._._._.
72
65
73
4
40
12.7
49
6.35
74
0
49
-3.175
74
0
49
0
74
0
49
-3.175
74
0
0
LTYPE
5
3A
330
5
100
AcDbSymbolTableRecord
100
AcDbLinetypeTableRecord
2
DASHDOTX2
70
0
3
Dash dot (2x) ____  .  ____  .  ____  .  ___
72
65
73
4
40
50.8
49
25.4
74
0
49
-12.7
74
0
49
0
74
0
49
-12.7
74
0
0
LTYPE
5
3B
330
5
100
AcDbSymbolTableRecord
100
AcDbLinetypeTableRecord
2
DIVIDE
70
0
3
Divide ____ . . ____ . . ____ . . ____ . . ____
72
65
73
6
40
31.75
49
12.7
74
0
49
-6.35
74
0
49
0
74
0
49
-6.35
74
0
49
0
74
0
49
-6.35
74
0
0
LTYPE
5
3C
330
5
100
AcDbSymbolTableRecord
100
AcDbLinetypeTableRecord
2
DIVIDE2
70
0
3
Divide (.5x) __..__..__..__..__..__..__..__.._
72
65
73
6
40
15.875
49
6.35
74
0
49
-3.175
74
0
49
0
74
0
49
-3.175
74
0
49
0
74
0
49
-3.175
74
0
0
LTYPE
5
3D
330
5
100
AcDbSymbolTableRecord
100
AcDbLinetypeTableRecord
2
DIVIDEX2
70
0
3
Divide (2x) ________  .  .  ________  .  .  _
72
65
73
6
40
63.5
49
25.4
74
0
49
-12.7
74
0
49
0
74
0
49
-12.7
74
0
49
0
74
0
49
-12.7
74
0
0
LTYPE
5
3E
330
5
100
AcDbSymbolTableRecord
100
AcDbLinetypeTableRecord
2
BORDER
70
0
3
Border __ __ . __ __ . __ __ . __ __ . __ __ .
72
65
73
6
40
44.45
49
12.7
74
0
49
-6.35
74
0
49
12.7
74
0
49
-6.35
74
0
49
0
74
0
49
-6.35
74
0
0
LTYPE
5
3F
330
5
100
AcDbSymbolTableRecord
100
AcDbLinetypeTableRecord
2
BORDER2
70
0
3
Border (.5x) __.__.__.__.__.__.__.__.__.__.__.
72
65
73
6
40
22.225
49
6.35
74
0
49
-3.175
74
0
49
6.35
74
0
49
-3.175
74
0
49
0
74
0
49
-3.175
74
0
0
LTYPE
5
40
330
5
100
AcDbSymbolTableRecord
100
AcDbLinetypeTableRecord
2
BORDERX2
70
0
3
Border (2x) ____  ____  .  ____  ____  .  ___
72
65
73
6
40
88.9
49
25.4
74
0
49
-12.7
74
0
49
25.4
74
0
49
-12.7
74
0
49
0
74
0
49
-12.7
74
0
0
LTYPE
5
41
330
5
100
AcDbSymbolTableRecord
100
AcDbLinetypeTableRecord
2
CENTER
70
0
3
Center ____ _ ____ _ ____ _ ____ _ ____ _ ____
72
65
73
4
40
50.8
49
31.75
74
0
49
-6.35
74
0
49
6.35
74
0
49
-6.35
74
0
0
LTYPE
5
42
330
5
100
AcDbSymbolTableRecord
100
AcDbLinetypeTableRecord
2
CENTER2
70
0
3
Center (.5x) ___ _ ___ _ ___ _ ___ _ ___ _ ___
72
65
73
4
40
28.575
49
19.05
74
0
49
-3.175
74
0
49
3.175
74
0
49
-3.175
74
0
0
LTYPE
5
43
330
5
100
AcDbSymbolTableRecord
100
AcDbLinetypeTableRecord
2
CENTERX2
70
0
3
Center (2x) ________  __  ________  __  _____
72
65
73
4
40
101.6
49
63.5
74
0
49
-12.7
74
0
49
12.7
74
0
49
-12.7
74
0
0
ENDTAB
0
TABLE
2
LAYER
5
2
330
0
100
AcDbSymbolTable
70
1
0
LAYER
5
10
330
2
100
AcDbSymbolTableRecord
100
AcDbLayerTableRecord
2
0
70
0
62
7
6
CONTINUOUS
370
-3
390
F
0
LAYER
5
44
330
2
100
AcDbSymbolTableRecord
100
AcDbLayerTableRecord
2
SICHTBAR
70
0
62
7
6
CONTINUOUS
370
-3
390
F
0
ENDTAB
0
TABLE
2
STYLE
5
3
330
0
100
AcDbSymbolTable
70
3
0
STYLE
5
45
330
2
100
AcDbSymbolTableRecord
100
AcDbTextStyleTableRecord
2
Standard
70
0
40
0
41
1
50
0
71
0
42
1
3
txt
4

0
ENDTAB
0
TABLE
2
VIEW
5
6
330
0
100
AcDbSymbolTable
70
0
0
ENDTAB
0
TABLE
2
UCS
5
7
330
0
100
AcDbSymbolTable
70
0
0
ENDTAB
0
TABLE
2
APPID
5
9
330
0
100
AcDbSymbolTable
70
1
0
APPID
5
12
330
9
100
AcDbSymbolTableRecord
100
AcDbRegAppTableRecord
2
ACAD
70
0
0
ENDTAB
0
TABLE
2
DIMSTYLE
5
A
330
0
100
AcDbSymbolTable
70
1
100
AcDbDimStyleTable
71
1
0
DIMSTYLE
105
46
330
A
100
AcDbSymbolTableRecord
100
AcDbDimStyleTableRecord
2
Standard
70
0
40
1
41
3
42
0.625
43
0.38
44
1.25
45
0
46
0
47
0
48
0
140
2.08579861111
141
0.09
142
0
143
25.4
144
1
145
0
146
1
147
0.625
148
0
71
0
72
0
73
0
74
1
75
0
76
0
77
0
78
0
79
0
170
0
171
2
172
0
173
0
174
0
175
0
176
0
177
0
178
0
179
0
271
4
272
4
273
2
274
2
275
0
276
0
277
2
278
46
279
0
280
0
281
0
282
0
283
1
284
0
285
0
286
0
288
0
289
3
340
Standard
341

371
-2
372
-2
0
ENDTAB
0
TABLE
2
BLOCK_RECORD
5
1
330
0
100
AcDbSymbolTable
70
2
0
BLOCK_RECORD
5
1F
330
1
100
AcDbSymbolTableRecord
100
AcDbBlockTableRecord
2
*Model_Space
70
0
280
1
281
0
0
BLOCK_RECORD
5
1E
330
1
100
AcDbSymbolTableRecord
100
AcDbBlockTableRecord
2
*Paper_Space
70
0
280
1
281
0
0
ENDTAB
0
ENDSEC
0
SECTION
2
BLOCKS
0
BLOCK
5
20
330
1F
100
AcDbEntity
8
0
100
AcDbBlockBegin
2
*Model_Space
70
0
10
0
20
0
30
0
3
*Model_Space
1

0
ENDBLK
5
21
330
1F
100
AcDbEntity
8
0
100
AcDbBlockEnd
0
BLOCK
5
1C
330
1B
100
AcDbEntity
8
0
100
AcDbBlockBegin
2
*Paper_Space
70
0
10
0
20
0
30
0
3
*Paper_Space
1

0
ENDBLK
5
1D
330
1F
100
AcDbEntity
8
0
100
AcDbBlockEnd
0
ENDSEC
0
SECTION
2
ENTITIES
0
LINE
5
47
100
AcDbEntity
8
SICHTBAR
6
ByLayer
62
256
370
-1
100
AcDbLine
10
276.617338701
20
196.459538409
11
289.410700382
21
202.145476934
0
LINE
5
48
100
AcDbEntity
8
SICHTBAR
6
ByLayer
62
256
370
-1
100
AcDbLine
10
245.7473484
20
265.917016587
11
247.77804073
21
261.347958844
0
CIRCLE
5
49
100
AcDbEntity
8
SICHTBAR
6
ByLayer
62
256
370
-1
100
AcDbCircle
10
252.458924105
20
211.571682222
40
3
0
ARC
5
4A
100
AcDbEntity
8
SICHTBAR
6
ByLayer
62
256
370
-1
100
AcDbCircle
10
294.198422467
20
155.966112891
40
72.5404033172
100
AcDbArc
50
210.116746257
51
242.350200667
0
LINE
5
4B
100
AcDbEntity
8
SICHTBAR
6
ByLayer
62
256
370
-1
100
AcDbLine
10
247.77804073
20
261.347958844
11
260.571402411
21
267.033897369
0
ARC
5
4C
100
AcDbEntity
8
SICHTBAR
6
ByLayer
62
256
370
-1
100
AcDbCircle
10
228.578975896
20
225.754992304
40
12
100
AcDbArc
50
302.566317767
51
23.9624889746
0
ARC
5
4D
100
AcDbEntity
8
SICHTBAR
6
ByLayer
62
256
370
-1
100
AcDbCircle
10
133.458924105
20
233.571682225
40
35.4400902933
100
AcDbArc
50
189.941817856
51
257.249729061
0
ARC
5
4E
100
AcDbEntity
8
SICHTBAR
6
ByLayer
62
256
370
-1
100
AcDbCircle
10
107.82127997
20
186.080858501
40
27.2165491021
100
AcDbArc
50
338.447809616
51
4.60073515571
0
LINE
5
4F
100
AcDbEntity
8
SICHTBAR
6
ByLayer
62
256
370
-1
100
AcDbLine
10
106.458924104
20
21.5716822221
11
101.458924105
21
21.5716822221
0
ARC
5
50
100
AcDbEntity
8
SICHTBAR
6
ByLayer
62
256
370
-1
100
AcDbCircle
10
193.949212358
20
163.731096797
40
78.1599061906
100
AcDbArc
50
206.061232924
51
217.685952371
0
ARC
5
51
100
AcDbEntity
8
SICHTBAR
6
ByLayer
62
256
370
-1
100
AcDbCircle
10
30.7923477744
20
235.39497565
40
5
100
AcDbArc
50
107.927919762
51
149.601674345
0
LINE
5
52
100
AcDbEntity
8
SICHTBAR
6
ByLayer
62
256
370
-1
100
AcDbLine
10
66.4589241047
20
21.5716822221
11
61.4589241047
21
21.5716822221
0
ARC
5
53
100
AcDbEntity
8
SICHTBAR
6
ByLayer
62
256
370
-1
100
AcDbCircle
10
48.2603009889
20
197.195791887
40
12
100
AcDbArc
50
170.582877695
51
236.476571051
0
ARC
5
54
100
AcDbEntity
8
SICHTBAR
6
ByLayer
62
256
370
-1
100
AcDbCircle
10
107.157059472
20
286.10007879
40
118.643332607
100
AcDbArc
50
268.915968616
51
277.986434412
0
ARC
5
55
100
AcDbEntity
8
SICHTBAR
6
ByLayer
62
256
370
-1
100
AcDbCircle
10
74.3954293254
20
228.490169618
40
5
100
AcDbArc
50
186.479871073
51
291.447736327
0
SPLINE
5
56
100
AcDbEntity
8
SICHTBAR
6
ByLayer
62
256
370
-1
100
AcDbSpline
210
0
220
0
230
1
70
8
71
3
72
9
73
5
74
0
42
1e-007
43
1e-007
40
0
40
0
40
0
40
0
40
0.5
40
1
40
1
40
1
40
1
10
266.458924104
20
21.5716822221
30
0
10
245.458924104
20
61.5716822221
30
0
10
216.458924104
20
87.5716822221
30
0
10
147.458924104
20
80.5716822222
30
0
10
106.458924104
20
21.5716822221
30
0
0
ARC
5
57
100
AcDbEntity
8
SICHTBAR
6
ByLayer
62
256
370
-1
100
AcDbCircle
10
215.887303316
20
156.110568118
40
12
100
AcDbArc
50
146.684696596
51
235.878627447
0
LINE
5
58
100
AcDbEntity
8
SICHTBAR
6
ByLayer
62
256
370
-1
100
AcDbLine
10
284.740108023
20
178.183307437
11
286.770800353
21
173.614249694
0
SPLINE
5
59
100
AcDbEntity
8
SICHTBAR
6
ByLayer
62
256
370
-1
100
AcDbSpline
210
0
220
0
230
1
70
8
71
3
72
8
73
4
74
0
42
1e-007
43
1e-007
40
0
40
0
40
0
40
0
40
1
40
1
40
1
40
1
10
239.54471448
20
230.628653896
30
0
10
234.458924105
20
245.571682222
30
0
10
237.458924105
20
260.571682222
30
0
10
243.005913754
20
264.698601189
30
0
0
LINE
5
5A
100
AcDbEntity
8
SICHTBAR
6
ByLayer
62
256
370
-1
100
AcDbLine
10
310.458924105
20
21.5716822221
11
310.458924105
21
7.57168222205
0
LINE
5
5B
100
AcDbEntity
8
SICHTBAR
6
ByLayer
62
256
370
-1
100
AcDbLine
10
255.900810051
20
243.071727872
11
276.617338701
21
196.459538409
0
LINE
5
5C
100
AcDbEntity
8
SICHTBAR
6
ByLayer
62
256
370
-1
100
AcDbLine
10
243.005913754
20
264.698601189
11
245.7473484
21
265.917016587
0
ARC
5
5D
100
AcDbEntity
8
SICHTBAR
6
ByLayer
62
256
370
-1
100
AcDbCircle
10
122.988799059
20
187.301403984
40
12
100
AcDbArc
50
4.60073515571
51
77.2497290612
0
ARC
5
5E
100
AcDbEntity
8
SICHTBAR
6
ByLayer
62
256
370
-1
100
AcDbCircle
10
133.458924105
20
233.571682226
40
35.4400902933
100
AcDbArc
50
321.174690007
51
45.2137357699
0
ARC
5
5F
100
AcDbEntity
8
SICHTBAR
6
ByLayer
62
256
370
-1
100
AcDbCircle
10
200.031053886
20
217.865857968
40
44.7716489293
100
AcDbArc
50
205.360784446
51
225.000562912
0
LINE
5
60
100
AcDbEntity
8
SICHTBAR
6
ByLayer
62
256
370
-1
100
AcDbLine
10
101.458924105
20
21.5716822221
11
101.458924105
21
7.57168222214
0
ARC
5
61
100
AcDbEntity
8
SICHTBAR
6
ByLayer
62
256
370
-1
100
AcDbCircle
10
112.956311132
20
124.121014302
40
12
100
AcDbArc
50
26.0612329239
51
88.8081287884
0
ARC
5
62
100
AcDbEntity
8
SICHTBAR
6
ByLayer
62
256
370
-1
100
AcDbCircle
10
94.6110827831
20
226.762427718
40
4
100
AcDbArc
50
9.94181785574
51
111.447736326
0
LINE
5
63
100
AcDbEntity
8
SICHTBAR
6
ByLayer
62
256
370
-1
100
AcDbLine
10
29.2532463474
20
240.152198243
11
45.9723262878
21
245.561312342
0
ARC
5
64
100
AcDbEntity
8
SICHTBAR
6
ByLayer
62
256
370
-1
100
AcDbCircle
10
222.991025395
20
-62.0405339967
40
181.889038835
100
AcDbArc
50
121.619094925
51
152.63302071
0
ARC
5
65
100
AcDbEntity
8
SICHTBAR
6
ByLayer
62
256
370
-1
100
AcDbCircle
10
107.157059471
20
286.10007879
40
118.643332607
100
AcDbArc
50
236.476571051
51
242.27870352
0
ARC
5
66
100
AcDbEntity
8
SICHTBAR
6
ByLayer
62
256
370
-1
100
AcDbCircle
10
121.973938755
20
180.491080699
40
12
100
AcDbArc
50
277.986434412
51
338.447809616
0
ARC
5
67
100
AcDbEntity
8
SICHTBAR
6
ByLayer
62
256
370
-1
100
AcDbCircle
10
136.30037642
20
235.521317781
40
67.3029655735
100
AcDbArc
50
53.864235481
51
186.479871073
0
CIRCLE
5
68
100
AcDbEntity
8
SICHTBAR
6
ByLayer
62
256
370
-1
100
AcDbCircle
10
113.458924105
20
279.571682222
40
12.75
0
LINE
5
69
100
AcDbEntity
8
SICHTBAR
6
ByLayer
62
256
370
-1
100
AcDbLine
10
271.458924105
20
21.5716822221
11
266.458924104
21
21.5716822221
0
ARC
5
6A
100
AcDbEntity
8
SICHTBAR
6
ByLayer
62
256
370
-1
100
AcDbCircle
10
295.960724205
20
103.481540939
40
107.820494857
100
AcDbArc
50
121.105100541
51
146.684696596
0
LINE
5
6B
100
AcDbEntity
8
SICHTBAR
6
ByLayer
62
256
370
-1
100
AcDbLine
10
297.533469703
20
183.869245962
11
284.740108023
21
178.183307437
0
LINE
5
6C
100
AcDbEntity
8
SICHTBAR
6
ByLayer
62
256
370
-1
100
AcDbLine
10
315.735848254
20
21.5716822221
11
310.458924105
21
21.5716822221
0
LINE
5
6D
100
AcDbEntity
8
SICHTBAR
6
ByLayer
62
256
370
-1
100
AcDbLine
10
268.694171732
20
248.757666397
11
255.900810051
21
243.071727872
0
LINE
5
6E
100
AcDbEntity
8
SICHTBAR
6
ByLayer
62
256
370
-1
100
AcDbLine
10
93.1484732935
20
230.485433692
11
76.2236911875
21
223.83641215
0
ARC
5
6F
100
AcDbEntity
8
SICHTBAR
6
ByLayer
62
256
370
-1
100
AcDbCircle
10
183.458924105
20
255.571682226
40
27.009811424
100
AcDbArc
50
108.994465621
51
164.905065528
0
LINE
5
70
100
AcDbEntity
8
SICHTBAR
6
ByLayer
62
256
370
-1
100
AcDbLine
10
101.458924105
20
7.57168222214
11
66.4589241048
21
7.57168222215
0
ARC
5
71
100
AcDbEntity
8
SICHTBAR
6
ByLayer
62
256
370
-1
100
AcDbCircle
10
116.393261597
20
289.318687207
40
153.233422049
100
AcDbArc
50
226.637013434
51
268.808128788
0
ARC
5
72
100
AcDbEntity
8
SICHTBAR
6
ByLayer
62
256
370
-1
100
AcDbCircle
10
47.5114277148
20
240.804089749
40
5
100
AcDbArc
50
326.563125459
51
107.927919762
0
ARC
5
73
100
AcDbEntity
8
SICHTBAR
6
ByLayer
62
256
370
-1
100
AcDbCircle
10
121.3408711
20
103.066114907
40
12
100
AcDbArc
50
301.619094925
51
335.248061607
0
ARC
5
74
100
AcDbEntity
8
SICHTBAR
6
ByLayer
62
256
370
-1
100
AcDbCircle
10
57.5496621925
20
191.697184106
40
12
100
AcDbArc
50
242.27870352
51
278.57428008
0
ARC
5
75
100
AcDbEntity
8
SICHTBAR
6
ByLayer
62
256
370
-1
100
AcDbCircle
10
-361.006948765
20
1148.859943
40
1107.32383913
100
AcDbArc
50
299.410002958
51
302.566317767
0
SPLINE
5
76
100
AcDbEntity
8
SICHTBAR
6
ByLayer
62
256
370
-1
100
AcDbSpline
210
0
220
0
230
1
70
8
71
3
72
8
73
4
74
0
42
1e-007
43
1e-007
40
0
40
0
40
0
40
0
40
1
40
1
40
1
40
1
10
284.029365707
20
172.395834296
30
0
10
276.458924105
20
168.571682222
30
0
10
263.458924105
20
176.571682222
30
0
10
257.424679794
20
190.398731923
30
0
0
LINE
5
77
100
AcDbEntity
8
SICHTBAR
6
ByLayer
62
256
370
-1
100
AcDbLine
10
271.458924105
20
7.57168222206
11
271.458924105
21
21.5716822221
0
ARC
5
78
100
AcDbEntity
8
SICHTBAR
6
ByLayer
62
256
370
-1
100
AcDbCircle
10
246.45894121
20
185.525070331
40
12
100
AcDbArc
50
23.9624889746
51
121.105100541
0
LINE
5
79
100
AcDbEntity
8
SICHTBAR
6
ByLayer
62
256
370
-1
100
AcDbLine
10
289.410700382
20
202.145476934
11
297.533469703
21
183.869245962
0
ARC
5
7A
100
AcDbEntity
8
SICHTBAR
6
ByLayer
62
256
370
-1
100
AcDbCircle
10
176.858226366
20
194.692575113
40
12
100
AcDbArc
50
225.000562912
51
299.410002958
0
ARC
5
7B
100
AcDbEntity
8
SICHTBAR
6
ByLayer
62
256
370
-1
100
AcDbCircle
10
205.458924104
20
-8.42831777808
40
114.284732139
100
AcDbArc
50
15.2185891081
51
61.189206257
0
LINE
5
7C
100
AcDbEntity
8
SICHTBAR
6
ByLayer
62
256
370
-1
100
AcDbLine
10
260.571402411
20
267.033897369
11
268.694171732
21
248.757666397
0
CIRCLE
5
7D
100
AcDbEntity
8
SICHTBAR
6
ByLayer
62
256
370
-1
100
AcDbCircle
10
287.458924105
20
32.5716822221
40
3
0
ARC
5
7E
100
AcDbEntity
8
SICHTBAR
6
ByLayer
62
256
370
-1
100
AcDbCircle
10
122.599057086
20
108.613368008
40
12
100
AcDbArc
50
359.193566174
51
37.6859523708
0
ARC
5
7F
100
AcDbEntity
8
SICHTBAR
6
ByLayer
62
256
370
-1
100
AcDbCircle
10
165.599590628
20
156.309331399
40
161.293095985
100
AcDbArc
50
149.601674345
51
168.278318467
0
LINE
5
80
100
AcDbEntity
8
SICHTBAR
6
ByLayer
62
256
370
-1
100
AcDbLine
10
66.4589241048
20
7.57168222215
11
66.4589241047
21
21.5716822221
0
ARC
5
81
100
AcDbEntity
8
SICHTBAR
6
ByLayer
62
256
370
-1
100
AcDbCircle
10
19.4198524291
20
186.639393199
40
12
100
AcDbArc
50
168.278318467
51
226.637013434
0
ARC
5
82
100
AcDbEntity
8
SICHTBAR
6
ByLayer
62
256
370
-1
100
AcDbCircle
10
161.243051076
20
261.56387776
40
4
100
AcDbArc
50
164.905065528
51
225.21373577
0
ARC
5
83
100
AcDbEntity
8
SICHTBAR
6
ByLayer
62
256
370
-1
100
AcDbCircle
10
135.456448753
20
182.733790007
40
100.387316303
100
AcDbArc
50
146.563125459
51
170.582877695
0
ARC
5
84
100
AcDbEntity
8
SICHTBAR
6
ByLayer
62
256
370
-1
100
AcDbCircle
10
105.139496861
20
179.475832811
40
12
100
AcDbArc
50
232.620392056
51
268.915968616
0
ARC
5
85
100
AcDbEntity
8
SICHTBAR
6
ByLayer
62
256
370
-1
100
AcDbCircle
10
108.89049479
20
108.806327743
40
25.7099202644
100
AcDbArc
50
335.248061607
51
359.193566174
0
ARC
5
86
100
AcDbEntity
8
SICHTBAR
6
ByLayer
62
256
370
-1
100
AcDbCircle
10
66.9326083157
20
129.466419067
40
50.9341544412
100
AcDbArc
50
52.6203920561
51
98.5742800798
0
ARC
5
87
100
AcDbEntity
8
SICHTBAR
6
ByLayer
62
256
370
-1
100
AcDbCircle
10
173.0404724
20
285.838560021
40
5
100
AcDbArc
50
288.994465621
51
53.864235481
0
CIRCLE
5
88
100
AcDbEntity
8
SICHTBAR
6
ByLayer
62
256
370
-1
100
AcDbCircle
10
34.4589241048
20
227.571682222
40
3
0
ARC
5
89
100
AcDbEntity
8
SICHTBAR
6
ByLayer
62
256
370
-1
100
AcDbCircle
10
173.659035152
20
93.7897643971
40
63.2802046261
100
AcDbArc
50
24.0394901878
51
55.8786274471
0
CIRCLE
5
8A
100
AcDbEntity
8
SICHTBAR
6
ByLayer
62
256
370
-1
100
AcDbCircle
10
90.4589241048
20
32.5716822221
40
3
0
LINE
5
8B
100
AcDbEntity
8
SICHTBAR
6
ByLayer
62
256
370
-1
100
AcDbLine
10
286.770800353
20
173.614249694
11
284.029365707
21
172.395834296
0
LINE
5
8C
100
AcDbEntity
8
SICHTBAR
6
ByLayer
62
256
370
-1
100
AcDbLine
10
310.458924105
20
7.57168222205
11
271.458924105
21
7.57168222206
0
ARC
5
8D
100
AcDbEntity
8
SICHTBAR
6
ByLayer
62
256
370
-1
100
AcDbCircle
10
170.417652618
20
203.829211686
40
12
100
AcDbArc
50
141.174690007
51
205.360784446
0
CIRCLE
5
8E
100
AcDbEntity
8
0
6
ByLayer
62
256
370
-1
100
AcDbCircle
10
190.972732109
20
38.7913362097
40
12.75
0
ENDSEC
0
SECTION
2
OBJECTS
0
DICTIONARY
5
C
330
0
100
AcDbDictionary
281
1
3
ACAD_GROUP
350
D
0
DICTIONARY
5
D
330
C
100
AcDbDictionary
281
1
0
ENDSEC
0
EOF
