  0
SECTION
  2
HEADER
  9
$ACADVER
  1
AC1024
  9
$ACADMAINTVER
 70
     6
  9
$DWGCODEPAGE
  3
ANSI_1252
  9
$INSBASE
 10
0.0
 20
0.0
 30
0.0
  9
$EXTMIN
 10
1.000000000000000E+20
 20
1.000000000000000E+20
 30
1.000000000000000E+20
  9
$EXTMAX
 10
-1.000000000000000E+20
 20
-1.000000000000000E+20
 30
-1.000000000000000E+20
  9
$LIMMIN
 10
0.0
 20
0.0
  9
$LIMMAX
 10
12.0
 20
9.0
  9
$ORTHOMODE
 70
     0
  9
$REGENMODE
 70
     1
  9
$FILLMODE
 70
     1
  9
$QTEXTMODE
 70
     0
  9
$MIRRTEXT
 70
     1
  9
$LTSCALE
 40
1.0
  9
$ATTMODE
 70
     1
  9
$TEXTSIZE
 40
0.2
  9
$TRACEWID
 40
0.05
  9
$TEXTSTYLE
  7
Standard
  9
$CLAYER
  8
0
  9
$CELTYPE
  6
ByLayer
  9
$CECOLOR
 62
   256
  9
$CELTSCALE
 40
1.0
  9
$DISPSILH
 70
     0
  9
$DIMSCALE
 40
1.0
  9
$DIMASZ
 40
0.18
  9
$DIMEXO
 40
0.0625
  9
$DIMDLI
 40
0.38
  9
$DIMRND
 40
0.0
  9
$DIMDLE
 40
0.0
  9
$DIMEXE
 40
0.18
  9
$DIMTP
 40
0.0
  9
$DIMTM
 40
0.0
  9
$DIMTXT
 40
0.18
  9
$DIMCEN
 40
0.09
  9
$DIMTSZ
 40
0.0
  9
$DIMTOL
 70
     0
  9
$DIMLIM
 70
     0
  9
$DIMTIH
 70
     1
  9
$DIMTOH
 70
     1
  9
$DIMSE1
 70
     0
  9
$DIMSE2
 70
     0
  9
$DIMTAD
 70
     0
  9
$DIMZIN
 70
     0
  9
$DIMBLK
  1

  9
$DIMASO
 70
     1
  9
$DIMSHO
 70
     1
  9
$DIMPOST
  1

  9
$DIMAPOST
  1

  9
$DIMALT
 70
     0
  9
$DIMALTD
 70
     2
  9
$DIMALTF
 40
25.4
  9
$DIMLFAC
 40
1.0
  9
$DIMTOFL
 70
     0
  9
$DIMTVP
 40
0.0
  9
$DIMTIX
 70
     0
  9
$DIMSOXD
 70
     0
  9
$DIMSAH
 70
     0
  9
$DIMBLK1
  1

  9
$DIMBLK2
  1

  9
$DIMSTYLE
  2
Standard
  9
$DIMCLRD
 70
     0
  9
$DIMCLRE
 70
     0
  9
$DIMCLRT
 70
     0
  9
$DIMTFAC
 40
1.0
  9
$DIMGAP
 40
0.09
  9
$DIMJUST
 70
     0
  9
$DIMSD1
 70
     0
  9
$DIMSD2
 70
     0
  9
$DIMTOLJ
 70
     1
  9
$DIMTZIN
 70
     0
  9
$DIMALTZ
 70
     0
  9
$DIMALTTZ
 70
     0
  9
$DIMUPT
 70
     0
  9
$DIMDEC
 70
     4
  9
$DIMTDEC
 70
     4
  9
$DIMALTU
 70
     2
  9
$DIMALTTD
 70
     2
  9
$DIMTXSTY
  7
Standard
  9
$DIMAUNIT
 70
     0
  9
$DIMADEC
 70
     0
  9
$DIMALTRND
 40
0.0
  9
$DIMAZIN
 70
     0
  9
$DIMDSEP
 70
    46
  9
$DIMATFIT
 70
     3
  9
$DIMFRAC
 70
     0
  9
$DIMLDRBLK
  1

  9
$DIMLUNIT
 70
     2
  9
$DIMLWD
 70
    -2
  9
$DIMLWE
 70
    -2
  9
$DIMTMOVE
 70
     0
  9
$DIMFXL
 40
1.0
  9
$DIMFXLON
 70
     0
  9
$DIMJOGANG
 40
0.7853981633974483
  9
$DIMTFILL
 70
     0
  9
$DIMTFILLCLR
 70
     0
  9
$DIMARCSYM
 70
     0
  9
$DIMLTYPE
  6

  9
$DIMLTEX1
  6

  9
$DIMLTEX2
  6

  9
$DIMTXTDIRECTION
 70
     0
  9
$LUNITS
 70
     2
  9
$LUPREC
 70
     4
  9
$SKETCHINC
 40
0.1
  9
$FILLETRAD
 40
0.5
  9
$AUNITS
 70
     0
  9
$AUPREC
 70
     0
  9
$MENU
  1
.
  9
$ELEVATION
 40
0.0
  9
$PELEVATION
 40
0.0
  9
$THICKNESS
 40
0.0
  9
$LIMCHECK
 70
     0
  9
$CHAMFERA
 40
0.5
  9
$CHAMFERB
 40
0.5
  9
$CHAMFERC
 40
1.0
  9
$CHAMFERD
 40
0.0
  9
$SKPOLY
 70
     0
  9
$TDCREATE
 40
2459065.817362535
  9
$TDUCREATE
 40
2459065.588195868
  9
$TDUPDATE
 40
2459065.817362558
  9
$TDUUPDATE
 40
2459065.588195891
  9
$TDINDWG
 40
0.0000000116
  9
$TDUSRTIMER
 40
0.0000000116
  9
$USRTIMER
 70
     1
  9
$ANGBASE
 50
0.0
  9
$ANGDIR
 70
     0
  9
$PDMODE
 70
     0
  9
$PDSIZE
 40
0.0
  9
$PLINEWID
 40
0.0
  9
$SPLFRAME
 70
     0
  9
$SPLINETYPE
 70
     6
  9
$SPLINESEGS
 70
     8
  9
$HANDSEED
  5
59
  9
$SURFTAB1
 70
     6
  9
$SURFTAB2
 70
     6
  9
$SURFTYPE
 70
     6
  9
$SURFU
 70
     6
  9
$SURFV
 70
     6
  9
$UCSBASE
  2

  9
$UCSNAME
  2

  9
$UCSORG
 10
0.0
 20
0.0
 30
0.0
  9
$UCSXDIR
 10
1.0
 20
0.0
 30
0.0
  9
$UCSYDIR
 10
0.0
 20
1.0
 30
0.0
  9
$UCSORTHOREF
  2

  9
$UCSORTHOVIEW
 70
     0
  9
$UCSORGTOP
 10
0.0
 20
0.0
 30
0.0
  9
$UCSORGBOTTOM
 10
0.0
 20
0.0
 30
0.0
  9
$UCSORGLEFT
 10
0.0
 20
0.0
 30
0.0
  9
$UCSORGRIGHT
 10
0.0
 20
0.0
 30
0.0
  9
$UCSORGFRONT
 10
0.0
 20
0.0
 30
0.0
  9
$UCSORGBACK
 10
0.0
 20
0.0
 30
0.0
  9
$PUCSBASE
  2

  9
$PUCSNAME
  2

  9
$PUCSORG
 10
0.0
 20
0.0
 30
0.0
  9
$PUCSXDIR
 10
1.0
 20
0.0
 30
0.0
  9
$PUCSYDIR
 10
0.0
 20
1.0
 30
0.0
  9
$PUCSORTHOREF
  2

  9
$PUCSORTHOVIEW
 70
     0
  9
$PUCSORGTOP
 10
0.0
 20
0.0
 30
0.0
  9
$PUCSORGBOTTOM
 10
0.0
 20
0.0
 30
0.0
  9
$PUCSORGLEFT
 10
0.0
 20
0.0
 30
0.0
  9
$PUCSORGRIGHT
 10
0.0
 20
0.0
 30
0.0
  9
$PUCSORGFRONT
 10
0.0
 20
0.0
 30
0.0
  9
$PUCSORGBACK
 10
0.0
 20
0.0
 30
0.0
  9
$USERI1
 70
     0
  9
$USERI2
 70
     0
  9
$USERI3
 70
     0
  9
$USERI4
 70
     0
  9
$USERI5
 70
     0
  9
$USERR1
 40
0.0
  9
$USERR2
 40
0.0
  9
$USERR3
 40
0.0
  9
$USERR4
 40
0.0
  9
$USERR5
 40
0.0
  9
$WORLDVIEW
 70
     1
  9
$SHADEDGE
 70
     3
  9
$SHADEDIF
 70
    70
  9
$TILEMODE
 70
     1
  9
$MAXACTVP
 70
    64
  9
$PINSBASE
 10
0.0
 20
0.0
 30
0.0
  9
$PLIMCHECK
 70
     0
  9
$PEXTMIN
 10
1.000000000000000E+20
 20
1.000000000000000E+20
 30
1.000000000000000E+20
  9
$PEXTMAX
 10
-1.000000000000000E+20
 20
-1.000000000000000E+20
 30
-1.000000000000000E+20
  9
$PLIMMIN
 10
0.0
 20
0.0
  9
$PLIMMAX
 10
12.0
 20
9.0
  9
$UNITMODE
 70
     0
  9
$VISRETAIN
 70
     1
  9
$PLINEGEN
 70
     0
  9
$PSLTSCALE
 70
     1
  9
$TREEDEPTH
 70
  3020
  9
$CMLSTYLE
  2
Standard
  9
$CMLJUST
 70
     0
  9
$CMLSCALE
 40
1.0
  9
$PROXYGRAPHICS
 70
     1
  9
$MEASUREMENT
 70
     0
  9
$CELWEIGHT
370
    -1
  9
$ENDCAPS
280
     0
  9
$JOINSTYLE
280
     0
  9
$LWDISPLAY
290
     1
  9
$INSUNITS
 70
     1
  9
$HYPERLINKBASE
  1

  9
$STYLESHEET
  1

  9
$XEDIT
290
     1
  9
$CEPSNTYPE
380
     0
  9
$PSTYLEMODE
290
     1
  9
$FINGERPRINTGUID
  2
{21092D6B-F068-4323-87A1-BB7D73D9BD85}
  9
$VERSIONGUID
  2
{FAEB1C32-E019-11D5-929B-00C0DF256EC4}
  9
$EXTNAMES
290
     1
  9
$PSVPSCALE
 40
0.0
  9
$OLESTARTUP
290
     0
  9
$SORTENTS
280
   127
  9
$INDEXCTL
280
     0
  9
$HIDETEXT
280
     1
  9
$XCLIPFRAME
280
     2
  9
$HALOGAP
280
     0
  9
$OBSCOLOR
 70
   257
  9
$OBSLTYPE
280
     0
  9
$INTERSECTIONDISPLAY
280
     0
  9
$INTERSECTIONCOLOR
 70
   257
  9
$DIMASSOC
280
     2
  9
$PROJECTNAME
  1

  9
$CAMERADISPLAY
290
     0
  9
$LENSLENGTH
 40
50.0
  9
$CAMERAHEIGHT
 40
0.0
  9
$STEPSPERSEC
 40
2.0
  9
$STEPSIZE
 40
6.0
  9
$3DDWFPREC
 40
2.0
  9
$PSOLWIDTH
 40
0.25
  9
$PSOLHEIGHT
 40
4.0
  9
$LOFTANG1
 40
1.570796326794897
  9
$LOFTANG2
 40
1.570796326794897
  9
$LOFTMAG1
 40
0.0
  9
$LOFTMAG2
 40
0.0
  9
$LOFTPARAM
 70
     7
  9
$LOFTNORMALS
280
     1
  9
$LATITUDE
 40
37.795
  9
$LONGITUDE
 40
-122.394
  9
$NORTHDIRECTION
 40
0.0
  9
$TIMEZONE
 70
 -8000
  9
$LIGHTGLYPHDISPLAY
280
     1
  9
$TILEMODELIGHTSYNCH
280
     1
  9
$CMATERIAL
347
3C
  9
$SOLIDHIST
280
     1
  9
$SHOWHIST
280
     1
  9
$DWFFRAME
280
     2
  9
$DGNFRAME
280
     2
  9
$REALWORLDSCALE
290
     1
  9
$INTERFERECOLOR
 62
   256
  9
$CSHADOW
280
     0
  9
$SHADOWPLANELOCATION
 40
0.0
  0
ENDSEC
  0
SECTION
  2
CLASSES
  0
CLASS
  1
ACDBDICTIONARYWDFLT
  2
AcDbDictionaryWithDefault
  3
ObjectDBX Classes
 90
        0
 91
        4
280
     0
281
     0
  0
CLASS
  1
VISUALSTYLE
  2
AcDbVisualStyle
  3
ObjectDBX Classes
 90
     4095
 91
        4
280
     0
281
     0
  0
CLASS
  1
MATERIAL
  2
AcDbMaterial
  3
ObjectDBX Classes
 90
     1153
 91
        4
280
     0
281
     0
  0
CLASS
  1
SUN
  2
AcDbSun
  3
SCENEOE
 90
     1024
 91
        4
280
     0
281
     0
  0
ENDSEC
  0
SECTION
  2
TABLES
  0
TABLE
  2
VPORT
  5
8
330
0
100
AcDbSymbolTable
 70
     1
  0
VPORT
  5
29
330
8
100
AcDbSymbolTableRecord
100
AcDbViewportTableRecord
  2
*Active
 70
     0
 10
0.0
 20
0.0
 11
1.0
 21
1.0
 12
0.0
 22
0.0
 13
0.0
 23
0.0
 14
0.5
 24
0.5
 15
0.5
 25
0.5
 16
0.0
 26
0.0
 36
1.0
 17
3.0
 27
-24.0
 37
0.0
 40
48.0
 41
0.2083333333333333
 42
50.0
 43
0.0
 44
0.0
 50
0.0
 51
0.0
 71
     0
 72
   100
 73
     1
 74
     3
 75
     0
 76
     0
 77
     0
 78
     0
281
     0
 65
     1
110
0.0
120
0.0
130
0.0
111
1.0
121
0.0
131
0.0
112
0.0
122
1.0
132
0.0
 79
     0
146
0.0
 60
     3
 61
     5
292
     1
282
     1
141
0.0
142
0.0
 63
   250
361
3F
  0
ENDTAB
  0
TABLE
  2
LTYPE
  5
5
330
0
100
AcDbSymbolTable
 70
     1
  0
LTYPE
  5
14
330
5
100
AcDbSymbolTableRecord
100
AcDbLinetypeTableRecord
  2
ByBlock
 70
     0
  3

 72
    65
 73
     0
 40
0.0
  0
LTYPE
  5
15
330
5
100
AcDbSymbolTableRecord
100
AcDbLinetypeTableRecord
  2
ByLayer
 70
     0
  3

 72
    65
 73
     0
 40
0.0
  0
LTYPE
  5
16
330
5
100
AcDbSymbolTableRecord
100
AcDbLinetypeTableRecord
  2
Continuous
 70
     0
  3
Solid line
 72
    65
 73
     0
 40
0.0
  0
ENDTAB
  0
TABLE
  2
LAYER
  5
2
330
0
100
AcDbSymbolTable
 70
     2
  0
LAYER
  5
10
330
2
100
AcDbSymbolTableRecord
100
AcDbLayerTableRecord
  2
0
 70
     0
 62
     7
  6
Continuous
370
    -3
390
F
347
3E
  0
LAYER
  5
40
330
2
100
AcDbSymbolTableRecord
100
AcDbLayerTableRecord
  2
Layer 1
 70
     0
 62
     7
  6
Continuous
370
    -3
390
F
347
3E
  0
ENDTAB
  0
TABLE
  2
STYLE
  5
3
330
0
100
AcDbSymbolTable
 70
     1
  0
STYLE
  5
11
330
3
100
AcDbSymbolTableRecord
100
AcDbTextStyleTableRecord
  2
Standard
 70
     0
 40
0.0
 41
1.0
 50
0.0
 71
     0
 42
0.2
  3
txt
  4

  0
ENDTAB
  0
TABLE
  2
VIEW
  5
6
330
0
100
AcDbSymbolTable
 70
     0
  0
ENDTAB
  0
TABLE
  2
UCS
  5
7
330
0
100
AcDbSymbolTable
 70
     0
  0
ENDTAB
  0
TABLE
  2
APPID
  5
9
330
0
100
AcDbSymbolTable
 70
     1
  0
APPID
  5
12
330
9
100
AcDbSymbolTableRecord
100
AcDbRegAppTableRecord
  2
ACAD
 70
     0
  0
ENDTAB
  0
TABLE
  2
DIMSTYLE
  5
A
330
0
100
AcDbSymbolTable
 70
     1
100
AcDbDimStyleTable
  0
DIMSTYLE
105
27
330
A
100
AcDbSymbolTableRecord
100
AcDbDimStyleTableRecord
  2
Standard
 70
     0
178
     0
340
11
  0
ENDTAB
  0
TABLE
  2
BLOCK_RECORD
  5
1
330
0
100
AcDbSymbolTable
 70
     2
  0
BLOCK_RECORD
  5
1F
330
1
100
AcDbSymbolTableRecord
100
AcDbBlockTableRecord
  2
*Model_Space
340
22
 70
     0
280
     1
281
     0
  0
BLOCK_RECORD
  5
1B
330
1
100
AcDbSymbolTableRecord
100
AcDbBlockTableRecord
  2
*Paper_Space
340
1E
 70
     0
280
     1
281
     0
  0
BLOCK_RECORD
  5
23
330
1
100
AcDbSymbolTableRecord
100
AcDbBlockTableRecord
  2
*Paper_Space0
340
26
 70
     0
280
     1
281
     0
  0
BLOCK_RECORD
  5
41
330
1
100
AcDbSymbolTableRecord
100
AcDbBlockTableRecord
  2
block 2
340
0
102
{BLKREFS
331
42
102
}
 70
     0
280
     1
281
     0
  0
ENDTAB
  0
ENDSEC
  0
SECTION
  2
BLOCKS
  0
BLOCK
  5
20
330
1F
100
AcDbEntity
  8
0
100
AcDbBlockBegin
  2
*Model_Space
 70
     0
 10
0.0
 20
0.0
 30
0.0
  3
*Model_Space
  1

  0
ENDBLK
  5
21
330
1F
100
AcDbEntity
  8
0
100
AcDbBlockEnd
  0
BLOCK
  5
1C
330
1B
100
AcDbEntity
 67
     1
  8
0
100
AcDbBlockBegin
  2
*Paper_Space
 70
     0
 10
0.0
 20
0.0
 30
0.0
  3
*Paper_Space
  1

  0
ENDBLK
  5
1D
330
1B
100
AcDbEntity
 67
     1
  8
0
100
AcDbBlockEnd
  0
BLOCK
  5
24
330
23
100
AcDbEntity
  8
0
100
AcDbBlockBegin
  2
*Paper_Space0
 70
     0
 10
0.0
 20
0.0
 30
0.0
  3
*Paper_Space0
  1

  0
ENDBLK
  5
25
330
23
100
AcDbEntity
  8
0
100
AcDbBlockEnd
  0
BLOCK
  5
43
330
41
100
AcDbEntity
  8
0
100
AcDbBlockBegin
  2
block 2
 70
     0
 10
0.0
 20
0.0
 30
0.0
  3
block 2
  1

  0
SPLINE
  5
45
330
41
100
AcDbEntity
  8
Layer 1
370
     0
100
AcDbSpline
210
0.0
220
0.0
230
1.0
 70
    11
 71
     3
 72
    17
 73
    13
 74
     0
 42
0.0000000001
 43
0.0000000001
 12
1.0
 22
0.0
 32
0.0
 13
1.0
 23
0.0
 33
0.0
 40
0.0
 40
0.0
 40
0.0
 40
0.0
 40
1.0
 40
1.0
 40
1.0
 40
2.0
 40
2.0
 40
2.0
 40
3.0
 40
3.0
 40
3.0
 40
4.0
 40
4.0
 40
4.0
 40
4.0
 10
3.328879429912983
 20
-28.56816970569349
 30
0.0
 10
3.586668925312147
 20
-27.84995293873347
 30
0.0
 10
4.190693886788773
 20
-27.39629501610196
 30
0.0
 10
4.67783777774639
 20
-27.55542003084014
 30
0.0
 10
5.164389089240609
 20
-27.71430452803166
 30
0.0
 10
5.350443354830177
 20
-28.42513496626806
 30
0.0
 10
5.092754946515949
 20
-29.14336567627429
 30
0.0
 10
4.834831249297141
 20
-29.86158592899596
 30
0.0
 10
4.231170549902496
 20
-30.3150172771268
 30
0.0
 10
3.743793112921013
 20
-30.15611535112763
 30
0.0
 10
3.256999540999105
 20
-29.99722388241318
 30
0.0
 10
3.071072505706095
 20
-29.28640041569987
 30
0.0
 10
3.328879429912983
 20
-28.56816970569349
 30
0.0
  0
SPLINE
  5
46
330
41
100
AcDbEntity
  8
Layer 1
370
     0
100
AcDbSpline
210
0.0
220
0.0
230
1.0
 70
    11
 71
     3
 72
    17
 73
    13
 74
     0
 42
0.0000000001
 43
0.0000000001
 12
1.0
 22
0.0
 32
0.0
 13
1.0
 23
0.0
 33
0.0
 40
0.0
 40
0.0
 40
0.0
 40
0.0
 40
1.0
 40
1.0
 40
1.0
 40
2.0
 40
2.0
 40
2.0
 40
3.0
 40
3.0
 40
3.0
 40
4.0
 40
4.0
 40
4.0
 40
4.0
 10
2.259343213655471
 20
-30.07840726890291
 30
0.0
 10
2.779237577252186
 20
-29.92409260510304
 30
0.0
 10
3.03054878481147
 20
-29.22487672434972
 30
0.0
 10
2.820603109561034
 20
-28.51683489535291
 30
0.0
 10
2.610200799547657
 20
-27.80878609483307
 30
0.0
 10
2.018229601509498
 20
-27.35991063704735
 30
0.0
 10
1.498213236258557
 20
-27.51421135780111
 30
0.0
 10
0.9781951281268498
 20
-27.66864453749374
 30
0.0
 10
0.7272377253648427
 20
-28.36763732950779
 30
0.0
 10
0.9371816577344891
 20
-29.07578373135112
 30
0.0
 10
1.147350421724076
 20
-29.78395104776374
 30
0.0
 10
1.739321619762197
 20
-30.232951992965
 30
0.0
 10
2.259343213655471
 20
-30.07840726890291
 30
0.0
  0
SPLINE
  5
47
330
41
100
AcDbEntity
  8
Layer 1
370
     0
100
AcDbSpline
210
0.0
220
0.0
230
1.0
 70
    11
 71
     3
 72
    17
 73
    13
 74
     0
 42
0.0000000001
 43
0.0000000001
 12
1.0
 22
0.0
 32
0.0
 13
1.0
 23
0.0
 33
0.0
 40
0.0
 40
0.0
 40
0.0
 40
0.0
 40
1.0
 40
1.0
 40
1.0
 40
2.0
 40
2.0
 40
2.0
 40
3.0
 40
3.0
 40
3.0
 40
4.0
 40
4.0
 40
4.0
 40
4.0
 10
0.9896493405787572
 20
-30.27604994876404
 30
0.0
 10
0.7887004158878123
 20
-29.59859219160333
 30
0.0
 10
0.2440205447928368
 20
-29.16231427605791
 30
0.0
 10
-0.2261668591068857
 20
-29.30227108803501
 30
0.0
 10
-0.6967045820423183
 20
-29.44174686491846
 30
0.0
 10
-0.9150892860042555
 20
-30.10421584741597
 30
0.0
 10
-0.7139225012164666
 20
-30.78201520920862
 30
0.0
 10
-0.5127382876209164
 20
-31.45970999815487
 30
0.0
 10
0.0317184947348955
 20
-31.89586939780762
 30
0.0
 10
0.5021307302545589
 20
-31.75603458748459
 30
0.0
 10
0.9726579959053272
 20
-31.61655881060124
 30
0.0
 10
1.190934641259244
 20
-30.95385628207987
 30
0.0
 10
0.9896493405787572
 20
-30.27604994876404
 30
0.0
  0
SPLINE
  5
48
330
41
100
AcDbEntity
  8
Layer 1
370
     0
100
AcDbSpline
210
0.0
220
0.0
230
1.0
 70
    11
 71
     3
 72
    29
 73
    25
 74
     0
 42
0.0000000001
 43
0.0000000001
 12
1.0
 22
0.0
 32
0.0
 13
1.0
 23
0.0
 33
0.0
 40
0.0
 40
0.0
 40
0.0
 40
0.0
 40
1.0
 40
1.0
 40
1.0
 40
2.0
 40
2.0
 40
2.0
 40
3.0
 40
3.0
 40
3.0
 40
4.0
 40
4.0
 40
4.0
 40
5.0
 40
5.0
 40
5.0
 40
6.0
 40
6.0
 40
6.0
 40
7.0
 40
7.0
 40
7.0
 40
8.0
 40
8.0
 40
8.0
 40
8.0
 10
3.067410713198266
 20
-30.29358332935847
 30
0.0
 10
3.067410713198266
 20
-30.29358332935847
 30
0.0
 10
2.966391600610665
 20
-30.29149884395181
 30
0.0
 10
2.966391600610665
 20
-30.29149884395181
 30
0.0
 10
2.966391600610665
 20
-30.29149884395181
 30
0.0
 10
0.9608813505100846
 20
-30.57794827081165
 30
0.0
 10
0.9229911224661514
 20
-32.88031817463985
 30
0.0
 10
0.8886302279911685
 20
-34.2318490144968
 30
0.0
 10
2.025298725932051
 20
-33.66041766638957
 30
0.0
 10
2.025298725932051
 20
-33.66041766638957
 30
0.0
 10
2.025298725932051
 20
-33.66041766638957
 30
0.0
 10
2.510467932971841
 20
-33.19268423862069
 30
0.0
 10
2.906347615038385
 20
-33.20085486369291
 30
0.0
 10
2.906347615038385
 20
-33.20085486369291
 30
0.0
 10
3.006920550147634
 20
-33.21349772083332
 30
0.0
 10
3.006920550147634
 20
-33.21349772083332
 30
0.0
 10
3.402917005226072
 20
-33.22167183166708
 30
0.0
 10
3.868189485340837
 20
-33.71241825718612
 30
0.0
 10
3.868189485340837
 20
-33.71241825718612
 30
0.0
 10
3.868189485340837
 20
-33.71241825718612
 30
0.0
 10
4.980211906245434
 20
-34.31759177709333
 30
0.0
 10
5.002018830499638
 20
-32.96555898757317
 30
0.0
 10
5.059380522559498
 20
-30.66382000658556
 30
0.0
 10
3.067410713198266
 20
-30.29358332935847
 30
0.0
 10
3.067410713198266
 20
-30.29358332935847
 30
0.0
  0
SPLINE
  5
49
330
41
100
AcDbEntity
  8
Layer 1
370
     0
100
AcDbSpline
210
0.0
220
0.0
230
1.0
 70
    11
 71
     3
 72
    17
 73
    13
 74
     0
 42
0.0000000001
 43
0.0000000001
 12
1.0
 22
0.0
 32
0.0
 13
1.0
 23
0.0
 33
0.0
 40
0.0
 40
0.0
 40
0.0
 40
0.0
 40
1.0
 40
1.0
 40
1.0
 40
2.0
 40
2.0
 40
2.0
 40
3.0
 40
3.0
 40
3.0
 40
4.0
 40
4.0
 40
4.0
 40
4.0
 10
6.283592178937321
 20
-29.38802430791626
 30
0.0
 10
5.819748861057835
 20
-29.23759278248263
 30
0.0
 10
5.243888852901843
 20
-29.66894183119694
 30
0.0
 10
4.997740058197501
 20
-30.35172583200541
 30
0.0
 10
4.751233972934338
 20
-31.03450634705251
 30
0.0
 10
4.927921997240244
 20
-31.70979944629097
 30
0.0
 10
5.39152654045352
 20
-31.86011245583194
 30
0.0
 10
5.855488374225691
 20
-32.0106694686814
 30
0.0
 10
6.431106121953967
 20
-31.57931344844403
 30
0.0
 10
6.677495434205234
 20
-30.89653641915861
 30
0.0
 10
6.923771459206161
 20
-30.21398945013541
 30
0.0
 10
6.747543555424827
 20
-29.53846629063458
 30
0.0
 10
6.283592178937321
 20
-29.38802430791626
 30
0.0
  0
HATCH
  5
4A
330
41
100
AcDbEntity
  8
Layer 1
 62
   250
420
  2301728
100
AcDbHatch
 10
0.0
 20
0.0
 30
0.0
210
0.0
220
0.0
230
1.0
  2
SOLID
 70
     1
 71
     0
 91
        5
 92
        1
 93
        1
 72
     4
 94
        3
 73
     0
 74
     1
 95
       17
 96
       13
 40
0.0
 40
0.0
 40
0.0
 40
0.0
 40
1.0
 40
1.0
 40
1.0
 40
2.0
 40
2.0
 40
2.0
 40
3.0
 40
3.0
 40
3.0
 40
4.0
 40
4.0
 40
4.0
 40
4.0
 10
3.328879429912983
 20
-28.56816970569349
 10
3.586668925312147
 20
-27.84995293873347
 10
4.190693886788773
 20
-27.39629501610196
 10
4.67783777774639
 20
-27.55542003084014
 10
5.164389089240609
 20
-27.71430452803166
 10
5.350443354830177
 20
-28.42513496626806
 10
5.092754946515949
 20
-29.14336567627429
 10
4.834831249297141
 20
-29.86158592899596
 10
4.231170549902496
 20
-30.3150172771268
 10
3.743793112921013
 20
-30.15611535112763
 10
3.256999540999105
 20
-29.99722388241318
 10
3.071072505706095
 20
-29.28640041569987
 10
3.328879429912983
 20
-28.56816970569349
 97
        0
 97
        0
 92
        1
 93
        1
 72
     4
 94
        3
 73
     0
 74
     1
 95
       17
 96
       13
 40
0.0
 40
0.0
 40
0.0
 40
0.0
 40
1.0
 40
1.0
 40
1.0
 40
2.0
 40
2.0
 40
2.0
 40
3.0
 40
3.0
 40
3.0
 40
4.0
 40
4.0
 40
4.0
 40
4.0
 10
2.259343213655471
 20
-30.07840726890291
 10
2.779237577252186
 20
-29.92409260510304
 10
3.03054878481147
 20
-29.22487672434972
 10
2.820603109561034
 20
-28.51683489535291
 10
2.610200799547657
 20
-27.80878609483307
 10
2.018229601509498
 20
-27.35991063704735
 10
1.498213236258557
 20
-27.51421135780111
 10
0.9781951281268498
 20
-27.66864453749374
 10
0.7272377253648427
 20
-28.36763732950779
 10
0.9371816577344891
 20
-29.07578373135112
 10
1.147350421724076
 20
-29.78395104776374
 10
1.739321619762197
 20
-30.232951992965
 10
2.259343213655471
 20
-30.07840726890291
 97
        0
 97
        0
 92
        1
 93
        1
 72
     4
 94
        3
 73
     0
 74
     1
 95
       17
 96
       13
 40
0.0
 40
0.0
 40
0.0
 40
0.0
 40
1.0
 40
1.0
 40
1.0
 40
2.0
 40
2.0
 40
2.0
 40
3.0
 40
3.0
 40
3.0
 40
4.0
 40
4.0
 40
4.0
 40
4.0
 10
0.9896493405787572
 20
-30.27604994876404
 10
0.7887004158878123
 20
-29.59859219160333
 10
0.2440205447928368
 20
-29.16231427605791
 10
-0.2261668591068857
 20
-29.30227108803501
 10
-0.6967045820423183
 20
-29.44174686491846
 10
-0.9150892860042555
 20
-30.10421584741597
 10
-0.7139225012164666
 20
-30.78201520920862
 10
-0.5127382876209164
 20
-31.45970999815487
 10
0.0317184947348955
 20
-31.89586939780762
 10
0.5021307302545589
 20
-31.75603458748459
 10
0.9726579959053272
 20
-31.61655881060124
 10
1.190934641259244
 20
-30.95385628207987
 10
0.9896493405787572
 20
-30.27604994876404
 97
        0
 97
        0
 92
        1
 93
        1
 72
     4
 94
        3
 73
     0
 74
     1
 95
       29
 96
       25
 40
0.0
 40
0.0
 40
0.0
 40
0.0
 40
1.0
 40
1.0
 40
1.0
 40
2.0
 40
2.0
 40
2.0
 40
3.0
 40
3.0
 40
3.0
 40
4.0
 40
4.0
 40
4.0
 40
5.0
 40
5.0
 40
5.0
 40
6.0
 40
6.0
 40
6.0
 40
7.0
 40
7.0
 40
7.0
 40
8.0
 40
8.0
 40
8.0
 40
8.0
 10
3.067410713198266
 20
-30.29358332935847
 10
3.067410713198266
 20
-30.29358332935847
 10
2.966391600610665
 20
-30.29149884395181
 10
2.966391600610665
 20
-30.29149884395181
 10
2.966391600610665
 20
-30.29149884395181
 10
0.9608813505100846
 20
-30.57794827081165
 10
0.9229911224661514
 20
-32.88031817463985
 10
0.8886302279911685
 20
-34.2318490144968
 10
2.025298725932051
 20
-33.66041766638957
 10
2.025298725932051
 20
-33.66041766638957
 10
2.025298725932051
 20
-33.66041766638957
 10
2.510467932971841
 20
-33.19268423862069
 10
2.906347615038385
 20
-33.20085486369291
 10
2.906347615038385
 20
-33.20085486369291
 10
3.006920550147634
 20
-33.21349772083332
 10
3.006920550147634
 20
-33.21349772083332
 10
3.402917005226072
 20
-33.22167183166708
 10
3.868189485340837
 20
-33.71241825718612
 10
3.868189485340837
 20
-33.71241825718612
 10
3.868189485340837
 20
-33.71241825718612
 10
4.980211906245434
 20
-34.31759177709333
 10
5.002018830499638
 20
-32.96555898757317
 10
5.059380522559498
 20
-30.66382000658556
 10
3.067410713198266
 20
-30.29358332935847
 10
3.067410713198266
 20
-30.29358332935847
 97
        0
 97
        0
 92
        1
 93
        1
 72
     4
 94
        3
 73
     0
 74
     1
 95
       17
 96
       13
 40
0.0
 40
0.0
 40
0.0
 40
0.0
 40
1.0
 40
1.0
 40
1.0
 40
2.0
 40
2.0
 40
2.0
 40
3.0
 40
3.0
 40
3.0
 40
4.0
 40
4.0
 40
4.0
 40
4.0
 10
6.283592178937321
 20
-29.38802430791626
 10
5.819748861057835
 20
-29.23759278248263
 10
5.243888852901843
 20
-29.66894183119694
 10
4.997740058197501
 20
-30.35172583200541
 10
4.751233972934338
 20
-31.03450634705251
 10
4.927921997240244
 20
-31.70979944629097
 10
5.39152654045352
 20
-31.86011245583194
 10
5.855488374225691
 20
-32.0106694686814
 10
6.431106121953967
 20
-31.57931344844403
 10
6.677495434205234
 20
-30.89653641915861
 10
6.923771459206161
 20
-30.21398945013541
 10
6.747543555424827
 20
-29.53846629063458
 10
6.283592178937321
 20
-29.38802430791626
 97
        0
 97
        0
 75
     2
 76
     1
 98
        0
  0
SPLINE
  5
4B
330
41
100
AcDbEntity
  8
Layer 1
370
     0
100
AcDbSpline
210
0.0
220
0.0
230
1.0
 70
    11
 71
     3
 72
   119
 73
   115
 74
     0
 42
0.0000000001
 43
0.0000000001
 12
1.0
 22
0.0
 32
0.0
 13
1.0
 23
0.0
 33
0.0
 40
0.0
 40
0.0
 40
0.0
 40
0.0
 40
1.0
 40
1.0
 40
1.0
 40
2.0
 40
2.0
 40
2.0
 40
3.0
 40
3.0
 40
3.0
 40
4.0
 40
4.0
 40
4.0
 40
5.0
 40
5.0
 40
5.0
 40
6.0
 40
6.0
 40
6.0
 40
7.0
 40
7.0
 40
7.0
 40
8.0
 40
8.0
 40
8.0
 40
9.0
 40
9.0
 40
9.0
 40
10.0
 40
10.0
 40
10.0
 40
11.0
 40
11.0
 40
11.0
 40
12.0
 40
12.0
 40
12.0
 40
13.0
 40
13.0
 40
13.0
 40
14.0
 40
14.0
 40
14.0
 40
15.0
 40
15.0
 40
15.0
 40
16.0
 40
16.0
 40
16.0
 40
17.0
 40
17.0
 40
17.0
 40
18.0
 40
18.0
 40
18.0
 40
19.0
 40
19.0
 40
19.0
 40
20.0
 40
20.0
 40
20.0
 40
21.0
 40
21.0
 40
21.0
 40
22.0
 40
22.0
 40
22.0
 40
23.0
 40
23.0
 40
23.0
 40
24.0
 40
24.0
 40
24.0
 40
25.0
 40
25.0
 40
25.0
 40
26.0
 40
26.0
 40
26.0
 40
27.0
 40
27.0
 40
27.0
 40
28.0
 40
28.0
 40
28.0
 40
29.0
 40
29.0
 40
29.0
 40
30.0
 40
30.0
 40
30.0
 40
31.0
 40
31.0
 40
31.0
 40
32.0
 40
32.0
 40
32.0
 40
33.0
 40
33.0
 40
33.0
 40
34.0
 40
34.0
 40
34.0
 40
35.0
 40
35.0
 40
35.0
 40
36.0
 40
36.0
 40
36.0
 40
37.0
 40
37.0
 40
37.0
 40
38.0
 40
38.0
 40
38.0
 40
38.0
 10
6.263004928026955
 20
-0.9894215737740144
 30
0.0
 10
6.263004928026955
 20
-1.074219927694356
 30
0.0
 10
6.226204378347423
 20
-1.124407024094113
 30
0.0
 10
6.152587819098193
 20
-1.139982862972816
 30
0.0
 10
6.078985001973402
 20
-1.15566863884515
 30
0.0
 10
5.993033168504376
 20
-1.167901706016525
 30
0.0
 10
5.894965075919698
 20
-1.176791142597254
 30
0.0
 10
5.377400606106802
 20
-2.831948406593837
 30
0.0
 10
4.917963603823005
 20
-4.292939762475675
 30
0.0
 10
4.516465973743682
 20
-5.559876006119199
 30
0.0
 10
4.427171368567037
 20
-5.840927353264596
 30
0.0
 10
4.326797175768004
 20
-5.981452597395749
 30
0.0
 10
4.215342536463393
 20
-5.981452597395749
 30
0.0
 10
4.121653887079471
 20
-5.981452597395749
 30
0.0
 10
4.032359281902826
 20
-5.867699587821575
 30
0.0
 10
3.947663135031235
 20
-5.640178108783377
 30
0.0
 10
3.563945236996561
 20
-4.524957492769886
 30
0.0
 10
3.285185389058799
 20
-3.739727363649056
 30
0.0
 10
3.111194637010713
 20
-3.284684405572698
 30
0.0
 10
3.035293449616069
 20
-3.418524106288841
 30
0.0
 10
2.727469009031185
 20
-4.2059512575137
 30
0.0
 10
2.187744505090172
 20
-5.646871382143255
 30
0.0
 10
2.102946151169843
 20
-5.869998816973848
 30
0.0
 10
2.013753753041897
 20
-5.981452597395749
 30
0.0
 10
1.920071974719968
 20
-5.981452597395749
 30
0.0
 10
1.839769872055626
 20
-5.981452597395749
 30
0.0
 10
1.77724750143625
 20
-5.941309276008572
 30
0.0
 10
1.732702405896652
 20
-5.86100631446152
 30
0.0
 10
1.688055103308405
 20
-5.780704211797519
 30
0.0
 10
1.49849538344352
 20
-5.272131385614064
 30
0.0
 10
1.163906438246335
 20
-4.335287835911648
 30
0.0
 10
0.6018037439558207
 20
-2.689123933310106
 30
0.0
 10
0.2270637474264655
 20
-1.631827229611417
 30
0.0
 10
0.0396933197205271
 20
-1.163405454760222
 30
0.0
 10
0.0396933197205271
 20
-1.163405454760222
 30
0.0
 10
-0.0673741464386239
 20
-1.136640091265324
 30
0.0
 10
-0.0673741464386239
 20
-1.136640091265324
 30
0.0
 10
-0.1655513171340191
 20
-1.114370979026439
 30
0.0
 10
-0.2145926639297057
 20
-1.054140966497281
 30
0.0
 10
-0.2145926639297057
 20
-0.9559629369192635
 30
0.0
 10
-0.2145926639297057
 20
-0.857887973272505
 30
0.0
 10
-0.1499754782549998
 20
-0.8087444194279416
 30
0.0
 10
-0.0205298217465876
 20
-0.8087444194279416
 30
0.0
 10
-0.0205298217465876
 20
-0.8087444194279416
 30
0.0
 10
1.076911062222052
 20
-0.8221309661480138
 30
0.0
 10
1.076911062222052
 20
-0.8221309661480138
 30
0.0
 10
1.259784379789279
 20
-0.8221309661480138
 30
0.0
 10
1.351276007069575
 20
-0.8645812466323832
 30
0.0
 10
1.351276007069575
 20
-0.9492705224420837
 30
0.0
 10
1.351276007069575
 20
-1.020682329642518
 30
0.0
 10
1.331197045872411
 20
-1.069723676438356
 30
0.0
 10
1.291045994540329
 20
-1.096489039933254
 30
0.0
 10
1.250901814270302
 20
-1.123254403428127
 30
0.0
 10
1.195064987065949
 20
-1.150026637985244
 30
0.0
 10
1.12375538691424
 20
-1.176791142597254
 30
0.0
 10
1.150519891526351
 20
-1.377540387078499
 30
0.0
 10
1.534150183519361
 20
-2.443829593289491
 30
0.0
 10
2.274733010052084
 20
-4.375439746126441
 30
0.0
 10
2.555784357197354
 20
-3.688488994749365
 30
0.0
 10
2.776612562875496
 20
-3.139771988296186
 30
0.0
 10
2.937217627086561
 20
-2.729274984642188
 30
0.0
 10
2.776612562875496
 20
-2.251962914327401
 30
0.0
 10
2.600329452737027
 20
-1.72551587899549
 30
0.0
 10
2.408565839706107
 20
-1.150026637985244
 30
0.0
 10
2.332656922366747
 20
-1.136640091265324
 30
0.0
 10
2.264696964984573
 20
-1.121064252386468
 30
0.0
 10
2.204473823517636
 20
-1.103182313293271
 30
0.0
 10
2.144243810988301
 20
-1.085409452310399
 30
0.0
 10
2.11413567578586
 20
-1.036265898466291
 30
0.0
 10
2.11413567578586
 20
-0.9559629369192635
 30
0.0
 10
2.11413567578586
 20
-0.8622820174799446
 30
0.0
 10
2.185438404875665
 20
-0.8154376927879714
 30
0.0
 10
2.32827060810415
 20
-0.8154376927879714
 30
0.0
 10
2.729768238183472
 20
-0.8154376927879714
 30
0.0
 10
3.171424649539858
 20
-0.8199339440441361
 30
0.0
 10
3.653225241166208
 20
-0.828823380625181
 30
0.0
 10
3.706769710280089
 20
-0.828823380625181
 30
0.0
 10
3.751307934757581
 20
-0.846698448656323
 30
0.0
 10
3.787072671827142
 20
-0.8823541076149518
 30
0.0
 10
3.82272060084084
 20
-0.9181111147396197
 30
0.0
 10
3.84060253993405
 20
-0.9559629369192635
 30
0.0
 10
3.84060253993405
 20
-0.9961148471340568
 30
0.0
 10
3.84060253993405
 20
-1.054140966497281
 30
0.0
 10
3.819376970250662
 20
-1.096489039933254
 30
0.0
 10
3.777028896814727
 20
-1.123254403428127
 30
0.0
 10
3.734578616330181
 20
-1.150026637985244
 30
0.0
 10
3.655429134331825
 20
-1.172397957272526
 30
0.0
 10
3.539464501646964
 20
-1.190177689317327
 30
0.0
 10
3.682187626764819
 20
-1.667584236736085
 30
0.0
 10
3.85283560710559
 20
-2.176157062919376
 30
0.0
 10
4.051394700544708
 20
-2.715888437922445
 30
0.0
 10
4.249836985928747
 20
-3.255722878856937
 30
0.0
 10
4.41828107310342
 20
-3.715261229306457
 30
0.0
 10
4.556610154013697
 20
-4.094388398981184
 30
0.0
 10
4.9715089318199
 20
-2.889872318908488
 30
0.0
 10
5.277026413307592
 20
-1.915184676971206
 30
0.0
 10
5.473380754698383
 20
-1.1700987281201
 30
0.0
 10
5.343941969252051
 20
-1.152325867137683
 30
0.0
 10
5.25474957112394
 20
-1.131100297453978
 30
0.0
 10
5.20571595427302
 20
-1.106525085000739
 30
0.0
 10
5.156564670483704
 20
-1.082058950657989
 30
0.0
 10
5.132099395023791
 20
-1.040762149722304
 30
0.0
 10
5.132099395023791
 20
-0.9827283004141362
 30
0.0
 10
5.132099395023791
 20
-0.8801570855112383
 30
0.0
 10
5.179994133333341
 20
-0.8244301953004525
 30
0.0
 10
5.275975140807658
 20
-0.8154376927879714
 30
0.0
 10
5.371853082350677
 20
-0.8065473973243923
 30
0.0
 10
5.486767301418316
 20
-0.802051146068076
 30
0.0
 10
5.620600131072428
 20
-0.802051146068076
 30
0.0
 10
5.87489384466754
 20
-0.802051146068076
 30
0.0
 10
6.045527224001362
 20
-0.8098978989768031
 30
0.0
 10
6.132515728963173
 20
-0.8254737378554813
 30
0.0
 10
6.219517976049448
 20
-0.8411586548449652
 30
0.0
 10
6.263004928026955
 20
-0.8957397954521613
 30
0.0
 10
6.263004928026955
 20
-0.9894215737740144
 30
0.0
  0
HATCH
  5
4C
330
41
100
AcDbEntity
  8
Layer 1
 62
   250
420
  2301728
100
AcDbHatch
 10
0.0
 20
0.0
 30
0.0
210
0.0
220
0.0
230
1.0
  2
SOLID
 70
     1
 71
     0
 91
        1
 92
        1
 93
        1
 72
     4
 94
        3
 73
     0
 74
     1
 95
      119
 96
      115
 40
0.0
 40
0.0
 40
0.0
 40
0.0
 40
1.0
 40
1.0
 40
1.0
 40
2.0
 40
2.0
 40
2.0
 40
3.0
 40
3.0
 40
3.0
 40
4.0
 40
4.0
 40
4.0
 40
5.0
 40
5.0
 40
5.0
 40
6.0
 40
6.0
 40
6.0
 40
7.0
 40
7.0
 40
7.0
 40
8.0
 40
8.0
 40
8.0
 40
9.0
 40
9.0
 40
9.0
 40
10.0
 40
10.0
 40
10.0
 40
11.0
 40
11.0
 40
11.0
 40
12.0
 40
12.0
 40
12.0
 40
13.0
 40
13.0
 40
13.0
 40
14.0
 40
14.0
 40
14.0
 40
15.0
 40
15.0
 40
15.0
 40
16.0
 40
16.0
 40
16.0
 40
17.0
 40
17.0
 40
17.0
 40
18.0
 40
18.0
 40
18.0
 40
19.0
 40
19.0
 40
19.0
 40
20.0
 40
20.0
 40
20.0
 40
21.0
 40
21.0
 40
21.0
 40
22.0
 40
22.0
 40
22.0
 40
23.0
 40
23.0
 40
23.0
 40
24.0
 40
24.0
 40
24.0
 40
25.0
 40
25.0
 40
25.0
 40
26.0
 40
26.0
 40
26.0
 40
27.0
 40
27.0
 40
27.0
 40
28.0
 40
28.0
 40
28.0
 40
29.0
 40
29.0
 40
29.0
 40
30.0
 40
30.0
 40
30.0
 40
31.0
 40
31.0
 40
31.0
 40
32.0
 40
32.0
 40
32.0
 40
33.0
 40
33.0
 40
33.0
 40
34.0
 40
34.0
 40
34.0
 40
35.0
 40
35.0
 40
35.0
 40
36.0
 40
36.0
 40
36.0
 40
37.0
 40
37.0
 40
37.0
 40
38.0
 40
38.0
 40
38.0
 40
38.0
 10
6.263004928026955
 20
-0.9894215737740144
 10
6.263004928026955
 20
-1.074219927694356
 10
6.226204378347423
 20
-1.124407024094113
 10
6.152587819098193
 20
-1.139982862972816
 10
6.078985001973402
 20
-1.15566863884515
 10
5.993033168504376
 20
-1.167901706016525
 10
5.894965075919698
 20
-1.176791142597254
 10
5.377400606106802
 20
-2.831948406593837
 10
4.917963603823005
 20
-4.292939762475675
 10
4.516465973743682
 20
-5.559876006119199
 10
4.427171368567037
 20
-5.840927353264596
 10
4.326797175768004
 20
-5.981452597395749
 10
4.215342536463393
 20
-5.981452597395749
 10
4.121653887079471
 20
-5.981452597395749
 10
4.032359281902826
 20
-5.867699587821575
 10
3.947663135031235
 20
-5.640178108783377
 10
3.563945236996561
 20
-4.524957492769886
 10
3.285185389058799
 20
-3.739727363649056
 10
3.111194637010713
 20
-3.284684405572698
 10
3.035293449616069
 20
-3.418524106288841
 10
2.727469009031185
 20
-4.2059512575137
 10
2.187744505090172
 20
-5.646871382143255
 10
2.102946151169843
 20
-5.869998816973848
 10
2.013753753041897
 20
-5.981452597395749
 10
1.920071974719968
 20
-5.981452597395749
 10
1.839769872055626
 20
-5.981452597395749
 10
1.77724750143625
 20
-5.941309276008572
 10
1.732702405896652
 20
-5.86100631446152
 10
1.688055103308405
 20
-5.780704211797519
 10
1.49849538344352
 20
-5.272131385614064
 10
1.163906438246335
 20
-4.335287835911648
 10
0.6018037439558207
 20
-2.689123933310106
 10
0.2270637474264655
 20
-1.631827229611417
 10
0.0396933197205271
 20
-1.163405454760222
 10
0.0396933197205271
 20
-1.163405454760222
 10
-0.0673741464386239
 20
-1.136640091265324
 10
-0.0673741464386239
 20
-1.136640091265324
 10
-0.1655513171340191
 20
-1.114370979026439
 10
-0.2145926639297057
 20
-1.054140966497281
 10
-0.2145926639297057
 20
-0.9559629369192635
 10
-0.2145926639297057
 20
-0.857887973272505
 10
-0.1499754782549998
 20
-0.8087444194279416
 10
-0.0205298217465876
 20
-0.8087444194279416
 10
-0.0205298217465876
 20
-0.8087444194279416
 10
1.076911062222052
 20
-0.8221309661480138
 10
1.076911062222052
 20
-0.8221309661480138
 10
1.259784379789279
 20
-0.8221309661480138
 10
1.351276007069575
 20
-0.8645812466323832
 10
1.351276007069575
 20
-0.9492705224420837
 10
1.351276007069575
 20
-1.020682329642518
 10
1.331197045872411
 20
-1.069723676438356
 10
1.291045994540329
 20
-1.096489039933254
 10
1.250901814270302
 20
-1.123254403428127
 10
1.195064987065949
 20
-1.150026637985244
 10
1.12375538691424
 20
-1.176791142597254
 10
1.150519891526351
 20
-1.377540387078499
 10
1.534150183519361
 20
-2.443829593289491
 10
2.274733010052084
 20
-4.375439746126441
 10
2.555784357197354
 20
-3.688488994749365
 10
2.776612562875496
 20
-3.139771988296186
 10
2.937217627086561
 20
-2.729274984642188
 10
2.776612562875496
 20
-2.251962914327401
 10
2.600329452737027
 20
-1.72551587899549
 10
2.408565839706107
 20
-1.150026637985244
 10
2.332656922366747
 20
-1.136640091265324
 10
2.264696964984573
 20
-1.121064252386468
 10
2.204473823517636
 20
-1.103182313293271
 10
2.144243810988301
 20
-1.085409452310399
 10
2.11413567578586
 20
-1.036265898466291
 10
2.11413567578586
 20
-0.9559629369192635
 10
2.11413567578586
 20
-0.8622820174799446
 10
2.185438404875665
 20
-0.8154376927879714
 10
2.32827060810415
 20
-0.8154376927879714
 10
2.729768238183472
 20
-0.8154376927879714
 10
3.171424649539858
 20
-0.8199339440441361
 10
3.653225241166208
 20
-0.828823380625181
 10
3.706769710280089
 20
-0.828823380625181
 10
3.751307934757581
 20
-0.846698448656323
 10
3.787072671827142
 20
-0.8823541076149518
 10
3.82272060084084
 20
-0.9181111147396197
 10
3.84060253993405
 20
-0.9559629369192635
 10
3.84060253993405
 20
-0.9961148471340568
 10
3.84060253993405
 20
-1.054140966497281
 10
3.819376970250662
 20
-1.096489039933254
 10
3.777028896814727
 20
-1.123254403428127
 10
3.734578616330181
 20
-1.150026637985244
 10
3.655429134331825
 20
-1.172397957272526
 10
3.539464501646964
 20
-1.190177689317327
 10
3.682187626764819
 20
-1.667584236736085
 10
3.85283560710559
 20
-2.176157062919376
 10
4.051394700544708
 20
-2.715888437922445
 10
4.249836985928747
 20
-3.255722878856937
 10
4.41828107310342
 20
-3.715261229306457
 10
4.556610154013697
 20
-4.094388398981184
 10
4.9715089318199
 20
-2.889872318908488
 10
5.277026413307592
 20
-1.915184676971206
 10
5.473380754698383
 20
-1.1700987281201
 10
5.343941969252051
 20
-1.152325867137683
 10
5.25474957112394
 20
-1.131100297453978
 10
5.20571595427302
 20
-1.106525085000739
 10
5.156564670483704
 20
-1.082058950657989
 10
5.132099395023791
 20
-1.040762149722304
 10
5.132099395023791
 20
-0.9827283004141362
 10
5.132099395023791
 20
-0.8801570855112383
 10
5.179994133333341
 20
-0.8244301953004525
 10
5.275975140807658
 20
-0.8154376927879714
 10
5.371853082350677
 20
-0.8065473973243923
 10
5.486767301418316
 20
-0.802051146068076
 10
5.620600131072428
 20
-0.802051146068076
 10
5.87489384466754
 20
-0.802051146068076
 10
6.045527224001362
 20
-0.8098978989768031
 10
6.132515728963173
 20
-0.8254737378554813
 10
6.219517976049448
 20
-0.8411586548449652
 10
6.263004928026955
 20
-0.8957397954521613
 10
6.263004928026955
 20
-0.9894215737740144
 97
        0
 97
        0
 75
     2
 76
     1
 98
        0
  0
SPLINE
  5
4D
330
41
100
AcDbEntity
  8
Layer 1
370
     0
100
AcDbSpline
210
0.0
220
0.0
230
1.0
 70
    11
 71
     3
 72
   122
 73
   118
 74
     0
 42
0.0000000001
 43
0.0000000001
 12
1.0
 22
0.0
 32
0.0
 13
1.0
 23
0.0
 33
0.0
 40
0.0
 40
0.0
 40
0.0
 40
0.0
 40
1.0
 40
1.0
 40
1.0
 40
2.0
 40
2.0
 40
2.0
 40
3.0
 40
3.0
 40
3.0
 40
4.0
 40
4.0
 40
4.0
 40
5.0
 40
5.0
 40
5.0
 40
6.0
 40
6.0
 40
6.0
 40
7.0
 40
7.0
 40
7.0
 40
8.0
 40
8.0
 40
8.0
 40
9.0
 40
9.0
 40
9.0
 40
10.0
 40
10.0
 40
10.0
 40
11.0
 40
11.0
 40
11.0
 40
12.0
 40
12.0
 40
12.0
 40
13.0
 40
13.0
 40
13.0
 40
14.0
 40
14.0
 40
14.0
 40
15.0
 40
15.0
 40
15.0
 40
16.0
 40
16.0
 40
16.0
 40
17.0
 40
17.0
 40
17.0
 40
18.0
 40
18.0
 40
18.0
 40
19.0
 40
19.0
 40
19.0
 40
20.0
 40
20.0
 40
20.0
 40
21.0
 40
21.0
 40
21.0
 40
22.0
 40
22.0
 40
22.0
 40
23.0
 40
23.0
 40
23.0
 40
24.0
 40
24.0
 40
24.0
 40
25.0
 40
25.0
 40
25.0
 40
26.0
 40
26.0
 40
26.0
 40
27.0
 40
27.0
 40
27.0
 40
28.0
 40
28.0
 40
28.0
 40
29.0
 40
29.0
 40
29.0
 40
30.0
 40
30.0
 40
30.0
 40
31.0
 40
31.0
 40
31.0
 40
32.0
 40
32.0
 40
32.0
 40
33.0
 40
33.0
 40
33.0
 40
34.0
 40
34.0
 40
34.0
 40
35.0
 40
35.0
 40
35.0
 40
36.0
 40
36.0
 40
36.0
 40
37.0
 40
37.0
 40
37.0
 40
38.0
 40
38.0
 40
38.0
 40
39.0
 40
39.0
 40
39.0
 40
39.0
 10
3.897505240645589
 20
-8.061442477217282
 30
0.0
 10
3.897505240645589
 20
-7.958871262314359
 30
0.0
 10
3.919781223946377
 20
-7.858489339570269
 30
0.0
 10
3.964420796589694
 20
-7.760312168874937
 30
0.0
 10
3.268485272645218
 20
-7.760312168874937
 30
0.0
 10
2.808946922195711
 20
-7.767005442234979
 30
0.0
 10
2.585929424358596
 20
-7.780384259009956
 30
0.0
 10
2.590315738621181
 20
-9.065201582864107
 30
0.0
 10
2.599308241133498
 20
-9.852629592971653
 30
0.0
 10
2.612693928970707
 20
-10.1425703766978
 30
0.0
 10
2.612693928970707
 20
-10.1425703766978
 30
0.0
 10
3.36886032432714
 20
-10.12918468886059
 30
0.0
 10
3.36886032432714
 20
-10.12918468886059
 30
0.0
 10
3.386640056371915
 20
-10.0266134739577
 30
0.0
 10
3.407865626055304
 20
-9.939624968995707
 30
0.0
 10
3.43243310856408
 20
-9.868205431850381
 30
0.0
 10
3.456899242906375
 20
-9.796901843877851
 30
0.0
 10
3.504897047147021
 20
-9.761137106808443
 30
0.0
 10
3.576309713230279
 20
-9.761137106808443
 30
0.0
 10
3.643226128057424
 20
-9.761137106808443
 30
0.0
 10
3.690055851742424
 20
-9.799091994919497
 30
0.0
 10
3.716828086299504
 20
-9.874897846327523
 30
0.0
 10
3.734607818344304
 20
-9.924041400172086
 30
0.0
 10
3.745789613015404
 20
-10.18052526480889
 30
0.0
 10
3.750285864271568
 20
-10.64444992952122
 30
0.0
 10
3.750285864271568
 20
-10.80066094952469
 30
0.0
 10
3.705646291628075
 20
-10.87865781085724
 30
0.0
 10
3.616453034617608
 20
-10.87865781085724
 30
0.0
 10
3.496006751683429
 20
-10.87865781085724
 30
0.0
 10
3.426784236641778
 20
-10.82512708386733
 30
0.0
 10
3.409003645714443
 20
-10.71805961770807
 30
0.0
 10
3.409003645714443
 20
-10.71805961770807
 30
0.0
 10
3.375545867742403
 20
-10.51061795874999
 30
0.0
 10
3.375545867742403
 20
-10.51061795874999
 30
0.0
 10
3.250603333551857
 20
-10.50172766328622
 30
0.0
 10
3.130157050617804
 20
-10.49723141202993
 30
0.0
 10
3.01419928899491
 20
-10.49723141202993
 30
0.0
 10
2.871367085766602
 20
-10.49723141202993
 30
0.0
 10
2.737534256112427
 20
-10.50392468538995
 30
0.0
 10
2.612693928970707
 20
-10.51730350216492
 30
0.0
 10
2.612693928970707
 20
-10.51730350216492
 30
0.0
 10
2.585929424358596
 20
-12.21031258834113
 30
0.0
 10
2.585929424358596
 20
-12.21031258834113
 30
0.0
 10
2.585929424358596
 20
-12.21031258834113
 30
0.0
 10
4.131712263098734
 20
-12.21031258834113
 30
0.0
 10
4.131712263098734
 20
-12.21031258834113
 30
0.0
 10
4.238786600319852
 20
-12.21031258834113
 30
0.0
 10
4.314593310610563
 20
-12.16012549194167
 30
0.0
 10
4.359232883254056
 20
-12.05975044025966
 30
0.0
 10
4.403771107731674
 20
-11.95937624746029
 30
0.0
 10
4.4316968218373
 20
-11.84341848583782
 30
0.0
 10
4.442878616508576
 20
-11.7117826782874
 30
0.0
 10
4.453972805138114
 20
-11.58024993666861
 30
0.0
 10
4.510846303835655
 20
-11.51437706439666
 30
0.0
 10
4.613526596849194
 20
-11.51437706439666
 30
0.0
 10
4.711594689433721
 20
-11.51437706439666
 30
0.0
 10
4.760745973223189
 20
-11.55233109362489
 30
0.0
 10
4.760745973223189
 20
-11.62813780391559
 30
0.0
 10
4.760745973223189
 20
-12.02963543399507
 30
0.0
 10
4.735024152283358
 20
-12.29291392015775
 30
0.0
 10
4.683785783383832
 20
-12.41776197724432
 30
0.0
 10
4.632445207435517
 20
-12.54270451143452
 30
0.0
 10
4.524231991672701
 20
-12.60512467500534
 30
0.0
 10
4.359232883254056
 20
-12.60512467500534
 30
0.0
 10
4.359232883254056
 20
-12.60512467500534
 30
0.0
 10
2.338335855185467
 20
-12.60512467500534
 30
0.0
 10
2.338335855185467
 20
-12.60512467500534
 30
0.0
 10
2.266916318040115
 20
-12.60512467500534
 30
0.0
 10
2.097428688310237
 20
-12.60282544585291
 30
0.0
 10
1.829763029002088
 20
-12.59843913159039
 30
0.0
 10
1.562090498631973
 20
-12.59394288033406
 30
0.0
 10
1.382456886841093
 20
-12.5872496069742
 30
0.0
 10
1.291075196554301
 20
-12.57835931151044
 30
0.0
 10
1.199590440335997
 20
-12.56947674599163
 30
0.0
 10
1.153891865247791
 20
-12.52482944340323
 30
0.0
 10
1.153891865247791
 20
-12.4445264818565
 30
0.0
 10
1.153891865247791
 20
-12.33745901569726
 30
0.0
 10
1.19404377546266
 20
-12.27054260087031
 30
0.0
 10
1.274345878126926
 20
-12.24377036631319
 30
0.0
 10
1.354648839673726
 20
-12.21700586170118
 30
0.0
 10
1.446030529960593
 20
-12.19923300071859
 30
0.0
 10
1.548703951912002
 20
-12.19024049820627
 30
0.0
 10
1.562090498631973
 20
-12.08766928330339
 30
0.0
 10
1.575477045351881
 20
-11.37385096138269
 30
0.0
 10
1.588855862126858
 20
-10.04888172731372
 30
0.0
 10
1.588855862126858
 20
-8.804222325853692
 30
0.0
 10
1.579863359614541
 20
-8.045859767276346
 30
0.0
 10
1.562090498631973
 20
-7.773697856712134
 30
0.0
 10
1.562090498631973
 20
-7.773697856712134
 30
0.0
 10
1.448329759112969
 20
-7.773697856712134
 30
0.0
 10
1.448329759112969
 20
-7.773697856712134
 30
0.0
 10
1.260960190289716
 20
-7.773697856712134
 30
0.0
 10
1.167278411967775
 20
-7.724656509916295
 30
0.0
 10
1.167278411967775
 20
-7.626479339220989
 30
0.0
 10
1.167278411967775
 20
-7.501632141017289
 30
0.0
 10
1.249777536735665
 20
-7.439109770397749
 30
0.0
 10
1.414871981140739
 20
-7.439109770397749
 30
0.0
 10
1.990360363268312
 20
-7.439109770397749
 30
0.0
 10
2.479905500754638
 20
-7.435766139807229
 30
0.0
 10
2.883709231048531
 20
-7.429073725330075
 30
0.0
 10
3.287404742114278
 20
-7.422380451970209
 30
0.0
 10
3.663297359309581
 20
-7.416840658158864
 30
0.0
 10
4.011265121281818
 20
-7.412344406902699
 30
0.0
 10
4.600140909012175
 20
-7.412344406902699
 30
0.0
 10
4.894577943994439
 20
-7.615392021653355
 30
0.0
 10
4.894577943994439
 20
-8.021291425885186
 30
0.0
 10
4.894577943994439
 20
-8.14623396007572
 30
0.0
 10
4.849923770344149
 20
-8.262191721698198
 30
0.0
 10
4.760745973223189
 20
-8.369259187857413
 30
0.0
 10
4.671450509163681
 20
-8.4763266540165
 30
0.0
 10
4.542114789648773
 20
-8.529864252068617
 30
0.0
 10
4.372619429973964
 20
-8.529864252068617
 30
0.0
 10
4.225400912482806
 20
-8.529864252068617
 30
0.0
 10
4.109347814873495
 20
-8.487516178632681
 30
0.0
 10
4.024651668001726
 20
-8.402716965829477
 30
0.0
 10
3.939853314081397
 20
-8.318028548902777
 30
0.0
 10
3.897505240645589
 20
-8.204267809383534
 30
0.0
 10
3.897505240645589
 20
-8.061442477217282
 30
0.0
  0
HATCH
  5
4E
330
41
100
AcDbEntity
  8
Layer 1
 62
   250
420
  2301728
100
AcDbHatch
 10
0.0
 20
0.0
 30
0.0
210
0.0
220
0.0
230
1.0
  2
SOLID
 70
     1
 71
     0
 91
        1
 92
        1
 93
        1
 72
     4
 94
        3
 73
     0
 74
     1
 95
      122
 96
      118
 40
0.0
 40
0.0
 40
0.0
 40
0.0
 40
1.0
 40
1.0
 40
1.0
 40
2.0
 40
2.0
 40
2.0
 40
3.0
 40
3.0
 40
3.0
 40
4.0
 40
4.0
 40
4.0
 40
5.0
 40
5.0
 40
5.0
 40
6.0
 40
6.0
 40
6.0
 40
7.0
 40
7.0
 40
7.0
 40
8.0
 40
8.0
 40
8.0
 40
9.0
 40
9.0
 40
9.0
 40
10.0
 40
10.0
 40
10.0
 40
11.0
 40
11.0
 40
11.0
 40
12.0
 40
12.0
 40
12.0
 40
13.0
 40
13.0
 40
13.0
 40
14.0
 40
14.0
 40
14.0
 40
15.0
 40
15.0
 40
15.0
 40
16.0
 40
16.0
 40
16.0
 40
17.0
 40
17.0
 40
17.0
 40
18.0
 40
18.0
 40
18.0
 40
19.0
 40
19.0
 40
19.0
 40
20.0
 40
20.0
 40
20.0
 40
21.0
 40
21.0
 40
21.0
 40
22.0
 40
22.0
 40
22.0
 40
23.0
 40
23.0
 40
23.0
 40
24.0
 40
24.0
 40
24.0
 40
25.0
 40
25.0
 40
25.0
 40
26.0
 40
26.0
 40
26.0
 40
27.0
 40
27.0
 40
27.0
 40
28.0
 40
28.0
 40
28.0
 40
29.0
 40
29.0
 40
29.0
 40
30.0
 40
30.0
 40
30.0
 40
31.0
 40
31.0
 40
31.0
 40
32.0
 40
32.0
 40
32.0
 40
33.0
 40
33.0
 40
33.0
 40
34.0
 40
34.0
 40
34.0
 40
35.0
 40
35.0
 40
35.0
 40
36.0
 40
36.0
 40
36.0
 40
37.0
 40
37.0
 40
37.0
 40
38.0
 40
38.0
 40
38.0
 40
39.0
 40
39.0
 40
39.0
 40
39.0
 10
3.897505240645589
 20
-8.061442477217282
 10
3.897505240645589
 20
-7.958871262314359
 10
3.919781223946377
 20
-7.858489339570269
 10
3.964420796589694
 20
-7.760312168874937
 10
3.268485272645218
 20
-7.760312168874937
 10
2.808946922195711
 20
-7.767005442234979
 10
2.585929424358596
 20
-7.780384259009956
 10
2.590315738621181
 20
-9.065201582864107
 10
2.599308241133498
 20
-9.852629592971653
 10
2.612693928970707
 20
-10.1425703766978
 10
2.612693928970707
 20
-10.1425703766978
 10
3.36886032432714
 20
-10.12918468886059
 10
3.36886032432714
 20
-10.12918468886059
 10
3.386640056371915
 20
-10.0266134739577
 10
3.407865626055304
 20
-9.939624968995707
 10
3.43243310856408
 20
-9.868205431850381
 10
3.456899242906375
 20
-9.796901843877851
 10
3.504897047147021
 20
-9.761137106808443
 10
3.576309713230279
 20
-9.761137106808443
 10
3.643226128057424
 20
-9.761137106808443
 10
3.690055851742424
 20
-9.799091994919497
 10
3.716828086299504
 20
-9.874897846327523
 10
3.734607818344304
 20
-9.924041400172086
 10
3.745789613015404
 20
-10.18052526480889
 10
3.750285864271568
 20
-10.64444992952122
 10
3.750285864271568
 20
-10.80066094952469
 10
3.705646291628075
 20
-10.87865781085724
 10
3.616453034617608
 20
-10.87865781085724
 10
3.496006751683429
 20
-10.87865781085724
 10
3.426784236641778
 20
-10.82512708386733
 10
3.409003645714443
 20
-10.71805961770807
 10
3.409003645714443
 20
-10.71805961770807
 10
3.375545867742403
 20
-10.51061795874999
 10
3.375545867742403
 20
-10.51061795874999
 10
3.250603333551857
 20
-10.50172766328622
 10
3.130157050617804
 20
-10.49723141202993
 10
3.01419928899491
 20
-10.49723141202993
 10
2.871367085766602
 20
-10.49723141202993
 10
2.737534256112427
 20
-10.50392468538995
 10
2.612693928970707
 20
-10.51730350216492
 10
2.612693928970707
 20
-10.51730350216492
 10
2.585929424358596
 20
-12.21031258834113
 10
2.585929424358596
 20
-12.21031258834113
 10
2.585929424358596
 20
-12.21031258834113
 10
4.131712263098734
 20
-12.21031258834113
 10
4.131712263098734
 20
-12.21031258834113
 10
4.238786600319852
 20
-12.21031258834113
 10
4.314593310610563
 20
-12.16012549194167
 10
4.359232883254056
 20
-12.05975044025966
 10
4.403771107731674
 20
-11.95937624746029
 10
4.4316968218373
 20
-11.84341848583782
 10
4.442878616508576
 20
-11.7117826782874
 10
4.453972805138114
 20
-11.58024993666861
 10
4.510846303835655
 20
-11.51437706439666
 10
4.613526596849194
 20
-11.51437706439666
 10
4.711594689433721
 20
-11.51437706439666
 10
4.760745973223189
 20
-11.55233109362489
 10
4.760745973223189
 20
-11.62813780391559
 10
4.760745973223189
 20
-12.02963543399507
 10
4.735024152283358
 20
-12.29291392015775
 10
4.683785783383832
 20
-12.41776197724432
 10
4.632445207435517
 20
-12.54270451143452
 10
4.524231991672701
 20
-12.60512467500534
 10
4.359232883254056
 20
-12.60512467500534
 10
4.359232883254056
 20
-12.60512467500534
 10
2.338335855185467
 20
-12.60512467500534
 10
2.338335855185467
 20
-12.60512467500534
 10
2.266916318040115
 20
-12.60512467500534
 10
2.097428688310237
 20
-12.60282544585291
 10
1.829763029002088
 20
-12.59843913159039
 10
1.562090498631973
 20
-12.59394288033406
 10
1.382456886841093
 20
-12.5872496069742
 10
1.291075196554301
 20
-12.57835931151044
 10
1.199590440335997
 20
-12.56947674599163
 10
1.153891865247791
 20
-12.52482944340323
 10
1.153891865247791
 20
-12.4445264818565
 10
1.153891865247791
 20
-12.33745901569726
 10
1.19404377546266
 20
-12.27054260087031
 10
1.274345878126926
 20
-12.24377036631319
 10
1.354648839673726
 20
-12.21700586170118
 10
1.446030529960593
 20
-12.19923300071859
 10
1.548703951912002
 20
-12.19024049820627
 10
1.562090498631973
 20
-12.08766928330339
 10
1.575477045351881
 20
-11.37385096138269
 10
1.588855862126858
 20
-10.04888172731372
 10
1.588855862126858
 20
-8.804222325853692
 10
1.579863359614541
 20
-8.045859767276346
 10
1.562090498631973
 20
-7.773697856712134
 10
1.562090498631973
 20
-7.773697856712134
 10
1.448329759112969
 20
-7.773697856712134
 10
1.448329759112969
 20
-7.773697856712134
 10
1.260960190289716
 20
-7.773697856712134
 10
1.167278411967775
 20
-7.724656509916295
 10
1.167278411967775
 20
-7.626479339220989
 10
1.167278411967775
 20
-7.501632141017289
 10
1.249777536735665
 20
-7.439109770397749
 10
1.414871981140739
 20
-7.439109770397749
 10
1.990360363268312
 20
-7.439109770397749
 10
2.479905500754638
 20
-7.435766139807229
 10
2.883709231048531
 20
-7.429073725330075
 10
3.287404742114278
 20
-7.422380451970209
 10
3.663297359309581
 20
-7.416840658158864
 10
4.011265121281818
 20
-7.412344406902699
 10
4.600140909012175
 20
-7.412344406902699
 10
4.894577943994439
 20
-7.615392021653355
 10
4.894577943994439
 20
-8.021291425885186
 10
4.894577943994439
 20
-8.14623396007572
 10
4.849923770344149
 20
-8.262191721698198
 10
4.760745973223189
 20
-8.369259187857413
 10
4.671450509163681
 20
-8.4763266540165
 10
4.542114789648773
 20
-8.529864252068617
 10
4.372619429973964
 20
-8.529864252068617
 10
4.225400912482806
 20
-8.529864252068617
 10
4.109347814873495
 20
-8.487516178632681
 10
4.024651668001726
 20
-8.402716965829477
 10
3.939853314081397
 20
-8.318028548902777
 10
3.897505240645589
 20
-8.204267809383534
 10
3.897505240645589
 20
-8.061442477217282
 97
        0
 97
        0
 75
     2
 76
     1
 98
        0
  0
SPLINE
  5
4F
330
41
100
AcDbEntity
  8
Layer 1
370
     0
100
AcDbSpline
210
0.0
220
0.0
230
1.0
 70
    11
 71
     3
 72
    74
 73
    70
 74
     0
 42
0.0000000001
 43
0.0000000001
 12
1.0
 22
0.0
 32
0.0
 13
1.0
 23
0.0
 33
0.0
 40
0.0
 40
0.0
 40
0.0
 40
0.0
 40
1.0
 40
1.0
 40
1.0
 40
2.0
 40
2.0
 40
2.0
 40
3.0
 40
3.0
 40
3.0
 40
4.0
 40
4.0
 40
4.0
 40
5.0
 40
5.0
 40
5.0
 40
6.0
 40
6.0
 40
6.0
 40
7.0
 40
7.0
 40
7.0
 40
8.0
 40
8.0
 40
8.0
 40
9.0
 40
9.0
 40
9.0
 40
10.0
 40
10.0
 40
10.0
 40
11.0
 40
11.0
 40
11.0
 40
12.0
 40
12.0
 40
12.0
 40
13.0
 40
13.0
 40
13.0
 40
14.0
 40
14.0
 40
14.0
 40
15.0
 40
15.0
 40
15.0
 40
16.0
 40
16.0
 40
16.0
 40
17.0
 40
17.0
 40
17.0
 40
18.0
 40
18.0
 40
18.0
 40
19.0
 40
19.0
 40
19.0
 40
20.0
 40
20.0
 40
20.0
 40
21.0
 40
21.0
 40
21.0
 40
22.0
 40
22.0
 40
22.0
 40
23.0
 40
23.0
 40
23.0
 40
23.0
 10
4.854434622607136
 20
-18.53286036978778
 30
0.0
 10
4.854434622607136
 20
-18.98350241259431
 30
0.0
 10
4.495270464956648
 20
-19.20872552136292
 30
0.0
 10
3.777058098828522
 20
-19.20872552136292
 30
0.0
 10
3.777058098828522
 20
-19.20872552136292
 30
0.0
 10
1.910065131666367
 20
-19.1953372568775
 30
0.0
 10
1.910065131666367
 20
-19.1953372568775
 30
0.0
 10
1.588862733189002
 20
-19.1953372568775
 30
0.0
 10
1.394806762067964
 20
-19.19199448517
 30
0.0
 10
1.32789034724082
 20
-19.18530207069278
 30
0.0
 10
1.260967061351696
 20
-19.17860965621556
 30
0.0
 10
1.227509283379643
 20
-19.13072178896833
 30
0.0
 10
1.227509283379643
 20
-19.04143233708833
 30
0.0
 10
1.227509283379643
 20
-18.89871007085334
 30
0.0
 10
1.343466186119675
 20
-18.82729912253555
 30
0.0
 10
1.57548391641386
 20
-18.82729912253555
 30
0.0
 10
1.579870230676609
 20
-18.17150777886124
 30
0.0
 10
1.582177189773903
 20
-17.54917335427611
 30
0.0
 10
1.582177189773903
 20
-16.96029756654569
 30
0.0
 10
1.582177189773903
 20
-16.37143036764319
 30
0.0
 10
1.584366481932837
 20
-15.53056696653222
 30
0.0
 10
1.588862733189002
 20
-14.43752184453667
 30
0.0
 10
1.486189311237442
 20
-14.42863069019027
 30
0.0
 10
1.405886349690503
 20
-14.40855172899306
 30
0.0
 10
1.34796243737584
 20
-14.37729011424195
 30
0.0
 10
1.289936318012514
 20
-14.34613156542222
 30
0.0
 10
1.260967061351696
 20
-14.29030246816263
 30
0.0
 10
1.260967061351696
 20
-14.21000036549861
 30
0.0
 10
1.260967061351696
 20
-14.12080710848791
 30
0.0
 10
1.317847431111242
 20
-14.07177349163694
 30
0.0
 10
1.431608170630423
 20
-14.06278098912459
 30
0.0
 10
1.545368910149364
 20
-14.05389069366097
 30
0.0
 10
1.780627205102531
 20
-14.0493953012875
 30
0.0
 10
2.137586610704476
 20
-14.0493953012875
 30
0.0
 10
2.498940919396508
 20
-14.05389069366097
 30
0.0
 10
2.724163169282204
 20
-14.06508021827708
 30
0.0
 10
2.813450044513855
 20
-14.08285307925944
 30
0.0
 10
2.90264330152455
 20
-14.10073501835292
 30
0.0
 10
2.94729060411281
 20
-14.15207559430111
 30
0.0
 10
2.94729060411281
 20
-14.23676487011069
 30
0.0
 10
2.94729060411281
 20
-14.30817753619375
 30
0.0
 10
2.922714532776783
 20
-14.35282569766486
 30
0.0
 10
2.873680915925863
 20
-14.37059769976472
 30
0.0
 10
2.824537362081388
 20
-14.38847963885819
 30
0.0
 10
2.746533629686875
 20
-14.40636157795139
 30
0.0
 10
2.639466163527724
 20
-14.42413529781681
 30
0.0
 10
2.639466163527724
 20
-14.42413529781681
 30
0.0
 10
2.585936295420652
 20
-18.81391257581583
 30
0.0
 10
2.585936295420652
 20
-18.81391257581583
 30
0.0
 10
2.91602211829954
 20
-18.8362899072825
 30
0.0
 10
3.25061793455883
 20
-18.84736949490528
 30
0.0
 10
3.58969540106735
 20
-18.84736949490528
 30
0.0
 10
3.58969540106735
 20
-18.84736949490528
 30
0.0
 10
3.924277475202517
 20
-18.84736949490528
 30
0.0
 10
3.924277475202517
 20
-18.84736949490528
 30
0.0
 10
3.866251355839141
 20
-18.74929539014111
 30
0.0
 10
3.837288970240529
 20
-18.64442408720291
 30
0.0
 10
3.837288970240529
 20
-18.53286036978778
 30
0.0
 10
3.837288970240529
 20
-18.35448416235959
 30
0.0
 10
3.889666217681628
 20
-18.22169401637805
 30
0.0
 10
3.994551262744128
 20
-18.13469949923666
 30
0.0
 10
4.099304898743918
 20
-18.04771013539194
 30
0.0
 10
4.216423010977501
 20
-18.00420772352473
 30
0.0
 10
4.345861796423833
 20
-18.00420772352473
 30
0.0
 10
4.510860904842477
 20
-18.00420772352473
 30
0.0
 10
4.63695605969868
 20
-18.05335299513472
 30
0.0
 10
4.723944564660668
 20
-18.1514270998986
 30
0.0
 10
4.81093306962263
 20
-18.24961114165611
 30
0.0
 10
4.854434622607136
 20
-18.37675155683305
 30
0.0
 10
4.854434622607136
 20
-18.53286036978778
 30
0.0
  0
HATCH
  5
50
330
41
100
AcDbEntity
  8
Layer 1
 62
   250
420
  2301728
100
AcDbHatch
 10
0.0
 20
0.0
 30
0.0
210
0.0
220
0.0
230
1.0
  2
SOLID
 70
     1
 71
     0
 91
        1
 92
        1
 93
        1
 72
     4
 94
        3
 73
     0
 74
     1
 95
       74
 96
       70
 40
0.0
 40
0.0
 40
0.0
 40
0.0
 40
1.0
 40
1.0
 40
1.0
 40
2.0
 40
2.0
 40
2.0
 40
3.0
 40
3.0
 40
3.0
 40
4.0
 40
4.0
 40
4.0
 40
5.0
 40
5.0
 40
5.0
 40
6.0
 40
6.0
 40
6.0
 40
7.0
 40
7.0
 40
7.0
 40
8.0
 40
8.0
 40
8.0
 40
9.0
 40
9.0
 40
9.0
 40
10.0
 40
10.0
 40
10.0
 40
11.0
 40
11.0
 40
11.0
 40
12.0
 40
12.0
 40
12.0
 40
13.0
 40
13.0
 40
13.0
 40
14.0
 40
14.0
 40
14.0
 40
15.0
 40
15.0
 40
15.0
 40
16.0
 40
16.0
 40
16.0
 40
17.0
 40
17.0
 40
17.0
 40
18.0
 40
18.0
 40
18.0
 40
19.0
 40
19.0
 40
19.0
 40
20.0
 40
20.0
 40
20.0
 40
21.0
 40
21.0
 40
21.0
 40
22.0
 40
22.0
 40
22.0
 40
23.0
 40
23.0
 40
23.0
 40
23.0
 10
4.854434622607136
 20
-18.53286036978778
 10
4.854434622607136
 20
-18.98350241259431
 10
4.495270464956648
 20
-19.20872552136292
 10
3.777058098828522
 20
-19.20872552136292
 10
3.777058098828522
 20
-19.20872552136292
 10
1.910065131666367
 20
-19.1953372568775
 10
1.910065131666367
 20
-19.1953372568775
 10
1.588862733189002
 20
-19.1953372568775
 10
1.394806762067964
 20
-19.19199448517
 10
1.32789034724082
 20
-19.18530207069278
 10
1.260967061351696
 20
-19.17860965621556
 10
1.227509283379643
 20
-19.13072178896833
 10
1.227509283379643
 20
-19.04143233708833
 10
1.227509283379643
 20
-18.89871007085334
 10
1.343466186119675
 20
-18.82729912253555
 10
1.57548391641386
 20
-18.82729912253555
 10
1.579870230676609
 20
-18.17150777886124
 10
1.582177189773903
 20
-17.54917335427611
 10
1.582177189773903
 20
-16.96029756654569
 10
1.582177189773903
 20
-16.37143036764319
 10
1.584366481932837
 20
-15.53056696653222
 10
1.588862733189002
 20
-14.43752184453667
 10
1.486189311237442
 20
-14.42863069019027
 10
1.405886349690503
 20
-14.40855172899306
 10
1.34796243737584
 20
-14.37729011424195
 10
1.289936318012514
 20
-14.34613156542222
 10
1.260967061351696
 20
-14.29030246816263
 10
1.260967061351696
 20
-14.21000036549861
 10
1.260967061351696
 20
-14.12080710848791
 10
1.317847431111242
 20
-14.07177349163694
 10
1.431608170630423
 20
-14.06278098912459
 10
1.545368910149364
 20
-14.05389069366097
 10
1.780627205102531
 20
-14.0493953012875
 10
2.137586610704476
 20
-14.0493953012875
 10
2.498940919396508
 20
-14.05389069366097
 10
2.724163169282204
 20
-14.06508021827708
 10
2.813450044513855
 20
-14.08285307925944
 10
2.90264330152455
 20
-14.10073501835292
 10
2.94729060411281
 20
-14.15207559430111
 10
2.94729060411281
 20
-14.23676487011069
 10
2.94729060411281
 20
-14.30817753619375
 10
2.922714532776783
 20
-14.35282569766486
 10
2.873680915925863
 20
-14.37059769976472
 10
2.824537362081388
 20
-14.38847963885819
 10
2.746533629686875
 20
-14.40636157795139
 10
2.639466163527724
 20
-14.42413529781681
 10
2.639466163527724
 20
-14.42413529781681
 10
2.585936295420652
 20
-18.81391257581583
 10
2.585936295420652
 20
-18.81391257581583
 10
2.91602211829954
 20
-18.8362899072825
 10
3.25061793455883
 20
-18.84736949490528
 10
3.58969540106735
 20
-18.84736949490528
 10
3.58969540106735
 20
-18.84736949490528
 10
3.924277475202517
 20
-18.84736949490528
 10
3.924277475202517
 20
-18.84736949490528
 10
3.866251355839141
 20
-18.74929539014111
 10
3.837288970240529
 20
-18.64442408720291
 10
3.837288970240529
 20
-18.53286036978778
 10
3.837288970240529
 20
-18.35448416235959
 10
3.889666217681628
 20
-18.22169401637805
 10
3.994551262744128
 20
-18.13469949923666
 10
4.099304898743918
 20
-18.04771013539194
 10
4.216423010977501
 20
-18.00420772352473
 10
4.345861796423833
 20
-18.00420772352473
 10
4.510860904842477
 20
-18.00420772352473
 10
4.63695605969868
 20
-18.05335299513472
 10
4.723944564660668
 20
-18.1514270998986
 10
4.81093306962263
 20
-18.24961114165611
 10
4.854434622607136
 20
-18.37675155683305
 10
4.854434622607136
 20
-18.53286036978778
 97
        0
 97
        0
 75
     2
 76
     1
 98
        0
  0
SPLINE
  5
51
330
41
100
AcDbEntity
  8
Layer 1
370
     0
100
AcDbSpline
210
0.0
220
0.0
230
1.0
 70
    11
 71
     3
 72
    74
 73
    70
 74
     0
 42
0.0000000001
 43
0.0000000001
 12
1.0
 22
0.0
 32
0.0
 13
1.0
 23
0.0
 33
0.0
 40
0.0
 40
0.0
 40
0.0
 40
0.0
 40
1.0
 40
1.0
 40
1.0
 40
2.0
 40
2.0
 40
2.0
 40
3.0
 40
3.0
 40
3.0
 40
4.0
 40
4.0
 40
4.0
 40
5.0
 40
5.0
 40
5.0
 40
6.0
 40
6.0
 40
6.0
 40
7.0
 40
7.0
 40
7.0
 40
8.0
 40
8.0
 40
8.0
 40
9.0
 40
9.0
 40
9.0
 40
10.0
 40
10.0
 40
10.0
 40
11.0
 40
11.0
 40
11.0
 40
12.0
 40
12.0
 40
12.0
 40
13.0
 40
13.0
 40
13.0
 40
14.0
 40
14.0
 40
14.0
 40
15.0
 40
15.0
 40
15.0
 40
16.0
 40
16.0
 40
16.0
 40
17.0
 40
17.0
 40
17.0
 40
18.0
 40
18.0
 40
18.0
 40
19.0
 40
19.0
 40
19.0
 40
20.0
 40
20.0
 40
20.0
 40
21.0
 40
21.0
 40
21.0
 40
22.0
 40
22.0
 40
22.0
 40
23.0
 40
23.0
 40
23.0
 40
23.0
 10
5.242516503952881
 20
-24.6881038014843
 30
0.0
 10
5.242516503952881
 20
-24.7773984066607
 30
0.0
 10
5.176651361625873
 20
-24.91677790118832
 30
0.0
 10
5.045125491068953
 20
-25.10634535099805
 30
0.0
 10
4.913482812456651
 20
-25.2960141489736
 30
0.0
 10
4.710543416933787
 20
-25.47772797481265
 30
0.0
 10
4.436163871079644
 20
-25.65171872686096
 30
0.0
 10
4.161812668356333
 20
-25.82570947890902
 30
0.0
 10
3.734593217337179
 20
-25.91269884275403
 30
0.0
 10
3.15471079100199
 20
-25.91269884275403
 30
0.0
 10
2.427499051299504
 20
-25.91269884275403
 30
0.0
 10
1.854206832392795
 20
-25.69301552779681
 30
0.0
 10
1.434929470268773
 20
-25.25356300960652
 30
0.0
 10
1.015541312268485
 20
-24.81419981522307
 30
0.0
 10
0.8059026312065877
 20
-24.17734168314195
 30
0.0
 10
0.8059026312065877
 20
-23.34307793717
 30
0.0
 10
0.8059026312065877
 20
-22.51329412368166
 30
0.0
 10
1.0523495918931
 20
-21.85531434673097
 30
0.0
 10
1.545339708135392
 20
-21.36900977390375
 30
0.0
 10
2.038226758446487
 20
-20.88281513806986
 30
0.0
 10
2.659516781593778
 20
-20.63960874204223
 30
0.0
 10
3.409003645714443
 20
-20.63960874204223
 30
0.0
 10
3.962114696375187
 20
-20.63960874204223
 30
0.0
 10
4.37815235272309
 20
-20.76340638551153
 30
0.0
 10
4.656998947819728
 20
-21.01099823691902
 30
0.0
 10
4.935758795757616
 20
-21.25859867715431
 30
0.0
 10
5.075225896326552
 20
-21.52292156475472
 30
0.0
 10
5.075225896326552
 20
-21.80397377078306
 30
0.0
 10
5.075225896326552
 20
-21.97356188979597
 30
0.0
 10
5.025038799926961
 20
-22.09840908799958
 30
0.0
 10
4.924664607127927
 20
-22.17870431960181
 30
0.0
 10
4.824289555445881
 20
-22.25900814003138
 30
0.0
 10
4.702690651846019
 20
-22.29915919136348
 30
0.0
 10
4.559982127735136
 20
-22.29915919136348
 30
0.0
 10
4.408252757980689
 20
-22.29915919136348
 30
0.0
 10
4.288959095712471
 20
-22.25462268465152
 30
0.0
 10
4.201956848626373
 20
-22.16532636170958
 30
0.0
 10
4.114982944671182
 20
-22.07613310469888
 30
0.0
 10
4.071481391686853
 20
-21.96238095400736
 30
0.0
 10
4.071481391686853
 20
-21.82404414315236
 30
0.0
 10
4.071481391686853
 20
-21.56975815950208
 30
0.0
 10
4.165170041070925
 20
-21.39357725641222
 30
0.0
 10
4.352518137824998
 20
-21.2954000857168
 30
0.0
 10
4.133901555257681
 20
-21.07687110919097
 30
0.0
 10
3.841653812434161
 20
-20.96750441387972
 30
0.0
 10
3.475920060541436
 20
-20.96750441387972
 30
0.0
 10
3.020870231403149
 20
-20.96750441387972
 30
0.0
 10
2.628255166842652
 20
-21.17829657449
 30
0.0
 10
2.298162472901557
 20
-21.59987402464944
 30
0.0
 10
1.967967571911976
 20
-22.02144975704291
 30
0.0
 10
1.802976193438162
 20
-22.61367003424639
 30
0.0
 10
1.802976193438162
 20
-23.37653485625944
 30
0.0
 10
1.802976193438162
 20
-23.97878173081972
 30
0.0
 10
1.979157096528082
 20
-24.49069646982793
 30
0.0
 10
2.331621109756485
 20
-24.91228250881487
 30
0.0
 10
2.683982057053514
 20
-25.33386683003611
 30
0.0
 10
3.061022141617994
 20
-25.5446452485225
 30
0.0
 10
3.46251977169724
 20
-25.5446452485225
 30
0.0
 10
3.725688320866437
 20
-25.5446452485225
 30
0.0
 10
3.971107198887668
 20
-25.4855815987832
 30
0.0
 10
4.198627819042991
 20
-25.36732374912556
 30
0.0
 10
4.426120096067052
 20
-25.24916896539874
 30
0.0
 10
4.667042722832144
 20
-25.02049658346027
 30
0.0
 10
4.921336436427459
 20
-24.68141825806917
 30
0.0
 10
4.988251992371564
 20
-24.59222500105847
 30
0.0
 10
5.059547850399162
 20
-24.54758542841513
 30
0.0
 10
5.135456767738433
 20
-24.54758542841513
 30
0.0
 10
5.206752625766158
 20
-24.54758542841513
 30
0.0
 10
5.242516503952881
 20
-24.59442889422431
 30
0.0
 10
5.242516503952881
 20
-24.6881038014843
 30
0.0
  0
HATCH
  5
52
330
41
100
AcDbEntity
  8
Layer 1
 62
   250
420
  2301728
100
AcDbHatch
 10
0.0
 20
0.0
 30
0.0
210
0.0
220
0.0
230
1.0
  2
SOLID
 70
     1
 71
     0
 91
        1
 92
        1
 93
        1
 72
     4
 94
        3
 73
     0
 74
     1
 95
       74
 96
       70
 40
0.0
 40
0.0
 40
0.0
 40
0.0
 40
1.0
 40
1.0
 40
1.0
 40
2.0
 40
2.0
 40
2.0
 40
3.0
 40
3.0
 40
3.0
 40
4.0
 40
4.0
 40
4.0
 40
5.0
 40
5.0
 40
5.0
 40
6.0
 40
6.0
 40
6.0
 40
7.0
 40
7.0
 40
7.0
 40
8.0
 40
8.0
 40
8.0
 40
9.0
 40
9.0
 40
9.0
 40
10.0
 40
10.0
 40
10.0
 40
11.0
 40
11.0
 40
11.0
 40
12.0
 40
12.0
 40
12.0
 40
13.0
 40
13.0
 40
13.0
 40
14.0
 40
14.0
 40
14.0
 40
15.0
 40
15.0
 40
15.0
 40
16.0
 40
16.0
 40
16.0
 40
17.0
 40
17.0
 40
17.0
 40
18.0
 40
18.0
 40
18.0
 40
19.0
 40
19.0
 40
19.0
 40
20.0
 40
20.0
 40
20.0
 40
21.0
 40
21.0
 40
21.0
 40
22.0
 40
22.0
 40
22.0
 40
23.0
 40
23.0
 40
23.0
 40
23.0
 10
5.242516503952881
 20
-24.6881038014843
 10
5.242516503952881
 20
-24.7773984066607
 10
5.176651361625873
 20
-24.91677790118832
 10
5.045125491068953
 20
-25.10634535099805
 10
4.913482812456651
 20
-25.2960141489736
 10
4.710543416933787
 20
-25.47772797481265
 10
4.436163871079644
 20
-25.65171872686096
 10
4.161812668356333
 20
-25.82570947890902
 10
3.734593217337179
 20
-25.91269884275403
 10
3.15471079100199
 20
-25.91269884275403
 10
2.427499051299504
 20
-25.91269884275403
 10
1.854206832392795
 20
-25.69301552779681
 10
1.434929470268773
 20
-25.25356300960652
 10
1.015541312268485
 20
-24.81419981522307
 10
0.8059026312065877
 20
-24.17734168314195
 10
0.8059026312065877
 20
-23.34307793717
 10
0.8059026312065877
 20
-22.51329412368166
 10
1.0523495918931
 20
-21.85531434673097
 10
1.545339708135392
 20
-21.36900977390375
 10
2.038226758446487
 20
-20.88281513806986
 10
2.659516781593778
 20
-20.63960874204223
 10
3.409003645714443
 20
-20.63960874204223
 10
3.962114696375187
 20
-20.63960874204223
 10
4.37815235272309
 20
-20.76340638551153
 10
4.656998947819728
 20
-21.01099823691902
 10
4.935758795757616
 20
-21.25859867715431
 10
5.075225896326552
 20
-21.52292156475472
 10
5.075225896326552
 20
-21.80397377078306
 10
5.075225896326552
 20
-21.97356188979597
 10
5.025038799926961
 20
-22.09840908799958
 10
4.924664607127927
 20
-22.17870431960181
 10
4.824289555445881
 20
-22.25900814003138
 10
4.702690651846019
 20
-22.29915919136348
 10
4.559982127735136
 20
-22.29915919136348
 10
4.408252757980689
 20
-22.29915919136348
 10
4.288959095712471
 20
-22.25462268465152
 10
4.201956848626373
 20
-22.16532636170958
 10
4.114982944671182
 20
-22.07613310469888
 10
4.071481391686853
 20
-21.96238095400736
 10
4.071481391686853
 20
-21.82404414315236
 10
4.071481391686853
 20
-21.56975815950208
 10
4.165170041070925
 20
-21.39357725641222
 10
4.352518137824998
 20
-21.2954000857168
 10
4.133901555257681
 20
-21.07687110919097
 10
3.841653812434161
 20
-20.96750441387972
 10
3.475920060541436
 20
-20.96750441387972
 10
3.020870231403149
 20
-20.96750441387972
 10
2.628255166842652
 20
-21.17829657449
 10
2.298162472901557
 20
-21.59987402464944
 10
1.967967571911976
 20
-22.02144975704291
 10
1.802976193438162
 20
-22.61367003424639
 10
1.802976193438162
 20
-23.37653485625944
 10
1.802976193438162
 20
-23.97878173081972
 10
1.979157096528082
 20
-24.49069646982793
 10
2.331621109756485
 20
-24.91228250881487
 10
2.683982057053514
 20
-25.33386683003611
 10
3.061022141617994
 20
-25.5446452485225
 10
3.46251977169724
 20
-25.5446452485225
 10
3.725688320866437
 20
-25.5446452485225
 10
3.971107198887668
 20
-25.4855815987832
 10
4.198627819042991
 20
-25.36732374912556
 10
4.426120096067052
 20
-25.24916896539874
 10
4.667042722832144
 20
-25.02049658346027
 10
4.921336436427459
 20
-24.68141825806917
 10
4.988251992371564
 20
-24.59222500105847
 10
5.059547850399162
 20
-24.54758542841513
 10
5.135456767738433
 20
-24.54758542841513
 10
5.206752625766158
 20
-24.54758542841513
 10
5.242516503952881
 20
-24.59442889422431
 10
5.242516503952881
 20
-24.6881038014843
 97
        0
 97
        0
 75
     2
 76
     1
 98
        0
  0
SPLINE
  5
53
330
41
100
AcDbEntity
  8
Layer 1
370
     0
100
AcDbSpline
210
0.0
220
0.0
230
1.0
 70
    11
 71
     3
 72
   110
 73
   106
 74
     0
 42
0.0000000001
 43
0.0000000001
 12
1.0
 22
0.0
 32
0.0
 13
1.0
 23
0.0
 33
0.0
 40
0.0
 40
0.0
 40
0.0
 40
0.0
 40
1.0
 40
1.0
 40
1.0
 40
2.0
 40
2.0
 40
2.0
 40
3.0
 40
3.0
 40
3.0
 40
4.0
 40
4.0
 40
4.0
 40
5.0
 40
5.0
 40
5.0
 40
6.0
 40
6.0
 40
6.0
 40
7.0
 40
7.0
 40
7.0
 40
8.0
 40
8.0
 40
8.0
 40
9.0
 40
9.0
 40
9.0
 40
10.0
 40
10.0
 40
10.0
 40
11.0
 40
11.0
 40
11.0
 40
12.0
 40
12.0
 40
12.0
 40
13.0
 40
13.0
 40
13.0
 40
14.0
 40
14.0
 40
14.0
 40
15.0
 40
15.0
 40
15.0
 40
16.0
 40
16.0
 40
16.0
 40
17.0
 40
17.0
 40
17.0
 40
18.0
 40
18.0
 40
18.0
 40
19.0
 40
19.0
 40
19.0
 40
20.0
 40
20.0
 40
20.0
 40
21.0
 40
21.0
 40
21.0
 40
22.0
 40
22.0
 40
22.0
 40
23.0
 40
23.0
 40
23.0
 40
24.0
 40
24.0
 40
24.0
 40
25.0
 40
25.0
 40
25.0
 40
26.0
 40
26.0
 40
26.0
 40
27.0
 40
27.0
 40
27.0
 40
28.0
 40
28.0
 40
28.0
 40
29.0
 40
29.0
 40
29.0
 40
30.0
 40
30.0
 40
30.0
 40
31.0
 40
31.0
 40
31.0
 40
32.0
 40
32.0
 40
32.0
 40
33.0
 40
33.0
 40
33.0
 40
34.0
 40
34.0
 40
34.0
 40
35.0
 40
35.0
 40
35.0
 40
35.0
 10
5.563726632375013
 20
-35.72945568136402
 30
0.0
 10
5.563726632375013
 20
-35.72945568136402
 30
0.0
 10
5.543639941233171
 20
-40.15270533834207
 30
0.0
 10
5.543639941233171
 20
-40.15270533834207
 30
0.0
 10
5.722025596371572
 20
-40.19734662875124
 30
0.0
 10
5.811320201547889
 20
-40.26875757706875
 30
0.0
 10
5.811320201547889
 20
-40.36684198842583
 30
0.0
 10
5.811320201547889
 20
-40.48728827136001
 30
0.0
 10
5.742097686506566
 20
-40.54865716243098
 30
0.0
 10
5.603870812645052
 20
-40.55086277336237
 30
0.0
 10
5.465541731734598
 20
-40.55315083703875
 30
0.0
 10
5.340584596537408
 20
-40.55420210953874
 30
0.0
 10
5.229130816115533
 20
-40.55420210953874
 30
0.0
 10
4.66702812182517
 20
-40.54981150086248
 30
0.0
 10
4.356912182032551
 20
-40.53642323637695
 30
0.0
 10
4.298988269717912
 20
-40.51406136479984
 30
0.0
 10
4.240947549347538
 20
-40.49178538149904
 30
0.0
 10
4.211985163748952
 20
-40.43375926213568
 30
0.0
 10
4.211985163748952
 20
-40.34006889498611
 30
0.0
 10
4.211985163748952
 20
-40.27764873141541
 30
0.0
 10
4.303367712918518
 20
-40.22191411125959
 30
0.0
 10
4.486350967479084
 20
-40.1727757107118
 30
0.0
 10
4.499736655316282
 20
-39.22254904982042
 30
0.0
 10
4.526495147748973
 20
-37.91546003707931
 30
0.0
 10
4.566653070143123
 20
-36.25141591314998
 30
0.0
 10
4.258829488441076
 20
-37.12134047137707
 30
0.0
 10
3.957706051160787
 20
-37.9611525999882
 30
0.0
 10
3.663268157295761
 20
-38.77086260557583
 30
0.0
 10
3.368831122313319
 20
-39.5805588690393
 30
0.0
 10
3.179161465454904
 20
-40.06904672184638
 30
0.0
 10
3.094465318583161
 20
-40.23635021271401
 30
0.0
 10
3.009673835725039
 20
-40.40364339698832
 30
0.0
 10
2.907102620822052
 20
-40.48728827136001
 30
0.0
 10
2.78664860794293
 20
-40.48728827136001
 30
0.0
 10
2.692967688503763
 20
-40.48728827136001
 30
0.0
 10
2.608168475700811
 20
-40.43939353305083
 30
0.0
 10
2.53236262429271
 20
-40.34341166669375
 30
0.0
 10
2.456453706953349
 20
-40.24753286626792
 30
0.0
 10
2.263544344318828
 20
-39.84267614570861
 30
0.0
 10
1.95353061157482
 20
-39.1288586826707
 30
0.0
 10
1.643407800720082
 20
-38.41514428556431
 30
0.0
 10
1.289900244936575
 20
-37.59876247868568
 30
0.0
 10
0.8928911361684994
 20
-36.67968577778639
 30
0.0
 10
0.8928911361684994
 20
-36.67968577778639
 30
0.0
 10
0.9330421875005817
 20
-40.17946468965791
 30
0.0
 10
0.9330421875005817
 20
-40.17946468965791
 30
0.0
 10
1.057882514642314
 20
-40.20184030335915
 30
0.0
 10
1.149367270860529
 20
-40.22296538375958
 30
0.0
 10
1.207400261285822
 20
-40.2430357561289
 30
0.0
 10
1.265324173600485
 20
-40.26310956402944
 30
0.0
 10
1.294395637309953
 20
-40.31560447840901
 30
0.0
 10
1.294395637309953
 20
-40.40029718974973
 30
0.0
 10
1.294395637309953
 20
-40.48060272794515
 30
0.0
 10
1.241902440696006
 20
-40.52743245162999
 30
0.0
 10
1.137134203689293
 20
-40.54081728058458
 30
0.0
 10
1.032263759633881
 20
-40.55420210953874
 30
0.0
 10
0.9084669750473545
 20
-40.56088765295403
 30
0.0
 10
0.765743849929499
 20
-40.56088765295403
 30
0.0
 10
0.7299868428049952
 20
-40.56088765295403
 30
0.0
 10
0.657530634166758
 20
-40.55975049217765
 30
0.0
 10
0.5482661459038936
 20
-40.55754831677751
 30
0.0
 10
0.4388994505923165
 20
-40.55525338203875
 30
0.0
 10
0.3508596731303694
 20
-40.54646529362362
 30
0.0
 10
0.283944117185936
 20
-40.53078896546167
 30
0.0
 10
0.2170199724140376
 20
-40.51519852557612
 30
0.0
 10
0.1835621944419725
 20
-40.46721446345959
 30
0.0
 10
0.1835621944419725
 20
-40.38691236079542
 30
0.0
 10
0.1835621944419725
 20
-40.26645233573709
 30
0.0
 10
0.2995199560649426
 20
-40.20623778309765
 30
0.0
 10
0.5315368274763538
 20
-40.20623778309765
 30
0.0
 10
0.5315368274763538
 20
-40.20623778309765
 30
0.0
 10
0.5315368274763538
 20
-35.78968741165873
 30
0.0
 10
0.5315368274763538
 20
-35.78968741165873
 30
0.0
 10
0.3217882094208259
 20
-35.76742517048208
 30
0.0
 10
0.2170199724140376
 20
-35.6983057213718
 30
0.0
 10
0.2170199724140376
 20
-35.58225348264528
 30
0.0
 10
0.2170199724140376
 20
-35.47517485101027
 30
0.0
 10
0.2973229339609891
 20
-35.42164584178597
 30
0.0
 10
0.4579271392894321
 20
-35.42164584178597
 30
0.0
 10
0.4579271392894321
 20
-35.42164584178597
 30
0.0
 10
1.113719341846654
 20
-35.42833138520111
 30
0.0
 10
1.113719341846654
 20
-35.42833138520111
 30
0.0
 10
1.251945356825584
 20
-35.42833138520111
 30
0.0
 10
1.375742141412022
 20
-35.50758565089624
 30
0.0
 10
1.485108836723523
 20
-35.66589492148611
 30
0.0
 10
1.594373324986388
 20
-35.82429695141402
 30
0.0
 10
1.799618820723632
 20
-36.24138759802751
 30
0.0
 10
2.100749129066053
 20
-36.91724931407139
 30
0.0
 10
2.401872566346166
 20
-37.59311103011542
 30
0.0
 10
2.739804283250894
 20
-38.34154146843944
 30
0.0
 10
3.114552009725003
 20
-39.16231731952571
 30
0.0
 10
3.386610854357943
 20
-38.48876084481319
 30
0.0
 10
3.823873221506675
 20
-37.32879157804597
 30
0.0
 10
4.426120096067052
 20
-35.68262595767904
 30
0.0
 10
4.488540259638057
 20
-35.50423944365777
 30
0.0
 10
4.626869340548157
 20
-35.41275812297054
 30
0.0
 10
4.841018873873407
 20
-35.40826101283155
 30
0.0
 10
5.318323214243289
 20
-35.39048213966973
 30
0.0
 10
5.608264856852454
 20
-35.38148791939193
 30
0.0
 10
5.710931407741882
 20
-35.38148791939193
 30
0.0
 10
5.813509493706988
 20
-35.38598502953068
 30
0.0
 10
5.864850069655303
 20
-35.43503410627138
 30
0.0
 10
5.864850069655303
 20
-35.5287072957657
 30
0.0
 10
5.864850069655303
 20
-35.63138844766222
 30
0.0
 10
5.764475876855916
 20
-35.6983057213718
 30
0.0
 10
5.563726632375013
 20
-35.72945568136402
 30
0.0
  0
HATCH
  5
54
330
41
100
AcDbEntity
  8
Layer 1
 62
   250
420
  2301728
100
AcDbHatch
 10
0.0
 20
0.0
 30
0.0
210
0.0
220
0.0
230
1.0
  2
SOLID
 70
     1
 71
     0
 91
        1
 92
        1
 93
        1
 72
     4
 94
        3
 73
     0
 74
     1
 95
      110
 96
      106
 40
0.0
 40
0.0
 40
0.0
 40
0.0
 40
1.0
 40
1.0
 40
1.0
 40
2.0
 40
2.0
 40
2.0
 40
3.0
 40
3.0
 40
3.0
 40
4.0
 40
4.0
 40
4.0
 40
5.0
 40
5.0
 40
5.0
 40
6.0
 40
6.0
 40
6.0
 40
7.0
 40
7.0
 40
7.0
 40
8.0
 40
8.0
 40
8.0
 40
9.0
 40
9.0
 40
9.0
 40
10.0
 40
10.0
 40
10.0
 40
11.0
 40
11.0
 40
11.0
 40
12.0
 40
12.0
 40
12.0
 40
13.0
 40
13.0
 40
13.0
 40
14.0
 40
14.0
 40
14.0
 40
15.0
 40
15.0
 40
15.0
 40
16.0
 40
16.0
 40
16.0
 40
17.0
 40
17.0
 40
17.0
 40
18.0
 40
18.0
 40
18.0
 40
19.0
 40
19.0
 40
19.0
 40
20.0
 40
20.0
 40
20.0
 40
21.0
 40
21.0
 40
21.0
 40
22.0
 40
22.0
 40
22.0
 40
23.0
 40
23.0
 40
23.0
 40
24.0
 40
24.0
 40
24.0
 40
25.0
 40
25.0
 40
25.0
 40
26.0
 40
26.0
 40
26.0
 40
27.0
 40
27.0
 40
27.0
 40
28.0
 40
28.0
 40
28.0
 40
29.0
 40
29.0
 40
29.0
 40
30.0
 40
30.0
 40
30.0
 40
31.0
 40
31.0
 40
31.0
 40
32.0
 40
32.0
 40
32.0
 40
33.0
 40
33.0
 40
33.0
 40
34.0
 40
34.0
 40
34.0
 40
35.0
 40
35.0
 40
35.0
 40
35.0
 10
5.563726632375013
 20
-35.72945568136402
 10
5.563726632375013
 20
-35.72945568136402
 10
5.543639941233171
 20
-40.15270533834207
 10
5.543639941233171
 20
-40.15270533834207
 10
5.722025596371572
 20
-40.19734662875124
 10
5.811320201547889
 20
-40.26875757706875
 10
5.811320201547889
 20
-40.36684198842583
 10
5.811320201547889
 20
-40.48728827136001
 10
5.742097686506566
 20
-40.54865716243098
 10
5.603870812645052
 20
-40.55086277336237
 10
5.465541731734598
 20
-40.55315083703875
 10
5.340584596537408
 20
-40.55420210953874
 10
5.229130816115533
 20
-40.55420210953874
 10
4.66702812182517
 20
-40.54981150086248
 10
4.356912182032551
 20
-40.53642323637695
 10
4.298988269717912
 20
-40.51406136479984
 10
4.240947549347538
 20
-40.49178538149904
 10
4.211985163748952
 20
-40.43375926213568
 10
4.211985163748952
 20
-40.34006889498611
 10
4.211985163748952
 20
-40.27764873141541
 10
4.303367712918518
 20
-40.22191411125959
 10
4.486350967479084
 20
-40.1727757107118
 10
4.499736655316282
 20
-39.22254904982042
 10
4.526495147748973
 20
-37.91546003707931
 10
4.566653070143123
 20
-36.25141591314998
 10
4.258829488441076
 20
-37.12134047137707
 10
3.957706051160787
 20
-37.9611525999882
 10
3.663268157295761
 20
-38.77086260557583
 10
3.368831122313319
 20
-39.5805588690393
 10
3.179161465454904
 20
-40.06904672184638
 10
3.094465318583161
 20
-40.23635021271401
 10
3.009673835725039
 20
-40.40364339698832
 10
2.907102620822052
 20
-40.48728827136001
 10
2.78664860794293
 20
-40.48728827136001
 10
2.692967688503763
 20
-40.48728827136001
 10
2.608168475700811
 20
-40.43939353305083
 10
2.53236262429271
 20
-40.34341166669375
 10
2.456453706953349
 20
-40.24753286626792
 10
2.263544344318828
 20
-39.84267614570861
 10
1.95353061157482
 20
-39.1288586826707
 10
1.643407800720082
 20
-38.41514428556431
 10
1.289900244936575
 20
-37.59876247868568
 10
0.8928911361684994
 20
-36.67968577778639
 10
0.8928911361684994
 20
-36.67968577778639
 10
0.9330421875005817
 20
-40.17946468965791
 10
0.9330421875005817
 20
-40.17946468965791
 10
1.057882514642314
 20
-40.20184030335915
 10
1.149367270860529
 20
-40.22296538375958
 10
1.207400261285822
 20
-40.2430357561289
 10
1.265324173600485
 20
-40.26310956402944
 10
1.294395637309953
 20
-40.31560447840901
 10
1.294395637309953
 20
-40.40029718974973
 10
1.294395637309953
 20
-40.48060272794515
 10
1.241902440696006
 20
-40.52743245162999
 10
1.137134203689293
 20
-40.54081728058458
 10
1.032263759633881
 20
-40.55420210953874
 10
0.9084669750473545
 20
-40.56088765295403
 10
0.765743849929499
 20
-40.56088765295403
 10
0.7299868428049952
 20
-40.56088765295403
 10
0.657530634166758
 20
-40.55975049217765
 10
0.5482661459038936
 20
-40.55754831677751
 10
0.4388994505923165
 20
-40.55525338203875
 10
0.3508596731303694
 20
-40.54646529362362
 10
0.283944117185936
 20
-40.53078896546167
 10
0.2170199724140376
 20
-40.51519852557612
 10
0.1835621944419725
 20
-40.46721446345959
 10
0.1835621944419725
 20
-40.38691236079542
 10
0.1835621944419725
 20
-40.26645233573709
 10
0.2995199560649426
 20
-40.20623778309765
 10
0.5315368274763538
 20
-40.20623778309765
 10
0.5315368274763538
 20
-40.20623778309765
 10
0.5315368274763538
 20
-35.78968741165873
 10
0.5315368274763538
 20
-35.78968741165873
 10
0.3217882094208259
 20
-35.76742517048208
 10
0.2170199724140376
 20
-35.6983057213718
 10
0.2170199724140376
 20
-35.58225348264528
 10
0.2170199724140376
 20
-35.47517485101027
 10
0.2973229339609891
 20
-35.42164584178597
 10
0.4579271392894321
 20
-35.42164584178597
 10
0.4579271392894321
 20
-35.42164584178597
 10
1.113719341846654
 20
-35.42833138520111
 10
1.113719341846654
 20
-35.42833138520111
 10
1.251945356825584
 20
-35.42833138520111
 10
1.375742141412022
 20
-35.50758565089624
 10
1.485108836723523
 20
-35.66589492148611
 10
1.594373324986388
 20
-35.82429695141402
 10
1.799618820723632
 20
-36.24138759802751
 10
2.100749129066053
 20
-36.91724931407139
 10
2.401872566346166
 20
-37.59311103011542
 10
2.739804283250894
 20
-38.34154146843944
 10
3.114552009725003
 20
-39.16231731952571
 10
3.386610854357943
 20
-38.48876084481319
 10
3.823873221506675
 20
-37.32879157804597
 10
4.426120096067052
 20
-35.68262595767904
 10
4.488540259638057
 20
-35.50423944365777
 10
4.626869340548157
 20
-35.41275812297054
 10
4.841018873873407
 20
-35.40826101283155
 10
5.318323214243289
 20
-35.39048213966973
 10
5.608264856852454
 20
-35.38148791939193
 10
5.710931407741882
 20
-35.38148791939193
 10
5.813509493706988
 20
-35.38598502953068
 10
5.864850069655303
 20
-35.43503410627138
 10
5.864850069655303
 20
-35.5287072957657
 10
5.864850069655303
 20
-35.63138844766222
 10
5.764475876855916
 20
-35.6983057213718
 10
5.563726632375013
 20
-35.72945568136402
 97
        0
 97
        0
 75
     2
 76
     1
 98
        0
  0
SPLINE
  5
55
330
41
100
AcDbEntity
  8
Layer 1
370
     0
100
AcDbSpline
210
0.0
220
0.0
230
1.0
 70
    11
 71
     3
 72
   122
 73
   118
 74
     0
 42
0.0000000001
 43
0.0000000001
 12
1.0
 22
0.0
 32
0.0
 13
1.0
 23
0.0
 33
0.0
 40
0.0
 40
0.0
 40
0.0
 40
0.0
 40
1.0
 40
1.0
 40
1.0
 40
2.0
 40
2.0
 40
2.0
 40
3.0
 40
3.0
 40
3.0
 40
4.0
 40
4.0
 40
4.0
 40
5.0
 40
5.0
 40
5.0
 40
6.0
 40
6.0
 40
6.0
 40
7.0
 40
7.0
 40
7.0
 40
8.0
 40
8.0
 40
8.0
 40
9.0
 40
9.0
 40
9.0
 40
10.0
 40
10.0
 40
10.0
 40
11.0
 40
11.0
 40
11.0
 40
12.0
 40
12.0
 40
12.0
 40
13.0
 40
13.0
 40
13.0
 40
14.0
 40
14.0
 40
14.0
 40
15.0
 40
15.0
 40
15.0
 40
16.0
 40
16.0
 40
16.0
 40
17.0
 40
17.0
 40
17.0
 40
18.0
 40
18.0
 40
18.0
 40
19.0
 40
19.0
 40
19.0
 40
20.0
 40
20.0
 40
20.0
 40
21.0
 40
21.0
 40
21.0
 40
22.0
 40
22.0
 40
22.0
 40
23.0
 40
23.0
 40
23.0
 40
24.0
 40
24.0
 40
24.0
 40
25.0
 40
25.0
 40
25.0
 40
26.0
 40
26.0
 40
26.0
 40
27.0
 40
27.0
 40
27.0
 40
28.0
 40
28.0
 40
28.0
 40
29.0
 40
29.0
 40
29.0
 40
30.0
 40
30.0
 40
30.0
 40
31.0
 40
31.0
 40
31.0
 40
32.0
 40
32.0
 40
32.0
 40
33.0
 40
33.0
 40
33.0
 40
34.0
 40
34.0
 40
34.0
 40
35.0
 40
35.0
 40
35.0
 40
36.0
 40
36.0
 40
36.0
 40
37.0
 40
37.0
 40
37.0
 40
38.0
 40
38.0
 40
38.0
 40
39.0
 40
39.0
 40
39.0
 40
39.0
 10
3.897505240645589
 20
-42.65426665614374
 30
0.0
 10
3.897505240645589
 20
-42.55168857017861
 30
0.0
 10
3.919781223946377
 20
-42.45131265961403
 30
0.0
 10
3.964420796589694
 20
-42.35312861785638
 30
0.0
 10
3.268485272645218
 20
-42.35312861785638
 30
0.0
 10
2.808946922195711
 20
-42.35982790339582
 30
0.0
 10
2.585929424358596
 20
-42.37321273235026
 30
0.0
 10
2.590315738621181
 20
-43.65802576179041
 30
0.0
 10
2.599308241133498
 20
-44.44545978407723
 30
0.0
 10
2.612693928970707
 20
-44.73538768456208
 30
0.0
 10
2.612693928970707
 20
-44.73538768456208
 30
0.0
 10
3.36886032432714
 20
-44.7220165977318
 30
0.0
 10
3.36886032432714
 20
-44.7220165977318
 30
0.0
 10
3.386640056371915
 20
-44.61943507623583
 30
0.0
 10
3.407865626055304
 20
-44.53244743015653
 30
0.0
 10
3.43243310856408
 20
-44.46103304630777
 30
0.0
 10
3.456899242906375
 20
-44.38972516392138
 30
0.0
 10
3.504897047147021
 20
-44.35396128573499
 30
0.0
 10
3.576309713230279
 20
-44.35396128573499
 30
0.0
 10
3.643226128057424
 20
-44.35396128573499
 30
0.0
 10
3.690055851742424
 20
-44.39191359719764
 30
0.0
 10
3.716828086299504
 20
-44.46772202525403
 30
0.0
 10
3.734607818344304
 20
-44.51687073239486
 30
0.0
 10
3.745789613015404
 20
-44.77333999602486
 30
0.0
 10
3.750285864271568
 20
-45.23727410844751
 30
0.0
 10
3.750285864271568
 20
-45.39348426956833
 30
0.0
 10
3.705646291628075
 20
-45.47148113090083
 30
0.0
 10
3.616453034617608
 20
-45.47148113090083
 30
0.0
 10
3.496006751683429
 20
-45.47148113090083
 30
0.0
 10
3.426784236641778
 20
-45.41795212167626
 30
0.0
 10
3.409003645714443
 20
-45.31087349004138
 30
0.0
 10
3.409003645714443
 20
-45.31087349004138
 30
0.0
 10
3.375545867742403
 20
-45.10343956102805
 30
0.0
 10
3.375545867742403
 20
-45.10343956102805
 30
0.0
 10
3.250603333551857
 20
-45.09455184221249
 30
0.0
 10
3.130157050617804
 20
-45.09005473207362
 30
0.0
 10
3.01419928899491
 20
-45.09005473207362
 30
0.0
 10
2.871367085766602
 20
-45.09005473207362
 30
0.0
 10
2.737534256112427
 20
-45.0967402754886
 30
0.0
 10
2.612693928970707
 20
-45.11012510444291
 30
0.0
 10
2.612693928970707
 20
-45.11012510444291
 30
0.0
 10
2.585929424358596
 20
-46.80313419061918
 30
0.0
 10
2.585929424358596
 20
-46.80313419061918
 30
0.0
 10
2.585929424358596
 20
-46.80313419061918
 30
0.0
 10
4.131712263098734
 20
-46.80313419061918
 30
0.0
 10
4.131712263098734
 20
-46.80313419061918
 30
0.0
 10
4.238786600319852
 20
-46.80313419061918
 30
0.0
 10
4.314593310610563
 20
-46.75294795310237
 30
0.0
 10
4.359232883254056
 20
-46.65257204253763
 30
0.0
 10
4.403771107731674
 20
-46.55219956750403
 30
0.0
 10
4.4316968218373
 20
-46.43625039470903
 30
0.0
 10
4.442878616508576
 20
-46.30460771609652
 30
0.0
 10
4.453972805138114
 20
-46.17306466788444
 30
0.0
 10
4.510846303835655
 20
-46.10719866667473
 30
0.0
 10
4.613526596849194
 20
-46.10719866667473
 30
0.0
 10
4.711594689433721
 20
-46.10719866667473
 30
0.0
 10
4.760745973223189
 20
-46.14515441366848
 30
0.0
 10
4.760745973223189
 20
-46.22095940619374
 30
0.0
 10
4.760745973223189
 20
-46.62245617739028
 30
0.0
 10
4.735024152283358
 20
-46.88574497014611
 30
0.0
 10
4.683785783383832
 20
-47.01058529728791
 30
0.0
 10
4.632445207435517
 20
-47.13552525482999
 30
0.0
 10
4.524231991672701
 20
-47.19794885393195
 30
0.0
 10
4.359232883254056
 20
-47.19794885393195
 30
0.0
 10
4.359232883254056
 20
-47.19794885393195
 30
0.0
 10
2.338335855185467
 20
-47.19794885393195
 30
0.0
 10
2.338335855185467
 20
-47.19794885393195
 30
0.0
 10
2.266916318040115
 20
-47.19794885393195
 30
0.0
 10
2.097428688310237
 20
-47.19565391919306
 30
0.0
 10
1.829763029002088
 20
-47.19126331051666
 30
0.0
 10
1.562090498631973
 20
-47.18676620037778
 30
0.0
 10
1.382456886841093
 20
-47.18006347930748
 30
0.0
 10
1.291075196554301
 20
-47.17118950261612
 30
0.0
 10
1.199590440335997
 20
-47.16229834826959
 30
0.0
 10
1.153891865247791
 20
-47.11764675126763
 30
0.0
 10
1.153891865247791
 20
-47.03734121307249
 30
0.0
 10
1.153891865247791
 20
-46.93028319462375
 30
0.0
 10
1.19404377546266
 20
-46.86336592091402
 30
0.0
 10
1.274345878126926
 20
-46.83659282747403
 30
0.0
 10
1.354648839673726
 20
-46.80983691168957
 30
0.0
 10
1.446030529960593
 20
-46.79205460299666
 30
0.0
 10
1.548703951912002
 20
-46.78306381824973
 30
0.0
 10
1.562090498631973
 20
-46.68048573228472
 30
0.0
 10
1.575477045351881
 20
-45.96666826924694
 30
0.0
 10
1.588855862126858
 20
-44.64171105953667
 30
0.0
 10
1.588855862126858
 20
-43.3970456458975
 30
0.0
 10
1.579863359614541
 20
-42.63868995838222
 30
0.0
 10
1.562090498631973
 20
-42.36651344681083
 30
0.0
 10
1.562090498631973
 20
-42.36651344681083
 30
0.0
 10
1.448329759112969
 20
-42.36651344681083
 30
0.0
 10
1.448329759112969
 20
-42.36651344681083
 30
0.0
 10
1.260960190289716
 20
-42.36651344681083
 30
0.0
 10
1.167278411967775
 20
-42.31748154772541
 30
0.0
 10
1.167278411967775
 20
-42.21929407043694
 30
0.0
 10
1.167278411967775
 20
-42.09445374329526
 30
0.0
 10
1.249777536735665
 20
-42.03193394932403
 30
0.0
 10
1.414871981140739
 20
-42.03193394932403
 30
0.0
 10
1.990360363268312
 20
-42.03193394932403
 30
0.0
 10
2.479905500754638
 20
-42.02858774208541
 30
0.0
 10
2.883709231048531
 20
-42.02188845654624
 30
0.0
 10
3.287404742114278
 20
-42.01520291313111
 30
0.0
 10
3.663297359309581
 20
-42.00965796602319
 30
0.0
 10
4.011265121281818
 20
-42.00516085588416
 30
0.0
 10
4.600140909012175
 20
-42.00516085588416
 30
0.0
 10
4.894577943994439
 20
-42.20821448281418
 30
0.0
 10
4.894577943994439
 20
-42.61410529821847
 30
0.0
 10
4.894577943994439
 20
-42.73906243341583
 30
0.0
 10
4.849923770344149
 20
-42.85501504174181
 30
0.0
 10
4.760745973223189
 20
-42.96209023784584
 30
0.0
 10
4.671450509163681
 20
-43.06914825629471
 30
0.0
 10
4.542114789648773
 20
-43.12268070105001
 30
0.0
 10
4.372619429973964
 20
-43.12268070105001
 30
0.0
 10
4.225400912482806
 20
-43.12268070105001
 30
0.0
 10
4.109347814873495
 20
-43.08033090984875
 30
0.0
 10
4.024651668001726
 20
-42.99554543916985
 30
0.0
 10
3.939853314081397
 20
-42.91085272782917
 30
0.0
 10
3.897505240645589
 20
-42.79708855277904
 30
0.0
 10
3.897505240645589
 20
-42.65426665614374
 30
0.0
  0
HATCH
  5
56
330
41
100
AcDbEntity
  8
Layer 1
 62
   250
420
  2301728
100
AcDbHatch
 10
0.0
 20
0.0
 30
0.0
210
0.0
220
0.0
230
1.0
  2
SOLID
 70
     1
 71
     0
 91
        1
 92
        1
 93
        1
 72
     4
 94
        3
 73
     0
 74
     1
 95
      122
 96
      118
 40
0.0
 40
0.0
 40
0.0
 40
0.0
 40
1.0
 40
1.0
 40
1.0
 40
2.0
 40
2.0
 40
2.0
 40
3.0
 40
3.0
 40
3.0
 40
4.0
 40
4.0
 40
4.0
 40
5.0
 40
5.0
 40
5.0
 40
6.0
 40
6.0
 40
6.0
 40
7.0
 40
7.0
 40
7.0
 40
8.0
 40
8.0
 40
8.0
 40
9.0
 40
9.0
 40
9.0
 40
10.0
 40
10.0
 40
10.0
 40
11.0
 40
11.0
 40
11.0
 40
12.0
 40
12.0
 40
12.0
 40
13.0
 40
13.0
 40
13.0
 40
14.0
 40
14.0
 40
14.0
 40
15.0
 40
15.0
 40
15.0
 40
16.0
 40
16.0
 40
16.0
 40
17.0
 40
17.0
 40
17.0
 40
18.0
 40
18.0
 40
18.0
 40
19.0
 40
19.0
 40
19.0
 40
20.0
 40
20.0
 40
20.0
 40
21.0
 40
21.0
 40
21.0
 40
22.0
 40
22.0
 40
22.0
 40
23.0
 40
23.0
 40
23.0
 40
24.0
 40
24.0
 40
24.0
 40
25.0
 40
25.0
 40
25.0
 40
26.0
 40
26.0
 40
26.0
 40
27.0
 40
27.0
 40
27.0
 40
28.0
 40
28.0
 40
28.0
 40
29.0
 40
29.0
 40
29.0
 40
30.0
 40
30.0
 40
30.0
 40
31.0
 40
31.0
 40
31.0
 40
32.0
 40
32.0
 40
32.0
 40
33.0
 40
33.0
 40
33.0
 40
34.0
 40
34.0
 40
34.0
 40
35.0
 40
35.0
 40
35.0
 40
36.0
 40
36.0
 40
36.0
 40
37.0
 40
37.0
 40
37.0
 40
38.0
 40
38.0
 40
38.0
 40
39.0
 40
39.0
 40
39.0
 40
39.0
 10
3.897505240645589
 20
-42.65426665614374
 10
3.897505240645589
 20
-42.55168857017861
 10
3.919781223946377
 20
-42.45131265961403
 10
3.964420796589694
 20
-42.35312861785638
 10
3.268485272645218
 20
-42.35312861785638
 10
2.808946922195711
 20
-42.35982790339582
 10
2.585929424358596
 20
-42.37321273235026
 10
2.590315738621181
 20
-43.65802576179041
 10
2.599308241133498
 20
-44.44545978407723
 10
2.612693928970707
 20
-44.73538768456208
 10
2.612693928970707
 20
-44.73538768456208
 10
3.36886032432714
 20
-44.7220165977318
 10
3.36886032432714
 20
-44.7220165977318
 10
3.386640056371915
 20
-44.61943507623583
 10
3.407865626055304
 20
-44.53244743015653
 10
3.43243310856408
 20
-44.46103304630777
 10
3.456899242906375
 20
-44.38972516392138
 10
3.504897047147021
 20
-44.35396128573499
 10
3.576309713230279
 20
-44.35396128573499
 10
3.643226128057424
 20
-44.35396128573499
 10
3.690055851742424
 20
-44.39191359719764
 10
3.716828086299504
 20
-44.46772202525403
 10
3.734607818344304
 20
-44.51687073239486
 10
3.745789613015404
 20
-44.77333999602486
 10
3.750285864271568
 20
-45.23727410844751
 10
3.750285864271568
 20
-45.39348426956833
 10
3.705646291628075
 20
-45.47148113090083
 10
3.616453034617608
 20
-45.47148113090083
 10
3.496006751683429
 20
-45.47148113090083
 10
3.426784236641778
 20
-45.41795212167626
 10
3.409003645714443
 20
-45.31087349004138
 10
3.409003645714443
 20
-45.31087349004138
 10
3.375545867742403
 20
-45.10343956102805
 10
3.375545867742403
 20
-45.10343956102805
 10
3.250603333551857
 20
-45.09455184221249
 10
3.130157050617804
 20
-45.09005473207362
 10
3.01419928899491
 20
-45.09005473207362
 10
2.871367085766602
 20
-45.09005473207362
 10
2.737534256112427
 20
-45.0967402754886
 10
2.612693928970707
 20
-45.11012510444291
 10
2.612693928970707
 20
-45.11012510444291
 10
2.585929424358596
 20
-46.80313419061918
 10
2.585929424358596
 20
-46.80313419061918
 10
2.585929424358596
 20
-46.80313419061918
 10
4.131712263098734
 20
-46.80313419061918
 10
4.131712263098734
 20
-46.80313419061918
 10
4.238786600319852
 20
-46.80313419061918
 10
4.314593310610563
 20
-46.75294795310237
 10
4.359232883254056
 20
-46.65257204253763
 10
4.403771107731674
 20
-46.55219956750403
 10
4.4316968218373
 20
-46.43625039470903
 10
4.442878616508576
 20
-46.30460771609652
 10
4.453972805138114
 20
-46.17306466788444
 10
4.510846303835655
 20
-46.10719866667473
 10
4.613526596849194
 20
-46.10719866667473
 10
4.711594689433721
 20
-46.10719866667473
 10
4.760745973223189
 20
-46.14515441366848
 10
4.760745973223189
 20
-46.22095940619374
 10
4.760745973223189
 20
-46.62245617739028
 10
4.735024152283358
 20
-46.88574497014611
 10
4.683785783383832
 20
-47.01058529728791
 10
4.632445207435517
 20
-47.13552525482999
 10
4.524231991672701
 20
-47.19794885393195
 10
4.359232883254056
 20
-47.19794885393195
 10
4.359232883254056
 20
-47.19794885393195
 10
2.338335855185467
 20
-47.19794885393195
 10
2.338335855185467
 20
-47.19794885393195
 10
2.266916318040115
 20
-47.19794885393195
 10
2.097428688310237
 20
-47.19565391919306
 10
1.829763029002088
 20
-47.19126331051666
 10
1.562090498631973
 20
-47.18676620037778
 10
1.382456886841093
 20
-47.18006347930748
 10
1.291075196554301
 20
-47.17118950261612
 10
1.199590440335997
 20
-47.16229834826959
 10
1.153891865247791
 20
-47.11764675126763
 10
1.153891865247791
 20
-47.03734121307249
 10
1.153891865247791
 20
-46.93028319462375
 10
1.19404377546266
 20
-46.86336592091402
 10
1.274345878126926
 20
-46.83659282747403
 10
1.354648839673726
 20
-46.80983691168957
 10
1.446030529960593
 20
-46.79205460299666
 10
1.548703951912002
 20
-46.78306381824973
 10
1.562090498631973
 20
-46.68048573228472
 10
1.575477045351881
 20
-45.96666826924694
 10
1.588855862126858
 20
-44.64171105953667
 10
1.588855862126858
 20
-43.3970456458975
 10
1.579863359614541
 20
-42.63868995838222
 10
1.562090498631973
 20
-42.36651344681083
 10
1.562090498631973
 20
-42.36651344681083
 10
1.448329759112969
 20
-42.36651344681083
 10
1.448329759112969
 20
-42.36651344681083
 10
1.260960190289716
 20
-42.36651344681083
 10
1.167278411967775
 20
-42.31748154772541
 10
1.167278411967775
 20
-42.21929407043694
 10
1.167278411967775
 20
-42.09445374329526
 10
1.249777536735665
 20
-42.03193394932403
 10
1.414871981140739
 20
-42.03193394932403
 10
1.990360363268312
 20
-42.03193394932403
 10
2.479905500754638
 20
-42.02858774208541
 10
2.883709231048531
 20
-42.02188845654624
 10
3.287404742114278
 20
-42.01520291313111
 10
3.663297359309581
 20
-42.00965796602319
 10
4.011265121281818
 20
-42.00516085588416
 10
4.600140909012175
 20
-42.00516085588416
 10
4.894577943994439
 20
-42.20821448281418
 10
4.894577943994439
 20
-42.61410529821847
 10
4.894577943994439
 20
-42.73906243341583
 10
4.849923770344149
 20
-42.85501504174181
 10
4.760745973223189
 20
-42.96209023784584
 10
4.671450509163681
 20
-43.06914825629471
 10
4.542114789648773
 20
-43.12268070105001
 10
4.372619429973964
 20
-43.12268070105001
 10
4.225400912482806
 20
-43.12268070105001
 10
4.109347814873495
 20
-43.08033090984875
 10
4.024651668001726
 20
-42.99554543916985
 10
3.939853314081397
 20
-42.91085272782917
 10
3.897505240645589
 20
-42.79708855277904
 10
3.897505240645589
 20
-42.65426665614374
 97
        0
 97
        0
 75
     2
 76
     1
 98
        0
  0
ENDBLK
  5
44
330
41
100
AcDbEntity
  8
0
100
AcDbBlockEnd
  0
ENDSEC
  0
SECTION
  2
ENTITIES
  0
INSERT
  5
42
330
1F
100
AcDbEntity
  8
Layer 1
100
AcDbBlockReference
  2
block 2
 10
0.0
 20
0.0
 30
0.0
  0
ENDSEC
  0
SECTION
  2
OBJECTS
  0
DICTIONARY
  5
C
330
0
100
AcDbDictionary
281
     1
  3
ACAD_GROUP
350
D
  3
ACAD_LAYOUT
350
1A
  3
ACAD_MATERIAL
350
3B
  3
ACAD_MLEADERSTYLE
350
58
  3
ACAD_MLINESTYLE
350
17
  3
ACAD_PLOTSETTINGS
350
19
  3
ACAD_PLOTSTYLENAME
350
E
  3
ACAD_TABLESTYLE
350
57
  3
ACAD_VISUALSTYLE
350
2A
  0
SUN
  5
3F
330
29
100
AcDbSun
 90
        1
290
     0
 63
     7
421
 16777215
 40
1.0
291
     1
 91
  2455826
 92
 54000000
292
     0
 70
     2
 71
   256
280
     1
  0
DICTIONARY
  5
D
102
{ACAD_REACTORS
330
C
102
}
330
C
100
AcDbDictionary
281
     1
  0
DICTIONARY
  5
1A
102
{ACAD_REACTORS
330
C
102
}
330
C
100
AcDbDictionary
281
     1
  3
Layout1
350
1E
  3
Layout2
350
26
  3
Model
350
22
  0
DICTIONARY
  5
3B
102
{ACAD_REACTORS
330
C
102
}
330
C
100
AcDbDictionary
281
     1
  3
ByBlock
350
3D
  3
ByLayer
350
3C
  3
Global
350
3E
  0
DICTIONARY
  5
58
102
{ACAD_REACTORS
330
C
102
}
330
C
100
AcDbDictionary
281
     1
  0
DICTIONARY
  5
17
102
{ACAD_REACTORS
330
C
102
}
330
C
100
AcDbDictionary
281
     1
  3
Standard
350
18
  0
DICTIONARY
  5
19
102
{ACAD_REACTORS
330
C
102
}
330
C
100
AcDbDictionary
281
     1
  0
ACDBDICTIONARYWDFLT
  5
E
102
{ACAD_REACTORS
330
C
102
}
330
C
100
AcDbDictionary
281
     1
  3
Normal
350
F
100
AcDbDictionaryWithDefault
340
F
  0
DICTIONARY
  5
57
102
{ACAD_REACTORS
330
C
102
}
330
C
100
AcDbDictionary
281
     1
  0
DICTIONARY
  5
2A
102
{ACAD_REACTORS
330
C
102
}
330
C
100
AcDbDictionary
281
     1
  3
2dWireframe
350
2F
  3
3D Hidden
350
31
  3
3dWireframe
350
30
  3
Basic
350
32
  3
Brighten
350
36
  3
ColorChange
350
3A
  3
Conceptual
350
34
  3
Dim
350
35
  3
Facepattern
350
39
  3
Flat
350
2B
  3
FlatWithEdges
350
2C
  3
Gouraud
350
2D
  3
GouraudWithEdges
350
2E
  3
Linepattern
350
38
  3
Realistic
350
33
  3
Thicken
350
37
  0
LAYOUT
  5
1E
102
{ACAD_REACTORS
330
1A
102
}
330
1A
100
AcDbPlotSettings
  1

  2
none_device
  4

  6

 40
0.0
 41
0.0
 42
0.0
 43
0.0
 44
0.0
 45
0.0
 46
0.0
 47
0.0
 48
0.0
 49
0.0
140
0.0
141
0.0
142
1.0
143
1.0
 70
   688
 72
     0
 73
     0
 74
     5
  7

 75
    16
 76
     0
 77
     2
 78
   300
147
1.0
148
0.0
149
0.0
100
AcDbLayout
  1
Layout1
 70
     1
 71
     1
 10
0.0
 20
0.0
 11
12.0
 21
9.0
 12
0.0
 22
0.0
 32
0.0
 14
1.000000000000000E+20
 24
1.000000000000000E+20
 34
1.000000000000000E+20
 15
-1.000000000000000E+20
 25
-1.000000000000000E+20
 35
-1.000000000000000E+20
146
0.0
 13
0.0
 23
0.0
 33
0.0
 16
1.0
 26
0.0
 36
0.0
 17
0.0
 27
1.0
 37
0.0
 76
     0
330
1B
  0
LAYOUT
  5
26
102
{ACAD_REACTORS
330
1A
102
}
330
1A
100
AcDbPlotSettings
  1

  2
none_device
  4

  6

 40
0.0
 41
0.0
 42
0.0
 43
0.0
 44
0.0
 45
0.0
 46
0.0
 47
0.0
 48
0.0
 49
0.0
140
0.0
141
0.0
142
1.0
143
1.0
 70
   688
 72
     0
 73
     0
 74
     5
  7

 75
    16
 76
     0
 77
     2
 78
   300
147
1.0
148
0.0
149
0.0
100
AcDbLayout
  1
Layout2
 70
     1
 71
     2
 10
0.0
 20
0.0
 11
0.0
 21
0.0
 12
0.0
 22
0.0
 32
0.0
 14
0.0
 24
0.0
 34
0.0
 15
0.0
 25
0.0
 35
0.0
146
0.0
 13
0.0
 23
0.0
 33
0.0
 16
1.0
 26
0.0
 36
0.0
 17
0.0
 27
1.0
 37
0.0
 76
     0
330
23
  0
LAYOUT
  5
22
102
{ACAD_REACTORS
330
1A
102
}
330
1A
100
AcDbPlotSettings
  1

  2
none_device
  4

  6

 40
0.0
 41
0.0
 42
0.0
 43
0.0
 44
0.0
 45
0.0
 46
0.0
 47
0.0
 48
0.0
 49
0.0
140
0.0
141
0.0
142
1.0
143
1.0
 70
  1712
 72
     0
 73
     0
 74
     0
  7

 75
     0
 76
     0
 77
     2
 78
   300
147
1.0
148
0.0
149
0.0
100
AcDbLayout
  1
Model
 70
     1
 71
     0
 10
0.0
 20
0.0
 11
12.0
 21
9.0
 12
0.0
 22
0.0
 32
0.0
 14
1.000000000000000E+20
 24
1.000000000000000E+20
 34
1.000000000000000E+20
 15
-1.000000000000000E+20
 25
-1.000000000000000E+20
 35
-1.000000000000000E+20
146
0.0
 13
0.0
 23
0.0
 33
0.0
 16
1.0
 26
0.0
 36
0.0
 17
0.0
 27
1.0
 37
0.0
 76
     0
330
1F
331
29
  0
MATERIAL
  5
3D
102
{ACAD_REACTORS
330
3B
102
}
330
3B
100
AcDbMaterial
  1
ByBlock
 72
     1
 94
      127
  0
MATERIAL
  5
3C
102
{ACAD_REACTORS
330
3B
102
}
330
3B
100
AcDbMaterial
  1
ByLayer
 72
     1
 94
      127
  0
MATERIAL
  5
3E
102
{ACAD_REACTORS
330
3B
102
}
330
3B
100
AcDbMaterial
  1
Global
 72
     1
 94
      127
  0
MLINESTYLE
  5
18
102
{ACAD_REACTORS
330
17
102
}
330
17
100
AcDbMlineStyle
  2
Standard
 70
     0
  3

 62
   256
 51
90.0
 52
90.0
 71
     2
 49
0.5
 62
   256
  6
BYLAYER
 49
-0.5
 62
   256
  6
BYLAYER
  0
ACDBPLACEHOLDER
  5
F
102
{ACAD_REACTORS
330
E
102
}
330
E
  0
VISUALSTYLE
  5
2F
102
{ACAD_REACTORS
330
2A
102
}
330
2A
100
AcDbVisualStyle
  2
2dWireframe
 70
     4
177
     2
291
     0
 71
     0
176
     1
 72
     2
176
     1
 73
     0
176
     1
 90
        0
176
     1
 40
-0.6
176
     1
 41
-30.0
176
     1
 62
     5
 63
     7
421
 16777215
176
     1
 74
     1
176
     1
 91
        4
176
     1
 64
     7
176
     1
 65
   257
176
     1
 75
     1
176
     1
175
     1
176
     1
 42
1.0
176
     1
 92
        0
176
     1
 66
   257
176
     1
 43
1.0
176
     1
 76
     1
176
     1
 77
     6
176
     1
 78
     2
176
     1
 67
     7
176
     1
 79
     5
176
     1
170
     0
176
     1
171
     0
176
     1
290
     0
176
     1
 93
        1
176
     1
 44
0.0
176
     1
173
     0
176
     1
  0
VISUALSTYLE
  5
31
102
{ACAD_REACTORS
330
2A
102
}
330
2A
100
AcDbVisualStyle
  2
3D Hidden
 70
     6
177
     2
291
     0
 71
     1
176
     1
 72
     2
176
     1
 73
     2
176
     1
 90
        0
176
     1
 40
-0.6
176
     1
 41
-30.0
176
     1
 62
     5
 63
     7
421
 16777215
176
     1
 74
     2
176
     1
 91
        2
176
     1
 64
     7
176
     1
 65
   257
176
     1
 75
     2
176
     1
175
     1
176
     1
 42
40.0
176
     1
 92
        0
176
     1
 66
   257
176
     1
 43
1.0
176
     1
 76
     1
176
     1
 77
     6
176
     1
 78
     2
176
     1
 67
     7
176
     1
 79
     3
176
     1
170
     0
176
     1
171
     0
176
     1
290
     0
176
     1
 93
        1
176
     1
 44
0.0
176
     1
173
     0
176
     1
  0
VISUALSTYLE
  5
30
102
{ACAD_REACTORS
330
2A
102
}
330
2A
100
AcDbVisualStyle
  2
3dWireframe
 70
     5
177
     2
291
     0
 71
     0
176
     1
 72
     2
176
     1
 73
     0
176
     1
 90
        0
176
     1
 40
-0.6
176
     1
 41
-30.0
176
     1
 62
     5
 63
     7
421
 16777215
176
     1
 74
     1
176
     1
 91
        4
176
     1
 64
     7
176
     1
 65
   257
176
     1
 75
     1
176
     1
175
     1
176
     1
 42
1.0
176
     1
 92
        0
176
     1
 66
   257
176
     1
 43
1.0
176
     1
 76
     1
176
     1
 77
     6
176
     1
 78
     2
176
     1
 67
     7
176
     1
 79
     5
176
     1
170
     0
176
     1
171
     0
176
     1
290
     0
176
     1
 93
        1
176
     1
 44
0.0
176
     1
173
     0
176
     1
  0
VISUALSTYLE
  5
32
102
{ACAD_REACTORS
330
2A
102
}
330
2A
100
AcDbVisualStyle
  2
Basic
 70
     7
177
     2
291
     1
 71
     1
176
     1
 72
     0
176
     1
 73
     1
176
     1
 90
        0
176
     1
 40
-0.6
176
     1
 41
-30.0
176
     1
 62
     5
 63
     7
421
 16777215
176
     1
 74
     0
176
     1
 91
        4
176
     1
 64
     7
176
     1
 65
   257
176
     1
 75
     1
176
     1
175
     1
176
     1
 42
1.0
176
     1
 92
        8
176
     1
 66
     7
176
     1
 43
1.0
176
     1
 76
     1
176
     1
 77
     6
176
     1
 78
     2
176
     1
 67
     7
176
     1
 79
     5
176
     1
170
     0
176
     1
171
     0
176
     1
290
     0
176
     1
 93
        1
176
     1
 44
0.0
176
     1
173
     0
176
     1
  0
VISUALSTYLE
  5
36
102
{ACAD_REACTORS
330
2A
102
}
330
2A
100
AcDbVisualStyle
  2
Brighten
 70
    12
177
     2
291
     1
 71
     2
176
     1
 72
     2
176
     1
 73
     0
176
     1
 90
        0
176
     1
 40
-0.6
176
     1
 41
-30.0
176
     1
 62
     5
 63
     7
421
 16777215
176
     1
 74
     1
176
     1
 91
        4
176
     1
 64
     7
176
     1
 65
   257
176
     1
 75
     1
176
     1
175
     1
176
     1
 42
1.0
176
     1
 92
        8
176
     1
 66
     7
176
     1
 43
1.0
176
     1
 76
     1
176
     1
 77
     6
176
     1
 78
     2
176
     1
 67
     7
176
     1
 79
     5
176
     1
170
     0
176
     1
171
     0
176
     1
290
     0
176
     1
 93
        1
176
     1
 44
50.0
176
     1
173
     0
176
     1
  0
VISUALSTYLE
  5
3A
102
{ACAD_REACTORS
330
2A
102
}
330
2A
100
AcDbVisualStyle
  2
ColorChange
 70
    16
177
     2
291
     1
 71
     2
176
     1
 72
     2
176
     1
 73
     3
176
     1
 90
        0
176
     1
 40
-0.6
176
     1
 41
-30.0
176
     1
 62
     5
 63
     8
421
  8421504
176
     1
 74
     1
176
     1
 91
        4
176
     1
 64
     7
176
     1
 65
   257
176
     1
 75
     1
176
     1
175
     1
176
     1
 42
1.0
176
     1
 92
        8
176
     1
 66
     8
424
  8421504
176
     1
 43
1.0
176
     1
 76
     1
176
     1
 77
     6
176
     1
 78
     2
176
     1
 67
     7
176
     1
 79
     5
176
     1
170
     0
176
     1
171
     0
176
     1
290
     0
176
     1
 93
        1
176
     1
 44
0.0
176
     1
173
     0
176
     1
  0
VISUALSTYLE
  5
34
102
{ACAD_REACTORS
330
2A
102
}
330
2A
100
AcDbVisualStyle
  2
Conceptual
 70
     9
177
     2
291
     0
 71
     3
176
     1
 72
     2
176
     1
 73
     0
176
     1
 90
        0
176
     1
 40
-0.6
176
     1
 41
-30.0
176
     1
 62
     5
 63
     7
421
 16777215
176
     1
 74
     2
176
     1
 91
        2
176
     1
 64
     7
176
     1
 65
   257
176
     1
 75
     1
176
     1
175
     1
176
     1
 42
40.0
176
     1
 92
        8
176
     1
 66
     7
176
     1
 43
1.0
176
     1
 76
     1
176
     1
 77
     6
176
     1
 78
     2
176
     1
 67
     7
176
     1
 79
     3
176
     1
170
     0
176
     1
171
     0
176
     1
290
     0
176
     1
 93
        1
176
     1
 44
0.0
176
     1
173
     0
176
     1
  0
VISUALSTYLE
  5
35
102
{ACAD_REACTORS
330
2A
102
}
330
2A
100
AcDbVisualStyle
  2
Dim
 70
    11
177
     2
291
     1
 71
     2
176
     1
 72
     2
176
     1
 73
     0
176
     1
 90
        0
176
     1
 40
-0.6
176
     1
 41
-30.0
176
     1
 62
     5
 63
     7
421
 16777215
176
     1
 74
     1
176
     1
 91
        4
176
     1
 64
     7
176
     1
 65
   257
176
     1
 75
     1
176
     1
175
     1
176
     1
 42
1.0
176
     1
 92
        8
176
     1
 66
     7
176
     1
 43
1.0
176
     1
 76
     1
176
     1
 77
     6
176
     1
 78
     2
176
     1
 67
     7
176
     1
 79
     5
176
     1
170
     0
176
     1
171
     0
176
     1
290
     0
176
     1
 93
        1
176
     1
 44
-50.0
176
     1
173
     0
176
     1
  0
VISUALSTYLE
  5
39
102
{ACAD_REACTORS
330
2A
102
}
330
2A
100
AcDbVisualStyle
  2
Facepattern
 70
    15
177
     2
291
     1
 71
     2
176
     1
 72
     2
176
     1
 73
     0
176
     1
 90
        0
176
     1
 40
-0.6
176
     1
 41
-30.0
176
     1
 62
     5
 63
     7
421
 16777215
176
     1
 74
     1
176
     1
 91
        4
176
     1
 64
     7
176
     1
 65
   257
176
     1
 75
     1
176
     1
175
     1
176
     1
 42
1.0
176
     1
 92
        8
176
     1
 66
     7
176
     1
 43
1.0
176
     1
 76
     1
176
     1
 77
     6
176
     1
 78
     2
176
     1
 67
     7
176
     1
 79
     5
176
     1
170
     0
176
     1
171
     0
176
     1
290
     0
176
     1
 93
        1
176
     1
 44
0.0
176
     1
173
     0
176
     1
  0
VISUALSTYLE
  5
2B
102
{ACAD_REACTORS
330
2A
102
}
330
2A
100
AcDbVisualStyle
  2
Flat
 70
     0
177
     2
291
     1
 71
     2
176
     1
 72
     1
176
     1
 73
     1
176
     1
 90
        2
176
     1
 40
-0.6
176
     1
 41
30.0
176
     1
 62
     5
 63
     7
421
 16777215
176
     1
 74
     0
176
     1
 91
        4
176
     1
 64
     7
176
     1
 65
   257
176
     1
 75
     1
176
     1
175
     1
176
     1
 42
1.0
176
     1
 92
        8
176
     1
 66
     7
176
     1
 43
1.0
176
     1
 76
     1
176
     1
 77
     6
176
     1
 78
     2
176
     1
 67
     7
176
     1
 79
     5
176
     1
170
     0
176
     1
171
     0
176
     1
290
     0
176
     1
 93
       13
176
     1
 44
0.0
176
     1
173
     0
176
     1
  0
VISUALSTYLE
  5
2C
102
{ACAD_REACTORS
330
2A
102
}
330
2A
100
AcDbVisualStyle
  2
FlatWithEdges
 70
     1
177
     2
291
     1
 71
     2
176
     1
 72
     1
176
     1
 73
     1
176
     1
 90
        2
176
     1
 40
-0.6
176
     1
 41
30.0
176
     1
 62
     5
 63
     7
421
 16777215
176
     1
 74
     1
176
     1
 91
        4
176
     1
 64
     7
176
     1
 65
   257
176
     1
 75
     1
176
     1
175
     1
176
     1
 42
1.0
176
     1
 92
        0
176
     1
 66
   257
176
     1
 43
1.0
176
     1
 76
     1
176
     1
 77
     6
176
     1
 78
     2
176
     1
 67
     7
176
     1
 79
     5
176
     1
170
     0
176
     1
171
     0
176
     1
290
     0
176
     1
 93
       13
176
     1
 44
0.0
176
     1
173
     0
176
     1
  0
VISUALSTYLE
  5
2D
102
{ACAD_REACTORS
330
2A
102
}
330
2A
100
AcDbVisualStyle
  2
Gouraud
 70
     2
177
     2
291
     1
 71
     2
176
     1
 72
     2
176
     1
 73
     1
176
     1
 90
        2
176
     1
 40
-0.6
176
     1
 41
30.0
176
     1
 62
     5
 63
     7
421
 16777215
176
     1
 74
     0
176
     1
 91
        4
176
     1
 64
     7
176
     1
 65
   257
176
     1
 75
     1
176
     1
175
     1
176
     1
 42
1.0
176
     1
 92
        0
176
     1
 66
     7
176
     1
 43
1.0
176
     1
 76
     1
176
     1
 77
     6
176
     1
 78
     2
176
     1
 67
     7
176
     1
 79
     5
176
     1
170
     0
176
     1
171
     0
176
     1
290
     0
176
     1
 93
       13
176
     1
 44
0.0
176
     1
173
     0
176
     1
  0
VISUALSTYLE
  5
2E
102
{ACAD_REACTORS
330
2A
102
}
330
2A
100
AcDbVisualStyle
  2
GouraudWithEdges
 70
     3
177
     2
291
     1
 71
     2
176
     1
 72
     2
176
     1
 73
     1
176
     1
 90
        2
176
     1
 40
-0.6
176
     1
 41
30.0
176
     1
 62
     5
 63
     7
421
 16777215
176
     1
 74
     1
176
     1
 91
        4
176
     1
 64
     7
176
     1
 65
   257
176
     1
 75
     1
176
     1
175
     1
176
     1
 42
1.0
176
     1
 92
        0
176
     1
 66
   257
176
     1
 43
1.0
176
     1
 76
     1
176
     1
 77
     6
176
     1
 78
     2
176
     1
 67
     7
176
     1
 79
     5
176
     1
170
     0
176
     1
171
     0
176
     1
290
     0
176
     1
 93
       13
176
     1
 44
0.0
176
     1
173
     0
176
     1
  0
VISUALSTYLE
  5
38
102
{ACAD_REACTORS
330
2A
102
}
330
2A
100
AcDbVisualStyle
  2
Linepattern
 70
    14
177
     2
291
     1
 71
     2
176
     1
 72
     2
176
     1
 73
     0
176
     1
 90
        0
176
     1
 40
-0.6
176
     1
 41
-30.0
176
     1
 62
     5
 63
     7
421
 16777215
176
     1
 74
     1
176
     1
 91
        4
176
     1
 64
     7
176
     1
 65
   257
176
     1
 75
     7
176
     1
175
     7
176
     1
 42
1.0
176
     1
 92
        8
176
     1
 66
     7
176
     1
 43
1.0
176
     1
 76
     1
176
     1
 77
     6
176
     1
 78
     2
176
     1
 67
     7
176
     1
 79
     5
176
     1
170
     0
176
     1
171
     0
176
     1
290
     0
176
     1
 93
        1
176
     1
 44
0.0
176
     1
173
     0
176
     1
  0
VISUALSTYLE
  5
33
102
{ACAD_REACTORS
330
2A
102
}
330
2A
100
AcDbVisualStyle
  2
Realistic
 70
     8
177
     2
291
     0
 71
     2
176
     1
 72
     2
176
     1
 73
     0
176
     1
 90
        0
176
     1
 40
-0.6
176
     1
 41
-30.0
176
     1
 62
     5
 63
     7
421
 16777215
176
     1
 74
     1
176
     1
 91
        0
176
     1
 64
     7
176
     1
 65
   257
176
     1
 75
     1
176
     1
175
     1
176
     1
 42
1.0
176
     1
 92
        8
176
     1
 66
     8
424
  7895160
176
     1
 43
1.0
176
     1
 76
     1
176
     1
 77
     6
176
     1
 78
     2
176
     1
 67
     7
176
     1
 79
     5
176
     1
170
     0
176
     1
171
     0
176
     1
290
     0
176
     1
 93
       13
176
     1
 44
0.0
176
     1
173
     0
176
     1
  0
VISUALSTYLE
  5
37
102
{ACAD_REACTORS
330
2A
102
}
330
2A
100
AcDbVisualStyle
  2
Thicken
 70
    13
177
     2
291
     1
 71
     2
176
     1
 72
     2
176
     1
 73
     0
176
     1
 90
        0
176
     1
 40
-0.6
176
     1
 41
-30.0
176
     1
 62
     5
 63
     7
421
 16777215
176
     1
 74
     1
176
     1
 91
        4
176
     1
 64
     7
176
     1
 65
   257
176
     1
 75
     1
176
     1
175
     1
176
     1
 42
1.0
176
     1
 92
       12
176
     1
 66
     7
176
     1
 43
1.0
176
     1
 76
     1
176
     1
 77
     6
176
     1
 78
     2
176
     1
 67
     7
176
     1
 79
     5
176
     1
170
     0
176
     1
171
     0
176
     1
290
     0
176
     1
 93
        1
176
     1
 44
0.0
176
     1
173
     0
176
     1
  0
ENDSEC
  0
EOF
