  0
SECTION
  2
HEADER
  9
$ACADVER
  1
AC1024
  9
$ACADMAINTVER
 70
     6
  9
$DWGCODEPAGE
  3
ANSI_1252
  9
$INSBASE
 10
0.0
 20
0.0
 30
0.0
  9
$EXTMIN
 10
1.000000000000000E+20
 20
1.000000000000000E+20
 30
1.000000000000000E+20
  9
$EXTMAX
 10
-1.000000000000000E+20
 20
-1.000000000000000E+20
 30
-1.000000000000000E+20
  9
$LIMMIN
 10
0.0
 20
0.0
  9
$LIMMAX
 10
12.0
 20
9.0
  9
$ORTHOMODE
 70
     0
  9
$REGENMODE
 70
     1
  9
$FILLMODE
 70
     1
  9
$QTEXTMODE
 70
     0
  9
$MIRRTEXT
 70
     1
  9
$LTSCALE
 40
1.0
  9
$ATTMODE
 70
     1
  9
$TEXTSIZE
 40
0.2
  9
$TRACEWID
 40
0.05
  9
$TEXTSTYLE
  7
Standard
  9
$CLAYER
  8
0
  9
$CELTYPE
  6
ByLayer
  9
$CECOLOR
 62
   256
  9
$CELTSCALE
 40
1.0
  9
$DISPSILH
 70
     0
  9
$DIMSCALE
 40
1.0
  9
$DIMASZ
 40
0.18
  9
$DIMEXO
 40
0.0625
  9
$DIMDLI
 40
0.38
  9
$DIMRND
 40
0.0
  9
$DIMDLE
 40
0.0
  9
$DIMEXE
 40
0.18
  9
$DIMTP
 40
0.0
  9
$DIMTM
 40
0.0
  9
$DIMTXT
 40
0.18
  9
$DIMCEN
 40
0.09
  9
$DIMTSZ
 40
0.0
  9
$DIMTOL
 70
     0
  9
$DIMLIM
 70
     0
  9
$DIMTIH
 70
     1
  9
$DIMTOH
 70
     1
  9
$DIMSE1
 70
     0
  9
$DIMSE2
 70
     0
  9
$DIMTAD
 70
     0
  9
$DIMZIN
 70
     0
  9
$DIMBLK
  1

  9
$DIMASO
 70
     1
  9
$DIMSHO
 70
     1
  9
$DIMPOST
  1

  9
$DIMAPOST
  1

  9
$DIMALT
 70
     0
  9
$DIMALTD
 70
     2
  9
$DIMALTF
 40
25.4
  9
$DIMLFAC
 40
1.0
  9
$DIMTOFL
 70
     0
  9
$DIMTVP
 40
0.0
  9
$DIMTIX
 70
     0
  9
$DIMSOXD
 70
     0
  9
$DIMSAH
 70
     0
  9
$DIMBLK1
  1

  9
$DIMBLK2
  1

  9
$DIMSTYLE
  2
Standard
  9
$DIMCLRD
 70
     0
  9
$DIMCLRE
 70
     0
  9
$DIMCLRT
 70
     0
  9
$DIMTFAC
 40
1.0
  9
$DIMGAP
 40
0.09
  9
$DIMJUST
 70
     0
  9
$DIMSD1
 70
     0
  9
$DIMSD2
 70
     0
  9
$DIMTOLJ
 70
     1
  9
$DIMTZIN
 70
     0
  9
$DIMALTZ
 70
     0
  9
$DIMALTTZ
 70
     0
  9
$DIMUPT
 70
     0
  9
$DIMDEC
 70
     4
  9
$DIMTDEC
 70
     4
  9
$DIMALTU
 70
     2
  9
$DIMALTTD
 70
     2
  9
$DIMTXSTY
  7
Standard
  9
$DIMAUNIT
 70
     0
  9
$DIMADEC
 70
     0
  9
$DIMALTRND
 40
0.0
  9
$DIMAZIN
 70
     0
  9
$DIMDSEP
 70
    46
  9
$DIMATFIT
 70
     3
  9
$DIMFRAC
 70
     0
  9
$DIMLDRBLK
  1

  9
$DIMLUNIT
 70
     2
  9
$DIMLWD
 70
    -2
  9
$DIMLWE
 70
    -2
  9
$DIMTMOVE
 70
     0
  9
$DIMFXL
 40
1.0
  9
$DIMFXLON
 70
     0
  9
$DIMJOGANG
 40
0.7853981633974483
  9
$DIMTFILL
 70
     0
  9
$DIMTFILLCLR
 70
     0
  9
$DIMARCSYM
 70
     0
  9
$DIMLTYPE
  6

  9
$DIMLTEX1
  6

  9
$DIMLTEX2
  6

  9
$DIMTXTDIRECTION
 70
     0
  9
$LUNITS
 70
     2
  9
$LUPREC
 70
     4
  9
$SKETCHINC
 40
0.1
  9
$FILLETRAD
 40
0.5
  9
$AUNITS
 70
     0
  9
$AUPREC
 70
     0
  9
$MENU
  1
.
  9
$ELEVATION
 40
0.0
  9
$PELEVATION
 40
0.0
  9
$THICKNESS
 40
0.0
  9
$LIMCHECK
 70
     0
  9
$CHAMFERA
 40
0.5
  9
$CHAMFERB
 40
0.5
  9
$CHAMFERC
 40
1.0
  9
$CHAMFERD
 40
0.0
  9
$SKPOLY
 70
     0
  9
$TDCREATE
 40
2459065.806743588
  9
$TDUCREATE
 40
2459065.577576921
  9
$TDUPDATE
 40
2459065.806743623
  9
$TDUUPDATE
 40
2459065.577576956
  9
$TDINDWG
 40
0.0000000116
  9
$TDUSRTIMER
 40
0.0000000116
  9
$USRTIMER
 70
     1
  9
$ANGBASE
 50
0.0
  9
$ANGDIR
 70
     0
  9
$PDMODE
 70
     0
  9
$PDSIZE
 40
0.0
  9
$PLINEWID
 40
0.0
  9
$SPLFRAME
 70
     0
  9
$SPLINETYPE
 70
     6
  9
$SPLINESEGS
 70
     8
  9
$HANDSEED
  5
5A
  9
$SURFTAB1
 70
     6
  9
$SURFTAB2
 70
     6
  9
$SURFTYPE
 70
     6
  9
$SURFU
 70
     6
  9
$SURFV
 70
     6
  9
$UCSBASE
  2

  9
$UCSNAME
  2

  9
$UCSORG
 10
0.0
 20
0.0
 30
0.0
  9
$UCSXDIR
 10
1.0
 20
0.0
 30
0.0
  9
$UCSYDIR
 10
0.0
 20
1.0
 30
0.0
  9
$UCSORTHOREF
  2

  9
$UCSORTHOVIEW
 70
     0
  9
$UCSORGTOP
 10
0.0
 20
0.0
 30
0.0
  9
$UCSORGBOTTOM
 10
0.0
 20
0.0
 30
0.0
  9
$UCSORGLEFT
 10
0.0
 20
0.0
 30
0.0
  9
$UCSORGRIGHT
 10
0.0
 20
0.0
 30
0.0
  9
$UCSORGFRONT
 10
0.0
 20
0.0
 30
0.0
  9
$UCSORGBACK
 10
0.0
 20
0.0
 30
0.0
  9
$PUCSBASE
  2

  9
$PUCSNAME
  2

  9
$PUCSORG
 10
0.0
 20
0.0
 30
0.0
  9
$PUCSXDIR
 10
1.0
 20
0.0
 30
0.0
  9
$PUCSYDIR
 10
0.0
 20
1.0
 30
0.0
  9
$PUCSORTHOREF
  2

  9
$PUCSORTHOVIEW
 70
     0
  9
$PUCSORGTOP
 10
0.0
 20
0.0
 30
0.0
  9
$PUCSORGBOTTOM
 10
0.0
 20
0.0
 30
0.0
  9
$PUCSORGLEFT
 10
0.0
 20
0.0
 30
0.0
  9
$PUCSORGRIGHT
 10
0.0
 20
0.0
 30
0.0
  9
$PUCSORGFRONT
 10
0.0
 20
0.0
 30
0.0
  9
$PUCSORGBACK
 10
0.0
 20
0.0
 30
0.0
  9
$USERI1
 70
     0
  9
$USERI2
 70
     0
  9
$USERI3
 70
     0
  9
$USERI4
 70
     0
  9
$USERI5
 70
     0
  9
$USERR1
 40
0.0
  9
$USERR2
 40
0.0
  9
$USERR3
 40
0.0
  9
$USERR4
 40
0.0
  9
$USERR5
 40
0.0
  9
$WORLDVIEW
 70
     1
  9
$SHADEDGE
 70
     3
  9
$SHADEDIF
 70
    70
  9
$TILEMODE
 70
     1
  9
$MAXACTVP
 70
    64
  9
$PINSBASE
 10
0.0
 20
0.0
 30
0.0
  9
$PLIMCHECK
 70
     0
  9
$PEXTMIN
 10
1.000000000000000E+20
 20
1.000000000000000E+20
 30
1.000000000000000E+20
  9
$PEXTMAX
 10
-1.000000000000000E+20
 20
-1.000000000000000E+20
 30
-1.000000000000000E+20
  9
$PLIMMIN
 10
0.0
 20
0.0
  9
$PLIMMAX
 10
12.0
 20
9.0
  9
$UNITMODE
 70
     0
  9
$VISRETAIN
 70
     1
  9
$PLINEGEN
 70
     0
  9
$PSLTSCALE
 70
     1
  9
$TREEDEPTH
 70
  3020
  9
$CMLSTYLE
  2
Standard
  9
$CMLJUST
 70
     0
  9
$CMLSCALE
 40
1.0
  9
$PROXYGRAPHICS
 70
     1
  9
$MEASUREMENT
 70
     0
  9
$CELWEIGHT
370
    -1
  9
$ENDCAPS
280
     0
  9
$JOINSTYLE
280
     0
  9
$LWDISPLAY
290
     1
  9
$INSUNITS
 70
     1
  9
$HYPERLINKBASE
  1

  9
$STYLESHEET
  1

  9
$XEDIT
290
     1
  9
$CEPSNTYPE
380
     0
  9
$PSTYLEMODE
290
     1
  9
$FINGERPRINTGUID
  2
{74B1E1DF-CE7D-436F-B4DB-78A5AFA80460}
  9
$VERSIONGUID
  2
{FAEB1C32-E019-11D5-929B-00C0DF256EC4}
  9
$EXTNAMES
290
     1
  9
$PSVPSCALE
 40
0.0
  9
$OLESTARTUP
290
     0
  9
$SORTENTS
280
   127
  9
$INDEXCTL
280
     0
  9
$HIDETEXT
280
     1
  9
$XCLIPFRAME
280
     2
  9
$HALOGAP
280
     0
  9
$OBSCOLOR
 70
   257
  9
$OBSLTYPE
280
     0
  9
$INTERSECTIONDISPLAY
280
     0
  9
$INTERSECTIONCOLOR
 70
   257
  9
$DIMASSOC
280
     2
  9
$PROJECTNAME
  1

  9
$CAMERADISPLAY
290
     0
  9
$LENSLENGTH
 40
50.0
  9
$CAMERAHEIGHT
 40
0.0
  9
$STEPSPERSEC
 40
2.0
  9
$STEPSIZE
 40
6.0
  9
$3DDWFPREC
 40
2.0
  9
$PSOLWIDTH
 40
0.25
  9
$PSOLHEIGHT
 40
4.0
  9
$LOFTANG1
 40
1.570796326794897
  9
$LOFTANG2
 40
1.570796326794897
  9
$LOFTMAG1
 40
0.0
  9
$LOFTMAG2
 40
0.0
  9
$LOFTPARAM
 70
     7
  9
$LOFTNORMALS
280
     1
  9
$LATITUDE
 40
37.795
  9
$LONGITUDE
 40
-122.394
  9
$NORTHDIRECTION
 40
0.0
  9
$TIMEZONE
 70
 -8000
  9
$LIGHTGLYPHDISPLAY
280
     1
  9
$TILEMODELIGHTSYNCH
280
     1
  9
$CMATERIAL
347
3C
  9
$SOLIDHIST
280
     1
  9
$SHOWHIST
280
     1
  9
$DWFFRAME
280
     2
  9
$DGNFRAME
280
     2
  9
$REALWORLDSCALE
290
     1
  9
$INTERFERECOLOR
 62
   256
  9
$CSHADOW
280
     0
  9
$SHADOWPLANELOCATION
 40
0.0
  0
ENDSEC
  0
SECTION
  2
CLASSES
  0
CLASS
  1
ACDBDICTIONARYWDFLT
  2
AcDbDictionaryWithDefault
  3
ObjectDBX Classes
 90
        0
 91
        4
280
     0
281
     0
  0
CLASS
  1
VISUALSTYLE
  2
AcDbVisualStyle
  3
ObjectDBX Classes
 90
     4095
 91
        4
280
     0
281
     0
  0
CLASS
  1
MATERIAL
  2
AcDbMaterial
  3
ObjectDBX Classes
 90
     1153
 91
        4
280
     0
281
     0
  0
CLASS
  1
SUN
  2
AcDbSun
  3
SCENEOE
 90
     1024
 91
        4
280
     0
281
     0
  0
ENDSEC
  0
SECTION
  2
TABLES
  0
TABLE
  2
VPORT
  5
8
330
0
100
AcDbSymbolTable
 70
     1
  0
VPORT
  5
29
330
8
100
AcDbSymbolTableRecord
100
AcDbViewportTableRecord
  2
*Active
 70
     0
 10
0.0
 20
0.0
 11
1.0
 21
1.0
 12
0.0
 22
0.0
 13
0.0
 23
0.0
 14
0.5
 24
0.5
 15
0.5
 25
0.5
 16
0.0
 26
0.0
 36
1.0
 17
3.0
 27
-24.0
 37
0.0
 40
48.0
 41
0.2083333333333333
 42
50.0
 43
0.0
 44
0.0
 50
0.0
 51
0.0
 71
     0
 72
   100
 73
     1
 74
     3
 75
     0
 76
     0
 77
     0
 78
     0
281
     0
 65
     1
110
0.0
120
0.0
130
0.0
111
1.0
121
0.0
131
0.0
112
0.0
122
1.0
132
0.0
 79
     0
146
0.0
 60
     3
 61
     5
292
     1
282
     1
141
0.0
142
0.0
 63
   250
361
3F
  0
ENDTAB
  0
TABLE
  2
LTYPE
  5
5
330
0
100
AcDbSymbolTable
 70
     1
  0
LTYPE
  5
14
330
5
100
AcDbSymbolTableRecord
100
AcDbLinetypeTableRecord
  2
ByBlock
 70
     0
  3

 72
    65
 73
     0
 40
0.0
  0
LTYPE
  5
15
330
5
100
AcDbSymbolTableRecord
100
AcDbLinetypeTableRecord
  2
ByLayer
 70
     0
  3

 72
    65
 73
     0
 40
0.0
  0
LTYPE
  5
16
330
5
100
AcDbSymbolTableRecord
100
AcDbLinetypeTableRecord
  2
Continuous
 70
     0
  3
Solid line
 72
    65
 73
     0
 40
0.0
  0
ENDTAB
  0
TABLE
  2
LAYER
  5
2
330
0
100
AcDbSymbolTable
 70
     2
  0
LAYER
  5
10
330
2
100
AcDbSymbolTableRecord
100
AcDbLayerTableRecord
  2
0
 70
     0
 62
     7
  6
Continuous
370
    -3
390
F
347
3E
  0
LAYER
  5
40
330
2
100
AcDbSymbolTableRecord
100
AcDbLayerTableRecord
  2
Layer 1
 70
     0
 62
     7
  6
Continuous
370
    -3
390
F
347
3E
  0
ENDTAB
  0
TABLE
  2
STYLE
  5
3
330
0
100
AcDbSymbolTable
 70
     1
  0
STYLE
  5
11
330
3
100
AcDbSymbolTableRecord
100
AcDbTextStyleTableRecord
  2
Standard
 70
     0
 40
0.0
 41
1.0
 50
0.0
 71
     0
 42
0.2
  3
txt
  4

  0
ENDTAB
  0
TABLE
  2
VIEW
  5
6
330
0
100
AcDbSymbolTable
 70
     0
  0
ENDTAB
  0
TABLE
  2
UCS
  5
7
330
0
100
AcDbSymbolTable
 70
     0
  0
ENDTAB
  0
TABLE
  2
APPID
  5
9
330
0
100
AcDbSymbolTable
 70
     1
  0
APPID
  5
12
330
9
100
AcDbSymbolTableRecord
100
AcDbRegAppTableRecord
  2
ACAD
 70
     0
  0
ENDTAB
  0
TABLE
  2
DIMSTYLE
  5
A
330
0
100
AcDbSymbolTable
 70
     1
100
AcDbDimStyleTable
  0
DIMSTYLE
105
27
330
A
100
AcDbSymbolTableRecord
100
AcDbDimStyleTableRecord
  2
Standard
 70
     0
178
     0
340
11
  0
ENDTAB
  0
TABLE
  2
BLOCK_RECORD
  5
1
330
0
100
AcDbSymbolTable
 70
     2
  0
BLOCK_RECORD
  5
1F
330
1
100
AcDbSymbolTableRecord
100
AcDbBlockTableRecord
  2
*Model_Space
340
22
 70
     0
280
     1
281
     0
  0
BLOCK_RECORD
  5
1B
330
1
100
AcDbSymbolTableRecord
100
AcDbBlockTableRecord
  2
*Paper_Space
340
1E
 70
     0
280
     1
281
     0
  0
BLOCK_RECORD
  5
23
330
1
100
AcDbSymbolTableRecord
100
AcDbBlockTableRecord
  2
*Paper_Space0
340
26
 70
     0
280
     1
281
     0
  0
BLOCK_RECORD
  5
41
330
1
100
AcDbSymbolTableRecord
100
AcDbBlockTableRecord
  2
block 2
340
0
102
{BLKREFS
331
42
102
}
 70
     0
280
     1
281
     0
  0
ENDTAB
  0
ENDSEC
  0
SECTION
  2
BLOCKS
  0
BLOCK
  5
20
330
1F
100
AcDbEntity
  8
0
100
AcDbBlockBegin
  2
*Model_Space
 70
     0
 10
0.0
 20
0.0
 30
0.0
  3
*Model_Space
  1

  0
ENDBLK
  5
21
330
1F
100
AcDbEntity
  8
0
100
AcDbBlockEnd
  0
BLOCK
  5
1C
330
1B
100
AcDbEntity
 67
     1
  8
0
100
AcDbBlockBegin
  2
*Paper_Space
 70
     0
 10
0.0
 20
0.0
 30
0.0
  3
*Paper_Space
  1

  0
ENDBLK
  5
1D
330
1B
100
AcDbEntity
 67
     1
  8
0
100
AcDbBlockEnd
  0
BLOCK
  5
24
330
23
100
AcDbEntity
  8
0
100
AcDbBlockBegin
  2
*Paper_Space0
 70
     0
 10
0.0
 20
0.0
 30
0.0
  3
*Paper_Space0
  1

  0
ENDBLK
  5
25
330
23
100
AcDbEntity
  8
0
100
AcDbBlockEnd
  0
BLOCK
  5
43
330
41
100
AcDbEntity
  8
0
100
AcDbBlockBegin
  2
block 2
 70
     0
 10
0.0
 20
0.0
 30
0.0
  3
block 2
  1

  0
SPLINE
  5
45
330
41
100
AcDbEntity
  8
Layer 1
370
     0
100
AcDbSpline
210
0.0
220
0.0
230
1.0
 70
    11
 71
     3
 72
   119
 73
   115
 74
     0
 42
0.0000000001
 43
0.0000000001
 12
1.0
 22
0.0
 32
0.0
 13
1.0
 23
0.0
 33
0.0
 40
0.0
 40
0.0
 40
0.0
 40
0.0
 40
1.0
 40
1.0
 40
1.0
 40
2.0
 40
2.0
 40
2.0
 40
3.0
 40
3.0
 40
3.0
 40
4.0
 40
4.0
 40
4.0
 40
5.0
 40
5.0
 40
5.0
 40
6.0
 40
6.0
 40
6.0
 40
7.0
 40
7.0
 40
7.0
 40
8.0
 40
8.0
 40
8.0
 40
9.0
 40
9.0
 40
9.0
 40
10.0
 40
10.0
 40
10.0
 40
11.0
 40
11.0
 40
11.0
 40
12.0
 40
12.0
 40
12.0
 40
13.0
 40
13.0
 40
13.0
 40
14.0
 40
14.0
 40
14.0
 40
15.0
 40
15.0
 40
15.0
 40
16.0
 40
16.0
 40
16.0
 40
17.0
 40
17.0
 40
17.0
 40
18.0
 40
18.0
 40
18.0
 40
19.0
 40
19.0
 40
19.0
 40
20.0
 40
20.0
 40
20.0
 40
21.0
 40
21.0
 40
21.0
 40
22.0
 40
22.0
 40
22.0
 40
23.0
 40
23.0
 40
23.0
 40
24.0
 40
24.0
 40
24.0
 40
25.0
 40
25.0
 40
25.0
 40
26.0
 40
26.0
 40
26.0
 40
27.0
 40
27.0
 40
27.0
 40
28.0
 40
28.0
 40
28.0
 40
29.0
 40
29.0
 40
29.0
 40
30.0
 40
30.0
 40
30.0
 40
31.0
 40
31.0
 40
31.0
 40
32.0
 40
32.0
 40
32.0
 40
33.0
 40
33.0
 40
33.0
 40
34.0
 40
34.0
 40
34.0
 40
35.0
 40
35.0
 40
35.0
 40
36.0
 40
36.0
 40
36.0
 40
37.0
 40
37.0
 40
37.0
 40
38.0
 40
38.0
 40
38.0
 40
38.0
 10
5.585531183856473
 20
-8.94112365544293
 30
0.0
 10
5.585531183856473
 20
-9.008816439883503
 30
0.0
 10
5.556151177681335
 20
-9.04887951638913
 30
0.0
 10
5.497391165331136
 20
-9.06131913602495
 30
0.0
 10
5.438631152980784
 20
-9.073840019507694
 30
0.0
 10
5.370019461964173
 20
-9.083604183262043
 30
0.0
 10
5.291731122105173
 20
-9.090699142200112
 30
0.0
 10
4.878560720370741
 20
-10.41201178587312
 30
0.0
 10
4.511798226262751
 20
-11.57832926930943
 30
0.0
 10
4.19126860995708
 20
-12.58972035422557
 30
0.0
 10
4.119981463059022
 20
-12.81408983542651
 30
0.0
 10
4.039867812178045
 20
-12.92627145049432
 30
0.0
 10
3.950877648793089
 20
-12.92627145049432
 30
0.0
 10
3.876089905414549
 20
-12.92627145049432
 30
0.0
 10
3.80480275851629
 20
-12.83545597608749
 30
0.0
 10
3.737191237922691
 20
-12.65382502727367
 30
0.0
 10
3.430864041623535
 20
-11.76354832951567
 30
0.0
 10
3.208351126770215
 20
-11.13669151691084
 30
0.0
 10
3.06945245927851
 20
-10.77343587034841
 30
0.0
 10
3.00885463377593
 20
-10.88027282471846
 30
0.0
 10
2.763119011914088
 20
-11.50887993556353
 30
0.0
 10
2.332251844757947
 20
-12.6591696879715
 30
0.0
 10
2.264559060317399
 20
-12.83729378923971
 30
0.0
 10
2.19335942833138
 20
-12.92627145049432
 30
0.0
 10
2.118571684952674
 20
-12.92627145049432
 30
0.0
 10
2.054467011904636
 20
-12.92627145049432
 30
0.0
 10
2.004552256732621
 20
-12.89421598843776
 30
0.0
 10
1.96899619819558
 20
-12.83011131538966
 30
0.0
 10
1.933352624746451
 20
-12.76600664234156
 30
0.0
 10
1.782020588684064
 20
-12.36001246339207
 30
0.0
 10
1.51492507722628
 20
-11.61213502960625
 30
0.0
 10
1.066192365889669
 20
-10.29799235765298
 30
0.0
 10
0.7670413923753282
 20
-9.453954788762479
 30
0.0
 10
0.6174659056181958
 20
-9.080016071869572
 30
0.0
 10
0.6174659056181958
 20
-9.080016071869572
 30
0.0
 10
0.5319888408440016
 20
-9.05864368014348
 30
0.0
 10
0.5319888408440016
 20
-9.05864368014348
 30
0.0
 10
0.4536129860729134
 20
-9.040865650874947
 30
0.0
 10
0.4144688161434765
 20
-8.992788708855212
 30
0.0
 10
0.4144688161434765
 20
-8.914412854084098
 30
0.0
 10
0.4144688161434765
 20
-8.83611826315996
 30
0.0
 10
0.4660526057087332
 20
-8.79688657831846
 30
0.0
 10
0.5693827125332973
 20
-8.79688657831846
 30
0.0
 10
0.5693827125332973
 20
-8.79688657831846
 30
0.0
 10
1.445475743480428
 20
-8.807569648648975
 30
0.0
 10
1.445475743480428
 20
-8.807569648648975
 30
0.0
 10
1.591463118845139
 20
-8.807569648648975
 30
0.0
 10
1.664500563983387
 20
-8.841456672792674
 30
0.0
 10
1.664500563983387
 20
-8.909068193386348
 30
0.0
 10
1.664500563983387
 20
-8.96607790749638
 30
0.0
 10
1.648472832955147
 20
-9.00522832849103
 30
0.0
 10
1.616423621963703
 20
-9.02659446915201
 30
0.0
 10
1.584368159906995
 20
-9.047960609812991
 30
0.0
 10
1.539798065432781
 20
-9.069333001539109
 30
0.0
 10
1.482869615169698
 20
-9.090699142200112
 30
0.0
 10
1.504235755830627
 20
-9.250957699287735
 30
0.0
 10
1.810487939348099
 20
-10.10217774202829
 30
0.0
 10
2.401694927438825
 20
-11.6441842405977
 30
0.0
 10
2.626064408639599
 20
-11.09579079767597
 30
0.0
 10
2.802350696755588
 20
-10.65774740773499
 30
0.0
 10
2.930560042851792
 20
-10.33004781970961
 30
0.0
 10
2.802350696755588
 20
-9.94900789281352
 30
0.0
 10
2.66162046717664
 20
-9.528742532141122
 30
0.0
 10
2.508538132873936
 20
-9.069333001539109
 30
0.0
 10
2.447940307371381
 20
-9.05864368014348
 30
0.0
 10
2.393687312989767
 20
-9.046210311572773
 30
0.0
 10
2.345604119904818
 20
-9.0319328787847
 30
0.0
 10
2.297527177885033
 20
-9.017742960908587
 30
0.0
 10
2.273491832407747
 20
-8.978517527132214
 30
0.0
 10
2.273491832407747
 20
-8.914412854084098
 30
0.0
 10
2.273491832407747
 20
-8.839625110705558
 30
0.0
 10
2.330414031605717
 20
-8.802231239016287
 30
0.0
 10
2.444433459825922
 20
-8.802231239016287
 30
0.0
 10
2.764956825066318
 20
-8.802231239016287
 30
0.0
 10
3.117535652363282
 20
-8.805819350408733
 30
0.0
 10
3.502151188521591
 20
-8.812914309346727
 30
0.0
 10
3.544883469843626
 20
-8.812914309346727
 30
0.0
 10
3.580439528380616
 20
-8.827185491069738
 30
0.0
 10
3.608994393956714
 20
-8.85564659066871
 30
0.0
 10
3.637449242490675
 20
-8.88419520517977
 30
0.0
 10
3.651726675278749
 20
-8.914412854084098
 30
0.0
 10
3.651726675278749
 20
-8.946462065075643
 30
0.0
 10
3.651726675278749
 20
-8.992788708855212
 30
0.0
 10
3.634798790869834
 20
-9.02659446915201
 30
0.0
 10
3.600993030572959
 20
-9.047960609812991
 30
0.0
 10
3.567087253233719
 20
-9.069333001539109
 30
0.0
 10
3.503901486761808
 20
-9.087192294654516
 30
0.0
 10
3.411335714114734
 20
-9.101382212530552
 30
0.0
 10
3.525280129553114
 20
-9.48250340327354
 30
0.0
 10
3.661503341163426
 20
-9.888497582223028
 30
0.0
 10
3.820005348945667
 20
-10.31936474937909
 30
0.0
 10
3.978432343946325
 20
-10.75031318038211
 30
0.0
 10
4.112905257316369
 20
-11.11716318940209
 30
0.0
 10
4.223324072013813
 20
-11.41982101046198
 30
0.0
 10
4.554530507584761
 20
-10.45825716580581
 30
0.0
 10
4.798422065229084
 20
-9.680155832050458
 30
0.0
 10
4.95517377477126
 20
-9.085354481502286
 30
0.0
 10
4.851856170076998
 20
-9.071164563626224
 30
0.0
 10
4.780644035960576
 20
-9.054224177086956
 30
0.0
 10
4.74151236816139
 20
-9.034608334666194
 30
0.0
 10
4.702280683319915
 20
-9.015073756092255
 30
0.0
 10
4.68275235581119
 20
-8.982105638524672
 30
0.0
 10
4.68275235581119
 20
-8.935778994745116
 30
0.0
 10
4.68275235581119
 20
-8.853896292428468
 30
0.0
 10
4.720958865969098
 20
-8.80940746180123
 30
0.0
 10
4.797596924630271
 20
-8.802231239016287
 30
0.0
 10
4.874134966248953
 20
-8.795136280078218
 30
0.0
 10
4.965875598297215
 20
-8.79154191762061
 30
0.0
 10
5.072718803732338
 20
-8.79154191762061
 30
0.0
 10
5.275703391076831
 20
-8.79154191762061
 30
0.0
 10
5.411926602687168
 20
-8.79780548489455
 30
0.0
 10
5.481363434302794
 20
-8.810245104530445
 30
0.0
 10
5.550825270179025
 20
-8.822759736948026
 30
0.0
 10
5.585531183856473
 20
-8.866335912064363
 30
0.0
 10
5.585531183856473
 20
-8.94112365544293
 30
0.0
  0
HATCH
  5
46
330
41
100
AcDbEntity
  8
Layer 1
 62
   250
420
  2301728
100
AcDbHatch
 10
0.0
 20
0.0
 30
0.0
210
0.0
220
0.0
230
1.0
  2
SOLID
 70
     1
 71
     0
 91
        1
 92
        1
 93
        1
 72
     4
 94
        3
 73
     0
 74
     1
 95
      119
 96
      115
 40
0.0
 40
0.0
 40
0.0
 40
0.0
 40
1.0
 40
1.0
 40
1.0
 40
2.0
 40
2.0
 40
2.0
 40
3.0
 40
3.0
 40
3.0
 40
4.0
 40
4.0
 40
4.0
 40
5.0
 40
5.0
 40
5.0
 40
6.0
 40
6.0
 40
6.0
 40
7.0
 40
7.0
 40
7.0
 40
8.0
 40
8.0
 40
8.0
 40
9.0
 40
9.0
 40
9.0
 40
10.0
 40
10.0
 40
10.0
 40
11.0
 40
11.0
 40
11.0
 40
12.0
 40
12.0
 40
12.0
 40
13.0
 40
13.0
 40
13.0
 40
14.0
 40
14.0
 40
14.0
 40
15.0
 40
15.0
 40
15.0
 40
16.0
 40
16.0
 40
16.0
 40
17.0
 40
17.0
 40
17.0
 40
18.0
 40
18.0
 40
18.0
 40
19.0
 40
19.0
 40
19.0
 40
20.0
 40
20.0
 40
20.0
 40
21.0
 40
21.0
 40
21.0
 40
22.0
 40
22.0
 40
22.0
 40
23.0
 40
23.0
 40
23.0
 40
24.0
 40
24.0
 40
24.0
 40
25.0
 40
25.0
 40
25.0
 40
26.0
 40
26.0
 40
26.0
 40
27.0
 40
27.0
 40
27.0
 40
28.0
 40
28.0
 40
28.0
 40
29.0
 40
29.0
 40
29.0
 40
30.0
 40
30.0
 40
30.0
 40
31.0
 40
31.0
 40
31.0
 40
32.0
 40
32.0
 40
32.0
 40
33.0
 40
33.0
 40
33.0
 40
34.0
 40
34.0
 40
34.0
 40
35.0
 40
35.0
 40
35.0
 40
36.0
 40
36.0
 40
36.0
 40
37.0
 40
37.0
 40
37.0
 40
38.0
 40
38.0
 40
38.0
 40
38.0
 10
5.585531183856473
 20
-8.94112365544293
 10
5.585531183856473
 20
-9.008816439883503
 10
5.556151177681335
 20
-9.04887951638913
 10
5.497391165331136
 20
-9.06131913602495
 10
5.438631152980784
 20
-9.073840019507694
 10
5.370019461964173
 20
-9.083604183262043
 10
5.291731122105173
 20
-9.090699142200112
 10
4.878560720370741
 20
-10.41201178587312
 10
4.511798226262751
 20
-11.57832926930943
 10
4.19126860995708
 20
-12.58972035422557
 10
4.119981463059022
 20
-12.81408983542651
 10
4.039867812178045
 20
-12.92627145049432
 10
3.950877648793089
 20
-12.92627145049432
 10
3.876089905414549
 20
-12.92627145049432
 10
3.80480275851629
 20
-12.83545597608749
 10
3.737191237922691
 20
-12.65382502727367
 10
3.430864041623535
 20
-11.76354832951567
 10
3.208351126770215
 20
-11.13669151691084
 10
3.06945245927851
 20
-10.77343587034841
 10
3.00885463377593
 20
-10.88027282471846
 10
2.763119011914088
 20
-11.50887993556353
 10
2.332251844757947
 20
-12.6591696879715
 10
2.264559060317399
 20
-12.83729378923971
 10
2.19335942833138
 20
-12.92627145049432
 10
2.118571684952674
 20
-12.92627145049432
 10
2.054467011904636
 20
-12.92627145049432
 10
2.004552256732621
 20
-12.89421598843776
 10
1.96899619819558
 20
-12.83011131538966
 10
1.933352624746451
 20
-12.76600664234156
 10
1.782020588684064
 20
-12.36001246339207
 10
1.51492507722628
 20
-11.61213502960625
 10
1.066192365889669
 20
-10.29799235765298
 10
0.7670413923753282
 20
-9.453954788762479
 10
0.6174659056181958
 20
-9.080016071869572
 10
0.6174659056181958
 20
-9.080016071869572
 10
0.5319888408440016
 20
-9.05864368014348
 10
0.5319888408440016
 20
-9.05864368014348
 10
0.4536129860729134
 20
-9.040865650874947
 10
0.4144688161434765
 20
-8.992788708855212
 10
0.4144688161434765
 20
-8.914412854084098
 10
0.4144688161434765
 20
-8.83611826315996
 10
0.4660526057087332
 20
-8.79688657831846
 10
0.5693827125332973
 20
-8.79688657831846
 10
0.5693827125332973
 20
-8.79688657831846
 10
1.445475743480428
 20
-8.807569648648975
 10
1.445475743480428
 20
-8.807569648648975
 10
1.591463118845139
 20
-8.807569648648975
 10
1.664500563983387
 20
-8.841456672792674
 10
1.664500563983387
 20
-8.909068193386348
 10
1.664500563983387
 20
-8.96607790749638
 10
1.648472832955147
 20
-9.00522832849103
 10
1.616423621963703
 20
-9.02659446915201
 10
1.584368159906995
 20
-9.047960609812991
 10
1.539798065432781
 20
-9.069333001539109
 10
1.482869615169698
 20
-9.090699142200112
 10
1.504235755830627
 20
-9.250957699287735
 10
1.810487939348099
 20
-10.10217774202829
 10
2.401694927438825
 20
-11.6441842405977
 10
2.626064408639599
 20
-11.09579079767597
 10
2.802350696755588
 20
-10.65774740773499
 10
2.930560042851792
 20
-10.33004781970961
 10
2.802350696755588
 20
-9.94900789281352
 10
2.66162046717664
 20
-9.528742532141122
 10
2.508538132873936
 20
-9.069333001539109
 10
2.447940307371381
 20
-9.05864368014348
 10
2.393687312989767
 20
-9.046210311572773
 10
2.345604119904818
 20
-9.0319328787847
 10
2.297527177885033
 20
-9.017742960908587
 10
2.273491832407747
 20
-8.978517527132214
 10
2.273491832407747
 20
-8.914412854084098
 10
2.273491832407747
 20
-8.839625110705558
 10
2.330414031605717
 20
-8.802231239016287
 10
2.444433459825922
 20
-8.802231239016287
 10
2.764956825066318
 20
-8.802231239016287
 10
3.117535652363282
 20
-8.805819350408733
 10
3.502151188521591
 20
-8.812914309346727
 10
3.544883469843626
 20
-8.812914309346727
 10
3.580439528380616
 20
-8.827185491069738
 10
3.608994393956714
 20
-8.85564659066871
 10
3.637449242490675
 20
-8.88419520517977
 10
3.651726675278749
 20
-8.914412854084098
 10
3.651726675278749
 20
-8.946462065075643
 10
3.651726675278749
 20
-8.992788708855212
 10
3.634798790869834
 20
-9.02659446915201
 10
3.600993030572959
 20
-9.047960609812991
 10
3.567087253233719
 20
-9.069333001539109
 10
3.503901486761808
 20
-9.087192294654516
 10
3.411335714114734
 20
-9.101382212530552
 10
3.525280129553114
 20
-9.48250340327354
 10
3.661503341163426
 20
-9.888497582223028
 10
3.820005348945667
 20
-10.31936474937909
 10
3.978432343946325
 20
-10.75031318038211
 10
4.112905257316369
 20
-11.11716318940209
 10
4.223324072013813
 20
-11.41982101046198
 10
4.554530507584761
 20
-10.45825716580581
 10
4.798422065229084
 20
-9.680155832050458
 10
4.95517377477126
 20
-9.085354481502286
 10
4.851856170076998
 20
-9.071164563626224
 10
4.780644035960576
 20
-9.054224177086956
 10
4.74151236816139
 20
-9.034608334666194
 10
4.702280683319915
 20
-9.015073756092255
 10
4.68275235581119
 20
-8.982105638524672
 10
4.68275235581119
 20
-8.935778994745116
 10
4.68275235581119
 20
-8.853896292428468
 10
4.720958865969098
 20
-8.80940746180123
 10
4.797596924630271
 20
-8.802231239016287
 10
4.874134966248953
 20
-8.795136280078218
 10
4.965875598297215
 20
-8.79154191762061
 10
5.072718803732338
 20
-8.79154191762061
 10
5.275703391076831
 20
-8.79154191762061
 10
5.411926602687168
 20
-8.79780548489455
 10
5.481363434302794
 20
-8.810245104530445
 10
5.550825270179025
 20
-8.822759736948026
 10
5.585531183856473
 20
-8.866335912064363
 10
5.585531183856473
 20
-8.94112365544293
 97
        0
 97
        0
 75
     2
 76
     1
 98
        0
  0
SPLINE
  5
47
330
41
100
AcDbEntity
  8
Layer 1
370
     0
100
AcDbSpline
210
0.0
220
0.0
230
1.0
 70
    11
 71
     3
 72
   122
 73
   118
 74
     0
 42
0.0000000001
 43
0.0000000001
 12
1.0
 22
0.0
 32
0.0
 13
1.0
 23
0.0
 33
0.0
 40
0.0
 40
0.0
 40
0.0
 40
0.0
 40
1.0
 40
1.0
 40
1.0
 40
2.0
 40
2.0
 40
2.0
 40
3.0
 40
3.0
 40
3.0
 40
4.0
 40
4.0
 40
4.0
 40
5.0
 40
5.0
 40
5.0
 40
6.0
 40
6.0
 40
6.0
 40
7.0
 40
7.0
 40
7.0
 40
8.0
 40
8.0
 40
8.0
 40
9.0
 40
9.0
 40
9.0
 40
10.0
 40
10.0
 40
10.0
 40
11.0
 40
11.0
 40
11.0
 40
12.0
 40
12.0
 40
12.0
 40
13.0
 40
13.0
 40
13.0
 40
14.0
 40
14.0
 40
14.0
 40
15.0
 40
15.0
 40
15.0
 40
16.0
 40
16.0
 40
16.0
 40
17.0
 40
17.0
 40
17.0
 40
18.0
 40
18.0
 40
18.0
 40
19.0
 40
19.0
 40
19.0
 40
20.0
 40
20.0
 40
20.0
 40
21.0
 40
21.0
 40
21.0
 40
22.0
 40
22.0
 40
22.0
 40
23.0
 40
23.0
 40
23.0
 40
24.0
 40
24.0
 40
24.0
 40
25.0
 40
25.0
 40
25.0
 40
26.0
 40
26.0
 40
26.0
 40
27.0
 40
27.0
 40
27.0
 40
28.0
 40
28.0
 40
28.0
 40
29.0
 40
29.0
 40
29.0
 40
30.0
 40
30.0
 40
30.0
 40
31.0
 40
31.0
 40
31.0
 40
32.0
 40
32.0
 40
32.0
 40
33.0
 40
33.0
 40
33.0
 40
34.0
 40
34.0
 40
34.0
 40
35.0
 40
35.0
 40
35.0
 40
36.0
 40
36.0
 40
36.0
 40
37.0
 40
37.0
 40
37.0
 40
38.0
 40
38.0
 40
38.0
 40
39.0
 40
39.0
 40
39.0
 40
39.0
 10
3.697137538014835
 20
-14.93434406003319
 30
0.0
 10
3.697137538014835
 20
-14.85246135771667
 30
0.0
 10
3.714915567283318
 20
-14.77233520470541
 30
0.0
 10
3.750546638602069
 20
-14.69395309886916
 30
0.0
 10
3.194976972895473
 20
-14.69395309886916
 30
0.0
 10
2.828133214940534
 20
-14.69929775956694
 30
0.0
 10
2.650096628584379
 20
-14.70998082989763
 30
0.0
 10
2.653603476129976
 20
-15.73564934760181
 30
0.0
 10
2.660779698914919
 20
-16.3642564584468
 30
0.0
 10
2.671462769245282
 20
-16.59571464752056
 30
0.0
 10
2.671462769245282
 20
-16.59571464752056
 30
0.0
 10
3.275115628036979
 20
-16.58503157719
 30
0.0
 10
3.275115628036979
 20
-16.58503157719
 30
0.0
 10
3.289293043782739
 20
-16.50314887487347
 30
0.0
 10
3.306245932452384
 20
-16.4336995411275
 30
0.0
 10
3.325874277003347
 20
-16.37668982701749
 30
0.0
 10
3.345402604512072
 20
-16.31976762781958
 30
0.0
 10
3.38370913171237
 20
-16.29121901330846
 30
0.0
 10
3.440718845822453
 20
-16.29121901330846
 30
0.0
 10
3.494127946409687
 20
-16.29121901330846
 30
0.0
 10
3.531534320229386
 20
-16.32151792605972
 30
0.0
 10
3.552887958760013
 20
-16.38203448771527
 30
0.0
 10
3.567090378766377
 20
-16.42126617255681
 30
0.0
 10
3.576016899791461
 20
-16.62601356027181
 30
0.0
 10
3.57961751331431
 20
-16.99636416577222
 30
0.0
 10
3.57961751331431
 20
-17.12106666432291
 30
0.0
 10
3.543961437734929
 20
-17.18333977528389
 30
0.0
 10
3.472774307879035
 20
-17.18333977528389
 30
0.0
 10
3.376607921709137
 20
-17.18333977528389
 30
0.0
 10
3.321348505839397
 20
-17.1406012428968
 30
0.0
 10
3.307171090093561
 20
-17.05513042918763
 30
0.0
 10
3.307171090093561
 20
-17.05513042918763
 30
0.0
 10
3.280466539799944
 20
-16.88952721140208
 30
0.0
 10
3.280466539799944
 20
-16.88952721140208
 30
0.0
 10
3.180699540107273
 20
-16.88243225246416
 30
0.0
 10
3.084558158198029
 20
-16.87884414107167
 30
0.0
 10
2.991986134485842
 20
-16.87884414107167
 30
0.0
 10
2.877966706265624
 20
-16.87884414107167
 30
0.0
 10
2.77112975189564
 20
-16.88418255070444
 30
0.0
 10
2.671462769245282
 20
-16.89486562103486
 30
0.0
 10
2.671462769245282
 20
-16.89486562103486
 30
0.0
 10
2.650096628584379
 20
-18.24640216467749
 30
0.0
 10
2.650096628584379
 20
-18.24640216467749
 30
0.0
 10
2.650096628584379
 20
-18.24640216467749
 30
0.0
 10
3.884094394330961
 20
-18.24640216467749
 30
0.0
 10
3.884094394330961
 20
-18.24640216467749
 30
0.0
 10
3.969583961235432
 20
-18.24640216467749
 30
0.0
 10
4.030094271825925
 20
-18.20633283710666
 30
0.0
 10
4.065725343144751
 20
-18.12620668409541
 30
0.0
 10
4.101281401681819
 20
-18.04607428001889
 30
0.0
 10
4.123585202114302
 20
-17.95350850737194
 30
0.0
 10
4.132511723139386
 20
-17.84842185124194
 30
0.0
 10
4.141363231382835
 20
-17.74341645895903
 30
0.0
 10
4.186770968586289
 20
-17.6908324989707
 30
0.0
 10
4.268734934749798
 20
-17.6908324989707
 30
0.0
 10
4.347023274608798
 20
-17.6908324989707
 30
0.0
 10
4.386254959450272
 20
-17.72113141172195
 30
0.0
 10
4.386254959450272
 20
-17.78164172231249
 30
0.0
 10
4.386254959450272
 20
-18.10216508755291
 30
0.0
 10
4.365726461518635
 20
-18.3123383998125
 30
0.0
 10
4.324819491218477
 20
-18.41200538246292
 30
0.0
 10
4.283837508136786
 20
-18.51174737789486
 30
0.0
 10
4.197447787851666
 20
-18.56158086922014
 30
0.0
 10
4.065725343144751
 20
-18.56158086922014
 30
0.0
 10
4.065725343144751
 20
-18.56158086922014
 30
0.0
 10
2.452444199807461
 20
-18.56158086922014
 30
0.0
 10
2.452444199807461
 20
-18.56158086922014
 30
0.0
 10
2.395434485697428
 20
-18.56158086922014
 30
0.0
 10
2.260130180663105
 20
-18.55974305606777
 30
0.0
 10
2.046450020857972
 20
-18.55623620852223
 30
0.0
 10
1.832769861052674
 20
-18.55264809712973
 30
0.0
 10
1.689370426657408
 20
-18.54730343643195
 30
0.0
 10
1.616414245365958
 20
-18.54020847749388
 30
0.0
 10
1.543376800227558
 20
-18.53311351855584
 30
0.0
 10
1.506901835114478
 20
-18.49747619617195
 30
0.0
 10
1.506901835114478
 20
-18.43337152312388
 30
0.0
 10
1.506901835114478
 20
-18.34790070941487
 30
0.0
 10
1.538957297171047
 20
-18.29447910669708
 30
0.0
 10
1.603061970219086
 20
-18.27311296603625
 30
0.0
 10
1.667166643267238
 20
-18.25174057431001
 30
0.0
 10
1.74011657349355
 20
-18.23755065643402
 30
0.0
 10
1.822080539657059
 20
-18.23037443364916
 30
0.0
 10
1.832769861052674
 20
-18.14849173133249
 30
0.0
 10
1.843452931383101
 20
-17.57864463283777
 30
0.0
 10
1.854136001713616
 20
-16.52092690414208
 30
0.0
 10
1.854136001713616
 20
-15.52731384849417
 30
0.0
 10
1.84695977892866
 20
-14.9219106914625
 30
0.0
 10
1.832769861052674
 20
-14.70464242026487
 30
0.0
 10
1.832769861052674
 20
-14.70464242026487
 30
0.0
 10
1.741954386645779
 20
-14.70464242026487
 30
0.0
 10
1.741954386645779
 20
-14.70464242026487
 30
0.0
 10
1.592378899888672
 20
-14.70464242026487
 30
0.0
 10
1.517584905444866
 20
-14.66549199927014
 30
0.0
 10
1.517584905444866
 20
-14.58711614449916
 30
0.0
 10
1.517584905444866
 20
-14.48745541291403
 30
0.0
 10
1.583446127798323
 20
-14.43754065774194
 30
0.0
 10
1.715243585287024
 20
-14.43754065774194
 30
0.0
 10
2.174659366954024
 20
-14.43754065774194
 30
0.0
 10
2.565457206539425
 20
-14.43486520186041
 30
0.0
 10
2.88781838493205
 20
-14.42952679222777
 30
0.0
 10
3.210079546282486
 20
-14.42418213153
 30
0.0
 10
3.510155677438004
 20
-14.41976262847347
 30
0.0
 10
3.787953012421566
 20
-14.41616826601583
 30
0.0
 10
4.258033111223843
 20
-14.41616826601583
 30
0.0
 10
4.493098164885471
 20
-14.57826463625569
 30
0.0
 10
4.493098164885471
 20
-14.90229484904181
 30
0.0
 10
4.493098164885471
 20
-15.00203684447375
 30
0.0
 10
4.457442089306166
 20
-15.09460886818598
 30
0.0
 10
4.386254959450272
 20
-15.18007968189515
 30
0.0
 10
4.314967812552216
 20
-15.26555049560416
 30
0.0
 10
4.211725220639715
 20
-15.30828902799125
 30
0.0
 10
4.076427166670706
 20
-15.30828902799125
 30
0.0
 10
3.958882137709502
 20
-15.30828902799125
 30
0.0
 10
3.866241352280566
 20
-15.27448326769458
 30
0.0
 10
3.798629831686993
 20
-15.20679048325389
 30
0.0
 10
3.730943298311558
 20
-15.13917896266014
 30
0.0
 10
3.697137538014835
 20
-15.04836348825333
 30
0.0
 10
3.697137538014835
 20
-14.93434406003319
 30
0.0
  0
HATCH
  5
48
330
41
100
AcDbEntity
  8
Layer 1
 62
   250
420
  2301728
100
AcDbHatch
 10
0.0
 20
0.0
 30
0.0
210
0.0
220
0.0
230
1.0
  2
SOLID
 70
     1
 71
     0
 91
        1
 92
        1
 93
        1
 72
     4
 94
        3
 73
     0
 74
     1
 95
      122
 96
      118
 40
0.0
 40
0.0
 40
0.0
 40
0.0
 40
1.0
 40
1.0
 40
1.0
 40
2.0
 40
2.0
 40
2.0
 40
3.0
 40
3.0
 40
3.0
 40
4.0
 40
4.0
 40
4.0
 40
5.0
 40
5.0
 40
5.0
 40
6.0
 40
6.0
 40
6.0
 40
7.0
 40
7.0
 40
7.0
 40
8.0
 40
8.0
 40
8.0
 40
9.0
 40
9.0
 40
9.0
 40
10.0
 40
10.0
 40
10.0
 40
11.0
 40
11.0
 40
11.0
 40
12.0
 40
12.0
 40
12.0
 40
13.0
 40
13.0
 40
13.0
 40
14.0
 40
14.0
 40
14.0
 40
15.0
 40
15.0
 40
15.0
 40
16.0
 40
16.0
 40
16.0
 40
17.0
 40
17.0
 40
17.0
 40
18.0
 40
18.0
 40
18.0
 40
19.0
 40
19.0
 40
19.0
 40
20.0
 40
20.0
 40
20.0
 40
21.0
 40
21.0
 40
21.0
 40
22.0
 40
22.0
 40
22.0
 40
23.0
 40
23.0
 40
23.0
 40
24.0
 40
24.0
 40
24.0
 40
25.0
 40
25.0
 40
25.0
 40
26.0
 40
26.0
 40
26.0
 40
27.0
 40
27.0
 40
27.0
 40
28.0
 40
28.0
 40
28.0
 40
29.0
 40
29.0
 40
29.0
 40
30.0
 40
30.0
 40
30.0
 40
31.0
 40
31.0
 40
31.0
 40
32.0
 40
32.0
 40
32.0
 40
33.0
 40
33.0
 40
33.0
 40
34.0
 40
34.0
 40
34.0
 40
35.0
 40
35.0
 40
35.0
 40
36.0
 40
36.0
 40
36.0
 40
37.0
 40
37.0
 40
37.0
 40
38.0
 40
38.0
 40
38.0
 40
39.0
 40
39.0
 40
39.0
 40
39.0
 10
3.697137538014835
 20
-14.93434406003319
 10
3.697137538014835
 20
-14.85246135771667
 10
3.714915567283318
 20
-14.77233520470541
 10
3.750546638602069
 20
-14.69395309886916
 10
3.194976972895473
 20
-14.69395309886916
 10
2.828133214940534
 20
-14.69929775956694
 10
2.650096628584379
 20
-14.70998082989763
 10
2.653603476129976
 20
-15.73564934760181
 10
2.660779698914919
 20
-16.3642564584468
 10
2.671462769245282
 20
-16.59571464752056
 10
2.671462769245282
 20
-16.59571464752056
 10
3.275115628036979
 20
-16.58503157719
 10
3.275115628036979
 20
-16.58503157719
 10
3.289293043782739
 20
-16.50314887487347
 10
3.306245932452384
 20
-16.4336995411275
 10
3.325874277003347
 20
-16.37668982701749
 10
3.345402604512072
 20
-16.31976762781958
 10
3.38370913171237
 20
-16.29121901330846
 10
3.440718845822453
 20
-16.29121901330846
 10
3.494127946409687
 20
-16.29121901330846
 10
3.531534320229386
 20
-16.32151792605972
 10
3.552887958760013
 20
-16.38203448771527
 10
3.567090378766377
 20
-16.42126617255681
 10
3.576016899791461
 20
-16.62601356027181
 10
3.57961751331431
 20
-16.99636416577222
 10
3.57961751331431
 20
-17.12106666432291
 10
3.543961437734929
 20
-17.18333977528389
 10
3.472774307879035
 20
-17.18333977528389
 10
3.376607921709137
 20
-17.18333977528389
 10
3.321348505839397
 20
-17.1406012428968
 10
3.307171090093561
 20
-17.05513042918763
 10
3.307171090093561
 20
-17.05513042918763
 10
3.280466539799944
 20
-16.88952721140208
 10
3.280466539799944
 20
-16.88952721140208
 10
3.180699540107273
 20
-16.88243225246416
 10
3.084558158198029
 20
-16.87884414107167
 10
2.991986134485842
 20
-16.87884414107167
 10
2.877966706265624
 20
-16.87884414107167
 10
2.77112975189564
 20
-16.88418255070444
 10
2.671462769245282
 20
-16.89486562103486
 10
2.671462769245282
 20
-16.89486562103486
 10
2.650096628584379
 20
-18.24640216467749
 10
2.650096628584379
 20
-18.24640216467749
 10
2.650096628584379
 20
-18.24640216467749
 10
3.884094394330961
 20
-18.24640216467749
 10
3.884094394330961
 20
-18.24640216467749
 10
3.969583961235432
 20
-18.24640216467749
 10
4.030094271825925
 20
-18.20633283710666
 10
4.065725343144751
 20
-18.12620668409541
 10
4.101281401681819
 20
-18.04607428001889
 10
4.123585202114302
 20
-17.95350850737194
 10
4.132511723139386
 20
-17.84842185124194
 10
4.141363231382835
 20
-17.74341645895903
 10
4.186770968586289
 20
-17.6908324989707
 10
4.268734934749798
 20
-17.6908324989707
 10
4.347023274608798
 20
-17.6908324989707
 10
4.386254959450272
 20
-17.72113141172195
 10
4.386254959450272
 20
-17.78164172231249
 10
4.386254959450272
 20
-18.10216508755291
 10
4.365726461518635
 20
-18.3123383998125
 10
4.324819491218477
 20
-18.41200538246292
 10
4.283837508136786
 20
-18.51174737789486
 10
4.197447787851666
 20
-18.56158086922014
 10
4.065725343144751
 20
-18.56158086922014
 10
4.065725343144751
 20
-18.56158086922014
 10
2.452444199807461
 20
-18.56158086922014
 10
2.452444199807461
 20
-18.56158086922014
 10
2.395434485697428
 20
-18.56158086922014
 10
2.260130180663105
 20
-18.55974305606777
 10
2.046450020857972
 20
-18.55623620852223
 10
1.832769861052674
 20
-18.55264809712973
 10
1.689370426657408
 20
-18.54730343643195
 10
1.616414245365958
 20
-18.54020847749388
 10
1.543376800227558
 20
-18.53311351855584
 10
1.506901835114478
 20
-18.49747619617195
 10
1.506901835114478
 20
-18.43337152312388
 10
1.506901835114478
 20
-18.34790070941487
 10
1.538957297171047
 20
-18.29447910669708
 10
1.603061970219086
 20
-18.27311296603625
 10
1.667166643267238
 20
-18.25174057431001
 10
1.74011657349355
 20
-18.23755065643402
 10
1.822080539657059
 20
-18.23037443364916
 10
1.832769861052674
 20
-18.14849173133249
 10
1.843452931383101
 20
-17.57864463283777
 10
1.854136001713616
 20
-16.52092690414208
 10
1.854136001713616
 20
-15.52731384849417
 10
1.84695977892866
 20
-14.9219106914625
 10
1.832769861052674
 20
-14.70464242026487
 10
1.832769861052674
 20
-14.70464242026487
 10
1.741954386645779
 20
-14.70464242026487
 10
1.741954386645779
 20
-14.70464242026487
 10
1.592378899888672
 20
-14.70464242026487
 10
1.517584905444866
 20
-14.66549199927014
 10
1.517584905444866
 20
-14.58711614449916
 10
1.517584905444866
 20
-14.48745541291403
 10
1.583446127798323
 20
-14.43754065774194
 10
1.715243585287024
 20
-14.43754065774194
 10
2.174659366954024
 20
-14.43754065774194
 10
2.565457206539425
 20
-14.43486520186041
 10
2.88781838493205
 20
-14.42952679222777
 10
3.210079546282486
 20
-14.42418213153
 10
3.510155677438004
 20
-14.41976262847347
 10
3.787953012421566
 20
-14.41616826601583
 10
4.258033111223843
 20
-14.41616826601583
 10
4.493098164885471
 20
-14.57826463625569
 10
4.493098164885471
 20
-14.90229484904181
 10
4.493098164885471
 20
-15.00203684447375
 10
4.457442089306166
 20
-15.09460886818598
 10
4.386254959450272
 20
-15.18007968189515
 10
4.314967812552216
 20
-15.26555049560416
 10
4.211725220639715
 20
-15.30828902799125
 10
4.076427166670706
 20
-15.30828902799125
 10
3.958882137709502
 20
-15.30828902799125
 10
3.866241352280566
 20
-15.27448326769458
 10
3.798629831686993
 20
-15.20679048325389
 10
3.730943298311558
 20
-15.13917896266014
 10
3.697137538014835
 20
-15.04836348825333
 10
3.697137538014835
 20
-14.93434406003319
 97
        0
 97
        0
 75
     2
 76
     1
 98
        0
  0
SPLINE
  5
49
330
41
100
AcDbEntity
  8
Layer 1
370
     0
100
AcDbSpline
210
0.0
220
0.0
230
1.0
 70
    11
 71
     3
 72
    74
 73
    70
 74
     0
 42
0.0000000001
 43
0.0000000001
 12
1.0
 22
0.0
 32
0.0
 13
1.0
 23
0.0
 33
0.0
 40
0.0
 40
0.0
 40
0.0
 40
0.0
 40
1.0
 40
1.0
 40
1.0
 40
2.0
 40
2.0
 40
2.0
 40
3.0
 40
3.0
 40
3.0
 40
4.0
 40
4.0
 40
4.0
 40
5.0
 40
5.0
 40
5.0
 40
6.0
 40
6.0
 40
6.0
 40
7.0
 40
7.0
 40
7.0
 40
8.0
 40
8.0
 40
8.0
 40
9.0
 40
9.0
 40
9.0
 40
10.0
 40
10.0
 40
10.0
 40
11.0
 40
11.0
 40
11.0
 40
12.0
 40
12.0
 40
12.0
 40
13.0
 40
13.0
 40
13.0
 40
14.0
 40
14.0
 40
14.0
 40
15.0
 40
15.0
 40
15.0
 40
16.0
 40
16.0
 40
16.0
 40
17.0
 40
17.0
 40
17.0
 40
18.0
 40
18.0
 40
18.0
 40
19.0
 40
19.0
 40
19.0
 40
20.0
 40
20.0
 40
20.0
 40
21.0
 40
21.0
 40
21.0
 40
22.0
 40
22.0
 40
22.0
 40
23.0
 40
23.0
 40
23.0
 40
23.0
 10
4.44768417661693
 20
-23.63865141742292
 30
0.0
 10
4.44768417661693
 20
-23.99840021643973
 30
0.0
 10
4.160985324868837
 20
-24.17819335210126
 30
0.0
 10
3.587637629893556
 20
-24.17819335210126
 30
0.0
 10
3.587637629893556
 20
-24.17819335210126
 30
0.0
 10
2.097202418759227
 20
-24.16751028177082
 30
0.0
 10
2.097202418759227
 20
-24.16751028177082
 30
0.0
 10
1.840789977631983
 20
-24.16751028177082
 30
0.0
 10
1.685869830177024
 20
-24.16484107695444
 30
0.0
 10
1.632448227459387
 20
-24.15949641625667
 30
0.0
 10
1.579026624741901
 20
-24.15415175555876
 30
0.0
 10
1.552315823383019
 20
-24.11592649220541
 30
0.0
 10
1.552315823383019
 20
-24.0446455963725
 30
0.0
 10
1.552315823383019
 20
-23.93070743199917
 30
0.0
 10
1.644887847095358
 20
-23.87369771788917
 30
0.0
 10
1.830100656236431
 20
-23.87369771788917
 30
0.0
 10
1.833607503782054
 20
-23.35017726317403
 30
0.0
 10
1.835445316934157
 20
-22.85337386088277
 30
0.0
 10
1.835445316934157
 20
-22.38327500888514
 30
0.0
 10
1.835445316934157
 20
-21.91317615688736
 30
0.0
 10
1.837195615174424
 20
-21.24191802856736
 30
0.0
 10
1.840789977631983
 20
-20.36933184516584
 30
0.0
 10
1.758819760403362
 20
-20.36223688622764
 30
0.0
 10
1.69471508735531
 20
-20.34620915519944
 30
0.0
 10
1.648475958487754
 20
-20.32125490314598
 30
0.0
 10
1.602149314708236
 20
-20.29638191493958
 30
0.0
 10
1.579026624741901
 20
-20.25180556940014
 30
0.0
 10
1.579026624741901
 20
-20.18770089635209
 30
0.0
 10
1.579026624741901
 20
-20.11650126436598
 30
0.0
 10
1.624434361945355
 20
-20.07735709443639
 30
0.0
 10
1.715249836352137
 20
-20.07018087165152
 30
0.0
 10
1.806065310759045
 20
-20.06308591271346
 30
0.0
 10
1.993872311934789
 20
-20.05949155025583
 30
0.0
 10
2.278833367573043
 20
-20.05949155025583
 30
0.0
 10
2.567301270756869
 20
-20.06308591271346
 30
0.0
 10
2.747094406418328
 20
-20.07201243373861
 30
0.0
 10
2.818375302251436
 20
-20.08620235161473
 30
0.0
 10
2.889574934237443
 20
-20.10047978440278
 30
0.0
 10
2.925218507686547
 20
-20.14146176748444
 30
0.0
 10
2.925218507686547
 20
-20.20907328807819
 30
0.0
 10
2.925218507686547
 20
-20.2660830021882
 30
0.0
 10
2.90560266526581
 20
-20.30172032457222
 30
0.0
 10
2.866452244271108
 20
-20.3159102424482
 30
0.0
 10
2.827226810494848
 20
-20.33018767523625
 30
0.0
 10
2.764953699533786
 20
-20.34445885695931
 30
0.0
 10
2.679482885824705
 20
-20.35864877483527
 30
0.0
 10
2.679482885824705
 20
-20.35864877483527
 30
0.0
 10
2.636750604502721
 20
-23.8630146475586
 30
0.0
 10
2.636750604502721
 20
-23.8630146475586
 30
0.0
 10
2.900258004567983
 20
-23.88087394067403
 30
0.0
 10
3.167366018155993
 20
-23.8897254489175
 30
0.0
 10
3.438062143136424
 20
-23.8897254489175
 30
0.0
 10
3.438062143136424
 20
-23.8897254489175
 30
0.0
 10
3.705157654594106
 20
-23.8897254489175
 30
0.0
 10
3.705157654594106
 20
-23.8897254489175
 30
0.0
 10
3.65882475974945
 20
-23.81143085799334
 30
0.0
 10
3.635695818717952
 20
-23.72771034252445
 30
0.0
 10
3.635695818717952
 20
-23.63865141742292
 30
0.0
 10
3.635695818717952
 20
-23.49625215345055
 30
0.0
 10
3.677527946659135
 20
-23.39024659074472
 30
0.0
 10
3.761242211062911
 20
-23.32079725699888
 30
0.0
 10
3.844881462684877
 20
-23.25135417431805
 30
0.0
 10
3.938372392973254
 20
-23.21662950744514
 30
0.0
 10
4.041689997667492
 20
-23.21662950744514
 30
0.0
 10
4.173412442374355
 20
-23.21662950744514
 30
0.0
 10
4.274079595447574
 20
-23.25586119228666
 30
0.0
 10
4.343516427063276
 20
-23.33415578321069
 30
0.0
 10
4.41297826293938
 20
-23.4125316379818
 30
0.0
 10
4.44768417661693
 20
-23.51403018271916
 30
0.0
 10
4.44768417661693
 20
-23.63865141742292
 30
0.0
  0
HATCH
  5
4A
330
41
100
AcDbEntity
  8
Layer 1
 62
   250
420
  2301728
100
AcDbHatch
 10
0.0
 20
0.0
 30
0.0
210
0.0
220
0.0
230
1.0
  2
SOLID
 70
     1
 71
     0
 91
        1
 92
        1
 93
        1
 72
     4
 94
        3
 73
     0
 74
     1
 95
       74
 96
       70
 40
0.0
 40
0.0
 40
0.0
 40
0.0
 40
1.0
 40
1.0
 40
1.0
 40
2.0
 40
2.0
 40
2.0
 40
3.0
 40
3.0
 40
3.0
 40
4.0
 40
4.0
 40
4.0
 40
5.0
 40
5.0
 40
5.0
 40
6.0
 40
6.0
 40
6.0
 40
7.0
 40
7.0
 40
7.0
 40
8.0
 40
8.0
 40
8.0
 40
9.0
 40
9.0
 40
9.0
 40
10.0
 40
10.0
 40
10.0
 40
11.0
 40
11.0
 40
11.0
 40
12.0
 40
12.0
 40
12.0
 40
13.0
 40
13.0
 40
13.0
 40
14.0
 40
14.0
 40
14.0
 40
15.0
 40
15.0
 40
15.0
 40
16.0
 40
16.0
 40
16.0
 40
17.0
 40
17.0
 40
17.0
 40
18.0
 40
18.0
 40
18.0
 40
19.0
 40
19.0
 40
19.0
 40
20.0
 40
20.0
 40
20.0
 40
21.0
 40
21.0
 40
21.0
 40
22.0
 40
22.0
 40
22.0
 40
23.0
 40
23.0
 40
23.0
 40
23.0
 10
4.44768417661693
 20
-23.63865141742292
 10
4.44768417661693
 20
-23.99840021643973
 10
4.160985324868837
 20
-24.17819335210126
 10
3.587637629893556
 20
-24.17819335210126
 10
3.587637629893556
 20
-24.17819335210126
 10
2.097202418759227
 20
-24.16751028177082
 10
2.097202418759227
 20
-24.16751028177082
 10
1.840789977631983
 20
-24.16751028177082
 10
1.685869830177024
 20
-24.16484107695444
 10
1.632448227459387
 20
-24.15949641625667
 10
1.579026624741901
 20
-24.15415175555876
 10
1.552315823383019
 20
-24.11592649220541
 10
1.552315823383019
 20
-24.0446455963725
 10
1.552315823383019
 20
-23.93070743199917
 10
1.644887847095358
 20
-23.87369771788917
 10
1.830100656236431
 20
-23.87369771788917
 10
1.833607503782054
 20
-23.35017726317403
 10
1.835445316934157
 20
-22.85337386088277
 10
1.835445316934157
 20
-22.38327500888514
 10
1.835445316934157
 20
-21.91317615688736
 10
1.837195615174424
 20
-21.24191802856736
 10
1.840789977631983
 20
-20.36933184516584
 10
1.758819760403362
 20
-20.36223688622764
 10
1.69471508735531
 20
-20.34620915519944
 10
1.648475958487754
 20
-20.32125490314598
 10
1.602149314708236
 20
-20.29638191493958
 10
1.579026624741901
 20
-20.25180556940014
 10
1.579026624741901
 20
-20.18770089635209
 10
1.579026624741901
 20
-20.11650126436598
 10
1.624434361945355
 20
-20.07735709443639
 10
1.715249836352137
 20
-20.07018087165152
 10
1.806065310759045
 20
-20.06308591271346
 10
1.993872311934789
 20
-20.05949155025583
 10
2.278833367573043
 20
-20.05949155025583
 10
2.567301270756869
 20
-20.06308591271346
 10
2.747094406418328
 20
-20.07201243373861
 10
2.818375302251436
 20
-20.08620235161473
 10
2.889574934237443
 20
-20.10047978440278
 10
2.925218507686547
 20
-20.14146176748444
 10
2.925218507686547
 20
-20.20907328807819
 10
2.925218507686547
 20
-20.2660830021882
 10
2.90560266526581
 20
-20.30172032457222
 10
2.866452244271108
 20
-20.3159102424482
 10
2.827226810494848
 20
-20.33018767523625
 10
2.764953699533786
 20
-20.34445885695931
 10
2.679482885824705
 20
-20.35864877483527
 10
2.679482885824705
 20
-20.35864877483527
 10
2.636750604502721
 20
-23.8630146475586
 10
2.636750604502721
 20
-23.8630146475586
 10
2.900258004567983
 20
-23.88087394067403
 10
3.167366018155993
 20
-23.8897254489175
 10
3.438062143136424
 20
-23.8897254489175
 10
3.438062143136424
 20
-23.8897254489175
 10
3.705157654594106
 20
-23.8897254489175
 10
3.705157654594106
 20
-23.8897254489175
 10
3.65882475974945
 20
-23.81143085799334
 10
3.635695818717952
 20
-23.72771034252445
 10
3.635695818717952
 20
-23.63865141742292
 10
3.635695818717952
 20
-23.49625215345055
 10
3.677527946659135
 20
-23.39024659074472
 10
3.761242211062911
 20
-23.32079725699888
 10
3.844881462684877
 20
-23.25135417431805
 10
3.938372392973254
 20
-23.21662950744514
 10
4.041689997667492
 20
-23.21662950744514
 10
4.173412442374355
 20
-23.21662950744514
 10
4.274079595447574
 20
-23.25586119228666
 10
4.343516427063276
 20
-23.33415578321069
 10
4.41297826293938
 20
-23.4125316379818
 10
4.44768417661693
 20
-23.51403018271916
 10
4.44768417661693
 20
-23.63865141742292
 97
        0
 97
        0
 75
     2
 76
     1
 98
        0
  0
SPLINE
  5
4B
330
41
100
AcDbEntity
  8
Layer 1
370
     0
100
AcDbSpline
210
0.0
220
0.0
230
1.0
 70
    11
 71
     3
 72
    74
 73
    70
 74
     0
 42
0.0000000001
 43
0.0000000001
 12
1.0
 22
0.0
 32
0.0
 13
1.0
 23
0.0
 33
0.0
 40
0.0
 40
0.0
 40
0.0
 40
0.0
 40
1.0
 40
1.0
 40
1.0
 40
2.0
 40
2.0
 40
2.0
 40
3.0
 40
3.0
 40
3.0
 40
4.0
 40
4.0
 40
4.0
 40
5.0
 40
5.0
 40
5.0
 40
6.0
 40
6.0
 40
6.0
 40
7.0
 40
7.0
 40
7.0
 40
8.0
 40
8.0
 40
8.0
 40
9.0
 40
9.0
 40
9.0
 40
10.0
 40
10.0
 40
10.0
 40
11.0
 40
11.0
 40
11.0
 40
12.0
 40
12.0
 40
12.0
 40
13.0
 40
13.0
 40
13.0
 40
14.0
 40
14.0
 40
14.0
 40
15.0
 40
15.0
 40
15.0
 40
16.0
 40
16.0
 40
16.0
 40
17.0
 40
17.0
 40
17.0
 40
18.0
 40
18.0
 40
18.0
 40
19.0
 40
19.0
 40
19.0
 40
20.0
 40
20.0
 40
20.0
 40
21.0
 40
21.0
 40
21.0
 40
22.0
 40
22.0
 40
22.0
 40
23.0
 40
23.0
 40
23.0
 40
23.0
 10
4.770879872206276
 20
-28.87598677377847
 30
0.0
 10
4.770879872206276
 20
-28.94726141854638
 30
0.0
 10
4.718295912218005
 20
-29.05853037810334
 30
0.0
 10
4.613290519934935
 20
-29.20985616310069
 30
0.0
 10
4.50821011487023
 20
-29.36126946301
 30
0.0
 10
4.346195008477328
 20
-29.50634418286361
 30
0.0
 10
4.127170187974191
 20
-29.64523034822529
 30
0.0
 10
3.908145367471105
 20
-29.7841290157171
 30
0.0
 10
3.567087253233922
 20
-29.85356584733265
 30
0.0
 10
3.104170875086311
 20
-29.85356584733265
 30
0.0
 10
2.523646957326137
 20
-29.85356584733265
 30
0.0
 10
2.065981473899304
 20
-29.67819846579292
 30
0.0
 10
1.731274441847896
 20
-29.32738868993139
 30
0.0
 10
1.396479894884578
 20
-28.97664142472139
 30
0.0
 10
1.229120127793673
 20
-28.46822979445847
 30
0.0
 10
1.229120127793673
 20
-27.80222881192417
 30
0.0
 10
1.229120127793673
 20
-27.13981594078223
 30
0.0
 10
1.425859901059665
 20
-26.61454518782681
 30
0.0
 10
1.819414460373334
 20
-26.22633528921097
 30
0.0
 10
2.212887755840054
 20
-25.83820040337681
 30
0.0
 10
2.70885976646721
 20
-25.64405482214556
 30
0.0
 10
3.30716796456103
 20
-25.64405482214556
 30
0.0
 10
3.74871820204756
 20
-25.64405482214556
 30
0.0
 10
4.080849795259837
 20
-25.74287791100139
 30
0.0
 10
4.303450225025068
 20
-25.9405365908436
 30
0.0
 10
4.525988144138763
 20
-26.13818901962041
 30
0.0
 10
4.63733211647746
 20
-26.34919997460944
 30
0.0
 10
4.63733211647746
 20
-26.57356320474499
 30
0.0
 10
4.63733211647746
 20
-26.70894877362626
 30
0.0
 10
4.597262788906745
 20
-26.80861575627652
 30
0.0
 10
4.517136635895465
 20
-26.87271417825943
 30
0.0
 10
4.437010482884261
 20
-26.93681885130751
 30
0.0
 10
4.339931441203311
 20
-26.96887431336416
 30
0.0
 10
4.225999527895308
 20
-26.96887431336416
 30
0.0
 10
4.104878889671984
 20
-26.96887431336416
 30
0.0
 10
4.009650163273717
 20
-26.93331825482707
 30
0.0
 10
3.940200829527839
 20
-26.86203110792889
 30
0.0
 10
3.87075149578186
 20
-26.79083147594277
 30
0.0
 10
3.836033079974034
 20
-26.7000222526011
 30
0.0
 10
3.836033079974034
 20
-26.58959093577348
 30
0.0
 10
3.836033079974034
 20
-26.38659384629874
 30
0.0
 10
3.910820823352575
 20
-26.24594488056666
 30
0.0
 10
4.060396310109859
 20
-26.16756902579555
 30
0.0
 10
3.885854069168848
 20
-25.99312055083182
 30
0.0
 10
3.65256431800809
 20
-25.90581192397056
 30
0.0
 10
3.360589567278718
 20
-25.90581192397056
 30
0.0
 10
2.997333920716174
 20
-25.90581192397056
 30
0.0
 10
2.683905514413886
 20
-26.07408434657236
 30
0.0
 10
2.420391863283385
 20
-26.41063544284111
 30
0.0
 10
2.156796948306212
 20
-26.74718028804472
 30
0.0
 10
2.025080754664411
 20
-27.21994834485875
 30
0.0
 10
2.025080754664411
 20
-27.82894586434804
 30
0.0
 10
2.025080754664411
 20
-28.30972778667612
 30
0.0
 10
2.165729720396434
 20
-28.71839742150723
 30
0.0
 10
2.447102664642266
 20
-29.05494226671069
 30
0.0
 10
2.728394345041175
 20
-29.3914871119143
 30
0.0
 10
3.02938313170777
 20
-29.55976578558125
 30
0.0
 10
3.349900245883064
 20
-29.55976578558125
 30
0.0
 10
3.55999854536089
 20
-29.55976578558125
 30
0.0
 10
3.755894424832528
 20
-29.51259524800738
 30
0.0
 10
3.937525373646319
 20
-29.41819166220792
 30
0.0
 10
4.119156322460059
 20
-29.3238755913207
 30
0.0
 10
4.311464090539276
 20
-29.14133198699597
 30
0.0
 10
4.51446118001402
 20
-28.87063586201556
 30
0.0
 10
4.567882782731481
 20
-28.79943623002944
 30
0.0
 10
4.624817484059829
 20
-28.76380515871056
 30
0.0
 10
4.685415309562459
 20
-28.76380515871056
 30
0.0
 10
4.74233750876038
 20
-28.76380515871056
 30
0.0
 10
4.770879872206276
 20
-28.80119903040001
 30
0.0
 10
4.770879872206276
 20
-28.87598677377847
 30
0.0
  0
HATCH
  5
4C
330
41
100
AcDbEntity
  8
Layer 1
 62
   250
420
  2301728
100
AcDbHatch
 10
0.0
 20
0.0
 30
0.0
210
0.0
220
0.0
230
1.0
  2
SOLID
 70
     1
 71
     0
 91
        1
 92
        1
 93
        1
 72
     4
 94
        3
 73
     0
 74
     1
 95
       74
 96
       70
 40
0.0
 40
0.0
 40
0.0
 40
0.0
 40
1.0
 40
1.0
 40
1.0
 40
2.0
 40
2.0
 40
2.0
 40
3.0
 40
3.0
 40
3.0
 40
4.0
 40
4.0
 40
4.0
 40
5.0
 40
5.0
 40
5.0
 40
6.0
 40
6.0
 40
6.0
 40
7.0
 40
7.0
 40
7.0
 40
8.0
 40
8.0
 40
8.0
 40
9.0
 40
9.0
 40
9.0
 40
10.0
 40
10.0
 40
10.0
 40
11.0
 40
11.0
 40
11.0
 40
12.0
 40
12.0
 40
12.0
 40
13.0
 40
13.0
 40
13.0
 40
14.0
 40
14.0
 40
14.0
 40
15.0
 40
15.0
 40
15.0
 40
16.0
 40
16.0
 40
16.0
 40
17.0
 40
17.0
 40
17.0
 40
18.0
 40
18.0
 40
18.0
 40
19.0
 40
19.0
 40
19.0
 40
20.0
 40
20.0
 40
20.0
 40
21.0
 40
21.0
 40
21.0
 40
22.0
 40
22.0
 40
22.0
 40
23.0
 40
23.0
 40
23.0
 40
23.0
 10
4.770879872206276
 20
-28.87598677377847
 10
4.770879872206276
 20
-28.94726141854638
 10
4.718295912218005
 20
-29.05853037810334
 10
4.613290519934935
 20
-29.20985616310069
 10
4.50821011487023
 20
-29.36126946301
 10
4.346195008477328
 20
-29.50634418286361
 10
4.127170187974191
 20
-29.64523034822529
 10
3.908145367471105
 20
-29.7841290157171
 10
3.567087253233922
 20
-29.85356584733265
 10
3.104170875086311
 20
-29.85356584733265
 10
2.523646957326137
 20
-29.85356584733265
 10
2.065981473899304
 20
-29.67819846579292
 10
1.731274441847896
 20
-29.32738868993139
 10
1.396479894884578
 20
-28.97664142472139
 10
1.229120127793673
 20
-28.46822979445847
 10
1.229120127793673
 20
-27.80222881192417
 10
1.229120127793673
 20
-27.13981594078223
 10
1.425859901059665
 20
-26.61454518782681
 10
1.819414460373334
 20
-26.22633528921097
 10
2.212887755840054
 20
-25.83820040337681
 10
2.70885976646721
 20
-25.64405482214556
 10
3.30716796456103
 20
-25.64405482214556
 10
3.74871820204756
 20
-25.64405482214556
 10
4.080849795259837
 20
-25.74287791100139
 10
4.303450225025068
 20
-25.9405365908436
 10
4.525988144138763
 20
-26.13818901962041
 10
4.63733211647746
 20
-26.34919997460944
 10
4.63733211647746
 20
-26.57356320474499
 10
4.63733211647746
 20
-26.70894877362626
 10
4.597262788906745
 20
-26.80861575627652
 10
4.517136635895465
 20
-26.87271417825943
 10
4.437010482884261
 20
-26.93681885130751
 10
4.339931441203311
 20
-26.96887431336416
 10
4.225999527895308
 20
-26.96887431336416
 10
4.104878889671984
 20
-26.96887431336416
 10
4.009650163273717
 20
-26.93331825482707
 10
3.940200829527839
 20
-26.86203110792889
 10
3.87075149578186
 20
-26.79083147594277
 10
3.836033079974034
 20
-26.7000222526011
 10
3.836033079974034
 20
-26.58959093577348
 10
3.836033079974034
 20
-26.38659384629874
 10
3.910820823352575
 20
-26.24594488056666
 10
4.060396310109859
 20
-26.16756902579555
 10
3.885854069168848
 20
-25.99312055083182
 10
3.65256431800809
 20
-25.90581192397056
 10
3.360589567278718
 20
-25.90581192397056
 10
2.997333920716174
 20
-25.90581192397056
 10
2.683905514413886
 20
-26.07408434657236
 10
2.420391863283385
 20
-26.41063544284111
 10
2.156796948306212
 20
-26.74718028804472
 10
2.025080754664411
 20
-27.21994834485875
 10
2.025080754664411
 20
-27.82894586434804
 10
2.025080754664411
 20
-28.30972778667612
 10
2.165729720396434
 20
-28.71839742150723
 10
2.447102664642266
 20
-29.05494226671069
 10
2.728394345041175
 20
-29.3914871119143
 10
3.02938313170777
 20
-29.55976578558125
 10
3.349900245883064
 20
-29.55976578558125
 10
3.55999854536089
 20
-29.55976578558125
 10
3.755894424832528
 20
-29.51259524800738
 10
3.937525373646319
 20
-29.41819166220792
 10
4.119156322460059
 20
-29.3238755913207
 10
4.311464090539276
 20
-29.14133198699597
 10
4.51446118001402
 20
-28.87063586201556
 10
4.567882782731481
 20
-28.79943623002944
 10
4.624817484059829
 20
-28.76380515871056
 10
4.685415309562459
 20
-28.76380515871056
 10
4.74233750876038
 20
-28.76380515871056
 10
4.770879872206276
 20
-28.80119903040001
 10
4.770879872206276
 20
-28.87598677377847
 97
        0
 97
        0
 75
     2
 76
     1
 98
        0
  0
SPLINE
  5
4D
330
41
100
AcDbEntity
  8
Layer 1
370
     0
100
AcDbSpline
210
0.0
220
0.0
230
1.0
 70
    11
 71
     3
 72
    29
 73
    25
 74
     0
 42
0.0000000001
 43
0.0000000001
 12
1.0
 22
0.0
 32
0.0
 13
1.0
 23
0.0
 33
0.0
 40
0.0
 40
0.0
 40
0.0
 40
0.0
 40
1.0
 40
1.0
 40
1.0
 40
2.0
 40
2.0
 40
2.0
 40
3.0
 40
3.0
 40
3.0
 40
4.0
 40
4.0
 40
4.0
 40
5.0
 40
5.0
 40
5.0
 40
6.0
 40
6.0
 40
6.0
 40
7.0
 40
7.0
 40
7.0
 40
8.0
 40
8.0
 40
8.0
 40
8.0
 10
4.506453565564849
 20
-31.91506005958917
 30
0.0
 10
4.118237415883893
 20
-31.46992171071027
 30
0.0
 10
3.594710710103577
 20
-31.24730877881471
 30
0.0
 10
2.935892201419266
 20
-31.24730877881471
 30
0.0
 10
2.344685213328678
 20
-31.24730877881471
 30
0.0
 10
1.87633665957133
 20
-31.45656943556332
 30
0.0
 10
1.530940306124269
 20
-31.87500323414876
 30
0.0
 10
1.185462688830411
 20
-32.29351204551583
 30
0.0
 10
1.012764512106944
 20
-32.81077518402223
 30
0.0
 10
1.012764512106944
 20
-33.42685516031944
 30
0.0
 10
1.012764512106944
 20
-34.01806839947514
 30
0.0
 10
1.190807349528237
 20
-34.51312775459139
 30
0.0
 10
1.546968037152611
 20
-34.91193320862569
 30
0.0
 10
1.903047460930086
 20
-35.31083867970235
 30
0.0
 10
2.378490973625553
 20
-35.51024765778457
 30
0.0
 10
2.973286073108536
 20
-35.51024765778457
 30
0.0
 10
3.560904949806728
 20
-35.51024765778457
 30
0.0
 10
4.025671643236844
 20
-35.32861670897083
 30
0.0
 10
4.367554898072992
 20
-34.96535481134333
 30
0.0
 10
4.780650287025789
 20
-34.52380457385667
 30
0.0
 10
4.987235487893005
 20
-33.97533611815318
 30
0.0
 10
4.987235487893005
 20
-33.32001195488429
 30
0.0
 10
4.987235487893005
 20
-32.7537654699121
 30
0.0
 10
4.826970679740143
 20
-32.2854981800018
 30
0.0
 10
4.506453565564849
 20
-31.91506005958917
 30
0.0
  0
SPLINE
  5
4E
330
41
100
AcDbEntity
  8
Layer 1
370
     0
100
AcDbSpline
210
0.0
220
0.0
230
1.0
 70
    11
 71
     3
 72
    29
 73
    25
 74
     0
 42
0.0000000001
 43
0.0000000001
 12
1.0
 22
0.0
 32
0.0
 13
1.0
 23
0.0
 33
0.0
 40
0.0
 40
0.0
 40
0.0
 40
0.0
 40
1.0
 40
1.0
 40
1.0
 40
2.0
 40
2.0
 40
2.0
 40
3.0
 40
3.0
 40
3.0
 40
4.0
 40
4.0
 40
4.0
 40
5.0
 40
5.0
 40
5.0
 40
6.0
 40
6.0
 40
6.0
 40
7.0
 40
7.0
 40
7.0
 40
8.0
 40
8.0
 40
8.0
 40
8.0
 10
3.870745244716595
 20
-34.74632999084027
 30
0.0
 10
3.657071335976575
 20
-35.06334650853501
 30
0.0
 10
3.35256945069932
 20
-35.22177350353569
 30
0.0
 10
2.957264593145434
 20
-35.22177350353569
 30
0.0
 10
2.611780724786336
 20
-35.22177350353569
 30
0.0
 10
2.332245593692859
 20
-35.04198036787415
 30
0.0
 10
2.118565433887574
 20
-34.68223156885723
 30
0.0
 10
1.904885274082315
 20
-34.32255778262222
 30
0.0
 10
1.798042068647192
 20
-33.9219145154357
 30
0.0
 10
1.798042068647192
 20
-33.48027676303708
 30
0.0
 10
1.798042068647192
 20
-32.98530492283291
 30
0.0
 10
1.920913005110682
 20
-32.52763943940597
 30
0.0
 10
2.166642375907385
 20
-32.10738032979862
 30
0.0
 10
2.387417494650663
 20
-31.73702972429818
 30
0.0
 10
2.661614216111552
 20
-31.55181066409194
 30
0.0
 10
2.989313804136903
 20
-31.55181066409194
 30
0.0
 10
3.39531423415148
 20
-31.55181066409194
 30
0.0
 10
3.706892325171465
 20
-31.7601461631993
 30
0.0
 10
3.924166847434258
 20
-32.17681716141432
 30
0.0
 10
4.130664533389462
 20
-32.57213452109848
 30
0.0
 10
4.234007142344252
 20
-32.97637840180762
 30
0.0
 10
4.234007142344252
 20
-33.38946128863014
 30
0.0
 10
4.234007142344252
 20
-33.93435413507152
 30
0.0
 10
4.112886504120929
 20
-34.38666870673529
 30
0.0
 10
3.870745244716595
 20
-34.74632999084027
 30
0.0
  0
HATCH
  5
4F
330
41
100
AcDbEntity
  8
Layer 1
 62
   250
420
  2301728
100
AcDbHatch
 10
0.0
 20
0.0
 30
0.0
210
0.0
220
0.0
230
1.0
  2
SOLID
 70
     1
 71
     0
 91
        2
 92
        1
 93
        1
 72
     4
 94
        3
 73
     0
 74
     1
 95
       29
 96
       25
 40
0.0
 40
0.0
 40
0.0
 40
0.0
 40
1.0
 40
1.0
 40
1.0
 40
2.0
 40
2.0
 40
2.0
 40
3.0
 40
3.0
 40
3.0
 40
4.0
 40
4.0
 40
4.0
 40
5.0
 40
5.0
 40
5.0
 40
6.0
 40
6.0
 40
6.0
 40
7.0
 40
7.0
 40
7.0
 40
8.0
 40
8.0
 40
8.0
 40
8.0
 10
4.506453565564849
 20
-31.91506005958917
 10
4.118237415883893
 20
-31.46992171071027
 10
3.594710710103577
 20
-31.24730877881471
 10
2.935892201419266
 20
-31.24730877881471
 10
2.344685213328678
 20
-31.24730877881471
 10
1.87633665957133
 20
-31.45656943556332
 10
1.530940306124269
 20
-31.87500323414876
 10
1.185462688830411
 20
-32.29351204551583
 10
1.012764512106944
 20
-32.81077518402223
 10
1.012764512106944
 20
-33.42685516031944
 10
1.012764512106944
 20
-34.01806839947514
 10
1.190807349528237
 20
-34.51312775459139
 10
1.546968037152611
 20
-34.91193320862569
 10
1.903047460930086
 20
-35.31083867970235
 10
2.378490973625553
 20
-35.51024765778457
 10
2.973286073108536
 20
-35.51024765778457
 10
3.560904949806728
 20
-35.51024765778457
 10
4.025671643236844
 20
-35.32861670897083
 10
4.367554898072992
 20
-34.96535481134333
 10
4.780650287025789
 20
-34.52380457385667
 10
4.987235487893005
 20
-33.97533611815318
 10
4.987235487893005
 20
-33.32001195488429
 10
4.987235487893005
 20
-32.7537654699121
 10
4.826970679740143
 20
-32.2854981800018
 10
4.506453565564849
 20
-31.91506005958917
 97
        0
 97
        0
 92
        1
 93
        1
 72
     4
 94
        3
 73
     0
 74
     1
 95
       29
 96
       25
 40
0.0
 40
0.0
 40
0.0
 40
0.0
 40
1.0
 40
1.0
 40
1.0
 40
2.0
 40
2.0
 40
2.0
 40
3.0
 40
3.0
 40
3.0
 40
4.0
 40
4.0
 40
4.0
 40
5.0
 40
5.0
 40
5.0
 40
6.0
 40
6.0
 40
6.0
 40
7.0
 40
7.0
 40
7.0
 40
8.0
 40
8.0
 40
8.0
 40
8.0
 10
3.870745244716595
 20
-34.74632999084027
 10
3.657071335976575
 20
-35.06334650853501
 10
3.35256945069932
 20
-35.22177350353569
 10
2.957264593145434
 20
-35.22177350353569
 10
2.611780724786336
 20
-35.22177350353569
 10
2.332245593692859
 20
-35.04198036787415
 10
2.118565433887574
 20
-34.68223156885723
 10
1.904885274082315
 20
-34.32255778262222
 10
1.798042068647192
 20
-33.9219145154357
 10
1.798042068647192
 20
-33.48027676303708
 10
1.798042068647192
 20
-32.98530492283291
 10
1.920913005110682
 20
-32.52763943940597
 10
2.166642375907385
 20
-32.10738032979862
 10
2.387417494650663
 20
-31.73702972429818
 10
2.661614216111552
 20
-31.55181066409194
 10
2.989313804136903
 20
-31.55181066409194
 10
3.39531423415148
 20
-31.55181066409194
 10
3.706892325171465
 20
-31.7601461631993
 10
3.924166847434258
 20
-32.17681716141432
 10
4.130664533389462
 20
-32.57213452109848
 10
4.234007142344252
 20
-32.97637840180762
 10
4.234007142344252
 20
-33.38946128863014
 10
4.234007142344252
 20
-33.93435413507152
 10
4.112886504120929
 20
-34.38666870673529
 10
3.870745244716595
 20
-34.74632999084027
 97
        0
 97
        0
 75
     2
 76
     1
 98
        0
  0
SPLINE
  5
50
330
41
100
AcDbEntity
  8
Layer 1
370
     0
100
AcDbSpline
210
0.0
220
0.0
230
1.0
 70
    11
 71
     3
 72
   110
 73
   106
 74
     0
 42
0.0000000001
 43
0.0000000001
 12
1.0
 22
0.0
 32
0.0
 13
1.0
 23
0.0
 33
0.0
 40
0.0
 40
0.0
 40
0.0
 40
0.0
 40
1.0
 40
1.0
 40
1.0
 40
2.0
 40
2.0
 40
2.0
 40
3.0
 40
3.0
 40
3.0
 40
4.0
 40
4.0
 40
4.0
 40
5.0
 40
5.0
 40
5.0
 40
6.0
 40
6.0
 40
6.0
 40
7.0
 40
7.0
 40
7.0
 40
8.0
 40
8.0
 40
8.0
 40
9.0
 40
9.0
 40
9.0
 40
10.0
 40
10.0
 40
10.0
 40
11.0
 40
11.0
 40
11.0
 40
12.0
 40
12.0
 40
12.0
 40
13.0
 40
13.0
 40
13.0
 40
14.0
 40
14.0
 40
14.0
 40
15.0
 40
15.0
 40
15.0
 40
16.0
 40
16.0
 40
16.0
 40
17.0
 40
17.0
 40
17.0
 40
18.0
 40
18.0
 40
18.0
 40
19.0
 40
19.0
 40
19.0
 40
20.0
 40
20.0
 40
20.0
 40
21.0
 40
21.0
 40
21.0
 40
22.0
 40
22.0
 40
22.0
 40
23.0
 40
23.0
 40
23.0
 40
24.0
 40
24.0
 40
24.0
 40
25.0
 40
25.0
 40
25.0
 40
26.0
 40
26.0
 40
26.0
 40
27.0
 40
27.0
 40
27.0
 40
28.0
 40
28.0
 40
28.0
 40
29.0
 40
29.0
 40
29.0
 40
30.0
 40
30.0
 40
30.0
 40
31.0
 40
31.0
 40
31.0
 40
32.0
 40
32.0
 40
32.0
 40
33.0
 40
33.0
 40
33.0
 40
34.0
 40
34.0
 40
34.0
 40
35.0
 40
35.0
 40
35.0
 40
35.0
 10
5.027298564398658
 20
-37.2191724193418
 30
0.0
 10
5.027298564398658
 20
-37.2191724193418
 30
0.0
 10
5.011270833370241
 20
-40.75024909342389
 30
0.0
 10
5.011270833370241
 20
-40.75024909342389
 30
0.0
 10
5.153670097342582
 20
-40.78588016474264
 30
0.0
 10
5.224957244240689
 20
-40.84288987885277
 30
0.0
 10
5.224957244240689
 20
-40.92119072084208
 30
0.0
 10
5.224957244240689
 20
-41.01734460488165
 30
0.0
 10
5.169697828370949
 20
-41.0663404534775
 30
0.0
 10
5.05935402645524
 20
-41.06809075171779
 30
0.0
 10
4.948922709627545
 20
-41.06992856487
 30
0.0
 10
4.849180714195553
 20
-41.07076620759916
 30
0.0
 10
4.760190550810598
 20
-41.07076620759916
 30
0.0
 10
4.311464090539099
 20
-41.06726561111875
 30
0.0
 10
4.063896906590167
 20
-41.0565762897232
 30
0.0
 10
4.017651526657497
 20
-41.03871074554263
 30
0.0
 10
3.971331133943067
 20
-41.02093271627417
 30
0.0
 10
3.948214695041896
 20
-40.97461232355959
 30
0.0
 10
3.948214695041896
 20
-40.8998245801811
 30
0.0
 10
3.948214695041896
 20
-40.84999108885596
 30
0.0
 10
4.021164625268208
 20
-40.80549600716348
 30
0.0
 10
4.167227013414731
 20
-40.76627682445223
 30
0.0
 10
4.177916334810384
 20
-40.00771006927084
 30
0.0
 10
4.199282475471313
 20
-38.96425727123278
 30
0.0
 10
4.231337937527895
 20
-37.63584341755666
 30
0.0
 10
3.985608566731141
 20
-38.33031175075514
 30
0.0
 10
3.745217605567152
 20
-39.00073848741113
 30
0.0
 10
3.510165054035825
 20
-39.64712362752471
 30
0.0
 10
3.275112502504347
 20
-40.29349626550806
 30
0.0
 10
3.123699202594985
 20
-40.68347521555945
 30
0.0
 10
3.056087682001387
 20
-40.81702297128832
 30
0.0
 10
2.988401148625952
 20
-40.95057072701722
 30
0.0
 10
2.906512195244153
 20
-41.01734460488165
 30
0.0
 10
2.810358311204684
 20
-41.01734460488165
 30
0.0
 10
2.735570567825991
 20
-41.01734460488165
 30
0.0
 10
2.66787778338557
 20
-40.97911309046306
 30
0.0
 10
2.607361221729939
 20
-40.90248753393237
 30
0.0
 10
2.546763396227359
 20
-40.82594949231346
 30
0.0
 10
2.392762155348464
 20
-40.50275692225667
 30
0.0
 10
2.145276235246456
 20
-39.93290982376195
 30
0.0
 10
1.897709051297498
 20
-39.36315024017916
 30
0.0
 10
1.615498464322425
 20
-38.71142669043292
 30
0.0
 10
1.298569461539551
 20
-37.97773917452319
 30
0.0
 10
1.298569461539551
 20
-37.97773917452319
 30
0.0
 10
1.330618672530995
 20
-40.77161523408484
 30
0.0
 10
1.330618672530995
 20
-40.77161523408484
 30
0.0
 10
1.430279404116188
 20
-40.78948077826554
 30
0.0
 10
1.503316849254588
 20
-40.80633364989264
 30
0.0
 10
1.549643493034106
 20
-40.82236138092112
 30
0.0
 10
1.595882621901662
 20
-40.83838911194945
 30
0.0
 10
1.619086575714821
 20
-40.88028375054207
 30
0.0
 10
1.619086575714821
 20
-40.94789527113569
 30
0.0
 10
1.619086575714821
 20
-41.01200619524889
 30
0.0
 10
1.577185686056964
 20
-41.04940006693818
 30
0.0
 10
1.493552685500264
 20
-41.06007688620361
 30
0.0
 10
1.409832170031324
 20
-41.07076620759916
 30
0.0
 10
1.311002830110232
 20
-41.07610461723195
 30
0.0
 10
1.197070916802254
 20
-41.07610461723195
 30
0.0
 10
1.168522302291144
 20
-41.07610461723195
 30
0.0
 10
1.110674945451845
 20
-41.07519196172082
 30
0.0
 10
1.023453833502597
 20
-41.07344166348068
 30
0.0
 10
0.9361452066412868
 20
-41.07160385032848
 30
0.0
 10
0.8658644812313064
 20
-41.06459015523735
 30
0.0
 10
0.812442878513669
 20
-41.05206302068945
 30
0.0
 10
0.7590212757960317
 20
-41.03963590318376
 30
0.0
 10
0.7323104744373015
 20
-41.00131687385333
 30
0.0
 10
0.7323104744373015
 20
-40.93721845187042
 30
0.0
 10
0.7323104744373015
 20
-40.84106456783082
 30
0.0
 10
0.8248824981494888
 20
-40.79298137474598
 30
0.0
 10
1.010095307290612
 20
-40.79298137474598
 30
0.0
 10
1.010095307290612
 20
-40.79298137474598
 30
0.0
 10
1.010095307290612
 20
-37.26724311029637
 30
0.0
 10
1.010095307290612
 20
-37.26724311029637
 30
0.0
 10
0.8426605274180221
 20
-37.24946508102791
 30
0.0
 10
0.7590212757960317
 20
-37.19429318007014
 30
0.0
 10
0.7590212757960317
 20
-37.10163989251097
 30
0.0
 10
0.7590212757960317
 20
-37.01617532986695
 30
0.0
 10
0.8231259488442093
 20
-36.97343054641487
 30
0.0
 10
0.9513352949403876
 20
-36.97343054641487
 30
0.0
 10
0.9513352949403876
 20
-36.97343054641487
 30
0.0
 10
1.47485574965554
 20
-36.97878145817776
 30
0.0
 10
1.47485574965554
 20
-36.97878145817776
 30
0.0
 10
1.585199551571147
 20
-36.97878145817776
 30
0.0
 10
1.684028891492213
 20
-37.04204223743138
 30
0.0
 10
1.771337518353549
 20
-37.16841377037528
 30
0.0
 10
1.858558630302797
 20
-37.2948728182314
 30
0.0
 10
2.022411549848117
 20
-37.62782955204248
 30
0.0
 10
2.262802511012119
 20
-38.16737148672084
 30
0.0
 10
2.503193472176134
 20
-38.70692592352945
 30
0.0
 10
2.772964439515413
 20
-39.30439022782889
 30
0.0
 10
3.072115413029602
 20
-39.95962687618596
 30
0.0
 10
3.289302420380484
 20
-39.42192275465971
 30
0.0
 10
3.638374400132029
 20
-38.49591496854055
 30
0.0
 10
4.119156322460008
 20
-37.18177854765251
 30
0.0
 10
4.168989813785148
 20
-37.03937928368027
 30
0.0
 10
4.279408628482567
 20
-36.96634183854194
 30
0.0
 10
4.450362758030956
 20
-36.96275372714945
 30
0.0
 10
4.831390182796718
 20
-36.94856380927346
 30
0.0
 10
5.062854622935725
 20
-36.94138758648847
 30
0.0
 10
5.144818589099208
 20
-36.94138758648847
 30
0.0
 10
5.226707542480981
 20
-36.94497569788084
 30
0.0
 10
5.267689525562647
 20
-36.98411986781043
 30
0.0
 10
5.267689525562647
 20
-37.05890761118901
 30
0.0
 10
5.267689525562647
 20
-37.1408715773525
 30
0.0
 10
5.187563372551393
 20
-37.19429318007014
 30
0.0
 10
5.027298564398658
 20
-37.2191724193418
 30
0.0
  0
HATCH
  5
51
330
41
100
AcDbEntity
  8
Layer 1
 62
   250
420
  2301728
100
AcDbHatch
 10
0.0
 20
0.0
 30
0.0
210
0.0
220
0.0
230
1.0
  2
SOLID
 70
     1
 71
     0
 91
        1
 92
        1
 93
        1
 72
     4
 94
        3
 73
     0
 74
     1
 95
      110
 96
      106
 40
0.0
 40
0.0
 40
0.0
 40
0.0
 40
1.0
 40
1.0
 40
1.0
 40
2.0
 40
2.0
 40
2.0
 40
3.0
 40
3.0
 40
3.0
 40
4.0
 40
4.0
 40
4.0
 40
5.0
 40
5.0
 40
5.0
 40
6.0
 40
6.0
 40
6.0
 40
7.0
 40
7.0
 40
7.0
 40
8.0
 40
8.0
 40
8.0
 40
9.0
 40
9.0
 40
9.0
 40
10.0
 40
10.0
 40
10.0
 40
11.0
 40
11.0
 40
11.0
 40
12.0
 40
12.0
 40
12.0
 40
13.0
 40
13.0
 40
13.0
 40
14.0
 40
14.0
 40
14.0
 40
15.0
 40
15.0
 40
15.0
 40
16.0
 40
16.0
 40
16.0
 40
17.0
 40
17.0
 40
17.0
 40
18.0
 40
18.0
 40
18.0
 40
19.0
 40
19.0
 40
19.0
 40
20.0
 40
20.0
 40
20.0
 40
21.0
 40
21.0
 40
21.0
 40
22.0
 40
22.0
 40
22.0
 40
23.0
 40
23.0
 40
23.0
 40
24.0
 40
24.0
 40
24.0
 40
25.0
 40
25.0
 40
25.0
 40
26.0
 40
26.0
 40
26.0
 40
27.0
 40
27.0
 40
27.0
 40
28.0
 40
28.0
 40
28.0
 40
29.0
 40
29.0
 40
29.0
 40
30.0
 40
30.0
 40
30.0
 40
31.0
 40
31.0
 40
31.0
 40
32.0
 40
32.0
 40
32.0
 40
33.0
 40
33.0
 40
33.0
 40
34.0
 40
34.0
 40
34.0
 40
35.0
 40
35.0
 40
35.0
 40
35.0
 10
5.027298564398658
 20
-37.2191724193418
 10
5.027298564398658
 20
-37.2191724193418
 10
5.011270833370241
 20
-40.75024909342389
 10
5.011270833370241
 20
-40.75024909342389
 10
5.153670097342582
 20
-40.78588016474264
 10
5.224957244240689
 20
-40.84288987885277
 10
5.224957244240689
 20
-40.92119072084208
 10
5.224957244240689
 20
-41.01734460488165
 10
5.169697828370949
 20
-41.0663404534775
 10
5.05935402645524
 20
-41.06809075171779
 10
4.948922709627545
 20
-41.06992856487
 10
4.849180714195553
 20
-41.07076620759916
 10
4.760190550810598
 20
-41.07076620759916
 10
4.311464090539099
 20
-41.06726561111875
 10
4.063896906590167
 20
-41.0565762897232
 10
4.017651526657497
 20
-41.03871074554263
 10
3.971331133943067
 20
-41.02093271627417
 10
3.948214695041896
 20
-40.97461232355959
 10
3.948214695041896
 20
-40.8998245801811
 10
3.948214695041896
 20
-40.84999108885596
 10
4.021164625268208
 20
-40.80549600716348
 10
4.167227013414731
 20
-40.76627682445223
 10
4.177916334810384
 20
-40.00771006927084
 10
4.199282475471313
 20
-38.96425727123278
 10
4.231337937527895
 20
-37.63584341755666
 10
3.985608566731141
 20
-38.33031175075514
 10
3.745217605567152
 20
-39.00073848741113
 10
3.510165054035825
 20
-39.64712362752471
 10
3.275112502504347
 20
-40.29349626550806
 10
3.123699202594985
 20
-40.68347521555945
 10
3.056087682001387
 20
-40.81702297128832
 10
2.988401148625952
 20
-40.95057072701722
 10
2.906512195244153
 20
-41.01734460488165
 10
2.810358311204684
 20
-41.01734460488165
 10
2.735570567825991
 20
-41.01734460488165
 10
2.66787778338557
 20
-40.97911309046306
 10
2.607361221729939
 20
-40.90248753393237
 10
2.546763396227359
 20
-40.82594949231346
 10
2.392762155348464
 20
-40.50275692225667
 10
2.145276235246456
 20
-39.93290982376195
 10
1.897709051297498
 20
-39.36315024017916
 10
1.615498464322425
 20
-38.71142669043292
 10
1.298569461539551
 20
-37.97773917452319
 10
1.298569461539551
 20
-37.97773917452319
 10
1.330618672530995
 20
-40.77161523408484
 10
1.330618672530995
 20
-40.77161523408484
 10
1.430279404116188
 20
-40.78948077826554
 10
1.503316849254588
 20
-40.80633364989264
 10
1.549643493034106
 20
-40.82236138092112
 10
1.595882621901662
 20
-40.83838911194945
 10
1.619086575714821
 20
-40.88028375054207
 10
1.619086575714821
 20
-40.94789527113569
 10
1.619086575714821
 20
-41.01200619524889
 10
1.577185686056964
 20
-41.04940006693818
 10
1.493552685500264
 20
-41.06007688620361
 10
1.409832170031324
 20
-41.07076620759916
 10
1.311002830110232
 20
-41.07610461723195
 10
1.197070916802254
 20
-41.07610461723195
 10
1.168522302291144
 20
-41.07610461723195
 10
1.110674945451845
 20
-41.07519196172082
 10
1.023453833502597
 20
-41.07344166348068
 10
0.9361452066412868
 20
-41.07160385032848
 10
0.8658644812313064
 20
-41.06459015523735
 10
0.812442878513669
 20
-41.05206302068945
 10
0.7590212757960317
 20
-41.03963590318376
 10
0.7323104744373015
 20
-41.00131687385333
 10
0.7323104744373015
 20
-40.93721845187042
 10
0.7323104744373015
 20
-40.84106456783082
 10
0.8248824981494888
 20
-40.79298137474598
 10
1.010095307290612
 20
-40.79298137474598
 10
1.010095307290612
 20
-40.79298137474598
 10
1.010095307290612
 20
-37.26724311029637
 10
1.010095307290612
 20
-37.26724311029637
 10
0.8426605274180221
 20
-37.24946508102791
 10
0.7590212757960317
 20
-37.19429318007014
 10
0.7590212757960317
 20
-37.10163989251097
 10
0.7590212757960317
 20
-37.01617532986695
 10
0.8231259488442093
 20
-36.97343054641487
 10
0.9513352949403876
 20
-36.97343054641487
 10
0.9513352949403876
 20
-36.97343054641487
 10
1.47485574965554
 20
-36.97878145817776
 10
1.47485574965554
 20
-36.97878145817776
 10
1.585199551571147
 20
-36.97878145817776
 10
1.684028891492213
 20
-37.04204223743138
 10
1.771337518353549
 20
-37.16841377037528
 10
1.858558630302797
 20
-37.2948728182314
 10
2.022411549848117
 20
-37.62782955204248
 10
2.262802511012119
 20
-38.16737148672084
 10
2.503193472176134
 20
-38.70692592352945
 10
2.772964439515413
 20
-39.30439022782889
 10
3.072115413029602
 20
-39.95962687618596
 10
3.289302420380484
 20
-39.42192275465971
 10
3.638374400132029
 20
-38.49591496854055
 10
4.119156322460008
 20
-37.18177854765251
 10
4.168989813785148
 20
-37.03937928368027
 10
4.279408628482567
 20
-36.96634183854194
 10
4.450362758030956
 20
-36.96275372714945
 10
4.831390182796718
 20
-36.94856380927346
 10
5.062854622935725
 20
-36.94138758648847
 10
5.144818589099208
 20
-36.94138758648847
 10
5.226707542480981
 20
-36.94497569788084
 10
5.267689525562647
 20
-36.98411986781043
 10
5.267689525562647
 20
-37.05890761118901
 10
5.267689525562647
 20
-37.1408715773525
 10
5.187563372551393
 20
-37.19429318007014
 10
5.027298564398658
 20
-37.2191724193418
 97
        0
 97
        0
 75
     2
 76
     1
 98
        0
  0
SPLINE
  5
52
330
41
100
AcDbEntity
  8
Layer 1
370
     0
100
AcDbSpline
210
0.0
220
0.0
230
1.0
 70
    11
 71
     3
 72
   122
 73
   118
 74
     0
 42
0.0000000001
 43
0.0000000001
 12
1.0
 22
0.0
 32
0.0
 13
1.0
 23
0.0
 33
0.0
 40
0.0
 40
0.0
 40
0.0
 40
0.0
 40
1.0
 40
1.0
 40
1.0
 40
2.0
 40
2.0
 40
2.0
 40
3.0
 40
3.0
 40
3.0
 40
4.0
 40
4.0
 40
4.0
 40
5.0
 40
5.0
 40
5.0
 40
6.0
 40
6.0
 40
6.0
 40
7.0
 40
7.0
 40
7.0
 40
8.0
 40
8.0
 40
8.0
 40
9.0
 40
9.0
 40
9.0
 40
10.0
 40
10.0
 40
10.0
 40
11.0
 40
11.0
 40
11.0
 40
12.0
 40
12.0
 40
12.0
 40
13.0
 40
13.0
 40
13.0
 40
14.0
 40
14.0
 40
14.0
 40
15.0
 40
15.0
 40
15.0
 40
16.0
 40
16.0
 40
16.0
 40
17.0
 40
17.0
 40
17.0
 40
18.0
 40
18.0
 40
18.0
 40
19.0
 40
19.0
 40
19.0
 40
20.0
 40
20.0
 40
20.0
 40
21.0
 40
21.0
 40
21.0
 40
22.0
 40
22.0
 40
22.0
 40
23.0
 40
23.0
 40
23.0
 40
24.0
 40
24.0
 40
24.0
 40
25.0
 40
25.0
 40
25.0
 40
26.0
 40
26.0
 40
26.0
 40
27.0
 40
27.0
 40
27.0
 40
28.0
 40
28.0
 40
28.0
 40
29.0
 40
29.0
 40
29.0
 40
30.0
 40
30.0
 40
30.0
 40
31.0
 40
31.0
 40
31.0
 40
32.0
 40
32.0
 40
32.0
 40
33.0
 40
33.0
 40
33.0
 40
34.0
 40
34.0
 40
34.0
 40
35.0
 40
35.0
 40
35.0
 40
36.0
 40
36.0
 40
36.0
 40
37.0
 40
37.0
 40
37.0
 40
38.0
 40
38.0
 40
38.0
 40
39.0
 40
39.0
 40
39.0
 40
39.0
 10
3.697137538014835
 20
-43.08418660336861
 30
0.0
 10
3.697137538014835
 20
-43.00229764998694
 30
0.0
 10
3.714915567283318
 20
-42.9221714969757
 30
0.0
 10
3.750546638602069
 20
-42.84379564220459
 30
0.0
 10
3.194976972895473
 20
-42.84379564220459
 30
0.0
 10
2.828133214940534
 20
-42.84913405183723
 30
0.0
 10
2.650096628584379
 20
-42.85982337323291
 30
0.0
 10
2.653603476129976
 20
-43.88548563987195
 30
0.0
 10
2.660779698914919
 20
-44.51409275071708
 30
0.0
 10
2.671462769245282
 20
-44.74555719085598
 30
0.0
 10
2.671462769245282
 20
-44.74555719085598
 30
0.0
 10
3.275115628036979
 20
-44.73486786946028
 30
0.0
 10
3.275115628036979
 20
-44.73486786946028
 30
0.0
 10
3.289293043782739
 20
-44.65297891607861
 30
0.0
 10
3.306245932452384
 20
-44.58354208446291
 30
0.0
 10
3.325874277003347
 20
-44.52653237035292
 30
0.0
 10
3.345402604512072
 20
-44.46959766902473
 30
0.0
 10
3.38370913171237
 20
-44.4410553055786
 30
0.0
 10
3.440718845822453
 20
-44.4410553055786
 30
0.0
 10
3.494127946409687
 20
-44.4410553055786
 30
0.0
 10
3.531534320229386
 20
-44.47136046939514
 30
0.0
 10
3.552887958760013
 20
-44.53187077998556
 30
0.0
 10
3.567090378766377
 20
-44.57110246482709
 30
0.0
 10
3.576016899791461
 20
-44.77584985254222
 30
0.0
 10
3.57961751331431
 20
-45.14620045804248
 30
0.0
 10
3.57961751331431
 20
-45.2709092076582
 30
0.0
 10
3.543961437734929
 20
-45.33316981648901
 30
0.0
 10
3.472774307879035
 20
-45.33316981648901
 30
0.0
 10
3.376607921709137
 20
-45.33316981648901
 30
0.0
 10
3.321348505839397
 20
-45.29043753516708
 30
0.0
 10
3.307171090093561
 20
-45.20496047039278
 30
0.0
 10
3.307171090093561
 20
-45.20496047039278
 30
0.0
 10
3.280466539799944
 20
-45.03935725260736
 30
0.0
 10
3.280466539799944
 20
-45.03935725260736
 30
0.0
 10
3.180699540107273
 20
-45.03226854473446
 30
0.0
 10
3.084558158198029
 20
-45.02868043334193
 30
0.0
 10
2.991986134485842
 20
-45.02868043334193
 30
0.0
 10
2.877966706265624
 20
-45.02868043334193
 30
0.0
 10
2.77112975189564
 20
-45.0340188429746
 30
0.0
 10
2.671462769245282
 20
-45.04470816437027
 30
0.0
 10
2.671462769245282
 20
-45.04470816437027
 30
0.0
 10
2.650096628584379
 20
-46.39623845694764
 30
0.0
 10
2.650096628584379
 20
-46.39623845694764
 30
0.0
 10
2.650096628584379
 20
-46.39623845694764
 30
0.0
 10
3.884094394330961
 20
-46.39623845694764
 30
0.0
 10
3.884094394330961
 20
-46.39623845694764
 30
0.0
 10
3.969583961235432
 20
-46.39623845694764
 30
0.0
 10
4.030094271825925
 20
-46.35616912937694
 30
0.0
 10
4.065725343144751
 20
-46.27604297636569
 30
0.0
 10
4.101281401681819
 20
-46.19590432122416
 30
0.0
 10
4.123585202114302
 20
-46.10333854857709
 30
0.0
 10
4.132511723139386
 20
-45.99825814351235
 30
0.0
 10
4.141363231382835
 20
-45.8932527512293
 30
0.0
 10
4.186770968586289
 20
-45.84066879124111
 30
0.0
 10
4.268734934749798
 20
-45.84066879124111
 30
0.0
 10
4.347023274608798
 20
-45.84066879124111
 30
0.0
 10
4.386254959450272
 20
-45.87096145292708
 30
0.0
 10
4.386254959450272
 20
-45.93148426564792
 30
0.0
 10
4.386254959450272
 20
-46.25200137982334
 30
0.0
 10
4.365726461518635
 20
-46.46217469208278
 30
0.0
 10
4.324819491218477
 20
-46.56184167473318
 30
0.0
 10
4.283837508136786
 20
-46.66158367016512
 30
0.0
 10
4.197447787851666
 20
-46.71141716149027
 30
0.0
 10
4.065725343144751
 20
-46.71141716149027
 30
0.0
 10
4.065725343144751
 20
-46.71141716149027
 30
0.0
 10
2.452444199807461
 20
-46.71141716149027
 30
0.0
 10
2.452444199807461
 20
-46.71141716149027
 30
0.0
 10
2.395434485697428
 20
-46.71141716149027
 30
0.0
 10
2.260130180663105
 20
-46.70957934833819
 30
0.0
 10
2.046450020857972
 20
-46.70607875185778
 30
0.0
 10
1.832769861052674
 20
-46.70247813833485
 30
0.0
 10
1.689370426657408
 20
-46.69713972870222
 30
0.0
 10
1.616414245365958
 20
-46.69005102082931
 30
0.0
 10
1.543376800227558
 20
-46.68294981082625
 30
0.0
 10
1.506901835114478
 20
-46.64730623737707
 30
0.0
 10
1.506901835114478
 20
-46.58320781539416
 30
0.0
 10
1.506901835114478
 20
-46.49773075061999
 30
0.0
 10
1.538957297171047
 20
-46.44430914790235
 30
0.0
 10
1.603061970219086
 20
-46.42294300724125
 30
0.0
 10
1.667166643267238
 20
-46.40157686658042
 30
0.0
 10
1.74011657349355
 20
-46.38738694870431
 30
0.0
 10
1.822080539657059
 20
-46.38021072591932
 30
0.0
 10
1.832769861052674
 20
-46.29832177253764
 30
0.0
 10
1.843452931383101
 20
-45.7284871761732
 30
0.0
 10
1.854136001713616
 20
-44.67076944747749
 30
0.0
 10
1.854136001713616
 20
-43.67715014076457
 30
0.0
 10
1.84695977892866
 20
-43.07174698373279
 30
0.0
 10
1.832769861052674
 20
-42.85447246146999
 30
0.0
 10
1.832769861052674
 20
-42.85447246146999
 30
0.0
 10
1.741954386645779
 20
-42.85447246146999
 30
0.0
 10
1.741954386645779
 20
-42.85447246146999
 30
0.0
 10
1.592378899888672
 20
-42.85447246146999
 30
0.0
 10
1.517584905444866
 20
-42.81532829154043
 30
0.0
 10
1.517584905444866
 20
-42.73695243676944
 30
0.0
 10
1.517584905444866
 20
-42.63728545411903
 30
0.0
 10
1.583446127798323
 20
-42.58737695001223
 30
0.0
 10
1.715243585287024
 20
-42.58737695001223
 30
0.0
 10
2.174659366954024
 20
-42.58737695001223
 30
0.0
 10
2.565457206539425
 20
-42.58470149413069
 30
0.0
 10
2.88781838493205
 20
-42.57936308449805
 30
0.0
 10
3.210079546282486
 20
-42.57402467486541
 30
0.0
 10
3.510155677438004
 20
-42.56959892074375
 30
0.0
 10
3.787953012421566
 20
-42.56601080935125
 30
0.0
 10
4.258033111223843
 20
-42.56601080935125
 30
0.0
 10
4.493098164885471
 20
-42.7281009285261
 30
0.0
 10
4.493098164885471
 20
-43.05213114131195
 30
0.0
 10
4.493098164885471
 20
-43.15187313674404
 30
0.0
 10
4.457442089306166
 20
-43.24443890939111
 30
0.0
 10
4.386254959450272
 20
-43.32991597416528
 30
0.0
 10
4.314967812552216
 20
-43.41539303893958
 30
0.0
 10
4.211725220639715
 20
-43.45812532026154
 30
0.0
 10
4.076427166670706
 20
-43.45812532026154
 30
0.0
 10
3.958882137709502
 20
-43.45812532026154
 30
0.0
 10
3.866241352280566
 20
-43.42431955996459
 30
0.0
 10
3.798629831686993
 20
-43.35662052445903
 30
0.0
 10
3.730943298311558
 20
-43.28902150599556
 30
0.0
 10
3.697137538014835
 20
-43.19820603158875
 30
0.0
 10
3.697137538014835
 20
-43.08418660336861
 30
0.0
  0
HATCH
  5
53
330
41
100
AcDbEntity
  8
Layer 1
 62
   250
420
  2301728
100
AcDbHatch
 10
0.0
 20
0.0
 30
0.0
210
0.0
220
0.0
230
1.0
  2
SOLID
 70
     1
 71
     0
 91
        1
 92
        1
 93
        1
 72
     4
 94
        3
 73
     0
 74
     1
 95
      122
 96
      118
 40
0.0
 40
0.0
 40
0.0
 40
0.0
 40
1.0
 40
1.0
 40
1.0
 40
2.0
 40
2.0
 40
2.0
 40
3.0
 40
3.0
 40
3.0
 40
4.0
 40
4.0
 40
4.0
 40
5.0
 40
5.0
 40
5.0
 40
6.0
 40
6.0
 40
6.0
 40
7.0
 40
7.0
 40
7.0
 40
8.0
 40
8.0
 40
8.0
 40
9.0
 40
9.0
 40
9.0
 40
10.0
 40
10.0
 40
10.0
 40
11.0
 40
11.0
 40
11.0
 40
12.0
 40
12.0
 40
12.0
 40
13.0
 40
13.0
 40
13.0
 40
14.0
 40
14.0
 40
14.0
 40
15.0
 40
15.0
 40
15.0
 40
16.0
 40
16.0
 40
16.0
 40
17.0
 40
17.0
 40
17.0
 40
18.0
 40
18.0
 40
18.0
 40
19.0
 40
19.0
 40
19.0
 40
20.0
 40
20.0
 40
20.0
 40
21.0
 40
21.0
 40
21.0
 40
22.0
 40
22.0
 40
22.0
 40
23.0
 40
23.0
 40
23.0
 40
24.0
 40
24.0
 40
24.0
 40
25.0
 40
25.0
 40
25.0
 40
26.0
 40
26.0
 40
26.0
 40
27.0
 40
27.0
 40
27.0
 40
28.0
 40
28.0
 40
28.0
 40
29.0
 40
29.0
 40
29.0
 40
30.0
 40
30.0
 40
30.0
 40
31.0
 40
31.0
 40
31.0
 40
32.0
 40
32.0
 40
32.0
 40
33.0
 40
33.0
 40
33.0
 40
34.0
 40
34.0
 40
34.0
 40
35.0
 40
35.0
 40
35.0
 40
36.0
 40
36.0
 40
36.0
 40
37.0
 40
37.0
 40
37.0
 40
38.0
 40
38.0
 40
38.0
 40
39.0
 40
39.0
 40
39.0
 40
39.0
 10
3.697137538014835
 20
-43.08418660336861
 10
3.697137538014835
 20
-43.00229764998694
 10
3.714915567283318
 20
-42.9221714969757
 10
3.750546638602069
 20
-42.84379564220459
 10
3.194976972895473
 20
-42.84379564220459
 10
2.828133214940534
 20
-42.84913405183723
 10
2.650096628584379
 20
-42.85982337323291
 10
2.653603476129976
 20
-43.88548563987195
 10
2.660779698914919
 20
-44.51409275071708
 10
2.671462769245282
 20
-44.74555719085598
 10
2.671462769245282
 20
-44.74555719085598
 10
3.275115628036979
 20
-44.73486786946028
 10
3.275115628036979
 20
-44.73486786946028
 10
3.289293043782739
 20
-44.65297891607861
 10
3.306245932452384
 20
-44.58354208446291
 10
3.325874277003347
 20
-44.52653237035292
 10
3.345402604512072
 20
-44.46959766902473
 10
3.38370913171237
 20
-44.4410553055786
 10
3.440718845822453
 20
-44.4410553055786
 10
3.494127946409687
 20
-44.4410553055786
 10
3.531534320229386
 20
-44.47136046939514
 10
3.552887958760013
 20
-44.53187077998556
 10
3.567090378766377
 20
-44.57110246482709
 10
3.576016899791461
 20
-44.77584985254222
 10
3.57961751331431
 20
-45.14620045804248
 10
3.57961751331431
 20
-45.2709092076582
 10
3.543961437734929
 20
-45.33316981648901
 10
3.472774307879035
 20
-45.33316981648901
 10
3.376607921709137
 20
-45.33316981648901
 10
3.321348505839397
 20
-45.29043753516708
 10
3.307171090093561
 20
-45.20496047039278
 10
3.307171090093561
 20
-45.20496047039278
 10
3.280466539799944
 20
-45.03935725260736
 10
3.280466539799944
 20
-45.03935725260736
 10
3.180699540107273
 20
-45.03226854473446
 10
3.084558158198029
 20
-45.02868043334193
 10
2.991986134485842
 20
-45.02868043334193
 10
2.877966706265624
 20
-45.02868043334193
 10
2.77112975189564
 20
-45.0340188429746
 10
2.671462769245282
 20
-45.04470816437027
 10
2.671462769245282
 20
-45.04470816437027
 10
2.650096628584379
 20
-46.39623845694764
 10
2.650096628584379
 20
-46.39623845694764
 10
2.650096628584379
 20
-46.39623845694764
 10
3.884094394330961
 20
-46.39623845694764
 10
3.884094394330961
 20
-46.39623845694764
 10
3.969583961235432
 20
-46.39623845694764
 10
4.030094271825925
 20
-46.35616912937694
 10
4.065725343144751
 20
-46.27604297636569
 10
4.101281401681819
 20
-46.19590432122416
 10
4.123585202114302
 20
-46.10333854857709
 10
4.132511723139386
 20
-45.99825814351235
 10
4.141363231382835
 20
-45.8932527512293
 10
4.186770968586289
 20
-45.84066879124111
 10
4.268734934749798
 20
-45.84066879124111
 10
4.347023274608798
 20
-45.84066879124111
 10
4.386254959450272
 20
-45.87096145292708
 10
4.386254959450272
 20
-45.93148426564792
 10
4.386254959450272
 20
-46.25200137982334
 10
4.365726461518635
 20
-46.46217469208278
 10
4.324819491218477
 20
-46.56184167473318
 10
4.283837508136786
 20
-46.66158367016512
 10
4.197447787851666
 20
-46.71141716149027
 10
4.065725343144751
 20
-46.71141716149027
 10
4.065725343144751
 20
-46.71141716149027
 10
2.452444199807461
 20
-46.71141716149027
 10
2.452444199807461
 20
-46.71141716149027
 10
2.395434485697428
 20
-46.71141716149027
 10
2.260130180663105
 20
-46.70957934833819
 10
2.046450020857972
 20
-46.70607875185778
 10
1.832769861052674
 20
-46.70247813833485
 10
1.689370426657408
 20
-46.69713972870222
 10
1.616414245365958
 20
-46.69005102082931
 10
1.543376800227558
 20
-46.68294981082625
 10
1.506901835114478
 20
-46.64730623737707
 10
1.506901835114478
 20
-46.58320781539416
 10
1.506901835114478
 20
-46.49773075061999
 10
1.538957297171047
 20
-46.44430914790235
 10
1.603061970219086
 20
-46.42294300724125
 10
1.667166643267238
 20
-46.40157686658042
 10
1.74011657349355
 20
-46.38738694870431
 10
1.822080539657059
 20
-46.38021072591932
 10
1.832769861052674
 20
-46.29832177253764
 10
1.843452931383101
 20
-45.7284871761732
 10
1.854136001713616
 20
-44.67076944747749
 10
1.854136001713616
 20
-43.67715014076457
 10
1.84695977892866
 20
-43.07174698373279
 10
1.832769861052674
 20
-42.85447246146999
 10
1.832769861052674
 20
-42.85447246146999
 10
1.741954386645779
 20
-42.85447246146999
 10
1.741954386645779
 20
-42.85447246146999
 10
1.592378899888672
 20
-42.85447246146999
 10
1.517584905444866
 20
-42.81532829154043
 10
1.517584905444866
 20
-42.73695243676944
 10
1.517584905444866
 20
-42.63728545411903
 10
1.583446127798323
 20
-42.58737695001223
 10
1.715243585287024
 20
-42.58737695001223
 10
2.174659366954024
 20
-42.58737695001223
 10
2.565457206539425
 20
-42.58470149413069
 10
2.88781838493205
 20
-42.57936308449805
 10
3.210079546282486
 20
-42.57402467486541
 10
3.510155677438004
 20
-42.56959892074375
 10
3.787953012421566
 20
-42.56601080935125
 10
4.258033111223843
 20
-42.56601080935125
 10
4.493098164885471
 20
-42.7281009285261
 10
4.493098164885471
 20
-43.05213114131195
 10
4.493098164885471
 20
-43.15187313674404
 10
4.457442089306166
 20
-43.24443890939111
 10
4.386254959450272
 20
-43.32991597416528
 10
4.314967812552216
 20
-43.41539303893958
 10
4.211725220639715
 20
-43.45812532026154
 10
4.076427166670706
 20
-43.45812532026154
 10
3.958882137709502
 20
-43.45812532026154
 10
3.866241352280566
 20
-43.42431955996459
 10
3.798629831686993
 20
-43.35662052445903
 10
3.730943298311558
 20
-43.28902150599556
 10
3.697137538014835
 20
-43.19820603158875
 10
3.697137538014835
 20
-43.08418660336861
 97
        0
 97
        0
 75
     2
 76
     1
 98
        0
  0
SPLINE
  5
54
330
41
100
AcDbEntity
  8
Layer 1
370
     0
100
AcDbSpline
210
0.0
220
0.0
230
1.0
 70
    11
 71
     3
 72
   176
 73
   172
 74
     0
 42
0.0000000001
 43
0.0000000001
 12
1.0
 22
0.0
 32
0.0
 13
1.0
 23
0.0
 33
0.0
 40
0.0
 40
0.0
 40
0.0
 40
0.0
 40
1.0
 40
1.0
 40
1.0
 40
2.0
 40
2.0
 40
2.0
 40
3.0
 40
3.0
 40
3.0
 40
4.0
 40
4.0
 40
4.0
 40
5.0
 40
5.0
 40
5.0
 40
6.0
 40
6.0
 40
6.0
 40
7.0
 40
7.0
 40
7.0
 40
8.0
 40
8.0
 40
8.0
 40
9.0
 40
9.0
 40
9.0
 40
10.0
 40
10.0
 40
10.0
 40
11.0
 40
11.0
 40
11.0
 40
12.0
 40
12.0
 40
12.0
 40
13.0
 40
13.0
 40
13.0
 40
14.0
 40
14.0
 40
14.0
 40
15.0
 40
15.0
 40
15.0
 40
16.0
 40
16.0
 40
16.0
 40
17.0
 40
17.0
 40
17.0
 40
18.0
 40
18.0
 40
18.0
 40
19.0
 40
19.0
 40
19.0
 40
20.0
 40
20.0
 40
20.0
 40
21.0
 40
21.0
 40
21.0
 40
22.0
 40
22.0
 40
22.0
 40
23.0
 40
23.0
 40
23.0
 40
24.0
 40
24.0
 40
24.0
 40
25.0
 40
25.0
 40
25.0
 40
26.0
 40
26.0
 40
26.0
 40
27.0
 40
27.0
 40
27.0
 40
28.0
 40
28.0
 40
28.0
 40
29.0
 40
29.0
 40
29.0
 40
30.0
 40
30.0
 40
30.0
 40
31.0
 40
31.0
 40
31.0
 40
32.0
 40
32.0
 40
32.0
 40
33.0
 40
33.0
 40
33.0
 40
34.0
 40
34.0
 40
34.0
 40
35.0
 40
35.0
 40
35.0
 40
36.0
 40
36.0
 40
36.0
 40
37.0
 40
37.0
 40
37.0
 40
38.0
 40
38.0
 40
38.0
 40
39.0
 40
39.0
 40
39.0
 40
40.0
 40
40.0
 40
40.0
 40
41.0
 40
41.0
 40
41.0
 40
42.0
 40
42.0
 40
42.0
 40
43.0
 40
43.0
 40
43.0
 40
44.0
 40
44.0
 40
44.0
 40
45.0
 40
45.0
 40
45.0
 40
46.0
 40
46.0
 40
46.0
 40
47.0
 40
47.0
 40
47.0
 40
48.0
 40
48.0
 40
48.0
 40
49.0
 40
49.0
 40
49.0
 40
50.0
 40
50.0
 40
50.0
 40
51.0
 40
51.0
 40
51.0
 40
52.0
 40
52.0
 40
52.0
 40
53.0
 40
53.0
 40
53.0
 40
54.0
 40
54.0
 40
54.0
 40
55.0
 40
55.0
 40
55.0
 40
56.0
 40
56.0
 40
56.0
 40
57.0
 40
57.0
 40
57.0
 40
57.0
 10
0.2457140289309842
 20
-1.683428764803264
 30
0.0
 10
0.1753996586290011
 20
-1.81578675680622
 30
0.0
 10
0.0347740905485807
 20
-1.906776412303164
 30
0.0
 10
-0.0603556980250535
 20
-1.989494684712933
 30
0.0
 10
-0.134802587354923
 20
-2.101168508464171
 30
0.0
 10
-0.2175246667929211
 20
-2.212842332215183
 30
0.0
 10
-0.2795632124832537
 20
-2.336928306626052
 30
0.0
 10
-0.283699538530982
 20
-2.33692830662585
 30
0.0
 10
-0.283699538530982
 20
-2.33692830662585
 30
0.0
 10
-0.2836995385311841
 20
-2.341059556648386
 30
0.0
 10
-0.2836995385311841
 20
-2.341059556648386
 30
0.0
 10
-0.2836995385311841
 20
-2.341059556648386
 30
0.0
 10
-0.2836995385313609
 20
-2.345200324218164
 30
0.0
 10
-0.2919709216205825
 20
-2.345200324217785
 30
0.0
 10
-0.2836995385315377
 20
-2.349331574240674
 30
0.0
 10
-0.2836995385313609
 20
-2.345200324218164
 30
0.0
 10
-0.1554816795901893
 20
-2.303832622224339
 30
0.0
 10
0.0099586722630091
 20
-2.167342745700151
 30
0.0
 10
0.1795353501544368
 20
-2.241797883573529
 30
0.0
 10
0.2002150768820583
 20
-2.279016569463263
 30
0.0
 10
0.1919430592875213
 20
-2.328656289054809
 30
0.0
 10
0.1795353501490556
 20
-2.361743724920542
 30
0.0
 10
0.1009534037747876
 20
-2.539591785900964
 30
0.0
 10
-0.163753697196474
 20
-2.614038675213982
 30
0.0
 10
-0.4036447453874845
 20
-2.618178808269855
 30
0.0
 10
-0.4946394769244762
 20
-2.808430136864672
 30
0.0
 10
-0.5525416965715269
 20
-3.031777784371343
 30
0.0
 10
-0.6228567013802149
 20
-3.242713915721576
 30
0.0
 10
-0.5401339874420298
 20
-3.197223212244176
 30
0.0
 10
-0.2961072476968841
 20
-2.982146947835139
 30
0.0
 10
-0.2009812661531214
 20
-3.143451608141731
 30
0.0
 10
-0.1968449401070858
 20
-3.180679177074858
 30
0.0
 10
-0.2051169577009407
 20
-3.213766612940819
 30
0.0
 10
-0.2133889752943408
 20
-3.238582031214314
 30
0.0
 10
-0.2878352301248318
 20
-3.432974127379616
 30
0.0
 10
-0.5194548952336693
 20
-3.594278787671707
 30
0.0
 10
-0.726258507560639
 20
-3.648049757276971
 30
0.0
 10
-0.7924333793035758
 20
-3.879669422375602
 30
0.0
 10
-0.8296565067261478
 20
-4.140235755771932
 30
0.0
 10
-0.8544763665345272
 20
-4.417355007397772
 30
0.0
 10
-0.763481635001603
 20
-4.318092699803097
 30
0.0
 10
-0.6683518464240276
 20
-4.148507773371597
 30
0.0
 10
-0.5235905868005627
 20
-4.090604919237876
 30
0.0
 10
-0.4408678728627566
 20
-4.053386233352815
 30
0.0
 10
-0.3829656532278073
 20
-4.098876936836506
 30
0.0
 10
-0.3746936356391567
 20
-4.181603457791931
 30
0.0
 10
-0.3664216180531083
 20
-4.322224584346562
 30
0.0
 10
-0.4615520411323106
 20
-4.458713826370891
 30
0.0
 10
-0.5401339875027386
 20
-4.549703481870589
 30
0.0
 10
-0.6311287190360669
 20
-4.657246055598585
 30
0.0
 10
-0.7428025427936468
 20
-4.723420292822917
 30
0.0
 10
-0.8462043489583316
 20
-4.777191896935947
 30
0.0
 10
-0.8296565067658876
 20
-5.025354962719878
 30
0.0
 10
-0.7841613617726781
 20
-5.248702610231121
 30
0.0
 10
-0.7303948336899186
 20
-5.463769357106407
 30
0.0
 10
-0.6766232295647114
 20
-5.294193313717162
 30
0.0
 10
-0.6145846838689724
 20
-5.050170381003428
 30
0.0
 10
-0.4284601637687047
 20
-5.008810927553188
 30
0.0
 10
-0.3374705082644848
 20
-4.988127393809034
 30
0.0
 10
-0.3002429393338085
 20
-5.037758230358476
 30
0.0
 10
-0.2919709217448043
 20
-5.112213368224729
 30
0.0
 10
-0.2795632126134377
 20
-5.236290459594835
 30
0.0
 10
-0.31679078155283
 20
-5.381051719214055
 30
0.0
 10
-0.3622859265608945
 20
-5.488585409899946
 30
0.0
 10
-0.432596489845082
 20
-5.645758185673508
 30
0.0
 10
-0.5029108601460798
 20
-5.75743200942505
 30
0.0
 10
-0.6394001021772308
 20
-5.8153348635591
 30
0.0
 10
-0.5566780227564878
 20
-6.088313347619886
 30
0.0
 10
-0.4656877327621866
 20
-6.35716058165854
 30
0.0
 10
-0.3498782174740427
 20
-6.605323647446816
 30
0.0
 10
-0.2795632126665421
 20
-6.419194685829577
 30
0.0
 10
-0.1885735571560316
 20
-6.257890025531196
 30
0.0
 10
-0.0520843151218994
 20
-6.133812934167787
 30
0.0
 10
-0.0148567461874841
 20
-6.100725498303164
 30
0.0
 10
0.0554538170925601
 20
-6.034550626573845
 30
0.0
 10
0.1174968042990309
 20
-6.04282264416895
 30
0.0
 10
0.1712633323910621
 20
-6.051094661763752
 30
0.0
 10
0.1960787506605407
 20
-6.150356334860513
 30
0.0
 10
0.1960787506571806
 20
-6.224802589682162
 30
0.0
 10
0.1960787506421487
 20
-6.559824060946059
 30
0.0
 10
-0.0644920242861594
 20
-6.7418128894882
 30
0.0
 10
-0.2506121028697584
 20
-6.903117549782311
 30
0.0
 10
-0.1472102967184128
 20
-7.147140482503396
 30
0.0
 10
0.0140949980788416
 20
-7.333260561087021
 30
0.0
 10
0.1919430590548422
 20
-7.511117505123188
 30
0.0
 10
0.2374426455780344
 20
-7.556608208606349
 30
0.0
 10
0.3615241784670565
 20
-7.614510428248953
 30
0.0
 10
0.3656598700083072
 20
-7.688965566114929
 30
0.0
 10
0.3656598700064629
 20
-7.730325019573532
 30
0.0
 10
0.3284323010705824
 20
-7.796499256801326
 30
0.0
 10
0.2870734821149199
 20
-7.800639389866117
 30
0.0
 10
0.2457140286561652
 20
-7.804771274389926
 30
0.0
 10
0.2002150766362168
 20
-7.755140437840105
 30
0.0
 10
0.1671276407710896
 20
-7.730325019564614
 30
0.0
 10
-0.085171116547599
 20
-7.527660905792319
 30
0.0
 10
-0.2795632127040335
 20
-7.254682421726531
 30
0.0
 10
-0.424324472312517
 20
-6.977563804596179
 30
0.0
 10
-0.6021769748178435
 20
-6.961019769403492
 30
0.0
 10
-0.7758893442553472
 20
-6.919660950440225
 30
0.0
 10
-0.9165149123288705
 20
-6.857617963227185
 30
0.0
 10
-1.04886846281003
 20
-6.795574976014399
 30
0.0
 10
-1.201901105516577
 20
-6.716997471163268
 30
0.0
 10
-1.206036797052851
 20
-6.530868509542592
 30
0.0
 10
-1.143998251361028
 20
-6.373703982309532
 30
0.0
 10
-0.8172487976896212
 20
-6.377835232346847
 30
0.0
 10
-0.6600798289351183
 20
-6.45229037021967
 30
0.0
 10
-0.7097106654755154
 20
-6.286845576848337
 30
0.0
 10
-0.7717536526738008
 20
-6.096585365202549
 30
0.0
 10
-0.8089767800760859
 20
-5.906333402098855
 30
0.0
 10
-1.024052409994536
 20
-5.939420837955392
 30
0.0
 10
-1.189493396339887
 20
-5.831878264215876
 30
0.0
 10
-1.313574929227217
 20
-5.736748475640436
 30
0.0
 10
-1.421113061433516
 20
-5.654030203221547
 30
0.0
 10
-1.516242849998257
 20
-5.538224494936912
 30
0.0
 10
-1.507971466902038
 20
-5.381051719160571
 30
0.0
 10
-1.334254655935714
 20
-5.273518028480415
 30
0.0
 10
-1.048868462746896
 20
-5.389323102270333
 30
0.0
 10
-0.9123785862185134
 20
-5.463769357098246
 30
0.0
 10
-0.945466022075531
 20
-5.256973993313143
 30
0.0
 10
-0.9785578994547247
 20
-5.054301631009594
 30
0.0
 10
-0.990965608581468
 20
-4.826822733477242
 30
0.0
 10
-1.218444506110675
 20
-4.768919879326808
 30
0.0
 10
-1.541058268233024
 20
-4.665518073150047
 30
0.0
 10
-1.611368831500853
 20
-4.458713826319253
 30
0.0
 10
-1.652732091972919
 20
-4.33876798497042
 30
0.0
 10
-1.590689104762936
 20
-4.268453614677077
 30
0.0
 10
-1.487287298600323
 20
-4.260181597089387
 30
0.0
 10
-1.268079784156574
 20
-4.235366178825365
 30
0.0
 10
-1.127454850588644
 20
-4.351180135652941
 30
0.0
 10
-1.003373317700405
 20
-4.425626390480248
 30
0.0
 10
-1.00337331768795
 20
-4.148507773356565
 30
0.0
 10
-0.9744177663360966
 20
-3.896212823048927
 30
0.0
 10
-0.9371946389142572
 20
-3.652189890334133
 30
0.0
 10
-1.057139845756587
 20
-3.619094205921429
 30
0.0
 10
-1.135726868144603
 20
-3.540516066570515
 30
0.0
 10
-1.206036796913572
 20
-3.428842242812733
 30
0.0
 10
-1.276351801707708
 20
-3.317168419055001
 30
0.0
 10
-1.388025625452706
 20
-3.102092789132965
 30
0.0
 10
-1.301167219966601
 20
-2.982146947790018
 30
0.0
 10
-1.222580832077635
 20
-2.969734797134454
 30
0.0
 10
-1.148134577257957
 20
-3.015234383663028
 30
0.0
 10
-1.086091590052623
 20
-3.048321819532147
 30
0.0
 10
-0.9909656085038578
 20
-3.09795265608414
 30
0.0
 10
-0.9082428945704981
 20
-3.159995643294703
 30
0.0
 10
-0.8668840756194842
 20
-3.259266199436322
 30
0.0
 10
-0.7882970532171687
 20
-3.019374516745857
 30
0.0
 10
-0.7138507983845052
 20
-2.775343335491773
 30
0.0
 10
-0.6063133006681608
 20
-2.564407204143107
 30
0.0
 10
-0.6890309385750141
 20
-2.473417548636184
 30
0.0
 10
-0.8089767799167475
 20
-2.357603591809518
 30
0.0
 10
-0.8586120579803315
 20
-2.216982465253068
 30
0.0
 10
-0.8875631677955071
 20
-2.142527327385867
 30
0.0
 10
-0.8958351853815808
 20
-2.001906835334492
 30
0.0
 10
-0.8255201805806993
 20
-1.964679266404725
 30
0.0
 10
-0.767617960942213
 20
-1.931591830540962
 30
0.0
 10
-0.6724875378713224
 20
-1.981222667093157
 30
0.0
 10
-0.6311287189172263
 20
-2.010178852938679
 30
0.0
 10
-0.5359982958466895
 20
-2.068081072579995
 30
0.0
 10
-0.4863674593020733
 20
-2.138396077381357
 30
0.0
 10
-0.4408678727808516
 20
-2.229385732886739
 30
0.0
 10
-0.3746936355472472
 20
-2.134255944319723
 30
0.0
 10
-0.3126550898580263
 20
-2.034994271226853
 30
0.0
 10
-0.2547477941913156
 20
-1.935731963630663
 30
0.0
 10
-0.2754275209096401
 20
-1.69170078237231
 30
0.0
 10
-0.1720257147386898
 20
-1.49730868620817
 30
0.0
 10
-0.0314001466573599
 20
-1.385634862459912
 30
0.0
 10
0.0099586722997679
 20
-1.348407293528832
 30
0.0
 10
0.0802692355793068
 20
-1.294645206961705
 30
0.0
 10
0.1340402051939691
 20
-1.290504439394176
 30
0.0
 10
0.3325679929085557
 20
-1.261548888062584
 30
0.0
 10
0.3036168830763017
 20
-1.567623691028782
 30
0.0
 10
0.2457140289309842
 20
-1.683428764803264
 30
0.0
  0
HATCH
  5
55
330
41
100
AcDbEntity
  8
Layer 1
 62
   250
420
  2301728
100
AcDbHatch
 10
0.0
 20
0.0
 30
0.0
210
0.0
220
0.0
230
1.0
  2
SOLID
 70
     1
 71
     0
 91
        1
 92
        1
 93
        1
 72
     4
 94
        3
 73
     0
 74
     1
 95
      176
 96
      172
 40
0.0
 40
0.0
 40
0.0
 40
0.0
 40
1.0
 40
1.0
 40
1.0
 40
2.0
 40
2.0
 40
2.0
 40
3.0
 40
3.0
 40
3.0
 40
4.0
 40
4.0
 40
4.0
 40
5.0
 40
5.0
 40
5.0
 40
6.0
 40
6.0
 40
6.0
 40
7.0
 40
7.0
 40
7.0
 40
8.0
 40
8.0
 40
8.0
 40
9.0
 40
9.0
 40
9.0
 40
10.0
 40
10.0
 40
10.0
 40
11.0
 40
11.0
 40
11.0
 40
12.0
 40
12.0
 40
12.0
 40
13.0
 40
13.0
 40
13.0
 40
14.0
 40
14.0
 40
14.0
 40
15.0
 40
15.0
 40
15.0
 40
16.0
 40
16.0
 40
16.0
 40
17.0
 40
17.0
 40
17.0
 40
18.0
 40
18.0
 40
18.0
 40
19.0
 40
19.0
 40
19.0
 40
20.0
 40
20.0
 40
20.0
 40
21.0
 40
21.0
 40
21.0
 40
22.0
 40
22.0
 40
22.0
 40
23.0
 40
23.0
 40
23.0
 40
24.0
 40
24.0
 40
24.0
 40
25.0
 40
25.0
 40
25.0
 40
26.0
 40
26.0
 40
26.0
 40
27.0
 40
27.0
 40
27.0
 40
28.0
 40
28.0
 40
28.0
 40
29.0
 40
29.0
 40
29.0
 40
30.0
 40
30.0
 40
30.0
 40
31.0
 40
31.0
 40
31.0
 40
32.0
 40
32.0
 40
32.0
 40
33.0
 40
33.0
 40
33.0
 40
34.0
 40
34.0
 40
34.0
 40
35.0
 40
35.0
 40
35.0
 40
36.0
 40
36.0
 40
36.0
 40
37.0
 40
37.0
 40
37.0
 40
38.0
 40
38.0
 40
38.0
 40
39.0
 40
39.0
 40
39.0
 40
40.0
 40
40.0
 40
40.0
 40
41.0
 40
41.0
 40
41.0
 40
42.0
 40
42.0
 40
42.0
 40
43.0
 40
43.0
 40
43.0
 40
44.0
 40
44.0
 40
44.0
 40
45.0
 40
45.0
 40
45.0
 40
46.0
 40
46.0
 40
46.0
 40
47.0
 40
47.0
 40
47.0
 40
48.0
 40
48.0
 40
48.0
 40
49.0
 40
49.0
 40
49.0
 40
50.0
 40
50.0
 40
50.0
 40
51.0
 40
51.0
 40
51.0
 40
52.0
 40
52.0
 40
52.0
 40
53.0
 40
53.0
 40
53.0
 40
54.0
 40
54.0
 40
54.0
 40
55.0
 40
55.0
 40
55.0
 40
56.0
 40
56.0
 40
56.0
 40
57.0
 40
57.0
 40
57.0
 40
57.0
 10
0.2457140289309842
 20
-1.683428764803264
 10
0.1753996586290011
 20
-1.81578675680622
 10
0.0347740905485807
 20
-1.906776412303164
 10
-0.0603556980250535
 20
-1.989494684712933
 10
-0.134802587354923
 20
-2.101168508464171
 10
-0.2175246667929211
 20
-2.212842332215183
 10
-0.2795632124832537
 20
-2.336928306626052
 10
-0.283699538530982
 20
-2.33692830662585
 10
-0.283699538530982
 20
-2.33692830662585
 10
-0.2836995385311841
 20
-2.341059556648386
 10
-0.2836995385311841
 20
-2.341059556648386
 10
-0.2836995385311841
 20
-2.341059556648386
 10
-0.2836995385313609
 20
-2.345200324218164
 10
-0.2919709216205825
 20
-2.345200324217785
 10
-0.2836995385315377
 20
-2.349331574240674
 10
-0.2836995385313609
 20
-2.345200324218164
 10
-0.1554816795901893
 20
-2.303832622224339
 10
0.0099586722630091
 20
-2.167342745700151
 10
0.1795353501544368
 20
-2.241797883573529
 10
0.2002150768820583
 20
-2.279016569463263
 10
0.1919430592875213
 20
-2.328656289054809
 10
0.1795353501490556
 20
-2.361743724920542
 10
0.1009534037747876
 20
-2.539591785900964
 10
-0.163753697196474
 20
-2.614038675213982
 10
-0.4036447453874845
 20
-2.618178808269855
 10
-0.4946394769244762
 20
-2.808430136864672
 10
-0.5525416965715269
 20
-3.031777784371343
 10
-0.6228567013802149
 20
-3.242713915721576
 10
-0.5401339874420298
 20
-3.197223212244176
 10
-0.2961072476968841
 20
-2.982146947835139
 10
-0.2009812661531214
 20
-3.143451608141731
 10
-0.1968449401070858
 20
-3.180679177074858
 10
-0.2051169577009407
 20
-3.213766612940819
 10
-0.2133889752943408
 20
-3.238582031214314
 10
-0.2878352301248318
 20
-3.432974127379616
 10
-0.5194548952336693
 20
-3.594278787671707
 10
-0.726258507560639
 20
-3.648049757276971
 10
-0.7924333793035758
 20
-3.879669422375602
 10
-0.8296565067261478
 20
-4.140235755771932
 10
-0.8544763665345272
 20
-4.417355007397772
 10
-0.763481635001603
 20
-4.318092699803097
 10
-0.6683518464240276
 20
-4.148507773371597
 10
-0.5235905868005627
 20
-4.090604919237876
 10
-0.4408678728627566
 20
-4.053386233352815
 10
-0.3829656532278073
 20
-4.098876936836506
 10
-0.3746936356391567
 20
-4.181603457791931
 10
-0.3664216180531083
 20
-4.322224584346562
 10
-0.4615520411323106
 20
-4.458713826370891
 10
-0.5401339875027386
 20
-4.549703481870589
 10
-0.6311287190360669
 20
-4.657246055598585
 10
-0.7428025427936468
 20
-4.723420292822917
 10
-0.8462043489583316
 20
-4.777191896935947
 10
-0.8296565067658876
 20
-5.025354962719878
 10
-0.7841613617726781
 20
-5.248702610231121
 10
-0.7303948336899186
 20
-5.463769357106407
 10
-0.6766232295647114
 20
-5.294193313717162
 10
-0.6145846838689724
 20
-5.050170381003428
 10
-0.4284601637687047
 20
-5.008810927553188
 10
-0.3374705082644848
 20
-4.988127393809034
 10
-0.3002429393338085
 20
-5.037758230358476
 10
-0.2919709217448043
 20
-5.112213368224729
 10
-0.2795632126134377
 20
-5.236290459594835
 10
-0.31679078155283
 20
-5.381051719214055
 10
-0.3622859265608945
 20
-5.488585409899946
 10
-0.432596489845082
 20
-5.645758185673508
 10
-0.5029108601460798
 20
-5.75743200942505
 10
-0.6394001021772308
 20
-5.8153348635591
 10
-0.5566780227564878
 20
-6.088313347619886
 10
-0.4656877327621866
 20
-6.35716058165854
 10
-0.3498782174740427
 20
-6.605323647446816
 10
-0.2795632126665421
 20
-6.419194685829577
 10
-0.1885735571560316
 20
-6.257890025531196
 10
-0.0520843151218994
 20
-6.133812934167787
 10
-0.0148567461874841
 20
-6.100725498303164
 10
0.0554538170925601
 20
-6.034550626573845
 10
0.1174968042990309
 20
-6.04282264416895
 10
0.1712633323910621
 20
-6.051094661763752
 10
0.1960787506605407
 20
-6.150356334860513
 10
0.1960787506571806
 20
-6.224802589682162
 10
0.1960787506421487
 20
-6.559824060946059
 10
-0.0644920242861594
 20
-6.7418128894882
 10
-0.2506121028697584
 20
-6.903117549782311
 10
-0.1472102967184128
 20
-7.147140482503396
 10
0.0140949980788416
 20
-7.333260561087021
 10
0.1919430590548422
 20
-7.511117505123188
 10
0.2374426455780344
 20
-7.556608208606349
 10
0.3615241784670565
 20
-7.614510428248953
 10
0.3656598700083072
 20
-7.688965566114929
 10
0.3656598700064629
 20
-7.730325019573532
 10
0.3284323010705824
 20
-7.796499256801326
 10
0.2870734821149199
 20
-7.800639389866117
 10
0.2457140286561652
 20
-7.804771274389926
 10
0.2002150766362168
 20
-7.755140437840105
 10
0.1671276407710896
 20
-7.730325019564614
 10
-0.085171116547599
 20
-7.527660905792319
 10
-0.2795632127040335
 20
-7.254682421726531
 10
-0.424324472312517
 20
-6.977563804596179
 10
-0.6021769748178435
 20
-6.961019769403492
 10
-0.7758893442553472
 20
-6.919660950440225
 10
-0.9165149123288705
 20
-6.857617963227185
 10
-1.04886846281003
 20
-6.795574976014399
 10
-1.201901105516577
 20
-6.716997471163268
 10
-1.206036797052851
 20
-6.530868509542592
 10
-1.143998251361028
 20
-6.373703982309532
 10
-0.8172487976896212
 20
-6.377835232346847
 10
-0.6600798289351183
 20
-6.45229037021967
 10
-0.7097106654755154
 20
-6.286845576848337
 10
-0.7717536526738008
 20
-6.096585365202549
 10
-0.8089767800760859
 20
-5.906333402098855
 10
-1.024052409994536
 20
-5.939420837955392
 10
-1.189493396339887
 20
-5.831878264215876
 10
-1.313574929227217
 20
-5.736748475640436
 10
-1.421113061433516
 20
-5.654030203221547
 10
-1.516242849998257
 20
-5.538224494936912
 10
-1.507971466902038
 20
-5.381051719160571
 10
-1.334254655935714
 20
-5.273518028480415
 10
-1.048868462746896
 20
-5.389323102270333
 10
-0.9123785862185134
 20
-5.463769357098246
 10
-0.945466022075531
 20
-5.256973993313143
 10
-0.9785578994547247
 20
-5.054301631009594
 10
-0.990965608581468
 20
-4.826822733477242
 10
-1.218444506110675
 20
-4.768919879326808
 10
-1.541058268233024
 20
-4.665518073150047
 10
-1.611368831500853
 20
-4.458713826319253
 10
-1.652732091972919
 20
-4.33876798497042
 10
-1.590689104762936
 20
-4.268453614677077
 10
-1.487287298600323
 20
-4.260181597089387
 10
-1.268079784156574
 20
-4.235366178825365
 10
-1.127454850588644
 20
-4.351180135652941
 10
-1.003373317700405
 20
-4.425626390480248
 10
-1.00337331768795
 20
-4.148507773356565
 10
-0.9744177663360966
 20
-3.896212823048927
 10
-0.9371946389142572
 20
-3.652189890334133
 10
-1.057139845756587
 20
-3.619094205921429
 10
-1.135726868144603
 20
-3.540516066570515
 10
-1.206036796913572
 20
-3.428842242812733
 10
-1.276351801707708
 20
-3.317168419055001
 10
-1.388025625452706
 20
-3.102092789132965
 10
-1.301167219966601
 20
-2.982146947790018
 10
-1.222580832077635
 20
-2.969734797134454
 10
-1.148134577257957
 20
-3.015234383663028
 10
-1.086091590052623
 20
-3.048321819532147
 10
-0.9909656085038578
 20
-3.09795265608414
 10
-0.9082428945704981
 20
-3.159995643294703
 10
-0.8668840756194842
 20
-3.259266199436322
 10
-0.7882970532171687
 20
-3.019374516745857
 10
-0.7138507983845052
 20
-2.775343335491773
 10
-0.6063133006681608
 20
-2.564407204143107
 10
-0.6890309385750141
 20
-2.473417548636184
 10
-0.8089767799167475
 20
-2.357603591809518
 10
-0.8586120579803315
 20
-2.216982465253068
 10
-0.8875631677955071
 20
-2.142527327385867
 10
-0.8958351853815808
 20
-2.001906835334492
 10
-0.8255201805806993
 20
-1.964679266404725
 10
-0.767617960942213
 20
-1.931591830540962
 10
-0.6724875378713224
 20
-1.981222667093157
 10
-0.6311287189172263
 20
-2.010178852938679
 10
-0.5359982958466895
 20
-2.068081072579995
 10
-0.4863674593020733
 20
-2.138396077381357
 10
-0.4408678727808516
 20
-2.229385732886739
 10
-0.3746936355472472
 20
-2.134255944319723
 10
-0.3126550898580263
 20
-2.034994271226853
 10
-0.2547477941913156
 20
-1.935731963630663
 10
-0.2754275209096401
 20
-1.69170078237231
 10
-0.1720257147386898
 20
-1.49730868620817
 10
-0.0314001466573599
 20
-1.385634862459912
 10
0.0099586722997679
 20
-1.348407293528832
 10
0.0802692355793068
 20
-1.294645206961705
 10
0.1340402051939691
 20
-1.290504439394176
 10
0.3325679929085557
 20
-1.261548888062584
 10
0.3036168830763017
 20
-1.567623691028782
 10
0.2457140289309842
 20
-1.683428764803264
 97
        0
 97
        0
 75
     2
 76
     1
 98
        0
  0
SPLINE
  5
56
330
41
100
AcDbEntity
  8
Layer 1
370
     0
100
AcDbSpline
210
0.0
220
0.0
230
1.0
 70
    11
 71
     3
 72
   176
 73
   172
 74
     0
 42
0.0000000001
 43
0.0000000001
 12
1.0
 22
0.0
 32
0.0
 13
1.0
 23
0.0
 33
0.0
 40
0.0
 40
0.0
 40
0.0
 40
0.0
 40
1.0
 40
1.0
 40
1.0
 40
2.0
 40
2.0
 40
2.0
 40
3.0
 40
3.0
 40
3.0
 40
4.0
 40
4.0
 40
4.0
 40
5.0
 40
5.0
 40
5.0
 40
6.0
 40
6.0
 40
6.0
 40
7.0
 40
7.0
 40
7.0
 40
8.0
 40
8.0
 40
8.0
 40
9.0
 40
9.0
 40
9.0
 40
10.0
 40
10.0
 40
10.0
 40
11.0
 40
11.0
 40
11.0
 40
12.0
 40
12.0
 40
12.0
 40
13.0
 40
13.0
 40
13.0
 40
14.0
 40
14.0
 40
14.0
 40
15.0
 40
15.0
 40
15.0
 40
16.0
 40
16.0
 40
16.0
 40
17.0
 40
17.0
 40
17.0
 40
18.0
 40
18.0
 40
18.0
 40
19.0
 40
19.0
 40
19.0
 40
20.0
 40
20.0
 40
20.0
 40
21.0
 40
21.0
 40
21.0
 40
22.0
 40
22.0
 40
22.0
 40
23.0
 40
23.0
 40
23.0
 40
24.0
 40
24.0
 40
24.0
 40
25.0
 40
25.0
 40
25.0
 40
26.0
 40
26.0
 40
26.0
 40
27.0
 40
27.0
 40
27.0
 40
28.0
 40
28.0
 40
28.0
 40
29.0
 40
29.0
 40
29.0
 40
30.0
 40
30.0
 40
30.0
 40
31.0
 40
31.0
 40
31.0
 40
32.0
 40
32.0
 40
32.0
 40
33.0
 40
33.0
 40
33.0
 40
34.0
 40
34.0
 40
34.0
 40
35.0
 40
35.0
 40
35.0
 40
36.0
 40
36.0
 40
36.0
 40
37.0
 40
37.0
 40
37.0
 40
38.0
 40
38.0
 40
38.0
 40
39.0
 40
39.0
 40
39.0
 40
40.0
 40
40.0
 40
40.0
 40
41.0
 40
41.0
 40
41.0
 40
42.0
 40
42.0
 40
42.0
 40
43.0
 40
43.0
 40
43.0
 40
44.0
 40
44.0
 40
44.0
 40
45.0
 40
45.0
 40
45.0
 40
46.0
 40
46.0
 40
46.0
 40
47.0
 40
47.0
 40
47.0
 40
48.0
 40
48.0
 40
48.0
 40
49.0
 40
49.0
 40
49.0
 40
50.0
 40
50.0
 40
50.0
 40
51.0
 40
51.0
 40
51.0
 40
52.0
 40
52.0
 40
52.0
 40
53.0
 40
53.0
 40
53.0
 40
54.0
 40
54.0
 40
54.0
 40
55.0
 40
55.0
 40
55.0
 40
56.0
 40
56.0
 40
56.0
 40
57.0
 40
57.0
 40
57.0
 40
57.0
 10
5.712928283701507
 20
-7.800639389866117
 30
0.0
 10
5.671568830242752
 20
-7.796499256801199
 30
0.0
 10
5.634341261306822
 20
-7.730325019573532
 30
0.0
 10
5.634341261304977
 20
-7.688965566114929
 30
0.0
 10
5.638475683839917
 20
-7.614511062752121
 30
0.0
 10
5.762556582225695
 20
-7.556608208606349
 30
0.0
 10
5.808058072258417
 20
-7.511117505123188
 30
0.0
 10
5.985906767737636
 20
-7.333260561087045
 30
0.0
 10
6.147210159025361
 20
-7.147140482503421
 30
0.0
 10
6.250611330673564
 20
-6.903117549782337
 30
0.0
 10
6.064491252089939
 20
-6.741812889488225
 30
0.0
 10
5.80392111166485
 20
-6.559824060946085
 30
0.0
 10
5.803921111649793
 20
-6.224802589682162
 30
0.0
 10
5.803921111646458
 20
-6.150356334860513
 30
0.0
 10
5.828737798922146
 20
-6.051094661763778
 30
0.0
 10
5.882503058007942
 20
-6.04282264416895
 30
0.0
 10
5.944547314220724
 20
-6.034550626573845
 30
0.0
 10
6.014855339488197
 20
-6.10072549830319
 30
0.0
 10
6.052082908422537
 20
-6.133812299664669
 30
0.0
 10
6.18857215045672
 20
-6.257890025531246
 30
0.0
 10
6.279564978482944
 20
-6.419194685829502
 30
0.0
 10
6.349878079781042
 20
-6.605323647446842
 30
0.0
 10
6.465687595069059
 20
-6.357159947155322
 30
0.0
 10
6.556677885063461
 20
-6.088313347619911
 30
0.0
 10
6.639399329981087
 20
-5.815334863558999
 30
0.0
 10
6.502910087949886
 20
-5.7574320094251
 30
0.0
 10
6.432596986655148
 20
-5.645758185673508
 30
0.0
 10
6.36228642337101
 20
-5.488584775396803
 30
0.0
 10
6.316792547369282
 20
-5.381051719214055
 30
0.0
 10
6.279564978429839
 20
-5.236290459594835
 30
0.0
 10
6.291970784051728
 20
-5.112213368224729
 30
0.0
 10
6.300242167137563
 20
-5.0377582303585
 30
0.0
 10
6.33746973606829
 20
-4.98812739380906
 30
0.0
 10
6.428460026075729
 20
-5.008810927553213
 30
0.0
 10
6.614585180679089
 20
-5.050170381003428
 30
0.0
 10
6.676624360877971
 20
-5.29419331371706
 30
0.0
 10
6.730394695996867
 20
-5.463769357106306
 30
0.0
 10
6.784162493085937
 20
-5.248702610231147
 30
0.0
 10
6.829656369072836
 20
-5.025354962719903
 30
0.0
 10
6.846204211265331
 20
-4.777191896935973
 30
0.0
 10
6.742803039603788
 20
-4.723420292822917
 30
0.0
 10
6.631127946839822
 20
-4.65724605559861
 30
0.0
 10
6.540135118815947
 20
-4.549703481870615
 30
0.0
 10
6.461550634432974
 20
-4.458713826370791
 30
0.0
 10
6.366420845856888
 20
-4.322224584346587
 30
0.0
 10
6.374694766952365
 20
-4.181603457792006
 30
0.0
 10
6.382966150037949
 20
-4.098876936836556
 30
0.0
 10
6.440868369672822
 20
-4.053386233352815
 30
0.0
 10
6.523589814604368
 20
-4.090604919237927
 30
0.0
 10
6.668352977737363
 20
-4.148507773371572
 30
0.0
 10
6.763482766314862
 20
-4.318092699802997
 30
0.0
 10
6.854475594338358
 20
-4.417354372894553
 30
0.0
 10
6.829656369033096
 20
-4.140235755771932
 30
0.0
 10
6.792433876113641
 20
-3.879669422375602
 30
0.0
 10
6.726260273377066
 20
-3.64804975727687
 30
0.0
 10
6.519455392043735
 20
-3.594278787671732
 30
0.0
 10
6.28783382342552
 20
-3.432974127379642
 30
0.0
 10
6.213388837601264
 20
-3.238582031214314
 30
0.0
 10
6.205117454510981
 20
-3.213766612940819
 30
0.0
 10
6.196846071420345
 20
-3.180679177074909
 30
0.0
 10
6.200980493956977
 20
-3.143451608141731
 30
0.0
 10
6.296107744506975
 20
-2.982146947834988
 30
0.0
 10
6.540135118755213
 20
-3.197223212244214
 30
0.0
 10
6.622856563687163
 20
-3.242713281218433
 30
0.0
 10
6.552543462387954
 20
-3.031777784371393
 30
0.0
 10
6.494638704728332
 20
-2.808430136864697
 30
0.0
 10
6.403645876700743
 20
-2.618178808269881
 30
0.0
 10
6.16375292500028
 20
-2.61403804071089
 30
0.0
 10
5.899045824029043
 20
-2.539591785900989
 30
0.0
 10
5.820463877654674
 20
-2.361743724920567
 30
0.0
 10
5.808058072025763
 20
-2.328656289054834
 30
0.0
 10
5.799784150921671
 20
-2.279017203966431
 30
0.0
 10
5.820463877649293
 20
-2.241797883573554
 30
0.0
 10
5.99004119004399
 20
-2.167343380203293
 30
0.0
 10
6.155481541897061
 20
-2.303831987721221
 30
0.0
 10
6.283699400838359
 20
-2.345199689715072
 30
0.0
 10
6.283699400838562
 20
-2.349331574240725
 30
0.0
 10
6.291970783927531
 20
-2.345199689714693
 30
0.0
 10
6.283699400838359
 20
-2.345199689715072
 30
0.0
 10
6.283699400838158
 20
-2.341059556648411
 30
0.0
 10
6.283699400838158
 20
-2.341059556648411
 30
0.0
 10
6.283699400838158
 20
-2.341059556648411
 30
0.0
 10
6.283699400837981
 20
-2.3369283066258
 30
0.0
 10
6.283699400837981
 20
-2.3369283066258
 30
0.0
 10
6.279564978299681
 20
-2.336928306625977
 30
0.0
 10
6.217525798106205
 20
-2.212842332215208
 30
0.0
 10
6.134801815158753
 20
-2.101168508464222
 30
0.0
 10
6.060356829338287
 20
-1.989494684712933
 30
0.0
 10
5.965227040764678
 20
-1.906776412303164
 30
0.0
 10
5.824600838181166
 20
-1.815786756806245
 30
0.0
 10
5.754285198872822
 20
-1.683428764803314
 30
0.0
 10
5.696382979230671
 20
-1.567623691028807
 30
0.0
 10
5.667431869398367
 20
-1.261548888062609
 30
0.0
 10
5.865960291616148
 20
-1.290504439394201
 30
0.0
 10
5.919730626727642
 20
-1.29464520696168
 30
0.0
 10
5.990041190007231
 20
-1.348407293528832
 30
0.0
 10
6.031400643467501
 20
-1.385634862459912
 30
0.0
 10
6.172024308039302
 20
-1.497308686208195
 30
0.0
 10
6.275428017719857
 20
-1.69170078237236
 30
0.0
 10
6.254748291001406
 20
-1.935732598133831
 30
0.0
 10
6.312655586668092
 20
-2.034994271226878
 30
0.0
 10
6.374694766860456
 20
-2.134255944319723
 30
0.0
 10
6.440868369590943
 20
-2.22938636738978
 30
0.0
 10
6.486367321608945
 20
-2.138396077381357
 30
0.0
 10
6.535998158153689
 20
-2.068081072579995
 30
0.0
 10
6.631127946720981
 20
-2.010178852938705
 30
0.0
 10
6.67248740017827
 20
-1.981222667093031
 30
0.0
 10
6.767617188746044
 20
-1.931591830541012
 30
0.0
 10
6.825521946397101
 20
-1.964679266404699
 30
0.0
 10
6.895835047688504
 20
-2.001906835334391
 30
0.0
 10
6.887563664605649
 20
-2.142527961888997
 30
0.0
 10
6.858612554790422
 20
-2.216982465253043
 30
0.0
 10
6.808976642223747
 20
-2.357603591809569
 30
0.0
 10
6.68903270439134
 20
-2.473417548636184
 30
0.0
 10
6.606313797478227
 20
-2.564407204143107
 30
0.0
 10
6.71385192969784
 20
-2.775342700988656
 30
0.0
 10
6.788296915524192
 20
-3.019374516745883
 30
0.0
 10
6.866883937926483
 20
-3.25926556493323
 30
0.0
 10
6.908243391380665
 20
-3.159995643294716
 30
0.0
 10
6.990964836307689
 20
-3.09795265608419
 30
0.0
 10
7.086092086862713
 20
-3.048321819532121
 30
0.0
 10
7.148133805061762
 20
-3.015234383663078
 30
0.0
 10
7.222581328887776
 20
-2.96973479713448
 30
0.0
 10
7.301165813267188
 20
-2.982146947789867
 30
0.0
 10
7.38802675676599
 20
-3.102092789133015
 30
0.0
 10
7.276351664014656
 20
-3.317168419054901
 30
0.0
 10
7.206036024717352
 20
-3.428842242812784
 30
0.0
 10
7.135727999457862
 20
-3.54051606657054
 30
0.0
 10
7.057140977069871
 20
-3.619094205921455
 30
0.0
 10
6.93719450122118
 20
-3.652189890334133
 30
0.0
 10
6.974416994139877
 20
-3.896212823048876
 30
0.0
 10
7.003373179994898
 20
-4.14850777335654
 30
0.0
 10
7.003373180007379
 20
-4.425626390480273
 30
0.0
 10
7.127454078392449
 20
-4.351180135652966
 30
0.0
 10
7.268080280966715
 20
-4.23536617882539
 30
0.0
 10
7.487288429913607
 20
-4.26018159708945
 30
0.0
 10
7.590689601573027
 20
-4.268452980173985
 30
0.0
 10
7.652731319776724
 20
-4.33876798497042
 30
0.0
 10
7.611369328310957
 20
-4.458713826319177
 30
0.0
 10
7.54105876504309
 20
-4.66551743864693
 30
0.0
 10
7.218444368417673
 20
-4.768919879326833
 30
0.0
 10
6.990964836385349
 20
-4.826822733477242
 30
0.0
 10
6.978559030767959
 20
-5.054301631009594
 30
0.0
 10
6.945465884382403
 20
-5.256973993313068
 30
0.0
 10
6.91237781402237
 20
-5.463769357098158
 30
0.0
 10
7.048867056047508
 20
-5.389323102270333
 30
0.0
 10
7.334253883739519
 20
-5.273518028480313
 30
0.0
 10
7.507970694705793
 20
-5.381051719160571
 30
0.0
 10
7.516242077802139
 20
-5.538224494936912
 30
0.0
 10
7.421112289237321
 20
-5.654030203221547
 30
0.0
 10
7.313574157031022
 20
-5.736747841137306
 30
0.0
 10
7.18949325864681
 20
-5.831878264215876
 30
0.0
 10
7.024052906804601
 20
-5.939420837955418
 30
0.0
 10
6.808976642383059
 20
-5.906333402098905
 30
0.0
 10
6.771754149483892
 20
-6.0965853652026
 30
0.0
 10
6.709712431291993
 20
-6.286845576848337
 30
0.0
 10
6.660079056739
 20
-6.45229037021967
 30
0.0
 10
6.817248025493427
 20
-6.377835232346746
 30
0.0
 10
7.143999382674261
 20
-6.373703982309557
 30
0.0
 10
7.206036024856656
 20
-6.530868509542592
 30
0.0
 10
7.201901602326693
 20
-6.716997471163292
 30
0.0
 10
7.048867056110616
 20
-6.795574976014323
 30
0.0
 10
6.916514774635819
 20
-6.857617963227085
 30
0.0
 10
6.775888572059152
 20
-6.91966095044025
 30
0.0
 10
6.602176837124792
 20
-6.961019769403467
 30
0.0
 10
6.424323065613104
 20
-6.977563804596204
 30
0.0
 10
6.279564978520486
 20
-7.254682421726455
 30
0.0
 10
6.085170978854547
 20
-7.527660905792244
 30
0.0
 10
5.832872221535859
 20
-7.730325019564638
 30
0.0
 10
5.799784151167564
 20
-7.755140437840029
 30
0.0
 10
5.754285199147666
 20
-7.8047712743899
 30
0.0
 10
5.712928283701507
 20
-7.800639389866117
 30
0.0
  0
HATCH
  5
57
330
41
100
AcDbEntity
  8
Layer 1
 62
   250
420
  2301728
100
AcDbHatch
 10
0.0
 20
0.0
 30
0.0
210
0.0
220
0.0
230
1.0
  2
SOLID
 70
     1
 71
     0
 91
        1
 92
        1
 93
        1
 72
     4
 94
        3
 73
     0
 74
     1
 95
      176
 96
      172
 40
0.0
 40
0.0
 40
0.0
 40
0.0
 40
1.0
 40
1.0
 40
1.0
 40
2.0
 40
2.0
 40
2.0
 40
3.0
 40
3.0
 40
3.0
 40
4.0
 40
4.0
 40
4.0
 40
5.0
 40
5.0
 40
5.0
 40
6.0
 40
6.0
 40
6.0
 40
7.0
 40
7.0
 40
7.0
 40
8.0
 40
8.0
 40
8.0
 40
9.0
 40
9.0
 40
9.0
 40
10.0
 40
10.0
 40
10.0
 40
11.0
 40
11.0
 40
11.0
 40
12.0
 40
12.0
 40
12.0
 40
13.0
 40
13.0
 40
13.0
 40
14.0
 40
14.0
 40
14.0
 40
15.0
 40
15.0
 40
15.0
 40
16.0
 40
16.0
 40
16.0
 40
17.0
 40
17.0
 40
17.0
 40
18.0
 40
18.0
 40
18.0
 40
19.0
 40
19.0
 40
19.0
 40
20.0
 40
20.0
 40
20.0
 40
21.0
 40
21.0
 40
21.0
 40
22.0
 40
22.0
 40
22.0
 40
23.0
 40
23.0
 40
23.0
 40
24.0
 40
24.0
 40
24.0
 40
25.0
 40
25.0
 40
25.0
 40
26.0
 40
26.0
 40
26.0
 40
27.0
 40
27.0
 40
27.0
 40
28.0
 40
28.0
 40
28.0
 40
29.0
 40
29.0
 40
29.0
 40
30.0
 40
30.0
 40
30.0
 40
31.0
 40
31.0
 40
31.0
 40
32.0
 40
32.0
 40
32.0
 40
33.0
 40
33.0
 40
33.0
 40
34.0
 40
34.0
 40
34.0
 40
35.0
 40
35.0
 40
35.0
 40
36.0
 40
36.0
 40
36.0
 40
37.0
 40
37.0
 40
37.0
 40
38.0
 40
38.0
 40
38.0
 40
39.0
 40
39.0
 40
39.0
 40
40.0
 40
40.0
 40
40.0
 40
41.0
 40
41.0
 40
41.0
 40
42.0
 40
42.0
 40
42.0
 40
43.0
 40
43.0
 40
43.0
 40
44.0
 40
44.0
 40
44.0
 40
45.0
 40
45.0
 40
45.0
 40
46.0
 40
46.0
 40
46.0
 40
47.0
 40
47.0
 40
47.0
 40
48.0
 40
48.0
 40
48.0
 40
49.0
 40
49.0
 40
49.0
 40
50.0
 40
50.0
 40
50.0
 40
51.0
 40
51.0
 40
51.0
 40
52.0
 40
52.0
 40
52.0
 40
53.0
 40
53.0
 40
53.0
 40
54.0
 40
54.0
 40
54.0
 40
55.0
 40
55.0
 40
55.0
 40
56.0
 40
56.0
 40
56.0
 40
57.0
 40
57.0
 40
57.0
 40
57.0
 10
5.712928283701507
 20
-7.800639389866117
 10
5.671568830242752
 20
-7.796499256801199
 10
5.634341261306822
 20
-7.730325019573532
 10
5.634341261304977
 20
-7.688965566114929
 10
5.638475683839917
 20
-7.614511062752121
 10
5.762556582225695
 20
-7.556608208606349
 10
5.808058072258417
 20
-7.511117505123188
 10
5.985906767737636
 20
-7.333260561087045
 10
6.147210159025361
 20
-7.147140482503421
 10
6.250611330673564
 20
-6.903117549782337
 10
6.064491252089939
 20
-6.741812889488225
 10
5.80392111166485
 20
-6.559824060946085
 10
5.803921111649793
 20
-6.224802589682162
 10
5.803921111646458
 20
-6.150356334860513
 10
5.828737798922146
 20
-6.051094661763778
 10
5.882503058007942
 20
-6.04282264416895
 10
5.944547314220724
 20
-6.034550626573845
 10
6.014855339488197
 20
-6.10072549830319
 10
6.052082908422537
 20
-6.133812299664669
 10
6.18857215045672
 20
-6.257890025531246
 10
6.279564978482944
 20
-6.419194685829502
 10
6.349878079781042
 20
-6.605323647446842
 10
6.465687595069059
 20
-6.357159947155322
 10
6.556677885063461
 20
-6.088313347619911
 10
6.639399329981087
 20
-5.815334863558999
 10
6.502910087949886
 20
-5.7574320094251
 10
6.432596986655148
 20
-5.645758185673508
 10
6.36228642337101
 20
-5.488584775396803
 10
6.316792547369282
 20
-5.381051719214055
 10
6.279564978429839
 20
-5.236290459594835
 10
6.291970784051728
 20
-5.112213368224729
 10
6.300242167137563
 20
-5.0377582303585
 10
6.33746973606829
 20
-4.98812739380906
 10
6.428460026075729
 20
-5.008810927553213
 10
6.614585180679089
 20
-5.050170381003428
 10
6.676624360877971
 20
-5.29419331371706
 10
6.730394695996867
 20
-5.463769357106306
 10
6.784162493085937
 20
-5.248702610231147
 10
6.829656369072836
 20
-5.025354962719903
 10
6.846204211265331
 20
-4.777191896935973
 10
6.742803039603788
 20
-4.723420292822917
 10
6.631127946839822
 20
-4.65724605559861
 10
6.540135118815947
 20
-4.549703481870615
 10
6.461550634432974
 20
-4.458713826370791
 10
6.366420845856888
 20
-4.322224584346587
 10
6.374694766952365
 20
-4.181603457792006
 10
6.382966150037949
 20
-4.098876936836556
 10
6.440868369672822
 20
-4.053386233352815
 10
6.523589814604368
 20
-4.090604919237927
 10
6.668352977737363
 20
-4.148507773371572
 10
6.763482766314862
 20
-4.318092699802997
 10
6.854475594338358
 20
-4.417354372894553
 10
6.829656369033096
 20
-4.140235755771932
 10
6.792433876113641
 20
-3.879669422375602
 10
6.726260273377066
 20
-3.64804975727687
 10
6.519455392043735
 20
-3.594278787671732
 10
6.28783382342552
 20
-3.432974127379642
 10
6.213388837601264
 20
-3.238582031214314
 10
6.205117454510981
 20
-3.213766612940819
 10
6.196846071420345
 20
-3.180679177074909
 10
6.200980493956977
 20
-3.143451608141731
 10
6.296107744506975
 20
-2.982146947834988
 10
6.540135118755213
 20
-3.197223212244214
 10
6.622856563687163
 20
-3.242713281218433
 10
6.552543462387954
 20
-3.031777784371393
 10
6.494638704728332
 20
-2.808430136864697
 10
6.403645876700743
 20
-2.618178808269881
 10
6.16375292500028
 20
-2.61403804071089
 10
5.899045824029043
 20
-2.539591785900989
 10
5.820463877654674
 20
-2.361743724920567
 10
5.808058072025763
 20
-2.328656289054834
 10
5.799784150921671
 20
-2.279017203966431
 10
5.820463877649293
 20
-2.241797883573554
 10
5.99004119004399
 20
-2.167343380203293
 10
6.155481541897061
 20
-2.303831987721221
 10
6.283699400838359
 20
-2.345199689715072
 10
6.283699400838562
 20
-2.349331574240725
 10
6.291970783927531
 20
-2.345199689714693
 10
6.283699400838359
 20
-2.345199689715072
 10
6.283699400838158
 20
-2.341059556648411
 10
6.283699400838158
 20
-2.341059556648411
 10
6.283699400838158
 20
-2.341059556648411
 10
6.283699400837981
 20
-2.3369283066258
 10
6.283699400837981
 20
-2.3369283066258
 10
6.279564978299681
 20
-2.336928306625977
 10
6.217525798106205
 20
-2.212842332215208
 10
6.134801815158753
 20
-2.101168508464222
 10
6.060356829338287
 20
-1.989494684712933
 10
5.965227040764678
 20
-1.906776412303164
 10
5.824600838181166
 20
-1.815786756806245
 10
5.754285198872822
 20
-1.683428764803314
 10
5.696382979230671
 20
-1.567623691028807
 10
5.667431869398367
 20
-1.261548888062609
 10
5.865960291616148
 20
-1.290504439394201
 10
5.919730626727642
 20
-1.29464520696168
 10
5.990041190007231
 20
-1.348407293528832
 10
6.031400643467501
 20
-1.385634862459912
 10
6.172024308039302
 20
-1.497308686208195
 10
6.275428017719857
 20
-1.69170078237236
 10
6.254748291001406
 20
-1.935732598133831
 10
6.312655586668092
 20
-2.034994271226878
 10
6.374694766860456
 20
-2.134255944319723
 10
6.440868369590943
 20
-2.22938636738978
 10
6.486367321608945
 20
-2.138396077381357
 10
6.535998158153689
 20
-2.068081072579995
 10
6.631127946720981
 20
-2.010178852938705
 10
6.67248740017827
 20
-1.981222667093031
 10
6.767617188746044
 20
-1.931591830541012
 10
6.825521946397101
 20
-1.964679266404699
 10
6.895835047688504
 20
-2.001906835334391
 10
6.887563664605649
 20
-2.142527961888997
 10
6.858612554790422
 20
-2.216982465253043
 10
6.808976642223747
 20
-2.357603591809569
 10
6.68903270439134
 20
-2.473417548636184
 10
6.606313797478227
 20
-2.564407204143107
 10
6.71385192969784
 20
-2.775342700988656
 10
6.788296915524192
 20
-3.019374516745883
 10
6.866883937926483
 20
-3.25926556493323
 10
6.908243391380665
 20
-3.159995643294716
 10
6.990964836307689
 20
-3.09795265608419
 10
7.086092086862713
 20
-3.048321819532121
 10
7.148133805061762
 20
-3.015234383663078
 10
7.222581328887776
 20
-2.96973479713448
 10
7.301165813267188
 20
-2.982146947789867
 10
7.38802675676599
 20
-3.102092789133015
 10
7.276351664014656
 20
-3.317168419054901
 10
7.206036024717352
 20
-3.428842242812784
 10
7.135727999457862
 20
-3.54051606657054
 10
7.057140977069871
 20
-3.619094205921455
 10
6.93719450122118
 20
-3.652189890334133
 10
6.974416994139877
 20
-3.896212823048876
 10
7.003373179994898
 20
-4.14850777335654
 10
7.003373180007379
 20
-4.425626390480273
 10
7.127454078392449
 20
-4.351180135652966
 10
7.268080280966715
 20
-4.23536617882539
 10
7.487288429913607
 20
-4.26018159708945
 10
7.590689601573027
 20
-4.268452980173985
 10
7.652731319776724
 20
-4.33876798497042
 10
7.611369328310957
 20
-4.458713826319177
 10
7.54105876504309
 20
-4.66551743864693
 10
7.218444368417673
 20
-4.768919879326833
 10
6.990964836385349
 20
-4.826822733477242
 10
6.978559030767959
 20
-5.054301631009594
 10
6.945465884382403
 20
-5.256973993313068
 10
6.91237781402237
 20
-5.463769357098158
 10
7.048867056047508
 20
-5.389323102270333
 10
7.334253883739519
 20
-5.273518028480313
 10
7.507970694705793
 20
-5.381051719160571
 10
7.516242077802139
 20
-5.538224494936912
 10
7.421112289237321
 20
-5.654030203221547
 10
7.313574157031022
 20
-5.736747841137306
 10
7.18949325864681
 20
-5.831878264215876
 10
7.024052906804601
 20
-5.939420837955418
 10
6.808976642383059
 20
-5.906333402098905
 10
6.771754149483892
 20
-6.0965853652026
 10
6.709712431291993
 20
-6.286845576848337
 10
6.660079056739
 20
-6.45229037021967
 10
6.817248025493427
 20
-6.377835232346746
 10
7.143999382674261
 20
-6.373703982309557
 10
7.206036024856656
 20
-6.530868509542592
 10
7.201901602326693
 20
-6.716997471163292
 10
7.048867056110616
 20
-6.795574976014323
 10
6.916514774635819
 20
-6.857617963227085
 10
6.775888572059152
 20
-6.91966095044025
 10
6.602176837124792
 20
-6.961019769403467
 10
6.424323065613104
 20
-6.977563804596204
 10
6.279564978520486
 20
-7.254682421726455
 10
6.085170978854547
 20
-7.527660905792244
 10
5.832872221535859
 20
-7.730325019564638
 10
5.799784151167564
 20
-7.755140437840029
 10
5.754285199147666
 20
-7.8047712743899
 10
5.712928283701507
 20
-7.800639389866117
 97
        0
 97
        0
 75
     2
 76
     1
 98
        0
  0
ENDBLK
  5
44
330
41
100
AcDbEntity
  8
0
100
AcDbBlockEnd
  0
ENDSEC
  0
SECTION
  2
ENTITIES
  0
INSERT
  5
42
330
1F
100
AcDbEntity
  8
Layer 1
100
AcDbBlockReference
  2
block 2
 10
0.0
 20
0.0
 30
0.0
  0
ENDSEC
  0
SECTION
  2
OBJECTS
  0
DICTIONARY
  5
C
330
0
100
AcDbDictionary
281
     1
  3
ACAD_GROUP
350
D
  3
ACAD_LAYOUT
350
1A
  3
ACAD_MATERIAL
350
3B
  3
ACAD_MLEADERSTYLE
350
59
  3
ACAD_MLINESTYLE
350
17
  3
ACAD_PLOTSETTINGS
350
19
  3
ACAD_PLOTSTYLENAME
350
E
  3
ACAD_TABLESTYLE
350
58
  3
ACAD_VISUALSTYLE
350
2A
  0
SUN
  5
3F
330
29
100
AcDbSun
 90
        1
290
     0
 63
     7
421
 16777215
 40
1.0
291
     1
 91
  2455826
 92
 54000000
292
     0
 70
     2
 71
   256
280
     1
  0
DICTIONARY
  5
D
102
{ACAD_REACTORS
330
C
102
}
330
C
100
AcDbDictionary
281
     1
  0
DICTIONARY
  5
1A
102
{ACAD_REACTORS
330
C
102
}
330
C
100
AcDbDictionary
281
     1
  3
Layout1
350
1E
  3
Layout2
350
26
  3
Model
350
22
  0
DICTIONARY
  5
3B
102
{ACAD_REACTORS
330
C
102
}
330
C
100
AcDbDictionary
281
     1
  3
ByBlock
350
3D
  3
ByLayer
350
3C
  3
Global
350
3E
  0
DICTIONARY
  5
59
102
{ACAD_REACTORS
330
C
102
}
330
C
100
AcDbDictionary
281
     1
  0
DICTIONARY
  5
17
102
{ACAD_REACTORS
330
C
102
}
330
C
100
AcDbDictionary
281
     1
  3
Standard
350
18
  0
DICTIONARY
  5
19
102
{ACAD_REACTORS
330
C
102
}
330
C
100
AcDbDictionary
281
     1
  0
ACDBDICTIONARYWDFLT
  5
E
102
{ACAD_REACTORS
330
C
102
}
330
C
100
AcDbDictionary
281
     1
  3
Normal
350
F
100
AcDbDictionaryWithDefault
340
F
  0
DICTIONARY
  5
58
102
{ACAD_REACTORS
330
C
102
}
330
C
100
AcDbDictionary
281
     1
  0
DICTIONARY
  5
2A
102
{ACAD_REACTORS
330
C
102
}
330
C
100
AcDbDictionary
281
     1
  3
2dWireframe
350
2F
  3
3D Hidden
350
31
  3
3dWireframe
350
30
  3
Basic
350
32
  3
Brighten
350
36
  3
ColorChange
350
3A
  3
Conceptual
350
34
  3
Dim
350
35
  3
Facepattern
350
39
  3
Flat
350
2B
  3
FlatWithEdges
350
2C
  3
Gouraud
350
2D
  3
GouraudWithEdges
350
2E
  3
Linepattern
350
38
  3
Realistic
350
33
  3
Thicken
350
37
  0
LAYOUT
  5
1E
102
{ACAD_REACTORS
330
1A
102
}
330
1A
100
AcDbPlotSettings
  1

  2
none_device
  4

  6

 40
0.0
 41
0.0
 42
0.0
 43
0.0
 44
0.0
 45
0.0
 46
0.0
 47
0.0
 48
0.0
 49
0.0
140
0.0
141
0.0
142
1.0
143
1.0
 70
   688
 72
     0
 73
     0
 74
     5
  7

 75
    16
 76
     0
 77
     2
 78
   300
147
1.0
148
0.0
149
0.0
100
AcDbLayout
  1
Layout1
 70
     1
 71
     1
 10
0.0
 20
0.0
 11
12.0
 21
9.0
 12
0.0
 22
0.0
 32
0.0
 14
1.000000000000000E+20
 24
1.000000000000000E+20
 34
1.000000000000000E+20
 15
-1.000000000000000E+20
 25
-1.000000000000000E+20
 35
-1.000000000000000E+20
146
0.0
 13
0.0
 23
0.0
 33
0.0
 16
1.0
 26
0.0
 36
0.0
 17
0.0
 27
1.0
 37
0.0
 76
     0
330
1B
  0
LAYOUT
  5
26
102
{ACAD_REACTORS
330
1A
102
}
330
1A
100
AcDbPlotSettings
  1

  2
none_device
  4

  6

 40
0.0
 41
0.0
 42
0.0
 43
0.0
 44
0.0
 45
0.0
 46
0.0
 47
0.0
 48
0.0
 49
0.0
140
0.0
141
0.0
142
1.0
143
1.0
 70
   688
 72
     0
 73
     0
 74
     5
  7

 75
    16
 76
     0
 77
     2
 78
   300
147
1.0
148
0.0
149
0.0
100
AcDbLayout
  1
Layout2
 70
     1
 71
     2
 10
0.0
 20
0.0
 11
0.0
 21
0.0
 12
0.0
 22
0.0
 32
0.0
 14
0.0
 24
0.0
 34
0.0
 15
0.0
 25
0.0
 35
0.0
146
0.0
 13
0.0
 23
0.0
 33
0.0
 16
1.0
 26
0.0
 36
0.0
 17
0.0
 27
1.0
 37
0.0
 76
     0
330
23
  0
LAYOUT
  5
22
102
{ACAD_REACTORS
330
1A
102
}
330
1A
100
AcDbPlotSettings
  1

  2
none_device
  4

  6

 40
0.0
 41
0.0
 42
0.0
 43
0.0
 44
0.0
 45
0.0
 46
0.0
 47
0.0
 48
0.0
 49
0.0
140
0.0
141
0.0
142
1.0
143
1.0
 70
  1712
 72
     0
 73
     0
 74
     0
  7

 75
     0
 76
     0
 77
     2
 78
   300
147
1.0
148
0.0
149
0.0
100
AcDbLayout
  1
Model
 70
     1
 71
     0
 10
0.0
 20
0.0
 11
12.0
 21
9.0
 12
0.0
 22
0.0
 32
0.0
 14
1.000000000000000E+20
 24
1.000000000000000E+20
 34
1.000000000000000E+20
 15
-1.000000000000000E+20
 25
-1.000000000000000E+20
 35
-1.000000000000000E+20
146
0.0
 13
0.0
 23
0.0
 33
0.0
 16
1.0
 26
0.0
 36
0.0
 17
0.0
 27
1.0
 37
0.0
 76
     0
330
1F
331
29
  0
MATERIAL
  5
3D
102
{ACAD_REACTORS
330
3B
102
}
330
3B
100
AcDbMaterial
  1
ByBlock
 72
     1
 94
      127
  0
MATERIAL
  5
3C
102
{ACAD_REACTORS
330
3B
102
}
330
3B
100
AcDbMaterial
  1
ByLayer
 72
     1
 94
      127
  0
MATERIAL
  5
3E
102
{ACAD_REACTORS
330
3B
102
}
330
3B
100
AcDbMaterial
  1
Global
 72
     1
 94
      127
  0
MLINESTYLE
  5
18
102
{ACAD_REACTORS
330
17
102
}
330
17
100
AcDbMlineStyle
  2
Standard
 70
     0
  3

 62
   256
 51
90.0
 52
90.0
 71
     2
 49
0.5
 62
   256
  6
BYLAYER
 49
-0.5
 62
   256
  6
BYLAYER
  0
ACDBPLACEHOLDER
  5
F
102
{ACAD_REACTORS
330
E
102
}
330
E
  0
VISUALSTYLE
  5
2F
102
{ACAD_REACTORS
330
2A
102
}
330
2A
100
AcDbVisualStyle
  2
2dWireframe
 70
     4
177
     2
291
     0
 71
     0
176
     1
 72
     2
176
     1
 73
     0
176
     1
 90
        0
176
     1
 40
-0.6
176
     1
 41
-30.0
176
     1
 62
     5
 63
     7
421
 16777215
176
     1
 74
     1
176
     1
 91
        4
176
     1
 64
     7
176
     1
 65
   257
176
     1
 75
     1
176
     1
175
     1
176
     1
 42
1.0
176
     1
 92
        0
176
     1
 66
   257
176
     1
 43
1.0
176
     1
 76
     1
176
     1
 77
     6
176
     1
 78
     2
176
     1
 67
     7
176
     1
 79
     5
176
     1
170
     0
176
     1
171
     0
176
     1
290
     0
176
     1
 93
        1
176
     1
 44
0.0
176
     1
173
     0
176
     1
  0
VISUALSTYLE
  5
31
102
{ACAD_REACTORS
330
2A
102
}
330
2A
100
AcDbVisualStyle
  2
3D Hidden
 70
     6
177
     2
291
     0
 71
     1
176
     1
 72
     2
176
     1
 73
     2
176
     1
 90
        0
176
     1
 40
-0.6
176
     1
 41
-30.0
176
     1
 62
     5
 63
     7
421
 16777215
176
     1
 74
     2
176
     1
 91
        2
176
     1
 64
     7
176
     1
 65
   257
176
     1
 75
     2
176
     1
175
     1
176
     1
 42
40.0
176
     1
 92
        0
176
     1
 66
   257
176
     1
 43
1.0
176
     1
 76
     1
176
     1
 77
     6
176
     1
 78
     2
176
     1
 67
     7
176
     1
 79
     3
176
     1
170
     0
176
     1
171
     0
176
     1
290
     0
176
     1
 93
        1
176
     1
 44
0.0
176
     1
173
     0
176
     1
  0
VISUALSTYLE
  5
30
102
{ACAD_REACTORS
330
2A
102
}
330
2A
100
AcDbVisualStyle
  2
3dWireframe
 70
     5
177
     2
291
     0
 71
     0
176
     1
 72
     2
176
     1
 73
     0
176
     1
 90
        0
176
     1
 40
-0.6
176
     1
 41
-30.0
176
     1
 62
     5
 63
     7
421
 16777215
176
     1
 74
     1
176
     1
 91
        4
176
     1
 64
     7
176
     1
 65
   257
176
     1
 75
     1
176
     1
175
     1
176
     1
 42
1.0
176
     1
 92
        0
176
     1
 66
   257
176
     1
 43
1.0
176
     1
 76
     1
176
     1
 77
     6
176
     1
 78
     2
176
     1
 67
     7
176
     1
 79
     5
176
     1
170
     0
176
     1
171
     0
176
     1
290
     0
176
     1
 93
        1
176
     1
 44
0.0
176
     1
173
     0
176
     1
  0
VISUALSTYLE
  5
32
102
{ACAD_REACTORS
330
2A
102
}
330
2A
100
AcDbVisualStyle
  2
Basic
 70
     7
177
     2
291
     1
 71
     1
176
     1
 72
     0
176
     1
 73
     1
176
     1
 90
        0
176
     1
 40
-0.6
176
     1
 41
-30.0
176
     1
 62
     5
 63
     7
421
 16777215
176
     1
 74
     0
176
     1
 91
        4
176
     1
 64
     7
176
     1
 65
   257
176
     1
 75
     1
176
     1
175
     1
176
     1
 42
1.0
176
     1
 92
        8
176
     1
 66
     7
176
     1
 43
1.0
176
     1
 76
     1
176
     1
 77
     6
176
     1
 78
     2
176
     1
 67
     7
176
     1
 79
     5
176
     1
170
     0
176
     1
171
     0
176
     1
290
     0
176
     1
 93
        1
176
     1
 44
0.0
176
     1
173
     0
176
     1
  0
VISUALSTYLE
  5
36
102
{ACAD_REACTORS
330
2A
102
}
330
2A
100
AcDbVisualStyle
  2
Brighten
 70
    12
177
     2
291
     1
 71
     2
176
     1
 72
     2
176
     1
 73
     0
176
     1
 90
        0
176
     1
 40
-0.6
176
     1
 41
-30.0
176
     1
 62
     5
 63
     7
421
 16777215
176
     1
 74
     1
176
     1
 91
        4
176
     1
 64
     7
176
     1
 65
   257
176
     1
 75
     1
176
     1
175
     1
176
     1
 42
1.0
176
     1
 92
        8
176
     1
 66
     7
176
     1
 43
1.0
176
     1
 76
     1
176
     1
 77
     6
176
     1
 78
     2
176
     1
 67
     7
176
     1
 79
     5
176
     1
170
     0
176
     1
171
     0
176
     1
290
     0
176
     1
 93
        1
176
     1
 44
50.0
176
     1
173
     0
176
     1
  0
VISUALSTYLE
  5
3A
102
{ACAD_REACTORS
330
2A
102
}
330
2A
100
AcDbVisualStyle
  2
ColorChange
 70
    16
177
     2
291
     1
 71
     2
176
     1
 72
     2
176
     1
 73
     3
176
     1
 90
        0
176
     1
 40
-0.6
176
     1
 41
-30.0
176
     1
 62
     5
 63
     8
421
  8421504
176
     1
 74
     1
176
     1
 91
        4
176
     1
 64
     7
176
     1
 65
   257
176
     1
 75
     1
176
     1
175
     1
176
     1
 42
1.0
176
     1
 92
        8
176
     1
 66
     8
424
  8421504
176
     1
 43
1.0
176
     1
 76
     1
176
     1
 77
     6
176
     1
 78
     2
176
     1
 67
     7
176
     1
 79
     5
176
     1
170
     0
176
     1
171
     0
176
     1
290
     0
176
     1
 93
        1
176
     1
 44
0.0
176
     1
173
     0
176
     1
  0
VISUALSTYLE
  5
34
102
{ACAD_REACTORS
330
2A
102
}
330
2A
100
AcDbVisualStyle
  2
Conceptual
 70
     9
177
     2
291
     0
 71
     3
176
     1
 72
     2
176
     1
 73
     0
176
     1
 90
        0
176
     1
 40
-0.6
176
     1
 41
-30.0
176
     1
 62
     5
 63
     7
421
 16777215
176
     1
 74
     2
176
     1
 91
        2
176
     1
 64
     7
176
     1
 65
   257
176
     1
 75
     1
176
     1
175
     1
176
     1
 42
40.0
176
     1
 92
        8
176
     1
 66
     7
176
     1
 43
1.0
176
     1
 76
     1
176
     1
 77
     6
176
     1
 78
     2
176
     1
 67
     7
176
     1
 79
     3
176
     1
170
     0
176
     1
171
     0
176
     1
290
     0
176
     1
 93
        1
176
     1
 44
0.0
176
     1
173
     0
176
     1
  0
VISUALSTYLE
  5
35
102
{ACAD_REACTORS
330
2A
102
}
330
2A
100
AcDbVisualStyle
  2
Dim
 70
    11
177
     2
291
     1
 71
     2
176
     1
 72
     2
176
     1
 73
     0
176
     1
 90
        0
176
     1
 40
-0.6
176
     1
 41
-30.0
176
     1
 62
     5
 63
     7
421
 16777215
176
     1
 74
     1
176
     1
 91
        4
176
     1
 64
     7
176
     1
 65
   257
176
     1
 75
     1
176
     1
175
     1
176
     1
 42
1.0
176
     1
 92
        8
176
     1
 66
     7
176
     1
 43
1.0
176
     1
 76
     1
176
     1
 77
     6
176
     1
 78
     2
176
     1
 67
     7
176
     1
 79
     5
176
     1
170
     0
176
     1
171
     0
176
     1
290
     0
176
     1
 93
        1
176
     1
 44
-50.0
176
     1
173
     0
176
     1
  0
VISUALSTYLE
  5
39
102
{ACAD_REACTORS
330
2A
102
}
330
2A
100
AcDbVisualStyle
  2
Facepattern
 70
    15
177
     2
291
     1
 71
     2
176
     1
 72
     2
176
     1
 73
     0
176
     1
 90
        0
176
     1
 40
-0.6
176
     1
 41
-30.0
176
     1
 62
     5
 63
     7
421
 16777215
176
     1
 74
     1
176
     1
 91
        4
176
     1
 64
     7
176
     1
 65
   257
176
     1
 75
     1
176
     1
175
     1
176
     1
 42
1.0
176
     1
 92
        8
176
     1
 66
     7
176
     1
 43
1.0
176
     1
 76
     1
176
     1
 77
     6
176
     1
 78
     2
176
     1
 67
     7
176
     1
 79
     5
176
     1
170
     0
176
     1
171
     0
176
     1
290
     0
176
     1
 93
        1
176
     1
 44
0.0
176
     1
173
     0
176
     1
  0
VISUALSTYLE
  5
2B
102
{ACAD_REACTORS
330
2A
102
}
330
2A
100
AcDbVisualStyle
  2
Flat
 70
     0
177
     2
291
     1
 71
     2
176
     1
 72
     1
176
     1
 73
     1
176
     1
 90
        2
176
     1
 40
-0.6
176
     1
 41
30.0
176
     1
 62
     5
 63
     7
421
 16777215
176
     1
 74
     0
176
     1
 91
        4
176
     1
 64
     7
176
     1
 65
   257
176
     1
 75
     1
176
     1
175
     1
176
     1
 42
1.0
176
     1
 92
        8
176
     1
 66
     7
176
     1
 43
1.0
176
     1
 76
     1
176
     1
 77
     6
176
     1
 78
     2
176
     1
 67
     7
176
     1
 79
     5
176
     1
170
     0
176
     1
171
     0
176
     1
290
     0
176
     1
 93
       13
176
     1
 44
0.0
176
     1
173
     0
176
     1
  0
VISUALSTYLE
  5
2C
102
{ACAD_REACTORS
330
2A
102
}
330
2A
100
AcDbVisualStyle
  2
FlatWithEdges
 70
     1
177
     2
291
     1
 71
     2
176
     1
 72
     1
176
     1
 73
     1
176
     1
 90
        2
176
     1
 40
-0.6
176
     1
 41
30.0
176
     1
 62
     5
 63
     7
421
 16777215
176
     1
 74
     1
176
     1
 91
        4
176
     1
 64
     7
176
     1
 65
   257
176
     1
 75
     1
176
     1
175
     1
176
     1
 42
1.0
176
     1
 92
        0
176
     1
 66
   257
176
     1
 43
1.0
176
     1
 76
     1
176
     1
 77
     6
176
     1
 78
     2
176
     1
 67
     7
176
     1
 79
     5
176
     1
170
     0
176
     1
171
     0
176
     1
290
     0
176
     1
 93
       13
176
     1
 44
0.0
176
     1
173
     0
176
     1
  0
VISUALSTYLE
  5
2D
102
{ACAD_REACTORS
330
2A
102
}
330
2A
100
AcDbVisualStyle
  2
Gouraud
 70
     2
177
     2
291
     1
 71
     2
176
     1
 72
     2
176
     1
 73
     1
176
     1
 90
        2
176
     1
 40
-0.6
176
     1
 41
30.0
176
     1
 62
     5
 63
     7
421
 16777215
176
     1
 74
     0
176
     1
 91
        4
176
     1
 64
     7
176
     1
 65
   257
176
     1
 75
     1
176
     1
175
     1
176
     1
 42
1.0
176
     1
 92
        0
176
     1
 66
     7
176
     1
 43
1.0
176
     1
 76
     1
176
     1
 77
     6
176
     1
 78
     2
176
     1
 67
     7
176
     1
 79
     5
176
     1
170
     0
176
     1
171
     0
176
     1
290
     0
176
     1
 93
       13
176
     1
 44
0.0
176
     1
173
     0
176
     1
  0
VISUALSTYLE
  5
2E
102
{ACAD_REACTORS
330
2A
102
}
330
2A
100
AcDbVisualStyle
  2
GouraudWithEdges
 70
     3
177
     2
291
     1
 71
     2
176
     1
 72
     2
176
     1
 73
     1
176
     1
 90
        2
176
     1
 40
-0.6
176
     1
 41
30.0
176
     1
 62
     5
 63
     7
421
 16777215
176
     1
 74
     1
176
     1
 91
        4
176
     1
 64
     7
176
     1
 65
   257
176
     1
 75
     1
176
     1
175
     1
176
     1
 42
1.0
176
     1
 92
        0
176
     1
 66
   257
176
     1
 43
1.0
176
     1
 76
     1
176
     1
 77
     6
176
     1
 78
     2
176
     1
 67
     7
176
     1
 79
     5
176
     1
170
     0
176
     1
171
     0
176
     1
290
     0
176
     1
 93
       13
176
     1
 44
0.0
176
     1
173
     0
176
     1
  0
VISUALSTYLE
  5
38
102
{ACAD_REACTORS
330
2A
102
}
330
2A
100
AcDbVisualStyle
  2
Linepattern
 70
    14
177
     2
291
     1
 71
     2
176
     1
 72
     2
176
     1
 73
     0
176
     1
 90
        0
176
     1
 40
-0.6
176
     1
 41
-30.0
176
     1
 62
     5
 63
     7
421
 16777215
176
     1
 74
     1
176
     1
 91
        4
176
     1
 64
     7
176
     1
 65
   257
176
     1
 75
     7
176
     1
175
     7
176
     1
 42
1.0
176
     1
 92
        8
176
     1
 66
     7
176
     1
 43
1.0
176
     1
 76
     1
176
     1
 77
     6
176
     1
 78
     2
176
     1
 67
     7
176
     1
 79
     5
176
     1
170
     0
176
     1
171
     0
176
     1
290
     0
176
     1
 93
        1
176
     1
 44
0.0
176
     1
173
     0
176
     1
  0
VISUALSTYLE
  5
33
102
{ACAD_REACTORS
330
2A
102
}
330
2A
100
AcDbVisualStyle
  2
Realistic
 70
     8
177
     2
291
     0
 71
     2
176
     1
 72
     2
176
     1
 73
     0
176
     1
 90
        0
176
     1
 40
-0.6
176
     1
 41
-30.0
176
     1
 62
     5
 63
     7
421
 16777215
176
     1
 74
     1
176
     1
 91
        0
176
     1
 64
     7
176
     1
 65
   257
176
     1
 75
     1
176
     1
175
     1
176
     1
 42
1.0
176
     1
 92
        8
176
     1
 66
     8
424
  7895160
176
     1
 43
1.0
176
     1
 76
     1
176
     1
 77
     6
176
     1
 78
     2
176
     1
 67
     7
176
     1
 79
     5
176
     1
170
     0
176
     1
171
     0
176
     1
290
     0
176
     1
 93
       13
176
     1
 44
0.0
176
     1
173
     0
176
     1
  0
VISUALSTYLE
  5
37
102
{ACAD_REACTORS
330
2A
102
}
330
2A
100
AcDbVisualStyle
  2
Thicken
 70
    13
177
     2
291
     1
 71
     2
176
     1
 72
     2
176
     1
 73
     0
176
     1
 90
        0
176
     1
 40
-0.6
176
     1
 41
-30.0
176
     1
 62
     5
 63
     7
421
 16777215
176
     1
 74
     1
176
     1
 91
        4
176
     1
 64
     7
176
     1
 65
   257
176
     1
 75
     1
176
     1
175
     1
176
     1
 42
1.0
176
     1
 92
       12
176
     1
 66
     7
176
     1
 43
1.0
176
     1
 76
     1
176
     1
 77
     6
176
     1
 78
     2
176
     1
 67
     7
176
     1
 79
     5
176
     1
170
     0
176
     1
171
     0
176
     1
290
     0
176
     1
 93
        1
176
     1
 44
0.0
176
     1
173
     0
176
     1
  0
ENDSEC
  0
EOF
