  0
SECTION
  2
HEADER
  9
$ACADVER
  1
AC1024
  9
$ACADMAINTVER
 70
     6
  9
$DWGCODEPAGE
  3
ANSI_1252
  9
$INSBASE
 10
0.0
 20
0.0
 30
0.0
  9
$EXTMIN
 10
1.000000000000000E+20
 20
1.000000000000000E+20
 30
1.000000000000000E+20
  9
$EXTMAX
 10
-1.000000000000000E+20
 20
-1.000000000000000E+20
 30
-1.000000000000000E+20
  9
$LIMMIN
 10
0.0
 20
0.0
  9
$LIMMAX
 10
12.0
 20
9.0
  9
$ORTHOMODE
 70
     0
  9
$REGENMODE
 70
     1
  9
$FILLMODE
 70
     1
  9
$QTEXTMODE
 70
     0
  9
$MIRRTEXT
 70
     1
  9
$LTSCALE
 40
1.0
  9
$ATTMODE
 70
     1
  9
$TEXTSIZE
 40
0.2
  9
$TRACEWID
 40
0.05
  9
$TEXTSTYLE
  7
Standard
  9
$CLAYER
  8
0
  9
$CELTYPE
  6
ByLayer
  9
$CECOLOR
 62
   256
  9
$CELTSCALE
 40
1.0
  9
$DISPSILH
 70
     0
  9
$DIMSCALE
 40
1.0
  9
$DIMASZ
 40
0.18
  9
$DIMEXO
 40
0.0625
  9
$DIMDLI
 40
0.38
  9
$DIMRND
 40
0.0
  9
$DIMDLE
 40
0.0
  9
$DIMEXE
 40
0.18
  9
$DIMTP
 40
0.0
  9
$DIMTM
 40
0.0
  9
$DIMTXT
 40
0.18
  9
$DIMCEN
 40
0.09
  9
$DIMTSZ
 40
0.0
  9
$DIMTOL
 70
     0
  9
$DIMLIM
 70
     0
  9
$DIMTIH
 70
     1
  9
$DIMTOH
 70
     1
  9
$DIMSE1
 70
     0
  9
$DIMSE2
 70
     0
  9
$DIMTAD
 70
     0
  9
$DIMZIN
 70
     0
  9
$DIMBLK
  1

  9
$DIMASO
 70
     1
  9
$DIMSHO
 70
     1
  9
$DIMPOST
  1

  9
$DIMAPOST
  1

  9
$DIMALT
 70
     0
  9
$DIMALTD
 70
     2
  9
$DIMALTF
 40
25.4
  9
$DIMLFAC
 40
1.0
  9
$DIMTOFL
 70
     0
  9
$DIMTVP
 40
0.0
  9
$DIMTIX
 70
     0
  9
$DIMSOXD
 70
     0
  9
$DIMSAH
 70
     0
  9
$DIMBLK1
  1

  9
$DIMBLK2
  1

  9
$DIMSTYLE
  2
Standard
  9
$DIMCLRD
 70
     0
  9
$DIMCLRE
 70
     0
  9
$DIMCLRT
 70
     0
  9
$DIMTFAC
 40
1.0
  9
$DIMGAP
 40
0.09
  9
$DIMJUST
 70
     0
  9
$DIMSD1
 70
     0
  9
$DIMSD2
 70
     0
  9
$DIMTOLJ
 70
     1
  9
$DIMTZIN
 70
     0
  9
$DIMALTZ
 70
     0
  9
$DIMALTTZ
 70
     0
  9
$DIMUPT
 70
     0
  9
$DIMDEC
 70
     4
  9
$DIMTDEC
 70
     4
  9
$DIMALTU
 70
     2
  9
$DIMALTTD
 70
     2
  9
$DIMTXSTY
  7
Standard
  9
$DIMAUNIT
 70
     0
  9
$DIMADEC
 70
     0
  9
$DIMALTRND
 40
0.0
  9
$DIMAZIN
 70
     0
  9
$DIMDSEP
 70
    46
  9
$DIMATFIT
 70
     3
  9
$DIMFRAC
 70
     0
  9
$DIMLDRBLK
  1

  9
$DIMLUNIT
 70
     2
  9
$DIMLWD
 70
    -2
  9
$DIMLWE
 70
    -2
  9
$DIMTMOVE
 70
     0
  9
$DIMFXL
 40
1.0
  9
$DIMFXLON
 70
     0
  9
$DIMJOGANG
 40
0.7853981633974483
  9
$DIMTFILL
 70
     0
  9
$DIMTFILLCLR
 70
     0
  9
$DIMARCSYM
 70
     0
  9
$DIMLTYPE
  6

  9
$DIMLTEX1
  6

  9
$DIMLTEX2
  6

  9
$DIMTXTDIRECTION
 70
     0
  9
$LUNITS
 70
     2
  9
$LUPREC
 70
     4
  9
$SKETCHINC
 40
0.1
  9
$FILLETRAD
 40
0.5
  9
$AUNITS
 70
     0
  9
$AUPREC
 70
     0
  9
$MENU
  1
.
  9
$ELEVATION
 40
0.0
  9
$PELEVATION
 40
0.0
  9
$THICKNESS
 40
0.0
  9
$LIMCHECK
 70
     0
  9
$CHAMFERA
 40
0.5
  9
$CHAMFERB
 40
0.5
  9
$CHAMFERC
 40
1.0
  9
$CHAMFERD
 40
0.0
  9
$SKPOLY
 70
     0
  9
$TDCREATE
 40
2459065.582804722
  9
$TDUCREATE
 40
2459065.353638056
  9
$TDUPDATE
 40
2459065.582804757
  9
$TDUUPDATE
 40
2459065.35363809
  9
$TDINDWG
 40
0.0000000116
  9
$TDUSRTIMER
 40
0.0000000116
  9
$USRTIMER
 70
     1
  9
$ANGBASE
 50
0.0
  9
$ANGDIR
 70
     0
  9
$PDMODE
 70
     0
  9
$PDSIZE
 40
0.0
  9
$PLINEWID
 40
0.0
  9
$SPLFRAME
 70
     0
  9
$SPLINETYPE
 70
     6
  9
$SPLINESEGS
 70
     8
  9
$HANDSEED
  5
5A
  9
$SURFTAB1
 70
     6
  9
$SURFTAB2
 70
     6
  9
$SURFTYPE
 70
     6
  9
$SURFU
 70
     6
  9
$SURFV
 70
     6
  9
$UCSBASE
  2

  9
$UCSNAME
  2

  9
$UCSORG
 10
0.0
 20
0.0
 30
0.0
  9
$UCSXDIR
 10
1.0
 20
0.0
 30
0.0
  9
$UCSYDIR
 10
0.0
 20
1.0
 30
0.0
  9
$UCSORTHOREF
  2

  9
$UCSORTHOVIEW
 70
     0
  9
$UCSORGTOP
 10
0.0
 20
0.0
 30
0.0
  9
$UCSORGBOTTOM
 10
0.0
 20
0.0
 30
0.0
  9
$UCSORGLEFT
 10
0.0
 20
0.0
 30
0.0
  9
$UCSORGRIGHT
 10
0.0
 20
0.0
 30
0.0
  9
$UCSORGFRONT
 10
0.0
 20
0.0
 30
0.0
  9
$UCSORGBACK
 10
0.0
 20
0.0
 30
0.0
  9
$PUCSBASE
  2

  9
$PUCSNAME
  2

  9
$PUCSORG
 10
0.0
 20
0.0
 30
0.0
  9
$PUCSXDIR
 10
1.0
 20
0.0
 30
0.0
  9
$PUCSYDIR
 10
0.0
 20
1.0
 30
0.0
  9
$PUCSORTHOREF
  2

  9
$PUCSORTHOVIEW
 70
     0
  9
$PUCSORGTOP
 10
0.0
 20
0.0
 30
0.0
  9
$PUCSORGBOTTOM
 10
0.0
 20
0.0
 30
0.0
  9
$PUCSORGLEFT
 10
0.0
 20
0.0
 30
0.0
  9
$PUCSORGRIGHT
 10
0.0
 20
0.0
 30
0.0
  9
$PUCSORGFRONT
 10
0.0
 20
0.0
 30
0.0
  9
$PUCSORGBACK
 10
0.0
 20
0.0
 30
0.0
  9
$USERI1
 70
     0
  9
$USERI2
 70
     0
  9
$USERI3
 70
     0
  9
$USERI4
 70
     0
  9
$USERI5
 70
     0
  9
$USERR1
 40
0.0
  9
$USERR2
 40
0.0
  9
$USERR3
 40
0.0
  9
$USERR4
 40
0.0
  9
$USERR5
 40
0.0
  9
$WORLDVIEW
 70
     1
  9
$SHADEDGE
 70
     3
  9
$SHADEDIF
 70
    70
  9
$TILEMODE
 70
     1
  9
$MAXACTVP
 70
    64
  9
$PINSBASE
 10
0.0
 20
0.0
 30
0.0
  9
$PLIMCHECK
 70
     0
  9
$PEXTMIN
 10
1.000000000000000E+20
 20
1.000000000000000E+20
 30
1.000000000000000E+20
  9
$PEXTMAX
 10
-1.000000000000000E+20
 20
-1.000000000000000E+20
 30
-1.000000000000000E+20
  9
$PLIMMIN
 10
0.0
 20
0.0
  9
$PLIMMAX
 10
12.0
 20
9.0
  9
$UNITMODE
 70
     0
  9
$VISRETAIN
 70
     1
  9
$PLINEGEN
 70
     0
  9
$PSLTSCALE
 70
     1
  9
$TREEDEPTH
 70
  3020
  9
$CMLSTYLE
  2
Standard
  9
$CMLJUST
 70
     0
  9
$CMLSCALE
 40
1.0
  9
$PROXYGRAPHICS
 70
     1
  9
$MEASUREMENT
 70
     0
  9
$CELWEIGHT
370
    -1
  9
$ENDCAPS
280
     0
  9
$JOINSTYLE
280
     0
  9
$LWDISPLAY
290
     1
  9
$INSUNITS
 70
     1
  9
$HYPERLINKBASE
  1

  9
$STYLESHEET
  1

  9
$XEDIT
290
     1
  9
$CEPSNTYPE
380
     0
  9
$PSTYLEMODE
290
     1
  9
$FINGERPRINTGUID
  2
{D8201190-B126-4600-9CDB-65A5E444B163}
  9
$VERSIONGUID
  2
{FAEB1C32-E019-11D5-929B-00C0DF256EC4}
  9
$EXTNAMES
290
     1
  9
$PSVPSCALE
 40
0.0
  9
$OLESTARTUP
290
     0
  9
$SORTENTS
280
   127
  9
$INDEXCTL
280
     0
  9
$HIDETEXT
280
     1
  9
$XCLIPFRAME
280
     2
  9
$HALOGAP
280
     0
  9
$OBSCOLOR
 70
   257
  9
$OBSLTYPE
280
     0
  9
$INTERSECTIONDISPLAY
280
     0
  9
$INTERSECTIONCOLOR
 70
   257
  9
$DIMASSOC
280
     2
  9
$PROJECTNAME
  1

  9
$CAMERADISPLAY
290
     0
  9
$LENSLENGTH
 40
50.0
  9
$CAMERAHEIGHT
 40
0.0
  9
$STEPSPERSEC
 40
2.0
  9
$STEPSIZE
 40
6.0
  9
$3DDWFPREC
 40
2.0
  9
$PSOLWIDTH
 40
0.25
  9
$PSOLHEIGHT
 40
4.0
  9
$LOFTANG1
 40
1.570796326794897
  9
$LOFTANG2
 40
1.570796326794897
  9
$LOFTMAG1
 40
0.0
  9
$LOFTMAG2
 40
0.0
  9
$LOFTPARAM
 70
     7
  9
$LOFTNORMALS
280
     1
  9
$LATITUDE
 40
37.795
  9
$LONGITUDE
 40
-122.394
  9
$NORTHDIRECTION
 40
0.0
  9
$TIMEZONE
 70
 -8000
  9
$LIGHTGLYPHDISPLAY
280
     1
  9
$TILEMODELIGHTSYNCH
280
     1
  9
$CMATERIAL
347
3C
  9
$SOLIDHIST
280
     1
  9
$SHOWHIST
280
     1
  9
$DWFFRAME
280
     2
  9
$DGNFRAME
280
     2
  9
$REALWORLDSCALE
290
     1
  9
$INTERFERECOLOR
 62
   256
  9
$CSHADOW
280
     0
  9
$SHADOWPLANELOCATION
 40
0.0
  0
ENDSEC
  0
SECTION
  2
CLASSES
  0
CLASS
  1
ACDBDICTIONARYWDFLT
  2
AcDbDictionaryWithDefault
  3
ObjectDBX Classes
 90
        0
 91
        4
280
     0
281
     0
  0
CLASS
  1
VISUALSTYLE
  2
AcDbVisualStyle
  3
ObjectDBX Classes
 90
     4095
 91
        4
280
     0
281
     0
  0
CLASS
  1
MATERIAL
  2
AcDbMaterial
  3
ObjectDBX Classes
 90
     1153
 91
        4
280
     0
281
     0
  0
CLASS
  1
SUN
  2
AcDbSun
  3
SCENEOE
 90
     1024
 91
        4
280
     0
281
     0
  0
ENDSEC
  0
SECTION
  2
TABLES
  0
TABLE
  2
VPORT
  5
8
330
0
100
AcDbSymbolTable
 70
     1
  0
VPORT
  5
29
330
8
100
AcDbSymbolTableRecord
100
AcDbViewportTableRecord
  2
*Active
 70
     0
 10
0.0
 20
0.0
 11
1.0
 21
1.0
 12
0.0
 22
0.0
 13
0.0
 23
0.0
 14
0.5
 24
0.5
 15
0.5
 25
0.5
 16
0.0
 26
0.0
 36
1.0
 17
3.0
 27
-24.0
 37
0.0
 40
48.0
 41
0.2083333333333333
 42
50.0
 43
0.0
 44
0.0
 50
0.0
 51
0.0
 71
     0
 72
   100
 73
     1
 74
     3
 75
     0
 76
     0
 77
     0
 78
     0
281
     0
 65
     1
110
0.0
120
0.0
130
0.0
111
1.0
121
0.0
131
0.0
112
0.0
122
1.0
132
0.0
 79
     0
146
0.0
 60
     3
 61
     5
292
     1
282
     1
141
0.0
142
0.0
 63
   250
361
3F
  0
ENDTAB
  0
TABLE
  2
LTYPE
  5
5
330
0
100
AcDbSymbolTable
 70
     1
  0
LTYPE
  5
14
330
5
100
AcDbSymbolTableRecord
100
AcDbLinetypeTableRecord
  2
ByBlock
 70
     0
  3

 72
    65
 73
     0
 40
0.0
  0
LTYPE
  5
15
330
5
100
AcDbSymbolTableRecord
100
AcDbLinetypeTableRecord
  2
ByLayer
 70
     0
  3

 72
    65
 73
     0
 40
0.0
  0
LTYPE
  5
16
330
5
100
AcDbSymbolTableRecord
100
AcDbLinetypeTableRecord
  2
Continuous
 70
     0
  3
Solid line
 72
    65
 73
     0
 40
0.0
  0
ENDTAB
  0
TABLE
  2
LAYER
  5
2
330
0
100
AcDbSymbolTable
 70
     2
  0
LAYER
  5
10
330
2
100
AcDbSymbolTableRecord
100
AcDbLayerTableRecord
  2
0
 70
     0
 62
     7
  6
Continuous
370
    -3
390
F
347
3E
  0
LAYER
  5
40
330
2
100
AcDbSymbolTableRecord
100
AcDbLayerTableRecord
  2
Layer 1
 70
     0
 62
     7
  6
Continuous
370
    -3
390
F
347
3E
  0
ENDTAB
  0
TABLE
  2
STYLE
  5
3
330
0
100
AcDbSymbolTable
 70
     1
  0
STYLE
  5
11
330
3
100
AcDbSymbolTableRecord
100
AcDbTextStyleTableRecord
  2
Standard
 70
     0
 40
0.0
 41
1.0
 50
0.0
 71
     0
 42
0.2
  3
txt
  4

  0
ENDTAB
  0
TABLE
  2
VIEW
  5
6
330
0
100
AcDbSymbolTable
 70
     0
  0
ENDTAB
  0
TABLE
  2
UCS
  5
7
330
0
100
AcDbSymbolTable
 70
     0
  0
ENDTAB
  0
TABLE
  2
APPID
  5
9
330
0
100
AcDbSymbolTable
 70
     1
  0
APPID
  5
12
330
9
100
AcDbSymbolTableRecord
100
AcDbRegAppTableRecord
  2
ACAD
 70
     0
  0
ENDTAB
  0
TABLE
  2
DIMSTYLE
  5
A
330
0
100
AcDbSymbolTable
 70
     1
100
AcDbDimStyleTable
  0
DIMSTYLE
105
27
330
A
100
AcDbSymbolTableRecord
100
AcDbDimStyleTableRecord
  2
Standard
 70
     0
178
     0
340
11
  0
ENDTAB
  0
TABLE
  2
BLOCK_RECORD
  5
1
330
0
100
AcDbSymbolTable
 70
     2
  0
BLOCK_RECORD
  5
1F
330
1
100
AcDbSymbolTableRecord
100
AcDbBlockTableRecord
  2
*Model_Space
340
22
 70
     0
280
     1
281
     0
  0
BLOCK_RECORD
  5
1B
330
1
100
AcDbSymbolTableRecord
100
AcDbBlockTableRecord
  2
*Paper_Space
340
1E
 70
     0
280
     1
281
     0
  0
BLOCK_RECORD
  5
23
330
1
100
AcDbSymbolTableRecord
100
AcDbBlockTableRecord
  2
*Paper_Space0
340
26
 70
     0
280
     1
281
     0
  0
BLOCK_RECORD
  5
41
330
1
100
AcDbSymbolTableRecord
100
AcDbBlockTableRecord
  2
block 2
340
0
102
{BLKREFS
331
42
102
}
 70
     0
280
     1
281
     0
  0
ENDTAB
  0
ENDSEC
  0
SECTION
  2
BLOCKS
  0
BLOCK
  5
20
330
1F
100
AcDbEntity
  8
0
100
AcDbBlockBegin
  2
*Model_Space
 70
     0
 10
0.0
 20
0.0
 30
0.0
  3
*Model_Space
  1

  0
ENDBLK
  5
21
330
1F
100
AcDbEntity
  8
0
100
AcDbBlockEnd
  0
BLOCK
  5
1C
330
1B
100
AcDbEntity
 67
     1
  8
0
100
AcDbBlockBegin
  2
*Paper_Space
 70
     0
 10
0.0
 20
0.0
 30
0.0
  3
*Paper_Space
  1

  0
ENDBLK
  5
1D
330
1B
100
AcDbEntity
 67
     1
  8
0
100
AcDbBlockEnd
  0
BLOCK
  5
24
330
23
100
AcDbEntity
  8
0
100
AcDbBlockBegin
  2
*Paper_Space0
 70
     0
 10
0.0
 20
0.0
 30
0.0
  3
*Paper_Space0
  1

  0
ENDBLK
  5
25
330
23
100
AcDbEntity
  8
0
100
AcDbBlockEnd
  0
BLOCK
  5
43
330
41
100
AcDbEntity
  8
0
100
AcDbBlockBegin
  2
block 2
 70
     0
 10
0.0
 20
0.0
 30
0.0
  3
block 2
  1

  0
SPLINE
  5
45
330
41
100
AcDbEntity
  8
Layer 1
370
     0
100
AcDbSpline
210
0.0
220
0.0
230
1.0
 70
    11
 71
     3
 72
   119
 73
   115
 74
     0
 42
0.0000000001
 43
0.0000000001
 12
1.0
 22
0.0
 32
0.0
 13
1.0
 23
0.0
 33
0.0
 40
0.0
 40
0.0
 40
0.0
 40
0.0
 40
1.0
 40
1.0
 40
1.0
 40
2.0
 40
2.0
 40
2.0
 40
3.0
 40
3.0
 40
3.0
 40
4.0
 40
4.0
 40
4.0
 40
5.0
 40
5.0
 40
5.0
 40
6.0
 40
6.0
 40
6.0
 40
7.0
 40
7.0
 40
7.0
 40
8.0
 40
8.0
 40
8.0
 40
9.0
 40
9.0
 40
9.0
 40
10.0
 40
10.0
 40
10.0
 40
11.0
 40
11.0
 40
11.0
 40
12.0
 40
12.0
 40
12.0
 40
13.0
 40
13.0
 40
13.0
 40
14.0
 40
14.0
 40
14.0
 40
15.0
 40
15.0
 40
15.0
 40
16.0
 40
16.0
 40
16.0
 40
17.0
 40
17.0
 40
17.0
 40
18.0
 40
18.0
 40
18.0
 40
19.0
 40
19.0
 40
19.0
 40
20.0
 40
20.0
 40
20.0
 40
21.0
 40
21.0
 40
21.0
 40
22.0
 40
22.0
 40
22.0
 40
23.0
 40
23.0
 40
23.0
 40
24.0
 40
24.0
 40
24.0
 40
25.0
 40
25.0
 40
25.0
 40
26.0
 40
26.0
 40
26.0
 40
27.0
 40
27.0
 40
27.0
 40
28.0
 40
28.0
 40
28.0
 40
29.0
 40
29.0
 40
29.0
 40
30.0
 40
30.0
 40
30.0
 40
31.0
 40
31.0
 40
31.0
 40
32.0
 40
32.0
 40
32.0
 40
33.0
 40
33.0
 40
33.0
 40
34.0
 40
34.0
 40
34.0
 40
35.0
 40
35.0
 40
35.0
 40
36.0
 40
36.0
 40
36.0
 40
37.0
 40
37.0
 40
37.0
 40
38.0
 40
38.0
 40
38.0
 40
38.0
 10
5.805002915550454
 20
-4.497006264366746
 30
0.0
 10
5.805002915550454
 20
-4.570445120703551
 30
0.0
 10
5.773129000619898
 20
-4.613908933637579
 30
0.0
 10
5.709381170758787
 20
-4.627404484852857
 30
0.0
 10
5.645633340897676
 20
-4.640988197960496
 30
0.0
 10
5.571197577008787
 20
-4.651581188411885
 30
0.0
 10
5.486263766244898
 20
-4.659278399783412
 30
0.0
 10
5.038021578744898
 20
-6.092750079470912
 30
0.0
 10
4.64012661346712
 20
-7.358069903689662
 30
0.0
 10
4.292388983258787
 20
-8.455312470963968
 30
0.0
 10
4.215050658606009
 20
-8.698727455772996
 30
0.0
 10
4.128136596106009
 20
-8.820431557335496
 30
0.0
 10
4.031592542286565
 20
-8.820431557335496
 30
0.0
 10
3.950456474578232
 20
-8.820431557335496
 30
0.0
 10
3.873118149925454
 20
-8.72190725177994
 30
0.0
 10
3.799767455481009
 20
-8.524858640668828
 30
0.0
 10
3.467437811383787
 20
-7.559011201432718
 30
0.0
 10
3.226036986731009
 20
-6.878943927127162
 30
0.0
 10
3.075347967633787
 20
-6.484853486588968
 30
0.0
 10
3.009606322668509
 20
-6.600759248307718
 30
0.0
 10
2.743011541852537
 20
-7.282725394141051
 30
0.0
 10
2.275570406869898
 20
-8.530656980512578
 30
0.0
 10
2.202131550533093
 20
-8.723901066884107
 30
0.0
 10
2.124888169456704
 20
-8.820431557335496
 30
0.0
 10
2.043752101748371
 20
-8.820431557335496
 30
0.0
 10
1.974205932043509
 20
-8.820431557335496
 30
0.0
 10
1.920054185081704
 20
-8.785655081641051
 30
0.0
 10
1.881479966331704
 20
-8.71610891193619
 30
0.0
 10
1.842810804005315
 20
-8.646562742231328
 30
0.0
 10
1.678633015376843
 20
-8.206105927995218
 30
0.0
 10
1.388865220237954
 20
-7.394745250911885
 30
0.0
 10
0.9020420323039262
 20
-5.969052162804246
 30
0.0
 10
0.5774977614705928
 20
-5.053368840321607
 30
0.0
 10
0.4152256260539262
 20
-4.64768850177994
 30
0.0
 10
0.4152256260539262
 20
-4.64768850177994
 30
0.0
 10
0.3224928786580929
 20
-4.624501924088968
 30
0.0
 10
0.3224928786580929
 20
-4.624501924088968
 30
0.0
 10
0.2374641243178151
 20
-4.605214814713968
 30
0.0
 10
0.1949972189358707
 20
-4.553056882856329
 30
0.0
 10
0.1949972189358707
 20
-4.468028128516051
 30
0.0
 10
0.1949972189358707
 20
-4.383087536068135
 30
0.0
 10
0.2509596755330929
 20
-4.340525687109801
 30
0.0
 10
0.3630609125122595
 20
-4.340525687109801
 30
0.0
 10
0.3630609125122595
 20
-4.340525687109801
 30
0.0
 10
1.313520710689343
 20
-4.352115585113274
 30
0.0
 10
1.313520710689343
 20
-4.352115585113274
 30
0.0
 10
1.471900159474065
 20
-4.352115585113274
 30
0.0
 10
1.551137355654621
 20
-4.388879094227857
 30
0.0
 10
1.551137355654621
 20
-4.462229788672301
 30
0.0
 10
1.551137355654621
 20
-4.524078747005635
 30
0.0
 10
1.533749117807398
 20
-4.566552434071607
 30
0.0
 10
1.498979423796982
 20
-4.589732230078551
 30
0.0
 10
1.464202948102537
 20
-4.612912026085496
 30
0.0
 10
1.415849540984482
 20
-4.636098603776468
 30
0.0
 10
1.354088744543509
 20
-4.659278399783412
 30
0.0
 10
1.377268540550454
 20
-4.833140433203551
 30
0.0
 10
1.709516804439343
 20
-5.756615910634107
 30
0.0
 10
2.350908134734482
 20
-7.429514944922301
 30
0.0
 10
2.594323119543509
 20
-6.834571368533412
 30
0.0
 10
2.785573390810871
 20
-6.359344860286885
 30
0.0
 10
2.924665730220593
 20
-6.00382863849869
 30
0.0
 10
2.785573390810871
 20
-5.590444306901468
 30
0.0
 10
2.632897338293509
 20
-5.13450490802994
 30
0.0
 10
2.466820678137259
 20
-4.636098603776468
 30
0.0
 10
2.401079033171982
 20
-4.624501924088968
 30
0.0
 10
2.342220797494898
 20
-4.611013154557718
 30
0.0
 10
2.290056083953232
 20
-4.595523788238274
 30
0.0
 10
2.237898152095593
 20
-4.580129365495218
 30
0.0
 10
2.211822577008787
 20
-4.537574298220912
 30
0.0
 10
2.211822577008787
 20
-4.468028128516051
 30
0.0
 10
2.211822577008787
 20
-4.386892060807718
 30
0.0
 10
2.273576591765732
 20
-4.346324026953551
 30
0.0
 10
2.397274508432398
 20
-4.346324026953551
 30
0.0
 10
2.745005356956704
 20
-4.346324026953551
 30
0.0
 10
3.127512681175454
 20
-4.350216713585496
 30
0.0
 10
3.544776136036565
 20
-4.357913924957024
 30
0.0
 10
3.591135728050454
 20
-4.357913924957024
 30
0.0
 10
3.629709946800454
 20
-4.373396509592441
 30
0.0
 10
3.660688679439343
 20
-4.404273516970912
 30
0.0
 10
3.691558905133787
 20
-4.435245467925774
 30
0.0
 10
3.707048271453232
 20
-4.468028128516051
 30
0.0
 10
3.707048271453232
 20
-4.502797822526468
 30
0.0
 10
3.707048271453232
 20
-4.553056882856329
 30
0.0
 10
3.688683471106009
 20
-4.589732230078551
 30
0.0
 10
3.652008123883787
 20
-4.612912026085496
 30
0.0
 10
3.615224269717121
 20
-4.636098603776468
 30
0.0
 10
3.546675007564343
 20
-4.655473875043829
 30
0.0
 10
3.446251830481009
 20
-4.670868297786885
 30
0.0
 10
3.569868366939343
 20
-5.084340791276468
 30
0.0
 10
3.717654825272676
 20
-5.524797605512579
 30
0.0
 10
3.889611205481009
 20
-5.992238740495218
 30
0.0
 10
4.061486205481009
 20
-6.459768037370218
 30
0.0
 10
4.207373792286565
 20
-6.857757946224385
 30
0.0
 10
4.327165458953232
 20
-7.186106741797301
 30
0.0
 10
4.686486205481009
 20
-6.142920977908412
 30
0.0
 10
4.951080389508787
 20
-5.298770858550774
 30
0.0
 10
5.121137898189343
 20
-4.653480059939662
 30
0.0
 10
5.009050224578232
 20
-4.638085637196607
 30
0.0
 10
4.931793280133787
 20
-4.619707273481329
 30
0.0
 10
4.889339938119898
 20
-4.598426349002162
 30
0.0
 10
4.846778089161565
 20
-4.577233586415357
 30
0.0
 10
4.825592108258787
 20
-4.541466984852857
 30
0.0
 10
4.825592108258787
 20
-4.491207924522996
 30
0.0
 10
4.825592108258787
 20
-4.402374645443135
 30
0.0
 10
4.867041761036565
 20
-4.354109400217441
 30
0.0
 10
4.95018520721712
 20
-4.346324026953551
 30
0.0
 10
5.033220146453232
 20
-4.338626815582024
 30
0.0
 10
5.132748141244898
 20
-4.334727347266051
 30
0.0
 10
5.248660684647676
 20
-4.334727347266051
 30
0.0
 10
5.468875528397676
 20
-4.334727347266051
 30
0.0
 10
5.616661986731009
 20
-4.341522594661885
 30
0.0
 10
5.691992932911565
 20
-4.355018145877162
 30
0.0
 10
5.767351005828232
 20
-4.368595077300774
 30
0.0
 10
5.805002915550454
 20
-4.415870196658412
 30
0.0
 10
5.805002915550454
 20
-4.497006264366746
 30
0.0
  0
HATCH
  5
46
330
41
100
AcDbEntity
  8
Layer 1
 62
   250
420
  2301728
100
AcDbHatch
 10
0.0
 20
0.0
 30
0.0
210
0.0
220
0.0
230
1.0
  2
SOLID
 70
     1
 71
     0
 91
        1
 92
        1
 93
        1
 72
     4
 94
        3
 73
     0
 74
     1
 95
      119
 96
      115
 40
0.0
 40
0.0
 40
0.0
 40
0.0
 40
1.0
 40
1.0
 40
1.0
 40
2.0
 40
2.0
 40
2.0
 40
3.0
 40
3.0
 40
3.0
 40
4.0
 40
4.0
 40
4.0
 40
5.0
 40
5.0
 40
5.0
 40
6.0
 40
6.0
 40
6.0
 40
7.0
 40
7.0
 40
7.0
 40
8.0
 40
8.0
 40
8.0
 40
9.0
 40
9.0
 40
9.0
 40
10.0
 40
10.0
 40
10.0
 40
11.0
 40
11.0
 40
11.0
 40
12.0
 40
12.0
 40
12.0
 40
13.0
 40
13.0
 40
13.0
 40
14.0
 40
14.0
 40
14.0
 40
15.0
 40
15.0
 40
15.0
 40
16.0
 40
16.0
 40
16.0
 40
17.0
 40
17.0
 40
17.0
 40
18.0
 40
18.0
 40
18.0
 40
19.0
 40
19.0
 40
19.0
 40
20.0
 40
20.0
 40
20.0
 40
21.0
 40
21.0
 40
21.0
 40
22.0
 40
22.0
 40
22.0
 40
23.0
 40
23.0
 40
23.0
 40
24.0
 40
24.0
 40
24.0
 40
25.0
 40
25.0
 40
25.0
 40
26.0
 40
26.0
 40
26.0
 40
27.0
 40
27.0
 40
27.0
 40
28.0
 40
28.0
 40
28.0
 40
29.0
 40
29.0
 40
29.0
 40
30.0
 40
30.0
 40
30.0
 40
31.0
 40
31.0
 40
31.0
 40
32.0
 40
32.0
 40
32.0
 40
33.0
 40
33.0
 40
33.0
 40
34.0
 40
34.0
 40
34.0
 40
35.0
 40
35.0
 40
35.0
 40
36.0
 40
36.0
 40
36.0
 40
37.0
 40
37.0
 40
37.0
 40
38.0
 40
38.0
 40
38.0
 40
38.0
 10
5.805002915550454
 20
-4.497006264366746
 10
5.805002915550454
 20
-4.570445120703551
 10
5.773129000619898
 20
-4.613908933637579
 10
5.709381170758787
 20
-4.627404484852857
 10
5.645633340897676
 20
-4.640988197960496
 10
5.571197577008787
 20
-4.651581188411885
 10
5.486263766244898
 20
-4.659278399783412
 10
5.038021578744898
 20
-6.092750079470912
 10
4.64012661346712
 20
-7.358069903689662
 10
4.292388983258787
 20
-8.455312470963968
 10
4.215050658606009
 20
-8.698727455772996
 10
4.128136596106009
 20
-8.820431557335496
 10
4.031592542286565
 20
-8.820431557335496
 10
3.950456474578232
 20
-8.820431557335496
 10
3.873118149925454
 20
-8.72190725177994
 10
3.799767455481009
 20
-8.524858640668828
 10
3.467437811383787
 20
-7.559011201432718
 10
3.226036986731009
 20
-6.878943927127162
 10
3.075347967633787
 20
-6.484853486588968
 10
3.009606322668509
 20
-6.600759248307718
 10
2.743011541852537
 20
-7.282725394141051
 10
2.275570406869898
 20
-8.530656980512578
 10
2.202131550533093
 20
-8.723901066884107
 10
2.124888169456704
 20
-8.820431557335496
 10
2.043752101748371
 20
-8.820431557335496
 10
1.974205932043509
 20
-8.820431557335496
 10
1.920054185081704
 20
-8.785655081641051
 10
1.881479966331704
 20
-8.71610891193619
 10
1.842810804005315
 20
-8.646562742231328
 10
1.678633015376843
 20
-8.206105927995218
 10
1.388865220237954
 20
-7.394745250911885
 10
0.9020420323039262
 20
-5.969052162804246
 10
0.5774977614705928
 20
-5.053368840321607
 10
0.4152256260539262
 20
-4.64768850177994
 10
0.4152256260539262
 20
-4.64768850177994
 10
0.3224928786580929
 20
-4.624501924088968
 10
0.3224928786580929
 20
-4.624501924088968
 10
0.2374641243178151
 20
-4.605214814713968
 10
0.1949972189358707
 20
-4.553056882856329
 10
0.1949972189358707
 20
-4.468028128516051
 10
0.1949972189358707
 20
-4.383087536068135
 10
0.2509596755330929
 20
-4.340525687109801
 10
0.3630609125122595
 20
-4.340525687109801
 10
0.3630609125122595
 20
-4.340525687109801
 10
1.313520710689343
 20
-4.352115585113274
 10
1.313520710689343
 20
-4.352115585113274
 10
1.471900159474065
 20
-4.352115585113274
 10
1.551137355654621
 20
-4.388879094227857
 10
1.551137355654621
 20
-4.462229788672301
 10
1.551137355654621
 20
-4.524078747005635
 10
1.533749117807398
 20
-4.566552434071607
 10
1.498979423796982
 20
-4.589732230078551
 10
1.464202948102537
 20
-4.612912026085496
 10
1.415849540984482
 20
-4.636098603776468
 10
1.354088744543509
 20
-4.659278399783412
 10
1.377268540550454
 20
-4.833140433203551
 10
1.709516804439343
 20
-5.756615910634107
 10
2.350908134734482
 20
-7.429514944922301
 10
2.594323119543509
 20
-6.834571368533412
 10
2.785573390810871
 20
-6.359344860286885
 10
2.924665730220593
 20
-6.00382863849869
 10
2.785573390810871
 20
-5.590444306901468
 10
2.632897338293509
 20
-5.13450490802994
 10
2.466820678137259
 20
-4.636098603776468
 10
2.401079033171982
 20
-4.624501924088968
 10
2.342220797494898
 20
-4.611013154557718
 10
2.290056083953232
 20
-4.595523788238274
 10
2.237898152095593
 20
-4.580129365495218
 10
2.211822577008787
 20
-4.537574298220912
 10
2.211822577008787
 20
-4.468028128516051
 10
2.211822577008787
 20
-4.386892060807718
 10
2.273576591765732
 20
-4.346324026953551
 10
2.397274508432398
 20
-4.346324026953551
 10
2.745005356956704
 20
-4.346324026953551
 10
3.127512681175454
 20
-4.350216713585496
 10
3.544776136036565
 20
-4.357913924957024
 10
3.591135728050454
 20
-4.357913924957024
 10
3.629709946800454
 20
-4.373396509592441
 10
3.660688679439343
 20
-4.404273516970912
 10
3.691558905133787
 20
-4.435245467925774
 10
3.707048271453232
 20
-4.468028128516051
 10
3.707048271453232
 20
-4.502797822526468
 10
3.707048271453232
 20
-4.553056882856329
 10
3.688683471106009
 20
-4.589732230078551
 10
3.652008123883787
 20
-4.612912026085496
 10
3.615224269717121
 20
-4.636098603776468
 10
3.546675007564343
 20
-4.655473875043829
 10
3.446251830481009
 20
-4.670868297786885
 10
3.569868366939343
 20
-5.084340791276468
 10
3.717654825272676
 20
-5.524797605512579
 10
3.889611205481009
 20
-5.992238740495218
 10
4.061486205481009
 20
-6.459768037370218
 10
4.207373792286565
 20
-6.857757946224385
 10
4.327165458953232
 20
-7.186106741797301
 10
4.686486205481009
 20
-6.142920977908412
 10
4.951080389508787
 20
-5.298770858550774
 10
5.121137898189343
 20
-4.653480059939662
 10
5.009050224578232
 20
-4.638085637196607
 10
4.931793280133787
 20
-4.619707273481329
 10
4.889339938119898
 20
-4.598426349002162
 10
4.846778089161565
 20
-4.577233586415357
 10
4.825592108258787
 20
-4.541466984852857
 10
4.825592108258787
 20
-4.491207924522996
 10
4.825592108258787
 20
-4.402374645443135
 10
4.867041761036565
 20
-4.354109400217441
 10
4.95018520721712
 20
-4.346324026953551
 10
5.033220146453232
 20
-4.338626815582024
 10
5.132748141244898
 20
-4.334727347266051
 10
5.248660684647676
 20
-4.334727347266051
 10
5.468875528397676
 20
-4.334727347266051
 10
5.616661986731009
 20
-4.341522594661885
 10
5.691992932911565
 20
-4.355018145877162
 10
5.767351005828232
 20
-4.368595077300774
 10
5.805002915550454
 20
-4.415870196658412
 10
5.805002915550454
 20
-4.497006264366746
 97
        0
 97
        0
 75
     2
 76
     1
 98
        0
  0
SPLINE
  5
47
330
41
100
AcDbEntity
  8
Layer 1
370
     0
100
AcDbSpline
210
0.0
220
0.0
230
1.0
 70
    11
 71
     3
 72
   122
 73
   118
 74
     0
 42
0.0000000001
 43
0.0000000001
 12
1.0
 22
0.0
 32
0.0
 13
1.0
 23
0.0
 33
0.0
 40
0.0
 40
0.0
 40
0.0
 40
0.0
 40
1.0
 40
1.0
 40
1.0
 40
2.0
 40
2.0
 40
2.0
 40
3.0
 40
3.0
 40
3.0
 40
4.0
 40
4.0
 40
4.0
 40
5.0
 40
5.0
 40
5.0
 40
6.0
 40
6.0
 40
6.0
 40
7.0
 40
7.0
 40
7.0
 40
8.0
 40
8.0
 40
8.0
 40
9.0
 40
9.0
 40
9.0
 40
10.0
 40
10.0
 40
10.0
 40
11.0
 40
11.0
 40
11.0
 40
12.0
 40
12.0
 40
12.0
 40
13.0
 40
13.0
 40
13.0
 40
14.0
 40
14.0
 40
14.0
 40
15.0
 40
15.0
 40
15.0
 40
16.0
 40
16.0
 40
16.0
 40
17.0
 40
17.0
 40
17.0
 40
18.0
 40
18.0
 40
18.0
 40
19.0
 40
19.0
 40
19.0
 40
20.0
 40
20.0
 40
20.0
 40
21.0
 40
21.0
 40
21.0
 40
22.0
 40
22.0
 40
22.0
 40
23.0
 40
23.0
 40
23.0
 40
24.0
 40
24.0
 40
24.0
 40
25.0
 40
25.0
 40
25.0
 40
26.0
 40
26.0
 40
26.0
 40
27.0
 40
27.0
 40
27.0
 40
28.0
 40
28.0
 40
28.0
 40
29.0
 40
29.0
 40
29.0
 40
30.0
 40
30.0
 40
30.0
 40
31.0
 40
31.0
 40
31.0
 40
32.0
 40
32.0
 40
32.0
 40
33.0
 40
33.0
 40
33.0
 40
34.0
 40
34.0
 40
34.0
 40
35.0
 40
35.0
 40
35.0
 40
36.0
 40
36.0
 40
36.0
 40
37.0
 40
37.0
 40
37.0
 40
38.0
 40
38.0
 40
38.0
 40
39.0
 40
39.0
 40
39.0
 40
39.0
 10
3.756337550967121
 20
-10.69760169622438
 30
0.0
 10
3.756337550967121
 20
-10.60876841714452
 30
0.0
 10
3.775624660342121
 20
-10.52184079127647
 30
0.0
 10
3.814280259300454
 20
-10.43680525525216
 30
0.0
 10
3.211551309647676
 20
-10.43680525525216
 30
0.0
 10
2.813568182477537
 20
-10.44260359509591
 30
0.0
 10
2.620419039682398
 20
-10.45419349309938
 30
0.0
 10
2.624223564421982
 20
-11.56692542669313
 30
0.0
 10
2.632008937685871
 20
-12.24889157252647
 30
0.0
 10
2.643598835689343
 20
-12.499996987023
 30
0.0
 10
2.643598835689343
 20
-12.499996987023
 30
0.0
 10
3.298492498883787
 20
-12.48840708901952
 30
0.0
 10
3.298492498883787
 20
-12.48840708901952
 30
0.0
 10
3.313873358258787
 20
-12.39957380993966
 30
0.0
 10
3.332265285342121
 20
-12.32422930039105
 30
0.0
 10
3.353559773189343
 20
-12.26238034205772
 30
0.0
 10
3.374745754092121
 20
-12.20062632730077
 30
0.0
 10
3.416303913814343
 20
-12.16965437634591
 30
0.0
 10
3.478152872147676
 20
-12.16965437634591
 30
0.0
 10
3.536095580481009
 20
-12.16965437634591
 30
0.0
 10
3.576677177703232
 20
-12.20252519882855
 30
0.0
 10
3.599843410342121
 20
-12.26817868190147
 30
0.0
 10
3.615251396453232
 20
-12.3107405308598
 30
0.0
 10
3.624935641244898
 20
-12.53286780950563
 30
0.0
 10
3.628841891244898
 20
-12.93465546141536
 30
0.0
 10
3.628841891244898
 20
-13.0699432760855
 30
0.0
 10
3.590159165550454
 20
-13.13750241237022
 30
0.0
 10
3.512929347842121
 20
-13.13750241237022
 30
0.0
 10
3.408599920758787
 20
-13.13750241237022
 30
0.0
 10
3.348649833953232
 20
-13.0911360386723
 30
0.0
 10
3.333268974578232
 20
-12.9984100729605
 30
0.0
 10
3.333268974578232
 20
-12.9984100729605
 30
0.0
 10
3.304297620411565
 20
-12.81874969969661
 30
0.0
 10
3.304297620411565
 20
-12.81874969969661
 30
0.0
 10
3.196061943328232
 20
-12.81105248832508
 30
0.0
 10
3.091759642981009
 20
-12.80715980169313
 30
0.0
 10
2.991329684213648
 20
-12.80715980169313
 30
0.0
 10
2.867631767546982
 20
-12.80715980169313
 30
0.0
 10
2.751726005828232
 20
-12.81295135985286
 30
0.0
 10
2.643598835689343
 20
-12.82454125785633
 30
0.0
 10
2.643598835689343
 20
-12.82454125785633
 30
0.0
 10
2.620419039682398
 20
-14.29080237981819
 30
0.0
 10
2.620419039682398
 20
-14.29080237981819
 30
0.0
 10
2.620419039682398
 20
-14.29080237981819
 30
0.0
 10
3.959164156869898
 20
-14.29080237981819
 30
0.0
 10
3.959164156869898
 20
-14.29080237981819
 30
0.0
 10
4.051910467633787
 20
-14.29080237981819
 30
0.0
 10
4.117557169022676
 20
-14.24733178520013
 30
0.0
 10
4.156212767981009
 20
-14.16040415933207
 30
0.0
 10
4.194786986731009
 20
-14.07346975177999
 30
0.0
 10
4.21898403534212
 20
-13.97304657469666
 30
0.0
 10
4.228668280133787
 20
-13.85903968450563
 30
0.0
 10
4.23827114471712
 20
-13.74512095620702
 30
0.0
 10
4.287533297494898
 20
-13.68807343016536
 30
0.0
 10
4.37645473846712
 20
-13.68807343016536
 30
0.0
 10
4.461388549231009
 20
-13.68807343016536
 30
0.0
 10
4.503950398189343
 20
-13.720944252648
 30
0.0
 10
4.503950398189343
 20
-13.78659095403688
 30
0.0
 10
4.503950398189343
 20
-14.13432180256124
 30
0.0
 10
4.48167934784212
 20
-14.36233558294319
 30
0.0
 10
4.437300007564343
 20
-14.47046275308207
 30
0.0
 10
4.392839287078232
 20
-14.5786713034293
 30
0.0
 10
4.299116413814343
 20
-14.63273488849874
 30
0.0
 10
4.156212767981009
 20
-14.63273488849874
 30
0.0
 10
4.156212767981009
 20
-14.63273488849874
 30
0.0
 10
2.405988972408093
 20
-14.63273488849874
 30
0.0
 10
2.405988972408093
 20
-14.63273488849874
 30
0.0
 10
2.344140014074759
 20
-14.63273488849874
 30
0.0
 10
2.197350463293509
 20
-14.63074107339457
 30
0.0
 10
1.965532158171982
 20
-14.62693654865499
 30
0.0
 10
1.733713853050454
 20
-14.62304386202305
 30
0.0
 10
1.578142021453232
 20
-14.6172455221793
 30
0.0
 10
1.498992987165037
 20
-14.60954831080777
 30
0.0
 10
1.419755790984482
 20
-14.60185109943624
 30
0.0
 10
1.380184664682398
 20
-14.56318871879388
 30
0.0
 10
1.380184664682398
 20
-14.49364254908902
 30
0.0
 10
1.380184664682398
 20
-14.40091658337721
 30
0.0
 10
1.414961140376843
 20
-14.34296031167582
 30
0.0
 10
1.484507310081704
 20
-14.31978051566888
 30
0.0
 10
1.554053479786565
 20
-14.29659393797791
 30
0.0
 10
1.633195732390732
 20
-14.28119951523485
 30
0.0
 10
1.722117173362954
 20
-14.27341414197096
 30
0.0
 10
1.733713853050454
 20
-14.1845808628911
 30
0.0
 10
1.745303751053926
 20
-13.56636254691883
 30
0.0
 10
1.756893649057398
 20
-12.41886091931466
 30
0.0
 10
1.756893649057398
 20
-11.34090546141536
 30
0.0
 10
1.749108275793509
 20
-10.68411292669313
 30
0.0
 10
1.733713853050454
 20
-10.44840193493966
 30
0.0
 10
1.733713853050454
 20
-10.44840193493966
 30
0.0
 10
1.635189547494898
 20
-10.44840193493966
 30
0.0
 10
1.635189547494898
 20
-10.44840193493966
 30
0.0
 10
1.472917412078232
 20
-10.44840193493966
 30
0.0
 10
1.391774562685871
 20
-10.40592824787369
 30
0.0
 10
1.391774562685871
 20
-10.32089949353341
 30
0.0
 10
1.391774562685871
 20
-10.21277910507855
 30
0.0
 10
1.463226385602537
 20
-10.15862735811675
 30
0.0
 10
1.606211411644204
 20
-10.15862735811675
 30
0.0
 10
2.104624497581704
 20
-10.15862735811675
 30
0.0
 10
2.528595037946287
 20
-10.15572479735286
 30
0.0
 10
2.878319701574759
 20
-10.14993323919313
 30
0.0
 10
3.227935858258787
 20
-10.14413489934938
 30
0.0
 10
3.553483818328232
 20
-10.13934024874175
 30
0.0
 10
3.854861856522676
 20
-10.13544078042577
 30
0.0
 10
4.364844495411565
 20
-10.13544078042577
 30
0.0
 10
4.61986294159212
 20
-10.31129662895008
 30
0.0
 10
4.61986294159212
 20
-10.66283200221397
 30
0.0
 10
4.61986294159212
 20
-10.77104055256119
 30
0.0
 10
4.581180215897676
 20
-10.87147051132855
 30
0.0
 10
4.503950398189343
 20
-10.96419647704036
 30
0.0
 10
4.426612073536565
 20
-11.05692244275216
 30
0.0
 10
4.314605780133787
 20
-11.10328881645008
 30
0.0
 10
4.167823011036565
 20
-11.10328881645008
 30
0.0
 10
4.040300224578232
 20
-11.10328881645008
 30
0.0
 10
3.939795667286565
 20
-11.06661346922786
 30
0.0
 10
3.866444972842121
 20
-10.99317461289105
 30
0.0
 10
3.793012898189343
 20
-10.91982391844661
 30
0.0
 10
3.756337550967121
 20
-10.82129961289105
 30
0.0
 10
3.756337550967121
 20
-10.69760169622438
 30
0.0
  0
HATCH
  5
48
330
41
100
AcDbEntity
  8
Layer 1
 62
   250
420
  2301728
100
AcDbHatch
 10
0.0
 20
0.0
 30
0.0
210
0.0
220
0.0
230
1.0
  2
SOLID
 70
     1
 71
     0
 91
        1
 92
        1
 93
        1
 72
     4
 94
        3
 73
     0
 74
     1
 95
      122
 96
      118
 40
0.0
 40
0.0
 40
0.0
 40
0.0
 40
1.0
 40
1.0
 40
1.0
 40
2.0
 40
2.0
 40
2.0
 40
3.0
 40
3.0
 40
3.0
 40
4.0
 40
4.0
 40
4.0
 40
5.0
 40
5.0
 40
5.0
 40
6.0
 40
6.0
 40
6.0
 40
7.0
 40
7.0
 40
7.0
 40
8.0
 40
8.0
 40
8.0
 40
9.0
 40
9.0
 40
9.0
 40
10.0
 40
10.0
 40
10.0
 40
11.0
 40
11.0
 40
11.0
 40
12.0
 40
12.0
 40
12.0
 40
13.0
 40
13.0
 40
13.0
 40
14.0
 40
14.0
 40
14.0
 40
15.0
 40
15.0
 40
15.0
 40
16.0
 40
16.0
 40
16.0
 40
17.0
 40
17.0
 40
17.0
 40
18.0
 40
18.0
 40
18.0
 40
19.0
 40
19.0
 40
19.0
 40
20.0
 40
20.0
 40
20.0
 40
21.0
 40
21.0
 40
21.0
 40
22.0
 40
22.0
 40
22.0
 40
23.0
 40
23.0
 40
23.0
 40
24.0
 40
24.0
 40
24.0
 40
25.0
 40
25.0
 40
25.0
 40
26.0
 40
26.0
 40
26.0
 40
27.0
 40
27.0
 40
27.0
 40
28.0
 40
28.0
 40
28.0
 40
29.0
 40
29.0
 40
29.0
 40
30.0
 40
30.0
 40
30.0
 40
31.0
 40
31.0
 40
31.0
 40
32.0
 40
32.0
 40
32.0
 40
33.0
 40
33.0
 40
33.0
 40
34.0
 40
34.0
 40
34.0
 40
35.0
 40
35.0
 40
35.0
 40
36.0
 40
36.0
 40
36.0
 40
37.0
 40
37.0
 40
37.0
 40
38.0
 40
38.0
 40
38.0
 40
39.0
 40
39.0
 40
39.0
 40
39.0
 10
3.756337550967121
 20
-10.69760169622438
 10
3.756337550967121
 20
-10.60876841714452
 10
3.775624660342121
 20
-10.52184079127647
 10
3.814280259300454
 20
-10.43680525525216
 10
3.211551309647676
 20
-10.43680525525216
 10
2.813568182477537
 20
-10.44260359509591
 10
2.620419039682398
 20
-10.45419349309938
 10
2.624223564421982
 20
-11.56692542669313
 10
2.632008937685871
 20
-12.24889157252647
 10
2.643598835689343
 20
-12.499996987023
 10
2.643598835689343
 20
-12.499996987023
 10
3.298492498883787
 20
-12.48840708901952
 10
3.298492498883787
 20
-12.48840708901952
 10
3.313873358258787
 20
-12.39957380993966
 10
3.332265285342121
 20
-12.32422930039105
 10
3.353559773189343
 20
-12.26238034205772
 10
3.374745754092121
 20
-12.20062632730077
 10
3.416303913814343
 20
-12.16965437634591
 10
3.478152872147676
 20
-12.16965437634591
 10
3.536095580481009
 20
-12.16965437634591
 10
3.576677177703232
 20
-12.20252519882855
 10
3.599843410342121
 20
-12.26817868190147
 10
3.615251396453232
 20
-12.3107405308598
 10
3.624935641244898
 20
-12.53286780950563
 10
3.628841891244898
 20
-12.93465546141536
 10
3.628841891244898
 20
-13.0699432760855
 10
3.590159165550454
 20
-13.13750241237022
 10
3.512929347842121
 20
-13.13750241237022
 10
3.408599920758787
 20
-13.13750241237022
 10
3.348649833953232
 20
-13.0911360386723
 10
3.333268974578232
 20
-12.9984100729605
 10
3.333268974578232
 20
-12.9984100729605
 10
3.304297620411565
 20
-12.81874969969661
 10
3.304297620411565
 20
-12.81874969969661
 10
3.196061943328232
 20
-12.81105248832508
 10
3.091759642981009
 20
-12.80715980169313
 10
2.991329684213648
 20
-12.80715980169313
 10
2.867631767546982
 20
-12.80715980169313
 10
2.751726005828232
 20
-12.81295135985286
 10
2.643598835689343
 20
-12.82454125785633
 10
2.643598835689343
 20
-12.82454125785633
 10
2.620419039682398
 20
-14.29080237981819
 10
2.620419039682398
 20
-14.29080237981819
 10
2.620419039682398
 20
-14.29080237981819
 10
3.959164156869898
 20
-14.29080237981819
 10
3.959164156869898
 20
-14.29080237981819
 10
4.051910467633787
 20
-14.29080237981819
 10
4.117557169022676
 20
-14.24733178520013
 10
4.156212767981009
 20
-14.16040415933207
 10
4.194786986731009
 20
-14.07346975177999
 10
4.21898403534212
 20
-13.97304657469666
 10
4.228668280133787
 20
-13.85903968450563
 10
4.23827114471712
 20
-13.74512095620702
 10
4.287533297494898
 20
-13.68807343016536
 10
4.37645473846712
 20
-13.68807343016536
 10
4.461388549231009
 20
-13.68807343016536
 10
4.503950398189343
 20
-13.720944252648
 10
4.503950398189343
 20
-13.78659095403688
 10
4.503950398189343
 20
-14.13432180256124
 10
4.48167934784212
 20
-14.36233558294319
 10
4.437300007564343
 20
-14.47046275308207
 10
4.392839287078232
 20
-14.5786713034293
 10
4.299116413814343
 20
-14.63273488849874
 10
4.156212767981009
 20
-14.63273488849874
 10
4.156212767981009
 20
-14.63273488849874
 10
2.405988972408093
 20
-14.63273488849874
 10
2.405988972408093
 20
-14.63273488849874
 10
2.344140014074759
 20
-14.63273488849874
 10
2.197350463293509
 20
-14.63074107339457
 10
1.965532158171982
 20
-14.62693654865499
 10
1.733713853050454
 20
-14.62304386202305
 10
1.578142021453232
 20
-14.6172455221793
 10
1.498992987165037
 20
-14.60954831080777
 10
1.419755790984482
 20
-14.60185109943624
 10
1.380184664682398
 20
-14.56318871879388
 10
1.380184664682398
 20
-14.49364254908902
 10
1.380184664682398
 20
-14.40091658337721
 10
1.414961140376843
 20
-14.34296031167582
 10
1.484507310081704
 20
-14.31978051566888
 10
1.554053479786565
 20
-14.29659393797791
 10
1.633195732390732
 20
-14.28119951523485
 10
1.722117173362954
 20
-14.27341414197096
 10
1.733713853050454
 20
-14.1845808628911
 10
1.745303751053926
 20
-13.56636254691883
 10
1.756893649057398
 20
-12.41886091931466
 10
1.756893649057398
 20
-11.34090546141536
 10
1.749108275793509
 20
-10.68411292669313
 10
1.733713853050454
 20
-10.44840193493966
 10
1.733713853050454
 20
-10.44840193493966
 10
1.635189547494898
 20
-10.44840193493966
 10
1.635189547494898
 20
-10.44840193493966
 10
1.472917412078232
 20
-10.44840193493966
 10
1.391774562685871
 20
-10.40592824787369
 10
1.391774562685871
 20
-10.32089949353341
 10
1.391774562685871
 20
-10.21277910507855
 10
1.463226385602537
 20
-10.15862735811675
 10
1.606211411644204
 20
-10.15862735811675
 10
2.104624497581704
 20
-10.15862735811675
 10
2.528595037946287
 20
-10.15572479735286
 10
2.878319701574759
 20
-10.14993323919313
 10
3.227935858258787
 20
-10.14413489934938
 10
3.553483818328232
 20
-10.13934024874175
 10
3.854861856522676
 20
-10.13544078042577
 10
4.364844495411565
 20
-10.13544078042577
 10
4.61986294159212
 20
-10.31129662895008
 10
4.61986294159212
 20
-10.66283200221397
 10
4.61986294159212
 20
-10.77104055256119
 10
4.581180215897676
 20
-10.87147051132855
 10
4.503950398189343
 20
-10.96419647704036
 10
4.426612073536565
 20
-11.05692244275216
 10
4.314605780133787
 20
-11.10328881645008
 10
4.167823011036565
 20
-11.10328881645008
 10
4.040300224578232
 20
-11.10328881645008
 10
3.939795667286565
 20
-11.06661346922786
 10
3.866444972842121
 20
-10.99317461289105
 10
3.793012898189343
 20
-10.91982391844661
 10
3.756337550967121
 20
-10.82129961289105
 10
3.756337550967121
 20
-10.69760169622438
 97
        0
 97
        0
 75
     2
 76
     1
 98
        0
  0
SPLINE
  5
49
330
41
100
AcDbEntity
  8
Layer 1
370
     0
100
AcDbSpline
210
0.0
220
0.0
230
1.0
 70
    11
 71
     3
 72
    74
 73
    70
 74
     0
 42
0.0000000001
 43
0.0000000001
 12
1.0
 22
0.0
 32
0.0
 13
1.0
 23
0.0
 33
0.0
 40
0.0
 40
0.0
 40
0.0
 40
0.0
 40
1.0
 40
1.0
 40
1.0
 40
2.0
 40
2.0
 40
2.0
 40
3.0
 40
3.0
 40
3.0
 40
4.0
 40
4.0
 40
4.0
 40
5.0
 40
5.0
 40
5.0
 40
6.0
 40
6.0
 40
6.0
 40
7.0
 40
7.0
 40
7.0
 40
8.0
 40
8.0
 40
8.0
 40
9.0
 40
9.0
 40
9.0
 40
10.0
 40
10.0
 40
10.0
 40
11.0
 40
11.0
 40
11.0
 40
12.0
 40
12.0
 40
12.0
 40
13.0
 40
13.0
 40
13.0
 40
14.0
 40
14.0
 40
14.0
 40
15.0
 40
15.0
 40
15.0
 40
16.0
 40
16.0
 40
16.0
 40
17.0
 40
17.0
 40
17.0
 40
18.0
 40
18.0
 40
18.0
 40
19.0
 40
19.0
 40
19.0
 40
20.0
 40
20.0
 40
20.0
 40
21.0
 40
21.0
 40
21.0
 40
22.0
 40
22.0
 40
22.0
 40
23.0
 40
23.0
 40
23.0
 40
23.0
 10
4.585086465897676
 20
-19.8394134909293
 30
0.0
 10
4.585086465897676
 20
-20.22969940672791
 30
0.0
 10
4.274051309647676
 20
-20.42475420273485
 30
0.0
 10
3.652035250619898
 20
-20.42475420273485
 30
0.0
 10
3.652035250619898
 20
-20.42475420273485
 30
0.0
 10
2.035085109560871
 20
-20.41316430473138
 30
0.0
 10
2.035085109560871
 20
-20.41316430473138
 30
0.0
 10
1.756907212425454
 20
-20.41316430473138
 30
0.0
 10
1.588836737165037
 20
-20.41026852565152
 30
0.0
 10
1.530880465463648
 20
-20.40447018580777
 30
0.0
 10
1.472924193762259
 20
-20.39867184596402
 30
0.0
 10
1.443946057911565
 20
-20.35720184813416
 30
0.0
 10
1.443946057911565
 20
-20.27987030516541
 30
0.0
 10
1.443946057911565
 20
-20.1562605503911
 30
0.0
 10
1.544376016678926
 20
-20.09441159205777
 30
0.0
 10
1.745310532737954
 20
-20.09441159205777
 30
0.0
 10
1.749115057477537
 20
-19.52645233641541
 30
0.0
 10
1.751108872581704
 20
-18.98747799830777
 30
0.0
 10
1.751108872581704
 20
-18.4774750143668
 30
0.0
 10
1.751108872581704
 20
-17.96747203042582
 30
0.0
 10
1.753007744109482
 20
-17.23923445447096
 30
0.0
 10
1.756907212425454
 20
-16.29257918103346
 30
0.0
 10
1.667978989769204
 20
-16.28488196966194
 30
0.0
 10
1.598432820064343
 20
-16.26749373181471
 30
0.0
 10
1.548268703310871
 20
-16.24042124917582
 30
0.0
 10
1.498009642981009
 20
-16.2134369284293
 30
0.0
 10
1.472924193762259
 20
-16.16507673962721
 30
0.0
 10
1.472924193762259
 20
-16.09553056992235
 30
0.0
 10
1.472924193762259
 20
-16.01828718884596
 30
0.0
 10
1.522186346540037
 20
-15.97582028346402
 30
0.0
 10
1.620710652095593
 20
-15.96803491020013
 30
0.0
 10
1.719234957651148
 20
-15.9603376988286
 30
0.0
 10
1.922983872581704
 20
-15.95643823051263
 30
0.0
 10
2.232133720671982
 20
-15.95643823051263
 30
0.0
 10
2.545088093501843
 20
-15.9603376988286
 30
0.0
 10
2.740142889508787
 20
-15.97002194362027
 30
0.0
 10
2.817474432477537
 20
-15.98541636636332
 30
0.0
 10
2.894717813553926
 20
-16.00090573268277
 30
0.0
 10
2.933386975880315
 20
-16.04536645316888
 30
0.0
 10
2.933386975880315
 20
-16.11871714761332
 30
0.0
 10
2.933386975880315
 20
-16.18056610594666
 30
0.0
 10
2.912106051401148
 20
-16.21922848658902
 30
0.0
 10
2.869632364335176
 20
-16.23462290933207
 30
0.0
 10
2.827077297060871
 20
-16.25011227565152
 30
0.0
 10
2.759518160776148
 20
-16.26559486028694
 30
0.0
 10
2.666792195064343
 20
-16.28098928302999
 30
0.0
 10
2.666792195064343
 20
-16.28098928302999
 30
0.0
 10
2.620432603050454
 20
-20.0828216940543
 30
0.0
 10
2.620432603050454
 20
-20.0828216940543
 30
0.0
 10
2.906307711557398
 20
-20.10219696532166
 30
0.0
 10
3.196089070064343
 20
-20.11179982990499
 30
0.0
 10
3.489763115203232
 20
-20.11179982990499
 30
0.0
 10
3.489763115203232
 20
-20.11179982990499
 30
0.0
 10
3.779530910342121
 20
-20.11179982990499
 30
0.0
 10
3.779530910342121
 20
-20.11179982990499
 30
0.0
 10
3.729265068328232
 20
-20.02685923745707
 30
0.0
 10
3.704172837425454
 20
-19.93603214327305
 30
0.0
 10
3.704172837425454
 20
-19.8394134909293
 30
0.0
 10
3.704172837425454
 20
-19.68492672877652
 30
0.0
 10
3.749555866939343
 20
-19.56992293103346
 30
0.0
 10
3.840376179439343
 20
-19.49457842148485
 30
0.0
 10
3.931115111731009
 20
-19.41924069362027
 30
0.0
 10
4.032541978050454
 20
-19.38156843884596
 30
0.0
 10
4.144629651661565
 20
-19.38156843884596
 30
0.0
 10
4.287533297494898
 20
-19.38156843884596
 30
0.0
 10
4.396745537078232
 20
-19.4241302878043
 30
0.0
 10
4.472076483258787
 20
-19.50907088025221
 30
0.0
 10
4.547434556175454
 20
-19.59409963459249
 30
0.0
 10
4.585086465897676
 20
-19.70421383815152
 30
0.0
 10
4.585086465897676
 20
-19.8394134909293
 30
0.0
  0
HATCH
  5
4A
330
41
100
AcDbEntity
  8
Layer 1
 62
   250
420
  2301728
100
AcDbHatch
 10
0.0
 20
0.0
 30
0.0
210
0.0
220
0.0
230
1.0
  2
SOLID
 70
     1
 71
     0
 91
        1
 92
        1
 93
        1
 72
     4
 94
        3
 73
     0
 74
     1
 95
       74
 96
       70
 40
0.0
 40
0.0
 40
0.0
 40
0.0
 40
1.0
 40
1.0
 40
1.0
 40
2.0
 40
2.0
 40
2.0
 40
3.0
 40
3.0
 40
3.0
 40
4.0
 40
4.0
 40
4.0
 40
5.0
 40
5.0
 40
5.0
 40
6.0
 40
6.0
 40
6.0
 40
7.0
 40
7.0
 40
7.0
 40
8.0
 40
8.0
 40
8.0
 40
9.0
 40
9.0
 40
9.0
 40
10.0
 40
10.0
 40
10.0
 40
11.0
 40
11.0
 40
11.0
 40
12.0
 40
12.0
 40
12.0
 40
13.0
 40
13.0
 40
13.0
 40
14.0
 40
14.0
 40
14.0
 40
15.0
 40
15.0
 40
15.0
 40
16.0
 40
16.0
 40
16.0
 40
17.0
 40
17.0
 40
17.0
 40
18.0
 40
18.0
 40
18.0
 40
19.0
 40
19.0
 40
19.0
 40
20.0
 40
20.0
 40
20.0
 40
21.0
 40
21.0
 40
21.0
 40
22.0
 40
22.0
 40
22.0
 40
23.0
 40
23.0
 40
23.0
 40
23.0
 10
4.585086465897676
 20
-19.8394134909293
 10
4.585086465897676
 20
-20.22969940672791
 10
4.274051309647676
 20
-20.42475420273485
 10
3.652035250619898
 20
-20.42475420273485
 10
3.652035250619898
 20
-20.42475420273485
 10
2.035085109560871
 20
-20.41316430473138
 10
2.035085109560871
 20
-20.41316430473138
 10
1.756907212425454
 20
-20.41316430473138
 10
1.588836737165037
 20
-20.41026852565152
 10
1.530880465463648
 20
-20.40447018580777
 10
1.472924193762259
 20
-20.39867184596402
 10
1.443946057911565
 20
-20.35720184813416
 10
1.443946057911565
 20
-20.27987030516541
 10
1.443946057911565
 20
-20.1562605503911
 10
1.544376016678926
 20
-20.09441159205777
 10
1.745310532737954
 20
-20.09441159205777
 10
1.749115057477537
 20
-19.52645233641541
 10
1.751108872581704
 20
-18.98747799830777
 10
1.751108872581704
 20
-18.4774750143668
 10
1.751108872581704
 20
-17.96747203042582
 10
1.753007744109482
 20
-17.23923445447096
 10
1.756907212425454
 20
-16.29257918103346
 10
1.667978989769204
 20
-16.28488196966194
 10
1.598432820064343
 20
-16.26749373181471
 10
1.548268703310871
 20
-16.24042124917582
 10
1.498009642981009
 20
-16.2134369284293
 10
1.472924193762259
 20
-16.16507673962721
 10
1.472924193762259
 20
-16.09553056992235
 10
1.472924193762259
 20
-16.01828718884596
 10
1.522186346540037
 20
-15.97582028346402
 10
1.620710652095593
 20
-15.96803491020013
 10
1.719234957651148
 20
-15.9603376988286
 10
1.922983872581704
 20
-15.95643823051263
 10
2.232133720671982
 20
-15.95643823051263
 10
2.545088093501843
 20
-15.9603376988286
 10
2.740142889508787
 20
-15.97002194362027
 10
2.817474432477537
 20
-15.98541636636332
 10
2.894717813553926
 20
-16.00090573268277
 10
2.933386975880315
 20
-16.04536645316888
 10
2.933386975880315
 20
-16.11871714761332
 10
2.933386975880315
 20
-16.18056610594666
 10
2.912106051401148
 20
-16.21922848658902
 10
2.869632364335176
 20
-16.23462290933207
 10
2.827077297060871
 20
-16.25011227565152
 10
2.759518160776148
 20
-16.26559486028694
 10
2.666792195064343
 20
-16.28098928302999
 10
2.666792195064343
 20
-16.28098928302999
 10
2.620432603050454
 20
-20.0828216940543
 10
2.620432603050454
 20
-20.0828216940543
 10
2.906307711557398
 20
-20.10219696532166
 10
3.196089070064343
 20
-20.11179982990499
 10
3.489763115203232
 20
-20.11179982990499
 10
3.489763115203232
 20
-20.11179982990499
 10
3.779530910342121
 20
-20.11179982990499
 10
3.779530910342121
 20
-20.11179982990499
 10
3.729265068328232
 20
-20.02685923745707
 10
3.704172837425454
 20
-19.93603214327305
 10
3.704172837425454
 20
-19.8394134909293
 10
3.704172837425454
 20
-19.68492672877652
 10
3.749555866939343
 20
-19.56992293103346
 10
3.840376179439343
 20
-19.49457842148485
 10
3.931115111731009
 20
-19.41924069362027
 10
4.032541978050454
 20
-19.38156843884596
 10
4.144629651661565
 20
-19.38156843884596
 10
4.287533297494898
 20
-19.38156843884596
 10
4.396745537078232
 20
-19.4241302878043
 10
4.472076483258787
 20
-19.50907088025221
 10
4.547434556175454
 20
-19.59409963459249
 10
4.585086465897676
 20
-19.70421383815152
 10
4.585086465897676
 20
-19.8394134909293
 97
        0
 97
        0
 75
     2
 76
     1
 98
        0
  0
SPLINE
  5
4B
330
41
100
AcDbEntity
  8
Layer 1
370
     0
100
AcDbSpline
210
0.0
220
0.0
230
1.0
 70
    11
 71
     3
 72
    74
 73
    70
 74
     0
 42
0.0000000001
 43
0.0000000001
 12
1.0
 22
0.0
 32
0.0
 13
1.0
 23
0.0
 33
0.0
 40
0.0
 40
0.0
 40
0.0
 40
0.0
 40
1.0
 40
1.0
 40
1.0
 40
2.0
 40
2.0
 40
2.0
 40
3.0
 40
3.0
 40
3.0
 40
4.0
 40
4.0
 40
4.0
 40
5.0
 40
5.0
 40
5.0
 40
6.0
 40
6.0
 40
6.0
 40
7.0
 40
7.0
 40
7.0
 40
8.0
 40
8.0
 40
8.0
 40
9.0
 40
9.0
 40
9.0
 40
10.0
 40
10.0
 40
10.0
 40
11.0
 40
11.0
 40
11.0
 40
12.0
 40
12.0
 40
12.0
 40
13.0
 40
13.0
 40
13.0
 40
14.0
 40
14.0
 40
14.0
 40
15.0
 40
15.0
 40
15.0
 40
16.0
 40
16.0
 40
16.0
 40
17.0
 40
17.0
 40
17.0
 40
18.0
 40
18.0
 40
18.0
 40
19.0
 40
19.0
 40
19.0
 40
20.0
 40
20.0
 40
20.0
 40
21.0
 40
21.0
 40
21.0
 40
22.0
 40
22.0
 40
22.0
 40
23.0
 40
23.0
 40
23.0
 40
23.0
 10
4.921213853050454
 20
-25.21996090846402
 30
0.0
 10
4.921213853050454
 20
-25.29728566974874
 30
0.0
 10
4.864166327008787
 20
-25.41799964544319
 30
0.0
 10
4.750247598710176
 20
-25.58217065238763
 30
0.0
 10
4.636247490203232
 20
-25.74643660290846
 30
0.0
 10
4.460479803571287
 20
-25.90382592582513
 30
0.0
 10
4.222863158606009
 20
-26.0545013815543
 30
0.0
 10
3.985246513640732
 20
-26.20519040065152
 30
0.0
 10
3.615237833085176
 20
-26.28052134683207
 30
0.0
 10
3.113027004092121
 20
-26.28052134683207
 30
0.0
 10
2.483225571800454
 20
-26.28052134683207
 30
0.0
 10
1.986711357390732
 20
-26.0902679831168
 30
0.0
 10
1.623592867807398
 20
-25.70967987547791
 30
0.0
 10
1.260379434647676
 20
-25.3291595846793
 30
0.0
 10
1.078813408171982
 20
-24.77759165933207
 30
0.0
 10
1.078813408171982
 20
-24.05505747964457
 30
0.0
 10
1.078813408171982
 20
-23.33641598658902
 30
0.0
 10
1.292253349578232
 20
-22.76655785941888
 30
0.0
 10
1.719214612599065
 20
-22.3453949362418
 30
0.0
 10
2.146087713727537
 20
-21.92431339327305
 30
0.0
 10
2.684160087859482
 20
-21.71368785073832
 30
0.0
 10
3.333255411210176
 20
-21.71368785073832
 30
0.0
 10
3.812286444196287
 20
-21.71368785073832
 30
0.0
 10
4.172610879960176
 20
-21.82089949353346
 30
0.0
 10
4.414106648189343
 20
-22.0353363424918
 30
0.0
 10
4.655534599578232
 20
-22.2497664097661
 30
0.0
 10
4.776329955481009
 20
-22.47868893580777
 30
0.0
 10
4.776329955481009
 20
-22.72209713893277
 30
0.0
 10
4.776329955481009
 20
-22.86897485160638
 30
0.0
 10
4.732859360862954
 20
-22.97710202174527
 30
0.0
 10
4.645931734994898
 20
-23.0466414097661
 30
0.0
 10
4.559004109126843
 20
-23.11618757947096
 30
0.0
 10
4.453684556175454
 20
-23.15096405516541
 30
0.0
 10
4.330081583085176
 20
-23.15096405516541
 30
0.0
 10
4.198679673362954
 20
-23.15096405516541
 30
0.0
 10
4.095367498883787
 20
-23.11238983641541
 30
0.0
 10
4.020022989335176
 20
-23.03505151176263
 30
0.0
 10
3.944678479786565
 20
-22.95780813068624
 30
0.0
 10
3.907013006696287
 20
-22.85929060681471
 30
0.0
 10
3.907013006696287
 20
-22.73948537677999
 30
0.0
 10
3.907013006696287
 20
-22.51925696966194
 30
0.0
 10
3.988149074404621
 20
-22.36666907903694
 30
0.0
 10
4.150421209821287
 20
-22.28164032469666
 30
0.0
 10
3.961063028397676
 20
-22.09238386853346
 30
0.0
 10
3.707970580481009
 20
-21.99766408771749
 30
0.0
 10
3.391211682911565
 20
-21.99766408771749
 30
0.0
 10
2.997121242373371
 20
-21.99766408771749
 30
0.0
 10
2.657087605220593
 20
-22.18022024006124
 30
0.0
 10
2.371205715029621
 20
-22.54533932643277
 30
0.0
 10
2.085235662946287
 20
-22.91045163112027
 30
0.0
 10
1.942338798796982
 20
-23.4233503941411
 30
0.0
 10
1.942338798796982
 20
-24.0840423971793
 30
0.0
 10
1.942338798796982
 20
-24.60563527912374
 30
0.0
 10
2.094926689421982
 20
-25.04899465412374
 30
0.0
 10
2.400183850880315
 20
-25.41410695881124
 30
0.0
 10
2.705352850446287
 20
-25.77921926349874
 30
0.0
 10
3.031890936383787
 20
-25.96178219752652
 30
0.0
 10
3.379615003224065
 20
-25.96178219752652
 30
0.0
 10
3.607547403397676
 20
-25.96178219752652
 30
0.0
 10
3.820071817460176
 20
-25.91060760985291
 30
0.0
 10
4.017120428571287
 20
-25.80819061766541
 30
0.0
 10
4.214169039682398
 20
-25.7058685690543
 30
0.0
 10
4.422800767112954
 20
-25.50782983207513
 30
0.0
 10
4.643029174231009
 20
-25.21415578693624
 30
0.0
 10
4.700985445932398
 20
-25.13691240585985
 30
0.0
 10
4.762753024057398
 20
-25.09825680690152
 30
0.0
 10
4.828494669022676
 20
-25.09825680690152
 30
0.0
 10
4.89024868377962
 20
-25.09825680690152
 30
0.0
 10
4.921213853050454
 20
-25.13882484075569
 30
0.0
 10
4.921213853050454
 20
-25.21996090846402
 30
0.0
  0
HATCH
  5
4C
330
41
100
AcDbEntity
  8
Layer 1
 62
   250
420
  2301728
100
AcDbHatch
 10
0.0
 20
0.0
 30
0.0
210
0.0
220
0.0
230
1.0
  2
SOLID
 70
     1
 71
     0
 91
        1
 92
        1
 93
        1
 72
     4
 94
        3
 73
     0
 74
     1
 95
       74
 96
       70
 40
0.0
 40
0.0
 40
0.0
 40
0.0
 40
1.0
 40
1.0
 40
1.0
 40
2.0
 40
2.0
 40
2.0
 40
3.0
 40
3.0
 40
3.0
 40
4.0
 40
4.0
 40
4.0
 40
5.0
 40
5.0
 40
5.0
 40
6.0
 40
6.0
 40
6.0
 40
7.0
 40
7.0
 40
7.0
 40
8.0
 40
8.0
 40
8.0
 40
9.0
 40
9.0
 40
9.0
 40
10.0
 40
10.0
 40
10.0
 40
11.0
 40
11.0
 40
11.0
 40
12.0
 40
12.0
 40
12.0
 40
13.0
 40
13.0
 40
13.0
 40
14.0
 40
14.0
 40
14.0
 40
15.0
 40
15.0
 40
15.0
 40
16.0
 40
16.0
 40
16.0
 40
17.0
 40
17.0
 40
17.0
 40
18.0
 40
18.0
 40
18.0
 40
19.0
 40
19.0
 40
19.0
 40
20.0
 40
20.0
 40
20.0
 40
21.0
 40
21.0
 40
21.0
 40
22.0
 40
22.0
 40
22.0
 40
23.0
 40
23.0
 40
23.0
 40
23.0
 10
4.921213853050454
 20
-25.21996090846402
 10
4.921213853050454
 20
-25.29728566974874
 10
4.864166327008787
 20
-25.41799964544319
 10
4.750247598710176
 20
-25.58217065238763
 10
4.636247490203232
 20
-25.74643660290846
 10
4.460479803571287
 20
-25.90382592582513
 10
4.222863158606009
 20
-26.0545013815543
 10
3.985246513640732
 20
-26.20519040065152
 10
3.615237833085176
 20
-26.28052134683207
 10
3.113027004092121
 20
-26.28052134683207
 10
2.483225571800454
 20
-26.28052134683207
 10
1.986711357390732
 20
-26.0902679831168
 10
1.623592867807398
 20
-25.70967987547791
 10
1.260379434647676
 20
-25.3291595846793
 10
1.078813408171982
 20
-24.77759165933207
 10
1.078813408171982
 20
-24.05505747964457
 10
1.078813408171982
 20
-23.33641598658902
 10
1.292253349578232
 20
-22.76655785941888
 10
1.719214612599065
 20
-22.3453949362418
 10
2.146087713727537
 20
-21.92431339327305
 10
2.684160087859482
 20
-21.71368785073832
 10
3.333255411210176
 20
-21.71368785073832
 10
3.812286444196287
 20
-21.71368785073832
 10
4.172610879960176
 20
-21.82089949353346
 10
4.414106648189343
 20
-22.0353363424918
 10
4.655534599578232
 20
-22.2497664097661
 10
4.776329955481009
 20
-22.47868893580777
 10
4.776329955481009
 20
-22.72209713893277
 10
4.776329955481009
 20
-22.86897485160638
 10
4.732859360862954
 20
-22.97710202174527
 10
4.645931734994898
 20
-23.0466414097661
 10
4.559004109126843
 20
-23.11618757947096
 10
4.453684556175454
 20
-23.15096405516541
 10
4.330081583085176
 20
-23.15096405516541
 10
4.198679673362954
 20
-23.15096405516541
 10
4.095367498883787
 20
-23.11238983641541
 10
4.020022989335176
 20
-23.03505151176263
 10
3.944678479786565
 20
-22.95780813068624
 10
3.907013006696287
 20
-22.85929060681471
 10
3.907013006696287
 20
-22.73948537677999
 10
3.907013006696287
 20
-22.51925696966194
 10
3.988149074404621
 20
-22.36666907903694
 10
4.150421209821287
 20
-22.28164032469666
 10
3.961063028397676
 20
-22.09238386853346
 10
3.707970580481009
 20
-21.99766408771749
 10
3.391211682911565
 20
-21.99766408771749
 10
2.997121242373371
 20
-21.99766408771749
 10
2.657087605220593
 20
-22.18022024006124
 10
2.371205715029621
 20
-22.54533932643277
 10
2.085235662946287
 20
-22.91045163112027
 10
1.942338798796982
 20
-23.4233503941411
 10
1.942338798796982
 20
-24.0840423971793
 10
1.942338798796982
 20
-24.60563527912374
 10
2.094926689421982
 20
-25.04899465412374
 10
2.400183850880315
 20
-25.41410695881124
 10
2.705352850446287
 20
-25.77921926349874
 10
3.031890936383787
 20
-25.96178219752652
 10
3.379615003224065
 20
-25.96178219752652
 10
3.607547403397676
 20
-25.96178219752652
 10
3.820071817460176
 20
-25.91060760985291
 10
4.017120428571287
 20
-25.80819061766541
 10
4.214169039682398
 20
-25.7058685690543
 10
4.422800767112954
 20
-25.50782983207513
 10
4.643029174231009
 20
-25.21415578693624
 10
4.700985445932398
 20
-25.13691240585985
 10
4.762753024057398
 20
-25.09825680690152
 10
4.828494669022676
 20
-25.09825680690152
 10
4.89024868377962
 20
-25.09825680690152
 10
4.921213853050454
 20
-25.13882484075569
 10
4.921213853050454
 20
-25.21996090846402
 97
        0
 97
        0
 75
     2
 76
     1
 98
        0
  0
SPLINE
  5
4D
330
41
100
AcDbEntity
  8
Layer 1
370
     0
100
AcDbSpline
210
0.0
220
0.0
230
1.0
 70
    11
 71
     3
 72
    29
 73
    25
 74
     0
 42
0.0000000001
 43
0.0000000001
 12
1.0
 22
0.0
 32
0.0
 13
1.0
 23
0.0
 33
0.0
 40
0.0
 40
0.0
 40
0.0
 40
0.0
 40
1.0
 40
1.0
 40
1.0
 40
2.0
 40
2.0
 40
2.0
 40
3.0
 40
3.0
 40
3.0
 40
4.0
 40
4.0
 40
4.0
 40
5.0
 40
5.0
 40
5.0
 40
6.0
 40
6.0
 40
6.0
 40
7.0
 40
7.0
 40
7.0
 40
8.0
 40
8.0
 40
8.0
 40
8.0
 10
4.634362182043509
 20
-28.21564775742235
 30
0.0
 10
4.213192477182398
 20
-27.7327240378043
 30
0.0
 10
3.645226439856009
 20
-27.49121470620707
 30
0.0
 10
2.930484415116426
 20
-27.49121470620707
 30
0.0
 10
2.289093084821287
 20
-27.49121470620707
 30
0.0
 10
1.780988972408093
 20
-27.71823836072096
 30
0.0
 10
1.406273803137259
 20
-28.17219072617235
 30
0.0
 10
1.031470471974065
 20
-28.62622447183207
 30
0.0
 10
0.8441128873386484
 20
-29.18739526176263
 30
0.0
 10
0.8441128873386484
 20
-29.8557709128043
 30
0.0
 10
0.8441128873386484
 20
-30.49716902478346
 30
0.0
 10
1.037268811817815
 20
-31.03425127304735
 30
0.0
 10
1.423662040984482
 20
-31.46690915065152
 30
0.0
 10
1.809967108258787
 20
-31.89967553520013
 30
0.0
 10
2.325768432043509
 20
-32.11601125568624
 30
0.0
 10
2.971052448970593
 20
-32.11601125568624
 30
0.0
 10
3.608551092633787
 20
-32.11601125568624
 30
0.0
 10
4.112769300099065
 20
-31.91896264457513
 30
0.0
 10
4.483673162946287
 20
-31.52486542235291
 30
0.0
 10
4.931833970237954
 20
-31.0458343893668
 30
0.0
 10
5.155955063987954
 20
-30.45080943276957
 30
0.0
 10
5.155955063987954
 20
-29.73985836940152
 30
0.0
 10
5.155955063987954
 20
-29.1255463034293
 30
0.0
 10
4.982086248883787
 20
-28.61753035290846
 30
0.0
 10
4.634362182043509
 20
-28.21564775742235
 30
0.0
  0
SPLINE
  5
4E
330
41
100
AcDbEntity
  8
Layer 1
370
     0
100
AcDbSpline
210
0.0
220
0.0
230
1.0
 70
    11
 71
     3
 72
    29
 73
    25
 74
     0
 42
0.0000000001
 43
0.0000000001
 12
1.0
 22
0.0
 32
0.0
 13
1.0
 23
0.0
 33
0.0
 40
0.0
 40
0.0
 40
0.0
 40
0.0
 40
1.0
 40
1.0
 40
1.0
 40
2.0
 40
2.0
 40
2.0
 40
3.0
 40
3.0
 40
3.0
 40
4.0
 40
4.0
 40
4.0
 40
5.0
 40
5.0
 40
5.0
 40
6.0
 40
6.0
 40
6.0
 40
7.0
 40
7.0
 40
7.0
 40
8.0
 40
8.0
 40
8.0
 40
8.0
 10
3.944692043154621
 20
-31.28724877738763
 30
0.0
 10
3.712880519717121
 20
-31.63117510117235
 30
0.0
 10
3.382531127356009
 20
-31.80305010117235
 30
0.0
 10
2.953670992807398
 20
-31.80305010117235
 30
0.0
 10
2.578860879960176
 20
-31.80305010117235
 30
0.0
 10
2.275597533606009
 20
-31.60799530516541
 30
0.0
 10
2.043779228484482
 20
-31.2177093893668
 30
0.0
 10
1.811960923362954
 20
-30.82750485377652
 30
0.0
 10
1.696048379960176
 20
-30.39285316106819
 30
0.0
 10
1.696048379960176
 20
-29.91372718450569
 30
0.0
 10
1.696048379960176
 20
-29.37673987981819
 30
0.0
 10
1.829349161210176
 20
-28.88022566540846
 30
0.0
 10
2.095937160342121
 20
-28.42429304822096
 30
0.0
 10
2.335452676835176
 20
-28.02250539631124
 30
0.0
 10
2.632924465029621
 20
-27.82156409856819
 30
0.0
 10
2.988440686817815
 20
-27.82156409856819
 30
0.0
 10
3.428904282737954
 20
-27.82156409856819
 30
0.0
 10
3.766930541418509
 20
-28.04758406384596
 30
0.0
 10
4.002648314856009
 20
-28.49962399440152
 30
0.0
 10
4.22667446502962
 20
-28.92849769231819
 30
0.0
 10
4.338789265376843
 20
-29.36705563502652
 30
0.0
 10
4.338789265376843
 20
-29.81520287895013
 30
0.0
 10
4.338789265376843
 20
-30.40634871228346
 30
0.0
 10
4.20738735565462
 20
-30.89705780516541
 30
0.0
 10
3.944692043154621
 20
-31.28724877738763
 30
0.0
  0
HATCH
  5
4F
330
41
100
AcDbEntity
  8
Layer 1
 62
   250
420
  2301728
100
AcDbHatch
 10
0.0
 20
0.0
 30
0.0
210
0.0
220
0.0
230
1.0
  2
SOLID
 70
     1
 71
     0
 91
        2
 92
        1
 93
        1
 72
     4
 94
        3
 73
     0
 74
     1
 95
       29
 96
       25
 40
0.0
 40
0.0
 40
0.0
 40
0.0
 40
1.0
 40
1.0
 40
1.0
 40
2.0
 40
2.0
 40
2.0
 40
3.0
 40
3.0
 40
3.0
 40
4.0
 40
4.0
 40
4.0
 40
5.0
 40
5.0
 40
5.0
 40
6.0
 40
6.0
 40
6.0
 40
7.0
 40
7.0
 40
7.0
 40
8.0
 40
8.0
 40
8.0
 40
8.0
 10
4.634362182043509
 20
-28.21564775742235
 10
4.213192477182398
 20
-27.7327240378043
 10
3.645226439856009
 20
-27.49121470620707
 10
2.930484415116426
 20
-27.49121470620707
 10
2.289093084821287
 20
-27.49121470620707
 10
1.780988972408093
 20
-27.71823836072096
 10
1.406273803137259
 20
-28.17219072617235
 10
1.031470471974065
 20
-28.62622447183207
 10
0.8441128873386484
 20
-29.18739526176263
 10
0.8441128873386484
 20
-29.8557709128043
 10
0.8441128873386484
 20
-30.49716902478346
 10
1.037268811817815
 20
-31.03425127304735
 10
1.423662040984482
 20
-31.46690915065152
 10
1.809967108258787
 20
-31.89967553520013
 10
2.325768432043509
 20
-32.11601125568624
 10
2.971052448970593
 20
-32.11601125568624
 10
3.608551092633787
 20
-32.11601125568624
 10
4.112769300099065
 20
-31.91896264457513
 10
4.483673162946287
 20
-31.52486542235291
 10
4.931833970237954
 20
-31.0458343893668
 10
5.155955063987954
 20
-30.45080943276957
 10
5.155955063987954
 20
-29.73985836940152
 10
5.155955063987954
 20
-29.1255463034293
 10
4.982086248883787
 20
-28.61753035290846
 10
4.634362182043509
 20
-28.21564775742235
 97
        0
 97
        0
 92
        1
 93
        1
 72
     4
 94
        3
 73
     0
 74
     1
 95
       29
 96
       25
 40
0.0
 40
0.0
 40
0.0
 40
0.0
 40
1.0
 40
1.0
 40
1.0
 40
2.0
 40
2.0
 40
2.0
 40
3.0
 40
3.0
 40
3.0
 40
4.0
 40
4.0
 40
4.0
 40
5.0
 40
5.0
 40
5.0
 40
6.0
 40
6.0
 40
6.0
 40
7.0
 40
7.0
 40
7.0
 40
8.0
 40
8.0
 40
8.0
 40
8.0
 10
3.944692043154621
 20
-31.28724877738763
 10
3.712880519717121
 20
-31.63117510117235
 10
3.382531127356009
 20
-31.80305010117235
 10
2.953670992807398
 20
-31.80305010117235
 10
2.578860879960176
 20
-31.80305010117235
 10
2.275597533606009
 20
-31.60799530516541
 10
2.043779228484482
 20
-31.2177093893668
 10
1.811960923362954
 20
-30.82750485377652
 10
1.696048379960176
 20
-30.39285316106819
 10
1.696048379960176
 20
-29.91372718450569
 10
1.696048379960176
 20
-29.37673987981819
 10
1.829349161210176
 20
-28.88022566540846
 10
2.095937160342121
 20
-28.42429304822096
 10
2.335452676835176
 20
-28.02250539631124
 10
2.632924465029621
 20
-27.82156409856819
 10
2.988440686817815
 20
-27.82156409856819
 10
3.428904282737954
 20
-27.82156409856819
 10
3.766930541418509
 20
-28.04758406384596
 10
4.002648314856009
 20
-28.49962399440152
 10
4.22667446502962
 20
-28.92849769231819
 10
4.338789265376843
 20
-29.36705563502652
 10
4.338789265376843
 20
-29.81520287895013
 10
4.338789265376843
 20
-30.40634871228346
 10
4.20738735565462
 20
-30.89705780516541
 10
3.944692043154621
 20
-31.28724877738763
 97
        0
 97
        0
 75
     2
 76
     1
 98
        0
  0
SPLINE
  5
50
330
41
100
AcDbEntity
  8
Layer 1
370
     0
100
AcDbSpline
210
0.0
220
0.0
230
1.0
 70
    11
 71
     3
 72
   110
 73
   106
 74
     0
 42
0.0000000001
 43
0.0000000001
 12
1.0
 22
0.0
 32
0.0
 13
1.0
 23
0.0
 33
0.0
 40
0.0
 40
0.0
 40
0.0
 40
0.0
 40
1.0
 40
1.0
 40
1.0
 40
2.0
 40
2.0
 40
2.0
 40
3.0
 40
3.0
 40
3.0
 40
4.0
 40
4.0
 40
4.0
 40
5.0
 40
5.0
 40
5.0
 40
6.0
 40
6.0
 40
6.0
 40
7.0
 40
7.0
 40
7.0
 40
8.0
 40
8.0
 40
8.0
 40
9.0
 40
9.0
 40
9.0
 40
10.0
 40
10.0
 40
10.0
 40
11.0
 40
11.0
 40
11.0
 40
12.0
 40
12.0
 40
12.0
 40
13.0
 40
13.0
 40
13.0
 40
14.0
 40
14.0
 40
14.0
 40
15.0
 40
15.0
 40
15.0
 40
16.0
 40
16.0
 40
16.0
 40
17.0
 40
17.0
 40
17.0
 40
18.0
 40
18.0
 40
18.0
 40
19.0
 40
19.0
 40
19.0
 40
20.0
 40
20.0
 40
20.0
 40
21.0
 40
21.0
 40
21.0
 40
22.0
 40
22.0
 40
22.0
 40
23.0
 40
23.0
 40
23.0
 40
24.0
 40
24.0
 40
24.0
 40
25.0
 40
25.0
 40
25.0
 40
26.0
 40
26.0
 40
26.0
 40
27.0
 40
27.0
 40
27.0
 40
28.0
 40
28.0
 40
28.0
 40
29.0
 40
29.0
 40
29.0
 40
30.0
 40
30.0
 40
30.0
 40
31.0
 40
31.0
 40
31.0
 40
32.0
 40
32.0
 40
32.0
 40
33.0
 40
33.0
 40
33.0
 40
34.0
 40
34.0
 40
34.0
 40
35.0
 40
35.0
 40
35.0
 40
35.0
 10
5.199384968501843
 20
-33.66864051458374
 30
0.0
 10
5.199384968501843
 20
-33.66864051458374
 30
0.0
 10
5.18199673065462
 20
-37.49945106145874
 30
0.0
 10
5.18199673065462
 20
-37.49945106145874
 30
0.0
 10
5.336483492807398
 20
-37.53810666041706
 30
0.0
 10
5.413821817460176
 20
-37.5999556187504
 30
0.0
 10
5.413821817460176
 20
-37.68490299288234
 30
0.0
 10
5.413821817460176
 20
-37.78921885659762
 30
0.0
 10
5.35387173065462
 20
-37.84237369600734
 30
0.0
 10
5.234161444196287
 20
-37.84427256753512
 30
0.0
 10
5.114356214161565
 20
-37.84626638263929
 30
0.0
 10
5.006147663814343
 20
-37.84717512829901
 30
0.0
 10
4.909603609994898
 20
-37.84717512829901
 30
0.0
 10
4.422787203744898
 20
-37.84337738524346
 30
0.0
 10
4.154205389508787
 20
-37.83178070555596
 30
0.0
 10
4.104034491071287
 20
-37.81239865260456
 30
0.0
 10
4.053782212425454
 20
-37.79311154322956
 30
0.0
 10
4.028703544890732
 20
-37.74285926458374
 30
0.0
 10
4.028703544890732
 20
-37.6617231968754
 30
0.0
 10
4.028703544890732
 20
-37.60765961180596
 30
0.0
 10
4.107845797494898
 20
-37.55938758489624
 30
0.0
 10
4.266306626487954
 20
-37.51683929930596
 30
0.0
 10
4.277903306175454
 20
-36.69388194253512
 30
0.0
 10
4.301083102182398
 20
-35.56185611788234
 30
0.0
 10
4.335859577876843
 20
-34.12068044513929
 30
0.0
 10
4.069271578744898
 20
-34.87409841388929
 30
0.0
 10
3.808475137772676
 20
-35.60143402586846
 30
0.0
 10
3.553470254960176
 20
-36.30268728107679
 30
0.0
 10
3.298465372147676
 20
-37.00392697291706
 30
0.0
 10
3.134199421626843
 20
-37.42700911267401
 30
0.0
 10
3.060848727182398
 20
-37.57189301024346
 30
0.0
 10
2.987416652529621
 20
-37.7167769078129
 30
0.0
 10
2.898576591765732
 20
-37.78921885659762
 30
0.0
 10
2.794260728050454
 20
-37.78921885659762
 30
0.0
 10
2.713124660342121
 20
-37.78921885659762
 30
0.0
 10
2.639685804005315
 20
-37.74774207708374
 30
0.0
 10
2.574032320932398
 20
-37.66461219427124
 30
0.0
 10
2.508290675967121
 20
-37.58157725503512
 30
0.0
 10
2.341217108258787
 20
-37.23095062743096
 30
0.0
 10
2.072723455915037
 20
-36.61273231145874
 30
0.0
 10
1.804141641678926
 20
-35.9946089390629
 30
0.0
 10
1.497975734560871
 20
-35.28756412569484
 30
0.0
 10
1.154144354352537
 20
-34.49159787135456
 30
0.0
 10
1.154144354352537
 20
-34.49159787135456
 30
0.0
 10
1.188914048362954
 20
-37.52263085746568
 30
0.0
 10
1.188914048362954
 20
-37.52263085746568
 30
0.0
 10
1.297034436817815
 20
-37.54201291041706
 30
0.0
 10
1.376271632998371
 20
-37.56029633055596
 30
0.0
 10
1.426530693328232
 20
-37.57768456840318
 30
0.0
 10
1.476694810081704
 20
-37.5950728062504
 30
0.0
 10
1.501868421192815
 20
-37.64052365260456
 30
0.0
 10
1.501868421192815
 20
-37.71387434704901
 30
0.0
 10
1.501868421192815
 20
-37.7834272984379
 30
0.0
 10
1.456410793154621
 20
-37.82399533229206
 30
0.0
 10
1.365678642546982
 20
-37.83557844861151
 30
0.0
 10
1.274851548362954
 20
-37.84717512829901
 30
0.0
 10
1.167633123883787
 20
-37.85296668645874
 30
0.0
 10
1.044030150793509
 20
-37.85296668645874
 30
0.0
 10
1.013058199838648
 20
-37.85296668645874
 30
0.0
 10
0.9503004958455928
 20
-37.85197656059068
 30
0.0
 10
0.8556756586060095
 20
-37.8500776890629
 30
0.0
 10
0.7609558777900373
 20
-37.84808387395874
 30
0.0
 10
0.6847094042657318
 20
-37.84047482447956
 30
0.0
 10
0.6267531325643428
 20
-37.8268843296879
 30
0.0
 10
0.568796860862954
 20
-37.81340234184068
 30
0.0
 10
0.5398187250122596
 20
-37.7718306187504
 30
0.0
 10
0.5398187250122596
 20
-37.70229123072956
 30
0.0
 10
0.5398187250122596
 20
-37.59797536701429
 30
0.0
 10
0.6402486837796206
 20
-37.54581065347262
 30
0.0
 10
0.8411831998386484
 20
-37.54581065347262
 30
0.0
 10
0.8411831998386484
 20
-37.54581065347262
 30
0.0
 10
0.8411831998386484
 20
-33.72079166475734
 30
0.0
 10
0.8411831998386484
 20
-33.72079166475734
 30
0.0
 10
0.6595357931546206
 20
-33.70150455538234
 30
0.0
 10
0.568796860862954
 20
-33.64164941215318
 30
0.0
 10
0.568796860862954
 20
-33.54113129149346
 30
0.0
 10
0.568796860862954
 20
-33.44841210746568
 30
0.0
 10
0.638343030567815
 20
-33.40203895208374
 30
0.0
 10
0.7774353699775373
 20
-33.40203895208374
 30
0.0
 10
0.7774353699775373
 20
-33.40203895208374
 30
0.0
 10
1.345394625619898
 20
-33.40784407361151
 30
0.0
 10
1.345394625619898
 20
-33.40784407361151
 30
0.0
 10
1.465104912078232
 20
-33.40784407361151
 30
0.0
 10
1.572323336557398
 20
-33.47647471597262
 30
0.0
 10
1.667043117373371
 20
-33.61357324027818
 30
0.0
 10
1.761667954612954
 20
-33.75076670816012
 30
0.0
 10
1.939429456349065
 20
-34.11198632621568
 30
0.0
 10
2.200225897321287
 20
-34.69732703802124
 30
0.0
 10
2.461022338293509
 20
-35.28268131319484
 30
0.0
 10
2.753692694196287
 20
-35.93086110920179
 30
0.0
 10
3.078236965029621
 20
-36.64171722899346
 30
0.0
 10
3.313859794890732
 20
-36.05837033229206
 30
0.0
 10
3.692562594369898
 20
-35.05375878715318
 30
0.0
 10
4.214155476314343
 20
-33.62807248072956
 30
0.0
 10
4.268219061383787
 20
-33.47358571857679
 30
0.0
 10
4.388010728050454
 20
-33.39434852239624
 30
0.0
 10
4.57347622284212
 20
-33.39045583576429
 30
0.0
 10
4.986846991071287
 20
-33.37506141302124
 30
0.0
 10
5.237959187251843
 20
-33.36727603975734
 30
0.0
 10
5.326880628224065
 20
-33.36727603975734
 30
0.0
 10
5.415720688987954
 20
-33.37116872638929
 30
0.0
 10
5.460181409474065
 20
-33.41363563177124
 30
0.0
 10
5.460181409474065
 20
-33.49477169947956
 30
0.0
 10
5.460181409474065
 20
-33.58369314045179
 30
0.0
 10
5.373253783606009
 20
-33.64164941215318
 30
0.0
 10
5.199384968501843
 20
-33.66864051458374
 30
0.0
  0
HATCH
  5
51
330
41
100
AcDbEntity
  8
Layer 1
 62
   250
420
  2301728
100
AcDbHatch
 10
0.0
 20
0.0
 30
0.0
210
0.0
220
0.0
230
1.0
  2
SOLID
 70
     1
 71
     0
 91
        1
 92
        1
 93
        1
 72
     4
 94
        3
 73
     0
 74
     1
 95
      110
 96
      106
 40
0.0
 40
0.0
 40
0.0
 40
0.0
 40
1.0
 40
1.0
 40
1.0
 40
2.0
 40
2.0
 40
2.0
 40
3.0
 40
3.0
 40
3.0
 40
4.0
 40
4.0
 40
4.0
 40
5.0
 40
5.0
 40
5.0
 40
6.0
 40
6.0
 40
6.0
 40
7.0
 40
7.0
 40
7.0
 40
8.0
 40
8.0
 40
8.0
 40
9.0
 40
9.0
 40
9.0
 40
10.0
 40
10.0
 40
10.0
 40
11.0
 40
11.0
 40
11.0
 40
12.0
 40
12.0
 40
12.0
 40
13.0
 40
13.0
 40
13.0
 40
14.0
 40
14.0
 40
14.0
 40
15.0
 40
15.0
 40
15.0
 40
16.0
 40
16.0
 40
16.0
 40
17.0
 40
17.0
 40
17.0
 40
18.0
 40
18.0
 40
18.0
 40
19.0
 40
19.0
 40
19.0
 40
20.0
 40
20.0
 40
20.0
 40
21.0
 40
21.0
 40
21.0
 40
22.0
 40
22.0
 40
22.0
 40
23.0
 40
23.0
 40
23.0
 40
24.0
 40
24.0
 40
24.0
 40
25.0
 40
25.0
 40
25.0
 40
26.0
 40
26.0
 40
26.0
 40
27.0
 40
27.0
 40
27.0
 40
28.0
 40
28.0
 40
28.0
 40
29.0
 40
29.0
 40
29.0
 40
30.0
 40
30.0
 40
30.0
 40
31.0
 40
31.0
 40
31.0
 40
32.0
 40
32.0
 40
32.0
 40
33.0
 40
33.0
 40
33.0
 40
34.0
 40
34.0
 40
34.0
 40
35.0
 40
35.0
 40
35.0
 40
35.0
 10
5.199384968501843
 20
-33.66864051458374
 10
5.199384968501843
 20
-33.66864051458374
 10
5.18199673065462
 20
-37.49945106145874
 10
5.18199673065462
 20
-37.49945106145874
 10
5.336483492807398
 20
-37.53810666041706
 10
5.413821817460176
 20
-37.5999556187504
 10
5.413821817460176
 20
-37.68490299288234
 10
5.413821817460176
 20
-37.78921885659762
 10
5.35387173065462
 20
-37.84237369600734
 10
5.234161444196287
 20
-37.84427256753512
 10
5.114356214161565
 20
-37.84626638263929
 10
5.006147663814343
 20
-37.84717512829901
 10
4.909603609994898
 20
-37.84717512829901
 10
4.422787203744898
 20
-37.84337738524346
 10
4.154205389508787
 20
-37.83178070555596
 10
4.104034491071287
 20
-37.81239865260456
 10
4.053782212425454
 20
-37.79311154322956
 10
4.028703544890732
 20
-37.74285926458374
 10
4.028703544890732
 20
-37.6617231968754
 10
4.028703544890732
 20
-37.60765961180596
 10
4.107845797494898
 20
-37.55938758489624
 10
4.266306626487954
 20
-37.51683929930596
 10
4.277903306175454
 20
-36.69388194253512
 10
4.301083102182398
 20
-35.56185611788234
 10
4.335859577876843
 20
-34.12068044513929
 10
4.069271578744898
 20
-34.87409841388929
 10
3.808475137772676
 20
-35.60143402586846
 10
3.553470254960176
 20
-36.30268728107679
 10
3.298465372147676
 20
-37.00392697291706
 10
3.134199421626843
 20
-37.42700911267401
 10
3.060848727182398
 20
-37.57189301024346
 10
2.987416652529621
 20
-37.7167769078129
 10
2.898576591765732
 20
-37.78921885659762
 10
2.794260728050454
 20
-37.78921885659762
 10
2.713124660342121
 20
-37.78921885659762
 10
2.639685804005315
 20
-37.74774207708374
 10
2.574032320932398
 20
-37.66461219427124
 10
2.508290675967121
 20
-37.58157725503512
 10
2.341217108258787
 20
-37.23095062743096
 10
2.072723455915037
 20
-36.61273231145874
 10
1.804141641678926
 20
-35.9946089390629
 10
1.497975734560871
 20
-35.28756412569484
 10
1.154144354352537
 20
-34.49159787135456
 10
1.154144354352537
 20
-34.49159787135456
 10
1.188914048362954
 20
-37.52263085746568
 10
1.188914048362954
 20
-37.52263085746568
 10
1.297034436817815
 20
-37.54201291041706
 10
1.376271632998371
 20
-37.56029633055596
 10
1.426530693328232
 20
-37.57768456840318
 10
1.476694810081704
 20
-37.5950728062504
 10
1.501868421192815
 20
-37.64052365260456
 10
1.501868421192815
 20
-37.71387434704901
 10
1.501868421192815
 20
-37.7834272984379
 10
1.456410793154621
 20
-37.82399533229206
 10
1.365678642546982
 20
-37.83557844861151
 10
1.274851548362954
 20
-37.84717512829901
 10
1.167633123883787
 20
-37.85296668645874
 10
1.044030150793509
 20
-37.85296668645874
 10
1.013058199838648
 20
-37.85296668645874
 10
0.9503004958455928
 20
-37.85197656059068
 10
0.8556756586060095
 20
-37.8500776890629
 10
0.7609558777900373
 20
-37.84808387395874
 10
0.6847094042657318
 20
-37.84047482447956
 10
0.6267531325643428
 20
-37.8268843296879
 10
0.568796860862954
 20
-37.81340234184068
 10
0.5398187250122596
 20
-37.7718306187504
 10
0.5398187250122596
 20
-37.70229123072956
 10
0.5398187250122596
 20
-37.59797536701429
 10
0.6402486837796206
 20
-37.54581065347262
 10
0.8411831998386484
 20
-37.54581065347262
 10
0.8411831998386484
 20
-37.54581065347262
 10
0.8411831998386484
 20
-33.72079166475734
 10
0.8411831998386484
 20
-33.72079166475734
 10
0.6595357931546206
 20
-33.70150455538234
 10
0.568796860862954
 20
-33.64164941215318
 10
0.568796860862954
 20
-33.54113129149346
 10
0.568796860862954
 20
-33.44841210746568
 10
0.638343030567815
 20
-33.40203895208374
 10
0.7774353699775373
 20
-33.40203895208374
 10
0.7774353699775373
 20
-33.40203895208374
 10
1.345394625619898
 20
-33.40784407361151
 10
1.345394625619898
 20
-33.40784407361151
 10
1.465104912078232
 20
-33.40784407361151
 10
1.572323336557398
 20
-33.47647471597262
 10
1.667043117373371
 20
-33.61357324027818
 10
1.761667954612954
 20
-33.75076670816012
 10
1.939429456349065
 20
-34.11198632621568
 10
2.200225897321287
 20
-34.69732703802124
 10
2.461022338293509
 20
-35.28268131319484
 10
2.753692694196287
 20
-35.93086110920179
 10
3.078236965029621
 20
-36.64171722899346
 10
3.313859794890732
 20
-36.05837033229206
 10
3.692562594369898
 20
-35.05375878715318
 10
4.214155476314343
 20
-33.62807248072956
 10
4.268219061383787
 20
-33.47358571857679
 10
4.388010728050454
 20
-33.39434852239624
 10
4.57347622284212
 20
-33.39045583576429
 10
4.986846991071287
 20
-33.37506141302124
 10
5.237959187251843
 20
-33.36727603975734
 10
5.326880628224065
 20
-33.36727603975734
 10
5.415720688987954
 20
-33.37116872638929
 10
5.460181409474065
 20
-33.41363563177124
 10
5.460181409474065
 20
-33.49477169947956
 10
5.460181409474065
 20
-33.58369314045179
 10
5.373253783606009
 20
-33.64164941215318
 10
5.199384968501843
 20
-33.66864051458374
 97
        0
 97
        0
 75
     2
 76
     1
 98
        0
  0
SPLINE
  5
52
330
41
100
AcDbEntity
  8
Layer 1
370
     0
100
AcDbSpline
210
0.0
220
0.0
230
1.0
 70
    11
 71
     3
 72
   122
 73
   118
 74
     0
 42
0.0000000001
 43
0.0000000001
 12
1.0
 22
0.0
 32
0.0
 13
1.0
 23
0.0
 33
0.0
 40
0.0
 40
0.0
 40
0.0
 40
0.0
 40
1.0
 40
1.0
 40
1.0
 40
2.0
 40
2.0
 40
2.0
 40
3.0
 40
3.0
 40
3.0
 40
4.0
 40
4.0
 40
4.0
 40
5.0
 40
5.0
 40
5.0
 40
6.0
 40
6.0
 40
6.0
 40
7.0
 40
7.0
 40
7.0
 40
8.0
 40
8.0
 40
8.0
 40
9.0
 40
9.0
 40
9.0
 40
10.0
 40
10.0
 40
10.0
 40
11.0
 40
11.0
 40
11.0
 40
12.0
 40
12.0
 40
12.0
 40
13.0
 40
13.0
 40
13.0
 40
14.0
 40
14.0
 40
14.0
 40
15.0
 40
15.0
 40
15.0
 40
16.0
 40
16.0
 40
16.0
 40
17.0
 40
17.0
 40
17.0
 40
18.0
 40
18.0
 40
18.0
 40
19.0
 40
19.0
 40
19.0
 40
20.0
 40
20.0
 40
20.0
 40
21.0
 40
21.0
 40
21.0
 40
22.0
 40
22.0
 40
22.0
 40
23.0
 40
23.0
 40
23.0
 40
24.0
 40
24.0
 40
24.0
 40
25.0
 40
25.0
 40
25.0
 40
26.0
 40
26.0
 40
26.0
 40
27.0
 40
27.0
 40
27.0
 40
28.0
 40
28.0
 40
28.0
 40
29.0
 40
29.0
 40
29.0
 40
30.0
 40
30.0
 40
30.0
 40
31.0
 40
31.0
 40
31.0
 40
32.0
 40
32.0
 40
32.0
 40
33.0
 40
33.0
 40
33.0
 40
34.0
 40
34.0
 40
34.0
 40
35.0
 40
35.0
 40
35.0
 40
36.0
 40
36.0
 40
36.0
 40
37.0
 40
37.0
 40
37.0
 40
38.0
 40
38.0
 40
38.0
 40
39.0
 40
39.0
 40
39.0
 40
39.0
 10
3.756337550967121
 20
-39.73014699787374
 30
0.0
 10
3.756337550967121
 20
-39.64130693710985
 30
0.0
 10
3.775624660342121
 20
-39.5543793112418
 30
0.0
 10
3.814280259300454
 20
-39.46935055690152
 30
0.0
 10
3.211551309647676
 20
-39.46935055690152
 30
0.0
 10
2.813568182477537
 20
-39.47514211506124
 30
0.0
 10
2.620419039682398
 20
-39.48673879474874
 30
0.0
 10
2.624223564421982
 20
-40.59946394665846
 30
0.0
 10
2.632008937685871
 20
-41.2814300924918
 30
0.0
 10
2.643598835689343
 20
-41.53254228867235
 30
0.0
 10
2.643598835689343
 20
-41.53254228867235
 30
0.0
 10
3.298492498883787
 20
-41.52094560898485
 30
0.0
 10
3.298492498883787
 20
-41.52094560898485
 30
0.0
 10
3.313873358258787
 20
-41.43210554822096
 30
0.0
 10
3.332265285342121
 20
-41.3567746020404
 30
0.0
 10
3.353559773189343
 20
-41.29492564370707
 30
0.0
 10
3.374745754092121
 20
-41.23315806558207
 30
0.0
 10
3.416303913814343
 20
-41.20219289631124
 30
0.0
 10
3.478152872147676
 20
-41.20219289631124
 30
0.0
 10
3.536095580481009
 20
-41.20219289631124
 30
0.0
 10
3.576677177703232
 20
-41.2350705004779
 30
0.0
 10
3.599843410342121
 20
-41.3007172018668
 30
0.0
 10
3.615251396453232
 20
-41.34327905082512
 30
0.0
 10
3.624935641244898
 20
-41.56540632947096
 30
0.0
 10
3.628841891244898
 20
-41.96719398138068
 30
0.0
 10
3.628841891244898
 20
-42.10248857773485
 30
0.0
 10
3.590159165550454
 20
-42.17003415065152
 30
0.0
 10
3.512929347842121
 20
-42.17003415065152
 30
0.0
 10
3.408599920758787
 20
-42.17003415065152
 30
0.0
 10
3.348649833953232
 20
-42.12367455863762
 30
0.0
 10
3.333268974578232
 20
-42.0309418112418
 30
0.0
 10
3.333268974578232
 20
-42.0309418112418
 30
0.0
 10
3.304297620411565
 20
-41.8512814379779
 30
0.0
 10
3.304297620411565
 20
-41.8512814379779
 30
0.0
 10
3.196061943328232
 20
-41.8435910082904
 30
0.0
 10
3.091759642981009
 20
-41.83969832165846
 30
0.0
 10
2.991329684213648
 20
-41.83969832165846
 30
0.0
 10
2.867631767546982
 20
-41.83969832165846
 30
0.0
 10
2.751726005828232
 20
-41.84548987981818
 30
0.0
 10
2.643598835689343
 20
-41.85708655950568
 30
0.0
 10
2.643598835689343
 20
-41.85708655950568
 30
0.0
 10
2.620419039682398
 20
-43.32334089978346
 30
0.0
 10
2.620419039682398
 20
-43.32334089978346
 30
0.0
 10
2.620419039682398
 20
-43.32334089978346
 30
0.0
 10
3.959164156869898
 20
-43.32334089978346
 30
0.0
 10
3.959164156869898
 20
-43.32334089978346
 30
0.0
 10
4.051910467633787
 20
-43.32334089978346
 30
0.0
 10
4.117557169022676
 20
-43.2798703051654
 30
0.0
 10
4.156212767981009
 20
-43.19294267929735
 30
0.0
 10
4.194786986731009
 20
-43.10600149006124
 30
0.0
 10
4.21898403534212
 20
-43.0055783129779
 30
0.0
 10
4.228668280133787
 20
-42.89157820447096
 30
0.0
 10
4.23827114471712
 20
-42.77765947617235
 30
0.0
 10
4.287533297494898
 20
-42.72061195013068
 30
0.0
 10
4.37645473846712
 20
-42.72061195013068
 30
0.0
 10
4.461388549231009
 20
-42.72061195013068
 30
0.0
 10
4.503950398189343
 20
-42.7534759909293
 30
0.0
 10
4.503950398189343
 20
-42.81913625568624
 30
0.0
 10
4.503950398189343
 20
-43.16686032252652
 30
0.0
 10
4.48167934784212
 20
-43.39487410290846
 30
0.0
 10
4.437300007564343
 20
-43.50300127304735
 30
0.0
 10
4.392839287078232
 20
-43.61120982339457
 30
0.0
 10
4.299116413814343
 20
-43.66527340846402
 30
0.0
 10
4.156212767981009
 20
-43.66527340846402
 30
0.0
 10
4.156212767981009
 20
-43.66527340846402
 30
0.0
 10
2.405988972408093
 20
-43.66527340846402
 30
0.0
 10
2.405988972408093
 20
-43.66527340846402
 30
0.0
 10
2.344140014074759
 20
-43.66527340846402
 30
0.0
 10
2.197350463293509
 20
-43.66327959335985
 30
0.0
 10
1.965532158171982
 20
-43.6594818503043
 30
0.0
 10
1.733713853050454
 20
-43.6555756003043
 30
0.0
 10
1.578142021453232
 20
-43.64978404214457
 30
0.0
 10
1.498992987165037
 20
-43.64209361245707
 30
0.0
 10
1.419755790984482
 20
-43.63438961940152
 30
0.0
 10
1.380184664682398
 20
-43.59572045707512
 30
0.0
 10
1.380184664682398
 20
-43.5261810690543
 30
0.0
 10
1.380184664682398
 20
-43.43344832165846
 30
0.0
 10
1.414961140376843
 20
-43.37549204995707
 30
0.0
 10
1.484507310081704
 20
-43.35231225395012
 30
0.0
 10
1.554053479786565
 20
-43.32913245794318
 30
0.0
 10
1.633195732390732
 20
-43.31373803520012
 30
0.0
 10
1.722117173362954
 20
-43.30595266193624
 30
0.0
 10
1.733713853050454
 20
-43.21711260117235
 30
0.0
 10
1.745303751053926
 20
-42.59890784856818
 30
0.0
 10
1.756893649057398
 20
-41.45140622096402
 30
0.0
 10
1.756893649057398
 20
-40.37344398138068
 30
0.0
 10
1.749108275793509
 20
-39.71665144665846
 30
0.0
 10
1.733713853050454
 20
-39.48093367322096
 30
0.0
 10
1.733713853050454
 20
-39.48093367322096
 30
0.0
 10
1.635189547494898
 20
-39.48093367322096
 30
0.0
 10
1.635189547494898
 20
-39.48093367322096
 30
0.0
 10
1.472917412078232
 20
-39.48093367322096
 30
0.0
 10
1.391774562685871
 20
-39.43846676783902
 30
0.0
 10
1.391774562685871
 20
-39.35343801349874
 30
0.0
 10
1.391774562685871
 20
-39.24531084335985
 30
0.0
 10
1.463226385602537
 20
-39.19116587808207
 30
0.0
 10
1.606211411644204
 20
-39.19116587808207
 30
0.0
 10
2.104624497581704
 20
-39.19116587808207
 30
0.0
 10
2.528595037946287
 20
-39.18826331731818
 30
0.0
 10
2.878319701574759
 20
-39.18247175915846
 30
0.0
 10
3.227935858258787
 20
-39.17668020099874
 30
0.0
 10
3.553483818328232
 20
-39.17187876870707
 30
0.0
 10
3.854861856522676
 20
-39.16798608207512
 30
0.0
 10
4.364844495411565
 20
-39.16798608207512
 30
0.0
 10
4.61986294159212
 20
-39.3438351489154
 30
0.0
 10
4.61986294159212
 20
-39.6953705221793
 30
0.0
 10
4.61986294159212
 20
-39.80357907252652
 30
0.0
 10
4.581180215897676
 20
-39.90400224960985
 30
0.0
 10
4.503950398189343
 20
-39.99673499700568
 30
0.0
 10
4.426612073536565
 20
-40.08946774440152
 30
0.0
 10
4.314605780133787
 20
-40.1358273364154
 30
0.0
 10
4.167823011036565
 20
-40.1358273364154
 30
0.0
 10
4.040300224578232
 20
-40.1358273364154
 30
0.0
 10
3.939795667286565
 20
-40.09915198919318
 30
0.0
 10
3.866444972842121
 20
-40.02570635117235
 30
0.0
 10
3.793012898189343
 20
-39.95236922009596
 30
0.0
 10
3.756337550967121
 20
-39.8538449145404
 30
0.0
 10
3.756337550967121
 20
-39.73014699787374
 30
0.0
  0
HATCH
  5
53
330
41
100
AcDbEntity
  8
Layer 1
 62
   250
420
  2301728
100
AcDbHatch
 10
0.0
 20
0.0
 30
0.0
210
0.0
220
0.0
230
1.0
  2
SOLID
 70
     1
 71
     0
 91
        1
 92
        1
 93
        1
 72
     4
 94
        3
 73
     0
 74
     1
 95
      122
 96
      118
 40
0.0
 40
0.0
 40
0.0
 40
0.0
 40
1.0
 40
1.0
 40
1.0
 40
2.0
 40
2.0
 40
2.0
 40
3.0
 40
3.0
 40
3.0
 40
4.0
 40
4.0
 40
4.0
 40
5.0
 40
5.0
 40
5.0
 40
6.0
 40
6.0
 40
6.0
 40
7.0
 40
7.0
 40
7.0
 40
8.0
 40
8.0
 40
8.0
 40
9.0
 40
9.0
 40
9.0
 40
10.0
 40
10.0
 40
10.0
 40
11.0
 40
11.0
 40
11.0
 40
12.0
 40
12.0
 40
12.0
 40
13.0
 40
13.0
 40
13.0
 40
14.0
 40
14.0
 40
14.0
 40
15.0
 40
15.0
 40
15.0
 40
16.0
 40
16.0
 40
16.0
 40
17.0
 40
17.0
 40
17.0
 40
18.0
 40
18.0
 40
18.0
 40
19.0
 40
19.0
 40
19.0
 40
20.0
 40
20.0
 40
20.0
 40
21.0
 40
21.0
 40
21.0
 40
22.0
 40
22.0
 40
22.0
 40
23.0
 40
23.0
 40
23.0
 40
24.0
 40
24.0
 40
24.0
 40
25.0
 40
25.0
 40
25.0
 40
26.0
 40
26.0
 40
26.0
 40
27.0
 40
27.0
 40
27.0
 40
28.0
 40
28.0
 40
28.0
 40
29.0
 40
29.0
 40
29.0
 40
30.0
 40
30.0
 40
30.0
 40
31.0
 40
31.0
 40
31.0
 40
32.0
 40
32.0
 40
32.0
 40
33.0
 40
33.0
 40
33.0
 40
34.0
 40
34.0
 40
34.0
 40
35.0
 40
35.0
 40
35.0
 40
36.0
 40
36.0
 40
36.0
 40
37.0
 40
37.0
 40
37.0
 40
38.0
 40
38.0
 40
38.0
 40
39.0
 40
39.0
 40
39.0
 40
39.0
 10
3.756337550967121
 20
-39.73014699787374
 10
3.756337550967121
 20
-39.64130693710985
 10
3.775624660342121
 20
-39.5543793112418
 10
3.814280259300454
 20
-39.46935055690152
 10
3.211551309647676
 20
-39.46935055690152
 10
2.813568182477537
 20
-39.47514211506124
 10
2.620419039682398
 20
-39.48673879474874
 10
2.624223564421982
 20
-40.59946394665846
 10
2.632008937685871
 20
-41.2814300924918
 10
2.643598835689343
 20
-41.53254228867235
 10
2.643598835689343
 20
-41.53254228867235
 10
3.298492498883787
 20
-41.52094560898485
 10
3.298492498883787
 20
-41.52094560898485
 10
3.313873358258787
 20
-41.43210554822096
 10
3.332265285342121
 20
-41.3567746020404
 10
3.353559773189343
 20
-41.29492564370707
 10
3.374745754092121
 20
-41.23315806558207
 10
3.416303913814343
 20
-41.20219289631124
 10
3.478152872147676
 20
-41.20219289631124
 10
3.536095580481009
 20
-41.20219289631124
 10
3.576677177703232
 20
-41.2350705004779
 10
3.599843410342121
 20
-41.3007172018668
 10
3.615251396453232
 20
-41.34327905082512
 10
3.624935641244898
 20
-41.56540632947096
 10
3.628841891244898
 20
-41.96719398138068
 10
3.628841891244898
 20
-42.10248857773485
 10
3.590159165550454
 20
-42.17003415065152
 10
3.512929347842121
 20
-42.17003415065152
 10
3.408599920758787
 20
-42.17003415065152
 10
3.348649833953232
 20
-42.12367455863762
 10
3.333268974578232
 20
-42.0309418112418
 10
3.333268974578232
 20
-42.0309418112418
 10
3.304297620411565
 20
-41.8512814379779
 10
3.304297620411565
 20
-41.8512814379779
 10
3.196061943328232
 20
-41.8435910082904
 10
3.091759642981009
 20
-41.83969832165846
 10
2.991329684213648
 20
-41.83969832165846
 10
2.867631767546982
 20
-41.83969832165846
 10
2.751726005828232
 20
-41.84548987981818
 10
2.643598835689343
 20
-41.85708655950568
 10
2.643598835689343
 20
-41.85708655950568
 10
2.620419039682398
 20
-43.32334089978346
 10
2.620419039682398
 20
-43.32334089978346
 10
2.620419039682398
 20
-43.32334089978346
 10
3.959164156869898
 20
-43.32334089978346
 10
3.959164156869898
 20
-43.32334089978346
 10
4.051910467633787
 20
-43.32334089978346
 10
4.117557169022676
 20
-43.2798703051654
 10
4.156212767981009
 20
-43.19294267929735
 10
4.194786986731009
 20
-43.10600149006124
 10
4.21898403534212
 20
-43.0055783129779
 10
4.228668280133787
 20
-42.89157820447096
 10
4.23827114471712
 20
-42.77765947617235
 10
4.287533297494898
 20
-42.72061195013068
 10
4.37645473846712
 20
-42.72061195013068
 10
4.461388549231009
 20
-42.72061195013068
 10
4.503950398189343
 20
-42.7534759909293
 10
4.503950398189343
 20
-42.81913625568624
 10
4.503950398189343
 20
-43.16686032252652
 10
4.48167934784212
 20
-43.39487410290846
 10
4.437300007564343
 20
-43.50300127304735
 10
4.392839287078232
 20
-43.61120982339457
 10
4.299116413814343
 20
-43.66527340846402
 10
4.156212767981009
 20
-43.66527340846402
 10
4.156212767981009
 20
-43.66527340846402
 10
2.405988972408093
 20
-43.66527340846402
 10
2.405988972408093
 20
-43.66527340846402
 10
2.344140014074759
 20
-43.66527340846402
 10
2.197350463293509
 20
-43.66327959335985
 10
1.965532158171982
 20
-43.6594818503043
 10
1.733713853050454
 20
-43.6555756003043
 10
1.578142021453232
 20
-43.64978404214457
 10
1.498992987165037
 20
-43.64209361245707
 10
1.419755790984482
 20
-43.63438961940152
 10
1.380184664682398
 20
-43.59572045707512
 10
1.380184664682398
 20
-43.5261810690543
 10
1.380184664682398
 20
-43.43344832165846
 10
1.414961140376843
 20
-43.37549204995707
 10
1.484507310081704
 20
-43.35231225395012
 10
1.554053479786565
 20
-43.32913245794318
 10
1.633195732390732
 20
-43.31373803520012
 10
1.722117173362954
 20
-43.30595266193624
 10
1.733713853050454
 20
-43.21711260117235
 10
1.745303751053926
 20
-42.59890784856818
 10
1.756893649057398
 20
-41.45140622096402
 10
1.756893649057398
 20
-40.37344398138068
 10
1.749108275793509
 20
-39.71665144665846
 10
1.733713853050454
 20
-39.48093367322096
 10
1.733713853050454
 20
-39.48093367322096
 10
1.635189547494898
 20
-39.48093367322096
 10
1.635189547494898
 20
-39.48093367322096
 10
1.472917412078232
 20
-39.48093367322096
 10
1.391774562685871
 20
-39.43846676783902
 10
1.391774562685871
 20
-39.35343801349874
 10
1.391774562685871
 20
-39.24531084335985
 10
1.463226385602537
 20
-39.19116587808207
 10
1.606211411644204
 20
-39.19116587808207
 10
2.104624497581704
 20
-39.19116587808207
 10
2.528595037946287
 20
-39.18826331731818
 10
2.878319701574759
 20
-39.18247175915846
 10
3.227935858258787
 20
-39.17668020099874
 10
3.553483818328232
 20
-39.17187876870707
 10
3.854861856522676
 20
-39.16798608207512
 10
4.364844495411565
 20
-39.16798608207512
 10
4.61986294159212
 20
-39.3438351489154
 10
4.61986294159212
 20
-39.6953705221793
 10
4.61986294159212
 20
-39.80357907252652
 10
4.581180215897676
 20
-39.90400224960985
 10
4.503950398189343
 20
-39.99673499700568
 10
4.426612073536565
 20
-40.08946774440152
 10
4.314605780133787
 20
-40.1358273364154
 10
4.167823011036565
 20
-40.1358273364154
 10
4.040300224578232
 20
-40.1358273364154
 10
3.939795667286565
 20
-40.09915198919318
 10
3.866444972842121
 20
-40.02570635117235
 10
3.793012898189343
 20
-39.95236922009596
 10
3.756337550967121
 20
-39.8538449145404
 10
3.756337550967121
 20
-39.73014699787374
 97
        0
 97
        0
 75
     2
 76
     1
 98
        0
  0
SPLINE
  5
54
330
41
100
AcDbEntity
  8
Layer 1
370
     0
100
AcDbSpline
210
0.0
220
0.0
230
1.0
 70
    11
 71
     3
 72
   176
 73
   172
 74
     0
 42
0.0000000001
 43
0.0000000001
 12
1.0
 22
0.0
 32
0.0
 13
1.0
 23
0.0
 33
0.0
 40
0.0
 40
0.0
 40
0.0
 40
0.0
 40
1.0
 40
1.0
 40
1.0
 40
2.0
 40
2.0
 40
2.0
 40
3.0
 40
3.0
 40
3.0
 40
4.0
 40
4.0
 40
4.0
 40
5.0
 40
5.0
 40
5.0
 40
6.0
 40
6.0
 40
6.0
 40
7.0
 40
7.0
 40
7.0
 40
8.0
 40
8.0
 40
8.0
 40
9.0
 40
9.0
 40
9.0
 40
10.0
 40
10.0
 40
10.0
 40
11.0
 40
11.0
 40
11.0
 40
12.0
 40
12.0
 40
12.0
 40
13.0
 40
13.0
 40
13.0
 40
14.0
 40
14.0
 40
14.0
 40
15.0
 40
15.0
 40
15.0
 40
16.0
 40
16.0
 40
16.0
 40
17.0
 40
17.0
 40
17.0
 40
18.0
 40
18.0
 40
18.0
 40
19.0
 40
19.0
 40
19.0
 40
20.0
 40
20.0
 40
20.0
 40
21.0
 40
21.0
 40
21.0
 40
22.0
 40
22.0
 40
22.0
 40
23.0
 40
23.0
 40
23.0
 40
24.0
 40
24.0
 40
24.0
 40
25.0
 40
25.0
 40
25.0
 40
26.0
 40
26.0
 40
26.0
 40
27.0
 40
27.0
 40
27.0
 40
28.0
 40
28.0
 40
28.0
 40
29.0
 40
29.0
 40
29.0
 40
30.0
 40
30.0
 40
30.0
 40
31.0
 40
31.0
 40
31.0
 40
32.0
 40
32.0
 40
32.0
 40
33.0
 40
33.0
 40
33.0
 40
34.0
 40
34.0
 40
34.0
 40
35.0
 40
35.0
 40
35.0
 40
36.0
 40
36.0
 40
36.0
 40
37.0
 40
37.0
 40
37.0
 40
38.0
 40
38.0
 40
38.0
 40
39.0
 40
39.0
 40
39.0
 40
40.0
 40
40.0
 40
40.0
 40
41.0
 40
41.0
 40
41.0
 40
42.0
 40
42.0
 40
42.0
 40
43.0
 40
43.0
 40
43.0
 40
44.0
 40
44.0
 40
44.0
 40
45.0
 40
45.0
 40
45.0
 40
46.0
 40
46.0
 40
46.0
 40
47.0
 40
47.0
 40
47.0
 40
48.0
 40
48.0
 40
48.0
 40
49.0
 40
49.0
 40
49.0
 40
50.0
 40
50.0
 40
50.0
 40
51.0
 40
51.0
 40
51.0
 40
52.0
 40
52.0
 40
52.0
 40
53.0
 40
53.0
 40
53.0
 40
54.0
 40
54.0
 40
54.0
 40
55.0
 40
55.0
 40
55.0
 40
56.0
 40
56.0
 40
56.0
 40
57.0
 40
57.0
 40
57.0
 40
57.0
 10
6.822766554664364
 20
-3.19285955463983
 30
0.0
 10
6.645933295929555
 20
-3.098917972066046
 30
0.0
 10
6.524369066600128
 20
-2.911039045470993
 30
0.0
 10
6.413855591393965
 20
-2.78394350510641
 30
0.0
 10
6.264656847361847
 20
-2.684480784023511
 30
0.0
 10
6.115458103329729
 20
-2.573962222554327
 30
0.0
 10
5.949676446428687
 20
-2.49107732807733
 30
0.0
 10
5.949676446428687
 20
-2.485551103305195
 30
0.0
 10
5.949676446428687
 20
-2.485551103305195
 30
0.0
 10
5.944157003340579
 20
-2.485551103305195
 30
0.0
 10
5.944157003340579
 20
-2.485551103305195
 30
0.0
 10
5.944157003340579
 20
-2.485551103305195
 30
0.0
 10
5.93862484459492
 20
-2.485551103305195
 30
0.0
 10
5.93862484459492
 20
-2.474500349181931
 30
0.0
 10
5.933105401506812
 20
-2.485551103305195
 30
0.0
 10
5.93862484459492
 20
-2.485551103305195
 30
0.0
 10
5.993893026289798
 20
-2.656853051004848
 30
0.0
 10
6.176246575823218
 20
-2.877885087680195
 30
0.0
 10
6.076772834503774
 20
-3.104443349127678
 30
0.0
 10
6.0270478317911
 20
-3.132071929856844
 30
0.0
 10
5.960728048262454
 20
-3.121020328023077
 30
0.0
 10
5.916522488637889
 20
-3.104443349127678
 30
0.0
 10
5.678913473067142
 20
-2.99945609869365
 30
0.0
 10
5.579450751984242
 20
-2.64580144917108
 30
0.0
 10
5.573919440949086
 20
-2.325301605149813
 30
0.0
 10
5.319739380456465
 20
-2.203730594136358
 30
0.0
 10
5.021341892392229
 20
-2.126371924431497
 30
0.0
 10
4.739526469486413
 20
-2.032429494147209
 30
0.0
 10
4.800303074032854
 20
-2.142948903326896
 30
0.0
 10
5.087649807973826
 20
-2.468974124409796
 30
0.0
 10
4.87214314836011
 20
-2.596064578511358
 30
0.0
 10
4.822406277700389
 20
-2.601590803283493
 30
0.0
 10
4.778200718075823
 20
-2.590539201449726
 30
0.0
 10
4.745046760285024
 20
-2.579487599615959
 30
0.0
 10
4.485334541046742
 20
-2.480025726243563
 30
0.0
 10
4.269827881433027
 20
-2.170576636345559
 30
0.0
 10
4.197988654816274
 20
-1.894282351948858
 30
0.0
 10
3.888539564918271
 20
-1.805871232699726
 30
0.0
 10
3.540417074141361
 20
-1.756140296013528
 30
0.0
 10
3.170179511749868
 20
-1.722980404249205
 30
0.0
 10
3.302796190623566
 20
-1.84455141526266
 30
0.0
 10
3.529365472307593
 20
-1.971646955627244
 30
0.0
 10
3.606724989722958
 20
-2.165051259283928
 30
0.0
 10
3.656449992435632
 20
-2.275570668463615
 30
0.0
 10
3.595673387889191
 20
-2.352929338168476
 30
0.0
 10
3.485148892446482
 20
-2.363980940002243
 30
0.0
 10
3.297275899824955
 20
-2.375032541836011
 30
0.0
 10
3.114923198002038
 20
-2.247936153760924
 30
0.0
 10
2.993358968672611
 20
-2.142948903326896
 30
0.0
 10
2.8496796677286
 20
-2.021377892313442
 30
0.0
 10
2.761269396189972
 20
-1.872179148281323
 30
0.0
 10
2.689429321862728
 20
-1.734032006082973
 30
0.0
 10
2.35787787600768
 20
-1.756140296013528
 30
0.0
 10
2.059480387943444
 20
-1.816922834533494
 30
0.0
 10
1.772146369660024
 20
-1.888756127176723
 30
0.0
 10
1.998703783397003
 20
-1.96059620150398
 30
0.0
 10
2.324723918216894
 20
-2.043481095980976
 30
0.0
 10
2.379981079675228
 20
-2.292147647359014
 30
0.0
 10
2.407614746667403
 20
-2.413711876688442
 30
0.0
 10
2.341306831085805
 20
-2.463448747348164
 30
0.0
 10
2.241833089766361
 20
-2.474500349181931
 30
0.0
 10
2.07606330081238
 20
-2.49107732807733
 30
0.0
 10
1.882658997155684
 20
-2.441340457417608
 30
0.0
 10
1.738991564158722
 20
-2.380557918897643
 30
0.0
 10
1.529005195343605
 20
-2.286621422586879
 30
0.0
 10
1.3798064513115
 20
-2.192679840013094
 30
0.0
 10
1.302446933896135
 20
-2.010327138190178
 30
0.0
 10
0.9377415302503019
 20
-2.120845699659362
 30
0.0
 10
0.5785555696925763
 20
-2.242410776699292
 30
0.0
 10
0.2470041238375416
 20
-2.397134897793042
 30
0.0
 10
0.4956766091891041
 20
-2.49107732807733
 30
0.0
 10
0.7111832688028193
 20
-2.612641557406758
 30
0.0
 10
0.8769530577568123
 20
-2.794994259229674
 30
0.0
 10
0.9211586173813783
 20
-2.844731129889396
 30
0.0
 10
1.00956973663051
 20
-2.93866762620016
 30
0.0
 10
0.9985181347967429
 20
-3.021558454650681
 30
0.0
 10
0.9874665329629755
 20
-3.09339174729391
 30
0.0
 10
0.8548507017997811
 20
-3.126545705084709
 30
0.0
 10
0.7553888284273853
 20
-3.126545705084709
 30
0.0
 10
0.3077925963310311
 20
-3.126545705084709
 30
0.0
 10
0.0646514220146249
 20
-2.778417280334275
 30
0.0
 10
-0.1508552375990904
 20
-2.529756662929761
 30
0.0
 10
-0.4768753724189688
 20
-2.667903805128112
 30
0.0
 10
-0.7255359898234827
 20
-2.88341131245233
 30
0.0
 10
-0.9631568733412779
 20
-3.121020328023077
 30
0.0
 10
-1.023933477887719
 20
-3.181808800516567
 30
0.0
 10
-1.10129214759258
 20
-3.347584523444084
 30
0.0
 10
-1.200765888912024
 20
-3.353109900505716
 30
0.0
 10
-1.256023050370358
 20
-3.353109900505716
 30
0.0
 10
-1.344433321908986
 20
-3.303373029845993
 30
0.0
 10
-1.349964632944142
 20
-3.248116716098163
 30
0.0
 10
-1.355484923742754
 20
-3.19285955463983
 30
0.0
 10
-1.289177008161156
 20
-3.132071929856844
 30
0.0
 10
-1.256023050370358
 20
-3.087866370232278
 30
0.0
 10
-0.9852592292983091
 20
-2.750789547315612
 30
0.0
 10
-0.6205538256524757
 20
-2.49107732807733
 30
0.0
 10
-0.2503171109714862
 20
-2.297673024420646
 30
0.0
 10
-0.2282139073039515
 20
-2.060058074876375
 30
0.0
 10
-0.1729575935561216
 20
-1.827974436367261
 30
0.0
 10
-0.0900667651056008
 20
-1.640095509772209
 30
0.0
 10
-0.00717593665508
 20
-1.463268185010924
 30
0.0
 10
0.0978053798054235
 20
-1.258813127230976
 30
0.0
 10
0.346477865156986
 20
-1.253287750169344
 30
0.0
 10
0.556453213735545
 20
-1.336172644646341
 30
0.0
 10
0.5509337706474373
 20
-1.772717274908928
 30
0.0
 10
0.4514600293279929
 20
-1.982698557461011
 30
0.0
 10
0.6724979999768644
 20
-1.916390641879414
 30
0.0
 10
0.9266899284165345
 20
-1.833499813428893
 30
0.0
 10
1.18087083661966
 20
-1.783768876742695
 30
0.0
 10
1.136665276995094
 20
-1.496422990512226
 30
0.0
 10
1.280344577939104
 20
-1.275390106126375
 30
0.0
 10
1.407440118303675
 20
-1.109614383198858
 30
0.0
 10
1.51795359350985
 20
-0.9659410162283721
 30
0.0
 10
1.67267262834058
 20
-0.8388454758637888
 30
0.0
 10
1.882658997155684
 20
-0.8498962299870527
 30
0.0
 10
2.026326430152658
 20
-1.081985802469692
 30
0.0
 10
1.87160824303242
 20
-1.463268185010924
 30
0.0
 10
1.772146369660024
 20
-1.645621734544344
 30
0.0
 10
2.04842963382018
 20
-1.601416174919778
 30
0.0
 10
2.319204475128774
 20
-1.557204681321688
 30
0.0
 10
2.62312140628113
 20
-1.540627702426289
 30
0.0
 10
2.700480923696482
 20
-1.236710771273945
 30
0.0
 10
2.838628065894833
 20
-0.8056915180729902
 30
0.0
 10
3.114923198002038
 20
-0.7117550217622263
 30
0.0
 10
3.275173543867923
 20
-0.6564927740408721
 30
0.0
 10
3.369115126441708
 20
-0.739383602491393
 30
0.0
 10
3.380166728275475
 20
-0.8775307446897437
 30
0.0
 10
3.413320686066274
 20
-1.170396921718823
 30
0.0
 10
3.258590630999
 20
-1.358275000603372
 30
0.0
 10
3.159128757626604
 20
-1.52405072353089
 30
0.0
 10
3.529365472307593
 20
-1.52405072353089
 30
0.0
 10
3.866437208961239
 20
-1.562735992356844
 30
0.0
 10
4.192457343781117
 20
-1.612466929043042
 30
0.0
 10
4.236673923642229
 20
-1.45221743088766
 30
0.0
 10
4.341656087813236
 20
-1.347223398769605
 30
0.0
 10
4.490854831845354
 20
-1.253287750169344
 30
0.0
 10
4.640053575877472
 20
-1.159345319885056
 30
0.0
 10
4.927399462107941
 20
-1.010146575852938
 30
0.0
 10
5.087649807973826
 20
-1.126191362094257
 30
0.0
 10
5.10423272084275
 20
-1.23118454650181
 30
0.0
 10
5.04344424834926
 20
-1.330646419874205
 30
0.0
 10
4.999238688724694
 20
-1.413537248324726
 30
0.0
 10
4.932930773143097
 20
-1.540627702426289
 30
0.0
 10
4.850039944692576
 20
-1.651147111605976
 30
0.0
 10
4.717412245582333
 20
-1.706403425353806
 30
0.0
 10
5.037912937314104
 20
-1.811397457471862
 30
0.0
 10
5.363944092370527
 20
-1.910859330844257
 30
0.0
 10
5.645759515276343
 20
-2.05453185010424
 30
0.0
 10
5.76732374460577
 20
-1.94401922260858
 30
0.0
 10
5.922053799673045
 20
-1.783768876742695
 30
0.0
 10
6.109926792294573
 20
-1.717455027187573
 30
0.0
 10
6.209400533614017
 20
-1.678775692335143
 30
0.0
 10
6.397272678525042
 20
-1.667724090501375
 30
0.0
 10
6.447009549184763
 20
-1.761666520785664
 30
0.0
 10
6.491215108809329
 20
-1.839025190490525
 30
0.0
 10
6.424907193227732
 20
-1.966121578565612
 30
0.0
 10
6.386221076691274
 20
-2.021377892313442
 30
0.0
 10
6.308862406986413
 20
-2.148474280388528
 30
0.0
 10
6.214919976702125
 20
-2.214782195970125
 30
0.0
 10
6.093355747372698
 20
-2.275570668463615
 30
0.0
 10
6.220451287737281
 20
-2.363980940002243
 30
0.0
 10
6.353067118900475
 20
-2.44686583447924
 30
0.0
 10
6.485683797774173
 20
-2.524231285868129
 30
0.0
 10
6.811714952830597
 20
-2.496602705138962
 30
0.0
 10
7.071427172068878
 20
-2.634749847337313
 30
0.0
 10
7.220625916100996
 20
-2.822628773932365
 30
0.0
 10
7.270362786760718
 20
-2.877885087680195
 30
0.0
 10
7.342190145430423
 20
-2.971821583990959
 30
0.0
 10
7.347722304176083
 20
-3.043660810607712
 30
0.0
 10
7.386407573002038
 20
-3.308898406907625
 30
0.0
 10
6.97748474178459
 20
-3.270219072055195
 30
0.0
 10
6.822766554664364
 20
-3.19285955463983
 30
0.0
  0
HATCH
  5
55
330
41
100
AcDbEntity
  8
Layer 1
 62
   250
420
  2301728
100
AcDbHatch
 10
0.0
 20
0.0
 30
0.0
210
0.0
220
0.0
230
1.0
  2
SOLID
 70
     1
 71
     0
 91
        1
 92
        1
 93
        1
 72
     4
 94
        3
 73
     0
 74
     1
 95
      176
 96
      172
 40
0.0
 40
0.0
 40
0.0
 40
0.0
 40
1.0
 40
1.0
 40
1.0
 40
2.0
 40
2.0
 40
2.0
 40
3.0
 40
3.0
 40
3.0
 40
4.0
 40
4.0
 40
4.0
 40
5.0
 40
5.0
 40
5.0
 40
6.0
 40
6.0
 40
6.0
 40
7.0
 40
7.0
 40
7.0
 40
8.0
 40
8.0
 40
8.0
 40
9.0
 40
9.0
 40
9.0
 40
10.0
 40
10.0
 40
10.0
 40
11.0
 40
11.0
 40
11.0
 40
12.0
 40
12.0
 40
12.0
 40
13.0
 40
13.0
 40
13.0
 40
14.0
 40
14.0
 40
14.0
 40
15.0
 40
15.0
 40
15.0
 40
16.0
 40
16.0
 40
16.0
 40
17.0
 40
17.0
 40
17.0
 40
18.0
 40
18.0
 40
18.0
 40
19.0
 40
19.0
 40
19.0
 40
20.0
 40
20.0
 40
20.0
 40
21.0
 40
21.0
 40
21.0
 40
22.0
 40
22.0
 40
22.0
 40
23.0
 40
23.0
 40
23.0
 40
24.0
 40
24.0
 40
24.0
 40
25.0
 40
25.0
 40
25.0
 40
26.0
 40
26.0
 40
26.0
 40
27.0
 40
27.0
 40
27.0
 40
28.0
 40
28.0
 40
28.0
 40
29.0
 40
29.0
 40
29.0
 40
30.0
 40
30.0
 40
30.0
 40
31.0
 40
31.0
 40
31.0
 40
32.0
 40
32.0
 40
32.0
 40
33.0
 40
33.0
 40
33.0
 40
34.0
 40
34.0
 40
34.0
 40
35.0
 40
35.0
 40
35.0
 40
36.0
 40
36.0
 40
36.0
 40
37.0
 40
37.0
 40
37.0
 40
38.0
 40
38.0
 40
38.0
 40
39.0
 40
39.0
 40
39.0
 40
40.0
 40
40.0
 40
40.0
 40
41.0
 40
41.0
 40
41.0
 40
42.0
 40
42.0
 40
42.0
 40
43.0
 40
43.0
 40
43.0
 40
44.0
 40
44.0
 40
44.0
 40
45.0
 40
45.0
 40
45.0
 40
46.0
 40
46.0
 40
46.0
 40
47.0
 40
47.0
 40
47.0
 40
48.0
 40
48.0
 40
48.0
 40
49.0
 40
49.0
 40
49.0
 40
50.0
 40
50.0
 40
50.0
 40
51.0
 40
51.0
 40
51.0
 40
52.0
 40
52.0
 40
52.0
 40
53.0
 40
53.0
 40
53.0
 40
54.0
 40
54.0
 40
54.0
 40
55.0
 40
55.0
 40
55.0
 40
56.0
 40
56.0
 40
56.0
 40
57.0
 40
57.0
 40
57.0
 40
57.0
 10
6.822766554664364
 20
-3.19285955463983
 10
6.645933295929555
 20
-3.098917972066046
 10
6.524369066600128
 20
-2.911039045470993
 10
6.413855591393965
 20
-2.78394350510641
 10
6.264656847361847
 20
-2.684480784023511
 10
6.115458103329729
 20
-2.573962222554327
 10
5.949676446428687
 20
-2.49107732807733
 10
5.949676446428687
 20
-2.485551103305195
 10
5.949676446428687
 20
-2.485551103305195
 10
5.944157003340579
 20
-2.485551103305195
 10
5.944157003340579
 20
-2.485551103305195
 10
5.944157003340579
 20
-2.485551103305195
 10
5.93862484459492
 20
-2.485551103305195
 10
5.93862484459492
 20
-2.474500349181931
 10
5.933105401506812
 20
-2.485551103305195
 10
5.93862484459492
 20
-2.485551103305195
 10
5.993893026289798
 20
-2.656853051004848
 10
6.176246575823218
 20
-2.877885087680195
 10
6.076772834503774
 20
-3.104443349127678
 10
6.0270478317911
 20
-3.132071929856844
 10
5.960728048262454
 20
-3.121020328023077
 10
5.916522488637889
 20
-3.104443349127678
 10
5.678913473067142
 20
-2.99945609869365
 10
5.579450751984242
 20
-2.64580144917108
 10
5.573919440949086
 20
-2.325301605149813
 10
5.319739380456465
 20
-2.203730594136358
 10
5.021341892392229
 20
-2.126371924431497
 10
4.739526469486413
 20
-2.032429494147209
 10
4.800303074032854
 20
-2.142948903326896
 10
5.087649807973826
 20
-2.468974124409796
 10
4.87214314836011
 20
-2.596064578511358
 10
4.822406277700389
 20
-2.601590803283493
 10
4.778200718075823
 20
-2.590539201449726
 10
4.745046760285024
 20
-2.579487599615959
 10
4.485334541046742
 20
-2.480025726243563
 10
4.269827881433027
 20
-2.170576636345559
 10
4.197988654816274
 20
-1.894282351948858
 10
3.888539564918271
 20
-1.805871232699726
 10
3.540417074141361
 20
-1.756140296013528
 10
3.170179511749868
 20
-1.722980404249205
 10
3.302796190623566
 20
-1.84455141526266
 10
3.529365472307593
 20
-1.971646955627244
 10
3.606724989722958
 20
-2.165051259283928
 10
3.656449992435632
 20
-2.275570668463615
 10
3.595673387889191
 20
-2.352929338168476
 10
3.485148892446482
 20
-2.363980940002243
 10
3.297275899824955
 20
-2.375032541836011
 10
3.114923198002038
 20
-2.247936153760924
 10
2.993358968672611
 20
-2.142948903326896
 10
2.8496796677286
 20
-2.021377892313442
 10
2.761269396189972
 20
-1.872179148281323
 10
2.689429321862728
 20
-1.734032006082973
 10
2.35787787600768
 20
-1.756140296013528
 10
2.059480387943444
 20
-1.816922834533494
 10
1.772146369660024
 20
-1.888756127176723
 10
1.998703783397003
 20
-1.96059620150398
 10
2.324723918216894
 20
-2.043481095980976
 10
2.379981079675228
 20
-2.292147647359014
 10
2.407614746667403
 20
-2.413711876688442
 10
2.341306831085805
 20
-2.463448747348164
 10
2.241833089766361
 20
-2.474500349181931
 10
2.07606330081238
 20
-2.49107732807733
 10
1.882658997155684
 20
-2.441340457417608
 10
1.738991564158722
 20
-2.380557918897643
 10
1.529005195343605
 20
-2.286621422586879
 10
1.3798064513115
 20
-2.192679840013094
 10
1.302446933896135
 20
-2.010327138190178
 10
0.9377415302503019
 20
-2.120845699659362
 10
0.5785555696925763
 20
-2.242410776699292
 10
0.2470041238375416
 20
-2.397134897793042
 10
0.4956766091891041
 20
-2.49107732807733
 10
0.7111832688028193
 20
-2.612641557406758
 10
0.8769530577568123
 20
-2.794994259229674
 10
0.9211586173813783
 20
-2.844731129889396
 10
1.00956973663051
 20
-2.93866762620016
 10
0.9985181347967429
 20
-3.021558454650681
 10
0.9874665329629755
 20
-3.09339174729391
 10
0.8548507017997811
 20
-3.126545705084709
 10
0.7553888284273853
 20
-3.126545705084709
 10
0.3077925963310311
 20
-3.126545705084709
 10
0.0646514220146249
 20
-2.778417280334275
 10
-0.1508552375990904
 20
-2.529756662929761
 10
-0.4768753724189688
 20
-2.667903805128112
 10
-0.7255359898234827
 20
-2.88341131245233
 10
-0.9631568733412779
 20
-3.121020328023077
 10
-1.023933477887719
 20
-3.181808800516567
 10
-1.10129214759258
 20
-3.347584523444084
 10
-1.200765888912024
 20
-3.353109900505716
 10
-1.256023050370358
 20
-3.353109900505716
 10
-1.344433321908986
 20
-3.303373029845993
 10
-1.349964632944142
 20
-3.248116716098163
 10
-1.355484923742754
 20
-3.19285955463983
 10
-1.289177008161156
 20
-3.132071929856844
 10
-1.256023050370358
 20
-3.087866370232278
 10
-0.9852592292983091
 20
-2.750789547315612
 10
-0.6205538256524757
 20
-2.49107732807733
 10
-0.2503171109714862
 20
-2.297673024420646
 10
-0.2282139073039515
 20
-2.060058074876375
 10
-0.1729575935561216
 20
-1.827974436367261
 10
-0.0900667651056008
 20
-1.640095509772209
 10
-0.00717593665508
 20
-1.463268185010924
 10
0.0978053798054235
 20
-1.258813127230976
 10
0.346477865156986
 20
-1.253287750169344
 10
0.556453213735545
 20
-1.336172644646341
 10
0.5509337706474373
 20
-1.772717274908928
 10
0.4514600293279929
 20
-1.982698557461011
 10
0.6724979999768644
 20
-1.916390641879414
 10
0.9266899284165345
 20
-1.833499813428893
 10
1.18087083661966
 20
-1.783768876742695
 10
1.136665276995094
 20
-1.496422990512226
 10
1.280344577939104
 20
-1.275390106126375
 10
1.407440118303675
 20
-1.109614383198858
 10
1.51795359350985
 20
-0.9659410162283721
 10
1.67267262834058
 20
-0.8388454758637888
 10
1.882658997155684
 20
-0.8498962299870527
 10
2.026326430152658
 20
-1.081985802469692
 10
1.87160824303242
 20
-1.463268185010924
 10
1.772146369660024
 20
-1.645621734544344
 10
2.04842963382018
 20
-1.601416174919778
 10
2.319204475128774
 20
-1.557204681321688
 10
2.62312140628113
 20
-1.540627702426289
 10
2.700480923696482
 20
-1.236710771273945
 10
2.838628065894833
 20
-0.8056915180729902
 10
3.114923198002038
 20
-0.7117550217622263
 10
3.275173543867923
 20
-0.6564927740408721
 10
3.369115126441708
 20
-0.739383602491393
 10
3.380166728275475
 20
-0.8775307446897437
 10
3.413320686066274
 20
-1.170396921718823
 10
3.258590630999
 20
-1.358275000603372
 10
3.159128757626604
 20
-1.52405072353089
 10
3.529365472307593
 20
-1.52405072353089
 10
3.866437208961239
 20
-1.562735992356844
 10
4.192457343781117
 20
-1.612466929043042
 10
4.236673923642229
 20
-1.45221743088766
 10
4.341656087813236
 20
-1.347223398769605
 10
4.490854831845354
 20
-1.253287750169344
 10
4.640053575877472
 20
-1.159345319885056
 10
4.927399462107941
 20
-1.010146575852938
 10
5.087649807973826
 20
-1.126191362094257
 10
5.10423272084275
 20
-1.23118454650181
 10
5.04344424834926
 20
-1.330646419874205
 10
4.999238688724694
 20
-1.413537248324726
 10
4.932930773143097
 20
-1.540627702426289
 10
4.850039944692576
 20
-1.651147111605976
 10
4.717412245582333
 20
-1.706403425353806
 10
5.037912937314104
 20
-1.811397457471862
 10
5.363944092370527
 20
-1.910859330844257
 10
5.645759515276343
 20
-2.05453185010424
 10
5.76732374460577
 20
-1.94401922260858
 10
5.922053799673045
 20
-1.783768876742695
 10
6.109926792294573
 20
-1.717455027187573
 10
6.209400533614017
 20
-1.678775692335143
 10
6.397272678525042
 20
-1.667724090501375
 10
6.447009549184763
 20
-1.761666520785664
 10
6.491215108809329
 20
-1.839025190490525
 10
6.424907193227732
 20
-1.966121578565612
 10
6.386221076691274
 20
-2.021377892313442
 10
6.308862406986413
 20
-2.148474280388528
 10
6.214919976702125
 20
-2.214782195970125
 10
6.093355747372698
 20
-2.275570668463615
 10
6.220451287737281
 20
-2.363980940002243
 10
6.353067118900475
 20
-2.44686583447924
 10
6.485683797774173
 20
-2.524231285868129
 10
6.811714952830597
 20
-2.496602705138962
 10
7.071427172068878
 20
-2.634749847337313
 10
7.220625916100996
 20
-2.822628773932365
 10
7.270362786760718
 20
-2.877885087680195
 10
7.342190145430423
 20
-2.971821583990959
 10
7.347722304176083
 20
-3.043660810607712
 10
7.386407573002038
 20
-3.308898406907625
 10
6.97748474178459
 20
-3.270219072055195
 10
6.822766554664364
 20
-3.19285955463983
 97
        0
 97
        0
 75
     2
 76
     1
 98
        0
  0
SPLINE
  5
56
330
41
100
AcDbEntity
  8
Layer 1
370
     0
100
AcDbSpline
210
0.0
220
0.0
230
1.0
 70
    11
 71
     3
 72
   176
 73
   172
 74
     0
 42
0.0000000001
 43
0.0000000001
 12
1.0
 22
0.0
 32
0.0
 13
1.0
 23
0.0
 33
0.0
 40
0.0
 40
0.0
 40
0.0
 40
0.0
 40
1.0
 40
1.0
 40
1.0
 40
2.0
 40
2.0
 40
2.0
 40
3.0
 40
3.0
 40
3.0
 40
4.0
 40
4.0
 40
4.0
 40
5.0
 40
5.0
 40
5.0
 40
6.0
 40
6.0
 40
6.0
 40
7.0
 40
7.0
 40
7.0
 40
8.0
 40
8.0
 40
8.0
 40
9.0
 40
9.0
 40
9.0
 40
10.0
 40
10.0
 40
10.0
 40
11.0
 40
11.0
 40
11.0
 40
12.0
 40
12.0
 40
12.0
 40
13.0
 40
13.0
 40
13.0
 40
14.0
 40
14.0
 40
14.0
 40
15.0
 40
15.0
 40
15.0
 40
16.0
 40
16.0
 40
16.0
 40
17.0
 40
17.0
 40
17.0
 40
18.0
 40
18.0
 40
18.0
 40
19.0
 40
19.0
 40
19.0
 40
20.0
 40
20.0
 40
20.0
 40
21.0
 40
21.0
 40
21.0
 40
22.0
 40
22.0
 40
22.0
 40
23.0
 40
23.0
 40
23.0
 40
24.0
 40
24.0
 40
24.0
 40
25.0
 40
25.0
 40
25.0
 40
26.0
 40
26.0
 40
26.0
 40
27.0
 40
27.0
 40
27.0
 40
28.0
 40
28.0
 40
28.0
 40
29.0
 40
29.0
 40
29.0
 40
30.0
 40
30.0
 40
30.0
 40
31.0
 40
31.0
 40
31.0
 40
32.0
 40
32.0
 40
32.0
 40
33.0
 40
33.0
 40
33.0
 40
34.0
 40
34.0
 40
34.0
 40
35.0
 40
35.0
 40
35.0
 40
36.0
 40
36.0
 40
36.0
 40
37.0
 40
37.0
 40
37.0
 40
38.0
 40
38.0
 40
38.0
 40
39.0
 40
39.0
 40
39.0
 40
40.0
 40
40.0
 40
40.0
 40
41.0
 40
41.0
 40
41.0
 40
42.0
 40
42.0
 40
42.0
 40
43.0
 40
43.0
 40
43.0
 40
44.0
 40
44.0
 40
44.0
 40
45.0
 40
45.0
 40
45.0
 40
46.0
 40
46.0
 40
46.0
 40
47.0
 40
47.0
 40
47.0
 40
48.0
 40
48.0
 40
48.0
 40
49.0
 40
49.0
 40
49.0
 40
50.0
 40
50.0
 40
50.0
 40
51.0
 40
51.0
 40
51.0
 40
52.0
 40
52.0
 40
52.0
 40
53.0
 40
53.0
 40
53.0
 40
54.0
 40
54.0
 40
54.0
 40
55.0
 40
55.0
 40
55.0
 40
56.0
 40
56.0
 40
56.0
 40
57.0
 40
57.0
 40
57.0
 40
57.0
 10
7.256023050370332
 20
-44.9121334458068
 30
0.0
 10
6.985259229298284
 20
-45.24921026872347
 30
0.0
 10
6.620553825652451
 20
-45.50892503109318
 30
0.0
 10
6.25031711097146
 20
-45.70232509619735
 30
0.0
 10
6.228213907303926
 20
-45.93994174116263
 30
0.0
 10
6.172957593556096
 20
-46.17202453196124
 30
0.0
 10
6.090066765105576
 20
-46.3599043062668
 30
0.0
 10
6.007175936655054
 20
-46.53672993560708
 30
0.0
 10
5.902194620194551
 20
-46.74118753651861
 30
0.0
 10
5.653522134842988
 20
-46.74671121815916
 30
0.0
 10
5.443546786264429
 20
-46.66382886681374
 30
0.0
 10
5.449066229352537
 20
-46.22728169341958
 30
0.0
 10
5.548539970671982
 20
-46.01730041086749
 30
0.0
 10
5.32750200002311
 20
-46.0836117172911
 30
0.0
 10
5.07331007158344
 20
-46.16650085032069
 30
0.0
 10
4.819129163380315
 20
-46.21623093929639
 30
0.0
 10
4.863334723004881
 20
-46.50357767323736
 30
0.0
 10
4.71965542206087
 20
-46.72460970991263
 30
0.0
 10
4.592559033985784
 20
-46.89038458512972
 30
0.0
 10
4.482046406490124
 20
-47.03405795210013
 30
0.0
 10
4.327327371659395
 20
-47.16115349246471
 30
0.0
 10
4.117341002844291
 20
-47.15010273834152
 30
0.0
 10
3.973673569847329
 20
-46.91801316585889
 30
0.0
 10
4.128391756967554
 20
-46.53672993560708
 30
0.0
 10
4.227853630339951
 20
-46.35437723378416
 30
0.0
 10
3.951570366179794
 20
-46.3985836411193
 30
0.0
 10
3.680795524871201
 20
-46.44279683013833
 30
0.0
 10
3.376878593718857
 20
-46.45937126590221
 30
0.0
 10
3.299519076303492
 20
-46.76328904476514
 30
0.0
 10
3.161371086394638
 20
-47.19430914567652
 30
0.0
 10
2.885076801997937
 20
-47.28824564198736
 30
0.0
 10
2.724826456132051
 20
-47.34350619428763
 30
0.0
 10
2.630884025847763
 20
-47.26061706125819
 30
0.0
 10
2.619833271724499
 20
-47.12247076677027
 30
0.0
 10
2.586679313933701
 20
-46.82960374203068
 30
0.0
 10
2.741409369000975
 20
-46.64172396772513
 30
0.0
 10
2.840871242373371
 20
-46.47594909250819
 30
0.0
 10
2.470634527692381
 20
-46.47594909250819
 30
0.0
 10
2.133562791038735
 20
-46.43726297597166
 30
0.0
 10
1.807542656218857
 20
-46.38753288699596
 30
0.0
 10
1.763326076357746
 20
-46.54778408057235
 30
0.0
 10
1.658343912186739
 20
-46.65277811269041
 30
0.0
 10
1.509145168154621
 20
-46.74671121815916
 30
0.0
 10
1.359946424122503
 20
-46.84065449615402
 30
0.0
 10
1.072600537892034
 20
-46.98985493560708
 30
0.0
 10
0.9123501920261484
 20
-46.87380675852374
 30
0.0
 10
0.8957672791572248
 20
-46.76881611724777
 30
0.0
 10
0.9565557516507144
 20
-46.6693525484543
 30
0.0
 10
1.00076131127528
 20
-46.58646341542486
 30
0.0
 10
1.067069226856878
 20
-46.45937126590221
 30
0.0
 10
1.149960055307398
 20
-46.34885355214361
 30
0.0
 10
1.282586906707138
 20
-46.29359639068527
 30
0.0
 10
0.9620870626858706
 20
-46.18860235856722
 30
0.0
 10
0.6360550599189435
 20
-46.08914218061583
 30
0.0
 10
0.3542404847236311
 20
-45.94546881364527
 30
0.0
 10
0.232676255394204
 20
-46.05598313656193
 30
0.0
 10
0.0779462003269297
 20
-46.21623093929639
 30
0.0
 10
-0.1099267922945981
 20
-46.28254563656193
 30
0.0
 10
-0.209399685903539
 20
-46.32122497141444
 30
0.0
 10
-0.3972726785250668
 20
-46.33227572553763
 30
0.0
 10
-0.447009549184789
 20
-46.23833583838485
 30
0.0
 10
-0.491215108809355
 20
-46.16097377783805
 30
0.0
 10
-0.4249071932277578
 20
-46.03387823747347
 30
0.0
 10
-0.3862210766912995
 20
-45.97862107601514
 30
0.0
 10
-0.3088624069864384
 20
-45.85152553565055
 30
0.0
 10
-0.2149199767021501
 20
-45.78521762006888
 30
0.0
 10
-0.0933548996622196
 20
-45.72442999528597
 30
0.0
 10
-0.2204512877373064
 20
-45.63602057145777
 30
0.0
 10
-0.3530671189005009
 20
-45.55313482927027
 30
0.0
 10
-0.4856829500636953
 20
-45.47576937788138
 30
0.0
 10
-0.8117149528306223
 20
-45.50339795861055
 30
0.0
 10
-1.071427172068903
 20
-45.36524827328068
 30
0.0
 10
-1.220625916101022
 20
-45.17737188981722
 30
0.0
 10
-1.270362786760744
 20
-45.12211472835889
 30
0.0
 10
-1.342190145430449
 20
-45.02817823204805
 30
0.0
 10
-1.347722304176108
 20
-44.9563398531418
 30
0.0
 10
-1.386407573002063
 20
-44.69110140913138
 30
0.0
 10
-0.9774847417846154
 20
-44.72978074398389
 30
0.0
 10
-0.8227665546643896
 20
-44.80713941368874
 30
0.0
 10
-0.6459332959295807
 20
-44.90108269168346
 30
0.0
 10
-0.5243690666001536
 20
-45.08896246598902
 30
0.0
 10
-0.4138555913939904
 20
-45.2160580063536
 30
0.0
 10
-0.2646568473618723
 20
-45.31551818430499
 30
0.0
 10
-0.1154581033297543
 20
-45.42603928890568
 30
0.0
 10
0.0503235535712873
 20
-45.50892503109318
 30
0.0
 10
0.0503235535712873
 20
-45.51444871273389
 30
0.0
 10
0.0503235535712873
 20
-45.51444871273389
 30
0.0
 10
0.055842996659395
 20
-45.51444871273389
 30
0.0
 10
0.055842996659395
 20
-45.51444871273389
 30
0.0
 10
0.055842996659395
 20
-45.51444871273389
 30
0.0
 10
0.0613743076945512
 20
-45.51444871273389
 30
0.0
 10
0.0613743076945512
 20
-45.52549946685708
 30
0.0
 10
0.0668945984931623
 20
-45.51444871273389
 30
0.0
 10
0.0613743076945512
 20
-45.51444871273389
 30
0.0
 10
0.0061061259996728
 20
-45.34314676503416
 30
0.0
 10
-0.1762457281127404
 20
-45.12211472835889
 30
0.0
 10
-0.0767728345037995
 20
-44.89555561920083
 30
0.0
 10
-0.0270469840806224
 20
-44.86792703847166
 30
0.0
 10
0.03927195173752
 20
-44.87898118343693
 30
0.0
 10
0.0834775113620859
 20
-44.89555561920083
 30
0.0
 10
0.3210865269328325
 20
-45.00054286963485
 30
0.0
 10
0.4205484003052283
 20
-45.35419751915749
 30
0.0
 10
0.426080559050888
 20
-45.67469990631027
 30
0.0
 10
0.6802606195435096
 20
-45.79626837419222
 30
0.0
 10
0.9786581076077456
 20
-45.87363043473902
 30
0.0
 10
1.260472682803058
 20
-45.9675703218918
 30
0.0
 10
1.199696925967121
 20
-45.85705260813319
 30
0.0
 10
0.9123501920261484
 20
-45.53102653933971
 30
0.0
 10
1.127856851639864
 20
-45.40393438981722
 30
0.0
 10
1.177593722299586
 20
-45.39841070817652
 30
0.0
 10
1.221799281924152
 20
-45.40946146229986
 30
0.0
 10
1.254953239714951
 20
-45.42051221642305
 30
0.0
 10
1.514665458953232
 20
-45.51997239437443
 30
0.0
 10
1.730172118566947
 20
-45.82942402740402
 30
0.0
 10
1.802011345183701
 20
-46.10572000722166
 30
0.0
 10
2.111460435081704
 20
-46.19412943104986
 30
0.0
 10
2.459582925858613
 20
-46.24385952002555
 30
0.0
 10
2.829819640539603
 20
-46.2770185640793
 30
0.0
 10
2.697203809376409
 20
-46.15545009619735
 30
0.0
 10
2.470634527692381
 20
-46.02835455583277
 30
0.0
 10
2.393275010277016
 20
-45.83494770904458
 30
0.0
 10
2.343550007564343
 20
-45.72442999528597
 30
0.0
 10
2.404326612110784
 20
-45.64707132558111
 30
0.0
 10
2.514851107553492
 20
-45.63602057145777
 30
0.0
 10
2.70272410017502
 20
-45.62496642649249
 30
0.0
 10
2.885076801997937
 20
-45.75206196685708
 30
0.0
 10
3.006641031327363
 20
-45.85705260813319
 30
0.0
 10
3.150320332271374
 20
-45.97862107601514
 30
0.0
 10
3.238730603810002
 20
-46.12782151546818
 30
0.0
 10
3.310570678137259
 20
-46.26596780995611
 30
0.0
 10
3.642122123992294
 20
-46.24385952002555
 30
0.0
 10
3.94051961205653
 20
-46.18307867692652
 30
0.0
 10
4.227853630339951
 20
-46.11124368886236
 30
0.0
 10
4.001296216602971
 20
-46.03940530995611
 30
0.0
 10
3.675276081783093
 20
-45.95651956776861
 30
0.0
 10
3.620018920324759
 20
-45.70785216867999
 30
0.0
 10
3.592385253332572
 20
-45.58628709164014
 30
0.0
 10
3.658693168914169
 20
-45.53655022098042
 30
0.0
 10
3.758166910233613
 20
-45.52549946685708
 30
0.0
 10
3.923936699187607
 20
-45.50892503109318
 30
0.0
 10
4.117341002844291
 20
-45.55866190175291
 30
0.0
 10
4.261007588130749
 20
-45.61944274485194
 30
0.0
 10
4.470994804656357
 20
-45.71337924116263
 30
0.0
 10
4.620193548688475
 20
-45.80731912831541
 30
0.0
 10
4.697553066103839
 20
-45.98967183013833
 30
0.0
 10
5.062258469749673
 20
-45.87915411637972
 30
0.0
 10
5.421443582596894
 20
-45.75758903933971
 30
0.0
 10
5.752995876162433
 20
-45.60286491824596
 30
0.0
 10
5.50432339081087
 20
-45.50892503109318
 30
0.0
 10
5.288816731197155
 20
-45.38735656321124
 30
0.0
 10
5.123046094532659
 20
-45.20500386138833
 30
0.0
 10
5.078841382618596
 20
-45.1552669907286
 30
0.0
 10
4.990430263369464
 20
-45.06133388525985
 30
0.0
 10
5.001481865203232
 20
-44.97844136138833
 30
0.0
 10
5.012533467036999
 20
-44.9066097641661
 30
0.0
 10
5.145149298200193
 20
-44.8734541109543
 30
0.0
 10
5.244611171572589
 20
-44.8734541109543
 30
0.0
 10
5.692207403668943
 20
-44.8734541109543
 30
0.0
 10
5.93534857798535
 20
-45.2215816879943
 30
0.0
 10
6.150855237599065
 20
-45.47024230539874
 30
0.0
 10
6.476875372418943
 20
-45.33209601091097
 30
0.0
 10
6.725535989823457
 20
-45.11659104671818
 30
0.0
 10
6.963156873341252
 20
-44.87898118343693
 30
0.0
 10
7.023933477887693
 20
-44.81819016781193
 30
0.0
 10
7.101292995303058
 20
-44.65241529259499
 30
0.0
 10
7.200765888911999
 20
-44.6468916109543
 30
0.0
 10
7.256023050370332
 20
-44.6468916109543
 30
0.0
 10
7.34443332190896
 20
-44.69662848161402
 30
0.0
 10
7.349964632944117
 20
-44.75188564307235
 30
0.0
 10
7.355484923742728
 20
-44.80713941368874
 30
0.0
 10
7.289177008161131
 20
-44.86792703847166
 30
0.0
 10
7.256023050370332
 20
-44.9121334458068
 30
0.0
  0
HATCH
  5
57
330
41
100
AcDbEntity
  8
Layer 1
 62
   250
420
  2301728
100
AcDbHatch
 10
0.0
 20
0.0
 30
0.0
210
0.0
220
0.0
230
1.0
  2
SOLID
 70
     1
 71
     0
 91
        1
 92
        1
 93
        1
 72
     4
 94
        3
 73
     0
 74
     1
 95
      176
 96
      172
 40
0.0
 40
0.0
 40
0.0
 40
0.0
 40
1.0
 40
1.0
 40
1.0
 40
2.0
 40
2.0
 40
2.0
 40
3.0
 40
3.0
 40
3.0
 40
4.0
 40
4.0
 40
4.0
 40
5.0
 40
5.0
 40
5.0
 40
6.0
 40
6.0
 40
6.0
 40
7.0
 40
7.0
 40
7.0
 40
8.0
 40
8.0
 40
8.0
 40
9.0
 40
9.0
 40
9.0
 40
10.0
 40
10.0
 40
10.0
 40
11.0
 40
11.0
 40
11.0
 40
12.0
 40
12.0
 40
12.0
 40
13.0
 40
13.0
 40
13.0
 40
14.0
 40
14.0
 40
14.0
 40
15.0
 40
15.0
 40
15.0
 40
16.0
 40
16.0
 40
16.0
 40
17.0
 40
17.0
 40
17.0
 40
18.0
 40
18.0
 40
18.0
 40
19.0
 40
19.0
 40
19.0
 40
20.0
 40
20.0
 40
20.0
 40
21.0
 40
21.0
 40
21.0
 40
22.0
 40
22.0
 40
22.0
 40
23.0
 40
23.0
 40
23.0
 40
24.0
 40
24.0
 40
24.0
 40
25.0
 40
25.0
 40
25.0
 40
26.0
 40
26.0
 40
26.0
 40
27.0
 40
27.0
 40
27.0
 40
28.0
 40
28.0
 40
28.0
 40
29.0
 40
29.0
 40
29.0
 40
30.0
 40
30.0
 40
30.0
 40
31.0
 40
31.0
 40
31.0
 40
32.0
 40
32.0
 40
32.0
 40
33.0
 40
33.0
 40
33.0
 40
34.0
 40
34.0
 40
34.0
 40
35.0
 40
35.0
 40
35.0
 40
36.0
 40
36.0
 40
36.0
 40
37.0
 40
37.0
 40
37.0
 40
38.0
 40
38.0
 40
38.0
 40
39.0
 40
39.0
 40
39.0
 40
40.0
 40
40.0
 40
40.0
 40
41.0
 40
41.0
 40
41.0
 40
42.0
 40
42.0
 40
42.0
 40
43.0
 40
43.0
 40
43.0
 40
44.0
 40
44.0
 40
44.0
 40
45.0
 40
45.0
 40
45.0
 40
46.0
 40
46.0
 40
46.0
 40
47.0
 40
47.0
 40
47.0
 40
48.0
 40
48.0
 40
48.0
 40
49.0
 40
49.0
 40
49.0
 40
50.0
 40
50.0
 40
50.0
 40
51.0
 40
51.0
 40
51.0
 40
52.0
 40
52.0
 40
52.0
 40
53.0
 40
53.0
 40
53.0
 40
54.0
 40
54.0
 40
54.0
 40
55.0
 40
55.0
 40
55.0
 40
56.0
 40
56.0
 40
56.0
 40
57.0
 40
57.0
 40
57.0
 40
57.0
 10
7.256023050370332
 20
-44.9121334458068
 10
6.985259229298284
 20
-45.24921026872347
 10
6.620553825652451
 20
-45.50892503109318
 10
6.25031711097146
 20
-45.70232509619735
 10
6.228213907303926
 20
-45.93994174116263
 10
6.172957593556096
 20
-46.17202453196124
 10
6.090066765105576
 20
-46.3599043062668
 10
6.007175936655054
 20
-46.53672993560708
 10
5.902194620194551
 20
-46.74118753651861
 10
5.653522134842988
 20
-46.74671121815916
 10
5.443546786264429
 20
-46.66382886681374
 10
5.449066229352537
 20
-46.22728169341958
 10
5.548539970671982
 20
-46.01730041086749
 10
5.32750200002311
 20
-46.0836117172911
 10
5.07331007158344
 20
-46.16650085032069
 10
4.819129163380315
 20
-46.21623093929639
 10
4.863334723004881
 20
-46.50357767323736
 10
4.71965542206087
 20
-46.72460970991263
 10
4.592559033985784
 20
-46.89038458512972
 10
4.482046406490124
 20
-47.03405795210013
 10
4.327327371659395
 20
-47.16115349246471
 10
4.117341002844291
 20
-47.15010273834152
 10
3.973673569847329
 20
-46.91801316585889
 10
4.128391756967554
 20
-46.53672993560708
 10
4.227853630339951
 20
-46.35437723378416
 10
3.951570366179794
 20
-46.3985836411193
 10
3.680795524871201
 20
-46.44279683013833
 10
3.376878593718857
 20
-46.45937126590221
 10
3.299519076303492
 20
-46.76328904476514
 10
3.161371086394638
 20
-47.19430914567652
 10
2.885076801997937
 20
-47.28824564198736
 10
2.724826456132051
 20
-47.34350619428763
 10
2.630884025847763
 20
-47.26061706125819
 10
2.619833271724499
 20
-47.12247076677027
 10
2.586679313933701
 20
-46.82960374203068
 10
2.741409369000975
 20
-46.64172396772513
 10
2.840871242373371
 20
-46.47594909250819
 10
2.470634527692381
 20
-46.47594909250819
 10
2.133562791038735
 20
-46.43726297597166
 10
1.807542656218857
 20
-46.38753288699596
 10
1.763326076357746
 20
-46.54778408057235
 10
1.658343912186739
 20
-46.65277811269041
 10
1.509145168154621
 20
-46.74671121815916
 10
1.359946424122503
 20
-46.84065449615402
 10
1.072600537892034
 20
-46.98985493560708
 10
0.9123501920261484
 20
-46.87380675852374
 10
0.8957672791572248
 20
-46.76881611724777
 10
0.9565557516507144
 20
-46.6693525484543
 10
1.00076131127528
 20
-46.58646341542486
 10
1.067069226856878
 20
-46.45937126590221
 10
1.149960055307398
 20
-46.34885355214361
 10
1.282586906707138
 20
-46.29359639068527
 10
0.9620870626858706
 20
-46.18860235856722
 10
0.6360550599189435
 20
-46.08914218061583
 10
0.3542404847236311
 20
-45.94546881364527
 10
0.232676255394204
 20
-46.05598313656193
 10
0.0779462003269297
 20
-46.21623093929639
 10
-0.1099267922945981
 20
-46.28254563656193
 10
-0.209399685903539
 20
-46.32122497141444
 10
-0.3972726785250668
 20
-46.33227572553763
 10
-0.447009549184789
 20
-46.23833583838485
 10
-0.491215108809355
 20
-46.16097377783805
 10
-0.4249071932277578
 20
-46.03387823747347
 10
-0.3862210766912995
 20
-45.97862107601514
 10
-0.3088624069864384
 20
-45.85152553565055
 10
-0.2149199767021501
 20
-45.78521762006888
 10
-0.0933548996622196
 20
-45.72442999528597
 10
-0.2204512877373064
 20
-45.63602057145777
 10
-0.3530671189005009
 20
-45.55313482927027
 10
-0.4856829500636953
 20
-45.47576937788138
 10
-0.8117149528306223
 20
-45.50339795861055
 10
-1.071427172068903
 20
-45.36524827328068
 10
-1.220625916101022
 20
-45.17737188981722
 10
-1.270362786760744
 20
-45.12211472835889
 10
-1.342190145430449
 20
-45.02817823204805
 10
-1.347722304176108
 20
-44.9563398531418
 10
-1.386407573002063
 20
-44.69110140913138
 10
-0.9774847417846154
 20
-44.72978074398389
 10
-0.8227665546643896
 20
-44.80713941368874
 10
-0.6459332959295807
 20
-44.90108269168346
 10
-0.5243690666001536
 20
-45.08896246598902
 10
-0.4138555913939904
 20
-45.2160580063536
 10
-0.2646568473618723
 20
-45.31551818430499
 10
-0.1154581033297543
 20
-45.42603928890568
 10
0.0503235535712873
 20
-45.50892503109318
 10
0.0503235535712873
 20
-45.51444871273389
 10
0.0503235535712873
 20
-45.51444871273389
 10
0.055842996659395
 20
-45.51444871273389
 10
0.055842996659395
 20
-45.51444871273389
 10
0.055842996659395
 20
-45.51444871273389
 10
0.0613743076945512
 20
-45.51444871273389
 10
0.0613743076945512
 20
-45.52549946685708
 10
0.0668945984931623
 20
-45.51444871273389
 10
0.0613743076945512
 20
-45.51444871273389
 10
0.0061061259996728
 20
-45.34314676503416
 10
-0.1762457281127404
 20
-45.12211472835889
 10
-0.0767728345037995
 20
-44.89555561920083
 10
-0.0270469840806224
 20
-44.86792703847166
 10
0.03927195173752
 20
-44.87898118343693
 10
0.0834775113620859
 20
-44.89555561920083
 10
0.3210865269328325
 20
-45.00054286963485
 10
0.4205484003052283
 20
-45.35419751915749
 10
0.426080559050888
 20
-45.67469990631027
 10
0.6802606195435096
 20
-45.79626837419222
 10
0.9786581076077456
 20
-45.87363043473902
 10
1.260472682803058
 20
-45.9675703218918
 10
1.199696925967121
 20
-45.85705260813319
 10
0.9123501920261484
 20
-45.53102653933971
 10
1.127856851639864
 20
-45.40393438981722
 10
1.177593722299586
 20
-45.39841070817652
 10
1.221799281924152
 20
-45.40946146229986
 10
1.254953239714951
 20
-45.42051221642305
 10
1.514665458953232
 20
-45.51997239437443
 10
1.730172118566947
 20
-45.82942402740402
 10
1.802011345183701
 20
-46.10572000722166
 10
2.111460435081704
 20
-46.19412943104986
 10
2.459582925858613
 20
-46.24385952002555
 10
2.829819640539603
 20
-46.2770185640793
 10
2.697203809376409
 20
-46.15545009619735
 10
2.470634527692381
 20
-46.02835455583277
 10
2.393275010277016
 20
-45.83494770904458
 10
2.343550007564343
 20
-45.72442999528597
 10
2.404326612110784
 20
-45.64707132558111
 10
2.514851107553492
 20
-45.63602057145777
 10
2.70272410017502
 20
-45.62496642649249
 10
2.885076801997937
 20
-45.75206196685708
 10
3.006641031327363
 20
-45.85705260813319
 10
3.150320332271374
 20
-45.97862107601514
 10
3.238730603810002
 20
-46.12782151546818
 10
3.310570678137259
 20
-46.26596780995611
 10
3.642122123992294
 20
-46.24385952002555
 10
3.94051961205653
 20
-46.18307867692652
 10
4.227853630339951
 20
-46.11124368886236
 10
4.001296216602971
 20
-46.03940530995611
 10
3.675276081783093
 20
-45.95651956776861
 10
3.620018920324759
 20
-45.70785216867999
 10
3.592385253332572
 20
-45.58628709164014
 10
3.658693168914169
 20
-45.53655022098042
 10
3.758166910233613
 20
-45.52549946685708
 10
3.923936699187607
 20
-45.50892503109318
 10
4.117341002844291
 20
-45.55866190175291
 10
4.261007588130749
 20
-45.61944274485194
 10
4.470994804656357
 20
-45.71337924116263
 10
4.620193548688475
 20
-45.80731912831541
 10
4.697553066103839
 20
-45.98967183013833
 10
5.062258469749673
 20
-45.87915411637972
 10
5.421443582596894
 20
-45.75758903933971
 10
5.752995876162433
 20
-45.60286491824596
 10
5.50432339081087
 20
-45.50892503109318
 10
5.288816731197155
 20
-45.38735656321124
 10
5.123046094532659
 20
-45.20500386138833
 10
5.078841382618596
 20
-45.1552669907286
 10
4.990430263369464
 20
-45.06133388525985
 10
5.001481865203232
 20
-44.97844136138833
 10
5.012533467036999
 20
-44.9066097641661
 10
5.145149298200193
 20
-44.8734541109543
 10
5.244611171572589
 20
-44.8734541109543
 10
5.692207403668943
 20
-44.8734541109543
 10
5.93534857798535
 20
-45.2215816879943
 10
6.150855237599065
 20
-45.47024230539874
 10
6.476875372418943
 20
-45.33209601091097
 10
6.725535989823457
 20
-45.11659104671818
 10
6.963156873341252
 20
-44.87898118343693
 10
7.023933477887693
 20
-44.81819016781193
 10
7.101292995303058
 20
-44.65241529259499
 10
7.200765888911999
 20
-44.6468916109543
 10
7.256023050370332
 20
-44.6468916109543
 10
7.34443332190896
 20
-44.69662848161402
 10
7.349964632944117
 20
-44.75188564307235
 10
7.355484923742728
 20
-44.80713941368874
 10
7.289177008161131
 20
-44.86792703847166
 10
7.256023050370332
 20
-44.9121334458068
 97
        0
 97
        0
 75
     2
 76
     1
 98
        0
  0
ENDBLK
  5
44
330
41
100
AcDbEntity
  8
0
100
AcDbBlockEnd
  0
ENDSEC
  0
SECTION
  2
ENTITIES
  0
INSERT
  5
42
330
1F
100
AcDbEntity
  8
Layer 1
100
AcDbBlockReference
  2
block 2
 10
0.0
 20
0.0
 30
0.0
  0
ENDSEC
  0
SECTION
  2
OBJECTS
  0
DICTIONARY
  5
C
330
0
100
AcDbDictionary
281
     1
  3
ACAD_GROUP
350
D
  3
ACAD_LAYOUT
350
1A
  3
ACAD_MATERIAL
350
3B
  3
ACAD_MLEADERSTYLE
350
59
  3
ACAD_MLINESTYLE
350
17
  3
ACAD_PLOTSETTINGS
350
19
  3
ACAD_PLOTSTYLENAME
350
E
  3
ACAD_TABLESTYLE
350
58
  3
ACAD_VISUALSTYLE
350
2A
  0
SUN
  5
3F
330
29
100
AcDbSun
 90
        1
290
     0
 63
     7
421
 16777215
 40
1.0
291
     1
 91
  2455826
 92
 54000000
292
     0
 70
     2
 71
   256
280
     1
  0
DICTIONARY
  5
D
102
{ACAD_REACTORS
330
C
102
}
330
C
100
AcDbDictionary
281
     1
  0
DICTIONARY
  5
1A
102
{ACAD_REACTORS
330
C
102
}
330
C
100
AcDbDictionary
281
     1
  3
Layout1
350
1E
  3
Layout2
350
26
  3
Model
350
22
  0
DICTIONARY
  5
3B
102
{ACAD_REACTORS
330
C
102
}
330
C
100
AcDbDictionary
281
     1
  3
ByBlock
350
3D
  3
ByLayer
350
3C
  3
Global
350
3E
  0
DICTIONARY
  5
59
102
{ACAD_REACTORS
330
C
102
}
330
C
100
AcDbDictionary
281
     1
  0
DICTIONARY
  5
17
102
{ACAD_REACTORS
330
C
102
}
330
C
100
AcDbDictionary
281
     1
  3
Standard
350
18
  0
DICTIONARY
  5
19
102
{ACAD_REACTORS
330
C
102
}
330
C
100
AcDbDictionary
281
     1
  0
ACDBDICTIONARYWDFLT
  5
E
102
{ACAD_REACTORS
330
C
102
}
330
C
100
AcDbDictionary
281
     1
  3
Normal
350
F
100
AcDbDictionaryWithDefault
340
F
  0
DICTIONARY
  5
58
102
{ACAD_REACTORS
330
C
102
}
330
C
100
AcDbDictionary
281
     1
  0
DICTIONARY
  5
2A
102
{ACAD_REACTORS
330
C
102
}
330
C
100
AcDbDictionary
281
     1
  3
2dWireframe
350
2F
  3
3D Hidden
350
31
  3
3dWireframe
350
30
  3
Basic
350
32
  3
Brighten
350
36
  3
ColorChange
350
3A
  3
Conceptual
350
34
  3
Dim
350
35
  3
Facepattern
350
39
  3
Flat
350
2B
  3
FlatWithEdges
350
2C
  3
Gouraud
350
2D
  3
GouraudWithEdges
350
2E
  3
Linepattern
350
38
  3
Realistic
350
33
  3
Thicken
350
37
  0
LAYOUT
  5
1E
102
{ACAD_REACTORS
330
1A
102
}
330
1A
100
AcDbPlotSettings
  1

  2
none_device
  4

  6

 40
0.0
 41
0.0
 42
0.0
 43
0.0
 44
0.0
 45
0.0
 46
0.0
 47
0.0
 48
0.0
 49
0.0
140
0.0
141
0.0
142
1.0
143
1.0
 70
   688
 72
     0
 73
     0
 74
     5
  7

 75
    16
 76
     0
 77
     2
 78
   300
147
1.0
148
0.0
149
0.0
100
AcDbLayout
  1
Layout1
 70
     1
 71
     1
 10
0.0
 20
0.0
 11
12.0
 21
9.0
 12
0.0
 22
0.0
 32
0.0
 14
1.000000000000000E+20
 24
1.000000000000000E+20
 34
1.000000000000000E+20
 15
-1.000000000000000E+20
 25
-1.000000000000000E+20
 35
-1.000000000000000E+20
146
0.0
 13
0.0
 23
0.0
 33
0.0
 16
1.0
 26
0.0
 36
0.0
 17
0.0
 27
1.0
 37
0.0
 76
     0
330
1B
  0
LAYOUT
  5
26
102
{ACAD_REACTORS
330
1A
102
}
330
1A
100
AcDbPlotSettings
  1

  2
none_device
  4

  6

 40
0.0
 41
0.0
 42
0.0
 43
0.0
 44
0.0
 45
0.0
 46
0.0
 47
0.0
 48
0.0
 49
0.0
140
0.0
141
0.0
142
1.0
143
1.0
 70
   688
 72
     0
 73
     0
 74
     5
  7

 75
    16
 76
     0
 77
     2
 78
   300
147
1.0
148
0.0
149
0.0
100
AcDbLayout
  1
Layout2
 70
     1
 71
     2
 10
0.0
 20
0.0
 11
0.0
 21
0.0
 12
0.0
 22
0.0
 32
0.0
 14
0.0
 24
0.0
 34
0.0
 15
0.0
 25
0.0
 35
0.0
146
0.0
 13
0.0
 23
0.0
 33
0.0
 16
1.0
 26
0.0
 36
0.0
 17
0.0
 27
1.0
 37
0.0
 76
     0
330
23
  0
LAYOUT
  5
22
102
{ACAD_REACTORS
330
1A
102
}
330
1A
100
AcDbPlotSettings
  1

  2
none_device
  4

  6

 40
0.0
 41
0.0
 42
0.0
 43
0.0
 44
0.0
 45
0.0
 46
0.0
 47
0.0
 48
0.0
 49
0.0
140
0.0
141
0.0
142
1.0
143
1.0
 70
  1712
 72
     0
 73
     0
 74
     0
  7

 75
     0
 76
     0
 77
     2
 78
   300
147
1.0
148
0.0
149
0.0
100
AcDbLayout
  1
Model
 70
     1
 71
     0
 10
0.0
 20
0.0
 11
12.0
 21
9.0
 12
0.0
 22
0.0
 32
0.0
 14
1.000000000000000E+20
 24
1.000000000000000E+20
 34
1.000000000000000E+20
 15
-1.000000000000000E+20
 25
-1.000000000000000E+20
 35
-1.000000000000000E+20
146
0.0
 13
0.0
 23
0.0
 33
0.0
 16
1.0
 26
0.0
 36
0.0
 17
0.0
 27
1.0
 37
0.0
 76
     0
330
1F
331
29
  0
MATERIAL
  5
3D
102
{ACAD_REACTORS
330
3B
102
}
330
3B
100
AcDbMaterial
  1
ByBlock
 72
     1
 94
      127
  0
MATERIAL
  5
3C
102
{ACAD_REACTORS
330
3B
102
}
330
3B
100
AcDbMaterial
  1
ByLayer
 72
     1
 94
      127
  0
MATERIAL
  5
3E
102
{ACAD_REACTORS
330
3B
102
}
330
3B
100
AcDbMaterial
  1
Global
 72
     1
 94
      127
  0
MLINESTYLE
  5
18
102
{ACAD_REACTORS
330
17
102
}
330
17
100
AcDbMlineStyle
  2
Standard
 70
     0
  3

 62
   256
 51
90.0
 52
90.0
 71
     2
 49
0.5
 62
   256
  6
BYLAYER
 49
-0.5
 62
   256
  6
BYLAYER
  0
ACDBPLACEHOLDER
  5
F
102
{ACAD_REACTORS
330
E
102
}
330
E
  0
VISUALSTYLE
  5
2F
102
{ACAD_REACTORS
330
2A
102
}
330
2A
100
AcDbVisualStyle
  2
2dWireframe
 70
     4
177
     2
291
     0
 71
     0
176
     1
 72
     2
176
     1
 73
     0
176
     1
 90
        0
176
     1
 40
-0.6
176
     1
 41
-30.0
176
     1
 62
     5
 63
     7
421
 16777215
176
     1
 74
     1
176
     1
 91
        4
176
     1
 64
     7
176
     1
 65
   257
176
     1
 75
     1
176
     1
175
     1
176
     1
 42
1.0
176
     1
 92
        0
176
     1
 66
   257
176
     1
 43
1.0
176
     1
 76
     1
176
     1
 77
     6
176
     1
 78
     2
176
     1
 67
     7
176
     1
 79
     5
176
     1
170
     0
176
     1
171
     0
176
     1
290
     0
176
     1
 93
        1
176
     1
 44
0.0
176
     1
173
     0
176
     1
  0
VISUALSTYLE
  5
31
102
{ACAD_REACTORS
330
2A
102
}
330
2A
100
AcDbVisualStyle
  2
3D Hidden
 70
     6
177
     2
291
     0
 71
     1
176
     1
 72
     2
176
     1
 73
     2
176
     1
 90
        0
176
     1
 40
-0.6
176
     1
 41
-30.0
176
     1
 62
     5
 63
     7
421
 16777215
176
     1
 74
     2
176
     1
 91
        2
176
     1
 64
     7
176
     1
 65
   257
176
     1
 75
     2
176
     1
175
     1
176
     1
 42
40.0
176
     1
 92
        0
176
     1
 66
   257
176
     1
 43
1.0
176
     1
 76
     1
176
     1
 77
     6
176
     1
 78
     2
176
     1
 67
     7
176
     1
 79
     3
176
     1
170
     0
176
     1
171
     0
176
     1
290
     0
176
     1
 93
        1
176
     1
 44
0.0
176
     1
173
     0
176
     1
  0
VISUALSTYLE
  5
30
102
{ACAD_REACTORS
330
2A
102
}
330
2A
100
AcDbVisualStyle
  2
3dWireframe
 70
     5
177
     2
291
     0
 71
     0
176
     1
 72
     2
176
     1
 73
     0
176
     1
 90
        0
176
     1
 40
-0.6
176
     1
 41
-30.0
176
     1
 62
     5
 63
     7
421
 16777215
176
     1
 74
     1
176
     1
 91
        4
176
     1
 64
     7
176
     1
 65
   257
176
     1
 75
     1
176
     1
175
     1
176
     1
 42
1.0
176
     1
 92
        0
176
     1
 66
   257
176
     1
 43
1.0
176
     1
 76
     1
176
     1
 77
     6
176
     1
 78
     2
176
     1
 67
     7
176
     1
 79
     5
176
     1
170
     0
176
     1
171
     0
176
     1
290
     0
176
     1
 93
        1
176
     1
 44
0.0
176
     1
173
     0
176
     1
  0
VISUALSTYLE
  5
32
102
{ACAD_REACTORS
330
2A
102
}
330
2A
100
AcDbVisualStyle
  2
Basic
 70
     7
177
     2
291
     1
 71
     1
176
     1
 72
     0
176
     1
 73
     1
176
     1
 90
        0
176
     1
 40
-0.6
176
     1
 41
-30.0
176
     1
 62
     5
 63
     7
421
 16777215
176
     1
 74
     0
176
     1
 91
        4
176
     1
 64
     7
176
     1
 65
   257
176
     1
 75
     1
176
     1
175
     1
176
     1
 42
1.0
176
     1
 92
        8
176
     1
 66
     7
176
     1
 43
1.0
176
     1
 76
     1
176
     1
 77
     6
176
     1
 78
     2
176
     1
 67
     7
176
     1
 79
     5
176
     1
170
     0
176
     1
171
     0
176
     1
290
     0
176
     1
 93
        1
176
     1
 44
0.0
176
     1
173
     0
176
     1
  0
VISUALSTYLE
  5
36
102
{ACAD_REACTORS
330
2A
102
}
330
2A
100
AcDbVisualStyle
  2
Brighten
 70
    12
177
     2
291
     1
 71
     2
176
     1
 72
     2
176
     1
 73
     0
176
     1
 90
        0
176
     1
 40
-0.6
176
     1
 41
-30.0
176
     1
 62
     5
 63
     7
421
 16777215
176
     1
 74
     1
176
     1
 91
        4
176
     1
 64
     7
176
     1
 65
   257
176
     1
 75
     1
176
     1
175
     1
176
     1
 42
1.0
176
     1
 92
        8
176
     1
 66
     7
176
     1
 43
1.0
176
     1
 76
     1
176
     1
 77
     6
176
     1
 78
     2
176
     1
 67
     7
176
     1
 79
     5
176
     1
170
     0
176
     1
171
     0
176
     1
290
     0
176
     1
 93
        1
176
     1
 44
50.0
176
     1
173
     0
176
     1
  0
VISUALSTYLE
  5
3A
102
{ACAD_REACTORS
330
2A
102
}
330
2A
100
AcDbVisualStyle
  2
ColorChange
 70
    16
177
     2
291
     1
 71
     2
176
     1
 72
     2
176
     1
 73
     3
176
     1
 90
        0
176
     1
 40
-0.6
176
     1
 41
-30.0
176
     1
 62
     5
 63
     8
421
  8421504
176
     1
 74
     1
176
     1
 91
        4
176
     1
 64
     7
176
     1
 65
   257
176
     1
 75
     1
176
     1
175
     1
176
     1
 42
1.0
176
     1
 92
        8
176
     1
 66
     8
424
  8421504
176
     1
 43
1.0
176
     1
 76
     1
176
     1
 77
     6
176
     1
 78
     2
176
     1
 67
     7
176
     1
 79
     5
176
     1
170
     0
176
     1
171
     0
176
     1
290
     0
176
     1
 93
        1
176
     1
 44
0.0
176
     1
173
     0
176
     1
  0
VISUALSTYLE
  5
34
102
{ACAD_REACTORS
330
2A
102
}
330
2A
100
AcDbVisualStyle
  2
Conceptual
 70
     9
177
     2
291
     0
 71
     3
176
     1
 72
     2
176
     1
 73
     0
176
     1
 90
        0
176
     1
 40
-0.6
176
     1
 41
-30.0
176
     1
 62
     5
 63
     7
421
 16777215
176
     1
 74
     2
176
     1
 91
        2
176
     1
 64
     7
176
     1
 65
   257
176
     1
 75
     1
176
     1
175
     1
176
     1
 42
40.0
176
     1
 92
        8
176
     1
 66
     7
176
     1
 43
1.0
176
     1
 76
     1
176
     1
 77
     6
176
     1
 78
     2
176
     1
 67
     7
176
     1
 79
     3
176
     1
170
     0
176
     1
171
     0
176
     1
290
     0
176
     1
 93
        1
176
     1
 44
0.0
176
     1
173
     0
176
     1
  0
VISUALSTYLE
  5
35
102
{ACAD_REACTORS
330
2A
102
}
330
2A
100
AcDbVisualStyle
  2
Dim
 70
    11
177
     2
291
     1
 71
     2
176
     1
 72
     2
176
     1
 73
     0
176
     1
 90
        0
176
     1
 40
-0.6
176
     1
 41
-30.0
176
     1
 62
     5
 63
     7
421
 16777215
176
     1
 74
     1
176
     1
 91
        4
176
     1
 64
     7
176
     1
 65
   257
176
     1
 75
     1
176
     1
175
     1
176
     1
 42
1.0
176
     1
 92
        8
176
     1
 66
     7
176
     1
 43
1.0
176
     1
 76
     1
176
     1
 77
     6
176
     1
 78
     2
176
     1
 67
     7
176
     1
 79
     5
176
     1
170
     0
176
     1
171
     0
176
     1
290
     0
176
     1
 93
        1
176
     1
 44
-50.0
176
     1
173
     0
176
     1
  0
VISUALSTYLE
  5
39
102
{ACAD_REACTORS
330
2A
102
}
330
2A
100
AcDbVisualStyle
  2
Facepattern
 70
    15
177
     2
291
     1
 71
     2
176
     1
 72
     2
176
     1
 73
     0
176
     1
 90
        0
176
     1
 40
-0.6
176
     1
 41
-30.0
176
     1
 62
     5
 63
     7
421
 16777215
176
     1
 74
     1
176
     1
 91
        4
176
     1
 64
     7
176
     1
 65
   257
176
     1
 75
     1
176
     1
175
     1
176
     1
 42
1.0
176
     1
 92
        8
176
     1
 66
     7
176
     1
 43
1.0
176
     1
 76
     1
176
     1
 77
     6
176
     1
 78
     2
176
     1
 67
     7
176
     1
 79
     5
176
     1
170
     0
176
     1
171
     0
176
     1
290
     0
176
     1
 93
        1
176
     1
 44
0.0
176
     1
173
     0
176
     1
  0
VISUALSTYLE
  5
2B
102
{ACAD_REACTORS
330
2A
102
}
330
2A
100
AcDbVisualStyle
  2
Flat
 70
     0
177
     2
291
     1
 71
     2
176
     1
 72
     1
176
     1
 73
     1
176
     1
 90
        2
176
     1
 40
-0.6
176
     1
 41
30.0
176
     1
 62
     5
 63
     7
421
 16777215
176
     1
 74
     0
176
     1
 91
        4
176
     1
 64
     7
176
     1
 65
   257
176
     1
 75
     1
176
     1
175
     1
176
     1
 42
1.0
176
     1
 92
        8
176
     1
 66
     7
176
     1
 43
1.0
176
     1
 76
     1
176
     1
 77
     6
176
     1
 78
     2
176
     1
 67
     7
176
     1
 79
     5
176
     1
170
     0
176
     1
171
     0
176
     1
290
     0
176
     1
 93
       13
176
     1
 44
0.0
176
     1
173
     0
176
     1
  0
VISUALSTYLE
  5
2C
102
{ACAD_REACTORS
330
2A
102
}
330
2A
100
AcDbVisualStyle
  2
FlatWithEdges
 70
     1
177
     2
291
     1
 71
     2
176
     1
 72
     1
176
     1
 73
     1
176
     1
 90
        2
176
     1
 40
-0.6
176
     1
 41
30.0
176
     1
 62
     5
 63
     7
421
 16777215
176
     1
 74
     1
176
     1
 91
        4
176
     1
 64
     7
176
     1
 65
   257
176
     1
 75
     1
176
     1
175
     1
176
     1
 42
1.0
176
     1
 92
        0
176
     1
 66
   257
176
     1
 43
1.0
176
     1
 76
     1
176
     1
 77
     6
176
     1
 78
     2
176
     1
 67
     7
176
     1
 79
     5
176
     1
170
     0
176
     1
171
     0
176
     1
290
     0
176
     1
 93
       13
176
     1
 44
0.0
176
     1
173
     0
176
     1
  0
VISUALSTYLE
  5
2D
102
{ACAD_REACTORS
330
2A
102
}
330
2A
100
AcDbVisualStyle
  2
Gouraud
 70
     2
177
     2
291
     1
 71
     2
176
     1
 72
     2
176
     1
 73
     1
176
     1
 90
        2
176
     1
 40
-0.6
176
     1
 41
30.0
176
     1
 62
     5
 63
     7
421
 16777215
176
     1
 74
     0
176
     1
 91
        4
176
     1
 64
     7
176
     1
 65
   257
176
     1
 75
     1
176
     1
175
     1
176
     1
 42
1.0
176
     1
 92
        0
176
     1
 66
     7
176
     1
 43
1.0
176
     1
 76
     1
176
     1
 77
     6
176
     1
 78
     2
176
     1
 67
     7
176
     1
 79
     5
176
     1
170
     0
176
     1
171
     0
176
     1
290
     0
176
     1
 93
       13
176
     1
 44
0.0
176
     1
173
     0
176
     1
  0
VISUALSTYLE
  5
2E
102
{ACAD_REACTORS
330
2A
102
}
330
2A
100
AcDbVisualStyle
  2
GouraudWithEdges
 70
     3
177
     2
291
     1
 71
     2
176
     1
 72
     2
176
     1
 73
     1
176
     1
 90
        2
176
     1
 40
-0.6
176
     1
 41
30.0
176
     1
 62
     5
 63
     7
421
 16777215
176
     1
 74
     1
176
     1
 91
        4
176
     1
 64
     7
176
     1
 65
   257
176
     1
 75
     1
176
     1
175
     1
176
     1
 42
1.0
176
     1
 92
        0
176
     1
 66
   257
176
     1
 43
1.0
176
     1
 76
     1
176
     1
 77
     6
176
     1
 78
     2
176
     1
 67
     7
176
     1
 79
     5
176
     1
170
     0
176
     1
171
     0
176
     1
290
     0
176
     1
 93
       13
176
     1
 44
0.0
176
     1
173
     0
176
     1
  0
VISUALSTYLE
  5
38
102
{ACAD_REACTORS
330
2A
102
}
330
2A
100
AcDbVisualStyle
  2
Linepattern
 70
    14
177
     2
291
     1
 71
     2
176
     1
 72
     2
176
     1
 73
     0
176
     1
 90
        0
176
     1
 40
-0.6
176
     1
 41
-30.0
176
     1
 62
     5
 63
     7
421
 16777215
176
     1
 74
     1
176
     1
 91
        4
176
     1
 64
     7
176
     1
 65
   257
176
     1
 75
     7
176
     1
175
     7
176
     1
 42
1.0
176
     1
 92
        8
176
     1
 66
     7
176
     1
 43
1.0
176
     1
 76
     1
176
     1
 77
     6
176
     1
 78
     2
176
     1
 67
     7
176
     1
 79
     5
176
     1
170
     0
176
     1
171
     0
176
     1
290
     0
176
     1
 93
        1
176
     1
 44
0.0
176
     1
173
     0
176
     1
  0
VISUALSTYLE
  5
33
102
{ACAD_REACTORS
330
2A
102
}
330
2A
100
AcDbVisualStyle
  2
Realistic
 70
     8
177
     2
291
     0
 71
     2
176
     1
 72
     2
176
     1
 73
     0
176
     1
 90
        0
176
     1
 40
-0.6
176
     1
 41
-30.0
176
     1
 62
     5
 63
     7
421
 16777215
176
     1
 74
     1
176
     1
 91
        0
176
     1
 64
     7
176
     1
 65
   257
176
     1
 75
     1
176
     1
175
     1
176
     1
 42
1.0
176
     1
 92
        8
176
     1
 66
     8
424
  7895160
176
     1
 43
1.0
176
     1
 76
     1
176
     1
 77
     6
176
     1
 78
     2
176
     1
 67
     7
176
     1
 79
     5
176
     1
170
     0
176
     1
171
     0
176
     1
290
     0
176
     1
 93
       13
176
     1
 44
0.0
176
     1
173
     0
176
     1
  0
VISUALSTYLE
  5
37
102
{ACAD_REACTORS
330
2A
102
}
330
2A
100
AcDbVisualStyle
  2
Thicken
 70
    13
177
     2
291
     1
 71
     2
176
     1
 72
     2
176
     1
 73
     0
176
     1
 90
        0
176
     1
 40
-0.6
176
     1
 41
-30.0
176
     1
 62
     5
 63
     7
421
 16777215
176
     1
 74
     1
176
     1
 91
        4
176
     1
 64
     7
176
     1
 65
   257
176
     1
 75
     1
176
     1
175
     1
176
     1
 42
1.0
176
     1
 92
       12
176
     1
 66
     7
176
     1
 43
1.0
176
     1
 76
     1
176
     1
 77
     6
176
     1
 78
     2
176
     1
 67
     7
176
     1
 79
     5
176
     1
170
     0
176
     1
171
     0
176
     1
290
     0
176
     1
 93
        1
176
     1
 44
0.0
176
     1
173
     0
176
     1
  0
ENDSEC
  0
EOF
